M48
;Layer_Color=9474304
;FILE_FORMAT=4:4
METRIC,LZ
;TYPE=PLATED
T01F00S00C0.1000
%
T01
X001275Y00134284
X001425
X00245654Y00116883
X00243352Y00112237
X00238559Y00101493
X0032705Y00103823
X0033848Y00104157
X00333612Y000633
X00302479Y00069431
X00268473Y001725
Y001875
X002575Y002076
X0024864Y00207588
X002485Y001986
Y002166
Y002316
Y002406
X002575
X002485Y002496
X002425Y00248473
X002395Y002406
Y002076
X002245
X002155
Y002166
X002065Y002076
X002015Y002105
Y002015
X002105
X002155Y001986
X001925Y002015
X001915Y002076
X001825
Y001986
Y002316
Y002406
X001445Y002015
Y001685
X001925
X002015
Y001775
X002105Y001685
X002015Y001595
X0026Y00259804
X00291098Y00300422
X00363855Y00365673
X001315Y002466
Y002416
Y002366
Y002316
Y002266
Y002216
Y002166
Y002116
Y002066
Y002016
X001355Y002015
X001315Y001966
Y001916
X001355Y001925
X001315Y001866
X001355Y001775
Y001685
Y001595
X001265Y001685
Y002015
X001355Y002105
X001155Y002325
X0031557Y00604674
Y0062365
X0045325Y0073165
X002325Y00875
Y00881
Y00887
Y009
Y00906
Y00912
Y00925
Y00931
X00922893Y0095868
X00923283Y00985279
X002325Y00962
Y00956
Y0095
Y00937
X00537823Y01527522
M30
