M48
;Layer_Color=9474304
;FILE_FORMAT=4:4
METRIC,LZ
;TYPE=PLATED
T01F00S00C0.1000
%
T01
X00106Y00008
Y00024522
Y00031022
Y00037022
Y00044022
Y00051022
Y00058022
Y00065022
Y00072022
Y00079022
Y00086022
Y00093022
Y00100022
Y00107022
Y00114022
Y00121022
X00113Y0012
X00119
X00123672Y00124126
X00122928Y00130524
X00117621Y00133004
X0011901Y00138014
X00106Y00138
Y00132
X00134Y0013
X00136Y0012
X00142
Y00113
X00136
X0013
Y0012
X00165401Y00131193
X00195061Y00120291
X00192959Y0011375
X00209679Y00116756
X00220055Y00132585
X0022691Y00141219
X00240846Y00133409
X00248026Y0013436
X0025511Y001326
X00271985Y0013027
X00276017Y00132703
X00283062Y00132842
X0029007Y00133419
X00283165Y00084507
X00286516Y0007917
X00289401Y00075179
X00308848Y00076664
X00314954Y00077116
X00315678Y00070357
X0033633Y00074735
X0034634Y00074576
X00362213Y00062676
X00372157Y00059794
X00382377Y0005867
X003665Y00050407
X00396239Y00078112
X00406866Y00076216
X00420631Y0003429
X00421004Y00028917
X0047Y00031
X0047927Y00047395
X0049458Y0005175
X00494577Y00057086
X00524107Y00057313
X00523631Y0009729
X0052835Y00115505
X00539632Y0011329
X004657Y00117424
X00460545Y00104739
X00445999Y00104497
X00439944Y00119694
X00434631Y0012029
X00435996Y00130926
X00388632Y0013129
X00381631Y00131205
X00369907Y00117595
X00360713Y00120353
X00320938Y00035453
X00213599Y000508
X00205143Y00088885
X00555817Y00083406
X00560228Y00092159
X00560012Y0009993
X00567374Y00101159
X00563632Y0010529
Y0011329
X00560531Y00121567
X00563631Y0012929
X00568266Y0012755
X00571631Y0012129
X00577631Y00115578
X00587631Y0011329
X00587631Y0012129
X00587631Y0012929
Y0013729
X00595631
Y0012929
Y0012129
Y0011329
X00599768Y00117137
X00603631Y0010529
X00603631Y0009729
X00595631Y0009729
X00599582Y00092688
X00590924Y00092904
X00576763Y00100159
X00611631Y0009729
X00611632Y0010529
X00611631Y0011329
X00623193Y00110971
X00627631Y0012129
X00627631Y0012929
X00631609Y00126156
X00616268Y00129612
X00611632Y0012929
X00606699Y00132358
X00603632Y0013729
X00571631Y0013729
X00563632
X00555631Y0012929
X00547631Y0011329
X00554062Y00070826
X0056062Y000479
X0056612
X0057312
X0057862
X00596228Y00054326
X006049Y00073152
X00619543Y00076816
X006209Y0006284
X00627631Y0009729
X00652304Y00120871
X00662551Y0013335
X00678348Y0010288
X00683703Y00098173
X00688624Y00099191
X0068581Y0008659
X00680319Y00083917
X00678557Y00090898
X00674405Y00076286
X0068581Y0007759
X0069481
Y0008659
X0070381
Y0007759
Y0006859
X0069481
X0068581
X006846Y000233
X006696Y00031293
X00655578Y00030659
X00649144Y0002274
X00650298Y0004709
X00739734Y00058176
X00752062Y000547
X00752062Y000647
X00752063Y0008059
Y0009059
X00745801Y00101077
X00745636Y00075392
X00784476Y00062744
X00794476
X0079765Y00022864
X00803432Y00022506
X00810674Y00022781
X00843341Y00020551
X00848474Y00022847
X00855311Y00022718
X00890641Y00009749
X00756247Y0013256
X00750146Y00136366
X00740187Y00136544
X00730729Y0014075
X00726Y0013775
X00716
X0053987Y00034375
X00967398Y00227217
X00978898Y00227328
X00988564Y00279281
X009845Y00283973
X00967865Y00486667
X00899Y00486
X00801228Y00483159
X00796631Y0048629
X00789601Y00480658
X00793825Y00475617
X00783228Y00486159
X00785619Y00489155
X00780128Y00493706
X00777228Y00486159
X00774228Y00489159
X00768343
X00764383Y00483159
X00760155Y00494378
X0074295Y00503272
X00792072Y00507939
X00799045Y0050477
X00795228Y00500159
X00792228Y00496159
X008032Y00497939
X0079746Y00514594
X0082115Y0046122
X00744768Y00429311
X00743837Y00407274
X00732175Y00401484
X00726665Y0036074
X00727915Y0034649
X00736915
Y0033749
X00727915
Y0032849
X00736915
X00745915
Y0033749
Y0034649
X00754914
X00763914
Y0033749
X00754914
Y0032849
X00763914
Y0031949
Y0031049
X00768636Y00307418
X00778219Y00309222
X00778165Y0030374
Y0029824
X00778014Y00314925
X00754914Y0031949
X00745915
Y0031049
X00736915
Y0031949
X00727915
X00724415Y0029774
X00743165Y0029624
X00754165
X00788415Y0028174
X00810092Y00286434
X00810915Y0029249
Y0030449
Y0031049
Y0032249
X00806094Y00267621
X00844265Y00236998
X00733539Y00223955
X00723921Y00221725
X00738632Y00187734
X00742872Y00183678
X00736169Y00143432
X00696351Y00176887
X00689287Y00179288
X00655156Y0016183
X00646109Y00157159
X00616766Y00157
X00603631Y0016129
X00595631Y0015329
X00587631Y0015329
Y0016129
X00571631Y0016129
Y0015329
X00563632
X00559631Y0015029
X00555631Y0015329
X00554699Y001585
X00555631Y0014529
X0054803Y00150274
X00547631Y0016929
Y0017729
X00547631Y0018529
X00559777Y00182848
X00571631Y0017729
X00579632Y0018529
X00579631Y0019329
X00568331Y0019749
X00571631Y0020129
X00552863Y00195048
X00556109Y00221814
X00564228Y00225159
X00606121Y00235175
X00605132Y00241759
X00610447Y00244834
X00615248Y0024957
X00606884Y0025427
X0060898Y00257311
X00611377Y0026021
X00613846Y00263167
X00616601Y00265965
X00618668Y00268836
X00654531Y00269261
X00670472Y00275099
X00671301Y00245609
X00674406Y00233306
X00659Y00212
X0062291Y00217717
X006189Y0021849
X00611632Y0020129
X00611631Y0019329
X00606631Y0018829
X00603631Y0017729
X00622035Y00172886
X00627631Y0017729
X00631364Y00182386
X00631632Y0019029
X00635631Y0019329
X00627631Y0019329
X00619632Y0018529
X00595631Y0019329
X00603632Y0020529
X00603631Y0014529
X00599747Y0014868
X00641235Y00250747
X00698615Y00287955
X00693827Y00297174
X00688282Y00314617
X00680915Y0032249
Y0032849
X00687927Y0033299
X00685164Y0033624
X00681164Y0035849
X006814Y003704
X00706046Y00370852
X00706645Y00364935
X00713664Y0035324
X007154Y003334
X0070366Y00321028
X00709914Y0028349
X00743165Y0036074
X00754165
X00754342Y00369583
X00770665Y0036074
X00778165Y0035324
X007784Y003874
X00699631Y0043729
X00694632
X00689632
X00683631Y0043629
X00631483Y00411239
X00623989Y00403745
X00619203Y00399875
X00615258Y00403745
X00615208Y00394943
X0063221Y00383442
X00587885Y00382185
X0059615Y00373667
X0058225Y00403747
X00572Y00397
X00554614Y00404713
X0051Y00403
X005Y00408676
X00474Y00409
X00424
X00433Y003975
X00405929Y00404777
X00401759Y00400753
X0038196Y0040728
X00392023Y0041886
X00393569Y0037931
X00387629Y00373235
X00381967Y00377942
X00376329Y00382413
X00361284Y00385247
X00362049Y003962
X00357419Y00374495
X00369357Y0037135
X00384017Y00345417
X00373067Y0032349
X00375525Y00316642
X00359546Y00323697
Y00330696
X00337824Y00313959
X00330568Y00314767
X00325729Y00316025
X00306349Y00318816
X0031338Y00326996
X00295933Y00332768
X00291857Y003292
X00291393Y00320235
X00291335Y0031319
X00252203Y00318262
X00253691Y00327608
Y00338608
Y00349608
Y00360608
Y00371608
Y00382608
Y00393608
Y00404608
Y00415608
X00245913Y00423386
X00238135Y00431164
X00230357Y00438942
X00222579Y0044672
X002148Y00454499
X00207022Y00462277
X00206Y00475
X00205Y00482
Y00487
X00195Y00487999
Y00481999
X00191466Y00477833
X00199244Y00470055
X00196555Y00450571
X00204333Y00442793
X00212112Y00435015
X0021989Y00427237
X00227668Y00419458
X00235446Y0041168
X00239753Y00397192
Y00386192
Y00375192
Y00364192
Y00353192
Y00342192
Y00331192
X00233616Y0032544
X00225837Y00317662
X00218059Y00309884
X00209837Y00304121
X00198836
X00203304Y00333593
X00214304
X00225185Y00346767
Y00357767
Y00368767
Y00379767
Y00390766
X00223038Y00397753
X00215259Y00405531
X00207481Y00413309
X00199703Y00421087
X00191925Y00428865
X00184147Y00436643
X00179778Y00441598
X00176369Y00444422
X00168591Y004522
X00160812Y00459978
X00153034Y00467756
X00145256Y00475534
X00165443Y00481684
X00161178Y0048666
X00157665Y00489462
Y00500462
Y00511462
X00175115Y00515559
Y00505076
X0017591Y00493389
X00183949Y0049348
X00183688Y00485611
X00180999Y00466127
X00188777Y00458349
X00173221Y00473905
X00220165Y00474998
X00232865
X00248257Y00475826
X00258265Y00474984
X00256874Y00459821
X00262876Y00447309
X00262577Y00441525
X00259904Y00437087
X0027047Y00435883
X00275461Y00452643
X00279637Y00452276
X00299824Y00458425
X00308Y00442
X00308616Y00437665
X0031538Y00442869
X00328914Y00437203
X0031075Y00421163
X00281619Y00381132
X00276981Y00380946
X002695Y00386
X00266762Y00366675
X00272482Y0035378
X00283384Y00357293
X00289712Y00363427
X00297332Y0035749
X00298891Y00352917
X00301481Y0034992
X00244424Y00310484
X00236646Y00302706
X00228868Y00294928
X0022109Y0028715
X00249692Y00286151
X00253145Y00285577
X00256449Y00290828
X0019209Y002631
X00177
X00156298Y00285563
X0018122Y00342249
X00197148Y00359089
X00199871Y00366586
X00205805Y00368118
X00209725Y00372957
X00209755Y00379864
X00209725Y00386354
X00204914Y00392868
X00197135Y00400646
X00189357Y00408424
X00181579Y00416202
X00173801Y0042398
X00166023Y00431758
X00158245Y00439537
X00150466Y00447315
X00150488Y00426802
X00158266Y00419024
X00166045Y00411245
X00173823Y00403467
X00181601Y00395689
X00189379Y00387911
X00208148Y00359089
X0020379Y00352582
X00241317Y00444265
X00237928Y00538728
X00248928
X00259928
X00270928
X00281928
X00292928
X00303928
X00314928
X00325928
X00336928
X00347928
X00358928
X00369928
X00380928
X00391928
X00402928
X00413928
X00424928
X00435928
X00446928
X00457928
X00468928
X00479928
X00490928
X00501928
X00515922Y00538498
X00528153Y00539724
X00486912Y00473897
X00474165Y00474095
X00461465
X00448765
X00436065
X00423365
X00417332Y0047749
X00410665Y00474095
X00397965
X00420786Y00361442
X00444372Y00357938
X00448789Y00355808
X00454122Y00345913
X00451235Y00339747
X00456085Y0032132
X00445073Y0031349
X00449Y00308999
X00392894Y00297292
X003886Y0029181
X003826
X00335869Y00276047
X00395674Y00235568
X00390725Y00230618
X00404346Y00216282
X00404631Y0021129
X00398141Y0020466
X00394054Y00201078
X00410892Y00218747
X004609Y0020149
X00465472Y00199689
X00468633Y00204691
X00478663Y00203082
X00483745Y00210555
X00496076Y00220264
X00501632Y0022329
X00501882Y00256092
X00504787Y00254062
X00508341Y00254767
X00511866Y00254767
X00515448Y00254654
X00518678Y00184886
X00518768Y00177619
X00512228Y00175159
X00531631Y0017729
Y0016929
Y0015329
X00539632Y0015329
X00523631Y0016129
X00534228Y00197159
X00454228Y00167159
X00448228Y00168159
X00444228
X00440228
X00436228
X00431631Y0016829
X00291846Y00162941
X0029573Y00157342
X00283731Y00188379
X0020561Y00160546
X00213845Y0052045
X00215928Y00538728
X00204928
X00193929
X00186155Y00534401
X00179117Y00523747
X00165391Y00534401
X00226928Y00538728
X00126771Y00533462
Y00522462
Y00511462
Y00500462
Y00489462
X00127229Y00479586
X00128495Y00470567
X00136273Y00462789
X00142688Y00455093
X00127154Y00450136
X00119376Y00457914
X00113597Y00465692
Y00476693
Y00487692
Y00498692
Y00509692
Y00520692
Y00531692
X00142233Y00511462
Y00500462
Y00489462
X0014271Y0043458
X00104578Y00436503
X00101213Y00437707
X00101834Y00441486
X00086744Y00443593
Y00436593
Y00429593
Y00422593
Y00415593
Y00408593
X00090151Y00403861
X000951Y00398911
X0010005Y00393962
X00106Y00389012
Y00382012
Y00375012
Y00369012
X00110965Y00370045
X00116125Y00371101
X00121653Y00369013
X00123865Y00364222
X00122022Y00359087
X0012185Y00351494
X0012417Y00346511
X00121Y0034101
X001164Y0033801
Y0033101
Y0032401
Y0031701
Y0031001
Y0030301
Y0029601
Y0028901
Y0028201
Y00276338
X00117767Y00271763
X00117885Y00261665
X00111437Y00264592
X00106Y0026401
Y0027001
Y00275999
Y0028201
Y0028901
Y0029601
Y0030301
Y0031001
Y0031701
Y0032401
Y0033101
Y0033701
Y0034201
Y0034701
Y0035301
Y0035901
X00117329Y00355352
X00141172Y00382493
X0013575Y00316247
X00134532Y00297045
Y00291045
X00141532
Y00297045
X001375Y00275
X001305
X00129884Y0026682
X00106Y0025701
Y0025001
Y0024301
Y0023601
Y00228
Y00221
Y00214
Y00207
Y002
Y00193
Y00186
Y00179
Y00172
Y00165
Y00158
Y00151
Y00144
X00116Y00152
X00116569Y00158658
X0011632Y00165254
X00116284Y00171755
X00117756Y00176891
X00119018Y00186503
X00113731Y00185779
X00129583Y00181519
X00121Y00148
X00123969Y00143271
X00086744Y00450593
Y00457593
X00081795Y00462543
X00074795
X00067795
X00060795
X00053795
X00046795
X00039795
X00032794
X00025794
X00018794
X00011795
X0000817Y00467
Y00474
X00036295Y00469543
X00043295
X00050295
X00057295
X00064295
X00071295
X00078295
X00113597Y00542692
X00113499Y00550583
X00119277Y00558362
X00127056Y0056614
X00134834Y00573918
X00142612Y00581696
X00135631Y00551292
X00127395Y00542692
X00079089Y0061193
X00063657
X00083677Y00848437
X00162388Y00801218
X00159401Y00756835
X00193552Y00763136
X00240619Y00750132
X00244619Y00753131
X00241131Y00801625
X00245536Y00806673
X00209598Y00845157
X00250619Y00889131
X00272865Y00904748
Y00912748
X0038146Y00909159
Y00902159
X00382841Y008915
X00374Y0089191
X00376422Y00927659
X00398011Y00914376
X00398821Y0086236
X00432229Y00852368
X00453228Y00844028
X00453217Y00829374
X00423479Y0082663
X00448768Y00794681
X00469228Y00807909
X00475228Y00808909
X00464324Y00852948
X00463056Y00859229
X00492825Y00878295
X00491626Y00883462
X00477967Y00902301
X00477946Y00906082
X00472946
X00472967Y00902301
X00347728Y00784384
Y00778384
X00330596Y00653268
X003265Y00625985
X003375
X003485
X003595
X003705
X003815
X003925
X004035
X004145
X004255
X004365
X00445254
X00456254
X00467329Y00626363
X00478329
X00489329
X00500329
X00514846Y00634752
X00522624Y0064253
X00530402Y00650309
X0053818Y00658087
X00534116Y00626033
X00526338Y00618255
X0051856Y00610477
X005135Y006015
X005025
X004915
X004805
X004695
X004585
X004475
X004365
X004255
X004145
X004035
X003925
X003815
X003705
X003595
X003485
X003375
X003265
X003265Y005805
X003375
X003485
X003595
X003705
X003815
X003925
X004035
X004145
X004255
X004365
X004475
X00458499
X004695
X00480499
X00491499
X00502499
X00513499
X005214Y00585025
X00529179Y00592803
X00536957Y00600581
X0053804Y00576892
X00530261Y00569114
X00522483Y00561335
X005135Y005575
X005025
X004915
X004805
X004695
X004585
X004475
X004365
X004255
X004145
X004035
X003925
X003815
X003705
X003595
X003485
X003375
X003265
X003155
X00315415Y00552339
X003045Y005575
X002935
X002825
X002715
X002605
X00264165Y00552339
X002495Y005575
X002385
X002275
X002165
X002055
X00188726Y00557736
X00180948Y00549958
X00173169Y00542179
X00171339Y00563624
X00163561Y00555846
X00155782Y00548068
X00148004Y00540289
X00143409Y0055907
X00151187Y00566848
X00158965Y00574626
X00166743Y00582404
X00174521Y00590182
X00182299Y0059796
X00186895Y0057918
X00195959Y005825
X002055Y005805
X002165
X002275
X002385
X002495
X002605
X002715
X002825
X002935
X003045
X003155
X003045Y006015
X002935
X002825
X002715
X002605
X002495
X002385
X002275
X002165
X002055
Y00625985
X002165
X002275
X002385
X002495
X002605
X002715
X002825
X002935
X003045
X00181503Y00620587
X00173724Y00612809
X00165946Y00605031
X00179117Y00571402
X00420595Y00653268
X00482625Y00657006
X00535931Y00547502
X00543709Y0055528
X00551488Y00563058
X00559266Y00570836
X00567044Y00578614
X00574822Y00586393
X00569152Y00608004
X0057693Y00615783
X00584708Y00623561
X00592487Y00631339
X00600265Y00639117
X00605046Y00645652
Y00656652
Y00667652
Y00678652
Y00689651
Y00700651
Y00711652
Y00722651
Y00733651
Y00744651
Y00755651
Y00766651
Y00777651
Y00788651
Y00799651
Y00810651
X00610811Y008184
X00618589Y00826178
X00626367Y00833956
X00634146Y00841734
X00641924Y00849512
X00649702Y00857291
X0065748Y00865069
X00665258Y00872847
X00673036Y00880625
X00680815Y00888403
X00688593Y00896181
X00696371Y0090396
X00704149Y00911738
X00706099Y00927826
X00696579Y00927389
X00688801Y0091961
X00681023Y00911832
X00673244Y00904054
X00665466Y00896276
X00657688Y00888498
X0064991Y0088072
X00642132Y00872942
X00634354Y00865163
X00626576Y00857385
X00618797Y00849607
X00611019Y00841829
X00603241Y00834051
X00595463Y00826273
X00589832Y00818936
Y00807936
Y00796936
Y00785936
Y00774936
Y00763936
Y00752936
Y00741936
Y00730936
Y00719936
Y00708936
Y00697936
Y00686936
Y00675936
Y00664936
Y00653936
X00583626Y0064725
X00575847Y00639472
X00568069Y00631693
X00560291Y00623915
X00552513Y00616137
X00544735Y00608359
X00561374Y00600226
X00553596Y00592448
X00545818Y0058467
X00541894Y00633811
X00549672Y00641589
X0055745Y00649367
X00565229Y00657146
X00573007Y00664924
Y00675924
Y00686924
Y00697924
Y00708924
Y00719924
Y00730923
Y00741924
Y00752924
Y00763923
Y00774923
Y00785923
Y00796923
Y00807923
Y00818923
Y00829923
X00580785Y00837701
X00588563Y0084548
X00596341Y00853258
X00604119Y00861036
X00611897Y00868814
X00619675Y00876592
X00627454Y0088437
X00635232Y00892148
X0064301Y00899927
X00650788Y00907705
X00658566Y00915483
X00666345Y00923261
X00674123Y00931039
X00649987Y00929026
X00642208Y00921248
X0063443Y0091347
X00626652Y00905692
X00618874Y00897913
X00611096Y00890135
X00603318Y00882357
X0059554Y00874579
X00587761Y00866801
X00579983Y00859023
X00572205Y00851244
X00564427Y00843466
X00556649Y00835688
Y00824688
X00548871Y0082791
X00556649Y00813688
Y00802688
Y00791688
Y00780688
Y00769688
Y00758688
Y00747688
Y00736689
Y00725688
Y00714688
Y00703689
Y00692689
Y00681689
X00553736Y00673643
X00545958Y00665865
X00619959Y00661472
Y00650472
Y00639472
Y00672472
Y00683472
Y00694472
Y00705471
Y00716471
Y00727471
Y00738471
Y00749471
Y00760471
Y00771471
Y00782471
Y00793471
X00622131Y00804927
X00629909Y00812705
X00637687Y00820483
X00645465Y00828261
X00653243Y0083604
X00661021Y00843818
X00668799Y00851596
X00676578Y00859374
X00684356Y00867152
X00692134Y0087493
X00699912Y00882709
X0070769Y00890487
X00720321Y0089236
X00725821
X00731821
X00737321
X00726417Y00906199
X00715468Y00898265
X00717099Y00927826
X0082053Y0092772
X00823733Y00927617
X00817581Y00877267
X00813957Y00873482
X0081144Y00870966
X00807309Y00866834
X00839007Y0083265
X00841141Y00813735
X00841765Y00809022
X00836741Y00807234
X00831716Y00808029
X00827628Y00810953
X0083021Y00790909
Y00784909
X00823Y00772
X00811022Y00749938
X00786761Y00749945
X00780011Y0076136
X00795011Y0076536
X00851836Y00778418
X00838894Y00798478
X00861317Y00821901
X00865Y0083034
X00912Y00824
X00891019Y00897231
X00874756Y00911259
X0089867Y00925019
X00874821Y0075536
Y00749861
Y0074386
Y00738361
X00910115Y00637998
X00768135Y0061861
X00750197Y00609157
X0075575Y006
X0075075Y00595
Y00585
X00783568Y00580188
X00727208Y00628549
X0063566Y00551863
X00630874Y00548413
X0061744Y00549289
X009919Y00568
X009879Y00573
X00975115Y00829998
X00974683Y00835563
X00971116Y00832561
X00968115Y00824998
X00973115Y00931998
X00970115Y00935998
X00958328Y00933208
X00965244Y00939453
X00967017Y00970186
X0096855Y00982535
X0097205Y0098545
X00976668Y00986424
X00975115Y00992998
X0090055Y0100645
X0089655
X00899309Y01016898
X00876Y010395
X00862
X00869Y010325
X0085179Y01044439
X0084233Y0104448
X0083103Y01054
X00816442Y01052048
X0082003Y0101878
X00825627Y01019255
X00842227Y01016994
X00852039Y0101702
X00853423Y01008798
X00837228Y00999159
X0082958Y00992993
X00817589Y00975178
X00828842Y00948327
X00828859Y00941524
X00834652Y0094109
X00834693Y00949808
X00851378Y00950151
X00855979Y00949657
X00853018Y00940343
X00854829Y00936883
X0087Y00943
X00876274Y00949998
X0087903Y0093785
X00889444Y0095774
X0084978Y01058525
X00770106Y0108411
X007669Y010935
X007631Y01036084
X00766571Y00975876
X00739321Y0095236
X00728321
X00717321
X00706321
X00695321
X00684321
X00673321
X00665543Y00944582
X00657765Y00936804
X00681901Y00938817
X00696158Y00939883
X00707158
X00718962Y00940185
X00729962
X00707275Y01059847
X00692821Y01072351
X0068005Y01046247
Y01041247
X005911Y0105301
X00578613Y01058352
X00565913
X00553213
X00549614Y01097797
X005451Y0113101
X005451Y0115301
X00577453Y01156108
X0057302Y0112601
X00620527Y01131455
X0062849Y01140241
X00612408Y0114036
X00644521Y01160898
X00644757Y01168846
X00644521Y01186298
X00641744Y01192262
X00620988Y01229265
X00597112Y0123077
X00584658Y0123138
X0058069Y01272721
X00560451Y01275675
X00618574Y01263767
X00631261Y01279277
X00636155Y01280879
X0064369Y0126828
X00648377Y01251941
X00657348Y01252572
X00667559Y01263122
X00668821Y01286781
X00692876Y0126362
X00683953Y0125236
X00690821Y01243412
X00698638Y01245309
X00698458Y0123511
X00694097Y01229343
X0067377Y01233632
X00672821Y0124336
X00725403Y01245058
X007292Y01251213
X00729341Y01262529
X00738248Y01264059
X00729021Y0127356
X00715824Y01274302
X00704906Y01273667
X00751691Y0127501
X00758009Y0126446
X00771692Y01269777
X00818232Y01270258
X0082275Y012705
X00828004Y01270834
X00832472Y01270759
X00838313Y01270659
X0084275Y01273117
X00847498Y01272182
X00867265Y01267536
X00866617Y0125625
Y0124975
X0086175Y01244
X0085875Y012405
X00861756Y01237506
X0085525Y01232883
X0084875
X0084225
X0083575
X0082925
X0082275
X0081625
Y01214821
X0082275
X0082925
X0083575
X0084225
X0084875
X0081248Y01158
Y01138
X00704097Y01157332
X00723479Y01194934
X00741021Y0128956
X008858Y013147
X00558992Y00963
X00541092Y00963
X00510876Y00964982
X00505458Y0096842
X00504831Y00958538
X0050759Y00953969
X00474092Y00974292
X00461092Y00964292
X00444738Y00978464
X00427118Y00956308
X0042753Y0095072
X00419092Y00951292
X00419996Y00956292
X0041653Y0094572
X00406607Y00953818
X00405267Y00958415
X00395179Y00958096
X00390092Y00955292
X00351092Y00949292
X00346092
X00341357Y00949168
X00335883Y00949385
X00317692Y00981342
X00304992Y00980907
X002951Y0097801
X00304992Y01016692
X00317692
X00299Y0104965
X00295144Y01054781
X0029687Y01094249
X00289681Y01098426
X00280692Y01098382
X00285033Y01093036
X00257536Y01094
X0024997Y01098668
X00246Y0112065
X00257657Y01117946
X00250335Y0113974
X00248938Y01162807
X00261017Y01160537
X0025682Y01179449
X002475Y01180855
X00241218Y01180682
X00239007Y01190862
X00238141Y012055
X00237235Y01223247
X002475Y012175
X00249247Y01236073
X00249378Y01244051
X00262996Y01238853
X002715Y012175
X00257264Y0119299
X00285092Y01177292
X00278821Y0113836
X00397199Y01148466
X00409228Y01105159
X00414228Y01100163
Y01093163
Y01086917
X00398092Y01085292
X00375857Y01066375
X00372092Y01066292
X00368032Y01066434
X00364267Y01066492
X00379727Y01048292
X00383227
X00386727
X00390263
X00475845Y0107245
X00498619Y01069131
X00496092Y01091292
X00517311Y01087744
X00524628Y01088074
X00524332Y01100335
X00531023Y01097237
X00536235Y01217247
X00536821Y0123436
X00514821Y0122836
X00464777Y01245814
X00432168Y01236651
X00427021Y01265205
X00248235Y01274247
X00202Y013002
X00198821Y0131036
X00203821Y0131636
X00210716Y01316427
X00210821Y0131036
X00184589Y01322016
X00235735Y0103603
X00256619Y01000132
X00272663Y00938377
X00436847Y00940497
X00131257Y01478518
X00130477Y01504502
X00147012Y01506502
X00160477Y01504502
X00177012
X00180937Y01461599
X00169246Y01449908
X00206246Y01438907
X00217937Y01450599
X00265Y01483
X00279591Y01533661
X00304Y0154465
X00308991Y01547076
X00315991
X00321Y0154465
X00339111Y0154056
X0034405Y015356
X00349Y0153065
X0035395Y015257
X00362Y01553907
Y01560907
X0036659Y01565839
X00367285Y01549771
X00388Y0155365
X00393767Y01550141
X00400767
X00405Y0155365
X00456891Y0156765
X00461391
Y0157215
X00468391
Y0156765
X00472891
X00507759Y01532634
X00521022Y01534413
X00515384Y01467384
X00531304Y0146526
X00531577Y01457966
X00502973Y01459686
X00488548Y01482009
X00482155Y0148775
Y01494706
X0047363Y0149261
X00459375Y01492582
X00443982Y0148032
X00430232Y01466432
X00424085Y01470113
X00414026Y01471934
X00409855Y01482277
X00419264Y01491314
X00429954Y0145282
X00459268Y01417509
X00455733Y01413974
X00452197Y01410438
X00448662Y01406903
X00481042Y01409401
Y01416401
X00522591Y01421401
Y01425401
X00529591
Y01421401
X00413321Y01383361
X00408321Y01383361
X00403321Y01383361
X00398321
X00396321Y0134836
X00391321
X00382321
X00377321Y0134836
X00372321Y0134836
X00367321
X00379321Y0133636
X00384321
X00389321Y0133636
X00394321Y0133636
X00403321
X00408321
X00413321Y0133636
X00418321Y0133636
X00406321Y0134836
X00401321Y0134836
X00355Y01388
X00348Y01402
X00349Y01432
X00335734Y01449332
X00322544Y01446752
X00321Y01461
X00307Y01446
X00147791Y01478518
X0054741Y01457827
X0056446Y01448594
X00565042Y01433401
X00558042
X00583042Y01436401
X00588732Y01433592
X00595332Y01435716
X00600282Y01430767
X00600499Y01425148
X00587821Y01425401
X00580821
X0063716Y01450404
X0064648Y01449503
X00654127Y01466085
X00663123Y01472008
X00641428Y01474816
X00641207Y0148036
X00640345Y01486792
X00628891Y01495258
X00628842Y01503432
X00616106Y01495439
X00625063Y01478902
X00625672Y01521326
X00609791Y0152493
Y01531397
X0056825Y0152765
X00558491Y01533101
X00546291
X0072Y01507
X00736276Y01506508
X00751Y01506
X00766489
X00784626Y01501128
X0078768Y01514738
X00739077Y014558
X00739042Y01450401
X00743992Y01445452
X00747403Y01441169
X00723929Y01452057
X00718042Y01452401
X00713092Y01457351
X00707475Y01458584
X00691434Y01448968
X00685434Y01447571
X00680484Y0145252
X00674434Y01451968
X00673673Y01428484
X00668042Y01428401
X00680673Y01428484
X00684302Y01425045
X00696685Y01426613
X0069572Y01432099
X00706478Y01430925
X00703685Y01426613
X0081Y01420471
X008323Y014207
X0085255Y0141995
Y0141545
X008605Y01419985
X008718Y01419585
X00844498Y01395
X008279Y013925
X008239
X008199
Y013875
X008239
X008279
Y013825
X008239
X008199
Y013775
X008239
X008279
X008291Y0137
X008236Y013685
X008221Y01363
X008236Y013575
X008291Y01356
X008488Y013545
X008523
X008558
X008688
Y013515
X008723
Y013545
X008758
Y013515
X008793
Y013545
X008923
Y013515
X008958
Y013545
X008993
Y013515
X009028
Y013545
X008623Y013412
X008588
X008553
X0078115Y01336017
X008199Y013975
X008239
X008279
M30
