M48
;Layer_Color=9474304
;FILE_FORMAT=4:4
METRIC,LZ
;TYPE=PLATED
T02F00S00C0.2000
%
T02
X00106Y00008
Y00024522
Y00031022
Y00037022
Y00044022
Y00051022
Y00058022
Y00065022
Y00072022
Y00079022
Y00086022
Y00093022
Y00100022
Y00107022
Y00114022
Y00121022
X00113Y0012
X00119
X00123672Y00124126
X00122928Y00130524
X00117621Y00133004
X0011901Y00138014
X00106Y00138
Y00132
X00134Y0013
X00136Y0012
X00142
Y00113
X00136
X0013
Y0012
X00141175Y0002549
X00169993Y00087627
X00205143Y00088885
X00203872Y00075677
X00213599Y000508
X00231398Y00065333
X00238559Y00101493
X00238144Y0011308
X00243352Y00112237
X00245654Y00116883
X00209679Y00116756
X00212064Y00110888
X00192959Y0011375
X00195061Y00120291
X00165401Y00131193
X00333175Y00114744
X0033848Y00104157
X0032705Y00103823
X00314954Y00077116
X00302479Y00069431
X00333612Y000633
X003665Y00050407
X00396239Y00078112
X00459221Y00078025
X00469475Y000775
X00456631Y0005629
X00499147Y00057027
X0049875Y0005175
X00524107Y00057313
X00527951Y00139021
X00420631Y0003429
X00421004Y00028917
X00550099Y00051522
X0056062Y000479
X0056612
X0057312
X0057862
X00583346Y00062465
X00572739Y00073072
X00590924Y00092904
X00599582Y00092688
X00595631Y0009729
X00603631Y0009729
X00611632Y0010529
X00611631Y0011329
X00623193Y00110971
X00627631Y0012129
X00627631Y0012929
X00631609Y00126156
X00616064Y0012558
X00611632Y0012929
X00611295Y00136304
X00603632Y0013729
X00595631Y0013729
X00587631
Y0012929
X00595631
Y0012129
X00587631Y0011329
X00580413Y00118857
X00568266Y0012755
X00571631Y0013729
X00563632
X00560012Y00119991
X0054194Y00083529
X00627631Y0009729
X00632043Y00073638
X00639424Y00075997
Y00070997
X00639484Y00065937
X00650233Y0006365
X00650173Y0005859
Y0005259
X00650298Y0004709
X00652062Y0003063
X00648641Y00026983
X006594Y000288
X006696Y00031293
X00678857Y000288
X006814Y00020163
X00702336Y0002072
X007325Y00012642
X007374Y00054913
X00752062Y000547
X00752062Y000647
X00752063Y0008059
Y0009059
X00737476Y00090744
Y00080744
X00741991Y00075392
X00738476Y00069744
X0076798Y000732
Y000562
X00778476Y00056744
X00784476Y00062744
X00794476
X00800476Y00056744
X0079765Y00022864
X00803432Y00022506
X00810674Y00022781
X0082645Y00012656
X00843341Y00020551
X00848474Y00022847
X00855311Y00022718
X00871397Y00012999
X00890641Y00009749
X00781467Y00012867
X00741Y0010108
X00740187Y00136544
X00750146Y00136366
X00756247Y0013256
X00731Y0013225
X00726Y0013775
X00716
X00710476Y00131744
X00676572Y0013653
X00653689Y00126727
X00652304Y00120871
X00678348Y0010288
X00683703Y00098173
X00688624Y00099191
X0068581Y0008659
X0069481
X0070381
Y0007759
X0069481
X0068581
Y0006859
X0069481
X0070381
X0067611Y00080915
X00669947Y00076286
X00678557Y00090898
X00639484Y00081056
X00988564Y00279281
X009845Y00283973
X00810092Y00286434
X00810915Y0029249
Y0030449
Y0031049
X00801164
X0079604Y0030449
X00796884Y00292456
X00804166Y00298446
X0081086Y0028003
X00809626Y00273155
X00806094Y00267621
X00788415Y0028174
X00775915Y0027924
X00769914
X00746068Y00277864
X00744165Y0027324
X00732691Y00265749
X0071875Y0026875
X00724415Y0029774
X00713795Y00299661
X00706068Y00293933
X00698615Y00287955
X00693827Y00297174
X006934Y003144
X00692247Y00322512
X00686729Y00325053
X00680915Y0032249
X00675695Y00322468
X00680915Y0032849
X00685164Y0033624
X006914Y003354
X00687699Y00343501
X00685699Y00353501
X00681164Y0035849
X00679691Y00378394
X00676129Y00382642
X00670346Y0038598
X00692247Y00377093
X00697589Y00377192
X00706046Y00370852
X00706645Y00364935
X00713166Y00369049
X00713664Y0035324
X00726665Y0036074
X00727915Y0034649
X00736915
Y0033749
X00727915
Y0032849
X00736915
X00745915
Y0033749
Y0034649
X00754914
X00763914
Y0033749
X00754914
Y0032849
X00763914
Y0031949
Y0031049
X00778219Y00309222
X00778165Y0030374
Y0029824
X00778014Y00314925
X00754914Y0031949
X00745915
Y0031049
X00736915
Y0031949
X00727915
X00712969Y00320782
X00714407Y00325598
X007154Y003334
X00704928Y00327576
X0070366Y00321028
X00675344Y00295193
X00669344
X00663344
X00657344
X00651344
X00645344
X00670472Y00275099
X00689359Y00274266
X00689221Y002282
X00694399
X00675399Y002282
X0067022
X00662699Y00220679
Y00215501
X00658041Y00207573
X00631632Y0019029
X00627631Y0019329
X00631364Y00182386
X00627631Y0017729
X00619632Y0018529
X00606631Y0018829
X00610325Y00205702
X00609262Y00240753
X00611453Y00251501
X00568331Y0019749
X00560299Y0018337
X00564088Y00176878
X00558699Y001605
X00555631Y0015329
Y0014529
X0054803Y00150274
X00563632Y0015329
X00571631
Y0016129
X00587631Y0016129
Y0015329
X00595631Y0015329
X00603631Y0016129
X00628235Y00156747
X0063196Y0014464
X00666442Y00143356
X00666216Y0016229
X00652629Y0016475
X00685895Y00179407
X00692832Y00176945
X007175Y0016875
X007245
X007295Y0016375
X007125
X00708074Y00199411
X00738632Y00187734
X00742872Y00183678
X00736169Y00143432
X00743165Y0029624
X00748664Y0029199
X00754165Y0029624
X00754165Y0036074
X00754342Y00369583
X00739788Y0036914
X00743165Y0036074
X00770665
X00778165Y0035324
X00799Y0036425
X00807268Y00346745
X00810915Y0032249
X00801164
X007784Y003874
X00771571Y00387686
X00698265Y00402735
X00690386Y00404148
X00689632Y0043729
X00694632
X00699631
X00683631Y0043629
X00747779Y00498107
X00581188Y00532999
X00574356Y00532891
X00567523Y00532782
X00574247Y00539724
X00555198Y00315034
Y00308034
Y00301034
Y00294034
X00541235Y00186747
X00844265Y00236998
X00498235Y00246747
X0049395Y00253914
X00491407Y00240953
X00496076Y00220264
X00501632Y0022329
X00494337Y00212137
X00483745Y00210555
X00478663Y00203082
X00468633Y00204691
X00465472Y00199689
X00468631Y0019529
X00472395Y00213055
X00481262Y00223413
X00410892Y00218747
X00404346Y00216282
X00404631Y0021129
X00398141Y0020466
X00394054Y00201078
X00390725Y00230618
X00386649Y00227437
X00395674Y00235568
X0039975Y0023875
X00384649Y00248889
X00393415Y00260738
X00397915Y00263738
X00403914
X00409395Y00262034
X00431035Y00269972
X0043856Y0027609
X00438414Y0028129
X00434915Y0028679
X00433018Y0029175
X00444283Y00291775
X00445415Y0028679
X00451414
X00456727Y00288912
X00446Y00305999
X00445073Y0031349
X00452587Y00321693
X00460615Y0031849
X00454235Y00336747
X00454122Y00345913
X00448789Y00355808
X00449643Y00364132
X00456198Y00387196
X00423928Y00381892
X00420786Y00361442
X00393569Y0037931
X00388139Y00378139
X00382331Y00370178
X00369357Y0037135
X00363855Y00365673
X00347735Y00369996
X00349235Y00381998
X00361284Y00385247
X00376329Y00382413
X0038196Y0040728
X00393Y004078
X00392023Y0041886
X00401759Y00400753
X00406021Y0040487
X00384017Y00345417
X003596Y0034181
Y0033581
X00359546Y00330696
Y00323697
X003556Y00319932
X00373067Y0032349
X00379328Y00319351
X00379237Y00295726
X003826Y0029181
X003886
X003946
X00392894Y00297292
X00373477Y00293054
X00376698Y00273731
X0036275Y0026575
X00366594Y00252406
X00371791Y00237288
X00344913Y00227635
X00344955Y00220922
X00338645Y00226087
X00332425Y00227953
X00334835Y00233002
X00334691Y00260003
X00335869Y00276047
X00337824Y00313959
X00330568Y00314767
X00325729Y00316025
X00326166Y00309642
X00306349Y00318816
X0031338Y00326996
X00295933Y00332768
X00291857Y003292
X00291393Y00320235
X00291335Y0031319
X00291098Y00300422
X00285857Y00271323
X00285928Y00265662
X00286Y0026
X0026Y00259804
X00249612Y00274033
X0024Y002331
Y002251
X00202521Y00223192
X002015Y002105
Y002015
X002105
X001925
X002015Y001775
Y001685
X002105
X002015Y001595
X001925Y001685
X001445
Y002015
X00158Y0022195
X00180346Y00247086
X001921Y00247264
X002001
X00191057Y00282247
X00188057Y00286747
Y00292747
X00194057
Y00286747
X00191057Y00297247
Y00310247
X00188057Y00314747
Y00320747
X00194057
Y00314747
X00191057Y00325247
Y00338247
X00188057Y00342747
Y00348747
X00194057
Y00342747
X00191057Y00353247
Y00366247
X00188057Y00370747
Y00376747
X00194057
Y00370747
X00191057Y00381247
X00257Y00377
X002665Y00386
X00266762Y00366675
X00314914Y00360653
X00332Y003398
X00342235Y00344234
X00266325Y00436136
X00258265Y00474984
X00245977Y00479347
X00232865Y00479499
X00220165
X00209Y00482
Y00487
X00199Y00487999
Y00493999
X00193
X00198Y00500999
X00183949Y0049748
X00199Y00481999
X00217189Y00495188
X00239594Y00456994
X00179778Y00441598
X00150246Y00317626
X00148246Y00304126
X00154426Y00303519
Y00290519
X00148257Y00274438
X001601Y0014921
X00227053Y00152863
X00241439Y00146704
X00421018Y00181993
X00427018Y00179993
X00433018Y00181993
X00435018Y00187993
X00433018Y00192993
X00427018Y00194993
Y00187993
X00419018
X00421018Y00192993
X00526632Y0018029
X00523631Y0016129
X00531631Y0015329
X00539632Y0015329
X00534367Y00145535
X00506114Y00361782
X0049954Y00394498
X00497642Y00494046
X00297235Y00518247
X00089813Y00489619
X00078295Y00469543
X00071295
X00064295
X00057295
X00050295
X00043295
X00036295
X00039795Y00462543
X00046795
X00053795
X00060795
X00067795
X00074795
X00081795
X00086744Y00457593
Y00450593
Y00443593
Y00436593
Y00429593
Y00422593
Y00415593
Y00408593
X00090151Y00403861
X000951Y00398911
X0010005Y00393962
X00106Y00389012
Y00382012
Y00375012
Y00369012
X00110965Y00370045
X00116125Y00371101
X00121653Y00369013
X00123865Y00364222
X00122022Y00359087
X0012185Y00351494
X0012417Y00346511
X00121Y0034101
X001164Y0033801
Y0033101
Y0032401
Y0031701
Y0031001
Y0030301
Y0029601
Y0028901
Y0028201
Y00276338
X00117767Y00271763
X00117885Y00261665
X00111437Y00264592
X00106Y0026401
Y0027001
Y00275999
Y0028201
Y0028901
Y0029601
Y0030301
Y0031001
Y0031701
Y0032401
Y0033101
Y0033701
Y0034201
Y0034701
Y0035301
Y0035901
X00117329Y00355352
X0013427Y00352246
Y00365246
X00138487Y00337246
Y00324246
X00141532Y00297045
Y00291045
X00134532
Y00297045
X00124Y00307
X00129884Y0026682
X00106Y0025701
Y0025001
Y0024301
Y0023601
Y00228
Y00221
Y00214
Y00207
Y002
Y00193
Y00186
Y00179
Y00172
Y00165
Y00158
Y00151
Y00144
X00116Y00152
X00116569Y00158658
X0011632Y00165254
X00116284Y00171755
X00117756Y00176891
X00119018Y00186503
X00113731Y00185779
X00129583Y00181519
X001355Y001775
Y001685
Y001595
X00127766Y0016241
X001265Y001685
X00126012Y00152894
X00121Y00148
X00123969Y00143271
X001355Y001925
Y002015
Y002105
X001265Y002015
X00114502Y00380245
Y00393245
X00102066Y00407868
X00101672Y00412852
X00101869Y00418229
X00101497Y0042422
X00096456Y00407966
X00032794Y00462543
X00025794
X00018794
X00011795
X0000817Y00467
Y00474
X00055Y0056
X0006Y00563783
X00068212Y00565426
X00075983Y00565995
X0007243Y00560667
X0006482Y00558463
X001065Y00542692
X00120619Y00677132
X00099331Y0068808
X00094331
X00089331
Y0069608
X00094331
X00099331
X00111989Y00737911
X00136978Y00716336
X00136263Y00770122
X00133573Y00776013
X00141265Y00775813
X00137099Y00781365
X00106552Y00779136
X00102819Y00791879
X00083677Y00848437
X0008535Y00905599
X00086748Y00911975
X0008723Y00920922
X00081118Y00921307
X00075469Y0092096
X00071902Y00913093
X00076125Y00903839
X00037188Y00892155
X00013056Y00921371
X00010099Y00805
X00162388Y00801218
X00145099Y00781365
X00144888Y0077062
X00165637Y00761422
X00173879Y00774159
X00185619Y00772132
X00197864Y00703225
X00183709Y0067825
X00152821Y00696482
X00143821Y00703489
X00159821Y00707489
X001925Y006235
Y006015
X00182299Y0059796
X00195959Y005825
X00264165Y00552339
X00315415
X0031557Y00604674
Y0062365
X0032607Y00653322
X00328308Y0067825
X00316905Y00679751
X00297499Y00677
X00292499Y00681468
X00277894Y00677
X00263Y0067265
X0034Y00667913
X00353499Y00675959
X00366628Y0068892
X00388993Y00692975
X00395077Y00720331
X0036487Y00720305
X0032639Y00719197
X00340855Y0074376
X00343821Y00778489
Y00784489
X00349552Y00890136
Y00895136
Y00900136
X00355552
Y00895136
Y00890136
X00361552
Y00895136
Y00900136
X00376422Y00927659
X00398011Y00914376
X00398821Y0086236
X00423479Y0082663
X00456372Y00847146
X00469228Y00807909
X00475228Y00808909
X00525059Y00807531
X00524439Y00773531
X00525555Y00745327
X00531778Y00719291
X00516121Y00690973
X00499678Y00686224
X00482112Y00682301
X00482625Y00657006
X005075Y006245
X00490041Y007154
X00483923Y00736709
X0045325Y0073165
X00445399Y00714122
X00413819Y00681872
X0041607Y00653322
X00473232Y00896762
X00478593Y00896629
X00478498Y0091069
X00473156Y00911109
X00250619Y00894131
X002325Y009
Y00906
Y00912
Y00925
Y00931
Y00887
Y00881
Y00875
X00212Y00904
X00145746Y00858136
Y00853136
Y00848136
X00145782Y00841687
X00245536Y00806673
X00241131Y00801625
X00566821Y008565
X00720321Y0089236
X00725821
X00731821
X00737321
X00731321Y0091636
X00725821
X00719821
X00714321
X00726321Y0092836
X00731821
X00737821
X00743321
X00893649Y00933049
X00870597Y0082726
X00865Y0083034
X00854Y00822
X00841141Y00813735
X00841765Y00809022
X00836741Y00807234
X00831716Y00808029
X00827628Y00810953
X0082671Y00790909
Y00784909
X00823Y00772
X00811022Y00749938
X00786761Y00749945
X00787684Y00739518
X00780011Y0076136
X00795011Y0076536
X00851836Y00778418
X00874821Y0075536
Y00749861
Y0074386
Y00738361
X00932115Y00740998
X00930363Y00755941
X00914115Y00634998
X00770914Y00621891
X00750197Y00609157
X0075575Y006
X0075075Y00595
Y00585
X00758165Y00577856
X0076075Y00566
X0075375
X0076075Y0059
X00783568Y00580188
X0073875Y00544763
X0073275
X00635698Y00551901
X00630874Y00548413
X0061744Y00549289
X0058108Y00539832
X009919Y00568
X009879Y00573
X00944115Y00737998
X0094031Y00749525
X009615Y00933
X00922893Y0095868
X00923283Y00985279
X0090055Y0100295
X0089655Y0100995
X00891Y00963
X00894098Y00944386
X00767321Y0095236
X00761821
X00755821
X00750321
X00749821Y0094036
X00755321
X00743821
X00738321
X00729821Y0096436
X00727821Y0097636
X00741821
X00739821Y0098836
X00753821
X00751821Y0100036
X00765821
X00766571Y00975876
X00715821Y0096436
X00716321Y0101236
X00729821
X00738321Y0103636
X00743821
X00749821
X00755321
X00762028Y01040709
X00768821Y01042351
X00773064Y01038108
X00778013Y01033158
X00782256Y01028916
X00781821Y01092351
Y01098351
X00775821Y01098294
Y01105294
X00781821Y01105351
Y01111351
X00775Y01086
X00765321Y0108436
X007669Y010935
X00752321Y0108436
X00754321Y0107236
X00739321
X00729821Y0106036
X00715821
X00707275Y01059847
X00692821Y01072351
X00680821Y01075493
Y0108536
X00658757Y01096277
X00665688Y0110836
X00667436Y01133896
X00620527Y01126437
X00620988Y01229265
X00597112Y0123077
X00584658Y0123138
X00560451Y01275675
X00554821Y0127036
Y0128236
Y0129436
X00560821Y01304351
X00668821Y01286781
X00667559Y01263122
X00657348Y01252572
X00648377Y01251941
X00672821Y0124336
X0067377Y01233632
X00694097Y01229343
X00698458Y0123511
X00698638Y01245309
X00690821Y01243412
X00683953Y0125236
X00692876Y0126362
X00693021Y0127856
X00704906Y01273667
X00715824Y01274302
X00716815Y01286648
X00700619Y01289131
X00729021Y0127356
X00729341Y01262529
X00738248Y01264059
X00758009Y0126446
X00771692Y01269777
X00763821Y0128736
X00779314Y01311292
X00845101Y01268563
X007292Y01251213
X00725403Y01245058
X00704097Y01157332
X00704914Y0109649
X00710821Y0110236
X00672309Y01039107
X00578613Y01058352
X00565913
X00553213
X00558992Y00963
X00541092Y00963
X0081248Y01138
Y01158
X00536235Y01217247
X00536821Y0123436
X00514821Y0122836
X00524544Y01266186
X00530821Y0129436
Y0130636
X00499503Y01288218
X00493373Y0129227
X00487012Y0127705
X00476821Y0126336
X00464777Y01245814
X00456287Y01253356
X00428619Y01251132
X00427021Y01265205
X00444321Y0132436
X00449321
X00454321
X00459321
X00470321
X00475321
X00480321
X00485321
X00312918Y01235454
X00296021Y0122856
X002715Y012175
X00272699Y012005
X00257264Y0119299
X0025682Y01179449
X00263588Y01181425
X002475Y01180855
X00241218Y01180682
X00239007Y01190862
X00230821Y0118636
X0022718Y01205183
X00238141Y012055
X002355Y012175
X002475
X00249247Y01236073
X00249378Y01244051
X00262996Y01238853
X00268246Y01273908
X00236896Y01255585
X00232196Y01229209
X002235Y012295
X00223503Y01222661
X00212089Y01279442
X00202Y013002
X00198821Y0131036
X00203821Y0131636
X00210716Y01316427
X00210821Y0131036
X001725Y013275
X00144189Y01328497
X00235Y01157
X00242821Y0116236
X00248938Y01162807
X00261017Y01160537
X00250168Y01139949
X00257657Y01117946
X00259901Y0109516
X00252978Y01092016
X00285033Y01093036
X0029687Y01094249
X00299Y0104965
X00304992Y01012691
X00317692
Y00976833
X00304992Y00976716
X00280619Y01012132
X00235735Y0103603
X00247619Y00972132
X00251619Y00961132
X002325Y00962
Y00956
Y0095
Y00937
X00272663Y00938377
X00333021Y01036211
X003931Y0107301
X00475845Y0107245
X00517311Y01087744
X00524628Y01088074
X00524332Y01100335
X00531023Y01097237
X00453228Y00969974
X00278821Y0113836
X00285092Y01177292
X0008723Y01175916
X00081118Y01176302
X00075469Y01175955
X00071902Y01168088
X00076125Y01158833
X0008535Y01160593
X00091099Y01161102
X00086748Y0116697
X0008723Y01193384
X00081118Y01192998
X00075469Y01193345
X00071902Y01201212
X00076125Y01210467
X0008535Y01208707
X00086748Y0120233
X0007857Y0127262
X001168Y012894
X00039679Y01303945
X0004455Y011598
X00013112Y01162348
X00010234Y01180185
X00018253Y0112535
X00037139Y01102619
X00076125Y01097467
X00085239Y01095456
X00086748Y0108933
X0008723Y01080384
X00081118Y01079998
X00075469Y01080345
X00071902Y01088212
X00075469Y01062955
X00081118Y01063302
X0008723Y01062916
X00086748Y0105397
X0008535Y01047594
X00076125Y01045833
X00071902Y01055088
X0003875Y0104765
X00010019Y01061912
X00014525Y0106872
X00076125Y00955472
X0008535Y00953712
X00086748Y00947336
X0008723Y00938389
X00081118Y00938004
X00075469Y00938351
X00071902Y00946217
X001047Y01464892
X00131257Y01478518
X00137024Y01477016
X00142024
X00141244Y01503
X00136245
X00130477Y01504502
X00082502Y01501498
X00147012Y01506502
X00160477Y01504502
X00166245Y01503
X00171245
X00177012Y01504502
X00180937Y01461599
X00177921Y01456459
X00174386Y01452924
X00169246Y01449908
X00206246Y01438907
X00211386Y01441924
X00214921Y01445459
X00217937Y01450599
X00147791Y01478518
X00279591Y01533661
X00304Y0154465
X00308991Y01547076
X00315991
X00321Y0154465
X00339111Y0154056
X0034405Y015356
X00349Y0153065
X0035395Y015257
X00362Y01553907
Y01560907
X0036659Y01565839
X00367285Y01549771
X00388Y0155365
X00393767Y01550141
X00400767
X00405Y0155365
X00456891Y0156765
X00461391Y0157215
X00468391
X00472891Y0156765
X005Y01557
X00499319Y01532691
X00524301Y01536994
X00526Y01557
X00537823Y01527522
X00531304Y0146526
X00531577Y01457966
X00515384Y01467384
X00502973Y01459686
X00488548Y01482009
X00482155Y0148775
Y01494706
X0047363Y0149261
X00459375Y01492582
X00443982Y0148032
X00430232Y01466432
X00424085Y01470113
X00414026Y01471934
X00409855Y01482277
X00419264Y01491314
X00429954Y0145282
X00472102Y01438437
X00478042Y01438401
X00483042
X00480606Y014435
X00487035Y01433829
X00485821Y01417907
X00486591Y01410401
X00525821Y01417907
X00520854Y01384577
X00497321Y0133636
X00492321
X00487321
X00482321
X00471821
X00466821
X00461821
X00456821
X00447821
X00442821
X00437821
X00432821
X00418321
X00413321Y0133636
X00408321Y0133636
X00403321
X00394321
X00389321Y0133636
X00384321Y0133636
X00379321
X00377321Y0134836
X00382321Y0134836
X00391321
X00396321
X00401321Y0134836
X00406321Y0134836
X00372321
X00367321
X00398321Y01383361
X00403321
X00408321Y01383361
X00413321Y01383361
X00414072Y01389932
X00424784Y01375432
X00442557Y01387062
X00335734Y01449332
X00322544Y01446752
X0054741Y01457827
X0056446Y01448594
X00565042Y01433401
X005656Y01428401
X005586
X00558042Y01433401
X00570821Y01434401
X00577821
X00583042Y01436401
X00588732Y01433592
X00595332Y01435716
X00600282Y01430767
X00600499Y01425148
X00587821Y01425401
X00580821
X00555416Y01383258
X00540178Y01385137
X00546612Y01368831
X00658153Y01371153
X00660214Y0139291
Y01398911
Y0140591
Y01411911
X00668042Y01428401
X00673673Y01428484
X00680673
X00684302Y01425045
X00696685Y01426613
X0069572Y01432099
X00706478Y01430925
X00703685Y01426613
X00691434Y01448968
X00685434Y01447571
X00680484Y0145252
X00674434Y01451968
X0064648Y01449503
X0063716Y01450404
X00641428Y01474816
X00641207Y0148036
X00640345Y01486792
X00628891Y01495258
X00628842Y01503432
X00616106Y01495439
X00625063Y01478902
X00654127Y01466085
X00663123Y01472008
X00707475Y01458584
X00713092Y01457351
X00718042Y01452401
X00723929Y01452057
X00739042Y01450401
X00739077Y014558
X00743992Y01445452
X00747403Y01441169
X00751Y01506
X00736276Y01506508
X0072Y01507
X00766489Y01506
X00784626Y01501128
X00787915Y0149649
X00797915Y0150049
X00793245Y0151382
X0078768Y01514738
X00787245Y0151982
X00814576Y01508125
X00822821
X00851102Y01505338
X00856719Y01514041
X0084653Y01516106
X00625672Y01521326
X00609791Y0152493
Y01531397
X0056825Y0152765
X00558491Y01537101
X00546291
X00673336Y01384685
X00692669Y01336819
X0078115Y01336017
M30
