M48
;Layer_Color=9474304
;FILE_FORMAT=4:4
METRIC,LZ
;TYPE=PLATED
T01F00S00C0.1000
%
T01
X00106Y00008
Y00024522
Y00031022
Y00037022
Y00044022
Y00051022
Y00058022
Y00065022
Y00072022
Y00079022
Y00086022
Y00093022
Y00100022
Y00107022
Y00114022
Y00121022
X00113Y0012
X00119
X00123672Y00124126
X00122928Y00130524
X00117621Y00133004
X0011901Y00138014
X00106Y00138
Y00132
X00141175Y0002549
X0017617Y00074226
X00164686Y00088854
X00197086Y00086804
X00205143Y00088885
X00203872Y00075677
X00231398Y00065333
X00251631Y0006829
X00259475Y000775
X00243074Y00080245
X00238559Y00101493
X00243352Y00112237
X00245654Y00116883
X00209679Y00116756
X00192959Y0011375
X00144236Y00126354
X00287766Y00130188
X0029809Y00119979
X00287355Y0009825
X00290728Y00087753
X00302479Y00069431
X00313631Y0006429
X00333612Y000633
X0034339Y00077207
X00371169Y00078789
X0037924Y00075663
X00381133Y00062014
X00377631Y0005629
X00390631Y0006129
X004115Y00060191
X0043327Y00061879
X00421672Y00077486
X00459221Y00078025
X00469475Y000775
X00479581Y00072628
X00478363Y0005507
X00456631Y0005629
X00458644Y00109373
X00450412Y00110669
X00429755Y0011087
X0041634Y00111845
X00416728Y00129753
X00405858Y00140976
X00395631Y0011229
X00374517Y00112041
X00343475Y001195
X00335631Y0012929
X00319845Y00130729
X0032705Y00103823
X00322473Y00099178
X0033848Y00104157
X00285149Y00062923
X00264631Y0006129
X00247087Y00055746
X00420631Y0003429
X00421004Y00028917
X00524107Y00057313
X00534631Y0006929
X00530262Y00078473
X00512631Y0007529
X00537536Y00100566
X00527951Y00139021
X00502962Y00141324
X00469411Y0014029
X00491351Y00111923
X00553131Y0011829
X00563632Y0013729
X00595631Y0013729
X00603632Y0013729
X00616064Y0012558
X00627631Y0012929
X00631609Y00126156
X00662577Y001264
X00658141Y00119016
X00653977Y00114511
X00653126Y00089594
X00667146Y00083765
X00672176Y00092424
X00678348Y0010288
X00683703Y00098173
X00688624Y00099191
X0068581Y0008659
X0069481
X0070381
Y0007759
X0069481
X0068581
Y0006859
X0069481
X0070381
X00705Y00035
X0071Y0003
X00701501Y00025478
X0070291Y0001884
X00713532Y00018649
X00720591Y00018869
X007325Y00012642
X00754644Y00012437
X007585Y00015249
X007655
X00781467Y00008549
X00784059Y00031176
X0079765Y00022864
X00803432Y00022506
X00810674Y00022781
X0082645Y00008444
X00843341Y00020551
X00848474Y00022847
X00855311Y00022718
X00871397Y00008549
X00890641Y00009749
X00800476Y00056744
X00794476Y00062744
X00784476
X00778476Y00056744
X0076798Y000562
Y000612
Y000682
Y000732
X00752063Y0008059
Y0009059
X00737476Y00090744
X0073831Y0009809
X00737476Y00080744
X00738436Y0007518
X00738476Y00069744
X00752062Y000647
X00752062Y000547
X00739732Y00052178
X00749425Y00126505
X00744393Y00136507
X00731Y0013225
X00726Y0013775
X00716
X00710476Y00131744
X00676435Y0013175
X00636498Y00076116
X006365Y00071
X0064715Y0006365
X00650173Y0005859
Y0005259
X00647215Y0004709
X00652062Y0003063
X00648641Y00026983
X006524Y00021541
X006594Y000288
X006696Y00031293
X006788Y000288
X00550131Y0004629
X0054803Y00150274
X00563632Y0015329
X00571631
Y0016129
X00587631Y0016129
Y0015329
X00595631Y0015329
X00627751Y00160807
X00634688Y00147886
X00662317Y0014345
X006651Y00159117
X00683027Y00177438
X00690331Y00174526
X007175Y0016875
Y0016375
X007125
X007245
Y0016875
X007295Y0016375
X0073888Y00187815
X0072531Y0019834
X00708074Y00199411
X00694415Y00223307
X00689205
X00675415Y00223307
X00670205
X00667593Y00220695
Y00215485
X00631632Y0019029
X00627631Y0019329
X00619632Y0018529
X00606631Y0018829
Y0019229
X00607241Y00208664
X00609262Y00240753
X00611453Y00251501
X0066Y00274145
X00670472Y00275099
X00692777Y00274356
X00695298Y00269608
X00693601Y00256224
X00698615Y00287955
X00706068Y00293933
X00710225Y00298343
X00724415Y0029774
X0072108Y00291627
X00718399Y00287419
X0071875Y0026875
X00732691Y00265749
X00744165Y0027324
X00746068Y00277864
X00739914Y0027799
Y0028519
X00737664Y0029139
Y0029639
X00743165Y0029624
X00748664Y0029199
X00754165Y0029624
X00745915Y0031049
Y0031949
X00754914
X00763914
Y0031049
X007782Y00309204
X00778165Y0030374
Y0029824
X00778014Y00314925
X008009Y0031049
X00810915
Y0030449
X00810657Y00298496
X00810915Y0029249
X00810092Y00286434
X00810899Y00280011
X0082211Y0027309
X00801164Y0029249
X00804166Y00298446
X0079604Y0030449
X00801164Y0032249
X00810915
X00810897Y00344533
X00803701Y00345485
X00795938Y00358744
X00790214Y0035749
X00789215Y0035249
X00783015Y0034774
X00779214Y0034449
X00778165Y0035324
X00777784Y00359263
X00782414Y0035874
X00785915Y0036449
X00790214Y0036749
X00779334Y00378687
X00772365Y00377471
X00770665Y0036074
X00754165
X00754342Y00369583
X00739788Y0036914
X00743165Y0036074
X00726665
X00727915Y0034649
X00736915
Y0033749
X00727915
Y0032849
X00736915
X00745915
Y0033749
Y0034649
X00754914
X00763914
Y0033749
X00754914
Y0032849
X00763914
X00736915Y0031949
Y0031049
X00727915Y0031949
X00714799Y0032582
X00709415Y0032574
X00708356Y00320249
X00709417Y00314761
X006934Y003144
X00692247Y00322512
X00690699Y00328501
X00680915Y0032849
Y0032249
X00675695Y00322468
X00685164Y0033624
X00690665Y0034049
X00695215Y00334604
X007154Y003334
X00713664Y0035324
X00713166Y00369049
X00706046Y00370852
X00706645Y00364935
X00697589Y00377192
X00692247Y00377093
X00679691Y00378394
X00676129Y00382642
X00670346Y0038598
X00681164Y0035849
X00690915
X00698265Y00398707
X00699631Y0043729
X00694632
X00689632
X00683631Y0043629
X00640049Y00533348
X0085575Y00539
X0085975
X0086375
X0086775
X00843043Y0040004
X00839043Y0040004
X00835043Y0040004
X00831043
X00819939Y00355803
X0083775Y0034975
Y0034475
X0088597Y00327424
Y00323424
X0088597Y00319424
X0088597Y00315424
X0088682Y00308605
X0088282
X0087882
X0087482
X00867656Y0030608
Y0030208
X00867656Y00298081
X00867656Y00294081
X00876Y0028675
X00876Y0028275
X00876Y0027875
X00906403Y00303489
X00910403
X00914403
X00918403
X0092Y0031975
X00924
X00928
X00932
X00788415Y0028174
X00775915Y0027924
X00769914
X00758115Y00275998
X00693827Y00297174
X00673344Y00297193
X00668344
X00663344
X00555198Y00294034
Y00301034
Y00308034
Y00315034
X00568331Y0020149
Y0019749
X00560299Y0018337
X00563131Y00173095
X00541235Y00186747
X00534367Y00145535
X00500728Y00150753
X00490475Y001615
X00500728Y00171753
X00479728
X00460054Y00170553
X00448475Y001615
X00437728Y00171753
X00444703Y00189767
X00448627Y00202099
X00458728Y00192753
X00468631Y0019529
X00472395Y00213055
X0049Y0021154
X00490475Y002035
X00481262Y00223413
X00487264Y00242717
X00492507Y00246403
X00493Y0025
X00503235Y00249747
X00507631Y0023629
X00522639Y0023729
X00525005Y0023429
X00528941Y00230963
X00531211Y00228239
X00519639Y0024629
X00451731Y00259129
X00447731Y00261129
X00443731
X00439724Y00258666
X0043856Y0027609
X00438414Y0028129
X00435914Y0028679
X00433018Y0029175
X00445915Y0028679
X00450914
X00452705Y00290893
X00453749Y0029849
X00448016Y00296112
X00454571Y00313425
X00457615Y0031849
X00463115Y0032099
X00454528Y00324047
X00454303Y00328369
X00454122Y00345913
X00448789Y00355808
X00449643Y00364132
X00456198Y00383526
X00420364Y00381911
X00420786Y00361442
X00382407Y00365953
X00378414Y00366763
X00363855Y00365673
X00360716Y00362808
X00358962Y00359132
X00354673Y00357158
X00364715Y0035099
X00368714
X00374215Y0034849
X00378317Y003467
X00384017Y00345417
X00364715Y0034099
Y0033599
X00359546Y00330696
Y00323697
X00360788Y00308571
X00363874Y00306227
X00362807Y00292468
X003735Y00297
X00379237Y00295726
X003826Y0029181
X003886
X003946
X00395914Y0028679
X00393415Y0028129
X00392894Y00297292
X004006Y0029081
X00397915Y00263738
X00403914
X00409395Y00262034
X00411316Y00257725
Y00250725
X0039975Y0023875
X00395674Y00235568
X00390725Y00230618
X00386649Y00227437
X00384649Y00248889
X0038075Y0024575
X003758Y002408
X00371791Y00237288
X00363407Y00252406
X0036275Y0026575
X0036775
X003727Y002707
X00376698Y00273731
X00393415Y00260738
X00431035Y00269972
X00433415Y0027429
X00428414
X00426099Y00203556
X00398141Y0020466
X00394054Y00201078
X00395728Y00192753
X00404631Y0021129
X00404346Y00216282
X00410892Y00218747
X00374728Y00213753
X00341Y00216999
X00338645Y00226087
X00344913Y00227635
X00332425Y00227953
X00334835Y00233002
X00334691Y00260003
X00339807Y00281962
X00346807
X0033078Y00310313
X00335235Y00336585
X00342235Y00348487
X00347735Y00369996
X00349235Y00381998
X00376329Y00382413
X00388139Y00378139
X0039346Y00378353
X00393Y004078
X0038196Y0040728
X00392023Y0041886
X00401759Y00400753
X00405929Y00404777
X004075Y00486249
Y00490249
X004685Y00498249
X004975Y00500249
X005334Y004963
X00497Y00392
X00502243Y00359422
X00377107Y0032349
X00379328Y00319283
X00377235Y0030849
X00377449Y0030349
X00291098Y00300422
X00249612Y00274033
X00191057Y00282247
X00194057Y00286747
Y00292747
X00191057Y00297247
Y00310247
X00194057Y00314747
Y00320747
X00191057Y00325247
Y00338247
X00194057Y00342747
Y00348747
X00191057Y00353247
Y00366247
X00194057Y00370747
Y00376747
X00191057Y00381247
X00257Y00377
X00250247Y00424247
X00250823Y00433225
X00266249Y00439851
X00239594Y00456994
X00217072Y00475304
X00213673Y00477294
X00209887Y00476956
X0022Y00491999
X00195435Y00498634
X00164665Y00489462
X00149233
X00148915Y0053349
X00163915Y0052649
X00297235Y00518247
X00300235Y00487247
X00299235Y00483247
X00273735Y00225247
X0024Y00216
X00235312Y00209285
X00211369Y00223599
X00158Y0022195
X001761Y0024721
X00154426Y00290519
Y00295019
Y00299019
Y00303519
X00148246Y00304126
X00150246Y00309126
Y00313126
Y00317626
X0015043Y00146687
X00156476Y00149153
X00212974Y00145766
X00227053Y00152863
X00241439Y00146704
X0029075Y00168766
X00280772Y0018286
X00340767Y00194552
X00344332Y0017191
X00352877Y00151604
X00363981Y001615
X00374728Y00150753
X00416728
X00458728
X0036439Y00182585
X00119018Y00186503
X00113731Y00185779
X00106Y00186
Y00193
Y002
Y00207
Y00214
Y00221
Y00228
Y0023601
Y0024301
Y0025001
Y0025701
Y0026401
Y0027001
Y00275999
Y0028201
Y0028901
Y0029601
Y0030301
Y0031001
Y0031701
Y0032401
Y0033101
Y0033701
Y0034201
Y0034701
Y0035301
Y0035901
Y00369012
X00110965Y00370045
X00116125Y00371101
X00121653Y00369013
X00123865Y00364222
X00122022Y00359087
X0012185Y00351494
X0012417Y00346511
X00121Y0034101
X001164Y0033801
Y0033101
Y0032401
Y0031701
Y0031001
Y0030301
Y0029601
Y0028901
Y0028201
Y00276338
X00117767Y00271763
X00117885Y00261665
X00111437Y00264592
X00119584Y00226068
X00117756Y00176891
X00116284Y00171755
X0011632Y00165254
X00116569Y00158658
X00116Y00152
X00121Y00148
X00123969Y00143271
X00123766Y0015841
X00127766
X00106Y00158
Y00165
Y00172
Y00179
Y00151
Y00144
X00124Y00307
X00138487Y00324246
X00138271Y00328746
Y00332746
X00138487Y00337246
X0013427Y00352246
Y00356746
Y00360746
Y00365246
X00117329Y00355352
X00114502Y00380245
X00115447Y00384745
Y00388745
X00114502Y00393245
X00106Y00389012
Y00382012
Y00375012
X0010005Y00393962
X000951Y00398911
X00090151Y00403861
X00086744Y00408593
Y00415593
Y00422593
Y00429593
Y00436593
Y00443593
Y00450593
Y00457593
X00081795Y00462543
X00074795
X00067795
X00060795
X00053795
X00046795
X00039795
X00032794
X00025794
X00018794
X00011795
X0000817Y00467
Y00474
X00036295Y00469543
X00043295
X00050295
X00057295
X00064295
X00071295
X00078295
X00089813Y00489619
X00133771Y00489462
X00134395Y00542692
X00120031Y00542916
X001065Y00542692
X00067181Y00548765
X00068454Y00668038
X00089331Y0069208
X00094331
X00099331
Y0070008
X00094331
X00089331
X00137099Y00699065
X00137499Y00683108
X00142499
X00122099Y006435
X00109063Y00643606
X00111928Y00733851
X00101928Y00779412
X00102162Y00795838
X00137099Y00781365
X00133573Y00776013
X00141265Y00775813
X00136263Y00770122
X00141552Y00848136
Y00853136
Y00858136
X00083677Y00848437
X00051835Y00832016
X00013769Y0080494
X00040188Y00889155
X00034188Y00899155
X00029127Y00902291
X00028565Y00905807
X0001Y00921474
X00076621Y00916853
X00076511Y00912991
X00081295Y00913079
X00081621Y00916853
X00086621
X00081273Y00908054
X00076138Y00907967
X00145782Y00841687
X00145099Y00781365
X00144888Y0077062
X00163756Y00777067
X00170879Y00771159
X00177619Y00772132
X00165635Y007575
X001988Y007834
X002038
X002108Y007934
X002178Y007884
X00241131Y00801625
X00245536Y00806673
X00259444Y00719809
X00258763Y00706722
X00263Y0067265
X00277894Y00677
X00287499Y00682076
X00292499Y00681468
X00297499Y00682076
X00301692Y0069949
X00305692Y0070249
Y0070849
X00313692Y0070549
X00315921Y00714532
X0032639Y00719197
X0034226Y00714888
X00360974Y00720331
X00398731
X00388887Y00688646
X003711Y0068901
X00353499Y00672409
X00340072Y00664
X00335353Y00686257
X00323782Y0067825
X00312411Y00691698
X00322157Y0065325
X0031557Y0062365
Y00604674
X00380279Y00647069
X00412156Y00653251
X00413782Y0067825
X00447389Y00674444
X0045851Y00680296
X00462021Y0068356
X004705Y00679201
X004745
X00482199Y00677416
X00482625Y00657006
X00515294Y00662188
X00519315Y00666327
X00523235Y00666247
X00527246Y00669641
X005184Y006834
X00519637Y00688308
X00522659Y00691055
X00528015Y00691577
X00516121Y00690973
X00499678Y00686224
X00487715Y0070099
X00486938Y00718223
X00472Y00714122
X00460885Y00704652
X00449188Y00714033
X0045325Y0073165
X004645Y00746412
X00471Y00746412
X004775Y00746412
X00484Y00740412
X00501715Y0076199
X00506715
X00510714
X00521568Y00761115
X00524439Y00773531
X00529345Y00745391
X00530432Y00714484
X00525059Y00807531
X0051573Y00806471
X0052453Y00820175
X00490061Y0080881
X00489852Y0079337
X00449632Y0078129
X00443631
X00439632Y0078229
X00428Y00786
X00410659Y00782327
X00413632Y0080029
X00419095Y00804733
X00437361Y0080656
X00397517Y00798175
X00392711Y00768489
X00376335Y0075274
X00340855Y0074376
X00343821Y00774489
X00348978Y00773201
X0042353Y0075472
X005075Y006245
X001925Y006235
Y006015
X00182299Y0059796
X00195959Y005825
X0017793Y00653368
X00178782Y0067825
X00191619Y00679131
X00191639Y00703118
X00158419Y00703465
X00152692Y0070449
X00147499Y00700297
X00157617Y00695732
X00167499Y00683108
X00212Y00904
X00290821Y0089836
Y0092236
X00326821
Y0089836
X00536821Y0091636
X00566821Y008565
X00543226Y00804795
X00543297Y00731281
X00787684Y00739518
X00786525Y00749945
X00780011Y0076136
X00795011Y0076536
X00811022Y00749938
X00823Y00751868
X00835Y00751868
X00847Y00751868
X00859
X00874821Y00749861
Y0075536
Y0074386
Y00738361
X00868053Y00707987
X00864044Y00707987
X00860044Y00707987
X00856044
X0085752Y0069463
X0085352Y0069463
X0084952Y0069463
X0084552
X00868044Y00694627
X00872053Y00694627
X00876053Y00694627
X00880053Y00694627
X00892553Y00703987
X00892553Y00707987
Y00711987
X00918468Y00736108
X0092864Y00741034
X00923011Y0075104
X00920401Y00754054
X00923733Y0075604
X00910321Y00778907
X00892832Y0078186
X00892832Y0078586
X00892832Y0078986
X00892832Y0080086
X00892832Y0080486
Y00808798
X00867Y00803162
X00855Y00797662
X00843
X00831Y00797662
X00819Y00803162
X00814016Y00817666
X00816845Y00820495
X00819673Y00823323
X00822502Y00826152
X00737321Y0089236
X00731821
X00725821
X00720321
X00719821Y0091636
X00725821
X00731821Y0092836
X00737821
X00895758Y00935266
X00886678Y00651037
X00891274Y00639747
X00919115Y00631998
X00844025Y00658068
X00839025
X00825569Y00658147
X00818537Y00657189
X0077275Y00598
X00770986Y00594551
Y00590551
X00771994Y00586706
X0076075Y0059
X0075575
X00757525Y00581842
X0075075Y0058
Y00585
Y00595
Y006
X0075575
X0075075Y00605
X00750197Y00609157
X007515Y0061508
X0074575Y00595
X00718Y0059483
X00715172Y00592002
Y00588002
X00718Y00585173
X00715172Y00582345
Y00578345
X00718Y00575516
X00715172Y00572688
Y00568688
X00718Y00565859
X00715172Y00597658
Y00601658
X00718Y00604487
X00715172Y00607315
Y00611315
X00718Y00614144
X0075375Y00566
X0076075
X00778009Y00566639
Y00570639
X00782009Y00570689
X00782009Y00566689
X00786009Y00566639
Y00570639
X00784245Y00574088
Y0056319
X0073875Y00544763
X0073275
X0063566Y00551863
X00617346Y00549289
X00937054Y00740453
X00940511Y0073854
Y0074354
X00938189Y00753592
X00922893Y0095868
X00923283Y00985279
X00923206Y00997692
X00896115Y00941998
X00761821Y0095236
X00755821
X00749821Y0094036
X00743821
X00741821Y0097636
X00736821
X00732821
X00727821
X00729821Y0096436
X00724821
X00720821
X00715821
X00739821Y0098836
X00744821
X00748821
X00753821
X00751821Y0100036
X00756821
X00760821
X00765821
X00768821Y01042351
X00773064Y01038108
X00778013Y01033158
X00782256Y01028916
X00755321Y0103636
X00749821
X00743821
X00738321
X00729821Y0101236
X00724821
X00720821
X00716321
X00715821Y0106036
X00720821
X00724821
X00729821
X00739321Y0107236
X00744821
X00748821
X00754321
X00752321Y0108436
X00756821
X00760821
X00765321
X00781821Y01092351
Y01098351
Y01105351
Y01111351
X00704914Y0109649
X00680821Y0108536
Y01075493
X00692821Y01072351
X00707275Y01059847
X00658757Y01096277
X00665688Y0110836
X00667436Y01133896
X00620527Y01122467
X00620821Y0102436
Y0101236
X00607821Y0100036
X00578613Y01058352
X00565913
X00553213
X0055253Y0106272
X00584658Y0123138
X00597112Y0123077
X00620988Y01229265
X00648377Y01251941
X00657348Y01252572
X00667559Y01263122
X00668821Y01286781
X00693021Y0127856
X00692876Y0126362
X00683953Y0125236
X00690821Y01243412
X00698638Y01245309
X00698458Y0123511
X00694097Y01229343
X0067377Y01233632
X00672821Y0124336
X00704906Y01273667
X00715824Y01274302
X00716815Y01286648
X00704619Y01289131
X00729021Y0127356
X00729341Y01262529
X00738248Y01264059
X00758009Y0126446
X00771692Y01269777
X00763821Y0128736
X00792535Y01280846
X00795364Y01278017
X00798192Y01275189
X00801021Y0127236
X00818536Y01277846
X00821364Y01275017
X00824192Y01272189
X00827021Y0126936
X00817535Y01250846
X00820364Y01248017
X00823192Y01245189
X00826021Y0124236
X00840536Y01254846
X00843364Y01252017
X00846192Y01249189
X00849021Y0124636
X00850536Y01296846
X00853364Y01294017
X00856192Y01291189
X00859021Y0128836
X0078955Y0131145
X007292Y01251213
X00704097Y01157332
X00560451Y01275675
X00554821Y0127036
Y0128236
X00547821Y0127736
X00542821Y01275351
X00554821Y0129436
X00560821Y01304351
X00548701Y01311776
X00566821Y0132436
X00570821
X00574821
X00578821
X00590821
X00594821
X00598821
X00602821
X00530821Y0130636
Y0129436
X00524544Y01266186
X00515124Y01274202
X00506242Y0127504
X0049853Y0127472
X00487012Y0127705
X00486255Y01289075
X00482821Y01294587
X00488601Y01299988
X00493373Y0129227
X00499503Y01288218
X00474706Y01298924
X00470513Y012771
X00460914Y01276464
X00449381Y012758
X00441562Y01273095
X00439761Y01279415
X00440542Y01288284
X0044778Y01288215
X00452606Y01293201
X00428684Y01290985
X00428105Y01287252
X00427021Y01265205
X00436975Y01263613
X00441717Y01264802
X00452053Y01264457
X00456287Y01253356
X00485506Y01252411
X00476821Y0126336
X00475321Y0132436
X00470321
X00480321
X00485321
X00459321
X00454321
X00449321
X00444321
X00393011Y01320605
X00405692Y0128849
X00356654Y01253167
X00326821Y0130636
X00302821
X00278821
X00272576Y01273465
X00267913Y01246503
X00262996Y01238853
X00249247Y01236073
X00249378Y01244051
X00238616Y01250417
X00236896Y01255585
X00226605Y01250099
X002235Y012295
X00223503Y01222661
X00232196Y01229209
X002355Y012175
X002475
X00250821Y0120636
X00262821
X00271692Y0120449
X002715Y012175
X00262821Y0119436
X002625Y011905
X00257264Y0119299
X0025682Y01179449
X00263588Y01181425
X002475Y01180855
X00241218Y01180682
X00239007Y01190862
X00230821Y0118636
X00231Y012045
X00238141Y012055
X00242821Y0116236
X00248938Y01162807
X00261017Y01160537
X00235Y01157
X00230821Y0114436
X00226821
X00222821
X00218821
Y0112036
X00222821
X00226821
X00230821
Y0109636
X00226821
X00222821
X00218821
Y0107236
X00222821
X00226821
X00230821
Y0104836
X00226821
X00222821
X00218821
X00235735Y0103603
X002734Y010484
X00299Y0104965
X0029687Y01094249
X00285033Y01093036
X00263482Y01093982
X00250398Y01094266
X00257657Y01117946
X00250335Y0113974
X00278821Y0113836
X00285092Y01177292
X00200821Y0117436
Y0116836
X00200692Y0116249
X00198498Y01229359
X00194021Y0122956
X0019313Y0123656
Y0124156
X00196692Y01258255
X00200452Y01255019
X00202Y013002
X00197821Y0133136
X00177Y013275
X00148244Y01328497
X00247523Y00976888
X00251619Y00965132
X00285619Y01012132
X00333021Y01036211
X00417619Y01052132
X004224Y010564
X00425692Y0106549
X00433692Y0106849
X00439692Y0106549
X00442692Y0106849
X00448692
X00445692Y0106549
X00451692Y0106549
X00493745Y01065893
X00493865Y01060748
X00503865Y01055748
X0052153Y0108072
X00524628Y01088074
X00517311Y01087744
X00524332Y01100335
X00531023Y01097237
X00417542Y01075225
X00086621Y01084453
X00081621
X00081295Y01088227
X00076511Y01088314
X00076621Y01084453
X00076138Y01093339
X00081273Y01093252
X00081621Y01058848
X00081295Y01055073
X00076511Y01054986
X00076621Y01058848
X00076138Y01049961
X00081273Y01050049
X00086621Y01058848
X00055806Y01045936
X00036025Y01044925
X00034815Y01016073
X00021381Y01011205
X00018504Y01025184
X00016999Y01063369
X00010019Y01061912
X00030248Y01076738
X00037139Y01102619
X00007706Y01098067
X00015812Y01128622
X00008983Y01162352
X0001025Y01176211
X00007617Y01198069
X00076621Y01197453
X00076511Y01201314
X00081295Y01201227
X00081621Y01197453
X00086621
X00081273Y01206252
X00076138Y01206339
X00076621Y01171848
X00076511Y01167986
X00081295Y01168074
X00081621Y01171848
X00086621
X00081273Y01163049
X00076138Y01162961
X00091099Y01157501
X00056432Y01158918
X00049Y0115935
X00039679Y01303945
X001138Y012864
X00141261Y01331679
X00081273Y00951257
X00081295Y00946232
X00081621Y00942458
X00076621
X00076511Y00946319
X00076138Y00951344
X00086621Y00942458
X00013226Y00943751
X00011475Y00950996
X0009553Y01412031
X00101884Y01467709
X00106865Y01470191
X00110865Y0147019
X00114865Y01463748
X00131257Y01478518
X00136024Y01481017
X00135245Y01507
X00142245
X00130477Y01504502
X00114865Y01495305
X00110865Y01495305
X00106865Y01495305
X00087002Y01501498
X00087914Y0154749
X00100914
X00147012Y01506502
X00160477Y01504502
X00165245Y01507
X00172245
X00177012Y01504502
X001758Y01459995
X00180937Y01461599
X0017085Y01455045
X00169246Y01449908
X00163569Y0144508
X0020785Y01444045
X00206246Y01438907
X002128Y01448995
X00217937Y01450599
X00221687Y01512754
X00227245Y01522574
X00230306Y01519865
X00233245Y01522574
X00279591Y01533661
X00304Y0154465
X00308991Y01547076
X00315991
X00321Y0154465
X00339111Y0154056
X0034405Y015356
X00349Y0153065
X0035395Y015257
X00367285Y01549771
X0036659Y01565839
X00388Y0155365
X00393767Y01550141
X00400767
X00405Y0155365
X00456891Y0156765
X00461391Y0157215
X00468391
X00472891Y0156765
X0047Y01495
X0047363Y0149261
X00482155Y01494706
X00485944Y01492535
Y01485535
X00482155Y0148775
X00488548Y01482009
X00506Y01463
X00502973Y01459686
X0051095Y0146795
X00515384Y01467384
X00519821Y01466
X00526821
X00531304Y0146526
X00531577Y01457966
X00535976Y01457875
X00539042Y01402401
X00536945Y01398654
Y01394161
X00539042Y01390413
X00520854Y01384577
X00520821Y01369361
X00524821
X00528821
X00532821
X00514821
X00510821
X00506821
X00502821
X00512821Y0134836
X00516821
X00520821
X00524821
X00523251Y01336577
X00519096Y01336422
X00512821Y0133636
X00508821
X00504821
X00500821
X00497321Y0133636
X00492321
X00487321
X00482321
X00471821
X00466821
X00461821
X00456821
X00447821
X00442821
X00437821
X00432821
X00418321
X00413321Y0133636
X00408321Y0133636
X00403321
X00394321
X00389321Y0133636
X00384321Y0133636
X00379321
X00377321Y0134836
X00382321Y0134836
X00391321
X00396321
X00401321Y0134836
X00406321Y0134836
X00372321
X00367321
X00356992Y01338902
X00335591Y01335401
X00334766Y01346226
X00338591Y01348401
X00331706Y0135036
X00398321Y01383361
X00403321
X00408321Y01383361
X00413321Y01383361
X0041816Y01390361
X00424784Y01375432
X00439826Y01383632
X00447079Y01373277
X00451079
X00455079
X00459057Y013733
X00470806Y01367846
X00467978Y01365018
X0046515Y01362189
X00462321Y01359361
X00527403Y01336352
X00531562Y01336267
X00487035Y01433829
X00482697Y01434778
X00478542Y01434622
X00472102Y01438437
X00480606Y014435
X00443945Y01465264
X00444Y01469
Y01476
X00443982Y0148032
X00430232Y01466432
X00433Y01463024
Y01456024
X00429954Y0145282
X00421Y01467
X00424085Y01470113
X00414026Y01471934
X00414Y01467
X00414121Y01480922
X00409855Y01482277
X00419071Y01485871
X00419264Y01491314
X00459375Y01492582
X00463Y01495
X00507245Y01522617
X00513245
X00537823Y01527522
X00147791Y01478518
X00143024Y01481017
X001447Y01335506
X00548821Y0133636
X00552821
X00556821
X00560591
X00560821Y0134836
X00564821
X00568821
X00572821
X00572821Y0136036
X00576821
X00580821
X00584821
X00588321Y01378361
X00592321
X00596321
X00599821Y0137686
X00604492Y01375228
X00607321Y01378361
X00611321
X00614321Y01375361
X00617321Y01378361
X00621321
X00624321Y01375361
X00625563Y01371131
X00628563Y01374131
X00631391Y01376959
X00634219Y01379787
X00658153Y01374743
X00660214Y0139291
Y01398911
Y0140591
Y01411911
X00668042Y01428401
X00673673Y01428484
X00680673
X00684302Y01425045
X00696685Y01426613
X0069572Y01432099
X00706478Y01430925
X00703685Y01426613
X00720365Y0143549
X00724364
X00728364
X00732365
Y0143149
X00736365
X00740365
X00744365
X00748365
X00752365
X00756365
X00759193Y01428662
X00762021Y01425833
X0076485Y01423005
X00747403Y01441169
X00743992Y01445452
X00739042Y01450401
X00739077Y014558
X00723929Y01452057
X00718042Y01452401
X00713092Y01457351
X00707475Y01458584
X00691434Y01448968
X00685434Y01447571
X00680484Y0145252
X00674434Y01451968
X00678609Y01467006
X00676642Y01470783
X00671692Y01475733
X0066972Y01479504
X00663123Y01472008
X00654127Y01466085
X00649837Y01466824
X00644887Y01471774
X00641428Y01474816
X00641207Y0148036
X00636681Y01478879
X00629681
X00625063Y01478902
X00628891Y01495258
X00626681Y01499082
X00628842Y01503432
X0063046Y01511533
X0062551Y01516482
X00625672Y01521326
X00619681Y01499082
X00616106Y01495439
X0063551Y01496279
X0064046Y0149133
X00640345Y01486792
X00639058Y01454374
X0063716Y01450404
X0064648Y01449503
X00646058Y01454374
X00653386Y01436799
X00657003Y01439997
X00648436Y01431849
X00648449Y01427123
X00652552Y01390745
X00670962Y01387125
X00692669Y01336819
X00626814Y01336537
X00622821Y0133636
X00618821
X00615312Y0133619
X00592821Y0133636
X00588821
X00584821
X00580821
X00546612Y01368831
X00540077Y01379277
X00555227Y0138675
X005586Y01428401
X00558042Y01433401
X00565042
X005656Y01428401
X00570821Y01434401
X00577821
X00583042Y01436401
X00588732Y01433592
X00595332Y01435716
X00600282Y01430767
X00600499Y01425148
X00587821Y01425401
X00580821
X0056446Y01448594
X00560044Y01448646
X00558868Y0145469
X00555094Y01453595
X0055505Y01457257
X0054741Y01457827
X00542976Y01457875
X0072Y01507
X00725245Y01508
X00732245
X00736276Y01506508
X00751Y01506
X00755245Y01508
X00762245
X00766489Y01506
X00771245Y01510927
X0078768Y01514738
X00787245Y0151982
X00793245Y0151382
X00784626Y01501128
X00706245Y01535389
X00775934Y01392408
X00778762Y01389579
X00781591Y01386751
X00784419Y01383923
X0078115Y01336017
M30
