M48
;Layer_Color=9474304
;FILE_FORMAT=4:4
METRIC,LZ
;TYPE=PLATED
T01F00S00C0.1000
%
T01
X00149426Y00295019
Y00299019
X00145246Y00309126
Y00313126
X00155857Y00321844
X00159306Y00330262
X00159181Y00341623
X00159057Y00352985
X00158932Y00364346
X00158807Y00375707
X00159153Y00386553
X00159028Y00397914
X00155915Y0040649
X00148915Y0041349
X00149233Y00425191
Y00434755
Y0044432
Y00453884
Y00463448
Y00473012
Y00482576
X00164686Y00480517
Y00470953
Y00461388
Y00451824
Y0044226
Y00432696
Y00423132
X00166915Y0041649
X00170915Y0041149
X00171529Y00401358
X00171183Y00390513
X00171308Y00379151
X00171433Y0036779
X00171558Y00356429
X00171683Y00345068
X00171637Y00333817
X00171762Y00322455
X0016876Y00314216
X00162227Y00307624
X00162875Y00291204
X00171409Y00298443
X00177883Y0030527
X00183768Y00313157
X00188057Y00314747
Y00320747
X00184624Y00322943
Y00332507
Y00342071
X00188057Y00342747
Y00348747
X001846Y00351827
Y00361391
Y00370956
X00188057Y00370747
Y00376747
X001846Y0038052
Y00390084
Y00399648
Y00409212
X00184754Y00418383
X00181308Y0042379
X00177605Y00428776
Y0043834
Y00447904
Y00457469
Y00467033
Y00476597
Y00486161
Y00494778
X00177451Y00502574
X00177327Y00508509
X00177322Y00514259
X00177276Y00523024
X00185054Y00530802
X00192832Y0053858
X00203832
X00214832
X00225832
X00236832
X00247832
X00258832
X00269832
X00280832
X00291832
X00302832
X00313832
X00324832
X00335832
X00346832
X00357832
X00368832
X00379832
X00390832
X00401832
X00412832
X00423832
X00434832
X00445831
X00454586
X00465586
X00476661
X00487661
X00498661
X00509661
X00520502
X00531624
X00258265Y00474984
X00164459Y00498889
Y00508453
Y00518018
X00163507Y00533483
X00149662Y00521589
Y00512025
Y00502461
X00144959Y00394949
X00146397Y00382874
Y00375047
Y00366247
X00145969Y00357478
X00146094Y00346117
X00188057Y00292747
Y00286747
X0026Y00259804
X00133271Y00328746
Y00332746
X0012927Y00356746
Y00360746
X00132256Y0037075
Y0037955
X00130989Y00388709
X00127Y00393405
X00122821Y00401023
X00120031Y00406287
Y00415851
Y00425415
Y0043498
Y00444544
Y00454108
Y00463672
Y00473236
Y004828
Y00492365
Y00501929
Y00511493
Y00521057
Y00530621
X0013397Y00531579
Y00522015
Y0051245
Y00502886
Y00493322
Y00483758
Y00474193
Y00464629
Y00455065
Y00445501
Y00435937
Y00426373
Y00416808
X00133915Y0040649
X00139915Y0039949
X0010806Y0039459
X00106915Y0040349
X00107191Y00411513
Y00421077
Y00430642
Y00440206
Y0044977
Y00459334
Y00468899
Y00478463
Y00488027
Y00497591
Y00507155
Y0051672
Y00526284
Y00535848
Y00549103
X00098191Y00558667
X001034Y00564448
X00111178Y00572226
X00118957Y00580004
X00126735Y00587783
X00134513Y00595561
X00142291Y00603339
X00141151Y00580293
X00133372Y00572515
X00125594Y00564737
X00120031Y00556224
X00133457Y00550889
X00141236Y00558667
X00149014Y00566446
X00156792Y00574224
X0016457Y00582002
X00172348Y0058978
X00172263Y00611406
X00180042Y00619184
X00173404Y00634451
X0018233Y00641014
X00192196Y00641428
X00203085Y00640993
X00214085
X00225085
X00236085
X00247085
X00258085
X00269085
X00280085
X00291085
X00302085
X00313085
X00324085
X00335084
X00346085
X00357085
X00368084
X00379084
X00390084
X00401084
X00412084
X00423084
X00434084
X00442839
X00453839
X00464913
X00475913
X00486913
X00497913
X00506144Y00644589
X00517144
X00525458Y0065226
X00533236Y00660038
X00532955Y0063396
X00525177Y00626182
X00534062Y00610475
X00529493Y00602957
X00521972Y0060258
X00510124
X00498795
X00487794
X00476795
X00465795
X0045472
X0044372
X00434965
X00423965
X00412965
X00401965
X00390965
X00379966
X00368966
X00357966
X00346966
X00335966
X00324966
X00302966
X00291966
X00280966
X00269966
X00258966
X00247966
X00236966
X00225966
X00214966
X00203966
Y0062458
X00214966
X00225966
X00236966
X00247966
X00258966
X00269966
X00280966
X00291966
X00302966
X00324966
X00335966
X00346966
X00357966
X00368966
X00379966
X00390965
X00401965
X00412965
X00423965
X00434965
X0044372
X0045472
X00465795
X00476795
X00487794
X00498795
Y0057958
X00487794
X00476795
X00465795
X0045472
X0044372
X00434965
X00423965
X00412965
X00401965
X00390965
X00379966
X00368966
X00357966
X00346966
X00335966
X00324966
X00313966
X00302966
X00291966
X00280966
X00269966
X00258966
X00247966
X00236966
X00225966
X00214966
X00203966
X00188093Y00580485
X00180855Y00574824
X00173077Y00567046
X00165299Y00559268
X0015752Y0055149
X00149742Y00543712
X00171285Y00541261
X00179063Y0054904
X00186842Y00556818
X00214832Y00558487
X00225832
X00236832
X00247832
X00258832
X00269832
X00280832
X00291832
X00302832
X00313832
X00324832
X00335832
X00346832
X00357832
X00368832
X00379832
X00390832
X00401832
X00412832
X00423832
X00434832
X00445831
X00454586
X00465586
X00476661
X00487661
X00498661
X00509661
X00519978
X00530719
X0053852Y00563205
X00535204Y005845
X00526565Y00580101
X005125Y005795
X00164485Y00603627
X00156707Y00595849
X00148929Y00588071
X00150069Y00611117
X00157847Y00618895
X00165626Y00626673
X00549618Y00626031
X00556385Y0063333
X00564163Y00641108
X00571941Y00648887
X00580758Y00655893
Y00666893
Y00677893
Y00688893
Y00699893
Y00710893
Y00721893
Y00732893
Y00741648
Y00752648
Y00763722
Y00774722
Y00785722
Y00796722
Y00807797
Y00818797
Y00829797
Y00840797
Y00851872
Y00862872
Y00873872
X00584178Y00884723
X00591957Y00892501
X00599735Y00900279
X00607513Y00908058
X00615344Y00915889
X00623122Y00923667
X006309Y00931445
X00611206Y00932531
X00603428Y00924753
X00595649Y00916975
X00587818Y00909144
X0058004Y00901366
X00572262Y00893588
X00570883Y00915278
X00576687Y00921681
X00584465Y00929459
X00563105Y009075
X00555327Y00899722
X00552361Y00889236
Y00878161
Y00867161
Y00856161
Y00845086
Y00834086
Y00823086
Y00812012
Y00801012
Y00790012
Y00778937
Y00767937
Y00759182
Y00748183
Y00737182
Y00726182
Y00715183
Y00704183
Y00693183
Y00682183
X00548248Y00674099
X0054047Y0066632
X00563056Y00664594
X0056679Y00672338
Y00683338
Y00694338
Y00705338
Y00716338
Y00727338
Y00738338
Y00749338
Y00758092
Y00769092
Y00780167
Y00791167
Y00802167
Y00813242
Y00824241
Y00835241
X00595138Y00832609
Y00821609
Y00810609
Y00799609
Y00788534
Y00777534
Y00766535
Y00755535
Y0074446
Y0073346
Y00724705
Y00713705
Y00702705
Y00691705
Y00680705
Y00669706
Y00658706
Y00647706
X00609725Y00648798
Y00659798
Y00670798
Y00681797
Y00692797
Y00703797
Y00714797
Y00723552
Y00734552
Y00745627
Y00756627
Y00767627
Y00778626
Y00789701
Y00800701
Y00811701
Y00822701
Y00833776
Y00844776
Y00855776
X00595138Y00854684
Y00865684
X00600194Y00878031
X00607972Y00885809
X0061575Y00893588
X00623581Y00901419
X00631359Y00909197
X00639137Y00916975
X00646916Y00924753
X00654747Y00932584
X00666663Y0092372
X00658832Y00915889
X00651054Y0090811
X00643276Y00900332
X00635498Y00892554
X00627667Y00884723
X00619888Y00876945
X0061211Y00869167
X00629549Y00863354
X00625693Y00858216
X0062476Y00848668
Y00837668
Y00826668
Y00815594
Y00804594
Y00793594
Y00782594
Y00771519
Y00760519
Y00749519
Y00738519
Y00727444
Y00716444
Y0070769
Y0069669
Y0068569
Y0067469
Y0066369
Y0065269
Y0064169
Y0063069
X00609725Y00637798
X00601292Y00626291
X00593514Y00618513
X00585736Y00610735
X00577957Y00602957
X00571191Y00595658
X00563413Y00587879
X00555635Y00580101
X005475Y00571753
X00544559Y00593649
X00552337Y00601427
X00560116Y00609205
X00566882Y00616504
X0057466Y00624283
X00582438Y00632061
X00540734Y00641739
X005475Y00649038
X00555278Y00656816
X0054184Y00618253
X00579472Y00578761
X00571694Y00570983
X00563915Y00563205
X00557149Y00555906
X00549371Y00548128
X00541593Y00540349
X00783568Y00580188
X00826Y0077465
X00833
X00841
X00849
X00855
X00699658Y00933463
X0069188Y00925685
X00684101Y00917907
X0067627Y00910076
X00668492Y00902298
X00660714Y00894519
X00652936Y00886741
X00645105Y0087891
X00637327Y00871132
X00595138Y00843684
X00592296Y0093729
X00600074Y00945068
X00607852Y00952846
X0061563Y00960624
X00623409Y00968403
X00631187Y00976181
X00638397Y00983705
X00646175Y00991483
X00654006Y00999314
X00661784Y01007092
X00669563Y0101487
X00681632Y01016283
X00692632
X00703632
X00697776Y01001234
X00710179
X00722582
X00734985
X00728972Y00989503
X00716569
X00704166
X00691763
X00685859Y00985945
X00685373Y01001234
X00675278Y00996278
X00665706Y00987031
X00657927Y00979253
X00650149Y00971475
X00642371Y00963697
X00634593Y00955919
X00626815Y0094814
X00618984Y00940309
X00638731Y00939276
X00646509Y00947054
X00654287Y00954832
X00662066Y0096261
X00669844Y00970388
X00677622Y00978167
X00693637Y00971475
X00685859Y00963697
X00678081Y00955919
X00670303Y0094814
X00662525Y00940362
X00682219Y00939276
X00689997Y00947054
X00697776Y00954832
X00705554Y0096261
X00708135Y00976965
X00720537
X00722917Y00951814
X00715214Y00949019
X00707436Y00941241
X00729586Y00957033
X00736351Y0096259
X00742053Y00969403
X00749301Y00976458
X00523Y01554
X0056825Y0152765
X00609791Y0152493
Y01531397
M30
