M48
;Layer_Color=9474304
;FILE_FORMAT=4:4
METRIC,LZ
;TYPE=PLATED
T03F00S00C0.3000
T04F00S00C0.6000
T06F00S00C0.7000
T09F00S00C0.8900
T11F00S00C1.0200
T12F00S00C1.2700
T13F00S00C1.3000
T14F00S00C1.6000
T15F00S00C3.0000
T16F00S00C3.7000
%
T03
X00201915Y00028498
X00204175Y00038663
X00628265Y00055998
X0067673Y0005463
X0067181Y0006759
X00672515Y0008631
X0067311Y0009759
X00694813Y0010137
X0070881Y0010159
X0071681Y0009959
X0071881Y0009159
X0071981Y0007559
X0071881Y0005959
X0071381Y0005359
X0070081Y0005259
X00753962Y00109868
X00823841Y000706
X00953Y00079
X0098341Y00160189
X00989409Y0017219
X0098341Y0018619
X00985409Y00205009
X0094741Y00207256
X00988Y00264473
Y00272973
X00901115Y00303998
X00873598Y00292851
X00870115Y00275998
X00869115Y00311998
X0084375Y0034675
X0084298Y0042675
X00817228Y00427159
X00760543Y00428531
X00763018Y00435956
X00755593Y00433481
X00744703Y00447734
X00742228Y00455159
X00749653Y00452684
X00738321Y0047936
X00730621
X00722921
X00715221
Y0048736
X00722921
X00730621
X00738321
Y0049536
X00730621
X00722921
X00715221
X00713925Y00538807
X00600918Y00486693
Y00477993
X00588218
Y00486693
X00575518
Y00477993
X00562818
Y00486693
X00550118
Y00477993
X00645136Y00349293
X00652136
X00648636Y00342293
X00669186Y00340343
X00676186
X00672686Y00333343
X00665714Y00326741
X00658715
X00662215Y00319741
X00737312Y00359185
X00753649Y00384281
X00760648
X00757132Y00391489
X00771265Y00244998
X00766265Y00238998
Y00230998
X00764735Y0021809
X00781255Y00218988
X00808441Y002241
Y002038
X00812364Y00173522
X00833841Y0017335
Y0019365
Y0021395
X00842Y0026
X00833841Y0015305
X00808441Y001429
X0074866Y0020809
X0073981Y0020959
X00705881Y00207843
X00695504Y0018841
X0068766Y0019109
X00679235Y00190747
X00709315Y00175098
X0071631Y0017709
X00935209Y00171804
X00916Y00399
X009145Y00422
X009099Y00486
Y00495
X00852265Y00495998
Y00487998
X00844265
X00836265
Y00495998
X00844265
X00537418Y00486693
Y00477993
X00524718
Y00486693
X00512018
Y00477993
X00444731Y00503639
Y00511339
X0043673
Y00503639
X00428731
Y00511339
X00380552Y00532136
X00276552
X00277315Y00408882
Y0038735
X0020754Y00439307
X003606Y0034781
X00393414Y0035099
X00408414
Y0033599
X00393414
Y0032099
X00408414
Y0030599
X00393414
X00423414
X00438414
Y0032099
X00423414
Y0033599
X00438414
X00423414Y0035099
X0044853Y00386623
X00448665Y0040802
X00095552Y00616136
Y00624136
Y00632136
Y00640136
Y00648136
X00112821Y00667407
X00055914Y006505
X00053952Y00638136
X00046252
X00038552
X00030852
X00023152
X00015452
Y00630136
X00023152
X00030852
X00038552
X00046252
X00053952
Y00622136
X00046252
X00038552
X00030852
X00023152
X00015452
X00034143Y00810675
Y00818375
X00042143
Y00810675
X00050143
X00050143Y00818375
X00063681Y00816108
X00096178Y00818262
X00096394Y00810633
X00096178Y00829262
Y00837262
X00097265Y00867688
Y00875136
X00088935Y00879855
X00089Y00887805
X00081499Y0089792
X00051216Y00877471
X000437Y00877655
X00036
X000283
Y00869655
X00036
X000437
X000514
X00052298Y00921651
X0005025Y00929655
X00080193Y00784832
X00108178Y00758262
Y00750262
X00169265Y00840498
Y00848498
X00177265
X00185265
X00193265
Y00840498
X00185265
X00177265
X0017715Y00873655
X0018515
X0016625Y00877805
Y00885805
X0016829Y00898765
X0016059Y00898765
X0015289
Y00906765
X0016059
X0016829
X00179Y00913655
X001867Y00913655
X001867Y00921655
X00179
Y00929655
X001867
X00195898Y00894949
X00284821Y0089236
Y0092836
X00344821
X00392821Y0082036
X00370821Y0077582
X00290002Y00754002
X00226602Y006705
X00232108Y00663577
X00226602Y006565
X00198821Y00557407
X00476821Y0083236
X00630996Y00784015
Y00776014
Y00768014
Y00760014
X00638996
Y00768014
Y00776014
Y00784015
X00788Y0077
X00802Y0079
X00891676Y0079536
X00915208
X00924149Y00779875
X00891673Y0076229
Y0073229
X00891676Y0069859
X00915208
X00926011Y00715597
X00870024Y0065976
Y00636228
X00834025
X00815265Y00636998
X00834025Y0065976
X0089613Y0086347
Y0087047
X0090313Y0086697
X00953057Y00781224
X00955011Y0075729
X00963511
X00972011
Y0074729
X00963511
X00955011
Y0073729
X00963511
X00972011
X0095181Y00715561
X00979211Y00686141
X00975Y010285
X00965
X00954
X0095955Y011905
X009658Y011965
X009773Y01208
X009838Y012015
X00906545Y010895
X00901589Y01025063
X008885Y01006
X00893Y009525
X009225Y009745
X00716821Y0108676
X00716821Y0109756
X00716821Y0110836
X00716821Y0111916
X00717129Y01132261
X00717021Y0115636
X00728877Y0115746
X00740821Y0114436
X00752821Y0113236
X00767292Y0113836
X00770879Y01158458
X00741421Y0112036
X00692821Y0112036
X00692826Y01156023
X00704821Y0122836
X00768011Y01281829
X00774155Y01292879
Y01301879
X00783155
X00644821Y0110836
X00592421Y0110136
X00572552Y01105436
Y01113136
X00564552
Y01105436
X00556552
Y01113136
X00332821Y0121636
X001867Y0120065
X00179Y0120065
Y0119265
X001867
Y0118465
X00179
Y0117665
X001867
X001867Y0116865
X00179Y0116865
X0016829Y0116176
X0016059
X0015289
Y0115376
X0016059
X0016829Y0115376
X0016625Y011428
Y011348
Y011218
Y011138
X0016829Y0110254
X0016059Y0110254
X0015289
Y0109454
X0016059
X0016829
X00179Y0108765
X001867Y0108765
X001867Y0107965
X00179
Y0107165
X001867
Y0106365
X00179
Y0105565
X001867Y0105565
X00200121Y0105036
X00207821Y0105036
X00207821Y01042361
X00200121
Y01034361
X00207821
Y0102636
X00200121Y0102636
Y0101836
X00207821
Y0101036
X00200121
Y0100236
X00207821
X00207821Y0099436
X00200121Y0099436
X0018485Y00985655
X0017685
X0016625Y00981805
Y00973805
X0016829Y00960545
X0016059Y00960545
X0015289
Y00952545
X0016059
X0016829
X00179Y00945655
X001867Y00945655
X001867Y00937655
X00179
X00211353Y00968702
X0018515Y0101565
X0017715
X0016625Y010178
Y010258
X0016829Y0104076
X0016059Y0104076
X0015289
Y0104876
X0016059
X0016829
X0017685Y0112815
X0018515
X0016829Y0120754
X0016059
X0015289
Y0121554
X0016059
X0016829Y0121554
X0016625Y012288
Y012368
X0017685Y01239385
X0018485
X00182991Y01330868
X000581Y0128865
X000504
X000427
X00035
X000273
Y0128065
X00035
X000427
X000504
X000581
Y0127265
X000504
X000427
X00035
X000273
Y0126465
X00035
X000427
X000504
X000581
X000504Y0125665
X000427
X00035
X000273
Y0124865
X00035
X000427
X000504
Y0124065
X000427
X00035
X000273
Y0123265
X00035
X000427
X000504
X00049528Y01225523
X000427Y0122465
X00035
X000273
X0005025Y0119265
Y0118465
Y0117665
X00051395Y0114415
X00043695
Y0113615
X00051395
Y0112815
X00043695
Y0112015
X00051395
Y0111215
X00043695
X0005025Y0107965
Y0107165
Y0106365
X000514Y0102965
X000437
Y0102165
X000514
Y0101365
X000437
Y0100565
X000514
Y0099765
X000437
X000433Y00989655
X00051
X00051Y00981655
X000433
Y00973655
X00051
Y00965655
X000433
X0005025Y00937655
X00080917Y00961155
X00089Y00971805
Y00979805
X00089Y009998
Y010078
X00089Y010198
Y010278
X00080917Y0103965
Y0110365
X00088995Y011138
Y011218
X00088995Y011348
Y011428
X00080917Y0115265
Y0121665
X00089Y012268
Y012348
X00089Y012468
Y012548
X00015Y0131065
X0001245Y0138142
X0002015
Y0140642
X0002785
X0003555
Y0141442
X0002785
X0002015
X0001245
Y0142242
X0002015
X0002785
X0001245Y0140642
X00072Y01423
X00140641Y0143558
X00131245Y01534775
X00065845Y0153245
Y0152045
Y0150845
X00146245Y01534775
X00161245Y01534775
X00176245Y01534775
X00191245Y01534775
X00206245Y01534775
X00221245Y01534775
X00261265Y01526998
X00267265Y01532998
X00273265Y01538998
X00256821Y0151636
X00230264Y0158424
X001907Y0142858
X00183
X001753
Y0142058
X00183
X001907
Y0141258
X00183
X001753
Y0140458
X00183
X001907
Y0139658
X00183
X001753
Y0138858
X00183
X001907
Y0138058
X00183
X001753
Y0137258
X00183
X001907
X00197Y01342
X0017Y01334
X00252655Y01364736
X00252655Y01372436
X00260655Y01372436
Y01364736
X00268655
X00268655Y01372436
X00276655Y01372436
Y01364736
X00284655
Y01372436
X00292655
Y01364736
X00300655
X00300655Y01372436
X00411245Y01534775
X00426245
X00441245
X00456245Y01556905
X00486245Y01534775
X00509746Y01580411
X00721245Y01556905
X00736245Y01534775
X00751245
X00766245
X00781245Y01534775
X00789806Y01586087
X008765Y01585973
X008433Y014302
X008319Y014275
X00821239Y01343161
X008588Y013482
X008633Y013542
X00767321Y01363361
X00762321Y01369361
X00755321
X00745321
X00738321
X00728321
X00721321
X00711321
X00704321
X00694321
X00687321
X00682321Y01363361
X00699321
X00716321
X00733321
X00750321
X007549Y014625
T04
X008194Y00585
X00831
X008426
X008542
X008658
X008774
X00889
X009006
X009122
X00918Y00595
X009064
X008948
X008832
X008716
X0086
X008484
X008368
X008252
X008136
T06
X00857Y0036675
Y0038675
Y0040675
Y0042675
Y0044675
X00872Y0044175
X00889Y0044675
Y0042675
Y0040675
Y0038675
Y0036675
X00904Y0037175
Y0039675
Y0041675
Y0044175
X00872Y0041675
Y0039675
Y0037175
T09
X00798441Y001126
Y001329
X00823841Y0012275
Y0014305
Y0016335
Y0018365
Y0020395
Y0022425
X00798441Y002141
Y001938
Y002344
Y001532
T11
X002794Y000254
X003048
X003302
X003556
X00381
X004064
X004318
X004572
X00508
X005334
X005588
X005842
X006096
X00635
Y00508
X006096
X005842
X005588
X005334
X00508
X004826
X004572
X0041656
X0039116
X0036576
X0034036
X0031496
X0028956
X0026416
X0023876
X0021336
X0018796
T12
X00927941Y000983
X00953341
X00978741
Y002487
X00953341
T13
X00959Y00854
Y00904
Y00954
Y01004
Y01054
T14
X00889841Y000856
Y002614
T15
X00572511Y00342247
T16
X00054011Y0070736
X00804011
X00054011Y0145736
X00804011
M30
