M48
;Layer_Color=9474304
;FILE_FORMAT=4:4
METRIC,LZ
;TYPE=PLATED
T05F00S00C0.6000
T07F00S00C0.7000
T08F00S00C0.8000
T10F00S00C0.9000
%
G90
G05
T05
G00X00938011Y0070409
M15
G01X00928011
M16
G00X00938011Y0079049
M15
G01X00928011
M16
G00X00989011Y0079049
M15
G01X00979011
M16
G00X00989011Y0070409
M15
G01X00979011
M16
T07
G00X008787Y0034275
M15
G01X008557
M16
G00X009355Y0034275
M15
G01X009125
M16
G00X009355Y0047075
M15
G01X009125
M16
G00X008787Y0047075
M15
G01X008557
M16
G00X0094548Y011605
M15
G01Y011355
M16
T08
G00X0088748Y01162
M15
G01Y01134
M16
G00X0090548Y01195
M15
G01X0092948
M16
T10
G00X008445Y005575
M15
G01X008265
M16
G00X009345Y005575
M15
G01X009165
M16
G00X008905Y006225
M15
G01X009085
M16
G00X007955Y006225
M15
G01X008135
M16
M17
M30
