M48
;Layer_Color=9474304
;FILE_FORMAT=4:4
METRIC,LZ
;TYPE=PLATED
T01F00S00C0.1000
%
T01
X00238559Y00101493
X00243352Y00112237
X00245654Y00116883
X0032705Y00103823
X0033848Y00104157
X00333612Y000633
X00302479Y00069431
X00281473Y001691
X002575Y002076
X002485
Y002166
Y002316
Y002406
X002575
X002485Y002496
X002395Y002406
X002245
X002155
Y002316
Y002166
Y002076
X002245
X002395
X002485Y001986
X002155
X002065Y002076
X001915
X001825
Y002166
Y002316
Y002406
X001915
X002065
X002155Y002496
X001825
X001735Y002406
X001585
X001495
Y002496
Y002316
Y002166
Y002076
X001585
X001735
X001825Y001986
X001495
X001565Y00173384
X00256854Y00287351
X00291098Y00300422
X00363855Y00365673
X001295Y002716
Y002566
Y002516
Y002466
Y002416
Y002366
Y002316
Y002266
Y002216
Y002166
Y002116
Y002066
Y002016
Y001966
Y001916
Y001866
X001415Y00173384
X001405Y002076
Y002406
X0031557Y00604674
Y0062365
X0045325Y0073165
X00922893Y0095868
X00923283Y00985279
X00537823Y01527522
M30
