M48
;Layer_Color=9474304
;FILE_FORMAT=4:4
METRIC,LZ
;TYPE=PLATED
T01F00S00C0.1000
%
T01
X00106Y00008
Y00024522
Y00031022
Y00037022
Y00044022
Y00051022
Y00058022
Y00065022
Y00072022
Y00079022
Y00086022
Y00093022
Y00100022
Y00107022
Y00114022
Y00121022
X00113Y0012
X00119
X00123672Y00124126
X00122928Y00130524
X00117621Y00133004
X0011901Y00138014
X00106Y00138
Y00132
X00134Y0013
X00136Y0012
X00142
Y00113
X00136
X0013
Y0012
X00165401Y00131193
X00193Y00125122
X00195061Y00120291
X00192959Y0011375
X00209679Y00116756
X00206Y00121085
X00220055Y00132585
X0022691Y00141219
X00240846Y00133409
X00248026Y0013436
X0025511Y001326
X00271985Y0013027
X00276017Y00132703
X00283062Y00132842
X0029007Y00133419
X002603Y001165
X00283165Y00084507
X00286516Y0007917
X00289401Y00075179
X00308848Y00076664
X00314954Y00077116
X00315678Y00070357
X0033633Y00074735
X0034634Y00074576
X00362213Y00062676
X00372157Y00059794
X00382377Y0005867
X003665Y00050407
X00396239Y00078112
X00401321Y0010886
X00405321
X00409321
X00413321
X00417321
X00421321
X00425321
X00429321Y0011386
Y0011786
Y0012186
Y0012586
Y0012986
Y0013386
Y0013786
X00425321Y0014286
X00421321
X00417321
X00413321
X00409321
X00405321
X00401321
X00397321Y0013786
Y0013386
Y0012986
Y0012586
Y0012186
Y0011786
Y0011386
X00388632Y0013129
X00381631Y00131205
X00369907Y00117595
X00360713Y00120353
X00434631Y0012029
X00439944Y00119694
X00435996Y00130926
X00445999Y00104497
X00460545Y00104739
X004657Y00117424
X0052835Y00115505
X00539632Y0011329
X00523631Y0009729
X00518391Y0008929
X00524107Y00057313
X00494577Y00057086
X0049458Y0005175
X0047927Y00047395
X0047Y00031
X00421004Y00028917
X00420631Y0003429
X00320938Y00035453
X00213599Y000508
X00205143Y00088885
X00555817Y00083406
X00560228Y00092159
X00560012Y0009993
X00567374Y00101159
X00563632Y0010529
Y0011329
X00571632Y0011329
X00571631Y0012129
X00568266Y0012755
X00563631Y0012929
X00555631
X00555631Y0012129
X00560531Y00121567
X00563632Y0013729
X00571631
X00579631Y0013729
X00579632Y0012929
X00587631
X00587631Y0012129
X00587631Y0011329
X00595631Y0011329
X00599768Y00117137
X00603631Y0012129
X00595631Y0012129
Y0012929
Y0013729
X00587631
X00603632Y0013729
X00606699Y00132358
X00611632Y0012929
X00616268Y00129612
X00627631Y0012929
X00631609Y00126156
X00627631Y0012129
Y0011329
X00623193Y00110971
X00611631Y0011329
X00611632Y0010529
X00611631Y0009729
X00603631
X00595631Y0009729
X00599582Y00092688
X00590924Y00092904
X00576763Y00100159
X00577631Y00115578
X00547631Y0011329
X00554062Y00070826
X0056062Y000479
X0056612
X0057312
X0057862
X00596228Y00054326
X006049Y00073152
X00619543Y00076816
X006209Y0006284
X00635631Y0008929
X00627631Y0009729
X00603631Y0010529
X00652304Y00120871
X00662551Y0013335
X0067887Y0013791
X00678348Y0010288
X00683703Y00098173
X00688624Y00099191
X0068581Y0008659
X00680319Y00083917
X00678557Y00090898
X00674405Y00076286
X0068581Y0007759
X0069481
Y0008659
X0070381
Y0007759
Y0006859
X0070081Y0006309
X0069481Y0006859
X0068581
X0066081Y0006963
Y0007959
X00650298Y0004709
X00655578Y00030659
X00649144Y0002274
X006696Y00031293
X006846Y000233
X0071481Y00041138
X0072081
X0073406Y00048915
X0073406Y00054915
X00739734Y00058176
X00746562Y000597
X00752062Y000647
X00752062Y000547
X0076798Y000562
X00778476Y00056744
X00789476Y00057244
X00794476Y00062744
X00784476
X00800476Y00056744
X0079765Y00022864
X00803432Y00022506
X00810674Y00022781
X00843341Y00020551
X00848474Y00022847
X00855311Y00022718
X00890641Y00009749
X0076798Y000732
X00752063Y0008059
Y0009059
X00746563Y0008559
X00745636Y00075392
X00738476Y00069744
X00737476Y00080744
Y00090744
X00745801Y00101077
X0072054Y0011213
X00721Y0013225
X00716Y0013775
X00726
X00730729Y0014075
X00740187Y00136544
X00750146Y00136366
X00756247Y0013256
X0072604Y00081869
X0071181Y0008159
Y0006959
X0053987Y00034375
X00967398Y00227217
X00978898Y00227328
X00988564Y00279281
X009845Y00283973
X00982Y0029975
X009674Y00291
X0095525Y00288
X00951Y00298
X0097836Y0034325
X0098336
Y0034725
Y0033925
X0098836Y0034325
X0098836Y0038025
X0098336
Y0037625
Y0038425
X0097836Y0038025
X0097836Y0043325
X0098336
Y0043725
Y0042925
X0098836Y0043325
X0098836Y0047025
X0098336
Y0047425
Y0046625
X0097836Y0047025
X00975626Y00532893
X0097048Y00537726
X00899Y00486
X00801228Y00483159
X00796631Y0048629
X00789601Y00480658
X00793825Y00475617
X00783228Y00486159
X00785619Y00489155
X00780128Y00493706
X00777228Y00486159
X00774228Y00489159
X00768343
X00764383Y00483159
X00760155Y00494378
X0074295Y00503272
X00792072Y00507939
X00799045Y0050477
X00795228Y00500159
X00792228Y00496159
X008032Y00497939
X0079746Y00514594
X0082115Y0046122
X00744768Y00429311
X00728165Y00423503
X00715465
X00702765
X00690065
X00677365
X00664665
X00651965
X00639265
X00631483Y00411239
X00623989Y00403745
X00615258
X00615208Y00394943
X00603329Y00387047
X00587885Y00382185
X0059615Y00373667
X00601165Y0040802
Y00423503
X00563065
X00554614Y00404713
X00572Y00397
X0058225Y00403747
X0063221Y00383442
X006814Y003704
X00681164Y0035849
X00685164Y0033624
X00687927Y0033299
X00680915Y0032849
Y0032249
X00688282Y00314617
X0070366Y00321028
X00714799Y0032582
X007154Y003334
X00727915Y0033749
X00736915
Y0034649
X00727915
X00730164Y0035524
X00726665Y0036074
X00719165Y0035524
X00719165Y0034974
X00713664Y0035324
X00706645Y00364935
X00706046Y00370852
X00743165Y0036074
X00746164Y0035524
X00745915Y0034649
Y0033749
X00754914
Y0034649
X00763914
Y0033749
Y0032849
X00754914
X00745915
Y0031949
Y0031049
X00736915
Y0031949
X00727915
Y0032849
X00736915
X00754914Y0031949
X00763914
Y0031049
X00768636Y00307418
X00778219Y00309222
X00778165Y0030374
Y0029824
X00778014Y00314925
X00810915Y0031049
Y0030449
Y0029249
X00810092Y00286434
X00806094Y00267621
X00788415Y0028174
X00754165Y0029624
X00750915Y0030324
X00740415
X00743165Y0029624
X00724415Y0029774
X00720415Y0030324
X00728415
X00709914Y0028349
X00698615Y00287955
X00693827Y00297174
X00670472Y00275099
X00654531Y00269261
X00641235Y00250747
X00615248Y0024957
X00610447Y00244834
X00605132Y00241759
X00606121Y00235175
X00593131Y00229744
X00576132
X00576928Y00225159
X00564228Y00225159
X00556109Y00221814
X00551381Y00229751
X0057338Y00240679
X00596257Y00258743
X0060898Y00257311
X00606884Y0025427
X00611377Y0026021
X00613846Y00263167
X00616601Y00265965
X00618668Y00268836
X006189Y0021849
X0062291Y00217717
X00611632Y0020129
X00611631Y0019329
X00606631Y0018829
X00595682Y0018534
X00595631Y0019329
X00587682Y0018534
X00579632Y0018529
X00579631Y0019329
X00568331Y0019749
X00571631Y0020129
X00571631Y0017729
X00571631Y0016129
Y0015329
X00563632
X00559631Y0015029
X00555631Y0015329
X00554699Y001585
X00555631Y0016929
X00547631
Y0017729
X00547631Y0018529
X00555631Y0018529
X00559777Y00182848
X00552863Y00195048
X0054803Y00150274
X00555631Y0014529
X00563632Y0014529
X00571631Y0014529
X00579631
Y0015329
X00579632Y0016129
X00587631Y0016129
Y0015329
X00595631Y0015329
Y0014529
X00599747Y0014868
X00603631Y0014529
X00603631Y0016129
X00603631Y0016929
Y0017729
X00595631
X00622035Y00172886
X00627631Y0017729
X00631364Y00182386
X00631632Y0019029
X00635631Y0019329
Y0020129
X00627631Y0019329
X00619632Y0018529
X00616766Y00157
X00646109Y00157159
X00655156Y0016183
X006625Y0016
X00689287Y00179288
X00696351Y00176887
X007175Y0016875
X007245
X007295Y0016375
X007125
X0073321Y0017843
X0074681
X0075316
X00753279Y00191274
X00742872Y00183678
X00738632Y00187734
X00744439Y0016951
X00736169Y00143432
X00733539Y00223955
X00723921Y00221725
X0071875Y0026875
X00732691Y00265514
X00671301Y00245609
X00674406Y00233306
X00659Y00212
X00603632Y0020529
X00587631Y0014529
X00844265Y00236998
X00810915Y0032249
X00778165Y0035324
X00775164Y0036074
X00770665Y0036074
X00767165Y0035524
X00757165
X00754165Y0036074
X00754342Y00369583
X007784Y003874
X00743837Y00407274
X00732175Y00401484
X00699631Y0043729
X00694632
X00689632
X00683631Y0043629
X00678761Y00528821
Y00532821
Y00536821
X0071276Y00532821
Y00528821
X00486912Y00473897
X00474165Y00474095
X00461465
X00448765
X00436065
X00423365
X00417332Y0047749
X00410665Y00474095
X00397965
X00392023Y0041886
X0038196Y0040728
X00401759Y00400753
X00405929Y00404777
X00424Y00409
X00433Y003975
X00420786Y00361442
X00444372Y00357938
X00448789Y00355808
X00454122Y00345913
X00451235Y00339747
X00465349Y0034037
Y0032737
Y0032137
X00456085Y0032132
X00445073Y0031349
X00449Y00308999
X00433018Y0029175
X0043856Y0027609
X00431035Y00269972
X00408414Y00260738
X00393415
X00384649Y00248889
X00386649Y00227437
X00390725Y00230618
X00395674Y00235568
X0039975Y0023875
X00404346Y00216282
X00404631Y0021129
X00398141Y0020466
X00394054Y00201078
X00410892Y00218747
X00371791Y00237288
X0036275Y0026575
X00376698Y00273731
X003826Y0029181
X003886
X003946
X00392894Y00297292
X00379237Y00295726
X00375525Y00316642
X00373067Y0032349
X00359546Y00323697
Y00330696
X003596Y0033581
Y0034181
X003556Y0031881
X00337824Y00313959
X00330568Y00314767
X00325729Y00316025
X00322746Y00305417
X00331113Y0030744
X00323Y0029495
X00323932Y00285392
X00322446Y00266072
X00335869Y00276047
X0029Y0026995
X00281105Y002566
X00268489Y002536
Y002476
Y002416
Y002356
Y002296
Y002236
Y002176
Y002116
Y002056
X00268473Y002025
X0028227Y00213221
X0028149Y002256
X002794Y002416
X00274Y0028695
X00256449Y00290828
X00253145Y00285577
X00249692Y00286151
X00292833Y00290152
X00291335Y0031319
X00291393Y00320235
X0029489Y00320091
X00299974Y00319127
X00306349Y00318816
X0031338Y00326996
X00295933Y00332768
X00291857Y003292
X00301481Y0034992
X00298891Y00352917
X00297332Y0035749
X00289712Y00363427
X00283384Y00357293
X00272482Y0035378
X00266762Y00366675
X002695Y00386
X00276981Y00380946
X00281619Y00381132
X00328065Y00394885
Y00401352
X00328914Y00437203
X00308Y00442
X0027047Y00435883
X00260615Y00443487
X00258265Y00474984
X00248257Y00475826
X00232865Y00474998
X00220165
X00206Y00475
X00205Y00482
Y00487
X00195Y00487999
Y00481999
X00183949Y0049348
X00157665Y00489462
X00179778Y00441598
X00191057Y00381247
Y00338247
Y00330247
Y00325247
X0018122Y00342249
X00150246Y00317626
X00146Y00314756
X00156298Y00285563
X00177Y002631
X0019209
X00226515Y00394882
Y00401349
X00213845Y0052045
X00361284Y00385247
X00376329Y00382413
X00381967Y00377942
X00387629Y00373235
X00393569Y0037931
X00369357Y0037135
X00384017Y00345417
X00410715Y00423553
X00486915
X00474Y00409
X005Y00408676
X0051Y00403
X00524965Y00408022
Y00423503
Y00386491
X00515448Y00254654
X00511866Y00254767
X00508341Y00254767
X00504787Y00254062
X00501882Y00256092
X00501632Y0022329
X00496076Y00220264
X00483745Y00210555
X00478663Y00203082
X00468633Y00204691
X00465472Y00199689
X004609Y0020149
X00454228Y00167159
X00448228Y00168159
X00444228
X00440228
X00436228
X00431631Y0016829
X00512228Y00175159
X00518768Y00177619
X00518678Y00184886
X00531631Y0017729
Y0016929
Y0015329
X00539632Y0015329
X00523631Y0016129
X00523631Y00206589
X00534228Y00197159
X00534381Y00229751
X00283731Y00188379
X00291846Y00162941
X0029573Y00157342
X00116569Y00158658
X0011632Y00165254
X00116284Y00171755
X00117756Y00176891
X00119018Y00186503
X00113731Y00185779
X00106Y00186
Y00193
Y002
Y00207
Y00214
Y00221
Y00228
Y0023601
Y0024301
Y0025001
Y0025701
Y0026401
Y0027001
Y00275999
Y0028201
Y0028901
Y0029601
Y0030301
Y0031001
Y0031701
Y0032401
Y0033101
Y0033701
Y0034201
Y0034701
Y0035301
Y0035901
Y00369012
X00110965Y00370045
X00116125Y00371101
X00121653Y00369013
X00123865Y00364222
X00122022Y00359087
X0012185Y00351494
X0012417Y00346511
X00121Y0034101
X001164Y0033801
Y0033101
Y0032401
Y0031701
Y0031001
Y0030301
Y0029601
Y0028901
Y0028201
Y00276338
X00117767Y00271763
X00117885Y00261665
X00111437Y00264592
X00129884Y0026682
X00134532Y00291045
Y00297045
X00141532
Y00291045
X00139Y00314756
X0013575Y00316247
X00138271Y00324246
Y00337246
X00117329Y00355352
X00106Y00382012
Y00389012
X0010005Y00393962
X000951Y00398911
X00090151Y00403861
X00086744Y00408593
Y00415593
Y00422593
Y00429593
Y00436593
Y00443593
Y00450593
Y00457593
X00081795Y00462543
X00074795
X00067795
X00060795
X00053795
X00046795
X00039795
X00032794
X00025794
X00018794
X00011795
X0000817Y00467
Y00474
X00036295Y00469543
X00043295
X00050295
X00057295
X00064295
X00071295
X00078295
X00101834Y00441486
X00101213Y00437707
X00104578Y00436503
X00131318Y00431414
X00131265Y00423503
Y00416884
Y00410265
X00141172Y00382493
X00142233Y00489462
X00126771
X00129583Y00181519
X00106Y00179
Y00172
Y00165
Y00158
Y00151
Y00144
X00116Y00152
X00121Y00148
X00123969Y00143271
X00127395Y00542692
X00111597Y00542692
X00083677Y00848437
X00162388Y00801218
X00159401Y00756835
X00193552Y00763136
X00240619Y00750132
X00244619Y00753131
X00241131Y00801625
X00245536Y00806673
X00209598Y00845157
X002325Y00875
Y00881
Y00887
Y009
Y00906
Y00912
Y00925
Y00931
X00272865Y00912748
Y00904748
X00250619Y00889131
X00374Y0089191
X00382841Y008915
X0038146Y00902159
Y00909159
X00398011Y00914376
X00420228Y00903159
X00435228
X00450228
Y00888159
Y00873159
X00435228
X00420228
Y00888159
X00405728Y00861922
X00398821Y0086236
X00387478Y00860159
X00372747Y00858659
X00403228Y00835409
X00409228
X00415228
X00421228
X00423479Y0082663
X00437228Y00835409
X00445228Y00830809
X00453217Y00829374
X00453228Y00835409
Y00844028
X00464324Y00852948
X00463056Y00859229
X00472509Y00886159
X00472967Y00902301
X00472946Y00906082
X00477946
X00477967Y00902301
X00488379Y00899159
Y00906159
X00491626Y00883462
X00492825Y00878295
X00432229Y00852368
X00448768Y00794681
X00469228Y00807909
X00475228Y00808909
X00453228Y00925228
X00436228Y00934659
X00426228
X00419228
X00412228
X00376422Y00927659
X00347728Y00784384
Y00778384
X00330596Y00653268
X00420595Y00653268
X00482625Y00657006
X00429265Y00567912
X00416565Y00567912
X00403865
X00315415Y00565614
Y00559147
Y00552339
X00264165
Y00559147
Y00565614
X002605Y005805
X002495
X002385
X002275
X002165
X002055
X00195959Y005825
X002055Y006015
X002165
X002275
X002385
X002495
X002605
X00182299Y0059796
X002165Y005575
X0061744Y00549289
X00630874Y00548413
X0063566Y00551863
X00678761Y00552821
Y00548821
Y00544821
Y00540821
X00683761Y00556821
X0068776
X0069176
X0069576
X00699761
X0071276Y00544821
X0075075Y00585
Y00595
X0075575Y006
X00750197Y00609157
X00747369Y00621805
X00754369Y00622555
X00738369Y00623689
X00727208Y00628549
X00768135Y0061861
X00786761Y00749945
X00780011Y0076136
X00795011Y0076536
X00811022Y00749938
X0083021Y00784909
Y00790909
X00838894Y00798478
X00836741Y00807234
X00831716Y00808029
X00827628Y00810953
X00841765Y00809022
X00841141Y00813735
X00839007Y0083265
X0084303Y0085347
Y0086147
Y0086947
Y0087747
Y0088547
Y0089347
Y0090147
X0085303
Y0089347
Y0088547
Y0087747
Y0086947
Y0086147
Y0085347
X0086303
Y0086147
Y0086947
Y0087747
Y0088547
Y0089347
Y0090147
X00874756Y00911259
X0088828Y0091022
Y0091672
X00888275Y00928667
X0089867Y00926019
X0090188Y0090997
X0090853Y0090853
X0090903Y0091672
X0091253Y0089497
X0091213Y0088272
X00899026
X0090003Y0088897
X0088828Y00889
X00891019Y00897231
X0090713Y0085567
Y0084467
X0090673Y0083367
X00912Y00824
X00861317Y00821901
X00865Y0083034
X0086173Y0080817
X00821926Y00823826
X00804288Y0085747
X00807309Y00866834
X0081144Y00870966
X00813957Y00873482
X00817581Y00877267
X00783816Y00892647
X00794066Y00903156
X00779065Y00921154
X00768566Y00928835
X00743321Y0092836
X00726321
X00731321Y0091636
X00714321
X00720321Y0089236
X00725821
X00731821
X00737321
X0082053Y0092772
X00823733Y00927617
X00874821Y0075536
Y00749861
Y0074386
Y00738361
X00919646Y0073899
Y0075559
X00927946Y0074729
X00911346
X00910115Y00637998
X009879Y00573
X009919Y00568
X0098298Y00561226
X0098998Y00549726
X00975115Y00829998
X00974683Y00835563
X00971116Y00832561
X00968115Y00824998
X00973115Y00931998
X00970115Y00935998
X00958328Y00933208
X00965244Y00939453
X00967017Y00970186
X0096855Y00982535
X0097205Y0098545
X00976668Y00986424
X00975115Y00992998
X008995Y00999
X00895
X008905Y009985
X0089655Y0100645
X0090055
X00899309Y01016898
X00876Y010395
X00862
X00869Y010325
X0085179Y01044439
X0084233Y0104448
X0083103Y01054
X00816442Y01052048
X00815476Y01042582
X0081603Y0103503
Y0102703
X0082003Y0101878
X00825627Y01019255
X00842227Y01016994
X00852039Y0101702
X00853423Y01008798
X0085953Y0099824
X0086603Y0099424
X00837228Y00999159
X0082958Y00992993
X0083703Y0096795
X0084503
X0085303
X00851378Y00950151
X00855979Y00949657
X0085953Y0094097
X0086603
X0087Y00943
X00876274Y00949998
X0087903Y0093785
X00888275Y00945972
X00889444Y0095774
X0089933Y0095318
X0090433
X0090933
X00910879Y00969237
X0087753Y0096699
X0087103Y0096545
X00853018Y00940343
X00854829Y00936883
X00834652Y0094109
X00828859Y00941524
X00828842Y00948327
X0083679Y00950426
X0081426Y009612
Y009752
X00766571Y00975876
X00767321Y0095236
X00750321
X00755321Y0094036
X00738321
X00729821Y0096436
X00727821Y0097636
X00741821
X00739821Y0098836
X00753821
X00751821Y0100036
X00729821Y0101236
X00716321
X00738321Y0103636
X007631Y01036084
X0078553Y0103828
X00783821Y0106736
X00787821
X00791821
X00795821
X00799821
X00803821
X00807821
X00812821Y0107136
Y0107536
Y0107936
Y0108336
Y0108736
Y0109136
Y0109536
X00807821Y0109936
X00803821
X00799821
X00795821
X00791821
X00787821
X00783821
X00779104Y0109536
Y0109136
Y0108736
Y0108336
Y0107936
Y0107536
Y0107136
X00770106Y0108411
X00765321Y0108436
X007669Y010935
X00752321Y0108436
X00754321Y0107236
X00739321
X00729821Y0106036
X00715821
X00707275Y01059847
X00692821Y01072351
X0068005Y01046247
Y01041247
X005911Y0105301
X00578613Y01058352
X00565913
X00553213
X00558992Y01070277
X00571692
X00584392
X00549614Y01097797
X005451Y0113101
X005451Y0115301
X00577453Y01156108
X00587371Y0116036
X00607371Y0115036
X00612408Y0114036
X0062849Y01140241
X00639027
X00644521Y01160898
X00644757Y01168846
X00644521Y01186298
X00641744Y01192262
X00626821Y0118636
X00620988Y01229265
X00597112Y0123077
X00584658Y0123138
X00566821Y0121036
X00560451Y01275675
X0058069Y01272721
X00618574Y01263767
X00631261Y01279277
X00636155Y01280879
X0064369Y0126828
X00643691Y0125106
X00648377Y01251941
X00652692Y01251327
X00657348Y01252572
X00661692Y01251327
X00670692
X00679692
X00683953Y0125236
X00688692Y01251327
X00697692Y01251277
X00698638Y01245309
X00690821Y01243412
X00698458Y0123511
X00694097Y01229343
X0067377Y01233632
X00672821Y0124336
X00667559Y01263122
X00668821Y01286781
X00692876Y0126362
X00704906Y01273667
X00715824Y01274302
X00729021Y0127356
X00729341Y01262529
X00738248Y01264059
X00742692Y01251227
X00733692
X007292Y01251213
X00724692Y01251277
X00725403Y01245058
X00715692Y01251277
X00706692
X00751692
X00758009Y0126446
X00760693Y0127501
X00751691Y0127501
Y0129201
X00741021Y0128956
X00771692Y01269777
X0080025Y0126535
X008085Y012555
X0082575Y01253
X0083575
X0084575
X00847498Y01272182
X0084275Y01273117
X00838313Y01270659
X00832472Y01270759
X00828004Y01270834
X0082275Y012705
X00818232Y01270258
X0081625Y01232883
X0082275
X0082925
X0083575
X0084225
X0084875
X0085525
X0085875Y012405
X00861756Y01237506
X0086175Y01244
X00866617Y0124975
Y0125625
X00867265Y01267536
X0086725Y0129075
X008858Y013147
X0086175Y0122375
X0084875Y01214821
X0084225
X0083575
X0082925
X0082275
X0081625
X0081998Y0114698
X0081248Y01138
Y01118
X0081998Y0110902
X0084978Y01058525
X00715821Y0096436
X00558992Y00963
X00541092Y00963
X00567371Y0113036
X0057302Y0112601
X00620527Y01131455
X00657221Y0112496
X00704097Y01157332
X00723479Y01194934
X00530821Y0119836
X00536235Y01217247
X00536821Y0123436
X00514821Y0122836
X00458821Y0122236
X00446821Y0121036
X00432168Y01236651
X00427021Y01265205
X00464777Y01245814
X00459321Y0132436
X00470321
X00485321
X00444321
X00386821Y0121036
X00350821Y0118636
X00326821
X00285092Y01177292
X0025682Y01179449
X002475Y01180855
X00241218Y01180682
X00239007Y01190862
X00238141Y012055
X00237235Y01223247
X002475Y012175
X00249247Y01236073
X00249378Y01244051
X00262996Y01238853
X002715Y012175
X00257264Y0119299
X00261017Y01160537
X00248938Y01162807
X00250335Y0113974
X00246Y0112065
X00257657Y01117946
X00257536Y01094
X0024997Y01098668
X00280692Y01098382
X00289681Y01098426
X00285033Y01093036
X0029687Y01094249
X00295144Y01054781
X00299Y0104965
X00292292Y01032777
X00304992Y01016692
X00317692
Y00981342
X00304992Y00980907
X002951Y0097801
X002731Y00972016
X00274614Y00964514
X00274517Y00957818
X00272663Y00938377
X002325Y00937
Y0095
Y00956
Y00962
X00256619Y01000132
X00235735Y0103603
X00381192Y01032777
X00379727Y01048292
X00383227
X00386727
X00390263
X00412942Y01056307
Y01062774
X00414228Y01086917
Y01093163
Y01100163
X00409228Y01105159
X00398092Y01085292
X00375857Y01066375
X00372092Y01066292
X00368032Y01066434
X00364267Y01066492
X00463741Y01062774
Y01056307
X00458707Y01079422
X00475845Y0107245
X00498619Y01069131
X00496092Y01091292
X00517311Y01087744
X00524628Y01088074
X00524332Y01100335
X00531023Y01097237
X00487305Y0112749
Y01155245
X00443625Y0112749
X00397199Y01148466
X00400242Y00972769
Y00966302
X00405267Y00958415
X00406607Y00953818
X00419092Y00951292
X00419996Y00956292
X00427118Y00956308
X0042753Y0095072
X0041653Y0094572
X00436847Y00940497
X00444692Y00964728
X00457392
X00461092Y00964292
X00470092Y00964728
X00474092Y00974292
X00482792Y00996292
X00495492Y01032777
X00505458Y0096842
X00510876Y00964982
X00504831Y00958538
X0050759Y00953969
X00444738Y00978464
X00431992Y00989287
Y00996287
Y01003287
X00395179Y00958096
X00390092Y00955292
X00351092Y00949292
X00346092
X00341357Y00949168
X00335883Y00949385
X00349442Y00966302
Y00972769
X00248235Y01274247
X00202Y013002
X00198821Y0131036
X00203821Y0131636
X00210716Y01316427
X00210821Y0131036
X00184589Y01322016
X00131257Y01478518
X00130477Y01504502
X00147012Y01506502
X00147791Y01478518
X0022Y0148966
X00224
X00228
X00232
X00236
X0024
X00244
X00248Y0149466
Y0149866
Y0150266
Y0150666
Y0151066
Y0151466
Y0151866
X00244Y0152366
X0024
X00236
X00232
X00228
X00224
X0022
X00216Y0151866
Y0151466
Y0151066
Y0150666
Y0150266
Y0149866
Y0149466
X00217937Y01450599
X00206246Y01438907
X00322544Y01446752
X00335734Y01449332
X00343091Y01464922
Y01501407
X0035395Y015257
X00349Y0153065
X0034405Y015356
X00339111Y0154056
X00321Y0154465
X00315991Y01547076
X00308991
X00304Y0154465
X00304991Y01531404
Y01524937
Y01501407
Y01464922
X00381191
X0038119Y01441399
Y01434932
X00381191Y01501407
X0038119Y01524937
Y01531404
X00388Y0155365
X00393767Y01550141
X00400767
X00405Y0155365
X00367285Y01549771
X00362Y01553907
Y01560907
X0036659Y01565839
X00456891Y0156765
X00461391
Y0157215
X00468391
Y0156765
X00472891
X00457391Y01531404
X00457391Y01524937
X00457391Y01501407
Y01464922
X0045739Y01441399
X0045739Y01434932
X00459268Y01417509
X00455733Y01413974
X00452197Y01410438
X00448662Y01406903
X00481042Y01409401
X00486591Y01410401
X00485821Y01417907
X00481042Y01416401
X00525821Y01417907
X00522591Y01421401
Y01425401
X00529591
Y01421401
X00533591Y01434932
X00533591Y01441399
Y01464922
X00531304Y0146526
X00515384Y01467384
X00495491Y01464922
Y01501407
X00533591
X00521022Y01534413
X00507759Y01532634
X00419291Y01501407
X00419264Y01491314
X00409855Y01482277
X00414026Y01471934
X00424085Y01470113
X00419291Y01464922
X00413321Y01383361
X00408321Y01383361
X00403321Y01383361
X00398321
X00396321Y0134836
X00391321
X00382321
X00377321Y0134836
X00372321Y0134836
X00367321
X00379321Y0133636
X00384321
X00389321Y0133636
X00394321Y0133636
X00403321
X00408321
X00413321Y0133636
X00418321Y0133636
X00432821
X00447821
X00456821
X00471821
X00482321
X00497321
X00406321Y0134836
X00401321Y0134836
X00279591Y01533661
X00546291Y01533101
X00558491
X0056825Y0152765
X00571691Y01501407
Y01464922
X00609791
X00625063Y01478902
X00641207Y0148036
X00641428Y01474816
X00640345Y01486792
X00628891Y01495258
X00628842Y01503432
X00616106Y01495439
X00609791Y01501407
X00609791Y0152493
Y01531397
X00625672Y01521326
X00647891Y01501407
Y01464922
X00654127Y01466085
X00663123Y01472008
X00674434Y01451968
X00680484Y0145252
X00685434Y01447571
X00691434Y01448968
X0069572Y01432099
X00696685Y01426613
X00703685
X00706478Y01430925
X00684302Y01425045
X00680673Y01428484
X00673673
X00668042Y01428401
X00647511Y01430151
X00641044
X0063716Y01450404
X0064648Y01449503
X00595332Y01435716
X00588732Y01433592
X00583042Y01436401
X00580821Y01425401
X00587821
X00600499Y01425148
X00600282Y01430767
X00565042Y01433401
X00558042
X00707475Y01458584
X00713092Y01457351
X00718042Y01452401
X00723929Y01452057
X00739042Y01450401
X00739077Y014558
X00743992Y01445452
X00747403Y01441169
X00751Y01506
X00736276Y01506508
X0072Y01507
X00766489Y01506
X00784626Y01501128
X0078768Y01514738
X0081Y01420471
X008323Y014207
X0085255Y0141995
Y0141545
X008605Y01419985
X008718Y01419585
X00844498Y01395
X008279Y013925
X008239
X008199
Y013875
X008239
X008279
Y013825
X008239
X008199
Y013775
X008239
X008279
X008291Y0137
X008236Y013685
X008221Y01363
X008236Y013575
X008291Y01356
X008488Y013545
X008523
X008558
X008688
Y013515
X008723
Y013545
X008758
Y013515
X008793
Y013545
X008923
Y013515
X008958
Y013545
X008993
Y013515
X009028
Y013545
X008623Y013412
X008588
X008553
X0078115Y01336017
X008199Y013975
X008239
X008279
M30
