G04*
G04 #@! TF.GenerationSoftware,Altium Limited,Altium Designer,26.9.1 (10)*
G04*
G04 Layer_Color=8388736*
G04 Board_Origin=9999995|9999995*
%FSLAX44Y44*%
%MOMM*%
G71*
G04*
G04 #@! TF.SameCoordinates,9D83EA41-EA8C-4E9F-96AF-D385C4C8DFFD*
G04*
G04*
G04 #@! TF.FilePolarity,Negative*
G04*
G01*
G75*
%ADD83C,0.5300*%
G04:AMPARAMS|DCode=87|XSize=0.55mm|YSize=0.58mm|CornerRadius=0.1403mm|HoleSize=0mm|Usage=FLASHONLY|Rotation=270.000|XOffset=0mm|YOffset=0mm|HoleType=Round|Shape=RoundedRectangle|*
%AMROUNDEDRECTD87*
21,1,0.5500,0.2995,0,0,270.0*
21,1,0.2695,0.5800,0,0,270.0*
1,1,0.2805,-0.1498,-0.1348*
1,1,0.2805,-0.1498,0.1348*
1,1,0.2805,0.1498,0.1348*
1,1,0.2805,0.1498,-0.1348*
%
%ADD87ROUNDEDRECTD87*%
G04:AMPARAMS|DCode=100|XSize=0.55mm|YSize=0.58mm|CornerRadius=0.1403mm|HoleSize=0mm|Usage=FLASHONLY|Rotation=180.000|XOffset=0mm|YOffset=0mm|HoleType=Round|Shape=RoundedRectangle|*
%AMROUNDEDRECTD100*
21,1,0.5500,0.2995,0,0,180.0*
21,1,0.2695,0.5800,0,0,180.0*
1,1,0.2805,-0.1348,0.1498*
1,1,0.2805,0.1348,0.1498*
1,1,0.2805,0.1348,-0.1498*
1,1,0.2805,-0.1348,-0.1498*
%
%ADD100ROUNDEDRECTD100*%
G04:AMPARAMS|DCode=122|XSize=0.4mm|YSize=0.76mm|CornerRadius=0.125mm|HoleSize=0mm|Usage=FLASHONLY|Rotation=0.000|XOffset=0mm|YOffset=0mm|HoleType=Round|Shape=RoundedRectangle|*
%AMROUNDEDRECTD122*
21,1,0.4000,0.5100,0,0,0.0*
21,1,0.1500,0.7600,0,0,0.0*
1,1,0.2500,0.0750,-0.2550*
1,1,0.2500,-0.0750,-0.2550*
1,1,0.2500,-0.0750,0.2550*
1,1,0.2500,0.0750,0.2550*
%
%ADD122ROUNDEDRECTD122*%
G04:AMPARAMS|DCode=123|XSize=1.7mm|YSize=1.5001mm|CornerRadius=0.155mm|HoleSize=0mm|Usage=FLASHONLY|Rotation=180.000|XOffset=0mm|YOffset=0mm|HoleType=Round|Shape=RoundedRectangle|*
%AMROUNDEDRECTD123*
21,1,1.7000,1.1900,0,0,180.0*
21,1,1.3899,1.5001,0,0,180.0*
1,1,0.3100,-0.6950,0.5950*
1,1,0.3100,0.6950,0.5950*
1,1,0.3100,0.6950,-0.5950*
1,1,0.3100,-0.6950,-0.5950*
%
%ADD123ROUNDEDRECTD123*%
%ADD124R,0.7800X1.7000*%
%ADD125R,1.4000X0.9000*%
%ADD126R,0.7000X1.7000*%
G04:AMPARAMS|DCode=127|XSize=0.7mm|YSize=0.35mm|CornerRadius=0.0813mm|HoleSize=0mm|Usage=FLASHONLY|Rotation=90.000|XOffset=0mm|YOffset=0mm|HoleType=Round|Shape=RoundedRectangle|*
%AMROUNDEDRECTD127*
21,1,0.7000,0.1875,0,0,90.0*
21,1,0.5375,0.3500,0,0,90.0*
1,1,0.1625,0.0938,0.2688*
1,1,0.1625,0.0938,-0.2688*
1,1,0.1625,-0.0938,-0.2688*
1,1,0.1625,-0.0938,0.2688*
%
%ADD127ROUNDEDRECTD127*%
G04:AMPARAMS|DCode=128|XSize=0.7mm|YSize=0.35mm|CornerRadius=0.0813mm|HoleSize=0mm|Usage=FLASHONLY|Rotation=180.000|XOffset=0mm|YOffset=0mm|HoleType=Round|Shape=RoundedRectangle|*
%AMROUNDEDRECTD128*
21,1,0.7000,0.1875,0,0,180.0*
21,1,0.5375,0.3500,0,0,180.0*
1,1,0.1625,-0.2688,0.0938*
1,1,0.1625,0.2688,0.0938*
1,1,0.1625,0.2688,-0.0938*
1,1,0.1625,-0.2688,-0.0938*
%
%ADD128ROUNDEDRECTD128*%
G04:AMPARAMS|DCode=129|XSize=2.15mm|YSize=7.65mm|CornerRadius=0.1013mm|HoleSize=0mm|Usage=FLASHONLY|Rotation=90.000|XOffset=0mm|YOffset=0mm|HoleType=Round|Shape=RoundedRectangle|*
%AMROUNDEDRECTD129*
21,1,2.1500,7.4475,0,0,90.0*
21,1,1.9475,7.6500,0,0,90.0*
1,1,0.2025,3.7238,0.9738*
1,1,0.2025,3.7238,-0.9738*
1,1,0.2025,-3.7238,-0.9738*
1,1,0.2025,-3.7238,0.9738*
%
%ADD129ROUNDEDRECTD129*%
G04:AMPARAMS|DCode=130|XSize=0.5mm|YSize=0.35mm|CornerRadius=0.1125mm|HoleSize=0mm|Usage=FLASHONLY|Rotation=0.000|XOffset=0mm|YOffset=0mm|HoleType=Round|Shape=RoundedRectangle|*
%AMROUNDEDRECTD130*
21,1,0.5000,0.1250,0,0,0.0*
21,1,0.2750,0.3500,0,0,0.0*
1,1,0.2250,0.1375,-0.0625*
1,1,0.2250,-0.1375,-0.0625*
1,1,0.2250,-0.1375,0.0625*
1,1,0.2250,0.1375,0.0625*
%
%ADD130ROUNDEDRECTD130*%
G04:AMPARAMS|DCode=131|XSize=0.7mm|YSize=0.35mm|CornerRadius=0.1125mm|HoleSize=0mm|Usage=FLASHONLY|Rotation=270.000|XOffset=0mm|YOffset=0mm|HoleType=Round|Shape=RoundedRectangle|*
%AMROUNDEDRECTD131*
21,1,0.7000,0.1250,0,0,270.0*
21,1,0.4750,0.3500,0,0,270.0*
1,1,0.2250,-0.0625,-0.2375*
1,1,0.2250,-0.0625,0.2375*
1,1,0.2250,0.0625,0.2375*
1,1,0.2250,0.0625,-0.2375*
%
%ADD131ROUNDEDRECTD131*%
G04:AMPARAMS|DCode=132|XSize=0.7mm|YSize=0.35mm|CornerRadius=0.1125mm|HoleSize=0mm|Usage=FLASHONLY|Rotation=180.000|XOffset=0mm|YOffset=0mm|HoleType=Round|Shape=RoundedRectangle|*
%AMROUNDEDRECTD132*
21,1,0.7000,0.1250,0,0,180.0*
21,1,0.4750,0.3500,0,0,180.0*
1,1,0.2250,-0.2375,0.0625*
1,1,0.2250,0.2375,0.0625*
1,1,0.2250,0.2375,-0.0625*
1,1,0.2250,-0.2375,-0.0625*
%
%ADD132ROUNDEDRECTD132*%
G04:AMPARAMS|DCode=133|XSize=0.5mm|YSize=0.35mm|CornerRadius=0.1125mm|HoleSize=0mm|Usage=FLASHONLY|Rotation=90.000|XOffset=0mm|YOffset=0mm|HoleType=Round|Shape=RoundedRectangle|*
%AMROUNDEDRECTD133*
21,1,0.5000,0.1250,0,0,90.0*
21,1,0.2750,0.3500,0,0,90.0*
1,1,0.2250,0.0625,0.1375*
1,1,0.2250,0.0625,-0.1375*
1,1,0.2250,-0.0625,-0.1375*
1,1,0.2250,-0.0625,0.1375*
%
%ADD133ROUNDEDRECTD133*%
G04:AMPARAMS|DCode=134|XSize=0.4mm|YSize=0.4mm|CornerRadius=0.0875mm|HoleSize=0mm|Usage=FLASHONLY|Rotation=270.000|XOffset=0mm|YOffset=0mm|HoleType=Round|Shape=RoundedRectangle|*
%AMROUNDEDRECTD134*
21,1,0.4000,0.2250,0,0,270.0*
21,1,0.2250,0.4000,0,0,270.0*
1,1,0.1750,-0.1125,-0.1125*
1,1,0.1750,-0.1125,0.1125*
1,1,0.1750,0.1125,0.1125*
1,1,0.1750,0.1125,-0.1125*
%
%ADD134ROUNDEDRECTD134*%
G04:AMPARAMS|DCode=135|XSize=0.3mm|YSize=0.55mm|CornerRadius=0.075mm|HoleSize=0mm|Usage=FLASHONLY|Rotation=0.000|XOffset=0mm|YOffset=0mm|HoleType=Round|Shape=RoundedRectangle|*
%AMROUNDEDRECTD135*
21,1,0.3000,0.4000,0,0,0.0*
21,1,0.1500,0.5500,0,0,0.0*
1,1,0.1500,0.0750,-0.2000*
1,1,0.1500,-0.0750,-0.2000*
1,1,0.1500,-0.0750,0.2000*
1,1,0.1500,0.0750,0.2000*
%
%ADD135ROUNDEDRECTD135*%
G04:AMPARAMS|DCode=136|XSize=0.3mm|YSize=0.55mm|CornerRadius=0.075mm|HoleSize=0mm|Usage=FLASHONLY|Rotation=270.000|XOffset=0mm|YOffset=0mm|HoleType=Round|Shape=RoundedRectangle|*
%AMROUNDEDRECTD136*
21,1,0.3000,0.4000,0,0,270.0*
21,1,0.1500,0.5500,0,0,270.0*
1,1,0.1500,-0.2000,-0.0750*
1,1,0.1500,-0.2000,0.0750*
1,1,0.1500,0.2000,0.0750*
1,1,0.1500,0.2000,-0.0750*
%
%ADD136ROUNDEDRECTD136*%
G04:AMPARAMS|DCode=137|XSize=1.8mm|YSize=4.6mm|CornerRadius=0.0925mm|HoleSize=0mm|Usage=FLASHONLY|Rotation=270.000|XOffset=0mm|YOffset=0mm|HoleType=Round|Shape=RoundedRectangle|*
%AMROUNDEDRECTD137*
21,1,1.8000,4.4150,0,0,270.0*
21,1,1.6150,4.6000,0,0,270.0*
1,1,0.1850,-2.2075,-0.8075*
1,1,0.1850,-2.2075,0.8075*
1,1,0.1850,2.2075,0.8075*
1,1,0.1850,2.2075,-0.8075*
%
%ADD137ROUNDEDRECTD137*%
G04:AMPARAMS|DCode=138|XSize=0.77mm|YSize=0.4mm|CornerRadius=0.125mm|HoleSize=0mm|Usage=FLASHONLY|Rotation=180.000|XOffset=0mm|YOffset=0mm|HoleType=Round|Shape=RoundedRectangle|*
%AMROUNDEDRECTD138*
21,1,0.7700,0.1500,0,0,180.0*
21,1,0.5200,0.4000,0,0,180.0*
1,1,0.2500,-0.2600,0.0750*
1,1,0.2500,0.2600,0.0750*
1,1,0.2500,0.2600,-0.0750*
1,1,0.2500,-0.2600,-0.0750*
%
%ADD138ROUNDEDRECTD138*%
G04:AMPARAMS|DCode=139|XSize=0.55mm|YSize=1.15mm|CornerRadius=0.1063mm|HoleSize=0mm|Usage=FLASHONLY|Rotation=90.000|XOffset=0mm|YOffset=0mm|HoleType=Round|Shape=RoundedRectangle|*
%AMROUNDEDRECTD139*
21,1,0.5500,0.9375,0,0,90.0*
21,1,0.3375,1.1500,0,0,90.0*
1,1,0.2125,0.4688,0.1688*
1,1,0.2125,0.4688,-0.1688*
1,1,0.2125,-0.4688,-0.1688*
1,1,0.2125,-0.4688,0.1688*
%
%ADD139ROUNDEDRECTD139*%
%ADD140R,0.4000X1.4000*%
%ADD141R,1.9000X2.3000*%
G04:AMPARAMS|DCode=142|XSize=1.825mm|YSize=2.489mm|CornerRadius=0.0931mm|HoleSize=0mm|Usage=FLASHONLY|Rotation=270.000|XOffset=0mm|YOffset=0mm|HoleType=Round|Shape=RoundedRectangle|*
%AMROUNDEDRECTD142*
21,1,1.8250,2.3028,0,0,270.0*
21,1,1.6388,2.4890,0,0,270.0*
1,1,0.1863,-1.1514,-0.8194*
1,1,0.1863,-1.1514,0.8194*
1,1,0.1863,1.1514,0.8194*
1,1,0.1863,1.1514,-0.8194*
%
%ADD142ROUNDEDRECTD142*%
G04:AMPARAMS|DCode=143|XSize=1.09mm|YSize=0.505mm|CornerRadius=0.1006mm|HoleSize=0mm|Usage=FLASHONLY|Rotation=270.000|XOffset=0mm|YOffset=0mm|HoleType=Round|Shape=RoundedRectangle|*
%AMROUNDEDRECTD143*
21,1,1.0900,0.3038,0,0,270.0*
21,1,0.8888,0.5050,0,0,270.0*
1,1,0.2013,-0.1519,-0.4444*
1,1,0.2013,-0.1519,0.4444*
1,1,0.2013,0.1519,0.4444*
1,1,0.2013,0.1519,-0.4444*
%
%ADD143ROUNDEDRECTD143*%
G04:AMPARAMS|DCode=144|XSize=0.6001mm|YSize=0.7mm|CornerRadius=0.175mm|HoleSize=0mm|Usage=FLASHONLY|Rotation=180.000|XOffset=0mm|YOffset=0mm|HoleType=Round|Shape=RoundedRectangle|*
%AMROUNDEDRECTD144*
21,1,0.6001,0.3499,0,0,180.0*
21,1,0.2501,0.7000,0,0,180.0*
1,1,0.3501,-0.1250,0.1749*
1,1,0.3501,0.1250,0.1749*
1,1,0.3501,0.1250,-0.1749*
1,1,0.3501,-0.1250,-0.1749*
%
%ADD144ROUNDEDRECTD144*%
G04:AMPARAMS|DCode=145|XSize=0.5001mm|YSize=0.7mm|CornerRadius=0.15mm|HoleSize=0mm|Usage=FLASHONLY|Rotation=180.000|XOffset=0mm|YOffset=0mm|HoleType=Round|Shape=RoundedRectangle|*
%AMROUNDEDRECTD145*
21,1,0.5001,0.3999,0,0,180.0*
21,1,0.2000,0.7000,0,0,180.0*
1,1,0.3000,-0.1000,0.2000*
1,1,0.3000,0.1000,0.2000*
1,1,0.3000,0.1000,-0.2000*
1,1,0.3000,-0.1000,-0.2000*
%
%ADD145ROUNDEDRECTD145*%
G04:AMPARAMS|DCode=146|XSize=0.7mm|YSize=1.2mm|CornerRadius=0.125mm|HoleSize=0mm|Usage=FLASHONLY|Rotation=90.000|XOffset=0mm|YOffset=0mm|HoleType=Round|Shape=RoundedRectangle|*
%AMROUNDEDRECTD146*
21,1,0.7000,0.9500,0,0,90.0*
21,1,0.4500,1.2000,0,0,90.0*
1,1,0.2500,0.4750,0.2250*
1,1,0.2500,0.4750,-0.2250*
1,1,0.2500,-0.4750,-0.2250*
1,1,0.2500,-0.4750,0.2250*
%
%ADD146ROUNDEDRECTD146*%
G04:AMPARAMS|DCode=147|XSize=0.64mm|YSize=0.64mm|CornerRadius=0.1904mm|HoleSize=0mm|Usage=FLASHONLY|Rotation=180.000|XOffset=0mm|YOffset=0mm|HoleType=Round|Shape=RoundedRectangle|*
%AMROUNDEDRECTD147*
21,1,0.6400,0.2592,0,0,180.0*
21,1,0.2592,0.6400,0,0,180.0*
1,1,0.3808,-0.1296,0.1296*
1,1,0.3808,0.1296,0.1296*
1,1,0.3808,0.1296,-0.1296*
1,1,0.3808,-0.1296,-0.1296*
%
%ADD147ROUNDEDRECTD147*%
%ADD148R,0.7000X1.6500*%
%ADD149R,1.3000X1.9000*%
G04:AMPARAMS|DCode=150|XSize=0.3mm|YSize=0.775mm|CornerRadius=0.06mm|HoleSize=0mm|Usage=FLASHONLY|Rotation=180.000|XOffset=0mm|YOffset=0mm|HoleType=Round|Shape=RoundedRectangle|*
%AMROUNDEDRECTD150*
21,1,0.3000,0.6550,0,0,180.0*
21,1,0.1800,0.7750,0,0,180.0*
1,1,0.1200,-0.0900,0.3275*
1,1,0.1200,0.0900,0.3275*
1,1,0.1200,0.0900,-0.3275*
1,1,0.1200,-0.0900,-0.3275*
%
%ADD150ROUNDEDRECTD150*%
G04:AMPARAMS|DCode=151|XSize=0.5mm|YSize=1.004mm|CornerRadius=0.07mm|HoleSize=0mm|Usage=FLASHONLY|Rotation=180.000|XOffset=0mm|YOffset=0mm|HoleType=Round|Shape=RoundedRectangle|*
%AMROUNDEDRECTD151*
21,1,0.5000,0.8640,0,0,180.0*
21,1,0.3600,1.0040,0,0,180.0*
1,1,0.1400,-0.1800,0.4320*
1,1,0.1400,0.1800,0.4320*
1,1,0.1400,0.1800,-0.4320*
1,1,0.1400,-0.1800,-0.4320*
%
%ADD151ROUNDEDRECTD151*%
G04:AMPARAMS|DCode=152|XSize=0.5mm|YSize=1.0035mm|CornerRadius=0.07mm|HoleSize=0mm|Usage=FLASHONLY|Rotation=180.000|XOffset=0mm|YOffset=0mm|HoleType=Round|Shape=RoundedRectangle|*
%AMROUNDEDRECTD152*
21,1,0.5000,0.8635,0,0,180.0*
21,1,0.3600,1.0035,0,0,180.0*
1,1,0.1400,-0.1800,0.4318*
1,1,0.1400,0.1800,0.4318*
1,1,0.1400,0.1800,-0.4318*
1,1,0.1400,-0.1800,-0.4318*
%
%ADD152ROUNDEDRECTD152*%
G04:AMPARAMS|DCode=153|XSize=0.92mm|YSize=1.07mm|CornerRadius=0.2591mm|HoleSize=0mm|Usage=FLASHONLY|Rotation=270.000|XOffset=0mm|YOffset=0mm|HoleType=Round|Shape=RoundedRectangle|*
%AMROUNDEDRECTD153*
21,1,0.9200,0.5518,0,0,270.0*
21,1,0.4018,1.0700,0,0,270.0*
1,1,0.5182,-0.2759,-0.2009*
1,1,0.5182,-0.2759,0.2009*
1,1,0.5182,0.2759,0.2009*
1,1,0.5182,0.2759,-0.2009*
%
%ADD153ROUNDEDRECTD153*%
G04:AMPARAMS|DCode=154|XSize=0.3mm|YSize=1mm|CornerRadius=0.075mm|HoleSize=0mm|Usage=FLASHONLY|Rotation=180.000|XOffset=0mm|YOffset=0mm|HoleType=Round|Shape=RoundedRectangle|*
%AMROUNDEDRECTD154*
21,1,0.3000,0.8500,0,0,180.0*
21,1,0.1500,1.0000,0,0,180.0*
1,1,0.1500,-0.0750,0.4250*
1,1,0.1500,0.0750,0.4250*
1,1,0.1500,0.0750,-0.4250*
1,1,0.1500,-0.0750,-0.4250*
%
%ADD154ROUNDEDRECTD154*%
G04:AMPARAMS|DCode=155|XSize=0.3mm|YSize=1mm|CornerRadius=0.075mm|HoleSize=0mm|Usage=FLASHONLY|Rotation=270.000|XOffset=0mm|YOffset=0mm|HoleType=Round|Shape=RoundedRectangle|*
%AMROUNDEDRECTD155*
21,1,0.3000,0.8500,0,0,270.0*
21,1,0.1500,1.0000,0,0,270.0*
1,1,0.1500,-0.4250,-0.0750*
1,1,0.1500,-0.4250,0.0750*
1,1,0.1500,0.4250,0.0750*
1,1,0.1500,0.4250,-0.0750*
%
%ADD155ROUNDEDRECTD155*%
G04:AMPARAMS|DCode=156|XSize=3.7mm|YSize=3.7mm|CornerRadius=0.14mm|HoleSize=0mm|Usage=FLASHONLY|Rotation=180.000|XOffset=0mm|YOffset=0mm|HoleType=Round|Shape=RoundedRectangle|*
%AMROUNDEDRECTD156*
21,1,3.7000,3.4200,0,0,180.0*
21,1,3.4200,3.7000,0,0,180.0*
1,1,0.2800,-1.7100,1.7100*
1,1,0.2800,1.7100,1.7100*
1,1,0.2800,1.7100,-1.7100*
1,1,0.2800,-1.7100,-1.7100*
%
%ADD156ROUNDEDRECTD156*%
%ADD157R,2.3000X3.6000*%
%ADD158R,0.4500X0.3000*%
%ADD159R,0.3000X0.4500*%
%ADD160R,6.0500X0.2500*%
%ADD161R,0.2500X6.0500*%
%ADD162R,1.1000X1.1000*%
%ADD163R,1.1000X1.1000*%
G04:AMPARAMS|DCode=164|XSize=0.35mm|YSize=0.9mm|CornerRadius=0.0813mm|HoleSize=0mm|Usage=FLASHONLY|Rotation=0.000|XOffset=0mm|YOffset=0mm|HoleType=Round|Shape=RoundedRectangle|*
%AMROUNDEDRECTD164*
21,1,0.3500,0.7375,0,0,0.0*
21,1,0.1875,0.9000,0,0,0.0*
1,1,0.1625,0.0938,-0.3688*
1,1,0.1625,-0.0938,-0.3688*
1,1,0.1625,-0.0938,0.3688*
1,1,0.1625,0.0938,0.3688*
%
%ADD164ROUNDEDRECTD164*%
G04:AMPARAMS|DCode=165|XSize=0.3mm|YSize=0.8mm|CornerRadius=0.075mm|HoleSize=0mm|Usage=FLASHONLY|Rotation=0.000|XOffset=0mm|YOffset=0mm|HoleType=Round|Shape=RoundedRectangle|*
%AMROUNDEDRECTD165*
21,1,0.3000,0.6500,0,0,0.0*
21,1,0.1500,0.8000,0,0,0.0*
1,1,0.1500,0.0750,-0.3250*
1,1,0.1500,-0.0750,-0.3250*
1,1,0.1500,-0.0750,0.3250*
1,1,0.1500,0.0750,0.3250*
%
%ADD165ROUNDEDRECTD165*%
G04:AMPARAMS|DCode=166|XSize=0.3mm|YSize=0.8mm|CornerRadius=0.075mm|HoleSize=0mm|Usage=FLASHONLY|Rotation=90.000|XOffset=0mm|YOffset=0mm|HoleType=Round|Shape=RoundedRectangle|*
%AMROUNDEDRECTD166*
21,1,0.3000,0.6500,0,0,90.0*
21,1,0.1500,0.8000,0,0,90.0*
1,1,0.1500,0.3250,0.0750*
1,1,0.1500,0.3250,-0.0750*
1,1,0.1500,-0.3250,-0.0750*
1,1,0.1500,-0.3250,0.0750*
%
%ADD166ROUNDEDRECTD166*%
%ADD167R,0.4000X1.0000*%
%ADD168R,0.4000X1.3000*%
%ADD169R,2.4000X0.3500*%
%ADD170R,1.1500X0.3500*%
%ADD171R,0.3500X1.2500*%
%ADD172R,1.6500X0.4000*%
%ADD173R,2.8500X1.3000*%
G04:AMPARAMS|DCode=174|XSize=0.82mm|YSize=0.97mm|CornerRadius=0.23mm|HoleSize=0mm|Usage=FLASHONLY|Rotation=180.000|XOffset=0mm|YOffset=0mm|HoleType=Round|Shape=RoundedRectangle|*
%AMROUNDEDRECTD174*
21,1,0.8200,0.5100,0,0,180.0*
21,1,0.3600,0.9700,0,0,180.0*
1,1,0.4600,-0.1800,0.2550*
1,1,0.4600,0.1800,0.2550*
1,1,0.4600,0.1800,-0.2550*
1,1,0.4600,-0.1800,-0.2550*
%
%ADD174ROUNDEDRECTD174*%
G04:AMPARAMS|DCode=175|XSize=2.1mm|YSize=0.9mm|CornerRadius=0.09mm|HoleSize=0mm|Usage=FLASHONLY|Rotation=270.000|XOffset=0mm|YOffset=0mm|HoleType=Round|Shape=RoundedRectangle|*
%AMROUNDEDRECTD175*
21,1,2.1000,0.7200,0,0,270.0*
21,1,1.9200,0.9000,0,0,270.0*
1,1,0.1800,-0.3600,-0.9600*
1,1,0.1800,-0.3600,0.9600*
1,1,0.1800,0.3600,0.9600*
1,1,0.1800,0.3600,-0.9600*
%
%ADD175ROUNDEDRECTD175*%
%ADD176R,0.7300X0.3300*%
%ADD177R,0.7300X0.3500*%
%ADD178R,1.2000X5.7000*%
%ADD179R,1.8000X3.2000*%
%ADD180C,0.3400*%
G04:AMPARAMS|DCode=181|XSize=0.8mm|YSize=0.35mm|CornerRadius=0.0813mm|HoleSize=0mm|Usage=FLASHONLY|Rotation=0.000|XOffset=0mm|YOffset=0mm|HoleType=Round|Shape=RoundedRectangle|*
%AMROUNDEDRECTD181*
21,1,0.8000,0.1875,0,0,0.0*
21,1,0.6375,0.3500,0,0,0.0*
1,1,0.1625,0.3188,-0.0938*
1,1,0.1625,-0.3188,-0.0938*
1,1,0.1625,-0.3188,0.0938*
1,1,0.1625,0.3188,0.0938*
%
%ADD181ROUNDEDRECTD181*%
G04:AMPARAMS|DCode=182|XSize=1.45mm|YSize=1.75mm|CornerRadius=0.0838mm|HoleSize=0mm|Usage=FLASHONLY|Rotation=90.000|XOffset=0mm|YOffset=0mm|HoleType=Round|Shape=RoundedRectangle|*
%AMROUNDEDRECTD182*
21,1,1.4500,1.5825,0,0,90.0*
21,1,1.2825,1.7500,0,0,90.0*
1,1,0.1675,0.7913,0.6413*
1,1,0.1675,0.7913,-0.6413*
1,1,0.1675,-0.7913,-0.6413*
1,1,0.1675,-0.7913,0.6413*
%
%ADD182ROUNDEDRECTD182*%
%ADD183R,2.6400X1.3700*%
%ADD184R,1.1200X3.1000*%
%ADD185R,3.1000X1.1200*%
G04:AMPARAMS|DCode=186|XSize=0.41mm|YSize=0.44mm|CornerRadius=0.1306mm|HoleSize=0mm|Usage=FLASHONLY|Rotation=180.000|XOffset=0mm|YOffset=0mm|HoleType=Round|Shape=RoundedRectangle|*
%AMROUNDEDRECTD186*
21,1,0.4100,0.1788,0,0,180.0*
21,1,0.1488,0.4400,0,0,180.0*
1,1,0.2612,-0.0744,0.0894*
1,1,0.2612,0.0744,0.0894*
1,1,0.2612,0.0744,-0.0894*
1,1,0.2612,-0.0744,-0.0894*
%
%ADD186ROUNDEDRECTD186*%
G04:AMPARAMS|DCode=187|XSize=0.41mm|YSize=0.44mm|CornerRadius=0.1306mm|HoleSize=0mm|Usage=FLASHONLY|Rotation=90.000|XOffset=0mm|YOffset=0mm|HoleType=Round|Shape=RoundedRectangle|*
%AMROUNDEDRECTD187*
21,1,0.4100,0.1788,0,0,90.0*
21,1,0.1488,0.4400,0,0,90.0*
1,1,0.2612,0.0894,0.0744*
1,1,0.2612,0.0894,-0.0744*
1,1,0.2612,-0.0894,-0.0744*
1,1,0.2612,-0.0894,0.0744*
%
%ADD187ROUNDEDRECTD187*%
G04:AMPARAMS|DCode=188|XSize=0.82mm|YSize=0.97mm|CornerRadius=0.23mm|HoleSize=0mm|Usage=FLASHONLY|Rotation=225.000|XOffset=0mm|YOffset=0mm|HoleType=Round|Shape=RoundedRectangle|*
%AMROUNDEDRECTD188*
21,1,0.8200,0.5100,0,0,225.0*
21,1,0.3600,0.9700,0,0,225.0*
1,1,0.4600,-0.3076,0.0530*
1,1,0.4600,-0.0530,0.3076*
1,1,0.4600,0.3076,-0.0530*
1,1,0.4600,0.0530,-0.3076*
%
%ADD188ROUNDEDRECTD188*%
G04:AMPARAMS|DCode=189|XSize=0.65mm|YSize=0.68mm|CornerRadius=0.1903mm|HoleSize=0mm|Usage=FLASHONLY|Rotation=180.000|XOffset=0mm|YOffset=0mm|HoleType=Round|Shape=RoundedRectangle|*
%AMROUNDEDRECTD189*
21,1,0.6500,0.2995,0,0,180.0*
21,1,0.2695,0.6800,0,0,180.0*
1,1,0.3805,-0.1348,0.1498*
1,1,0.3805,0.1348,0.1498*
1,1,0.3805,0.1348,-0.1498*
1,1,0.3805,-0.1348,-0.1498*
%
%ADD189ROUNDEDRECTD189*%
G04:AMPARAMS|DCode=190|XSize=1.4mm|YSize=1.2001mm|CornerRadius=0.105mm|HoleSize=0mm|Usage=FLASHONLY|Rotation=180.000|XOffset=0mm|YOffset=0mm|HoleType=Round|Shape=RoundedRectangle|*
%AMROUNDEDRECTD190*
21,1,1.4000,0.9901,0,0,180.0*
21,1,1.1900,1.2001,0,0,180.0*
1,1,0.2100,-0.5950,0.4950*
1,1,0.2100,0.5950,0.4950*
1,1,0.2100,0.5950,-0.4950*
1,1,0.2100,-0.5950,-0.4950*
%
%ADD190ROUNDEDRECTD190*%
G04:AMPARAMS|DCode=191|XSize=0.3mm|YSize=0.775mm|CornerRadius=0.06mm|HoleSize=0mm|Usage=FLASHONLY|Rotation=90.000|XOffset=0mm|YOffset=0mm|HoleType=Round|Shape=RoundedRectangle|*
%AMROUNDEDRECTD191*
21,1,0.3000,0.6550,0,0,90.0*
21,1,0.1800,0.7750,0,0,90.0*
1,1,0.1200,0.3275,0.0900*
1,1,0.1200,0.3275,-0.0900*
1,1,0.1200,-0.3275,-0.0900*
1,1,0.1200,-0.3275,0.0900*
%
%ADD191ROUNDEDRECTD191*%
G04:AMPARAMS|DCode=192|XSize=0.5mm|YSize=1.0035mm|CornerRadius=0.07mm|HoleSize=0mm|Usage=FLASHONLY|Rotation=270.000|XOffset=0mm|YOffset=0mm|HoleType=Round|Shape=RoundedRectangle|*
%AMROUNDEDRECTD192*
21,1,0.5000,0.8635,0,0,270.0*
21,1,0.3600,1.0035,0,0,270.0*
1,1,0.1400,-0.4318,-0.1800*
1,1,0.1400,-0.4318,0.1800*
1,1,0.1400,0.4318,0.1800*
1,1,0.1400,0.4318,-0.1800*
%
%ADD192ROUNDEDRECTD192*%
G04:AMPARAMS|DCode=193|XSize=0.5mm|YSize=1.004mm|CornerRadius=0.07mm|HoleSize=0mm|Usage=FLASHONLY|Rotation=270.000|XOffset=0mm|YOffset=0mm|HoleType=Round|Shape=RoundedRectangle|*
%AMROUNDEDRECTD193*
21,1,0.5000,0.8640,0,0,270.0*
21,1,0.3600,1.0040,0,0,270.0*
1,1,0.1400,-0.4320,-0.1800*
1,1,0.1400,-0.4320,0.1800*
1,1,0.1400,0.4320,0.1800*
1,1,0.1400,0.4320,-0.1800*
%
%ADD193ROUNDEDRECTD193*%
G04:AMPARAMS|DCode=194|XSize=1.21mm|YSize=1.57mm|CornerRadius=0.2998mm|HoleSize=0mm|Usage=FLASHONLY|Rotation=270.000|XOffset=0mm|YOffset=0mm|HoleType=Round|Shape=RoundedRectangle|*
%AMROUNDEDRECTD194*
21,1,1.2100,0.9705,0,0,270.0*
21,1,0.6105,1.5700,0,0,270.0*
1,1,0.5995,-0.4853,-0.3053*
1,1,0.5995,-0.4853,0.3053*
1,1,0.5995,0.4853,0.3053*
1,1,0.5995,0.4853,-0.3053*
%
%ADD194ROUNDEDRECTD194*%
G04:AMPARAMS|DCode=195|XSize=1.21mm|YSize=1.57mm|CornerRadius=0.2998mm|HoleSize=0mm|Usage=FLASHONLY|Rotation=0.000|XOffset=0mm|YOffset=0mm|HoleType=Round|Shape=RoundedRectangle|*
%AMROUNDEDRECTD195*
21,1,1.2100,0.9705,0,0,0.0*
21,1,0.6105,1.5700,0,0,0.0*
1,1,0.5995,0.3053,-0.4853*
1,1,0.5995,-0.3053,-0.4853*
1,1,0.5995,-0.3053,0.4853*
1,1,0.5995,0.3053,0.4853*
%
%ADD195ROUNDEDRECTD195*%
G04:AMPARAMS|DCode=196|XSize=0.73mm|YSize=0.68mm|CornerRadius=0.2008mm|HoleSize=0mm|Usage=FLASHONLY|Rotation=180.000|XOffset=0mm|YOffset=0mm|HoleType=Round|Shape=RoundedRectangle|*
%AMROUNDEDRECTD196*
21,1,0.7300,0.2784,0,0,180.0*
21,1,0.3284,0.6800,0,0,180.0*
1,1,0.4016,-0.1642,0.1392*
1,1,0.4016,0.1642,0.1392*
1,1,0.4016,0.1642,-0.1392*
1,1,0.4016,-0.1642,-0.1392*
%
%ADD196ROUNDEDRECTD196*%
G04:AMPARAMS|DCode=197|XSize=0.73mm|YSize=0.68mm|CornerRadius=0.2008mm|HoleSize=0mm|Usage=FLASHONLY|Rotation=90.000|XOffset=0mm|YOffset=0mm|HoleType=Round|Shape=RoundedRectangle|*
%AMROUNDEDRECTD197*
21,1,0.7300,0.2784,0,0,90.0*
21,1,0.3284,0.6800,0,0,90.0*
1,1,0.4016,0.1392,0.1642*
1,1,0.4016,0.1392,-0.1642*
1,1,0.4016,-0.1392,-0.1642*
1,1,0.4016,-0.1392,0.1642*
%
%ADD197ROUNDEDRECTD197*%
%ADD198R,1.5000X3.4000*%
G04:AMPARAMS|DCode=199|XSize=2.1mm|YSize=0.9mm|CornerRadius=0.09mm|HoleSize=0mm|Usage=FLASHONLY|Rotation=180.000|XOffset=0mm|YOffset=0mm|HoleType=Round|Shape=RoundedRectangle|*
%AMROUNDEDRECTD199*
21,1,2.1000,0.7200,0,0,180.0*
21,1,1.9200,0.9000,0,0,180.0*
1,1,0.1800,-0.9600,0.3600*
1,1,0.1800,0.9600,0.3600*
1,1,0.1800,0.9600,-0.3600*
1,1,0.1800,-0.9600,-0.3600*
%
%ADD199ROUNDEDRECTD199*%
G04:AMPARAMS|DCode=200|XSize=0.65mm|YSize=0.68mm|CornerRadius=0.1903mm|HoleSize=0mm|Usage=FLASHONLY|Rotation=90.000|XOffset=0mm|YOffset=0mm|HoleType=Round|Shape=RoundedRectangle|*
%AMROUNDEDRECTD200*
21,1,0.6500,0.2995,0,0,90.0*
21,1,0.2695,0.6800,0,0,90.0*
1,1,0.3805,0.1498,0.1348*
1,1,0.3805,0.1498,-0.1348*
1,1,0.3805,-0.1498,-0.1348*
1,1,0.3805,-0.1498,0.1348*
%
%ADD200ROUNDEDRECTD200*%
G04:AMPARAMS|DCode=201|XSize=1.09mm|YSize=1.57mm|CornerRadius=0.3025mm|HoleSize=0mm|Usage=FLASHONLY|Rotation=0.000|XOffset=0mm|YOffset=0mm|HoleType=Round|Shape=RoundedRectangle|*
%AMROUNDEDRECTD201*
21,1,1.0900,0.9651,0,0,0.0*
21,1,0.4851,1.5700,0,0,0.0*
1,1,0.6049,0.2426,-0.4826*
1,1,0.6049,-0.2426,-0.4826*
1,1,0.6049,-0.2426,0.4826*
1,1,0.6049,0.2426,0.4826*
%
%ADD201ROUNDEDRECTD201*%
G04:AMPARAMS|DCode=202|XSize=0.92mm|YSize=1.07mm|CornerRadius=0.2591mm|HoleSize=0mm|Usage=FLASHONLY|Rotation=0.000|XOffset=0mm|YOffset=0mm|HoleType=Round|Shape=RoundedRectangle|*
%AMROUNDEDRECTD202*
21,1,0.9200,0.5518,0,0,0.0*
21,1,0.4018,1.0700,0,0,0.0*
1,1,0.5182,0.2009,-0.2759*
1,1,0.5182,-0.2009,-0.2759*
1,1,0.5182,-0.2009,0.2759*
1,1,0.5182,0.2009,0.2759*
%
%ADD202ROUNDEDRECTD202*%
G04:AMPARAMS|DCode=203|XSize=1.09mm|YSize=1.57mm|CornerRadius=0.3025mm|HoleSize=0mm|Usage=FLASHONLY|Rotation=270.000|XOffset=0mm|YOffset=0mm|HoleType=Round|Shape=RoundedRectangle|*
%AMROUNDEDRECTD203*
21,1,1.0900,0.9651,0,0,270.0*
21,1,0.4851,1.5700,0,0,270.0*
1,1,0.6049,-0.4826,-0.2426*
1,1,0.6049,-0.4826,0.2426*
1,1,0.6049,0.4826,0.2426*
1,1,0.6049,0.4826,-0.2426*
%
%ADD203ROUNDEDRECTD203*%
G04:AMPARAMS|DCode=204|XSize=0.34mm|YSize=0.7mm|CornerRadius=0.08mm|HoleSize=0mm|Usage=FLASHONLY|Rotation=0.000|XOffset=0mm|YOffset=0mm|HoleType=Round|Shape=RoundedRectangle|*
%AMROUNDEDRECTD204*
21,1,0.3400,0.5400,0,0,0.0*
21,1,0.1800,0.7000,0,0,0.0*
1,1,0.1600,0.0900,-0.2700*
1,1,0.1600,-0.0900,-0.2700*
1,1,0.1600,-0.0900,0.2700*
1,1,0.1600,0.0900,0.2700*
%
%ADD204ROUNDEDRECTD204*%
G04:AMPARAMS|DCode=205|XSize=0.34mm|YSize=0.7mm|CornerRadius=0.08mm|HoleSize=0mm|Usage=FLASHONLY|Rotation=270.000|XOffset=0mm|YOffset=0mm|HoleType=Round|Shape=RoundedRectangle|*
%AMROUNDEDRECTD205*
21,1,0.3400,0.5400,0,0,270.0*
21,1,0.1800,0.7000,0,0,270.0*
1,1,0.1600,-0.2700,-0.0900*
1,1,0.1600,-0.2700,0.0900*
1,1,0.1600,0.2700,0.0900*
1,1,0.1600,0.2700,-0.0900*
%
%ADD205ROUNDEDRECTD205*%
G04:AMPARAMS|DCode=206|XSize=1.1mm|YSize=3.1mm|CornerRadius=0.075mm|HoleSize=0mm|Usage=FLASHONLY|Rotation=270.000|XOffset=0mm|YOffset=0mm|HoleType=Round|Shape=RoundedRectangle|*
%AMROUNDEDRECTD206*
21,1,1.1000,2.9500,0,0,270.0*
21,1,0.9500,3.1000,0,0,270.0*
1,1,0.1500,-1.4750,-0.4750*
1,1,0.1500,-1.4750,0.4750*
1,1,0.1500,1.4750,0.4750*
1,1,0.1500,1.4750,-0.4750*
%
%ADD206ROUNDEDRECTD206*%
G04:AMPARAMS|DCode=207|XSize=0.35mm|YSize=0.9mm|CornerRadius=0.0813mm|HoleSize=0mm|Usage=FLASHONLY|Rotation=270.000|XOffset=0mm|YOffset=0mm|HoleType=Round|Shape=RoundedRectangle|*
%AMROUNDEDRECTD207*
21,1,0.3500,0.7375,0,0,270.0*
21,1,0.1875,0.9000,0,0,270.0*
1,1,0.1625,-0.3688,-0.0938*
1,1,0.1625,-0.3688,0.0938*
1,1,0.1625,0.3688,0.0938*
1,1,0.1625,0.3688,-0.0938*
%
%ADD207ROUNDEDRECTD207*%
%ADD208R,0.3600X0.3500*%
%ADD209R,0.3500X0.3600*%
G04:AMPARAMS|DCode=210|XSize=0.41mm|YSize=0.44mm|CornerRadius=0.1306mm|HoleSize=0mm|Usage=FLASHONLY|Rotation=315.000|XOffset=0mm|YOffset=0mm|HoleType=Round|Shape=RoundedRectangle|*
%AMROUNDEDRECTD210*
21,1,0.4100,0.1788,0,0,315.0*
21,1,0.1488,0.4400,0,0,315.0*
1,1,0.2612,-0.0106,-0.1158*
1,1,0.2612,-0.1158,-0.0106*
1,1,0.2612,0.0106,0.1158*
1,1,0.2612,0.1158,0.0106*
%
%ADD210ROUNDEDRECTD210*%
%ADD211C,2.0000*%
G04:AMPARAMS|DCode=212|XSize=0.77mm|YSize=0.4mm|CornerRadius=0.125mm|HoleSize=0mm|Usage=FLASHONLY|Rotation=270.000|XOffset=0mm|YOffset=0mm|HoleType=Round|Shape=RoundedRectangle|*
%AMROUNDEDRECTD212*
21,1,0.7700,0.1500,0,0,270.0*
21,1,0.5200,0.4000,0,0,270.0*
1,1,0.2500,-0.0750,-0.2600*
1,1,0.2500,-0.0750,0.2600*
1,1,0.2500,0.0750,0.2600*
1,1,0.2500,0.0750,-0.2600*
%
%ADD212ROUNDEDRECTD212*%
G04:AMPARAMS|DCode=213|XSize=1.1mm|YSize=1.1mm|CornerRadius=0.55mm|HoleSize=0mm|Usage=FLASHONLY|Rotation=180.000|XOffset=0mm|YOffset=0mm|HoleType=Round|Shape=RoundedRectangle|*
%AMROUNDEDRECTD213*
21,1,1.1000,0.0000,0,0,180.0*
21,1,0.0000,1.1000,0,0,180.0*
1,1,1.1000,0.0000,0.0000*
1,1,1.1000,0.0000,0.0000*
1,1,1.1000,0.0000,0.0000*
1,1,1.1000,0.0000,0.0000*
%
%ADD213ROUNDEDRECTD213*%
%ADD214C,2.2000*%
%ADD215C,1.9000*%
%ADD216C,2.3000*%
%ADD217C,2.6000*%
%ADD218C,0.6000*%
%ADD219O,2.4000X5.2000*%
%ADD220O,2.3000X4.8000*%
%ADD221O,4.8000X2.6000*%
%ADD222C,0.1000*%
%ADD223O,2.3000X1.3000*%
%ADD224C,6.2000*%
%ADD225C,5.5000*%
%ADD226C,1.4000*%
%ADD227O,3.8000X1.5000*%
%ADD228C,1.5224*%
%ADD229C,1.0000*%
%ADD230C,1.4500*%
%ADD231O,3.3000X1.5000*%
%ADD232C,5.6000*%
G36*
X121917Y115616D02*
X123737Y114862D01*
X125375Y113767D01*
X126768Y112375D01*
X127862Y110737D01*
X128616Y108917D01*
X129000Y106985D01*
Y106000D01*
Y105015D01*
X128616Y103083D01*
X127862Y101263D01*
X126768Y99625D01*
X125375Y98232D01*
X123737Y97138D01*
X121917Y96384D01*
X119985Y96000D01*
X118015D01*
X116083Y96384D01*
X114263Y97138D01*
X112625Y98232D01*
X111233Y99625D01*
X110138Y101263D01*
X109384Y103083D01*
X109000Y105015D01*
Y106000D01*
Y106985D01*
X109384Y108917D01*
X110138Y110737D01*
X111233Y112375D01*
X112625Y113767D01*
X114263Y114862D01*
X116083Y115616D01*
X118015Y116000D01*
X119985D01*
X121917Y115616D01*
D02*
G37*
G36*
X355505Y239729D02*
X355599Y239700D01*
X355686Y239654D01*
X355762Y239591D01*
X355825Y239515D01*
X355871Y239428D01*
X355900Y239334D01*
X355909Y239236D01*
Y237236D01*
X355900Y237138D01*
X355871Y237044D01*
X355825Y236957D01*
X355762Y236881D01*
X355686Y236818D01*
X355599Y236772D01*
X355505Y236743D01*
X355407Y236733D01*
X349369D01*
X349369Y236733D01*
X349280Y236742D01*
X349271Y236743D01*
X349177Y236772D01*
X349090Y236818D01*
X349048Y236852D01*
X349014Y236881D01*
X349014Y236881D01*
X348051Y237843D01*
X347989Y237919D01*
X347943Y238006D01*
X347936Y238028D01*
X347914Y238100D01*
X347909Y238149D01*
X347904Y238198D01*
X347904Y238199D01*
Y239236D01*
X347914Y239334D01*
X347943Y239428D01*
X347989Y239515D01*
X348051Y239591D01*
X348128Y239654D01*
X348214Y239700D01*
X348309Y239729D01*
X348407Y239738D01*
X355407D01*
X355505Y239729D01*
D02*
G37*
G36*
X731658Y223583D02*
X731752Y223554D01*
X731839Y223508D01*
X731915Y223445D01*
X731978Y223369D01*
X732024Y223282D01*
X732053Y223188D01*
X732062Y223090D01*
Y215327D01*
X732053Y215229D01*
X732024Y215135D01*
X731978Y215048D01*
X731915Y214972D01*
X731915Y214972D01*
X730678Y213735D01*
X730602Y213672D01*
X730515Y213626D01*
X730493Y213619D01*
X730421Y213597D01*
X730372Y213592D01*
X730323Y213587D01*
X730323Y213588D01*
X729060D01*
X728962Y213597D01*
X728868Y213626D01*
X728781Y213672D01*
X728705Y213735D01*
X728642Y213811D01*
X728596Y213898D01*
X728567Y213992D01*
X728558Y214090D01*
Y223090D01*
X728567Y223188D01*
X728596Y223282D01*
X728642Y223369D01*
X728705Y223445D01*
X728781Y223508D01*
X728868Y223554D01*
X728962Y223583D01*
X729060Y223592D01*
X731560D01*
X731658Y223583D01*
D02*
G37*
G36*
X119776Y720853D02*
X119870Y720825D01*
X119957Y720778D01*
X120033Y720716D01*
X120096Y720640D01*
X120142Y720553D01*
X120171Y720459D01*
X120181Y720360D01*
Y714323D01*
X120181Y714323D01*
X120172Y714234D01*
X120171Y714225D01*
X120142Y714131D01*
X120096Y714044D01*
X120062Y714002D01*
X120033Y713968D01*
X120033Y713968D01*
X119071Y713005D01*
X118995Y712943D01*
X118908Y712896D01*
X118886Y712890D01*
X118814Y712868D01*
X118765Y712863D01*
X118716Y712858D01*
X118715Y712858D01*
X117678D01*
X117580Y712868D01*
X117486Y712896D01*
X117399Y712943D01*
X117323Y713005D01*
X117260Y713081D01*
X117214Y713168D01*
X117185Y713262D01*
X117176Y713360D01*
Y720360D01*
X117185Y720459D01*
X117214Y720553D01*
X117260Y720640D01*
X117323Y720716D01*
X117399Y720778D01*
X117486Y720825D01*
X117580Y720853D01*
X117678Y720863D01*
X119678D01*
X119776Y720853D01*
D02*
G37*
G36*
X128276Y778655D02*
X128371Y778626D01*
X128457Y778580D01*
X128533Y778518D01*
X128596Y778441D01*
X128642Y778355D01*
X128671Y778260D01*
X128681Y778162D01*
Y775662D01*
X128671Y775564D01*
X128642Y775470D01*
X128596Y775383D01*
X128533Y775307D01*
X128457Y775245D01*
X128371Y775198D01*
X128276Y775170D01*
X128178Y775160D01*
X120415D01*
X120317Y775170D01*
X120223Y775198D01*
X120136Y775245D01*
X120060Y775307D01*
X120060Y775307D01*
X118823Y776544D01*
X118760Y776620D01*
X118714Y776707D01*
X118707Y776729D01*
X118685Y776801D01*
X118681Y776850D01*
X118676Y776899D01*
X118676Y776899D01*
Y778162D01*
X118685Y778260D01*
X118714Y778355D01*
X118760Y778441D01*
X118823Y778518D01*
X118899Y778580D01*
X118986Y778626D01*
X119080Y778655D01*
X119178Y778665D01*
X128178D01*
X128276Y778655D01*
D02*
G37*
G36*
X773512Y356483D02*
X773607Y356454D01*
X773694Y356408D01*
X773770Y356345D01*
X773832Y356269D01*
X773879Y356182D01*
X773907Y356088D01*
X773917Y355990D01*
X773917Y304990D01*
X773907Y304892D01*
X773885Y304820D01*
X773879Y304798D01*
X773832Y304711D01*
X773770Y304635D01*
X773770Y304635D01*
X769770Y300635D01*
X769694Y300572D01*
X769607Y300526D01*
X769585Y300519D01*
X769512Y300497D01*
X769464Y300493D01*
X769415Y300488D01*
X769414Y300488D01*
X718415Y300488D01*
X718316Y300497D01*
X718222Y300526D01*
X718135Y300572D01*
X718059Y300635D01*
X717997Y300711D01*
X717950Y300798D01*
X717922Y300892D01*
X717912Y300990D01*
Y355990D01*
X717922Y356088D01*
X717950Y356182D01*
X717997Y356269D01*
X718059Y356345D01*
X718135Y356408D01*
X718222Y356454D01*
X718316Y356483D01*
X718415Y356493D01*
X773415D01*
X773512Y356483D01*
D02*
G37*
G36*
X32777Y795684D02*
X32786Y795683D01*
X32880Y795654D01*
X32967Y795608D01*
X33009Y795573D01*
X33043Y795545D01*
X33043Y795545D01*
X34005Y794583D01*
X34068Y794507D01*
X34114Y794420D01*
X34121Y794398D01*
X34143Y794326D01*
X34148Y794277D01*
X34153Y794228D01*
X34153Y794227D01*
Y793190D01*
X34143Y793092D01*
X34114Y792998D01*
X34068Y792911D01*
X34005Y792835D01*
X33929Y792772D01*
X33842Y792726D01*
X33748Y792697D01*
X33650Y792688D01*
X26650D01*
X26552Y792697D01*
X26458Y792726D01*
X26371Y792772D01*
X26295Y792835D01*
X26232Y792911D01*
X26186Y792998D01*
X26157Y793092D01*
X26148Y793190D01*
Y795190D01*
X26157Y795288D01*
X26186Y795382D01*
X26232Y795469D01*
X26295Y795545D01*
X26371Y795608D01*
X26458Y795654D01*
X26552Y795683D01*
X26650Y795692D01*
X32687D01*
X32688Y795692D01*
X32777Y795684D01*
D02*
G37*
G36*
X43632Y916148D02*
X43727Y916120D01*
X43814Y916073D01*
X43855Y916039D01*
X43890Y916011D01*
X43890Y916011D01*
X45605Y914295D01*
X45605Y914295D01*
X45634Y914260D01*
X45668Y914219D01*
X45714Y914132D01*
X45743Y914038D01*
X45744Y914029D01*
X45753Y913940D01*
X45753Y913939D01*
Y906655D01*
X45743Y906557D01*
X45714Y906463D01*
X45668Y906376D01*
X45605Y906300D01*
X45529Y906238D01*
X45442Y906191D01*
X45348Y906163D01*
X45250Y906153D01*
X42500D01*
X42402Y906163D01*
X42308Y906191D01*
X42221Y906238D01*
X42145Y906300D01*
X42082Y906376D01*
X42036Y906463D01*
X42007Y906557D01*
X41998Y906655D01*
Y911153D01*
X32000D01*
X31902Y911163D01*
X31808Y911191D01*
X31721Y911238D01*
X31645Y911300D01*
X31582Y911376D01*
X31536Y911463D01*
X31507Y911557D01*
X31498Y911655D01*
Y915655D01*
X31507Y915753D01*
X31536Y915848D01*
X31582Y915935D01*
X31645Y916011D01*
X31721Y916073D01*
X31808Y916120D01*
X31902Y916148D01*
X32000Y916158D01*
X43534D01*
X43534Y916158D01*
X43632Y916148D01*
D02*
G37*
G36*
X88098Y919148D02*
X88192Y919119D01*
X88279Y919073D01*
X88355Y919011D01*
X88418Y918934D01*
X88464Y918848D01*
X88493Y918753D01*
X88503Y918655D01*
Y913655D01*
X88493Y913557D01*
X88464Y913463D01*
X88418Y913376D01*
X88355Y913300D01*
X88279Y913238D01*
X88192Y913191D01*
X88098Y913163D01*
X88000Y913153D01*
X83003D01*
Y911655D01*
X82993Y911557D01*
X82964Y911463D01*
X82918Y911376D01*
X82855Y911300D01*
X82779Y911238D01*
X82692Y911191D01*
X82598Y911163D01*
X82500Y911153D01*
X78253D01*
Y906655D01*
X78243Y906557D01*
X78214Y906463D01*
X78168Y906376D01*
X78105Y906300D01*
X78029Y906238D01*
X77942Y906191D01*
X77848Y906163D01*
X77750Y906153D01*
X74750D01*
X74652Y906163D01*
X74558Y906191D01*
X74471Y906238D01*
X74395Y906300D01*
X74332Y906376D01*
X74286Y906463D01*
X74257Y906557D01*
X74248Y906655D01*
Y918655D01*
X74257Y918753D01*
X74286Y918848D01*
X74332Y918934D01*
X74395Y919011D01*
X74471Y919073D01*
X74558Y919119D01*
X74652Y919148D01*
X74750Y919158D01*
X88000D01*
X88098Y919148D01*
D02*
G37*
G36*
X45348Y953148D02*
X45442Y953120D01*
X45529Y953073D01*
X45605Y953011D01*
X45668Y952934D01*
X45714Y952848D01*
X45743Y952753D01*
X45753Y952655D01*
Y943655D01*
X45743Y943557D01*
X45714Y943463D01*
X45668Y943376D01*
X45605Y943300D01*
X45529Y943238D01*
X45442Y943191D01*
X45348Y943163D01*
X45250Y943153D01*
X32000D01*
X31902Y943163D01*
X31808Y943191D01*
X31721Y943238D01*
X31645Y943300D01*
X31582Y943376D01*
X31536Y943463D01*
X31507Y943557D01*
X31498Y943655D01*
Y947655D01*
X31507Y947753D01*
X31536Y947848D01*
X31582Y947934D01*
X31645Y948011D01*
X31721Y948073D01*
X31808Y948120D01*
X31902Y948148D01*
X32000Y948158D01*
X41998D01*
Y952655D01*
X42007Y952753D01*
X42036Y952848D01*
X42082Y952934D01*
X42145Y953011D01*
X42221Y953073D01*
X42308Y953120D01*
X42402Y953148D01*
X42500Y953158D01*
X45250D01*
X45348Y953148D01*
D02*
G37*
G36*
X77848D02*
X77942Y953120D01*
X78029Y953073D01*
X78105Y953011D01*
X78168Y952934D01*
X78214Y952848D01*
X78243Y952753D01*
X78253Y952655D01*
Y948158D01*
X82500D01*
X82598Y948148D01*
X82692Y948120D01*
X82779Y948073D01*
X82855Y948011D01*
X82918Y947934D01*
X82964Y947848D01*
X82993Y947753D01*
X83003Y947655D01*
Y946158D01*
X88000D01*
X88098Y946148D01*
X88192Y946120D01*
X88279Y946073D01*
X88355Y946011D01*
X88418Y945935D01*
X88464Y945848D01*
X88493Y945753D01*
X88503Y945655D01*
Y940655D01*
X88493Y940557D01*
X88464Y940463D01*
X88418Y940376D01*
X88355Y940300D01*
X88279Y940238D01*
X88192Y940191D01*
X88098Y940163D01*
X88000Y940153D01*
X74750D01*
X74652Y940163D01*
X74558Y940191D01*
X74471Y940238D01*
X74395Y940300D01*
X74332Y940376D01*
X74286Y940463D01*
X74257Y940557D01*
X74248Y940655D01*
Y952655D01*
X74257Y952753D01*
X74286Y952848D01*
X74332Y952934D01*
X74395Y953011D01*
X74471Y953073D01*
X74558Y953120D01*
X74652Y953148D01*
X74750Y953158D01*
X77750D01*
X77848Y953148D01*
D02*
G37*
G36*
X83098Y933898D02*
X83192Y933870D01*
X83279Y933823D01*
X83355Y933761D01*
X83418Y933684D01*
X83464Y933598D01*
X83493Y933503D01*
X83503Y933405D01*
Y928908D01*
X88000D01*
X88098Y928898D01*
X88192Y928870D01*
X88279Y928823D01*
X88355Y928761D01*
X88418Y928684D01*
X88464Y928598D01*
X88493Y928503D01*
X88503Y928405D01*
Y925905D01*
X88493Y925807D01*
X88464Y925713D01*
X88418Y925626D01*
X88355Y925550D01*
X88279Y925488D01*
X88192Y925441D01*
X88098Y925413D01*
X88000Y925403D01*
X65000D01*
X64902Y925413D01*
X64808Y925441D01*
X64721Y925488D01*
X64645Y925550D01*
X64582Y925626D01*
X64536Y925713D01*
X64507Y925807D01*
X64498Y925905D01*
Y928405D01*
Y933405D01*
X64507Y933503D01*
X64536Y933598D01*
X64582Y933684D01*
X64645Y933761D01*
X64721Y933823D01*
X64808Y933870D01*
X64902Y933898D01*
X65000Y933908D01*
X83000D01*
X83098Y933898D01*
D02*
G37*
G36*
X842917Y1569616D02*
X844737Y1568862D01*
X846375Y1567767D01*
X847768Y1566375D01*
X848862Y1564737D01*
X849616Y1562917D01*
X850000Y1560985D01*
Y1560000D01*
Y1559015D01*
X849616Y1557083D01*
X848862Y1555263D01*
X847768Y1553625D01*
X846375Y1552233D01*
X844737Y1551138D01*
X842917Y1550384D01*
X840985Y1550000D01*
X839015D01*
X837083Y1550384D01*
X835263Y1551138D01*
X833625Y1552233D01*
X832233Y1553625D01*
X831138Y1555263D01*
X830384Y1557083D01*
X830000Y1559015D01*
Y1560000D01*
Y1560985D01*
X830384Y1562917D01*
X831138Y1564737D01*
X832233Y1566375D01*
X833625Y1567767D01*
X835263Y1568862D01*
X837083Y1569616D01*
X839015Y1570000D01*
X840985D01*
X842917Y1569616D01*
D02*
G37*
G36*
X25782Y1507363D02*
X27601Y1506610D01*
X29239Y1505515D01*
X30632Y1504122D01*
X31727Y1502484D01*
X32480Y1500665D01*
X32865Y1498733D01*
Y1497748D01*
Y1496763D01*
X32480Y1494831D01*
X31727Y1493011D01*
X30632Y1491373D01*
X29239Y1489980D01*
X27601Y1488886D01*
X25782Y1488132D01*
X23849Y1487748D01*
X21880D01*
X19948Y1488132D01*
X18128Y1488886D01*
X16490Y1489980D01*
X15097Y1491373D01*
X14003Y1493011D01*
X13249Y1494831D01*
X12865Y1496763D01*
Y1497748D01*
Y1498733D01*
X13249Y1500665D01*
X14003Y1502484D01*
X15097Y1504122D01*
X16490Y1505515D01*
X18128Y1506610D01*
X19948Y1507363D01*
X21880Y1507748D01*
X23849D01*
X25782Y1507363D01*
D02*
G37*
G36*
X45348Y1208143D02*
X45442Y1208114D01*
X45529Y1208068D01*
X45605Y1208005D01*
X45668Y1207929D01*
X45714Y1207842D01*
X45743Y1207748D01*
X45753Y1207650D01*
Y1198650D01*
X45743Y1198552D01*
X45714Y1198458D01*
X45668Y1198371D01*
X45605Y1198295D01*
X45529Y1198232D01*
X45442Y1198186D01*
X45348Y1198157D01*
X45250Y1198148D01*
X32000D01*
X31902Y1198157D01*
X31808Y1198186D01*
X31721Y1198232D01*
X31645Y1198295D01*
X31582Y1198371D01*
X31536Y1198458D01*
X31507Y1198552D01*
X31498Y1198650D01*
Y1202650D01*
X31507Y1202748D01*
X31536Y1202842D01*
X31582Y1202929D01*
X31645Y1203005D01*
X31721Y1203068D01*
X31808Y1203114D01*
X31902Y1203143D01*
X32000Y1203152D01*
X41998D01*
Y1207650D01*
X42007Y1207748D01*
X42036Y1207842D01*
X42082Y1207929D01*
X42145Y1208005D01*
X42221Y1208068D01*
X42308Y1208114D01*
X42402Y1208143D01*
X42500Y1208152D01*
X45250D01*
X45348Y1208143D01*
D02*
G37*
G36*
X77848Y1208143D02*
X77942Y1208114D01*
X78029Y1208068D01*
X78105Y1208005D01*
X78168Y1207929D01*
X78214Y1207842D01*
X78243Y1207748D01*
X78253Y1207650D01*
Y1203152D01*
X82500D01*
X82598Y1203143D01*
X82692Y1203114D01*
X82779Y1203068D01*
X82855Y1203005D01*
X82918Y1202929D01*
X82964Y1202842D01*
X82993Y1202748D01*
X83003Y1202650D01*
Y1201152D01*
X88000D01*
X88098Y1201143D01*
X88192Y1201114D01*
X88279Y1201068D01*
X88355Y1201005D01*
X88418Y1200929D01*
X88464Y1200842D01*
X88493Y1200748D01*
X88503Y1200650D01*
Y1195650D01*
X88493Y1195552D01*
X88464Y1195458D01*
X88418Y1195371D01*
X88355Y1195295D01*
X88279Y1195232D01*
X88192Y1195186D01*
X88098Y1195157D01*
X88000Y1195148D01*
X74750D01*
X74652Y1195157D01*
X74558Y1195186D01*
X74471Y1195232D01*
X74395Y1195295D01*
X74332Y1195371D01*
X74286Y1195458D01*
X74257Y1195552D01*
X74248Y1195650D01*
Y1207650D01*
X74257Y1207748D01*
X74286Y1207842D01*
X74332Y1207929D01*
X74395Y1208005D01*
X74471Y1208068D01*
X74558Y1208114D01*
X74652Y1208143D01*
X74750Y1208152D01*
X77750D01*
X77848Y1208143D01*
D02*
G37*
G36*
X83098Y1188893D02*
X83192Y1188864D01*
X83279Y1188818D01*
X83355Y1188755D01*
X83418Y1188679D01*
X83464Y1188592D01*
X83493Y1188498D01*
X83503Y1188400D01*
Y1183903D01*
X88000D01*
X88098Y1183893D01*
X88192Y1183864D01*
X88279Y1183818D01*
X88355Y1183755D01*
X88418Y1183679D01*
X88464Y1183592D01*
X88493Y1183498D01*
X88503Y1183400D01*
Y1180900D01*
X88493Y1180802D01*
X88464Y1180708D01*
X88418Y1180621D01*
X88355Y1180545D01*
X88279Y1180482D01*
X88192Y1180436D01*
X88098Y1180407D01*
X88000Y1180398D01*
X65000D01*
X64902Y1180407D01*
X64808Y1180436D01*
X64721Y1180482D01*
X64645Y1180545D01*
X64582Y1180621D01*
X64536Y1180708D01*
X64507Y1180802D01*
X64498Y1180900D01*
Y1183400D01*
Y1188400D01*
X64507Y1188498D01*
X64536Y1188592D01*
X64582Y1188679D01*
X64645Y1188755D01*
X64721Y1188818D01*
X64808Y1188864D01*
X64902Y1188893D01*
X65000Y1188903D01*
X83000D01*
X83098Y1188893D01*
D02*
G37*
G36*
X43632Y1171143D02*
X43727Y1171114D01*
X43814Y1171068D01*
X43855Y1171034D01*
X43890Y1171005D01*
X43890Y1171005D01*
X45605Y1169290D01*
X45605Y1169290D01*
X45634Y1169255D01*
X45668Y1169213D01*
X45714Y1169127D01*
X45743Y1169032D01*
X45744Y1169024D01*
X45753Y1168934D01*
X45753Y1168934D01*
Y1161650D01*
X45743Y1161552D01*
X45714Y1161458D01*
X45668Y1161371D01*
X45605Y1161295D01*
X45529Y1161233D01*
X45442Y1161186D01*
X45348Y1161157D01*
X45250Y1161148D01*
X42500D01*
X42402Y1161157D01*
X42308Y1161186D01*
X42221Y1161233D01*
X42145Y1161295D01*
X42082Y1161371D01*
X42036Y1161458D01*
X42007Y1161552D01*
X41998Y1161650D01*
Y1166148D01*
X32000D01*
X31902Y1166158D01*
X31808Y1166186D01*
X31721Y1166233D01*
X31645Y1166295D01*
X31582Y1166371D01*
X31536Y1166458D01*
X31507Y1166552D01*
X31498Y1166650D01*
Y1170650D01*
X31507Y1170748D01*
X31536Y1170843D01*
X31582Y1170929D01*
X31645Y1171005D01*
X31721Y1171068D01*
X31808Y1171114D01*
X31902Y1171143D01*
X32000Y1171153D01*
X43534D01*
X43534Y1171153D01*
X43632Y1171143D01*
D02*
G37*
G36*
X88098Y1174143D02*
X88192Y1174114D01*
X88279Y1174068D01*
X88355Y1174005D01*
X88418Y1173929D01*
X88464Y1173842D01*
X88493Y1173748D01*
X88503Y1173650D01*
Y1168650D01*
X88493Y1168552D01*
X88464Y1168458D01*
X88418Y1168371D01*
X88355Y1168295D01*
X88279Y1168232D01*
X88192Y1168186D01*
X88098Y1168157D01*
X88000Y1168148D01*
X83003D01*
Y1166650D01*
X82993Y1166552D01*
X82964Y1166458D01*
X82918Y1166371D01*
X82855Y1166295D01*
X82779Y1166232D01*
X82692Y1166186D01*
X82598Y1166157D01*
X82500Y1166148D01*
X78253D01*
Y1161650D01*
X78243Y1161552D01*
X78214Y1161458D01*
X78168Y1161371D01*
X78105Y1161295D01*
X78029Y1161232D01*
X77942Y1161186D01*
X77848Y1161157D01*
X77750Y1161148D01*
X74750D01*
X74652Y1161157D01*
X74558Y1161186D01*
X74471Y1161232D01*
X74395Y1161295D01*
X74332Y1161371D01*
X74286Y1161458D01*
X74257Y1161552D01*
X74248Y1161650D01*
Y1173650D01*
X74257Y1173748D01*
X74286Y1173842D01*
X74332Y1173929D01*
X74395Y1174005D01*
X74471Y1174068D01*
X74558Y1174114D01*
X74652Y1174143D01*
X74750Y1174153D01*
X88000D01*
X88098Y1174143D01*
D02*
G37*
G36*
X45348Y1095143D02*
X45442Y1095114D01*
X45529Y1095068D01*
X45605Y1095005D01*
X45668Y1094929D01*
X45714Y1094842D01*
X45743Y1094748D01*
X45753Y1094650D01*
Y1085650D01*
X45743Y1085552D01*
X45714Y1085458D01*
X45668Y1085371D01*
X45605Y1085295D01*
X45529Y1085232D01*
X45442Y1085186D01*
X45348Y1085157D01*
X45250Y1085148D01*
X32000D01*
X31902Y1085157D01*
X31808Y1085186D01*
X31721Y1085232D01*
X31645Y1085295D01*
X31582Y1085371D01*
X31536Y1085458D01*
X31507Y1085552D01*
X31498Y1085650D01*
Y1089650D01*
X31507Y1089748D01*
X31536Y1089842D01*
X31582Y1089929D01*
X31645Y1090005D01*
X31721Y1090068D01*
X31808Y1090114D01*
X31902Y1090143D01*
X32000Y1090153D01*
X41998D01*
Y1094650D01*
X42007Y1094748D01*
X42036Y1094842D01*
X42082Y1094929D01*
X42145Y1095005D01*
X42221Y1095068D01*
X42308Y1095114D01*
X42402Y1095143D01*
X42500Y1095153D01*
X45250D01*
X45348Y1095143D01*
D02*
G37*
G36*
X77848D02*
X77942Y1095114D01*
X78029Y1095068D01*
X78105Y1095005D01*
X78168Y1094929D01*
X78214Y1094842D01*
X78243Y1094748D01*
X78253Y1094650D01*
Y1090153D01*
X82500D01*
X82598Y1090143D01*
X82692Y1090114D01*
X82779Y1090068D01*
X82855Y1090005D01*
X82918Y1089929D01*
X82964Y1089842D01*
X82993Y1089748D01*
X83003Y1089650D01*
Y1088152D01*
X88000D01*
X88098Y1088143D01*
X88192Y1088114D01*
X88279Y1088068D01*
X88355Y1088005D01*
X88418Y1087929D01*
X88464Y1087842D01*
X88493Y1087748D01*
X88503Y1087650D01*
Y1082650D01*
X88493Y1082552D01*
X88464Y1082458D01*
X88418Y1082371D01*
X88355Y1082295D01*
X88279Y1082232D01*
X88192Y1082186D01*
X88098Y1082157D01*
X88000Y1082148D01*
X74750D01*
X74652Y1082157D01*
X74558Y1082186D01*
X74471Y1082232D01*
X74395Y1082295D01*
X74332Y1082371D01*
X74286Y1082458D01*
X74257Y1082552D01*
X74248Y1082650D01*
Y1094650D01*
X74257Y1094748D01*
X74286Y1094842D01*
X74332Y1094929D01*
X74395Y1095005D01*
X74471Y1095068D01*
X74558Y1095114D01*
X74652Y1095143D01*
X74750Y1095153D01*
X77750D01*
X77848Y1095143D01*
D02*
G37*
G36*
X83098Y1075893D02*
X83192Y1075864D01*
X83279Y1075818D01*
X83355Y1075755D01*
X83418Y1075679D01*
X83464Y1075592D01*
X83493Y1075498D01*
X83503Y1075400D01*
Y1070902D01*
X88000D01*
X88098Y1070893D01*
X88192Y1070864D01*
X88279Y1070818D01*
X88355Y1070755D01*
X88418Y1070679D01*
X88464Y1070592D01*
X88493Y1070498D01*
X88503Y1070400D01*
Y1067900D01*
X88493Y1067802D01*
X88464Y1067708D01*
X88418Y1067621D01*
X88355Y1067545D01*
X88279Y1067482D01*
X88192Y1067436D01*
X88098Y1067407D01*
X88000Y1067398D01*
X65000D01*
X64902Y1067407D01*
X64808Y1067436D01*
X64721Y1067482D01*
X64645Y1067545D01*
X64582Y1067621D01*
X64536Y1067708D01*
X64507Y1067802D01*
X64498Y1067900D01*
Y1070400D01*
Y1075400D01*
X64507Y1075498D01*
X64536Y1075592D01*
X64582Y1075679D01*
X64645Y1075755D01*
X64721Y1075818D01*
X64808Y1075864D01*
X64902Y1075893D01*
X65000Y1075902D01*
X83000D01*
X83098Y1075893D01*
D02*
G37*
G36*
X88098Y1061143D02*
X88192Y1061114D01*
X88279Y1061068D01*
X88355Y1061005D01*
X88418Y1060929D01*
X88464Y1060842D01*
X88493Y1060748D01*
X88503Y1060650D01*
Y1055650D01*
X88493Y1055552D01*
X88464Y1055458D01*
X88418Y1055371D01*
X88355Y1055295D01*
X88279Y1055232D01*
X88192Y1055186D01*
X88098Y1055157D01*
X88000Y1055148D01*
X83003D01*
Y1053650D01*
X82993Y1053552D01*
X82964Y1053458D01*
X82918Y1053371D01*
X82855Y1053295D01*
X82779Y1053232D01*
X82692Y1053186D01*
X82598Y1053157D01*
X82500Y1053148D01*
X78253D01*
Y1048650D01*
X78243Y1048552D01*
X78214Y1048458D01*
X78168Y1048371D01*
X78105Y1048295D01*
X78029Y1048232D01*
X77942Y1048186D01*
X77848Y1048157D01*
X77750Y1048148D01*
X74750D01*
X74652Y1048157D01*
X74558Y1048186D01*
X74471Y1048232D01*
X74395Y1048295D01*
X74332Y1048371D01*
X74286Y1048458D01*
X74257Y1048552D01*
X74248Y1048650D01*
Y1060650D01*
X74257Y1060748D01*
X74286Y1060842D01*
X74332Y1060929D01*
X74395Y1061005D01*
X74471Y1061068D01*
X74558Y1061114D01*
X74652Y1061143D01*
X74750Y1061152D01*
X88000D01*
X88098Y1061143D01*
D02*
G37*
G36*
X43632Y1058143D02*
X43727Y1058114D01*
X43814Y1058068D01*
X43855Y1058034D01*
X43890Y1058005D01*
X43890Y1058005D01*
X45605Y1056290D01*
X45605Y1056290D01*
X45634Y1056255D01*
X45668Y1056213D01*
X45714Y1056126D01*
X45743Y1056032D01*
X45744Y1056023D01*
X45753Y1055934D01*
X45753Y1055934D01*
Y1048650D01*
X45743Y1048552D01*
X45714Y1048458D01*
X45668Y1048371D01*
X45605Y1048295D01*
X45529Y1048232D01*
X45442Y1048186D01*
X45348Y1048157D01*
X45250Y1048148D01*
X42500D01*
X42402Y1048157D01*
X42308Y1048186D01*
X42221Y1048232D01*
X42145Y1048295D01*
X42082Y1048371D01*
X42036Y1048458D01*
X42007Y1048552D01*
X41998Y1048650D01*
Y1053148D01*
X32000D01*
X31902Y1053157D01*
X31808Y1053186D01*
X31721Y1053232D01*
X31645Y1053295D01*
X31582Y1053371D01*
X31536Y1053458D01*
X31507Y1053552D01*
X31498Y1053650D01*
Y1057650D01*
X31507Y1057748D01*
X31536Y1057842D01*
X31582Y1057929D01*
X31645Y1058005D01*
X31721Y1058068D01*
X31808Y1058114D01*
X31902Y1058143D01*
X32000Y1058152D01*
X43534D01*
X43534Y1058152D01*
X43632Y1058143D01*
D02*
G37*
D83*
X218821Y1354360D02*
D03*
X230821D02*
D03*
X242821D02*
D03*
X218821Y1342360D02*
D03*
X230821D02*
D03*
X242821D02*
D03*
X218821Y1330360D02*
D03*
X230821D02*
D03*
X242821D02*
D03*
X218821Y1318360D02*
D03*
X230821D02*
D03*
X242821D02*
D03*
X218821Y1306360D02*
D03*
X230821D02*
D03*
X242821D02*
D03*
X218821Y1294360D02*
D03*
X230821D02*
D03*
X242821D02*
D03*
X218821Y1282360D02*
D03*
X242821D02*
D03*
X254821Y1330360D02*
D03*
X266821Y1306360D02*
D03*
X278821Y1342360D02*
D03*
X254821Y1318360D02*
D03*
Y1354360D02*
D03*
Y1342360D02*
D03*
X278821Y1354360D02*
D03*
X266821D02*
D03*
X254821Y1306360D02*
D03*
Y1294360D02*
D03*
X266821D02*
D03*
Y1342360D02*
D03*
Y1330360D02*
D03*
X254821Y1282360D02*
D03*
X266821Y1318360D02*
D03*
Y1282360D02*
D03*
X218821Y1270360D02*
D03*
Y1258360D02*
D03*
Y1246360D02*
D03*
Y1222360D02*
D03*
Y1234360D02*
D03*
Y1210360D02*
D03*
X230821Y1282360D02*
D03*
Y1270360D02*
D03*
Y1258360D02*
D03*
Y1246360D02*
D03*
Y1234360D02*
D03*
Y1210360D02*
D03*
Y1222360D02*
D03*
X242821Y1270360D02*
D03*
Y1258360D02*
D03*
Y1246360D02*
D03*
Y1210360D02*
D03*
Y1222360D02*
D03*
Y1234360D02*
D03*
X254821Y1270360D02*
D03*
Y1258360D02*
D03*
Y1246360D02*
D03*
Y1222360D02*
D03*
Y1210360D02*
D03*
Y1234360D02*
D03*
X266821Y1270360D02*
D03*
Y1258360D02*
D03*
Y1246360D02*
D03*
Y1222360D02*
D03*
Y1210360D02*
D03*
Y1234360D02*
D03*
X278821Y1210360D02*
D03*
Y1330360D02*
D03*
X290821D02*
D03*
Y1354360D02*
D03*
Y1342360D02*
D03*
Y1318360D02*
D03*
X302821Y1354360D02*
D03*
Y1330360D02*
D03*
Y1342360D02*
D03*
X314821Y1330360D02*
D03*
Y1342360D02*
D03*
Y1354360D02*
D03*
Y1318360D02*
D03*
X326821Y1342360D02*
D03*
Y1330360D02*
D03*
Y1354360D02*
D03*
Y1318360D02*
D03*
X338821Y1342360D02*
D03*
Y1330360D02*
D03*
Y1354360D02*
D03*
X350821D02*
D03*
Y1342360D02*
D03*
Y1330360D02*
D03*
X362821Y1354360D02*
D03*
Y1330360D02*
D03*
Y1342360D02*
D03*
X374821Y1354360D02*
D03*
Y1330360D02*
D03*
Y1342360D02*
D03*
X386821Y1354360D02*
D03*
Y1342360D02*
D03*
Y1330360D02*
D03*
X398821Y1318360D02*
D03*
X278821D02*
D03*
Y1294360D02*
D03*
Y1306360D02*
D03*
X290821Y1294360D02*
D03*
Y1306360D02*
D03*
X302821Y1318360D02*
D03*
Y1294360D02*
D03*
Y1282360D02*
D03*
Y1306360D02*
D03*
X314821D02*
D03*
Y1294360D02*
D03*
Y1282360D02*
D03*
X326821D02*
D03*
Y1306360D02*
D03*
Y1294360D02*
D03*
X338821Y1318360D02*
D03*
Y1294360D02*
D03*
Y1306360D02*
D03*
Y1282360D02*
D03*
X350821Y1318360D02*
D03*
Y1294360D02*
D03*
Y1306360D02*
D03*
X362821Y1318360D02*
D03*
Y1294360D02*
D03*
Y1306360D02*
D03*
X374821Y1318360D02*
D03*
Y1306360D02*
D03*
Y1294360D02*
D03*
X386821Y1318360D02*
D03*
Y1306360D02*
D03*
Y1294360D02*
D03*
Y1282360D02*
D03*
X398821Y1354360D02*
D03*
Y1342360D02*
D03*
Y1330360D02*
D03*
X410821Y1354360D02*
D03*
Y1342360D02*
D03*
Y1330360D02*
D03*
Y1318360D02*
D03*
X422821Y1354360D02*
D03*
Y1342360D02*
D03*
Y1330360D02*
D03*
X434821Y1354360D02*
D03*
Y1342360D02*
D03*
Y1330360D02*
D03*
X446821Y1354360D02*
D03*
Y1342360D02*
D03*
Y1330360D02*
D03*
Y1318360D02*
D03*
X458821Y1354360D02*
D03*
Y1342360D02*
D03*
Y1330360D02*
D03*
X470821Y1354360D02*
D03*
Y1342360D02*
D03*
Y1330360D02*
D03*
X482821Y1354360D02*
D03*
Y1342360D02*
D03*
Y1330360D02*
D03*
X494821Y1354360D02*
D03*
Y1342360D02*
D03*
Y1330360D02*
D03*
X506821Y1354360D02*
D03*
Y1342360D02*
D03*
Y1330360D02*
D03*
X398821Y1306360D02*
D03*
Y1294360D02*
D03*
X410821Y1306360D02*
D03*
Y1282360D02*
D03*
Y1294360D02*
D03*
X422821Y1318360D02*
D03*
Y1306360D02*
D03*
Y1294360D02*
D03*
X434821Y1318360D02*
D03*
Y1306360D02*
D03*
Y1294360D02*
D03*
Y1282360D02*
D03*
X446821Y1306360D02*
D03*
Y1294360D02*
D03*
Y1282360D02*
D03*
X458821Y1318360D02*
D03*
Y1306360D02*
D03*
Y1294360D02*
D03*
Y1282360D02*
D03*
X470821Y1318360D02*
D03*
Y1306360D02*
D03*
Y1294360D02*
D03*
X482821Y1318360D02*
D03*
Y1306360D02*
D03*
Y1294360D02*
D03*
Y1282360D02*
D03*
X494821Y1318360D02*
D03*
Y1306360D02*
D03*
Y1294360D02*
D03*
X506821Y1318360D02*
D03*
Y1306360D02*
D03*
Y1294360D02*
D03*
X278821Y1282360D02*
D03*
Y1270360D02*
D03*
Y1258360D02*
D03*
Y1246360D02*
D03*
X290821Y1270360D02*
D03*
Y1282360D02*
D03*
Y1258360D02*
D03*
Y1246360D02*
D03*
X302821Y1270360D02*
D03*
Y1258360D02*
D03*
Y1246360D02*
D03*
X314821Y1270360D02*
D03*
Y1258360D02*
D03*
Y1246360D02*
D03*
X326821Y1270360D02*
D03*
Y1258360D02*
D03*
Y1246360D02*
D03*
X338821Y1270360D02*
D03*
Y1258360D02*
D03*
X350821Y1270360D02*
D03*
Y1282360D02*
D03*
Y1258360D02*
D03*
Y1246360D02*
D03*
X362821Y1282360D02*
D03*
Y1270360D02*
D03*
Y1258360D02*
D03*
Y1246360D02*
D03*
X374821Y1282360D02*
D03*
Y1270360D02*
D03*
Y1258360D02*
D03*
Y1246360D02*
D03*
X386821Y1270360D02*
D03*
X278821Y1234360D02*
D03*
Y1222360D02*
D03*
X290821Y1234360D02*
D03*
Y1210360D02*
D03*
Y1222360D02*
D03*
X302821Y1234360D02*
D03*
Y1210360D02*
D03*
Y1222360D02*
D03*
X314821Y1234360D02*
D03*
Y1210360D02*
D03*
Y1222360D02*
D03*
X326821Y1234360D02*
D03*
Y1210360D02*
D03*
Y1222360D02*
D03*
X338821Y1246360D02*
D03*
Y1234360D02*
D03*
Y1210360D02*
D03*
Y1222360D02*
D03*
Y1198360D02*
D03*
X350821Y1234360D02*
D03*
Y1222360D02*
D03*
Y1210360D02*
D03*
X362821Y1234360D02*
D03*
Y1222360D02*
D03*
Y1198360D02*
D03*
Y1210360D02*
D03*
X374821Y1234360D02*
D03*
Y1222360D02*
D03*
Y1210360D02*
D03*
Y1198360D02*
D03*
X386821Y1246360D02*
D03*
Y1234360D02*
D03*
Y1258360D02*
D03*
X398821Y1282360D02*
D03*
Y1270360D02*
D03*
Y1258360D02*
D03*
Y1246360D02*
D03*
X410821Y1270360D02*
D03*
Y1258360D02*
D03*
Y1246360D02*
D03*
X422821Y1282360D02*
D03*
Y1270360D02*
D03*
Y1258360D02*
D03*
Y1246360D02*
D03*
X434821Y1270360D02*
D03*
Y1258360D02*
D03*
Y1246360D02*
D03*
X446821Y1270360D02*
D03*
Y1258360D02*
D03*
Y1246360D02*
D03*
X458821Y1270360D02*
D03*
Y1258360D02*
D03*
Y1246360D02*
D03*
X470821Y1282360D02*
D03*
Y1270360D02*
D03*
Y1258360D02*
D03*
Y1246360D02*
D03*
X482821Y1270360D02*
D03*
Y1258360D02*
D03*
Y1246360D02*
D03*
X494821Y1270360D02*
D03*
Y1282360D02*
D03*
Y1258360D02*
D03*
Y1246360D02*
D03*
X386821Y1210360D02*
D03*
Y1222360D02*
D03*
X398821Y1234360D02*
D03*
Y1210360D02*
D03*
Y1222360D02*
D03*
X410821Y1234360D02*
D03*
Y1210360D02*
D03*
Y1222360D02*
D03*
X422821Y1234360D02*
D03*
Y1210360D02*
D03*
Y1222360D02*
D03*
X434821Y1234360D02*
D03*
Y1198360D02*
D03*
Y1222360D02*
D03*
Y1210360D02*
D03*
X446821Y1234360D02*
D03*
Y1222360D02*
D03*
Y1210360D02*
D03*
Y1198360D02*
D03*
X458821Y1234360D02*
D03*
Y1222360D02*
D03*
Y1210360D02*
D03*
X470821Y1234360D02*
D03*
Y1210360D02*
D03*
Y1222360D02*
D03*
X482821Y1234360D02*
D03*
Y1210360D02*
D03*
Y1222360D02*
D03*
X494821Y1234360D02*
D03*
Y1210360D02*
D03*
Y1222360D02*
D03*
X506821Y1246360D02*
D03*
X218821Y1198360D02*
D03*
X242821D02*
D03*
X254821D02*
D03*
X230821D02*
D03*
X266821D02*
D03*
Y1186360D02*
D03*
X230821D02*
D03*
X218821D02*
D03*
X242821D02*
D03*
X254821D02*
D03*
X218821Y1174360D02*
D03*
X266821D02*
D03*
X230821D02*
D03*
X254821D02*
D03*
X242821D02*
D03*
X278821D02*
D03*
X266821Y1162360D02*
D03*
X254821D02*
D03*
X230821D02*
D03*
X218821D02*
D03*
X242821D02*
D03*
X278821D02*
D03*
X266821Y1150360D02*
D03*
X218821D02*
D03*
X254821D02*
D03*
X230821D02*
D03*
X242821D02*
D03*
X278821D02*
D03*
X242821Y1138360D02*
D03*
X230821D02*
D03*
X254821D02*
D03*
X278821D02*
D03*
Y1198360D02*
D03*
X326821D02*
D03*
X350821D02*
D03*
X302821D02*
D03*
X290821D02*
D03*
X314821D02*
D03*
X278821Y1186360D02*
D03*
X290821D02*
D03*
X350821D02*
D03*
X338821D02*
D03*
X314821D02*
D03*
X326821D02*
D03*
X302821D02*
D03*
X314821Y1174360D02*
D03*
X302821D02*
D03*
X326821D02*
D03*
X290821D02*
D03*
X350821D02*
D03*
X338821D02*
D03*
X350821Y1162360D02*
D03*
X338821D02*
D03*
X290821D02*
D03*
X302821D02*
D03*
X314821D02*
D03*
X326821D02*
D03*
X314821Y1150360D02*
D03*
X290821D02*
D03*
X338821D02*
D03*
X326821D02*
D03*
X350821D02*
D03*
X302821D02*
D03*
X290821Y1138360D02*
D03*
X218821D02*
D03*
X266821D02*
D03*
X230821Y1126360D02*
D03*
X218821D02*
D03*
X242821D02*
D03*
X254821D02*
D03*
X266821D02*
D03*
X278821D02*
D03*
X218821Y1114360D02*
D03*
X230821D02*
D03*
X242821D02*
D03*
X254821D02*
D03*
X266821D02*
D03*
X278821D02*
D03*
X230821Y1102360D02*
D03*
X218821D02*
D03*
X242821D02*
D03*
X254821D02*
D03*
X266821D02*
D03*
X278821D02*
D03*
X290821D02*
D03*
X230821Y1090360D02*
D03*
X218821D02*
D03*
X242821D02*
D03*
X254821D02*
D03*
X266821D02*
D03*
X278821D02*
D03*
X230821Y1078360D02*
D03*
X242821D02*
D03*
X254821D02*
D03*
X266821D02*
D03*
X278821D02*
D03*
X302821Y1138360D02*
D03*
X314821D02*
D03*
X326821D02*
D03*
X350821D02*
D03*
X338821D02*
D03*
X290821Y1126360D02*
D03*
X302821D02*
D03*
X314821D02*
D03*
X326821D02*
D03*
X350821D02*
D03*
X338821D02*
D03*
X290821Y1114360D02*
D03*
X302821D02*
D03*
X314821D02*
D03*
X326821D02*
D03*
X338821D02*
D03*
X302821Y1102360D02*
D03*
X314821D02*
D03*
X326821D02*
D03*
X338821D02*
D03*
X350821D02*
D03*
X290821Y1090360D02*
D03*
X302821D02*
D03*
X314821D02*
D03*
X326821D02*
D03*
X338821D02*
D03*
X350821D02*
D03*
X290821Y1078360D02*
D03*
X302821D02*
D03*
X314821D02*
D03*
X326821D02*
D03*
X338821D02*
D03*
X386821Y1198360D02*
D03*
X398821D02*
D03*
X410821D02*
D03*
X422821D02*
D03*
X362821Y1186360D02*
D03*
X374821D02*
D03*
X386821D02*
D03*
X398821D02*
D03*
X410821D02*
D03*
X422821D02*
D03*
X362821Y1174360D02*
D03*
X374821D02*
D03*
X386821D02*
D03*
X374821Y1162360D02*
D03*
X362821D02*
D03*
X386821D02*
D03*
X374821Y1150360D02*
D03*
X362821D02*
D03*
X386821D02*
D03*
X362821Y1138360D02*
D03*
X374821D02*
D03*
X458821Y1198360D02*
D03*
X470821D02*
D03*
X482821D02*
D03*
X494821D02*
D03*
X434821Y1186360D02*
D03*
X446821D02*
D03*
X458821D02*
D03*
X470821D02*
D03*
X482821D02*
D03*
X494821D02*
D03*
X362821Y1126360D02*
D03*
X374821D02*
D03*
X362821Y1114360D02*
D03*
X374821D02*
D03*
X350821D02*
D03*
X362821Y1102360D02*
D03*
X386821D02*
D03*
X374821D02*
D03*
Y1090360D02*
D03*
X362821D02*
D03*
X386821D02*
D03*
X374821Y1078360D02*
D03*
X362821D02*
D03*
X386821D02*
D03*
X542821Y1354360D02*
D03*
X530821D02*
D03*
X518821D02*
D03*
X554821D02*
D03*
X566821D02*
D03*
X578821D02*
D03*
X542821Y1342360D02*
D03*
X530821D02*
D03*
X518821D02*
D03*
X554821D02*
D03*
X566821D02*
D03*
X530821Y1330360D02*
D03*
X542821D02*
D03*
X518821D02*
D03*
X554821D02*
D03*
X566821D02*
D03*
X578821D02*
D03*
X542821Y1318360D02*
D03*
X518821D02*
D03*
X530821D02*
D03*
X554821D02*
D03*
X566821D02*
D03*
X518821Y1306360D02*
D03*
X542821D02*
D03*
X530821D02*
D03*
X554821D02*
D03*
X566821D02*
D03*
X542821Y1294360D02*
D03*
X530821D02*
D03*
X518821D02*
D03*
X554821D02*
D03*
X566821D02*
D03*
X602821Y1354360D02*
D03*
X626821D02*
D03*
X614821D02*
D03*
X590821D02*
D03*
X578821Y1342360D02*
D03*
X602821D02*
D03*
X590821D02*
D03*
X614821D02*
D03*
X626821D02*
D03*
X590821Y1330360D02*
D03*
X614821D02*
D03*
X602821D02*
D03*
X626821D02*
D03*
X578821Y1318360D02*
D03*
X638821D02*
D03*
X626821D02*
D03*
X590821D02*
D03*
X602821D02*
D03*
X614821D02*
D03*
X578821Y1306360D02*
D03*
X626821D02*
D03*
X638821D02*
D03*
X590821D02*
D03*
X602821D02*
D03*
X614821D02*
D03*
X578821Y1294360D02*
D03*
X614821D02*
D03*
X602821D02*
D03*
X590821D02*
D03*
X626821D02*
D03*
X578821Y1282360D02*
D03*
X590821D02*
D03*
X506821D02*
D03*
X530821D02*
D03*
X518821D02*
D03*
X542821D02*
D03*
X554821D02*
D03*
X566821D02*
D03*
X506821Y1270360D02*
D03*
X518821D02*
D03*
X530821D02*
D03*
X542821D02*
D03*
X554821D02*
D03*
X530821Y1258360D02*
D03*
X506821D02*
D03*
X518821D02*
D03*
X542821D02*
D03*
X554821D02*
D03*
X566821D02*
D03*
X518821Y1246360D02*
D03*
X530821D02*
D03*
X542821D02*
D03*
X554821D02*
D03*
X530821Y1234360D02*
D03*
X506821D02*
D03*
X518821D02*
D03*
X542821D02*
D03*
X554821D02*
D03*
X566821D02*
D03*
X530821Y1222360D02*
D03*
X518821D02*
D03*
X506821D02*
D03*
X542821D02*
D03*
X554821D02*
D03*
X602821Y1282360D02*
D03*
X614821D02*
D03*
X626821D02*
D03*
X566821Y1270360D02*
D03*
X578821D02*
D03*
X626821D02*
D03*
X614821D02*
D03*
X590821D02*
D03*
X602821D02*
D03*
X578821Y1258360D02*
D03*
X602821D02*
D03*
X590821D02*
D03*
X638821D02*
D03*
X626821D02*
D03*
X614821D02*
D03*
X566821Y1246360D02*
D03*
X578821D02*
D03*
X614821D02*
D03*
X626821D02*
D03*
X602821D02*
D03*
X590821D02*
D03*
X578821Y1234360D02*
D03*
X614821D02*
D03*
X626821D02*
D03*
X590821D02*
D03*
X602821D02*
D03*
X566821Y1222360D02*
D03*
X578821D02*
D03*
X614821D02*
D03*
X602821D02*
D03*
X626821D02*
D03*
X590821D02*
D03*
X650821Y1354360D02*
D03*
X674821D02*
D03*
X662821D02*
D03*
X638821D02*
D03*
X686821D02*
D03*
X698821D02*
D03*
X686821Y1342360D02*
D03*
X674821D02*
D03*
X650821D02*
D03*
X638821D02*
D03*
X662821D02*
D03*
Y1330360D02*
D03*
X686821D02*
D03*
X650821D02*
D03*
X638821D02*
D03*
X674821D02*
D03*
X698821D02*
D03*
X650821Y1318360D02*
D03*
X686821D02*
D03*
X662821D02*
D03*
X674821D02*
D03*
X698821D02*
D03*
X662821Y1306360D02*
D03*
X650821D02*
D03*
X674821D02*
D03*
X686821D02*
D03*
X698821D02*
D03*
X638821Y1294360D02*
D03*
X662821D02*
D03*
X674821D02*
D03*
X650821D02*
D03*
X686821D02*
D03*
X710821Y1354360D02*
D03*
X722821D02*
D03*
X734821D02*
D03*
X758821D02*
D03*
X746821D02*
D03*
X698821Y1342360D02*
D03*
X710821D02*
D03*
X722821D02*
D03*
X758821D02*
D03*
X746821D02*
D03*
X734821D02*
D03*
X710821Y1330360D02*
D03*
X722821D02*
D03*
X734821D02*
D03*
X746821D02*
D03*
X758821D02*
D03*
X710821Y1318360D02*
D03*
X722821D02*
D03*
X746821D02*
D03*
X734821D02*
D03*
X758821D02*
D03*
X710821Y1306360D02*
D03*
X722821D02*
D03*
X734821D02*
D03*
X746821D02*
D03*
X758821D02*
D03*
X698821Y1294360D02*
D03*
X710821D02*
D03*
X722821D02*
D03*
X734821D02*
D03*
X758821D02*
D03*
X746821D02*
D03*
X638821Y1282360D02*
D03*
X650821D02*
D03*
X662821D02*
D03*
X674821D02*
D03*
X686821D02*
D03*
X698821D02*
D03*
X638821Y1270360D02*
D03*
X650821D02*
D03*
X662821D02*
D03*
X674821D02*
D03*
X686821D02*
D03*
X650821Y1258360D02*
D03*
X662821D02*
D03*
X674821D02*
D03*
X686821D02*
D03*
X698821D02*
D03*
X638821Y1246360D02*
D03*
X650821D02*
D03*
X662821D02*
D03*
X674821D02*
D03*
X686821D02*
D03*
X698821D02*
D03*
X650821Y1234360D02*
D03*
X638821D02*
D03*
X662821D02*
D03*
X674821D02*
D03*
X686821D02*
D03*
X638821Y1222360D02*
D03*
X650821D02*
D03*
X662821D02*
D03*
X686821D02*
D03*
X698821D02*
D03*
X710821Y1282360D02*
D03*
X734821D02*
D03*
X722821D02*
D03*
X746821D02*
D03*
X758821D02*
D03*
X698821Y1270360D02*
D03*
X710821D02*
D03*
X722821D02*
D03*
X746821D02*
D03*
X734821D02*
D03*
X758821D02*
D03*
X710821Y1258360D02*
D03*
X746821D02*
D03*
X722821D02*
D03*
X734821D02*
D03*
X758821D02*
D03*
X710821Y1246360D02*
D03*
X746821D02*
D03*
X758821D02*
D03*
X734821D02*
D03*
X722821D02*
D03*
X698821Y1234360D02*
D03*
X710821D02*
D03*
X734821D02*
D03*
X758821D02*
D03*
X746821D02*
D03*
X722821D02*
D03*
X710821Y1222360D02*
D03*
X722821D02*
D03*
X758821D02*
D03*
X746821D02*
D03*
X734821D02*
D03*
X518821Y1210360D02*
D03*
X530821D02*
D03*
X506821D02*
D03*
X542821D02*
D03*
X554821D02*
D03*
X566821D02*
D03*
X530821Y1198360D02*
D03*
X506821D02*
D03*
X518821D02*
D03*
X542821D02*
D03*
X554821D02*
D03*
X566821D02*
D03*
X506821Y1186360D02*
D03*
X578821Y1210360D02*
D03*
X590821D02*
D03*
X602821D02*
D03*
X614821D02*
D03*
X626821D02*
D03*
X638821D02*
D03*
X578821Y1198360D02*
D03*
X590821D02*
D03*
X602821D02*
D03*
X614821D02*
D03*
X626821D02*
D03*
X602821Y1186360D02*
D03*
X626821D02*
D03*
X614821D02*
D03*
X602821Y1174360D02*
D03*
X626821D02*
D03*
X614821D02*
D03*
X602821Y1162360D02*
D03*
X626821D02*
D03*
X614821D02*
D03*
X602821Y1150360D02*
D03*
X614821D02*
D03*
X638821D02*
D03*
X626821D02*
D03*
X602821Y1138360D02*
D03*
X638821D02*
D03*
X614821D02*
D03*
X626821D02*
D03*
X614821Y1126360D02*
D03*
X638821D02*
D03*
X626821D02*
D03*
X602821D02*
D03*
Y1114360D02*
D03*
X626821D02*
D03*
X614821D02*
D03*
X626821Y1102360D02*
D03*
X602821D02*
D03*
X614821D02*
D03*
X638821D02*
D03*
X602821Y1090360D02*
D03*
X626821D02*
D03*
X614821D02*
D03*
X626821Y1078360D02*
D03*
X614821D02*
D03*
X674821Y1222360D02*
D03*
X650821Y1210360D02*
D03*
X686821D02*
D03*
X662821D02*
D03*
X674821D02*
D03*
X650821Y1198360D02*
D03*
X638821D02*
D03*
X686821D02*
D03*
X674821D02*
D03*
X662821D02*
D03*
X698821D02*
D03*
X662821Y1186360D02*
D03*
X686821D02*
D03*
X638821D02*
D03*
X674821D02*
D03*
X650821D02*
D03*
X698821D02*
D03*
X686821Y1174360D02*
D03*
X674821D02*
D03*
X662821D02*
D03*
X638821D02*
D03*
X650821D02*
D03*
Y1162360D02*
D03*
X686821D02*
D03*
X638821D02*
D03*
X662821D02*
D03*
X674821D02*
D03*
X662821Y1150360D02*
D03*
X674821D02*
D03*
X686821D02*
D03*
X650821D02*
D03*
X698821D02*
D03*
Y1210360D02*
D03*
X758821D02*
D03*
X722821D02*
D03*
X746821D02*
D03*
X734821D02*
D03*
X710821D02*
D03*
Y1198360D02*
D03*
X722821D02*
D03*
X746821D02*
D03*
X758821D02*
D03*
X734821D02*
D03*
Y1186360D02*
D03*
X758821D02*
D03*
X746821D02*
D03*
X710821D02*
D03*
X722821D02*
D03*
X698821Y1174360D02*
D03*
X722821D02*
D03*
X710821D02*
D03*
X746821D02*
D03*
X734821D02*
D03*
X758821D02*
D03*
X698821Y1162360D02*
D03*
X758821D02*
D03*
X746821D02*
D03*
X734821D02*
D03*
X722821D02*
D03*
X710821D02*
D03*
X758821Y1150360D02*
D03*
X722821D02*
D03*
X734821D02*
D03*
X710821D02*
D03*
X650821Y1138360D02*
D03*
X662821D02*
D03*
X674821D02*
D03*
X686821D02*
D03*
X698821D02*
D03*
X650821Y1126360D02*
D03*
X662821D02*
D03*
X674821D02*
D03*
X686821D02*
D03*
X698821D02*
D03*
X638821Y1114360D02*
D03*
X650821D02*
D03*
X662821D02*
D03*
X674821D02*
D03*
X686821D02*
D03*
X698821D02*
D03*
X650821Y1102360D02*
D03*
X662821D02*
D03*
X674821D02*
D03*
X686821D02*
D03*
X650821Y1090360D02*
D03*
X638821D02*
D03*
X662821D02*
D03*
X674821D02*
D03*
X686821D02*
D03*
X698821D02*
D03*
X638821Y1078360D02*
D03*
X650821D02*
D03*
X662821D02*
D03*
X674821D02*
D03*
X686821D02*
D03*
X698821D02*
D03*
X746821Y1150360D02*
D03*
X710821Y1138360D02*
D03*
X746821D02*
D03*
X734821D02*
D03*
X722821D02*
D03*
X758821D02*
D03*
X710821Y1126360D02*
D03*
X722821D02*
D03*
X758821D02*
D03*
X734821D02*
D03*
X746821D02*
D03*
X710821Y1114360D02*
D03*
X722821D02*
D03*
X758821D02*
D03*
X734821D02*
D03*
X746821D02*
D03*
X698821Y1102360D02*
D03*
X710821D02*
D03*
X746821D02*
D03*
X722821D02*
D03*
X734821D02*
D03*
X758821D02*
D03*
X710821Y1090360D02*
D03*
X734821D02*
D03*
X758821D02*
D03*
X722821D02*
D03*
X746821D02*
D03*
X710821Y1078360D02*
D03*
X758821D02*
D03*
X746821D02*
D03*
X734821D02*
D03*
X722821D02*
D03*
X218821D02*
D03*
X230821Y1066360D02*
D03*
X266821D02*
D03*
X242821D02*
D03*
X218821D02*
D03*
X254821D02*
D03*
X278821D02*
D03*
X230821Y1054360D02*
D03*
X218821D02*
D03*
X242821D02*
D03*
X266821D02*
D03*
X254821D02*
D03*
X278821D02*
D03*
X230821Y1042360D02*
D03*
X266821D02*
D03*
X218821D02*
D03*
X242821D02*
D03*
X254821D02*
D03*
Y1030360D02*
D03*
X266821D02*
D03*
X242821D02*
D03*
X230821D02*
D03*
X218821D02*
D03*
X254821Y1018360D02*
D03*
X218821D02*
D03*
X230821D02*
D03*
X266821D02*
D03*
X242821D02*
D03*
X278821D02*
D03*
X254821Y1006360D02*
D03*
X242821D02*
D03*
X218821D02*
D03*
X326821Y1066360D02*
D03*
X338821D02*
D03*
X290821D02*
D03*
X302821D02*
D03*
X350821D02*
D03*
X314821D02*
D03*
X290821Y1054360D02*
D03*
X302821D02*
D03*
X314821D02*
D03*
X338821D02*
D03*
X350821D02*
D03*
X326821D02*
D03*
X278821Y1042360D02*
D03*
X314821D02*
D03*
X302821D02*
D03*
X290821D02*
D03*
X338821D02*
D03*
X326821D02*
D03*
X350821D02*
D03*
X278821Y1030360D02*
D03*
X338821D02*
D03*
X326821D02*
D03*
X302821D02*
D03*
X290821D02*
D03*
X350821D02*
D03*
X314821D02*
D03*
X338821Y1018360D02*
D03*
X290821D02*
D03*
X326821D02*
D03*
X302821D02*
D03*
X314821D02*
D03*
Y1006360D02*
D03*
X230821D02*
D03*
X266821D02*
D03*
X278821D02*
D03*
X218821Y994360D02*
D03*
X230821D02*
D03*
X242821D02*
D03*
X254821D02*
D03*
X266821D02*
D03*
X230821Y982360D02*
D03*
X218821D02*
D03*
X242821D02*
D03*
X254821D02*
D03*
X266821D02*
D03*
X278821D02*
D03*
X218821Y970360D02*
D03*
X230821D02*
D03*
X242821D02*
D03*
X254821D02*
D03*
X266821D02*
D03*
X278821D02*
D03*
X218821Y958360D02*
D03*
X230821D02*
D03*
X242821D02*
D03*
X254821D02*
D03*
X266821D02*
D03*
X278821D02*
D03*
X218821Y946360D02*
D03*
X230821D02*
D03*
X242821D02*
D03*
X254821D02*
D03*
X266821D02*
D03*
X278821D02*
D03*
X290821Y1006360D02*
D03*
X302821D02*
D03*
X338821D02*
D03*
X326821D02*
D03*
X278821Y994360D02*
D03*
X290821D02*
D03*
X302821D02*
D03*
X338821D02*
D03*
X326821D02*
D03*
X314821D02*
D03*
X350821D02*
D03*
X290821Y982360D02*
D03*
X302821D02*
D03*
X338821D02*
D03*
X314821D02*
D03*
X326821D02*
D03*
X290821Y970360D02*
D03*
X302821D02*
D03*
X326821D02*
D03*
X314821D02*
D03*
X338821D02*
D03*
X290821Y958360D02*
D03*
X302821D02*
D03*
X314821D02*
D03*
X338821D02*
D03*
X326821D02*
D03*
X350821D02*
D03*
X290821Y946360D02*
D03*
X302821D02*
D03*
X326821D02*
D03*
X314821D02*
D03*
X338821D02*
D03*
X350821Y1078360D02*
D03*
X374821Y1066360D02*
D03*
X362821D02*
D03*
X386821D02*
D03*
X398821D02*
D03*
X410821D02*
D03*
X362821Y1054360D02*
D03*
X374821D02*
D03*
X386821D02*
D03*
X398821D02*
D03*
X410821D02*
D03*
X362821Y1042360D02*
D03*
X374821D02*
D03*
X386821D02*
D03*
X398821D02*
D03*
X410821D02*
D03*
X374821Y1030360D02*
D03*
X362821D02*
D03*
X386821D02*
D03*
X398821D02*
D03*
X410821D02*
D03*
X362821Y1018360D02*
D03*
X350821D02*
D03*
X374821D02*
D03*
X386821D02*
D03*
X398821D02*
D03*
X410821D02*
D03*
X362821Y1006360D02*
D03*
X374821D02*
D03*
X350821D02*
D03*
X386821D02*
D03*
X410821D02*
D03*
X422821Y1042360D02*
D03*
Y1030360D02*
D03*
X434821D02*
D03*
X422821Y1018360D02*
D03*
X434821D02*
D03*
X422821Y1006360D02*
D03*
X398821D02*
D03*
X362821Y994360D02*
D03*
X398821D02*
D03*
X386821D02*
D03*
X374821D02*
D03*
X410821D02*
D03*
X374821Y982360D02*
D03*
X362821D02*
D03*
X386821D02*
D03*
X398821D02*
D03*
X350821D02*
D03*
X410821D02*
D03*
X422821D02*
D03*
X362821Y970360D02*
D03*
X398821D02*
D03*
X386821D02*
D03*
X374821D02*
D03*
X350821D02*
D03*
X410821D02*
D03*
X422821D02*
D03*
X386821Y958360D02*
D03*
X398821D02*
D03*
X374821D02*
D03*
X362821D02*
D03*
X410821D02*
D03*
X398821Y946360D02*
D03*
X374821D02*
D03*
X350821D02*
D03*
X386821D02*
D03*
X362821D02*
D03*
X410821D02*
D03*
X422821D02*
D03*
X434821Y1006360D02*
D03*
X446821D02*
D03*
X458821D02*
D03*
X482821D02*
D03*
X470821D02*
D03*
X422821Y994360D02*
D03*
X434821D02*
D03*
X446821D02*
D03*
X458821D02*
D03*
X470821D02*
D03*
X482821D02*
D03*
X434821Y982360D02*
D03*
X446821D02*
D03*
X458821D02*
D03*
X482821D02*
D03*
X470821D02*
D03*
X434821Y970360D02*
D03*
X446821D02*
D03*
X458821D02*
D03*
X470821D02*
D03*
X482821D02*
D03*
X422821Y958360D02*
D03*
X434821D02*
D03*
X446821D02*
D03*
X458821D02*
D03*
X470821D02*
D03*
X482821D02*
D03*
X434821Y946360D02*
D03*
X446821D02*
D03*
X458821D02*
D03*
X482821D02*
D03*
X470821D02*
D03*
X242821Y934360D02*
D03*
X266821D02*
D03*
X254821D02*
D03*
X230821D02*
D03*
X218821D02*
D03*
X254821Y922360D02*
D03*
X230821D02*
D03*
X266821D02*
D03*
X242821D02*
D03*
X218821D02*
D03*
X278821D02*
D03*
X266821Y910360D02*
D03*
X242821D02*
D03*
X254821D02*
D03*
X230821D02*
D03*
X218821D02*
D03*
X278821D02*
D03*
X266821Y898360D02*
D03*
X230821D02*
D03*
X218821D02*
D03*
X254821D02*
D03*
X242821D02*
D03*
Y886360D02*
D03*
X230821D02*
D03*
X266821D02*
D03*
X218821D02*
D03*
X254821D02*
D03*
X278821D02*
D03*
X218821Y874360D02*
D03*
X230821D02*
D03*
X242821D02*
D03*
X254821D02*
D03*
X278821Y934360D02*
D03*
X302821D02*
D03*
X290821D02*
D03*
X314821D02*
D03*
X338821D02*
D03*
X326821D02*
D03*
X350821D02*
D03*
X302821Y922360D02*
D03*
X290821D02*
D03*
X314821D02*
D03*
X350821D02*
D03*
X326821D02*
D03*
X338821D02*
D03*
X290821Y910360D02*
D03*
X302821D02*
D03*
X314821D02*
D03*
X326821D02*
D03*
X338821D02*
D03*
X350821D02*
D03*
X278821Y898360D02*
D03*
X290821D02*
D03*
X302821D02*
D03*
X314821D02*
D03*
X326821D02*
D03*
X338821D02*
D03*
X350821D02*
D03*
X290821Y886360D02*
D03*
X302821D02*
D03*
X314821D02*
D03*
X326821D02*
D03*
X338821D02*
D03*
X302821Y874360D02*
D03*
X266821D02*
D03*
X278821D02*
D03*
X218821Y862360D02*
D03*
X254821D02*
D03*
X242821D02*
D03*
X230821D02*
D03*
X266821D02*
D03*
X278821D02*
D03*
X254821Y850360D02*
D03*
X242821D02*
D03*
X230821D02*
D03*
X218821D02*
D03*
X266821D02*
D03*
X278821D02*
D03*
X242821Y838360D02*
D03*
X218821D02*
D03*
X254821D02*
D03*
X230821D02*
D03*
X266821D02*
D03*
X278821D02*
D03*
X230821Y826360D02*
D03*
X254821D02*
D03*
X218821D02*
D03*
X242821D02*
D03*
X266821D02*
D03*
X278821D02*
D03*
X254821Y814360D02*
D03*
X242821D02*
D03*
X230821D02*
D03*
X266821D02*
D03*
X278821D02*
D03*
X290821Y874360D02*
D03*
X314821D02*
D03*
X326821D02*
D03*
X338821D02*
D03*
X290821Y862360D02*
D03*
X302821D02*
D03*
X314821D02*
D03*
X338821D02*
D03*
X326821D02*
D03*
X350821D02*
D03*
X290821Y850360D02*
D03*
X302821D02*
D03*
X314821D02*
D03*
X338821D02*
D03*
X326821D02*
D03*
X350821D02*
D03*
X290821Y838360D02*
D03*
X302821D02*
D03*
X314821D02*
D03*
X326821D02*
D03*
X350821D02*
D03*
X338821D02*
D03*
X290821Y826360D02*
D03*
X302821D02*
D03*
X314821D02*
D03*
X338821D02*
D03*
X326821D02*
D03*
X290821Y814360D02*
D03*
X302821D02*
D03*
X314821D02*
D03*
X326821D02*
D03*
X338821D02*
D03*
X374821Y934360D02*
D03*
X386821D02*
D03*
X362821D02*
D03*
X398821D02*
D03*
X410821D02*
D03*
X374821Y922360D02*
D03*
X362821D02*
D03*
X398821D02*
D03*
X386821D02*
D03*
X410821D02*
D03*
X374821Y910360D02*
D03*
X398821D02*
D03*
X386821D02*
D03*
X362821D02*
D03*
X410821D02*
D03*
X422821D02*
D03*
X374821Y898360D02*
D03*
X362821D02*
D03*
X386821D02*
D03*
X398821D02*
D03*
X410821D02*
D03*
X422821D02*
D03*
X386821Y886360D02*
D03*
X350821D02*
D03*
X374821D02*
D03*
X398821D02*
D03*
X362821D02*
D03*
X410821D02*
D03*
X350821Y874360D02*
D03*
X386821D02*
D03*
X362821D02*
D03*
X410821D02*
D03*
X422821Y934360D02*
D03*
X434821D02*
D03*
X446821D02*
D03*
X458821D02*
D03*
X470821D02*
D03*
X482821D02*
D03*
X422821Y922360D02*
D03*
X434821D02*
D03*
X446821D02*
D03*
X458821D02*
D03*
X470821D02*
D03*
X482821D02*
D03*
X434821Y910360D02*
D03*
X446821D02*
D03*
X458821D02*
D03*
X470821D02*
D03*
X482821D02*
D03*
X494821D02*
D03*
X434821Y898360D02*
D03*
X446821D02*
D03*
X458821D02*
D03*
X470821D02*
D03*
X494821D02*
D03*
X482821D02*
D03*
X422821Y886360D02*
D03*
X434821D02*
D03*
X446821D02*
D03*
X458821D02*
D03*
X470821D02*
D03*
X482821D02*
D03*
X422821Y874360D02*
D03*
X446821D02*
D03*
X398821D02*
D03*
X374821D02*
D03*
X362821Y862360D02*
D03*
X398821D02*
D03*
X374821D02*
D03*
X386821D02*
D03*
X410821D02*
D03*
X422821D02*
D03*
X398821Y850360D02*
D03*
X386821D02*
D03*
X374821D02*
D03*
X362821D02*
D03*
X410821D02*
D03*
X422821D02*
D03*
X398821Y838360D02*
D03*
X362821D02*
D03*
X374821D02*
D03*
X386821D02*
D03*
X410821D02*
D03*
X398821Y826360D02*
D03*
X362821D02*
D03*
X386821D02*
D03*
X350821D02*
D03*
X374821D02*
D03*
X410821D02*
D03*
X398821Y814360D02*
D03*
X374821D02*
D03*
X362821D02*
D03*
X386821D02*
D03*
X350821D02*
D03*
X410821D02*
D03*
X422821D02*
D03*
X434821Y874360D02*
D03*
X458821D02*
D03*
X494821D02*
D03*
X470821D02*
D03*
X482821D02*
D03*
X434821Y862360D02*
D03*
X446821D02*
D03*
X458821D02*
D03*
X470821D02*
D03*
X482821D02*
D03*
X434821Y850360D02*
D03*
X446821D02*
D03*
X458821D02*
D03*
X470821D02*
D03*
X482821D02*
D03*
X422821Y838360D02*
D03*
X434821D02*
D03*
X446821D02*
D03*
X458821D02*
D03*
X470821D02*
D03*
X482821D02*
D03*
X422821Y826360D02*
D03*
X434821D02*
D03*
X446821D02*
D03*
X458821D02*
D03*
X482821D02*
D03*
X470821D02*
D03*
X434821Y814360D02*
D03*
X446821D02*
D03*
X458821D02*
D03*
X482821D02*
D03*
X470821D02*
D03*
X530821Y1006360D02*
D03*
X602821Y1078360D02*
D03*
X614821Y1066360D02*
D03*
X602821D02*
D03*
X614821Y1054360D02*
D03*
X602821D02*
D03*
Y1042360D02*
D03*
X614821D02*
D03*
Y1030360D02*
D03*
X602821D02*
D03*
X590821Y1018360D02*
D03*
X602821D02*
D03*
X494821Y1006360D02*
D03*
X518821D02*
D03*
X506821D02*
D03*
X542821D02*
D03*
Y994360D02*
D03*
X530821D02*
D03*
X506821D02*
D03*
X518821D02*
D03*
X494821D02*
D03*
X554821D02*
D03*
X506821Y982360D02*
D03*
X530821D02*
D03*
X542821D02*
D03*
X518821D02*
D03*
X494821D02*
D03*
X554821D02*
D03*
X506821Y970360D02*
D03*
X494821D02*
D03*
X518821D02*
D03*
X530821D02*
D03*
X542821D02*
D03*
X530821Y958360D02*
D03*
X542821D02*
D03*
X506821D02*
D03*
X494821D02*
D03*
X518821D02*
D03*
X554821D02*
D03*
X518821Y946360D02*
D03*
X506821D02*
D03*
X494821D02*
D03*
X542821D02*
D03*
X530821D02*
D03*
X554821Y1006360D02*
D03*
X614821D02*
D03*
X602821D02*
D03*
X566821D02*
D03*
X578821D02*
D03*
X590821D02*
D03*
X566821Y994360D02*
D03*
X614821D02*
D03*
X602821D02*
D03*
X590821D02*
D03*
X578821D02*
D03*
X590821Y982360D02*
D03*
X602821D02*
D03*
X614821D02*
D03*
X578821D02*
D03*
X566821D02*
D03*
X554821Y970360D02*
D03*
X590821D02*
D03*
X578821D02*
D03*
X602821D02*
D03*
X566821D02*
D03*
X614821D02*
D03*
X566821Y958360D02*
D03*
X590821D02*
D03*
X578821D02*
D03*
X602821D02*
D03*
X614821D02*
D03*
X554821Y946360D02*
D03*
X590821D02*
D03*
X602821D02*
D03*
X566821D02*
D03*
X578821D02*
D03*
X638821Y1066360D02*
D03*
X626821D02*
D03*
X650821D02*
D03*
X662821D02*
D03*
X674821D02*
D03*
X686821D02*
D03*
X662821Y1054360D02*
D03*
X638821D02*
D03*
X626821D02*
D03*
X650821D02*
D03*
X674821D02*
D03*
X686821D02*
D03*
X650821Y1042360D02*
D03*
X626821D02*
D03*
X662821D02*
D03*
X638821D02*
D03*
X674821D02*
D03*
X686821D02*
D03*
X662821Y1030360D02*
D03*
X638821D02*
D03*
X626821D02*
D03*
X650821D02*
D03*
X674821D02*
D03*
X686821D02*
D03*
X662821Y1018360D02*
D03*
X614821D02*
D03*
X626821D02*
D03*
X638821D02*
D03*
X650821D02*
D03*
X674821D02*
D03*
X686821D02*
D03*
X674821Y1006360D02*
D03*
X698821Y1066360D02*
D03*
X710821D02*
D03*
X722821D02*
D03*
X746821D02*
D03*
X758821D02*
D03*
X734821D02*
D03*
X698821Y1054360D02*
D03*
X710821D02*
D03*
X722821D02*
D03*
X746821D02*
D03*
X758821D02*
D03*
X734821D02*
D03*
X698821Y1042360D02*
D03*
X710821D02*
D03*
X734821D02*
D03*
X722821D02*
D03*
X746821D02*
D03*
X758821D02*
D03*
X698821Y1030360D02*
D03*
X710821D02*
D03*
X722821D02*
D03*
X734821D02*
D03*
X746821D02*
D03*
X758821D02*
D03*
X698821Y1018360D02*
D03*
X710821D02*
D03*
X722821D02*
D03*
X734821D02*
D03*
X758821D02*
D03*
X746821D02*
D03*
X734821Y1006360D02*
D03*
X758821D02*
D03*
X650821D02*
D03*
X662821D02*
D03*
X626821D02*
D03*
X638821D02*
D03*
X686821D02*
D03*
X650821Y994360D02*
D03*
X662821D02*
D03*
X638821D02*
D03*
X626821D02*
D03*
X674821D02*
D03*
X638821Y982360D02*
D03*
X650821D02*
D03*
X662821D02*
D03*
X626821D02*
D03*
X674821D02*
D03*
X686821D02*
D03*
X626821Y970360D02*
D03*
X638821D02*
D03*
X650821D02*
D03*
X662821D02*
D03*
X674821D02*
D03*
X686821D02*
D03*
X638821Y958360D02*
D03*
X662821D02*
D03*
X650821D02*
D03*
X626821D02*
D03*
X674821D02*
D03*
X686821D02*
D03*
X662821Y946360D02*
D03*
X638821D02*
D03*
X626821D02*
D03*
X674821D02*
D03*
X698821Y1006360D02*
D03*
X746821D02*
D03*
X710821D02*
D03*
X722821D02*
D03*
X686821Y994360D02*
D03*
X698821D02*
D03*
X758821D02*
D03*
X734821D02*
D03*
X746821D02*
D03*
X722821D02*
D03*
X710821D02*
D03*
X698821Y982360D02*
D03*
X758821D02*
D03*
X710821D02*
D03*
X734821D02*
D03*
X722821D02*
D03*
X746821D02*
D03*
X698821Y970360D02*
D03*
X710821D02*
D03*
X746821D02*
D03*
X722821D02*
D03*
X758821D02*
D03*
X734821D02*
D03*
X698821Y958360D02*
D03*
X746821D02*
D03*
X722821D02*
D03*
X734821D02*
D03*
X758821D02*
D03*
X710821D02*
D03*
X686821Y946360D02*
D03*
X698821D02*
D03*
X710821D02*
D03*
X542821Y934360D02*
D03*
X518821D02*
D03*
X554821D02*
D03*
X494821D02*
D03*
X506821D02*
D03*
X530821D02*
D03*
X542821Y922360D02*
D03*
X530821D02*
D03*
X518821D02*
D03*
X506821D02*
D03*
X494821D02*
D03*
X554821D02*
D03*
X566821D02*
D03*
X506821Y910360D02*
D03*
X542821D02*
D03*
X554821D02*
D03*
X530821D02*
D03*
X518821D02*
D03*
X530821Y898360D02*
D03*
X542821D02*
D03*
X554821D02*
D03*
X518821D02*
D03*
X506821D02*
D03*
X494821Y886360D02*
D03*
X530821D02*
D03*
X554821D02*
D03*
X518821D02*
D03*
X542821D02*
D03*
X506821D02*
D03*
Y874360D02*
D03*
X530821D02*
D03*
X566821D02*
D03*
X614821Y946360D02*
D03*
X566821Y934360D02*
D03*
X614821D02*
D03*
X602821D02*
D03*
X590821D02*
D03*
X578821D02*
D03*
X626821D02*
D03*
X602821Y922360D02*
D03*
X626821D02*
D03*
X614821D02*
D03*
X578821D02*
D03*
X590821D02*
D03*
X566821Y910360D02*
D03*
X614821D02*
D03*
X602821D02*
D03*
X590821D02*
D03*
X578821D02*
D03*
X566821Y898360D02*
D03*
X602821D02*
D03*
X614821D02*
D03*
X626821D02*
D03*
X578821D02*
D03*
X590821D02*
D03*
X566821Y886360D02*
D03*
X602821D02*
D03*
X590821D02*
D03*
X626821D02*
D03*
X578821D02*
D03*
X614821D02*
D03*
X602821Y874360D02*
D03*
X578821D02*
D03*
X590821D02*
D03*
X518821D02*
D03*
X542821D02*
D03*
X554821D02*
D03*
X506821Y862360D02*
D03*
X530821D02*
D03*
X494821D02*
D03*
X518821D02*
D03*
X542821D02*
D03*
X554821D02*
D03*
X530821Y850360D02*
D03*
X494821D02*
D03*
X518821D02*
D03*
X506821D02*
D03*
X542821D02*
D03*
X554821D02*
D03*
X530821Y838360D02*
D03*
X494821D02*
D03*
X506821D02*
D03*
X518821D02*
D03*
X542821D02*
D03*
X554821D02*
D03*
X494821Y826360D02*
D03*
X506821D02*
D03*
X518821D02*
D03*
X530821D02*
D03*
X542821D02*
D03*
X506821Y814360D02*
D03*
X494821D02*
D03*
X518821D02*
D03*
X530821D02*
D03*
X542821D02*
D03*
X554821D02*
D03*
X614821Y874360D02*
D03*
X626821D02*
D03*
X566821Y862360D02*
D03*
X578821D02*
D03*
X590821D02*
D03*
X602821D02*
D03*
X614821D02*
D03*
X566821Y850360D02*
D03*
X578821D02*
D03*
X590821D02*
D03*
X602821D02*
D03*
X614821D02*
D03*
X626821D02*
D03*
X566821Y838360D02*
D03*
X578821D02*
D03*
X590821D02*
D03*
X602821D02*
D03*
X614821D02*
D03*
X626821D02*
D03*
X554821Y826360D02*
D03*
X566821D02*
D03*
X578821D02*
D03*
X590821D02*
D03*
X602821D02*
D03*
X614821D02*
D03*
X626821D02*
D03*
X566821Y814360D02*
D03*
X578821D02*
D03*
X590821D02*
D03*
X602821D02*
D03*
X614821D02*
D03*
X626821D02*
D03*
X650821Y946360D02*
D03*
Y934360D02*
D03*
X638821D02*
D03*
X662821D02*
D03*
X674821D02*
D03*
X686821D02*
D03*
X698821D02*
D03*
X662821Y922360D02*
D03*
X650821D02*
D03*
X638821D02*
D03*
X674821D02*
D03*
X686821D02*
D03*
X698821D02*
D03*
X638821Y910360D02*
D03*
X662821D02*
D03*
X626821D02*
D03*
X650821D02*
D03*
X674821D02*
D03*
X686821D02*
D03*
X698821D02*
D03*
X638821Y898360D02*
D03*
X650821D02*
D03*
X662821D02*
D03*
X674821D02*
D03*
X686821D02*
D03*
X662821Y886360D02*
D03*
X650821D02*
D03*
X638821D02*
D03*
X674821D02*
D03*
X686821D02*
D03*
X698821D02*
D03*
X674821Y874360D02*
D03*
X734821Y946360D02*
D03*
X722821D02*
D03*
X758821D02*
D03*
X746821D02*
D03*
X734821Y934360D02*
D03*
X722821D02*
D03*
X746821D02*
D03*
X710821D02*
D03*
X758821D02*
D03*
X746821Y922360D02*
D03*
X722821D02*
D03*
X758821D02*
D03*
X710821D02*
D03*
X734821D02*
D03*
Y910360D02*
D03*
X758821D02*
D03*
X710821D02*
D03*
X746821D02*
D03*
X722821D02*
D03*
X698821Y898360D02*
D03*
X734821D02*
D03*
X746821D02*
D03*
X722821D02*
D03*
X710821D02*
D03*
X758821D02*
D03*
Y886360D02*
D03*
X722821D02*
D03*
X734821D02*
D03*
X710821D02*
D03*
X746821D02*
D03*
X722821Y874360D02*
D03*
X734821D02*
D03*
X638821D02*
D03*
X650821D02*
D03*
X662821D02*
D03*
X686821D02*
D03*
X662821Y862360D02*
D03*
X674821D02*
D03*
X638821D02*
D03*
X626821D02*
D03*
X686821D02*
D03*
X650821D02*
D03*
X662821Y850360D02*
D03*
X650821D02*
D03*
X674821D02*
D03*
X638821D02*
D03*
X686821D02*
D03*
X698821D02*
D03*
X650821Y838360D02*
D03*
X662821D02*
D03*
X674821D02*
D03*
X638821D02*
D03*
X686821D02*
D03*
X674821Y826360D02*
D03*
X650821D02*
D03*
X662821D02*
D03*
X638821D02*
D03*
X686821D02*
D03*
X698821D02*
D03*
X686821Y814360D02*
D03*
X650821D02*
D03*
X674821D02*
D03*
X662821D02*
D03*
X638821D02*
D03*
X698821Y874360D02*
D03*
X710821D02*
D03*
X758821D02*
D03*
X746821D02*
D03*
X698821Y862360D02*
D03*
X746821D02*
D03*
X710821D02*
D03*
X758821D02*
D03*
X734821D02*
D03*
X722821D02*
D03*
X758821Y850360D02*
D03*
X710821D02*
D03*
X746821D02*
D03*
X722821D02*
D03*
X734821D02*
D03*
X698821Y838360D02*
D03*
X758821D02*
D03*
X722821D02*
D03*
X710821D02*
D03*
X734821D02*
D03*
X746821D02*
D03*
X710821Y826360D02*
D03*
X758821D02*
D03*
X746821D02*
D03*
X722821D02*
D03*
X734821D02*
D03*
X698821Y814360D02*
D03*
X710821D02*
D03*
X758821D02*
D03*
X746821D02*
D03*
X734821D02*
D03*
X722821D02*
D03*
D87*
X595631Y202790D02*
D03*
X595631Y212290D02*
D03*
X749400Y135900D02*
D03*
Y126400D02*
D03*
X748750Y638600D02*
D03*
Y648100D02*
D03*
X735750Y638600D02*
D03*
Y648100D02*
D03*
X762750Y638600D02*
D03*
Y648100D02*
D03*
X698265Y384740D02*
D03*
Y394240D02*
D03*
D100*
X743737Y538400D02*
D03*
X753237D02*
D03*
X774237D02*
D03*
X764737D02*
D03*
X733237D02*
D03*
X723737D02*
D03*
X432235Y251747D02*
D03*
X441735D02*
D03*
D122*
X568331Y195490D02*
D03*
X581331D02*
D03*
X581331Y177090D02*
D03*
X574832D02*
D03*
X568331Y177090D02*
D03*
X574832Y195490D02*
D03*
D123*
X21502Y516530D02*
D03*
X105500D02*
D03*
X21502Y471531D02*
D03*
X105500D02*
D03*
Y494030D02*
D03*
D124*
X153425Y25490D02*
D03*
X128925D02*
D03*
D125*
X122675Y6990D02*
D03*
X159675D02*
D03*
D126*
X141175Y25490D02*
D03*
D127*
X717821Y1384910D02*
D03*
Y1417910D02*
D03*
X712821D02*
D03*
X707821D02*
D03*
X702821D02*
D03*
X697821D02*
D03*
X682821D02*
D03*
X677821D02*
D03*
X692821D02*
D03*
X687821D02*
D03*
X747821Y1384910D02*
D03*
X742821D02*
D03*
X702821D02*
D03*
X697821D02*
D03*
X712821D02*
D03*
X707821D02*
D03*
X727821D02*
D03*
X722821D02*
D03*
X737821D02*
D03*
X732821D02*
D03*
X757821D02*
D03*
X752821D02*
D03*
X727821Y1417910D02*
D03*
X722821D02*
D03*
X737821D02*
D03*
X732821D02*
D03*
X747821D02*
D03*
X742821D02*
D03*
X757821D02*
D03*
X752821D02*
D03*
X682821Y1384910D02*
D03*
X677821D02*
D03*
X687821D02*
D03*
X692821D02*
D03*
X485821Y1384907D02*
D03*
Y1417907D02*
D03*
X470821D02*
D03*
X465821D02*
D03*
X450821D02*
D03*
X445821D02*
D03*
X455821D02*
D03*
X460821D02*
D03*
X475821D02*
D03*
X480821D02*
D03*
X515821Y1384907D02*
D03*
X510821D02*
D03*
X470821D02*
D03*
X465821D02*
D03*
X480821D02*
D03*
X475821D02*
D03*
X495821D02*
D03*
X490821D02*
D03*
X505821D02*
D03*
X500821D02*
D03*
X505821Y1417907D02*
D03*
X500821D02*
D03*
X515821D02*
D03*
X510821D02*
D03*
X525821D02*
D03*
X520821D02*
D03*
Y1384907D02*
D03*
X450821D02*
D03*
X525821D02*
D03*
X490821Y1417907D02*
D03*
X495821D02*
D03*
X445821Y1384907D02*
D03*
X455821D02*
D03*
X460821D02*
D03*
X601821Y1384910D02*
D03*
Y1417910D02*
D03*
X586821D02*
D03*
X596821D02*
D03*
X561821D02*
D03*
X571821D02*
D03*
X581821D02*
D03*
X566821D02*
D03*
X591821D02*
D03*
X576821D02*
D03*
X631821Y1384910D02*
D03*
X626821D02*
D03*
X586821D02*
D03*
X581821D02*
D03*
X596821D02*
D03*
X591821D02*
D03*
X611821D02*
D03*
X606821D02*
D03*
X621821D02*
D03*
X616821D02*
D03*
X611821Y1417910D02*
D03*
X606821D02*
D03*
X621821D02*
D03*
X616821D02*
D03*
X631821D02*
D03*
X626821D02*
D03*
X641821D02*
D03*
X636821D02*
D03*
Y1384910D02*
D03*
X566821D02*
D03*
X641821D02*
D03*
X561821D02*
D03*
X571821D02*
D03*
X576821D02*
D03*
D128*
X761821Y1393911D02*
D03*
Y1398911D02*
D03*
Y1403911D02*
D03*
Y1408911D02*
D03*
X673821Y1403911D02*
D03*
Y1408911D02*
D03*
Y1398911D02*
D03*
Y1393911D02*
D03*
X529821Y1398907D02*
D03*
Y1393907D02*
D03*
Y1403907D02*
D03*
Y1408907D02*
D03*
X441821Y1398907D02*
D03*
Y1393907D02*
D03*
Y1403907D02*
D03*
Y1408907D02*
D03*
X645821Y1398910D02*
D03*
Y1393910D02*
D03*
Y1403910D02*
D03*
Y1408910D02*
D03*
X557821Y1398910D02*
D03*
Y1403910D02*
D03*
Y1408910D02*
D03*
Y1393910D02*
D03*
D129*
X717821Y1401411D02*
D03*
X485821Y1401407D02*
D03*
X601821Y1401410D02*
D03*
D130*
X709415Y309240D02*
D03*
Y358740D02*
D03*
Y314740D02*
D03*
Y298240D02*
D03*
Y347740D02*
D03*
Y342240D02*
D03*
X782414Y331240D02*
D03*
Y325740D02*
D03*
Y320240D02*
D03*
Y347740D02*
D03*
Y342240D02*
D03*
Y358740D02*
D03*
X709415Y303740D02*
D03*
X782414Y309240D02*
D03*
X709415Y320240D02*
D03*
Y331240D02*
D03*
Y325740D02*
D03*
X782414Y303740D02*
D03*
Y314740D02*
D03*
Y353240D02*
D03*
X709415D02*
D03*
X782414Y298240D02*
D03*
X709415Y336740D02*
D03*
X782414D02*
D03*
D131*
X757915Y283490D02*
D03*
X745915D02*
D03*
X709914D02*
D03*
X745915Y373490D02*
D03*
X757915D02*
D03*
X763914D02*
D03*
X739914Y283490D02*
D03*
X775915Y373490D02*
D03*
X781915Y283490D02*
D03*
X721915Y373490D02*
D03*
X733914D02*
D03*
X727915D02*
D03*
X733914Y283490D02*
D03*
X715915Y373490D02*
D03*
X739914D02*
D03*
X751915D02*
D03*
X769914D02*
D03*
Y283490D02*
D03*
X781915Y373490D02*
D03*
X709914D02*
D03*
X727915Y283490D02*
D03*
X763914D02*
D03*
X721915D02*
D03*
X715915D02*
D03*
X751915D02*
D03*
X775915D02*
D03*
D132*
X700915Y364490D02*
D03*
Y310490D02*
D03*
Y352490D02*
D03*
X790915Y334490D02*
D03*
Y328490D02*
D03*
Y316490D02*
D03*
Y352490D02*
D03*
Y346490D02*
D03*
Y364490D02*
D03*
X700915Y304490D02*
D03*
Y316490D02*
D03*
Y334490D02*
D03*
X790915Y298490D02*
D03*
Y358490D02*
D03*
Y340490D02*
D03*
Y310490D02*
D03*
Y322490D02*
D03*
Y292490D02*
D03*
X700915Y358490D02*
D03*
Y340490D02*
D03*
Y328490D02*
D03*
Y298490D02*
D03*
Y346490D02*
D03*
Y292490D02*
D03*
X790915Y304490D02*
D03*
X700915Y322490D02*
D03*
D133*
X748664Y291990D02*
D03*
X759665D02*
D03*
X748664Y364990D02*
D03*
X759665D02*
D03*
X765164D02*
D03*
X737664Y291990D02*
D03*
X770665Y364990D02*
D03*
X721164D02*
D03*
X732165D02*
D03*
X726665D02*
D03*
X715665D02*
D03*
X743165D02*
D03*
X754165D02*
D03*
X743165Y291990D02*
D03*
X754165D02*
D03*
X715665D02*
D03*
X732165D02*
D03*
X776164D02*
D03*
X770665D02*
D03*
X765164D02*
D03*
X776164Y364990D02*
D03*
X726665Y291990D02*
D03*
X721164D02*
D03*
X737664Y364990D02*
D03*
D134*
X703415Y285990D02*
D03*
X788415Y285990D02*
D03*
X703415Y370990D02*
D03*
X788415D02*
D03*
D135*
X827000Y759900D02*
D03*
X831000Y759900D02*
D03*
X863000Y759900D02*
D03*
X867000Y759900D02*
D03*
X859000Y789400D02*
D03*
X863000Y789400D02*
D03*
X847000D02*
D03*
X851000D02*
D03*
X835000Y789400D02*
D03*
X839000Y789400D02*
D03*
X823000Y789400D02*
D03*
X827000Y789400D02*
D03*
X839000Y759900D02*
D03*
X843000Y759900D02*
D03*
X851000Y759900D02*
D03*
X855000Y759900D02*
D03*
X867000Y789400D02*
D03*
X815000Y789400D02*
D03*
X819000Y789400D02*
D03*
Y759900D02*
D03*
X815000Y759900D02*
D03*
X823000D02*
D03*
X831000Y789400D02*
D03*
X835000Y759900D02*
D03*
X843000Y789400D02*
D03*
X847000Y759900D02*
D03*
X859000Y759900D02*
D03*
X855000Y789400D02*
D03*
D136*
X870750Y784650D02*
D03*
X870750Y780650D02*
D03*
X811250Y776650D02*
D03*
Y780650D02*
D03*
X870750Y764650D02*
D03*
X870750Y768650D02*
D03*
X870750Y776650D02*
D03*
X811250Y768650D02*
D03*
X811250Y764650D02*
D03*
X811250Y772650D02*
D03*
X811250Y784650D02*
D03*
X870750Y772650D02*
D03*
D137*
X841000Y774650D02*
D03*
D138*
X60250Y852016D02*
D03*
X75050Y847016D02*
D03*
Y842016D02*
D03*
X60250D02*
D03*
X75050Y852016D02*
D03*
D139*
X171739Y1300742D02*
D03*
Y1307242D02*
D03*
X145739Y1320242D02*
D03*
Y1313742D02*
D03*
X171739D02*
D03*
Y1320242D02*
D03*
X145739Y1300742D02*
D03*
Y1307242D02*
D03*
D140*
X491245Y1544750D02*
D03*
X461245D02*
D03*
X466245D02*
D03*
X446245D02*
D03*
X451245D02*
D03*
X476245D02*
D03*
X481245D02*
D03*
X496245D02*
D03*
X511245D02*
D03*
X506245D02*
D03*
X431245D02*
D03*
X436245D02*
D03*
X416245D02*
D03*
X421245D02*
D03*
X516245D02*
D03*
X411245D02*
D03*
X426245D02*
D03*
X441245D02*
D03*
X456245D02*
D03*
X471245D02*
D03*
X486245D02*
D03*
X501245D02*
D03*
X141245D02*
D03*
X136245D02*
D03*
X156245D02*
D03*
X151245D02*
D03*
X186245D02*
D03*
X181245D02*
D03*
X226245D02*
D03*
X231245D02*
D03*
X216245D02*
D03*
X211245D02*
D03*
X166245D02*
D03*
X171245D02*
D03*
X196245D02*
D03*
X201245D02*
D03*
X236245D02*
D03*
X131245D02*
D03*
X146245D02*
D03*
X161245D02*
D03*
X176245D02*
D03*
X191245D02*
D03*
X206245D02*
D03*
X221245D02*
D03*
X701245D02*
D03*
X696245D02*
D03*
X716245D02*
D03*
X711245D02*
D03*
X771245D02*
D03*
X786245D02*
D03*
X791245D02*
D03*
X776245D02*
D03*
X761245D02*
D03*
X756245D02*
D03*
X731245D02*
D03*
X726245D02*
D03*
X746245D02*
D03*
X741245D02*
D03*
X796245D02*
D03*
X691245D02*
D03*
X706245D02*
D03*
X721245D02*
D03*
X736245D02*
D03*
X751245D02*
D03*
X766245D02*
D03*
X781245D02*
D03*
D141*
X392245Y1577250D02*
D03*
X535245D02*
D03*
X112245D02*
D03*
X255245D02*
D03*
X672245D02*
D03*
X815245D02*
D03*
D142*
X153000Y1382000D02*
D03*
X116000Y1382000D02*
D03*
X24000Y1363000D02*
D03*
X61000Y1363000D02*
D03*
D143*
X162920Y1373230D02*
D03*
X149680Y1373230D02*
D03*
X143080Y1373230D02*
D03*
X156320Y1373230D02*
D03*
X162920Y1401930D02*
D03*
X156320Y1401930D02*
D03*
X149680Y1401930D02*
D03*
X143080Y1401930D02*
D03*
X106080Y1373230D02*
D03*
X112680Y1373230D02*
D03*
X119320Y1373230D02*
D03*
X125920Y1373230D02*
D03*
X112680Y1401930D02*
D03*
X119320D02*
D03*
X125920D02*
D03*
X106080Y1401930D02*
D03*
X33920Y1343070D02*
D03*
X27320Y1343070D02*
D03*
X20680D02*
D03*
X14080Y1343070D02*
D03*
X14080Y1371770D02*
D03*
X20680Y1371770D02*
D03*
X27320D02*
D03*
X33920Y1371770D02*
D03*
X70920Y1343070D02*
D03*
X51080Y1343070D02*
D03*
X57680Y1343070D02*
D03*
X64320Y1343070D02*
D03*
X70920Y1371770D02*
D03*
X64320Y1371770D02*
D03*
X57680D02*
D03*
X51080Y1371770D02*
D03*
D144*
X216499Y119999D02*
D03*
X216499Y102001D02*
D03*
X231501D02*
D03*
X231501Y119999D02*
D03*
X169001Y102001D02*
D03*
X153999Y119999D02*
D03*
Y102001D02*
D03*
X169001Y119999D02*
D03*
D145*
X224000Y102001D02*
D03*
Y119999D02*
D03*
X161500Y102001D02*
D03*
Y119999D02*
D03*
D146*
X53000Y1299650D02*
D03*
X53000Y1318650D02*
D03*
X53000Y1309150D02*
D03*
X27000Y1299650D02*
D03*
X27000Y1318650D02*
D03*
X27000Y1309150D02*
D03*
X124000Y1445080D02*
D03*
X124000Y1426080D02*
D03*
X124000Y1435580D02*
D03*
X150000Y1445080D02*
D03*
Y1426080D02*
D03*
Y1435580D02*
D03*
D147*
X728550Y8549D02*
D03*
Y16449D02*
D03*
X736450Y16449D02*
D03*
X736450Y8549D02*
D03*
X863550Y8549D02*
D03*
X863550Y16449D02*
D03*
X871450D02*
D03*
Y8549D02*
D03*
X818550D02*
D03*
Y16449D02*
D03*
X826450D02*
D03*
X826450Y8549D02*
D03*
X773550Y8549D02*
D03*
X773550Y16449D02*
D03*
X781450Y16449D02*
D03*
Y8549D02*
D03*
D148*
X214175Y50240D02*
D03*
X224175D02*
D03*
X234175D02*
D03*
X204175D02*
D03*
D149*
X191175Y11490D02*
D03*
X247175D02*
D03*
D150*
X186245Y1527165D02*
D03*
Y1518415D02*
D03*
X181245D02*
D03*
Y1527165D02*
D03*
X166245Y1518415D02*
D03*
Y1527165D02*
D03*
X171245D02*
D03*
Y1518415D02*
D03*
X141244D02*
D03*
Y1527165D02*
D03*
X136245Y1518415D02*
D03*
Y1527165D02*
D03*
X156245Y1518415D02*
D03*
Y1527165D02*
D03*
X151245D02*
D03*
Y1518415D02*
D03*
X701245D02*
D03*
Y1527165D02*
D03*
X696245Y1518415D02*
D03*
Y1527165D02*
D03*
X716245Y1518415D02*
D03*
Y1527165D02*
D03*
X711245Y1518415D02*
D03*
Y1527165D02*
D03*
X436245Y1518415D02*
D03*
Y1527165D02*
D03*
X431245Y1518415D02*
D03*
Y1527165D02*
D03*
X421245D02*
D03*
Y1518415D02*
D03*
X416245Y1527165D02*
D03*
Y1518415D02*
D03*
X731245D02*
D03*
Y1527165D02*
D03*
X726245Y1518415D02*
D03*
Y1527165D02*
D03*
X746245Y1518415D02*
D03*
Y1527165D02*
D03*
X741245Y1518415D02*
D03*
Y1527165D02*
D03*
X451245Y1518415D02*
D03*
Y1527165D02*
D03*
X446245Y1518415D02*
D03*
Y1527165D02*
D03*
X466245Y1518415D02*
D03*
Y1527165D02*
D03*
X461245Y1518415D02*
D03*
Y1527165D02*
D03*
X216245D02*
D03*
Y1518415D02*
D03*
X211245Y1527165D02*
D03*
Y1518415D02*
D03*
X196245D02*
D03*
Y1527165D02*
D03*
X201245Y1518415D02*
D03*
Y1527165D02*
D03*
X771245Y1518415D02*
D03*
Y1527165D02*
D03*
X776245Y1518415D02*
D03*
Y1527165D02*
D03*
X761245D02*
D03*
Y1518415D02*
D03*
X756245Y1527165D02*
D03*
Y1518415D02*
D03*
X496245D02*
D03*
Y1527165D02*
D03*
X481245D02*
D03*
Y1518415D02*
D03*
X476245Y1527165D02*
D03*
Y1518415D02*
D03*
X491245D02*
D03*
Y1527165D02*
D03*
X860024Y643622D02*
D03*
Y652372D02*
D03*
X865025Y643622D02*
D03*
Y652372D02*
D03*
X875025Y643622D02*
D03*
Y652372D02*
D03*
X880025Y643622D02*
D03*
Y652372D02*
D03*
X877305Y527625D02*
D03*
Y536375D02*
D03*
X882305Y527625D02*
D03*
Y536375D02*
D03*
X892305D02*
D03*
Y527625D02*
D03*
X897305D02*
D03*
Y536375D02*
D03*
X829025Y652372D02*
D03*
Y643622D02*
D03*
X844025Y652372D02*
D03*
X844025Y643622D02*
D03*
X839025D02*
D03*
Y652372D02*
D03*
X824025Y643622D02*
D03*
Y652372D02*
D03*
X973000Y324125D02*
D03*
Y315375D02*
D03*
X978000D02*
D03*
Y324125D02*
D03*
X993000D02*
D03*
Y315375D02*
D03*
X988000Y324125D02*
D03*
Y315375D02*
D03*
X959000D02*
D03*
Y324125D02*
D03*
X964000D02*
D03*
Y315375D02*
D03*
X944000Y324125D02*
D03*
Y315375D02*
D03*
X949000Y324125D02*
D03*
Y315375D02*
D03*
D151*
X176245Y1519560D02*
D03*
X146245D02*
D03*
X706245D02*
D03*
X426245D02*
D03*
X736245D02*
D03*
X456245D02*
D03*
X206245D02*
D03*
X766245D02*
D03*
X486245D02*
D03*
X870024Y651227D02*
D03*
X887305Y535230D02*
D03*
X834025Y651227D02*
D03*
X983000Y316520D02*
D03*
X954000D02*
D03*
D152*
X176245Y1526027D02*
D03*
X146245D02*
D03*
X706245D02*
D03*
X426245D02*
D03*
X736245D02*
D03*
X456245D02*
D03*
X206245D02*
D03*
X766245D02*
D03*
X486245D02*
D03*
X870024Y644760D02*
D03*
X887305Y528763D02*
D03*
X834025Y644760D02*
D03*
X983000Y322987D02*
D03*
X954000D02*
D03*
D153*
X184500Y116750D02*
D03*
Y132250D02*
D03*
X184500Y104750D02*
D03*
X184500Y89250D02*
D03*
D154*
X704810Y43840D02*
D03*
X696810Y111340D02*
D03*
X700810Y43840D02*
D03*
X668810D02*
D03*
X684810D02*
D03*
X668810Y111340D02*
D03*
X716810Y43840D02*
D03*
X708810Y111340D02*
D03*
X720810Y43840D02*
D03*
Y111340D02*
D03*
X700810D02*
D03*
X704810D02*
D03*
X716810D02*
D03*
X712810D02*
D03*
X708810Y43840D02*
D03*
X676810Y111340D02*
D03*
X672810D02*
D03*
X676810Y43840D02*
D03*
X692810D02*
D03*
X688810D02*
D03*
X680810D02*
D03*
X696810D02*
D03*
X688810Y111340D02*
D03*
X692810D02*
D03*
X672810Y43840D02*
D03*
X684810Y111340D02*
D03*
X680810D02*
D03*
X712810Y43840D02*
D03*
D155*
X728560Y75590D02*
D03*
X661060Y91590D02*
D03*
X728560Y71590D02*
D03*
X661060Y87590D02*
D03*
Y83590D02*
D03*
Y79590D02*
D03*
Y51590D02*
D03*
Y59590D02*
D03*
X728560Y99590D02*
D03*
Y51590D02*
D03*
X661060Y55590D02*
D03*
Y63590D02*
D03*
Y67590D02*
D03*
X728560Y91590D02*
D03*
Y55590D02*
D03*
Y79590D02*
D03*
Y59590D02*
D03*
Y95590D02*
D03*
Y103590D02*
D03*
Y87590D02*
D03*
Y83590D02*
D03*
Y63590D02*
D03*
Y67590D02*
D03*
X661060Y103590D02*
D03*
Y99590D02*
D03*
Y95590D02*
D03*
Y71590D02*
D03*
Y75590D02*
D03*
D156*
X694810Y77590D02*
D03*
D157*
X105000Y929655D02*
D03*
X163000D02*
D03*
X105000Y1071650D02*
D03*
X163000D02*
D03*
X105000Y1184650D02*
D03*
X163000Y1184650D02*
D03*
D158*
X374215Y363490D02*
D03*
X457615Y308490D02*
D03*
X374215Y358490D02*
D03*
X463115Y330990D02*
D03*
X368714Y355990D02*
D03*
X457615Y343490D02*
D03*
Y353490D02*
D03*
X463115Y340990D02*
D03*
X368714Y335990D02*
D03*
Y340990D02*
D03*
Y325990D02*
D03*
Y330990D02*
D03*
X463115Y300990D02*
D03*
X368714D02*
D03*
Y310990D02*
D03*
X374215Y308490D02*
D03*
X368714Y305990D02*
D03*
X374215Y353490D02*
D03*
X368714Y360990D02*
D03*
X463115Y350990D02*
D03*
X457615Y348490D02*
D03*
X463115Y335990D02*
D03*
X368714Y320990D02*
D03*
Y315990D02*
D03*
X463115D02*
D03*
X457615Y333490D02*
D03*
X368714Y365990D02*
D03*
X457615Y328490D02*
D03*
X463115Y345990D02*
D03*
X374215Y303490D02*
D03*
X463115Y325990D02*
D03*
Y310990D02*
D03*
X368714Y350990D02*
D03*
X374215Y348490D02*
D03*
X457615Y318490D02*
D03*
X463115Y320990D02*
D03*
Y285990D02*
D03*
Y290990D02*
D03*
Y295990D02*
D03*
Y305990D02*
D03*
Y355990D02*
D03*
Y360990D02*
D03*
Y365990D02*
D03*
Y370990D02*
D03*
X457615Y293490D02*
D03*
Y303490D02*
D03*
Y338490D02*
D03*
Y358490D02*
D03*
Y363490D02*
D03*
X368714Y285990D02*
D03*
Y290990D02*
D03*
Y295990D02*
D03*
Y345990D02*
D03*
Y370990D02*
D03*
X374215Y293490D02*
D03*
Y313490D02*
D03*
Y343490D02*
D03*
Y298490D02*
D03*
Y318490D02*
D03*
Y323490D02*
D03*
Y333490D02*
D03*
X457615Y298490D02*
D03*
Y313490D02*
D03*
Y323490D02*
D03*
X374215Y328490D02*
D03*
Y338490D02*
D03*
D159*
X445915Y370190D02*
D03*
X405915D02*
D03*
X383414Y281290D02*
D03*
X388414D02*
D03*
X380914Y286790D02*
D03*
X385914D02*
D03*
X393415Y375690D02*
D03*
X435914Y370190D02*
D03*
X388415Y375690D02*
D03*
X383414D02*
D03*
X440914Y370190D02*
D03*
X408415Y375690D02*
D03*
X403415D02*
D03*
X430915Y370190D02*
D03*
X398415Y375690D02*
D03*
X420915Y286790D02*
D03*
X425914D02*
D03*
Y370190D02*
D03*
X410914D02*
D03*
X413414Y281290D02*
D03*
X408415D02*
D03*
X418414D02*
D03*
X435914Y286790D02*
D03*
X438414Y281290D02*
D03*
X450914Y286790D02*
D03*
X445915D02*
D03*
X433415Y281290D02*
D03*
X428415D02*
D03*
X448414D02*
D03*
X443414D02*
D03*
X390914Y370190D02*
D03*
X458415Y281290D02*
D03*
X453414D02*
D03*
X423414D02*
D03*
X378414D02*
D03*
X373414D02*
D03*
X455914Y286790D02*
D03*
X440914D02*
D03*
X430914D02*
D03*
X410914D02*
D03*
X400914D02*
D03*
X390914D02*
D03*
X375914D02*
D03*
X455915Y370190D02*
D03*
X450914D02*
D03*
X420915D02*
D03*
X400914D02*
D03*
X395914D02*
D03*
X380915D02*
D03*
X375914D02*
D03*
X458415Y375690D02*
D03*
X453415D02*
D03*
X443415D02*
D03*
X438414D02*
D03*
X373415D02*
D03*
X378415D02*
D03*
X413415D02*
D03*
X423415D02*
D03*
X428415D02*
D03*
X433415D02*
D03*
X398414Y281290D02*
D03*
X403414D02*
D03*
X393414D02*
D03*
X395914Y286790D02*
D03*
X385914Y370190D02*
D03*
X415914D02*
D03*
X418415Y375690D02*
D03*
X448414D02*
D03*
X405914Y286790D02*
D03*
X415914D02*
D03*
D160*
Y295490D02*
D03*
Y361490D02*
D03*
D161*
X382915Y328490D02*
D03*
X448914D02*
D03*
D162*
X393414Y320990D02*
D03*
Y305990D02*
D03*
X408414Y320990D02*
D03*
Y305990D02*
D03*
X438414Y335990D02*
D03*
X423414Y350990D02*
D03*
Y335990D02*
D03*
X438414Y350990D02*
D03*
D163*
Y305990D02*
D03*
X423414D02*
D03*
Y320990D02*
D03*
X438414D02*
D03*
X393414Y335990D02*
D03*
X408414D02*
D03*
X393414Y350990D02*
D03*
X408414D02*
D03*
D164*
X715310Y206090D02*
D03*
X725310Y206090D02*
D03*
X730310D02*
D03*
X720310Y206090D02*
D03*
X720310Y219090D02*
D03*
X725310D02*
D03*
X715310Y219090D02*
D03*
D165*
X37650Y797690D02*
D03*
Y778690D02*
D03*
X41650D02*
D03*
Y797690D02*
D03*
X344407Y234736D02*
D03*
Y253736D02*
D03*
X340407Y234736D02*
D03*
Y253736D02*
D03*
X478500Y672501D02*
D03*
X462500Y658501D02*
D03*
X470500Y658500D02*
D03*
X474500Y658501D02*
D03*
X466500D02*
D03*
X470500Y672501D02*
D03*
X474500D02*
D03*
X478500Y658501D02*
D03*
X466500Y672501D02*
D03*
X462500D02*
D03*
X102865Y1475748D02*
D03*
X106865Y1489748D02*
D03*
X110865Y1489748D02*
D03*
X114865Y1489748D02*
D03*
X118865D02*
D03*
X118865Y1475748D02*
D03*
X114865Y1475748D02*
D03*
X110865Y1475748D02*
D03*
X106865Y1475748D02*
D03*
X102865Y1489748D02*
D03*
X478500Y738412D02*
D03*
X470500D02*
D03*
X474500D02*
D03*
X466500D02*
D03*
X470500Y724412D02*
D03*
X466500Y724412D02*
D03*
X474500D02*
D03*
X462500Y738412D02*
D03*
X462500Y724412D02*
D03*
X478500D02*
D03*
X527892Y738687D02*
D03*
X523892Y724687D02*
D03*
X519892Y724687D02*
D03*
X515892Y724687D02*
D03*
X511892D02*
D03*
X523892Y738687D02*
D03*
X519892D02*
D03*
X515892D02*
D03*
X511892D02*
D03*
X527892Y724687D02*
D03*
X106678Y697860D02*
D03*
X110678D02*
D03*
X114678D02*
D03*
X118678Y697860D02*
D03*
X106678Y716861D02*
D03*
X110678D02*
D03*
X114678Y716861D02*
D03*
D166*
X49150Y786190D02*
D03*
Y782190D02*
D03*
X49150Y790190D02*
D03*
X49150Y794190D02*
D03*
X30150Y782190D02*
D03*
Y786190D02*
D03*
Y790190D02*
D03*
X332907Y238236D02*
D03*
Y242236D02*
D03*
Y246236D02*
D03*
Y250236D02*
D03*
X351907D02*
D03*
Y246236D02*
D03*
Y242236D02*
D03*
X479000Y665500D02*
D03*
X462000D02*
D03*
X102365Y1482748D02*
D03*
X119365D02*
D03*
X479000Y731412D02*
D03*
X462000D02*
D03*
X528392Y731687D02*
D03*
X511392D02*
D03*
X122178Y709361D02*
D03*
X103178Y709361D02*
D03*
X103178Y705360D02*
D03*
X122178D02*
D03*
D167*
X49000Y948155D02*
D03*
X70000D02*
D03*
Y911155D02*
D03*
X56000Y948155D02*
D03*
X38750D02*
D03*
X49000Y911155D02*
D03*
X38750D02*
D03*
X56000D02*
D03*
X70000Y1090150D02*
D03*
Y1053150D02*
D03*
X56000Y1090150D02*
D03*
X49000Y1090150D02*
D03*
X56000Y1053150D02*
D03*
X38750Y1053150D02*
D03*
X38750Y1090150D02*
D03*
X49000Y1053150D02*
D03*
X70000Y1203150D02*
D03*
Y1166150D02*
D03*
X56000Y1203150D02*
D03*
X38750Y1203150D02*
D03*
X38750Y1166150D02*
D03*
X49000D02*
D03*
X56000Y1166150D02*
D03*
X49000Y1203150D02*
D03*
D168*
X63000Y912655D02*
D03*
X63000Y946655D02*
D03*
X63000Y1054650D02*
D03*
X63000Y1088650D02*
D03*
X63000Y1167650D02*
D03*
X63000Y1201650D02*
D03*
D169*
X76500Y932155D02*
D03*
X76500Y1074150D02*
D03*
Y1187150D02*
D03*
D170*
X37250Y924655D02*
D03*
Y934655D02*
D03*
X37250Y919655D02*
D03*
X37250Y939655D02*
D03*
Y929655D02*
D03*
X37250Y1066650D02*
D03*
Y1061650D02*
D03*
Y1081650D02*
D03*
Y1076650D02*
D03*
Y1071650D02*
D03*
X37250Y1189650D02*
D03*
X37250Y1174650D02*
D03*
Y1194650D02*
D03*
X37250Y1179650D02*
D03*
Y1184650D02*
D03*
D171*
X81250Y912405D02*
D03*
X81250Y946905D02*
D03*
X81250Y1054400D02*
D03*
Y1088900D02*
D03*
X81250Y1167400D02*
D03*
Y1201900D02*
D03*
D172*
X312761Y391747D02*
D03*
X237261Y414247D02*
D03*
Y419247D02*
D03*
Y429247D02*
D03*
X312761Y261747D02*
D03*
Y266747D02*
D03*
Y271747D02*
D03*
Y296747D02*
D03*
Y306747D02*
D03*
Y311747D02*
D03*
Y316747D02*
D03*
Y321747D02*
D03*
Y331747D02*
D03*
Y336747D02*
D03*
Y356747D02*
D03*
Y361747D02*
D03*
Y366747D02*
D03*
Y386747D02*
D03*
Y416747D02*
D03*
X237261Y379247D02*
D03*
Y384247D02*
D03*
Y349247D02*
D03*
Y354247D02*
D03*
Y319247D02*
D03*
Y324247D02*
D03*
Y289247D02*
D03*
Y294247D02*
D03*
Y259247D02*
D03*
Y264247D02*
D03*
Y364247D02*
D03*
Y369247D02*
D03*
Y334247D02*
D03*
Y339247D02*
D03*
Y304247D02*
D03*
Y309247D02*
D03*
Y274247D02*
D03*
Y279247D02*
D03*
X312761Y276747D02*
D03*
Y281747D02*
D03*
Y286747D02*
D03*
Y291747D02*
D03*
Y251747D02*
D03*
Y256747D02*
D03*
Y421747D02*
D03*
Y426747D02*
D03*
Y431747D02*
D03*
Y301747D02*
D03*
Y381747D02*
D03*
Y376747D02*
D03*
Y371747D02*
D03*
Y346747D02*
D03*
Y351747D02*
D03*
X237261Y249247D02*
D03*
Y254247D02*
D03*
Y269247D02*
D03*
Y284247D02*
D03*
Y299247D02*
D03*
Y314247D02*
D03*
Y329247D02*
D03*
Y359247D02*
D03*
Y344247D02*
D03*
Y374247D02*
D03*
X312761Y326747D02*
D03*
Y341747D02*
D03*
X237261Y389247D02*
D03*
Y424247D02*
D03*
Y434247D02*
D03*
D173*
X245011Y238247D02*
D03*
Y445247D02*
D03*
D174*
X976011Y676090D02*
D03*
X990511D02*
D03*
X976011Y659090D02*
D03*
X990511D02*
D03*
D175*
X697560Y238590D02*
D03*
X717560D02*
D03*
D176*
X943761Y768540D02*
D03*
X943761Y763540D02*
D03*
Y758540D02*
D03*
Y753540D02*
D03*
X943771Y748540D02*
D03*
X943761Y743540D02*
D03*
X943761Y733540D02*
D03*
X943761Y728540D02*
D03*
X943761Y723540D02*
D03*
X928761Y761040D02*
D03*
Y756040D02*
D03*
Y751040D02*
D03*
Y771040D02*
D03*
Y766040D02*
D03*
Y726040D02*
D03*
Y741040D02*
D03*
Y736040D02*
D03*
Y746040D02*
D03*
Y731040D02*
D03*
X943761Y738540D02*
D03*
X928761Y721040D02*
D03*
X943761Y718540D02*
D03*
X943761Y773540D02*
D03*
X928761Y776040D02*
D03*
D177*
X943756Y713440D02*
D03*
Y781140D02*
D03*
D178*
X230002Y718500D02*
D03*
X250002D02*
D03*
X270002D02*
D03*
X290002D02*
D03*
D179*
X206003Y741000D02*
D03*
X314002D02*
D03*
D180*
X750750Y585000D02*
D03*
X760750Y605000D02*
D03*
Y590000D02*
D03*
X755750Y605000D02*
D03*
Y600000D02*
D03*
Y595000D02*
D03*
Y585000D02*
D03*
Y580000D02*
D03*
X750750Y595000D02*
D03*
Y590000D02*
D03*
Y580000D02*
D03*
Y575000D02*
D03*
X745750Y600000D02*
D03*
Y595000D02*
D03*
Y590000D02*
D03*
Y585000D02*
D03*
Y580000D02*
D03*
X735750Y605000D02*
D03*
Y575000D02*
D03*
X755750Y590000D02*
D03*
X735750Y595000D02*
D03*
X765750Y590000D02*
D03*
Y605000D02*
D03*
Y580000D02*
D03*
Y585000D02*
D03*
X740750Y595000D02*
D03*
X735750Y590000D02*
D03*
X765750Y600000D02*
D03*
Y575000D02*
D03*
X740750Y590000D02*
D03*
X765750Y595000D02*
D03*
X735750Y600000D02*
D03*
X760750Y575000D02*
D03*
X740750Y600000D02*
D03*
X735750Y585000D02*
D03*
X740750Y580000D02*
D03*
Y585000D02*
D03*
X735750Y580000D02*
D03*
X750750Y605000D02*
D03*
Y600000D02*
D03*
X740750Y575000D02*
D03*
X745750D02*
D03*
X755750D02*
D03*
X760750Y580000D02*
D03*
Y595000D02*
D03*
Y585000D02*
D03*
X745750Y605000D02*
D03*
X740750D02*
D03*
X760750Y600000D02*
D03*
D181*
X356321Y758489D02*
D03*
Y763489D02*
D03*
X385321Y758489D02*
D03*
Y768489D02*
D03*
X356321D02*
D03*
X385321Y763489D02*
D03*
D182*
X370821D02*
D03*
D183*
X621670Y254000D02*
D03*
Y279400D02*
D03*
X676270D02*
D03*
X621670Y304800D02*
D03*
X676270D02*
D03*
Y254000D02*
D03*
D184*
X413899Y562500D02*
D03*
Y617500D02*
D03*
X109099Y562500D02*
D03*
X134499D02*
D03*
X159899D02*
D03*
X439299D02*
D03*
X464699D02*
D03*
X388499Y617500D02*
D03*
X363099D02*
D03*
X337699Y562500D02*
D03*
X312299D02*
D03*
X363099D02*
D03*
X464699Y617500D02*
D03*
X490099Y562500D02*
D03*
X159899Y617500D02*
D03*
X185299D02*
D03*
X515499D02*
D03*
X210699Y562500D02*
D03*
Y617500D02*
D03*
X515499Y562500D02*
D03*
X540899Y617500D02*
D03*
X566299D02*
D03*
X261499Y562500D02*
D03*
Y617500D02*
D03*
X286899D02*
D03*
X337699D02*
D03*
X540899Y562500D02*
D03*
X236099D02*
D03*
X83699D02*
D03*
X286899D02*
D03*
X109099Y617500D02*
D03*
X83699D02*
D03*
X134499D02*
D03*
X185299Y562500D02*
D03*
X236099Y617500D02*
D03*
X388499Y562500D02*
D03*
X312299Y617500D02*
D03*
X439299D02*
D03*
X490099D02*
D03*
X566299Y562500D02*
D03*
D185*
X145100Y158410D02*
D03*
X200100Y183810D02*
D03*
X145100Y209210D02*
D03*
X200100Y158410D02*
D03*
Y260010D02*
D03*
Y209210D02*
D03*
Y234610D02*
D03*
X145100D02*
D03*
Y183810D02*
D03*
Y260010D02*
D03*
D186*
X743066Y72744D02*
D03*
X748566D02*
D03*
X743060Y96590D02*
D03*
X748560D02*
D03*
X743060Y44590D02*
D03*
X748560D02*
D03*
X743060Y118590D02*
D03*
X748560D02*
D03*
X743060Y105590D02*
D03*
X748560D02*
D03*
X743060Y112340D02*
D03*
X748560D02*
D03*
X730060Y121590D02*
D03*
X735560D02*
D03*
X741131Y128770D02*
D03*
X735631D02*
D03*
X691750Y131700D02*
D03*
X686250D02*
D03*
X698250D02*
D03*
X703750D02*
D03*
X691750Y125700D02*
D03*
X686250D02*
D03*
X755987Y548650D02*
D03*
X750487D02*
D03*
X755987Y554650D02*
D03*
X750487D02*
D03*
X751500Y625350D02*
D03*
X746000D02*
D03*
X751500Y631350D02*
D03*
X746000D02*
D03*
X733000Y625350D02*
D03*
X738500D02*
D03*
X733000Y631350D02*
D03*
X738500D02*
D03*
X761987Y548650D02*
D03*
X767487D02*
D03*
X761987Y554650D02*
D03*
X767487D02*
D03*
X720987Y548650D02*
D03*
X726487D02*
D03*
X720987Y554650D02*
D03*
X726487D02*
D03*
X765500Y625350D02*
D03*
X760000D02*
D03*
X765500Y631350D02*
D03*
X760000D02*
D03*
X801164Y292490D02*
D03*
X806665D02*
D03*
X801164Y342490D02*
D03*
X806665D02*
D03*
X801164Y310490D02*
D03*
X806665D02*
D03*
X801164Y322490D02*
D03*
X806665D02*
D03*
X782250Y382750D02*
D03*
X787750D02*
D03*
X690915Y358490D02*
D03*
X685415D02*
D03*
X690665Y340490D02*
D03*
X685164D02*
D03*
X690665Y328490D02*
D03*
X685164D02*
D03*
X698560Y273240D02*
D03*
X704060D02*
D03*
X690665Y322490D02*
D03*
X685164D02*
D03*
X801164Y304490D02*
D03*
X806665D02*
D03*
X721164Y384490D02*
D03*
X726665D02*
D03*
X733165D02*
D03*
X738665D02*
D03*
X474114Y304990D02*
D03*
X479614D02*
D03*
X474114Y313490D02*
D03*
X479614D02*
D03*
X474114Y291990D02*
D03*
X479614D02*
D03*
X474114Y319990D02*
D03*
X479614D02*
D03*
X474114Y358990D02*
D03*
X479614D02*
D03*
X748562Y54700D02*
D03*
X743062D02*
D03*
X748562Y64700D02*
D03*
X743062D02*
D03*
X748563Y80590D02*
D03*
X743063D02*
D03*
X748563Y90590D02*
D03*
X743063D02*
D03*
X884750Y770650D02*
D03*
X879250Y770650D02*
D03*
X884750Y776650D02*
D03*
X879250Y776650D02*
D03*
X474114Y298490D02*
D03*
X479614D02*
D03*
X658121Y1386411D02*
D03*
X652621D02*
D03*
X436735Y261747D02*
D03*
X431235D02*
D03*
X806665Y298490D02*
D03*
X801164D02*
D03*
X801160Y279590D02*
D03*
X806660Y279590D02*
D03*
X801160Y285590D02*
D03*
X806660D02*
D03*
X485615Y326490D02*
D03*
X491115D02*
D03*
X642290Y98130D02*
D03*
X647790D02*
D03*
Y91630D02*
D03*
X642290D02*
D03*
X485615Y352490D02*
D03*
X491115D02*
D03*
X485615Y371990D02*
D03*
X491115D02*
D03*
X485615Y345990D02*
D03*
X491115D02*
D03*
X479614Y326490D02*
D03*
X474114D02*
D03*
X479614Y352490D02*
D03*
X474114D02*
D03*
Y339490D02*
D03*
X479614D02*
D03*
Y371990D02*
D03*
X474114D02*
D03*
X479614Y345990D02*
D03*
X474114D02*
D03*
Y332990D02*
D03*
X479614D02*
D03*
Y378990D02*
D03*
X474114D02*
D03*
X479614Y365490D02*
D03*
X474114D02*
D03*
X658121Y1379910D02*
D03*
X652621D02*
D03*
X23750Y1078650D02*
D03*
X18250D02*
D03*
X23750Y1191650D02*
D03*
X18250D02*
D03*
X23750Y936655D02*
D03*
X18250Y936655D02*
D03*
X127178Y767412D02*
D03*
X121678D02*
D03*
X127178Y801412D02*
D03*
X121678Y801412D02*
D03*
X728560Y195090D02*
D03*
X734060D02*
D03*
X23750Y1091650D02*
D03*
X18250D02*
D03*
X23750Y1205650D02*
D03*
X18250D02*
D03*
X328523Y428747D02*
D03*
X334023D02*
D03*
X155989Y1288992D02*
D03*
X161489D02*
D03*
X637750Y147700D02*
D03*
X643250D02*
D03*
X637750Y139700D02*
D03*
X643250D02*
D03*
X642290Y111290D02*
D03*
X647790D02*
D03*
X649250Y147700D02*
D03*
X654750D02*
D03*
X649250Y139700D02*
D03*
X654750Y139700D02*
D03*
X647790Y117750D02*
D03*
X642290D02*
D03*
X967511Y659090D02*
D03*
X962011D02*
D03*
X35750Y1036650D02*
D03*
X30250D02*
D03*
X30245Y1153650D02*
D03*
X35745D02*
D03*
X21000Y1139400D02*
D03*
X15500D02*
D03*
X30245Y1146650D02*
D03*
X35745Y1146650D02*
D03*
X728560Y188090D02*
D03*
X734060D02*
D03*
Y181090D02*
D03*
X728560D02*
D03*
X353499Y668000D02*
D03*
X358999D02*
D03*
X262737D02*
D03*
X268237D02*
D03*
X118499Y668000D02*
D03*
X123999Y668000D02*
D03*
X127599Y643500D02*
D03*
X122099D02*
D03*
X370349Y640500D02*
D03*
X375849D02*
D03*
X387849D02*
D03*
X382349D02*
D03*
X371192Y688700D02*
D03*
X376692D02*
D03*
X565131Y142290D02*
D03*
X570631D02*
D03*
X594131Y142290D02*
D03*
X588631Y142290D02*
D03*
X567131Y133290D02*
D03*
X572631D02*
D03*
X563131Y169290D02*
D03*
X557631Y169290D02*
D03*
X566631Y157290D02*
D03*
X572131D02*
D03*
X565131Y148290D02*
D03*
X570631Y148290D02*
D03*
X576631Y150290D02*
D03*
X582131Y150290D02*
D03*
X593131Y133290D02*
D03*
X587631Y133290D02*
D03*
X594131Y148290D02*
D03*
X588631D02*
D03*
X576631Y169290D02*
D03*
X571131Y169290D02*
D03*
X592631Y157290D02*
D03*
X587131D02*
D03*
X544381Y158290D02*
D03*
X538881D02*
D03*
X598382Y195290D02*
D03*
X592882D02*
D03*
X550881Y192290D02*
D03*
X556381D02*
D03*
X588131Y169290D02*
D03*
X582631D02*
D03*
X211915Y73240D02*
D03*
X206415D02*
D03*
X221915Y73240D02*
D03*
X227415D02*
D03*
X550881Y186290D02*
D03*
X556381D02*
D03*
X544381Y150290D02*
D03*
X538881D02*
D03*
X598382Y189290D02*
D03*
X592882D02*
D03*
X576631Y140290D02*
D03*
X582131Y140290D02*
D03*
X183750Y995655D02*
D03*
X178250D02*
D03*
X546562Y1379263D02*
D03*
X552062D02*
D03*
X343821Y778489D02*
D03*
X338321D02*
D03*
X199400Y73240D02*
D03*
X193900D02*
D03*
X967511Y676090D02*
D03*
X962011D02*
D03*
X92428Y779412D02*
D03*
X86928D02*
D03*
X343821Y763489D02*
D03*
X338321D02*
D03*
X343821Y756489D02*
D03*
X338321D02*
D03*
X132321Y516489D02*
D03*
X126821D02*
D03*
X176170Y70240D02*
D03*
X181670D02*
D03*
X181602Y730200D02*
D03*
X187102D02*
D03*
X187102Y767100D02*
D03*
X181602D02*
D03*
X181602Y693500D02*
D03*
X187102D02*
D03*
X168102D02*
D03*
X173602D02*
D03*
X173602Y767100D02*
D03*
X168102D02*
D03*
X540062Y1379263D02*
D03*
X534562D02*
D03*
X529892Y761157D02*
D03*
X524392D02*
D03*
X347735Y366247D02*
D03*
X342235D02*
D03*
X111928Y729360D02*
D03*
X117428D02*
D03*
X37400Y767190D02*
D03*
X31900D02*
D03*
X123928Y729360D02*
D03*
X129428D02*
D03*
X11900Y773190D02*
D03*
X17400D02*
D03*
X11900Y780190D02*
D03*
X17400D02*
D03*
X23750Y1085150D02*
D03*
X18250D02*
D03*
X23750Y1198650D02*
D03*
X18250D02*
D03*
X728560Y174090D02*
D03*
X734060D02*
D03*
X35750Y1029650D02*
D03*
X30250D02*
D03*
X23750Y1212650D02*
D03*
X18250D02*
D03*
X388749Y688700D02*
D03*
X383249D02*
D03*
X343821Y749489D02*
D03*
X338321D02*
D03*
X23750Y943655D02*
D03*
X18250D02*
D03*
X23750Y957655D02*
D03*
X18250D02*
D03*
X23750Y950655D02*
D03*
X18250D02*
D03*
X12250Y1162400D02*
D03*
X17750D02*
D03*
X643412Y69997D02*
D03*
X648912D02*
D03*
X643412Y76997D02*
D03*
X648912D02*
D03*
X338321Y770489D02*
D03*
X343821D02*
D03*
X118850Y216210D02*
D03*
X113350D02*
D03*
X942826Y688000D02*
D03*
X937326D02*
D03*
X947904D02*
D03*
X953404D02*
D03*
X876607Y699851D02*
D03*
X882107D02*
D03*
X871509Y699850D02*
D03*
X866009D02*
D03*
X698599Y258805D02*
D03*
X704099D02*
D03*
X704064Y265100D02*
D03*
X698564D02*
D03*
X21000Y1133400D02*
D03*
X15500D02*
D03*
X181670Y77240D02*
D03*
X176170D02*
D03*
Y63240D02*
D03*
X181670D02*
D03*
X173602Y730200D02*
D03*
X168102D02*
D03*
X164750Y132000D02*
D03*
X170250D02*
D03*
X157250D02*
D03*
X151750D02*
D03*
X145250Y111000D02*
D03*
X139750D02*
D03*
X139750Y119000D02*
D03*
X145250D02*
D03*
X132321Y486531D02*
D03*
X126821D02*
D03*
X132320Y477087D02*
D03*
X126820D02*
D03*
X132321Y495971D02*
D03*
X126821D02*
D03*
X41500Y1103650D02*
D03*
X47000D02*
D03*
X132320Y457000D02*
D03*
X126820D02*
D03*
X231850Y158410D02*
D03*
X226350D02*
D03*
X63400Y832016D02*
D03*
X57900D02*
D03*
X77400D02*
D03*
X71900Y832016D02*
D03*
X538881Y135290D02*
D03*
X544381D02*
D03*
X538881Y143290D02*
D03*
X544381D02*
D03*
X48689Y898155D02*
D03*
X43189D02*
D03*
X48689Y889155D02*
D03*
X43189D02*
D03*
D187*
X673000Y28800D02*
D03*
Y23300D02*
D03*
X651000Y126250D02*
D03*
Y131750D02*
D03*
X678800Y28800D02*
D03*
Y23300D02*
D03*
X708000Y120250D02*
D03*
Y125750D02*
D03*
X844000Y740418D02*
D03*
Y734918D02*
D03*
X838000Y740418D02*
D03*
Y734918D02*
D03*
X856000Y740418D02*
D03*
Y734918D02*
D03*
X850000Y740418D02*
D03*
Y734918D02*
D03*
X843000Y797662D02*
D03*
Y803162D02*
D03*
X859000Y751868D02*
D03*
Y746368D02*
D03*
X855000Y797662D02*
D03*
Y803162D02*
D03*
X847000Y751868D02*
D03*
Y746368D02*
D03*
X823000Y751868D02*
D03*
Y746368D02*
D03*
X835000Y751868D02*
D03*
Y746368D02*
D03*
X831000Y797662D02*
D03*
Y803162D02*
D03*
X433821Y1382357D02*
D03*
Y1387857D02*
D03*
X549511Y1388590D02*
D03*
Y1394090D02*
D03*
X665511Y1389340D02*
D03*
Y1394840D02*
D03*
X769914Y273240D02*
D03*
Y267740D02*
D03*
X797236Y382673D02*
D03*
Y388173D02*
D03*
X775915Y273240D02*
D03*
Y267740D02*
D03*
X751915Y273240D02*
D03*
Y267740D02*
D03*
X739914Y273240D02*
D03*
Y267740D02*
D03*
X706265Y384740D02*
D03*
Y390240D02*
D03*
X456144Y386740D02*
D03*
Y392240D02*
D03*
X424235Y261747D02*
D03*
Y256247D02*
D03*
X346228Y289159D02*
D03*
Y294659D02*
D03*
X340228Y289159D02*
D03*
Y294659D02*
D03*
X354730Y300990D02*
D03*
Y295490D02*
D03*
X413865Y386740D02*
D03*
Y392240D02*
D03*
X794476Y59244D02*
D03*
Y53744D02*
D03*
X784476Y59244D02*
D03*
Y53744D02*
D03*
X726000Y134250D02*
D03*
Y128750D02*
D03*
X716000Y134250D02*
D03*
Y128750D02*
D03*
X698200Y23300D02*
D03*
Y28800D02*
D03*
X867000Y797662D02*
D03*
X867000Y803162D02*
D03*
X813000Y797662D02*
D03*
Y803162D02*
D03*
X879250Y764650D02*
D03*
X879250Y759150D02*
D03*
X819000Y797662D02*
D03*
X819000Y803162D02*
D03*
X891274Y645247D02*
D03*
Y650747D02*
D03*
X420364Y392240D02*
D03*
Y386740D02*
D03*
X744750Y554650D02*
D03*
Y549150D02*
D03*
X712265Y390240D02*
D03*
Y384740D02*
D03*
X374865Y392240D02*
D03*
Y386740D02*
D03*
X464365Y398240D02*
D03*
Y403740D02*
D03*
X732750Y549150D02*
D03*
Y554650D02*
D03*
X738750Y549150D02*
D03*
Y554650D02*
D03*
X899025Y645247D02*
D03*
Y650747D02*
D03*
X673000Y131750D02*
D03*
Y126250D02*
D03*
X680000Y131750D02*
D03*
Y126250D02*
D03*
X394365Y398240D02*
D03*
Y403740D02*
D03*
X381365Y386740D02*
D03*
Y392240D02*
D03*
X433364Y386740D02*
D03*
Y392240D02*
D03*
X387864Y386740D02*
D03*
Y392240D02*
D03*
X346228Y301159D02*
D03*
Y306659D02*
D03*
X340228Y301159D02*
D03*
Y306659D02*
D03*
X426865Y386740D02*
D03*
Y392240D02*
D03*
X374865Y398240D02*
D03*
Y403740D02*
D03*
X342235Y357247D02*
D03*
Y351747D02*
D03*
X464365Y392240D02*
D03*
Y386740D02*
D03*
X394365Y392240D02*
D03*
Y386740D02*
D03*
X407365D02*
D03*
Y392240D02*
D03*
X349235Y355247D02*
D03*
Y349747D02*
D03*
X400864Y386740D02*
D03*
Y392240D02*
D03*
X10000Y1072400D02*
D03*
Y1066900D02*
D03*
X10000Y930405D02*
D03*
Y924905D02*
D03*
X96678Y773162D02*
D03*
Y767662D02*
D03*
X739810Y222090D02*
D03*
Y216590D02*
D03*
X705560Y218840D02*
D03*
Y213340D02*
D03*
X420261Y678250D02*
D03*
Y672750D02*
D03*
X330261Y678250D02*
D03*
Y672750D02*
D03*
X184499Y678250D02*
D03*
Y672750D02*
D03*
X420261Y653250D02*
D03*
Y658750D02*
D03*
X330261Y653250D02*
D03*
Y658750D02*
D03*
X184499Y653250D02*
D03*
Y658750D02*
D03*
X363407Y248986D02*
D03*
Y243486D02*
D03*
X330780Y273152D02*
D03*
Y278652D02*
D03*
X341138Y267912D02*
D03*
Y273412D02*
D03*
X659400Y28800D02*
D03*
Y23300D02*
D03*
X691400Y11300D02*
D03*
Y16800D02*
D03*
X684600Y11300D02*
D03*
Y16800D02*
D03*
X666200Y11300D02*
D03*
Y16800D02*
D03*
X659300D02*
D03*
X659300Y11300D02*
D03*
X691400Y23300D02*
D03*
Y28800D02*
D03*
X684600Y23300D02*
D03*
Y28800D02*
D03*
X666200Y23300D02*
D03*
Y28800D02*
D03*
X89678Y773162D02*
D03*
Y767662D02*
D03*
X24000Y1066900D02*
D03*
Y1072400D02*
D03*
X17000Y1044900D02*
D03*
X17000Y1050400D02*
D03*
X24000Y1044900D02*
D03*
Y1050400D02*
D03*
X28189Y894655D02*
D03*
Y889155D02*
D03*
X24000Y924905D02*
D03*
Y930405D02*
D03*
X22750Y1030155D02*
D03*
Y1035655D02*
D03*
X17000Y901716D02*
D03*
Y907216D02*
D03*
X21188Y894655D02*
D03*
Y889155D02*
D03*
X82678Y767662D02*
D03*
X82678Y773162D02*
D03*
X75678Y767662D02*
D03*
Y773162D02*
D03*
X109099Y649000D02*
D03*
Y643500D02*
D03*
X15000Y1299650D02*
D03*
X15000Y1305150D02*
D03*
X330780Y306659D02*
D03*
Y301159D02*
D03*
X335235Y340747D02*
D03*
Y346247D02*
D03*
Y357247D02*
D03*
Y351747D02*
D03*
X184389Y1306742D02*
D03*
Y1301242D02*
D03*
Y1314242D02*
D03*
Y1319742D02*
D03*
X10000Y1044900D02*
D03*
Y1050400D02*
D03*
X23000Y1147900D02*
D03*
Y1153400D02*
D03*
X16000Y1147900D02*
D03*
Y1153400D02*
D03*
X9000Y1147900D02*
D03*
Y1153400D02*
D03*
X24688Y901717D02*
D03*
Y907217D02*
D03*
X10000Y901716D02*
D03*
Y907216D02*
D03*
X17000Y1066900D02*
D03*
Y1072400D02*
D03*
X17000Y924905D02*
D03*
Y930405D02*
D03*
X143599Y695001D02*
D03*
Y689500D02*
D03*
X137099Y695001D02*
D03*
Y689500D02*
D03*
X487500Y677251D02*
D03*
Y671750D02*
D03*
Y652750D02*
D03*
Y658250D02*
D03*
X495500Y677251D02*
D03*
Y671750D02*
D03*
X579632Y161290D02*
D03*
Y155790D02*
D03*
Y128290D02*
D03*
Y133790D02*
D03*
X599500Y177249D02*
D03*
Y182749D02*
D03*
X592500Y177249D02*
D03*
Y182749D02*
D03*
X97365Y1466728D02*
D03*
X97365Y1461228D02*
D03*
X97865Y1501498D02*
D03*
X97865Y1506998D02*
D03*
X530392Y703397D02*
D03*
Y697897D02*
D03*
X191602Y713250D02*
D03*
Y707750D02*
D03*
X161602Y752850D02*
D03*
Y747350D02*
D03*
X192389Y1319742D02*
D03*
Y1314242D02*
D03*
Y1306742D02*
D03*
Y1301242D02*
D03*
X524392Y708897D02*
D03*
Y714397D02*
D03*
X517892Y708897D02*
D03*
Y714397D02*
D03*
X511392D02*
D03*
Y708897D02*
D03*
X504892Y714397D02*
D03*
Y708897D02*
D03*
X370619Y739516D02*
D03*
Y745016D02*
D03*
X90864Y1461228D02*
D03*
X90865Y1466728D02*
D03*
X363407Y230486D02*
D03*
Y235986D02*
D03*
X536392Y703397D02*
D03*
Y708897D02*
D03*
X848500Y9749D02*
D03*
Y15249D02*
D03*
X803500Y9749D02*
D03*
Y15249D02*
D03*
X758500Y9749D02*
D03*
Y15249D02*
D03*
X713500Y9749D02*
D03*
Y15249D02*
D03*
X879500Y9749D02*
D03*
Y15249D02*
D03*
X834500Y9749D02*
D03*
Y15249D02*
D03*
X789500Y9749D02*
D03*
Y15249D02*
D03*
X744500Y9749D02*
D03*
Y15249D02*
D03*
X855500Y9749D02*
D03*
Y15249D02*
D03*
X810500Y9749D02*
D03*
X810500Y15249D02*
D03*
X765500Y9749D02*
D03*
X765500Y15249D02*
D03*
X720500Y9749D02*
D03*
Y15249D02*
D03*
X886500D02*
D03*
Y9749D02*
D03*
X841500Y15249D02*
D03*
Y9749D02*
D03*
X796500Y15249D02*
D03*
Y9749D02*
D03*
X751500Y15249D02*
D03*
Y9749D02*
D03*
X161600Y725000D02*
D03*
Y719500D02*
D03*
X477500Y755662D02*
D03*
Y750162D02*
D03*
X471000Y755662D02*
D03*
X471000Y750162D02*
D03*
X464500Y755662D02*
D03*
Y750162D02*
D03*
X457000Y714122D02*
D03*
Y708622D02*
D03*
X479500Y714122D02*
D03*
Y708622D02*
D03*
X472000Y714122D02*
D03*
Y708622D02*
D03*
X464500Y714122D02*
D03*
X464500Y708622D02*
D03*
X8750Y1023655D02*
D03*
Y1018155D02*
D03*
X332661Y743981D02*
D03*
Y738482D02*
D03*
X517892Y703397D02*
D03*
Y697897D02*
D03*
X524392Y750157D02*
D03*
Y755657D02*
D03*
X517892Y750157D02*
D03*
Y755657D02*
D03*
X511392Y750157D02*
D03*
Y755657D02*
D03*
X504892Y750157D02*
D03*
Y755657D02*
D03*
X213360Y487000D02*
D03*
Y481500D02*
D03*
X187960Y487000D02*
D03*
Y481500D02*
D03*
X427341Y1387860D02*
D03*
Y1382360D02*
D03*
X104365Y1501498D02*
D03*
Y1506998D02*
D03*
X110365Y1501498D02*
D03*
Y1506998D02*
D03*
X116865Y1501498D02*
D03*
Y1506998D02*
D03*
X420511Y1387840D02*
D03*
Y1382340D02*
D03*
X785511Y1358590D02*
D03*
Y1364090D02*
D03*
X123365Y1501498D02*
D03*
Y1506998D02*
D03*
X123364Y1466728D02*
D03*
Y1461228D02*
D03*
X665511Y1382840D02*
D03*
Y1377340D02*
D03*
X666000Y126250D02*
D03*
Y131750D02*
D03*
X349235Y385747D02*
D03*
Y391247D02*
D03*
X335235D02*
D03*
Y385747D02*
D03*
X342235Y391247D02*
D03*
Y385747D02*
D03*
X335235Y366247D02*
D03*
Y371747D02*
D03*
X484000Y750162D02*
D03*
X484000Y755662D02*
D03*
X487000Y714122D02*
D03*
Y708622D02*
D03*
X490500Y755662D02*
D03*
Y750162D02*
D03*
X530892Y750157D02*
D03*
Y755657D02*
D03*
X530392Y714397D02*
D03*
Y708897D02*
D03*
X537892Y750157D02*
D03*
Y755657D02*
D03*
X17650Y787440D02*
D03*
Y792940D02*
D03*
X93498Y710110D02*
D03*
Y715611D02*
D03*
X348600Y267810D02*
D03*
Y273310D02*
D03*
X17650Y799440D02*
D03*
Y804940D02*
D03*
X97678Y735110D02*
D03*
Y729610D02*
D03*
X104678Y735110D02*
D03*
Y729610D02*
D03*
X10000Y1185400D02*
D03*
Y1179900D02*
D03*
X15750Y1035655D02*
D03*
Y1030155D02*
D03*
X10000Y1212780D02*
D03*
Y1207280D02*
D03*
X17000Y1185400D02*
D03*
Y1179900D02*
D03*
X24000Y1179650D02*
D03*
Y1185150D02*
D03*
X363317Y725982D02*
D03*
Y731481D02*
D03*
X401619Y725982D02*
D03*
Y731481D02*
D03*
X49650Y844266D02*
D03*
Y849766D02*
D03*
X405821Y754489D02*
D03*
Y759989D02*
D03*
X443417Y725982D02*
D03*
Y731481D02*
D03*
X398821Y765989D02*
D03*
Y771489D02*
D03*
Y754489D02*
D03*
Y759989D02*
D03*
X412619Y718131D02*
D03*
Y723631D02*
D03*
X370619Y725982D02*
D03*
Y731481D02*
D03*
X412619Y729632D02*
D03*
Y735132D02*
D03*
X662131Y148290D02*
D03*
Y153790D02*
D03*
X558131Y127790D02*
D03*
Y133290D02*
D03*
X832000Y740418D02*
D03*
Y734918D02*
D03*
X826000Y740418D02*
D03*
Y734918D02*
D03*
X868000Y740418D02*
D03*
Y734918D02*
D03*
X862000Y740418D02*
D03*
Y734918D02*
D03*
X775750Y397250D02*
D03*
Y402750D02*
D03*
X783250Y397250D02*
D03*
Y402750D02*
D03*
X815750Y364250D02*
D03*
Y369750D02*
D03*
X809750Y364250D02*
D03*
Y369750D02*
D03*
X382462Y265517D02*
D03*
Y271017D02*
D03*
X389462Y265517D02*
D03*
Y271017D02*
D03*
X377750Y252750D02*
D03*
Y258250D02*
D03*
X370750Y252750D02*
D03*
Y258250D02*
D03*
X448750Y271020D02*
D03*
Y265520D02*
D03*
X442750Y271020D02*
D03*
Y265520D02*
D03*
X405820Y771490D02*
D03*
Y765990D02*
D03*
X161600Y732000D02*
D03*
Y737500D02*
D03*
X197500Y128250D02*
D03*
Y122750D02*
D03*
X458000Y750162D02*
D03*
Y755662D02*
D03*
X243000Y90501D02*
D03*
Y85001D02*
D03*
X197500Y115750D02*
D03*
Y110250D02*
D03*
X243000Y103001D02*
D03*
Y97501D02*
D03*
X332660Y730480D02*
D03*
Y724980D02*
D03*
X35189Y894655D02*
D03*
Y889155D02*
D03*
X217000Y90501D02*
D03*
Y85001D02*
D03*
X224000Y90501D02*
D03*
Y85001D02*
D03*
X231000Y90501D02*
D03*
Y85001D02*
D03*
D188*
X259475Y203500D02*
D03*
X269728Y213753D02*
D03*
X290728D02*
D03*
X280475Y203500D02*
D03*
X301475D02*
D03*
X311728Y213753D02*
D03*
X332728D02*
D03*
X322475Y203500D02*
D03*
X343475D02*
D03*
X353728Y213753D02*
D03*
X374728D02*
D03*
X364475Y203500D02*
D03*
X385475D02*
D03*
X395728Y213753D02*
D03*
X416728D02*
D03*
X406475Y203500D02*
D03*
X427475D02*
D03*
X437728Y213753D02*
D03*
X458728D02*
D03*
X448475Y203500D02*
D03*
X469475D02*
D03*
X479728Y213753D02*
D03*
X500728D02*
D03*
X490475Y203500D02*
D03*
X511475D02*
D03*
X521728Y213753D02*
D03*
X269728Y192753D02*
D03*
X259475Y182500D02*
D03*
X280475D02*
D03*
X290728Y192753D02*
D03*
X311728D02*
D03*
X301475Y182500D02*
D03*
X322475D02*
D03*
X332728Y192753D02*
D03*
X353728D02*
D03*
X343475Y182500D02*
D03*
X364475D02*
D03*
X374728Y192753D02*
D03*
X395728D02*
D03*
X385475Y182500D02*
D03*
X406475D02*
D03*
X416728Y192753D02*
D03*
X437728D02*
D03*
X427475Y182500D02*
D03*
X448475D02*
D03*
X458728Y192753D02*
D03*
X479728D02*
D03*
X469475Y182500D02*
D03*
X490475D02*
D03*
X500728Y192753D02*
D03*
X521728D02*
D03*
X511475Y182500D02*
D03*
X259475Y161500D02*
D03*
X269728Y171753D02*
D03*
X290728D02*
D03*
X280475Y161500D02*
D03*
X301475D02*
D03*
X311728Y171753D02*
D03*
X332728D02*
D03*
X322475Y161500D02*
D03*
X343475D02*
D03*
X353728Y171753D02*
D03*
X374728D02*
D03*
X364475Y161500D02*
D03*
X385475D02*
D03*
X395728Y171753D02*
D03*
X416728D02*
D03*
X406475Y161500D02*
D03*
X427475D02*
D03*
X437728Y171753D02*
D03*
X458728D02*
D03*
X448475Y161500D02*
D03*
X469475D02*
D03*
X479728Y171753D02*
D03*
X500728D02*
D03*
X490475Y161500D02*
D03*
X511475D02*
D03*
X521728Y171753D02*
D03*
X269728Y150753D02*
D03*
X259475Y140500D02*
D03*
X280475D02*
D03*
X290728Y150753D02*
D03*
X311728D02*
D03*
X301475Y140500D02*
D03*
X322475D02*
D03*
X332728Y150753D02*
D03*
X353728D02*
D03*
X343475Y140500D02*
D03*
X364475D02*
D03*
X374728Y150753D02*
D03*
X395728D02*
D03*
X385475Y140500D02*
D03*
X406475D02*
D03*
X416728Y150753D02*
D03*
X437728D02*
D03*
X427475Y140500D02*
D03*
X448475D02*
D03*
X458728Y150753D02*
D03*
X479728D02*
D03*
X469475Y140500D02*
D03*
X490475D02*
D03*
X500728Y150753D02*
D03*
X521728D02*
D03*
X511475Y140500D02*
D03*
X259475Y119500D02*
D03*
X269728Y129753D02*
D03*
X290728D02*
D03*
X280475Y119500D02*
D03*
X301475D02*
D03*
X311728Y129753D02*
D03*
X332728D02*
D03*
X322475Y119500D02*
D03*
X343475D02*
D03*
X353728Y129753D02*
D03*
X374728D02*
D03*
X364475Y119500D02*
D03*
X385475D02*
D03*
X395728Y129753D02*
D03*
X416728D02*
D03*
X406475Y119500D02*
D03*
X427475D02*
D03*
X437728Y129753D02*
D03*
X458728D02*
D03*
X448475Y119500D02*
D03*
X469475D02*
D03*
X479728Y129753D02*
D03*
X500728D02*
D03*
X490475Y119500D02*
D03*
X511475D02*
D03*
X521728Y129753D02*
D03*
X269728Y108753D02*
D03*
X259475Y98500D02*
D03*
X280475D02*
D03*
X290728Y108753D02*
D03*
X311728D02*
D03*
X301475Y98500D02*
D03*
X322475D02*
D03*
X332728Y108753D02*
D03*
X353728D02*
D03*
X343475Y98500D02*
D03*
X364475D02*
D03*
X374728Y108753D02*
D03*
X395728D02*
D03*
X385475Y98500D02*
D03*
X406475D02*
D03*
X416728Y108753D02*
D03*
X437728D02*
D03*
X427475Y98500D02*
D03*
X448475D02*
D03*
X458728Y108753D02*
D03*
X479728D02*
D03*
X469475Y98500D02*
D03*
X490475D02*
D03*
X500728Y108753D02*
D03*
X521728D02*
D03*
X511475Y98500D02*
D03*
X259475Y77500D02*
D03*
X269728Y87753D02*
D03*
X290728D02*
D03*
X280475Y77500D02*
D03*
X301475D02*
D03*
X311728Y87753D02*
D03*
X332728D02*
D03*
X322475Y77500D02*
D03*
X343475D02*
D03*
X353728Y87753D02*
D03*
X374728D02*
D03*
X364475Y77500D02*
D03*
X385475D02*
D03*
X395728Y87753D02*
D03*
X416728D02*
D03*
X406475Y77500D02*
D03*
X427475D02*
D03*
X437728Y87753D02*
D03*
X458728D02*
D03*
X448475Y77500D02*
D03*
X469475D02*
D03*
X479728Y87753D02*
D03*
X500728D02*
D03*
X490475Y77500D02*
D03*
X511475D02*
D03*
X521728Y87753D02*
D03*
X269728Y66753D02*
D03*
X259475Y56500D02*
D03*
X280475D02*
D03*
X290728Y66753D02*
D03*
X311728D02*
D03*
X301475Y56500D02*
D03*
X322475D02*
D03*
X332728Y66753D02*
D03*
X353728D02*
D03*
X343475Y56500D02*
D03*
X364475D02*
D03*
X374728Y66753D02*
D03*
X395728D02*
D03*
X385475Y56500D02*
D03*
X406475D02*
D03*
X416728Y66753D02*
D03*
X437728D02*
D03*
X427475Y56500D02*
D03*
X448475D02*
D03*
X458728Y66753D02*
D03*
X479728D02*
D03*
X469475Y56500D02*
D03*
X490475D02*
D03*
X500728Y66753D02*
D03*
X521728D02*
D03*
X511475Y56500D02*
D03*
D189*
X725164Y392490D02*
D03*
X734665D02*
D03*
X25250Y1021650D02*
D03*
X34750Y1021650D02*
D03*
X19750Y1058650D02*
D03*
X10250D02*
D03*
X19750Y916655D02*
D03*
X10250D02*
D03*
X95928Y797912D02*
D03*
X86428Y797912D02*
D03*
X122989Y1330992D02*
D03*
X132489D02*
D03*
X122989Y1302992D02*
D03*
X132489D02*
D03*
X19750Y1171000D02*
D03*
X10250D02*
D03*
D190*
X678499Y143001D02*
D03*
X701501Y160999D02*
D03*
X678499D02*
D03*
X701501Y143001D02*
D03*
X715413Y404491D02*
D03*
X738416Y422489D02*
D03*
X715413D02*
D03*
X738416Y404491D02*
D03*
D191*
X201411Y272247D02*
D03*
X210161D02*
D03*
X201411Y277247D02*
D03*
X210161D02*
D03*
X201411Y287247D02*
D03*
X210161D02*
D03*
X201411Y292247D02*
D03*
X210161D02*
D03*
X201411Y300247D02*
D03*
X210161D02*
D03*
X201411Y305247D02*
D03*
X210161D02*
D03*
X201411Y315247D02*
D03*
X210161D02*
D03*
X201411Y320247D02*
D03*
X210161D02*
D03*
Y328247D02*
D03*
X201411D02*
D03*
X210161Y333247D02*
D03*
X201411D02*
D03*
X210161Y343247D02*
D03*
X201411D02*
D03*
X210161Y348247D02*
D03*
X201411D02*
D03*
Y356247D02*
D03*
X210161D02*
D03*
X201411Y361247D02*
D03*
X210161D02*
D03*
X201411Y371247D02*
D03*
X210161D02*
D03*
X201411Y376247D02*
D03*
X210161D02*
D03*
X201411Y384247D02*
D03*
X210161D02*
D03*
X201411Y389247D02*
D03*
X210161D02*
D03*
Y399247D02*
D03*
X201411D02*
D03*
X210161Y404247D02*
D03*
X201411D02*
D03*
X899071Y688590D02*
D03*
X907821D02*
D03*
X899071Y693590D02*
D03*
X907821D02*
D03*
Y708590D02*
D03*
X899071D02*
D03*
Y703590D02*
D03*
X907821D02*
D03*
X835135Y416750D02*
D03*
X826385D02*
D03*
X835135Y421750D02*
D03*
X826385D02*
D03*
X835135Y436750D02*
D03*
X826385D02*
D03*
X835135Y431750D02*
D03*
X826385D02*
D03*
X835135Y364250D02*
D03*
X826385D02*
D03*
X835135Y359250D02*
D03*
X826385D02*
D03*
X835135Y379250D02*
D03*
X826385D02*
D03*
Y374250D02*
D03*
X835135D02*
D03*
X899068Y757290D02*
D03*
X907818D02*
D03*
X899068Y752290D02*
D03*
X907818D02*
D03*
X899068Y772290D02*
D03*
X907818D02*
D03*
X899068Y767290D02*
D03*
X907818Y767290D02*
D03*
Y742290D02*
D03*
X899068D02*
D03*
X907818Y722290D02*
D03*
X899068D02*
D03*
X907818Y727290D02*
D03*
X899068D02*
D03*
X907818Y737290D02*
D03*
X899068D02*
D03*
X899071Y785360D02*
D03*
X907821D02*
D03*
Y790360D02*
D03*
X899071D02*
D03*
Y805360D02*
D03*
X907821D02*
D03*
X899071Y800360D02*
D03*
X907821D02*
D03*
D192*
X202549Y282247D02*
D03*
Y310247D02*
D03*
Y338247D02*
D03*
Y366247D02*
D03*
Y394247D02*
D03*
X900209Y698590D02*
D03*
X827523Y426750D02*
D03*
Y369250D02*
D03*
X900206Y762290D02*
D03*
Y732290D02*
D03*
X900209Y795360D02*
D03*
D193*
X209016Y282247D02*
D03*
Y310247D02*
D03*
Y338247D02*
D03*
Y366247D02*
D03*
Y394247D02*
D03*
X906676Y698590D02*
D03*
X833990Y426750D02*
D03*
Y369250D02*
D03*
X906673Y762290D02*
D03*
Y732290D02*
D03*
X906676Y795360D02*
D03*
D194*
X253000Y1392500D02*
D03*
Y1409500D02*
D03*
X233000Y1392500D02*
D03*
Y1409500D02*
D03*
X181000Y1213650D02*
D03*
Y1230650D02*
D03*
X181000Y1155650D02*
D03*
Y1138650D02*
D03*
X213000Y1392500D02*
D03*
Y1409500D02*
D03*
X181000Y975655D02*
D03*
X181000Y958655D02*
D03*
X181000Y883655D02*
D03*
Y900655D02*
D03*
X752810Y235090D02*
D03*
Y218090D02*
D03*
X672810Y218090D02*
D03*
X672810Y201090D02*
D03*
X273000Y1392500D02*
D03*
X273000Y1409500D02*
D03*
X351033Y405555D02*
D03*
Y422555D02*
D03*
X183000Y1358500D02*
D03*
Y1341500D02*
D03*
X691810Y218090D02*
D03*
Y201090D02*
D03*
X181000Y1042650D02*
D03*
X181000Y1025650D02*
D03*
X181000Y1100650D02*
D03*
Y1117650D02*
D03*
X67650Y788190D02*
D03*
Y805190D02*
D03*
D195*
X851841Y70600D02*
D03*
X834841D02*
D03*
X62000Y1003650D02*
D03*
X79000Y1003650D02*
D03*
X62000Y1250650D02*
D03*
X79000D02*
D03*
X62000Y1230650D02*
D03*
X79000Y1230650D02*
D03*
X62000Y1023650D02*
D03*
X79000D02*
D03*
X61995Y1117650D02*
D03*
X78995Y1117650D02*
D03*
X61995Y1138650D02*
D03*
X78995Y1138650D02*
D03*
X62000Y975655D02*
D03*
X79000D02*
D03*
X62000Y883655D02*
D03*
X79000D02*
D03*
X300000Y1393500D02*
D03*
X317000D02*
D03*
X135178Y754412D02*
D03*
X118178D02*
D03*
X123178Y833412D02*
D03*
X106178D02*
D03*
X273000Y1428000D02*
D03*
X256000D02*
D03*
X123178Y814412D02*
D03*
X106178Y814412D02*
D03*
X335761Y441747D02*
D03*
X352761D02*
D03*
X111500Y1350000D02*
D03*
X128500D02*
D03*
X67500Y1392000D02*
D03*
X50500D02*
D03*
Y1413000D02*
D03*
X67500Y1413000D02*
D03*
X139250Y1021650D02*
D03*
X156250D02*
D03*
X139250Y1138650D02*
D03*
X156250D02*
D03*
X139250Y1232650D02*
D03*
X156250D02*
D03*
X139250Y1117650D02*
D03*
X156250Y1117650D02*
D03*
X156250Y881655D02*
D03*
X139250D02*
D03*
X156250Y977655D02*
D03*
X139250D02*
D03*
X822110Y274090D02*
D03*
X839110D02*
D03*
X760030Y255970D02*
D03*
X743030D02*
D03*
X83699Y650500D02*
D03*
X66700D02*
D03*
X123178Y852412D02*
D03*
X106178Y852412D02*
D03*
X123178Y871412D02*
D03*
X106178D02*
D03*
D196*
X99585Y1113650D02*
D03*
X108285Y1113650D02*
D03*
X64000Y1216650D02*
D03*
X72700Y1216650D02*
D03*
X99585Y1227309D02*
D03*
X108285D02*
D03*
X63995Y1103650D02*
D03*
X72695D02*
D03*
X99585Y974655D02*
D03*
X108285Y974655D02*
D03*
X64000Y961155D02*
D03*
X72700Y961155D02*
D03*
X95528Y787912D02*
D03*
X86828Y787912D02*
D03*
X358999Y659500D02*
D03*
X350299D02*
D03*
X268237D02*
D03*
X259537D02*
D03*
X123999D02*
D03*
X115299D02*
D03*
X63995Y1152650D02*
D03*
X72695Y1152650D02*
D03*
X64000Y1039650D02*
D03*
X72700Y1039650D02*
D03*
X64000Y898155D02*
D03*
X72700Y898155D02*
D03*
X607281Y213290D02*
D03*
X615981Y213290D02*
D03*
X125220Y467000D02*
D03*
X133920D02*
D03*
D197*
X716310Y193440D02*
D03*
X716310Y184740D02*
D03*
X132739Y1321342D02*
D03*
X132739Y1312642D02*
D03*
X495500Y660850D02*
D03*
Y652150D02*
D03*
X90865Y1478398D02*
D03*
Y1487098D02*
D03*
X537892Y736037D02*
D03*
Y727337D02*
D03*
X490500Y735762D02*
D03*
X490500Y727062D02*
D03*
X197500Y101350D02*
D03*
Y92650D02*
D03*
D198*
X206602Y665500D02*
D03*
X244602D02*
D03*
D199*
X143678Y809662D02*
D03*
Y789662D02*
D03*
D200*
X865841Y75350D02*
D03*
Y65850D02*
D03*
X706310Y193840D02*
D03*
Y184340D02*
D03*
X163569Y1438680D02*
D03*
X163569Y1429180D02*
D03*
D201*
X164150Y1350000D02*
D03*
X145850D02*
D03*
X16000Y1392000D02*
D03*
X34300D02*
D03*
X138601Y853090D02*
D03*
X156901D02*
D03*
X156978Y833412D02*
D03*
X138678D02*
D03*
D202*
X80580Y1327930D02*
D03*
X65080D02*
D03*
X104080Y1417930D02*
D03*
X88580D02*
D03*
D203*
X109739Y1307842D02*
D03*
Y1326142D02*
D03*
D204*
X407499Y677001D02*
D03*
X377499Y654000D02*
D03*
X382499Y654000D02*
D03*
X387499D02*
D03*
X392499D02*
D03*
X372499Y654000D02*
D03*
X397499Y654000D02*
D03*
X402499D02*
D03*
X377499Y677000D02*
D03*
X382499Y677001D02*
D03*
X407499Y654000D02*
D03*
X387499Y677001D02*
D03*
X372499Y677000D02*
D03*
X402499D02*
D03*
X392499Y677001D02*
D03*
X397499Y677000D02*
D03*
X317499Y677001D02*
D03*
X302499Y654000D02*
D03*
X292499D02*
D03*
X307499Y654000D02*
D03*
X282499D02*
D03*
X287499D02*
D03*
X297499Y654000D02*
D03*
X312499Y654000D02*
D03*
X302499Y677000D02*
D03*
X292499D02*
D03*
X307499Y677000D02*
D03*
X317499Y654000D02*
D03*
X312499Y677000D02*
D03*
X297499Y677000D02*
D03*
X287499Y677001D02*
D03*
X282499Y677000D02*
D03*
X172499D02*
D03*
X137499Y654000D02*
D03*
X142499D02*
D03*
X152499Y654000D02*
D03*
X147499D02*
D03*
X157499D02*
D03*
X162499Y654000D02*
D03*
X167499D02*
D03*
X137499Y677000D02*
D03*
X142499D02*
D03*
X167499D02*
D03*
X172499Y654000D02*
D03*
X152499Y677000D02*
D03*
X157499D02*
D03*
X147499D02*
D03*
X162499D02*
D03*
D205*
X411499Y663000D02*
D03*
X368499Y668000D02*
D03*
X411499D02*
D03*
X368499Y663000D02*
D03*
X321499D02*
D03*
Y668000D02*
D03*
X278499D02*
D03*
Y663000D02*
D03*
X176499D02*
D03*
X133499Y668000D02*
D03*
X176499Y668000D02*
D03*
X133499Y663000D02*
D03*
D206*
X389999Y665500D02*
D03*
X299999D02*
D03*
X154999D02*
D03*
D207*
X111178Y791912D02*
D03*
X111178Y786912D02*
D03*
X111178Y781912D02*
D03*
Y776912D02*
D03*
X124178Y786912D02*
D03*
Y781912D02*
D03*
Y791912D02*
D03*
D208*
X328273Y421747D02*
D03*
X332773D02*
D03*
X330511Y266639D02*
D03*
X335011D02*
D03*
X227495Y1526600D02*
D03*
X222995D02*
D03*
X787495D02*
D03*
X782995D02*
D03*
X507495D02*
D03*
X502995D02*
D03*
X232995D02*
D03*
X237495D02*
D03*
X792995D02*
D03*
X797495D02*
D03*
X512995D02*
D03*
X517495D02*
D03*
X247495D02*
D03*
X242995D02*
D03*
X807495D02*
D03*
X802995D02*
D03*
X527495D02*
D03*
X522995D02*
D03*
X118350Y234610D02*
D03*
X113850D02*
D03*
X118350Y209210D02*
D03*
X113850D02*
D03*
X118350Y158410D02*
D03*
X113850D02*
D03*
X226850Y222210D02*
D03*
X231350D02*
D03*
X226850Y214210D02*
D03*
X231350D02*
D03*
X226850Y204210D02*
D03*
X231350D02*
D03*
X226850Y183810D02*
D03*
X231350D02*
D03*
X214859Y687990D02*
D03*
X219359D02*
D03*
X250252Y773500D02*
D03*
X245752D02*
D03*
X269752D02*
D03*
X274252D02*
D03*
X221665Y66240D02*
D03*
X226165D02*
D03*
X212164D02*
D03*
X207665D02*
D03*
X198900Y66690D02*
D03*
X194400D02*
D03*
D209*
X328241Y381497D02*
D03*
Y385997D02*
D03*
X342235Y378997D02*
D03*
Y374497D02*
D03*
X328241Y371997D02*
D03*
Y367497D02*
D03*
Y346997D02*
D03*
Y342497D02*
D03*
Y351497D02*
D03*
Y355997D02*
D03*
D210*
X811889Y832111D02*
D03*
X808000Y836000D02*
D03*
X806939Y827161D02*
D03*
X803050Y831050D02*
D03*
X832963Y326780D02*
D03*
X836852Y322891D02*
D03*
X837912Y331730D02*
D03*
X841802Y327841D02*
D03*
D211*
X119000Y106000D02*
D03*
X22865Y1497748D02*
D03*
X840000Y1560000D02*
D03*
D212*
X342317Y720331D02*
D03*
X352317Y735132D02*
D03*
X347317D02*
D03*
X352317Y720331D02*
D03*
X342317Y735132D02*
D03*
X172602Y703100D02*
D03*
X177602Y717900D02*
D03*
X182602D02*
D03*
X172602D02*
D03*
X182602Y703100D02*
D03*
X172602Y742700D02*
D03*
X182602Y757500D02*
D03*
X177602Y742700D02*
D03*
X172602Y757500D02*
D03*
X182602Y742700D02*
D03*
X390619Y735132D02*
D03*
X385619D02*
D03*
X380619Y720331D02*
D03*
X390619D02*
D03*
X380619Y735132D02*
D03*
X432619D02*
D03*
X427619D02*
D03*
X422619Y720331D02*
D03*
X432619Y720331D02*
D03*
X422619Y735132D02*
D03*
D213*
X923800Y1269800D02*
D03*
Y1295200D02*
D03*
D214*
X889841Y125250D02*
D03*
Y221750D02*
D03*
D215*
X798441Y132900D02*
D03*
Y153200D02*
D03*
X823841Y122750D02*
D03*
Y163350D02*
D03*
X798441Y112600D02*
D03*
X823841Y143050D02*
D03*
Y203950D02*
D03*
Y224250D02*
D03*
X798441Y234400D02*
D03*
Y193800D02*
D03*
Y214100D02*
D03*
X823841Y183650D02*
D03*
D216*
X927941Y98300D02*
D03*
X978741D02*
D03*
X953341D02*
D03*
X978741Y248700D02*
D03*
X953341D02*
D03*
X959000Y1004000D02*
D03*
Y1054000D02*
D03*
Y954000D02*
D03*
Y904000D02*
D03*
Y854000D02*
D03*
D217*
X889841Y85600D02*
D03*
Y261400D02*
D03*
D218*
X162425Y16990D02*
D03*
X119925D02*
D03*
D219*
X887480Y1148000D02*
D03*
D220*
X945480D02*
D03*
D221*
X917480Y1195000D02*
D03*
D222*
X290011Y441747D02*
D03*
Y241747D02*
D03*
D223*
X933011Y704090D02*
D03*
X984011D02*
D03*
Y790490D02*
D03*
X933011D02*
D03*
D224*
X54011Y1457360D02*
D03*
Y707360D02*
D03*
X804011D02*
D03*
Y1457360D02*
D03*
D225*
X572511Y342247D02*
D03*
D226*
X857000Y386750D02*
D03*
X889000D02*
D03*
X857000Y366750D02*
D03*
X889000D02*
D03*
X857000Y426750D02*
D03*
Y446750D02*
D03*
X872000Y416750D02*
D03*
Y396750D02*
D03*
Y371750D02*
D03*
X889000Y426750D02*
D03*
Y446750D02*
D03*
X904000Y416750D02*
D03*
Y396750D02*
D03*
Y371750D02*
D03*
X857000Y406750D02*
D03*
X889000D02*
D03*
X872000Y441750D02*
D03*
X904000D02*
D03*
D227*
X924000Y342750D02*
D03*
X867200D02*
D03*
Y470750D02*
D03*
X924000D02*
D03*
D228*
X635000Y508000D02*
D03*
X609600D02*
D03*
X584200D02*
D03*
X558800D02*
D03*
X533400D02*
D03*
X508000D02*
D03*
X482600D02*
D03*
X457200D02*
D03*
X416560D02*
D03*
X391160D02*
D03*
X365760D02*
D03*
X340360D02*
D03*
X314960D02*
D03*
X289560D02*
D03*
X264160D02*
D03*
X238760D02*
D03*
X213360D02*
D03*
X187960D02*
D03*
X279400Y25400D02*
D03*
X304800D02*
D03*
X330200D02*
D03*
X355600D02*
D03*
X381000D02*
D03*
X406400D02*
D03*
X431800D02*
D03*
X457200D02*
D03*
X508000D02*
D03*
X533400D02*
D03*
X558800D02*
D03*
X584200D02*
D03*
X609600D02*
D03*
X635000D02*
D03*
D229*
X918000Y595000D02*
D03*
X906400D02*
D03*
X900600Y585000D02*
D03*
X889000D02*
D03*
X883200Y595000D02*
D03*
X871600D02*
D03*
X865800Y585000D02*
D03*
X854200D02*
D03*
X848400Y595000D02*
D03*
X842600Y585000D02*
D03*
X813600Y595000D02*
D03*
X836800D02*
D03*
X831000Y585000D02*
D03*
X819400D02*
D03*
X825200Y595000D02*
D03*
X860000D02*
D03*
X877400Y585000D02*
D03*
X894800Y595000D02*
D03*
X912200Y585000D02*
D03*
D230*
X937000Y605000D02*
D03*
X804500Y570000D02*
D03*
D231*
X804500Y622500D02*
D03*
X835500Y557500D02*
D03*
X899500Y622500D02*
D03*
X925500Y557500D02*
D03*
D232*
X920000Y40000D02*
D03*
X615000Y590000D02*
D03*
X35000Y590000D02*
D03*
X141170Y66000D02*
D03*
X35000Y1560000D02*
D03*
X900000Y1559999D02*
D03*
M02*
