G04*
G04 #@! TF.GenerationSoftware,Altium Limited,Altium Designer,26.9.1 (10)*
G04*
G04 Layer_Color=2752767*
G04 Board_Origin=9999995|9999995*
%FSLAX44Y44*%
%MOMM*%
G71*
G04*
G04 #@! TF.SameCoordinates,9D83EA41-EA8C-4E9F-96AF-D385C4C8DFFD*
G04*
G04*
G04 #@! TF.FilePolarity,Positive*
G04*
G01*
G75*
%ADD12C,0.2540*%
%ADD466C,0.0508*%
%ADD467C,0.3810*%
%ADD468C,0.4064*%
D12*
X4010450Y754053D02*
X4020607D01*
X3790547D02*
X3800704D01*
X2736241Y746435D02*
X2731162Y751513D01*
Y756592D01*
X2736241Y761670D01*
X2743858Y746435D02*
Y761670D01*
X2748936Y756592D01*
X2754015Y761670D01*
Y746435D01*
X2759093D02*
X2764171D01*
X2761632D01*
Y756592D01*
X2759093D01*
X2771789D02*
X2781946Y746435D01*
X2776867Y751513D01*
X2781946Y756592D01*
X2771789Y746435D01*
X2794642D02*
X2789563D01*
X2787024Y748974D01*
Y754053D01*
X2789563Y756592D01*
X2794642D01*
X2797181Y754053D01*
Y751513D01*
X2787024D01*
X2812416Y761670D02*
Y746435D01*
X2804798D01*
X2802259Y748974D01*
Y754053D01*
X2804798Y756592D01*
X2812416D01*
X2817494Y746435D02*
X2822573Y751513D01*
Y756592D01*
X2817494Y761670D01*
X2541729Y746435D02*
Y761670D01*
X2549347D01*
X2551886Y759131D01*
Y754053D01*
X2549347Y751513D01*
X2541729D01*
X2546808D02*
X2551886Y746435D01*
X2559504D02*
X2564582D01*
X2567121Y748974D01*
Y754053D01*
X2564582Y756592D01*
X2559504D01*
X2556965Y754053D01*
Y748974D01*
X2559504Y746435D01*
X2572199Y756592D02*
Y748974D01*
X2574739Y746435D01*
X2582356D01*
Y756592D01*
X2587435Y746435D02*
Y756592D01*
X2595052D01*
X2597591Y754053D01*
Y746435D01*
X2612827Y761670D02*
Y746435D01*
X2605209D01*
X2602670Y748974D01*
Y754053D01*
X2605209Y756592D01*
X2612827D01*
X2625522Y746435D02*
X2620444D01*
X2617905Y748974D01*
Y754053D01*
X2620444Y756592D01*
X2625522D01*
X2628062Y754053D01*
Y751513D01*
X2617905D01*
X2643297Y761670D02*
Y746435D01*
X2635679D01*
X2633140Y748974D01*
Y754053D01*
X2635679Y756592D01*
X2643297D01*
X2391908Y761670D02*
Y751513D01*
X2396986Y746435D01*
X2402065Y751513D01*
Y761670D01*
X2407143Y746435D02*
X2412221D01*
X2409682D01*
Y756592D01*
X2407143D01*
X2422378D02*
X2427456D01*
X2429996Y754053D01*
Y746435D01*
X2422378D01*
X2419839Y748974D01*
X2422378Y751513D01*
X2429996D01*
X2089736Y761670D02*
Y746435D01*
X2099892D01*
X2104971Y759131D02*
X2107510Y761670D01*
X2112588D01*
X2115127Y759131D01*
Y756592D01*
X2112588Y754053D01*
X2110049D01*
X2112588D01*
X2115127Y751513D01*
Y748974D01*
X2112588Y746435D01*
X2107510D01*
X2104971Y748974D01*
X2135441Y754053D02*
X2145598D01*
X2165911Y761670D02*
Y746435D01*
X2176068D01*
X2181146Y759131D02*
X2183685Y761670D01*
X2188764D01*
X2191303Y759131D01*
Y756592D01*
X2188764Y754053D01*
X2191303Y751513D01*
Y748974D01*
X2188764Y746435D01*
X2183685D01*
X2181146Y748974D01*
Y751513D01*
X2183685Y754053D01*
X2181146Y756592D01*
Y759131D01*
X2183685Y754053D02*
X2188764D01*
X1903350Y746435D02*
Y761670D01*
X1910967D01*
X1913507Y759131D01*
Y754053D01*
X1910967Y751513D01*
X1903350D01*
X1908428D02*
X1913507Y746435D01*
X1921124D02*
X1926203D01*
X1928742Y748974D01*
Y754053D01*
X1926203Y756592D01*
X1921124D01*
X1918585Y754053D01*
Y748974D01*
X1921124Y746435D01*
X1933820Y756592D02*
Y748974D01*
X1936359Y746435D01*
X1943977D01*
Y756592D01*
X1949055Y746435D02*
Y756592D01*
X1956673D01*
X1959212Y754053D01*
Y746435D01*
X1974447Y761670D02*
Y746435D01*
X1966829D01*
X1964290Y748974D01*
Y754053D01*
X1966829Y756592D01*
X1974447D01*
X1774857Y746435D02*
Y761670D01*
X1782475D01*
X1785014Y759131D01*
Y754053D01*
X1782475Y751513D01*
X1774857D01*
X1790092Y761670D02*
X1800249D01*
X1795171D01*
Y746435D01*
X1805328Y761670D02*
Y746435D01*
Y754053D01*
X1815484D01*
Y761670D01*
Y746435D01*
X1510774Y761670D02*
X1520931D01*
Y759131D01*
X1510774Y748974D01*
Y746435D01*
X1526009D02*
Y748974D01*
X1528548D01*
Y746435D01*
X1526009D01*
X1538705Y759131D02*
X1541244Y761670D01*
X1546322D01*
X1548862Y759131D01*
Y756592D01*
X1546322Y754053D01*
X1548862Y751513D01*
Y748974D01*
X1546322Y746435D01*
X1541244D01*
X1538705Y748974D01*
Y751513D01*
X1541244Y754053D01*
X1538705Y756592D01*
Y759131D01*
X1541244Y754053D02*
X1546322D01*
X1553940Y761670D02*
X1564097D01*
Y759131D01*
X1553940Y748974D01*
Y746435D01*
X1569175D02*
Y756592D01*
X1571714D01*
X1574253Y754053D01*
Y746435D01*
Y754053D01*
X1576792Y756592D01*
X1579332Y754053D01*
Y746435D01*
X1584410D02*
X1589488D01*
X1586949D01*
Y756592D01*
X1584410D01*
X1597106Y746435D02*
X1602184D01*
X1599645D01*
Y761670D01*
X1597106D01*
X1630115Y746435D02*
X1625037Y751513D01*
Y756592D01*
X1630115Y761670D01*
X1637733Y759131D02*
X1640272Y761670D01*
X1645350D01*
X1647890Y759131D01*
Y748974D01*
X1645350Y746435D01*
X1640272D01*
X1637733Y748974D01*
Y759131D01*
X1652968Y746435D02*
Y748974D01*
X1655507D01*
Y746435D01*
X1652968D01*
X1675820D02*
X1665664D01*
X1675820Y756592D01*
Y759131D01*
X1673281Y761670D01*
X1668203D01*
X1665664Y759131D01*
X1680899D02*
X1683438Y761670D01*
X1688516D01*
X1691055Y759131D01*
Y748974D01*
X1688516Y746435D01*
X1683438D01*
X1680899Y748974D01*
Y759131D01*
X1696134D02*
X1698673Y761670D01*
X1703751D01*
X1706291Y759131D01*
Y748974D01*
X1703751Y746435D01*
X1698673D01*
X1696134Y748974D01*
Y759131D01*
X1711369Y746435D02*
Y756592D01*
X1713908D01*
X1716447Y754053D01*
Y746435D01*
Y754053D01*
X1718987Y756592D01*
X1721526Y754053D01*
Y746435D01*
X1726604D02*
Y756592D01*
X1729143D01*
X1731682Y754053D01*
Y746435D01*
Y754053D01*
X1734222Y756592D01*
X1736761Y754053D01*
Y746435D01*
X1741839D02*
X1746917Y751513D01*
Y756592D01*
X1741839Y761670D01*
X1348257Y708335D02*
X1353336D01*
X1350797D01*
Y723570D01*
X1348257Y721031D01*
X1371110Y708335D02*
X1360953D01*
X1371110Y718492D01*
Y721031D01*
X1368571Y723570D01*
X1363492D01*
X1360953Y721031D01*
X1386345Y723570D02*
X1376188D01*
Y715953D01*
X1381267Y718492D01*
X1383806D01*
X1386345Y715953D01*
Y710874D01*
X1383806Y708335D01*
X1378728D01*
X1376188Y710874D01*
X1391423Y708335D02*
X1396502D01*
X1393963D01*
Y723570D01*
X1391423Y721031D01*
X1419354Y723570D02*
X1429511D01*
X1424433D01*
Y708335D01*
X1437129D02*
X1442207D01*
X1444746Y710874D01*
Y715953D01*
X1442207Y718492D01*
X1437129D01*
X1434590Y715953D01*
Y710874D01*
X1437129Y708335D01*
X1452364Y721031D02*
Y718492D01*
X1449825D01*
X1454903D01*
X1452364D01*
Y710874D01*
X1454903Y708335D01*
X1465060Y718492D02*
X1470138D01*
X1472677Y715953D01*
Y708335D01*
X1465060D01*
X1462520Y710874D01*
X1465060Y713413D01*
X1472677D01*
X1477755Y708335D02*
X1482834D01*
X1480295D01*
Y723570D01*
X1477755D01*
X1348257Y746435D02*
X1353336D01*
X1350797D01*
Y761670D01*
X1348257Y759131D01*
X1371110Y746435D02*
X1360953D01*
X1371110Y756592D01*
Y759131D01*
X1368571Y761670D01*
X1363492D01*
X1360953Y759131D01*
X1386345Y761670D02*
X1376188D01*
Y754053D01*
X1381267Y756592D01*
X1383806D01*
X1386345Y754053D01*
Y748974D01*
X1383806Y746435D01*
X1378728D01*
X1376188Y748974D01*
X1391423Y746435D02*
X1396502D01*
X1393963D01*
Y761670D01*
X1391423Y759131D01*
X1212376Y760826D02*
Y743898D01*
X1223661D01*
D466*
X552620Y1284392D02*
Y1279313D01*
X556006D01*
X552620Y1296392D02*
Y1291313D01*
X556006D01*
X664242Y145387D02*
Y140308D01*
X667627D01*
X480841Y1440432D02*
Y1435354D01*
X484227D01*
X475841Y1440432D02*
Y1435354D01*
X479227D01*
X715841Y1454432D02*
Y1449354D01*
X719227D01*
X710891Y1459382D02*
Y1454304D01*
X714277D01*
X736841Y1452432D02*
Y1447354D01*
X740227D01*
X741791Y1447483D02*
Y1442404D01*
X745176D01*
X701484Y1428644D02*
Y1423566D01*
X704870D01*
X694484Y1428644D02*
Y1423566D01*
X697870D01*
X585620Y1427432D02*
Y1422354D01*
X589006D01*
X556399Y1430432D02*
Y1425354D01*
X559785D01*
X568620Y1436432D02*
Y1431354D01*
X572006D01*
X658013Y1407942D02*
Y1402863D01*
X661398D01*
X578620Y1427432D02*
Y1422354D01*
X582006D01*
X563400Y1430432D02*
Y1425354D01*
X566785D01*
X575620Y1436432D02*
Y1431354D01*
X579006D01*
X658013Y1400942D02*
Y1395863D01*
X661398D01*
X593131Y1437748D02*
Y1432669D01*
X596517D01*
X598081Y1432798D02*
Y1427720D01*
X601466D01*
X671473Y1430515D02*
Y1425437D01*
X674858D01*
X683233Y1449602D02*
Y1444524D01*
X686619D01*
X678284Y1454552D02*
Y1449473D01*
X681669D01*
X678473Y1430515D02*
Y1425437D01*
X681858D01*
X558620Y1306382D02*
Y1301304D01*
X562006D01*
X552620Y1272392D02*
Y1267313D01*
X556006D01*
X497118Y1534722D02*
Y1529644D01*
X500503D01*
X522100Y1539025D02*
Y1533947D01*
X525485D01*
X452120Y1326392D02*
Y1321313D01*
X455506D01*
X447120Y1326392D02*
Y1321313D01*
X450506D01*
X464620Y1338392D02*
Y1333313D01*
X468006D01*
X459620Y1338392D02*
Y1333313D01*
X463006D01*
X478120Y1326392D02*
Y1321313D01*
X481506D01*
X473120Y1326392D02*
Y1321313D01*
X476506D01*
X370120Y1350392D02*
Y1345313D01*
X373506D01*
X522858Y809562D02*
Y804484D01*
X526244D01*
X667747Y78317D02*
Y73239D01*
X671132D01*
X668145Y388011D02*
Y382933D01*
X671531D01*
X678620Y1077524D02*
Y1072446D01*
X682006D01*
X576412Y1060383D02*
Y1055304D01*
X579798D01*
X563712Y1060383D02*
Y1055304D01*
X567098D01*
X551012Y1060383D02*
Y1055304D01*
X554398D01*
X424820Y1267236D02*
Y1262157D01*
X428206D01*
X522343Y1268217D02*
Y1263139D01*
X525728D01*
X294669Y1096280D02*
Y1091202D01*
X298055D01*
X264124Y438167D02*
Y433089D01*
X267510D01*
X183418Y774163D02*
Y769084D01*
X186804D01*
X785044Y1521852D02*
Y1516773D01*
X788429D01*
X791044Y1515851D02*
Y1510773D01*
X794429D01*
X499431Y225321D02*
Y220243D01*
X502816D01*
X522238Y775563D02*
Y770484D01*
X525624D01*
X678620Y1087392D02*
Y1082313D01*
X682006D01*
X493875Y222295D02*
Y217217D01*
X497261D01*
X785714Y1498521D02*
Y1493443D01*
X789099D01*
X795714Y1502521D02*
Y1497443D01*
X799099D01*
X528620Y1308392D02*
Y1303313D01*
X532006D01*
X528620Y1296392D02*
Y1291313D01*
X532006D01*
X290299Y683499D02*
Y678421D01*
X293684D01*
X247046Y1238104D02*
Y1233026D01*
X250431D01*
X282832Y1095068D02*
Y1089989D01*
X286217D01*
X276620Y1140392D02*
Y1135313D01*
X280006D01*
X261388Y1183456D02*
Y1178378D01*
X264773D01*
X258816Y1162568D02*
Y1157490D01*
X262202D01*
X278418Y1014163D02*
Y1009084D01*
X281804D01*
X246737Y1164838D02*
Y1159760D01*
X250123D01*
X747620Y1038392D02*
Y1033313D01*
X751006D01*
X443214Y288821D02*
Y283743D01*
X446599D01*
X741620Y1038392D02*
Y1033313D01*
X745006D01*
X449214Y288821D02*
Y283743D01*
X452599D01*
X436214Y283321D02*
Y278243D01*
X439599D01*
X770863Y1040139D02*
Y1035061D01*
X774248D01*
X432714Y288821D02*
Y283743D01*
X436099D01*
X775812Y1035190D02*
Y1030111D01*
X779198D01*
X191856Y372778D02*
Y367700D01*
X195241D01*
X759620Y954392D02*
Y949313D01*
X763006D01*
X191856Y378778D02*
Y373700D01*
X195241D01*
X753620Y954392D02*
Y949313D01*
X757006D01*
X191856Y344778D02*
Y339700D01*
X195241D01*
X747620Y942392D02*
Y937313D01*
X751006D01*
X191856Y350778D02*
Y345700D01*
X195241D01*
X741620Y942392D02*
Y937313D01*
X745006D01*
X191856Y316778D02*
Y311700D01*
X195241D01*
X735620Y930392D02*
Y925313D01*
X739006D01*
X191856Y322778D02*
Y317700D01*
X195241D01*
X729620Y930392D02*
Y925313D01*
X733006D01*
X191856Y288778D02*
Y283700D01*
X195241D01*
X723620Y918392D02*
Y913313D01*
X727006D01*
X191856Y294778D02*
Y289700D01*
X195241D01*
X717620Y918392D02*
Y913313D01*
X721006D01*
X848901Y1507370D02*
Y1502291D01*
X852287D01*
X844329Y1518137D02*
Y1513058D01*
X847715D01*
X637223Y73028D02*
Y67950D01*
X640609D01*
X779620Y1107382D02*
Y1102303D01*
X783006D01*
X637223Y78028D02*
Y72950D01*
X640609D01*
X779620Y1100382D02*
Y1095303D01*
X783006D01*
X647973Y54621D02*
Y49543D01*
X651358D01*
X647973Y60621D02*
Y55543D01*
X651358D01*
X723620Y894392D02*
Y889313D01*
X727006D01*
X872620Y751892D02*
Y746813D01*
X876006D01*
X729620Y894392D02*
Y889313D01*
X733006D01*
X872620Y745892D02*
Y740813D01*
X876006D01*
X768714Y623922D02*
Y618844D01*
X772099D01*
X777113Y1313324D02*
Y1308245D01*
X780499D01*
X114599Y1291431D02*
Y1286353D01*
X117985D01*
X758549Y568031D02*
Y562953D01*
X761935D01*
X758549Y592031D02*
Y586953D01*
X761935D01*
X741964Y275271D02*
Y270193D01*
X745349D01*
X775964Y355271D02*
Y350193D01*
X779349D01*
X724464Y362771D02*
Y357693D01*
X727849D01*
X711464Y355271D02*
Y350193D01*
X714849D01*
X609252Y253533D02*
Y248454D01*
X612638D01*
X604431Y190321D02*
Y185243D01*
X607816D01*
X395940Y206692D02*
Y201613D01*
X399326D01*
X702714Y1098521D02*
Y1093443D01*
X706099D01*
X854518Y1516073D02*
Y1510994D01*
X857904D01*
X452034Y338778D02*
Y333700D01*
X455420D01*
X701896Y1159363D02*
Y1154285D01*
X705281D01*
X618787Y1231296D02*
Y1226218D01*
X622173D01*
X650104Y122902D02*
Y117824D01*
X653489D01*
X891897Y946417D02*
Y941338D01*
X895283D01*
X891449Y935080D02*
Y930002D01*
X894834D01*
X911914Y637029D02*
Y631951D01*
X915299D01*
X712206Y327630D02*
Y322551D01*
X715592D01*
X768464Y362771D02*
Y357693D01*
X771849D01*
X209888Y1281473D02*
Y1276394D01*
X213273D01*
X37478Y1305976D02*
Y1300898D01*
X40864D01*
X534034Y1219278D02*
Y1214200D01*
X537420D01*
X775964Y305771D02*
Y300693D01*
X779349D01*
X761620Y1289392D02*
Y1284313D01*
X765006D01*
X792810Y767392D02*
Y762313D01*
X796196D01*
X784560Y751976D02*
Y746897D01*
X787946D01*
X777810Y763392D02*
Y758313D01*
X781196D01*
X689199Y337431D02*
Y332353D01*
X692585D01*
X691199Y316431D02*
Y311353D01*
X694585D01*
X713199Y335431D02*
Y330353D01*
X716585D01*
X776199Y389431D02*
Y384353D01*
X779585D01*
X403820Y406901D02*
Y401823D01*
X407206D01*
X374128Y384444D02*
Y379366D01*
X377514D01*
X391368Y381342D02*
Y376263D01*
X394753D01*
X676148Y104911D02*
Y99833D01*
X679533D01*
X686423Y101223D02*
Y96144D01*
X689808D01*
X42349Y1161831D02*
Y1156753D01*
X45735D01*
X447442Y366163D02*
Y361084D01*
X450828D01*
X617431Y187321D02*
Y182243D01*
X620816D01*
X625431Y195321D02*
Y190243D01*
X628816D01*
X629431Y192321D02*
Y187243D01*
X632816D01*
X418803Y30949D02*
Y25870D01*
X422189D01*
X524431Y182321D02*
Y177243D01*
X527816D01*
X391853Y203109D02*
Y198031D01*
X395238D01*
X625431Y99321D02*
Y94243D01*
X628816D01*
X593431Y123321D02*
Y118243D01*
X596816D01*
X609431Y107321D02*
Y102243D01*
X612816D01*
X626034Y158778D02*
Y153700D01*
X629420D01*
X593431Y131321D02*
Y126243D01*
X596816D01*
X609431Y115321D02*
Y110243D01*
X612816D01*
X479061Y225445D02*
Y220366D01*
X482447D01*
X470194Y215086D02*
Y210008D01*
X473580D01*
X466431Y197321D02*
Y192243D01*
X469816D01*
X492137Y214168D02*
Y209090D01*
X495522D01*
X454431Y58321D02*
Y53243D01*
X457816D01*
X457021Y80057D02*
Y74978D01*
X460406D01*
X467274Y79531D02*
Y74453D01*
X470659D01*
X736048Y1266090D02*
Y1261012D01*
X739433D01*
X755808Y1266491D02*
Y1261413D01*
X759194D01*
X727140Y1264560D02*
Y1259481D01*
X730526D01*
X681752Y1254392D02*
Y1249313D01*
X685138D01*
X726999Y1253245D02*
Y1248166D01*
X730385D01*
X726820Y1275592D02*
Y1270513D01*
X730206D01*
X702705Y1275698D02*
Y1270620D01*
X706090D01*
X690675Y1265651D02*
Y1260573D01*
X694061D01*
X646176Y1253972D02*
Y1248893D01*
X649562D01*
X655147Y1254603D02*
Y1249525D01*
X658533D01*
X671569Y1235663D02*
Y1230585D01*
X674955D01*
X696437Y1247340D02*
Y1242262D01*
X699823D01*
X696257Y1237141D02*
Y1232063D01*
X699643D01*
X691896Y1231374D02*
Y1226296D01*
X695282D01*
X247178Y1246082D02*
Y1241003D01*
X250563D01*
X929914Y743029D02*
Y737951D01*
X933299D01*
X938109Y751557D02*
Y746478D01*
X941495D01*
X928162Y757972D02*
Y752893D01*
X931548D01*
X255063Y1195021D02*
Y1189943D01*
X258449D01*
X688186Y406179D02*
Y401101D01*
X691571D01*
X496034Y248778D02*
Y243700D01*
X499420D01*
X673928Y384673D02*
Y379595D01*
X677314D01*
X710768Y322813D02*
Y317735D01*
X714154D01*
X681431Y438321D02*
Y433243D01*
X684816D01*
X677490Y380426D02*
Y375347D01*
X680876D01*
X673494Y324499D02*
Y319420D01*
X676880D01*
X687431Y439321D02*
Y434243D01*
X690816D01*
X690046Y379124D02*
Y374045D01*
X693432D01*
X743867Y279895D02*
Y274816D01*
X747253D01*
X692431Y439321D02*
Y434243D01*
X695816D01*
X695388Y379224D02*
Y374145D01*
X698774D01*
X746464Y294021D02*
Y288943D01*
X749849D01*
X697431Y439321D02*
Y434243D01*
X700816D01*
X585431Y115321D02*
Y110243D01*
X588816D01*
X593431Y99321D02*
Y94243D01*
X596816D01*
X601431Y99321D02*
Y94243D01*
X604816D01*
X698418Y1291163D02*
Y1286084D01*
X701804D01*
X690468Y1338851D02*
Y1333772D01*
X693854D01*
X556499Y162532D02*
Y157453D01*
X559884D01*
X578213Y120888D02*
Y115810D01*
X581598D01*
X650428Y166781D02*
Y161702D01*
X653814D01*
X620993Y113003D02*
Y107924D01*
X624378D01*
X609094Y138335D02*
Y133257D01*
X612480D01*
X607061Y242784D02*
Y237705D01*
X610446D01*
X422583Y1377463D02*
Y1372384D01*
X425969D01*
X738799Y103111D02*
Y98033D01*
X742185D01*
X735199Y56944D02*
Y51866D01*
X738585D01*
X754046Y134592D02*
Y129513D01*
X757432D01*
X739790Y77423D02*
Y72345D01*
X743176D01*
X359083Y387278D02*
Y382200D01*
X362469D01*
X330820Y1038242D02*
Y1033164D01*
X334206D01*
X245418Y974163D02*
Y969084D01*
X248804D01*
X235941Y1207532D02*
Y1202453D01*
X239326D01*
X402431Y213321D02*
Y208243D01*
X405816D01*
X245299Y1219532D02*
Y1214453D01*
X248685D01*
X238930Y803657D02*
Y798578D01*
X242316D01*
X466432Y206722D02*
Y201644D01*
X469818D01*
X293820Y1230592D02*
Y1225513D01*
X297206D01*
X275693Y679032D02*
Y673953D01*
X279079D01*
X558251Y1277707D02*
Y1272628D01*
X561636D01*
X264299Y388031D02*
Y382953D01*
X267685D01*
X463271Y201720D02*
Y196642D01*
X466657D01*
X544090Y1539132D02*
Y1534054D01*
X547476D01*
X556290Y1539132D02*
Y1534054D01*
X559676D01*
X476462Y205113D02*
Y200035D01*
X479848D01*
X426418Y1253163D02*
Y1248084D01*
X429804D01*
X118418Y679163D02*
Y674084D01*
X121804D01*
X295299Y679032D02*
Y673953D01*
X298684D01*
X269299Y1219532D02*
Y1214453D01*
X272685D01*
X481545Y212586D02*
Y207507D01*
X484930D01*
X484811Y1279081D02*
Y1274003D01*
X488197D01*
X544411Y1370862D02*
Y1365784D01*
X547797D01*
X665235Y1135927D02*
Y1130849D01*
X668620D01*
X395714Y265769D02*
Y260691D01*
X399099D01*
X401714Y265769D02*
Y260691D01*
X405099D01*
X552998Y303065D02*
Y297987D01*
X556383D01*
X552998Y310065D02*
Y304987D01*
X556383D01*
X700135Y22751D02*
Y17673D01*
X703521D01*
X745579Y500139D02*
Y495060D01*
X748964D01*
X687020Y230232D02*
Y225153D01*
X690405D01*
X692199Y230232D02*
Y225153D01*
X695584D01*
X668020Y230232D02*
Y225153D01*
X671405D01*
X673199Y230232D02*
Y225153D01*
X676584D01*
X660499Y222711D02*
Y217632D01*
X663884D01*
X660499Y217532D02*
Y212453D01*
X663884D01*
X794683Y294487D02*
Y289409D01*
X798069D01*
X684528Y327084D02*
Y322006D01*
X687914D01*
X685499Y345532D02*
Y340453D01*
X688884D01*
X683499Y355532D02*
Y350453D01*
X686884D01*
X704444Y366966D02*
Y361887D01*
X707830D01*
X769370Y389717D02*
Y384639D01*
X772756D01*
X796799Y366281D02*
Y361203D01*
X800185D01*
X458414Y320521D02*
Y315443D01*
X461799D01*
X442872Y315521D02*
Y310443D01*
X446258D01*
X446588Y357839D02*
Y352761D01*
X449974D01*
X418586Y363473D02*
Y358395D01*
X421971D01*
X740964Y362771D02*
Y357693D01*
X744349D01*
X751964Y362771D02*
Y357693D01*
X755349D01*
X740964Y298271D02*
Y293193D01*
X744349D01*
X751964Y298271D02*
Y293193D01*
X755349D01*
X775964Y300271D02*
Y295193D01*
X779349D01*
X767714Y281271D02*
Y276193D01*
X771099D01*
X722214Y299771D02*
Y294693D01*
X725599D01*
X691626Y299206D02*
Y294127D01*
X695012D01*
X424818Y190024D02*
Y184946D01*
X428203D01*
X424818Y197024D02*
Y191946D01*
X428203D01*
X416818Y190024D02*
Y184946D01*
X420203D01*
X424818Y182024D02*
Y176946D01*
X428203D01*
X432818Y190024D02*
Y184946D01*
X436203D01*
X430818Y195024D02*
Y189946D01*
X434203D01*
X418818Y195024D02*
Y189946D01*
X422203D01*
X418818Y184024D02*
Y178946D01*
X422203D01*
X430818Y184024D02*
Y178946D01*
X434203D01*
X661143Y297224D02*
Y292146D01*
X664529D01*
X667143Y297224D02*
Y292146D01*
X670529D01*
X673143Y297224D02*
Y292146D01*
X676529D01*
X655143Y297224D02*
Y292146D01*
X658529D01*
X649143Y297224D02*
Y292146D01*
X652529D01*
X643143Y297224D02*
Y292146D01*
X646529D01*
X651489Y128758D02*
Y123680D01*
X654874D01*
X545829Y152305D02*
Y147227D01*
X549215D01*
X807425Y275186D02*
Y270108D01*
X810811D01*
X842064Y239029D02*
Y233951D01*
X845449D01*
X633497Y553932D02*
Y548854D01*
X636883D01*
X615239Y551320D02*
Y546242D01*
X618625D01*
X342754Y222954D02*
Y217875D01*
X346140D01*
X329799Y341831D02*
Y336753D01*
X333185D01*
X421278Y828662D02*
Y823583D01*
X424664D01*
X314705Y681782D02*
Y676704D01*
X318090D01*
X518653Y1386608D02*
Y1381530D01*
X522038D01*
X665358Y1265153D02*
Y1260075D01*
X668743D01*
X618326Y1128468D02*
Y1123390D01*
X621712D01*
X713623Y1276333D02*
Y1271255D01*
X717008D01*
X390899Y1075041D02*
Y1069963D01*
X394285D01*
X266045Y1275940D02*
Y1270861D01*
X269431D01*
X778949Y1338049D02*
Y1332970D01*
X782335D01*
X723203Y1247089D02*
Y1242010D01*
X726588D01*
X666620Y1288812D02*
Y1283733D01*
X670006D01*
X690820Y1280592D02*
Y1275513D01*
X694206D01*
X714614Y1288679D02*
Y1283601D01*
X718000D01*
X497302Y1290249D02*
Y1285171D01*
X500688D01*
X736549Y546794D02*
Y541716D01*
X739935D01*
X730549Y546794D02*
Y541716D01*
X733935D01*
X474620Y1265392D02*
Y1260313D01*
X478006D01*
X497477Y688255D02*
Y683176D01*
X500862D01*
X201620Y1318392D02*
Y1313313D01*
X205006D01*
X196620Y1312392D02*
Y1307313D01*
X200006D01*
X208515Y1318458D02*
Y1313380D01*
X211901D01*
X208620Y1312392D02*
Y1307313D01*
X212006D01*
X10911Y1164380D02*
Y1159301D01*
X14297D01*
X36549Y1049681D02*
Y1044603D01*
X39935D01*
X76370Y1274651D02*
Y1269573D01*
X79755D01*
X572046Y541755D02*
Y536676D01*
X575432D01*
X578879Y541864D02*
Y536785D01*
X582264D01*
X572155Y534922D02*
Y529843D01*
X575540D01*
X578988Y535031D02*
Y529952D01*
X582373D01*
X565322Y534813D02*
Y529735D01*
X568708D01*
X323869Y655353D02*
Y650275D01*
X327255D01*
X413869Y655353D02*
Y650275D01*
X417255D01*
X705074Y1061878D02*
Y1056800D01*
X708460D01*
X375120Y1350392D02*
Y1345313D01*
X378506D01*
X399120Y1350392D02*
Y1345313D01*
X402506D01*
X394120Y1350392D02*
Y1345313D01*
X397506D01*
X387120Y1338392D02*
Y1333313D01*
X390506D01*
X382120Y1338392D02*
Y1333313D01*
X385506D01*
X411120Y1338392D02*
Y1333313D01*
X414506D01*
X406120Y1338392D02*
Y1333313D01*
X409506D01*
X406120Y1385392D02*
Y1380314D01*
X409506D01*
X401120Y1385392D02*
Y1380314D01*
X404506D01*
X473644Y1074481D02*
Y1069403D01*
X477030D01*
X751549Y568031D02*
Y562953D01*
X754935D01*
X243776Y481378D02*
Y476300D01*
X247161D01*
X792275Y64775D02*
Y59697D01*
X795661D01*
X749863Y82621D02*
Y77543D01*
X753248D01*
X749863Y92621D02*
Y87543D01*
X753248D01*
X749861Y56731D02*
Y51653D01*
X753247D01*
X782275Y64775D02*
Y59697D01*
X785661D01*
X749861Y66731D02*
Y61653D01*
X753247D01*
X713799Y139781D02*
Y134703D01*
X717185D01*
X723799Y139781D02*
Y134703D01*
X727185D01*
X668272Y277130D02*
Y272052D01*
X671657D01*
X755964Y579887D02*
Y574809D01*
X759350D01*
X609431Y131321D02*
Y126243D01*
X612816D01*
X613863Y127612D02*
Y122533D01*
X617249D01*
X597381Y94719D02*
Y89641D01*
X600767D01*
X629759Y146671D02*
Y141593D01*
X633145D01*
X625431Y131321D02*
Y126243D01*
X628816D01*
X629408Y128187D02*
Y123109D01*
X632794D01*
X625431Y123321D02*
Y118243D01*
X628816D01*
X681502Y100204D02*
Y95126D01*
X684888D01*
X676356Y92929D02*
Y87851D01*
X679742D01*
X747945Y138397D02*
Y133319D01*
X751331D01*
X341849Y1537631D02*
Y1532553D01*
X345235D01*
X346799Y1532681D02*
Y1527603D01*
X350185D01*
X306790Y1549107D02*
Y1544029D01*
X310176D01*
X313790Y1549107D02*
Y1544029D01*
X317176D01*
X398566Y1552172D02*
Y1547094D01*
X401952D01*
X391566Y1552172D02*
Y1547094D01*
X394952D01*
X359799Y1555938D02*
Y1550860D01*
X363185D01*
X359799Y1562938D02*
Y1557860D01*
X363185D01*
X701460Y323059D02*
Y317981D01*
X704845D01*
X702727Y329607D02*
Y324529D01*
X706112D01*
X798964Y312521D02*
Y307443D01*
X802349D01*
X798964Y324521D02*
Y319443D01*
X802349D01*
X801965Y300477D02*
Y295399D01*
X805351D01*
X676657Y30831D02*
Y25753D01*
X680042D01*
X657199Y30831D02*
Y25753D01*
X660585D01*
X808821Y751970D02*
Y746891D01*
X812207D01*
X399559Y402785D02*
Y397706D01*
X402944D01*
X390799Y409831D02*
Y404753D01*
X394185D01*
X389822Y420891D02*
Y415812D01*
X393208D01*
X395810Y916407D02*
Y911329D01*
X399196D01*
X385938Y380170D02*
Y375092D01*
X389324D01*
X367156Y373381D02*
Y368303D01*
X370542D01*
X296799Y1051681D02*
Y1046603D01*
X300185D01*
X480424Y659037D02*
Y653959D01*
X483809D01*
X558098Y185401D02*
Y180323D01*
X561484D01*
X557811Y122022D02*
Y116944D01*
X561197D01*
X324190Y721229D02*
Y716150D01*
X327575D01*
X776018Y311253D02*
Y306175D01*
X779403D01*
X775814Y316957D02*
Y311878D01*
X779199D01*
X374221Y929690D02*
Y924612D01*
X377607D01*
X396620Y864392D02*
Y859313D01*
X400006D01*
X451921Y347944D02*
Y342866D01*
X455307D01*
X260796Y1240884D02*
Y1235806D01*
X264181D01*
X199799Y1302231D02*
Y1297153D01*
X203185D01*
X157899Y151241D02*
Y146163D01*
X161285D01*
X547898Y53553D02*
Y48474D01*
X551283D01*
X521906Y59345D02*
Y54266D01*
X525292D01*
X588723Y94935D02*
Y89857D01*
X592109D01*
X134044Y1505031D02*
Y1499953D01*
X137429D01*
X139044Y1505031D02*
Y1499953D01*
X142429D01*
X134823Y1479048D02*
Y1473969D01*
X138209D01*
X139823Y1479048D02*
Y1473969D01*
X143209D01*
X172185Y1454955D02*
Y1449877D01*
X175570D01*
X175720Y1458490D02*
Y1453412D01*
X179106D01*
X320343Y1448783D02*
Y1443705D01*
X323729D01*
X333533Y1451363D02*
Y1446285D01*
X336919D01*
X440620Y1338392D02*
Y1333313D01*
X444006D01*
X164044Y1505031D02*
Y1499953D01*
X167429D01*
X435620Y1338392D02*
Y1333313D01*
X439006D01*
X169044Y1505031D02*
Y1499953D01*
X172429D01*
X490120Y1338392D02*
Y1333313D01*
X493506D01*
X209185Y1443955D02*
Y1438876D01*
X212570D01*
X485120Y1338392D02*
Y1333313D01*
X488506D01*
X212720Y1447490D02*
Y1442412D01*
X216106D01*
X523799Y1559031D02*
Y1553953D01*
X527185D01*
X497799Y1559031D02*
Y1553953D01*
X501185D01*
X99471Y414883D02*
Y409805D01*
X102857D01*
X52799Y562031D02*
Y556953D01*
X56185D01*
X57799Y565814D02*
Y560736D01*
X61185D01*
X62619Y560494D02*
Y555415D01*
X66005D01*
X66011Y567458D02*
Y562379D01*
X69396D01*
X229995Y1231241D02*
Y1226162D01*
X233381D01*
X233299Y1219532D02*
Y1214453D01*
X236685D01*
X221302Y1224692D02*
Y1219614D01*
X224688D01*
X221299Y1231532D02*
Y1226453D01*
X224685D01*
X310717Y1237485D02*
Y1232407D01*
X314103D01*
X157620Y709520D02*
Y704442D01*
X161006D01*
X73782Y568026D02*
Y562948D01*
X77168D01*
X99668Y420261D02*
Y415182D01*
X103053D01*
X70229Y562698D02*
Y557620D01*
X73615D01*
X141620Y705520D02*
Y700442D01*
X145006D01*
X243453Y118914D02*
Y113835D01*
X246839D01*
X209863Y112919D02*
Y107841D01*
X213248D01*
X289656Y331231D02*
Y326152D01*
X293042D01*
X311180Y329027D02*
Y323949D01*
X314565D01*
X293732Y334799D02*
Y329721D01*
X297118D01*
X328368Y316799D02*
Y311720D01*
X331753D01*
X146056Y276469D02*
Y271391D01*
X149441D01*
X155799Y223981D02*
Y218903D01*
X159185D01*
X386399Y293841D02*
Y288763D01*
X389785D01*
X357346Y325728D02*
Y320649D01*
X360731D01*
X357346Y332728D02*
Y327649D01*
X360731D01*
X388524Y232650D02*
Y227571D01*
X391909D01*
X393474Y237599D02*
Y232521D01*
X396859D01*
X380399Y293841D02*
Y288763D01*
X383785D01*
X289192Y322266D02*
Y317188D01*
X292578D01*
X288897Y302454D02*
Y297375D01*
X292283D01*
X289134Y315221D02*
Y310142D01*
X292520D01*
X335624Y315990D02*
Y310912D01*
X339009D01*
X361655Y367704D02*
Y362626D01*
X365040D01*
X454087Y1255387D02*
Y1250309D01*
X457472D01*
X467027Y809940D02*
Y804862D01*
X470413D01*
X491173Y1294301D02*
Y1289223D01*
X494558D01*
X473027Y810940D02*
Y805862D01*
X476413D01*
X150620Y698513D02*
Y693435D01*
X154006D01*
X803894Y269652D02*
Y264574D01*
X807279D01*
X539034Y188778D02*
Y183700D01*
X542420D01*
X512620Y1230392D02*
Y1225313D01*
X516006D01*
X534620Y1236392D02*
Y1231313D01*
X538006D01*
X451027Y972005D02*
Y966926D01*
X454413D01*
X454171Y849177D02*
Y844099D01*
X457557D01*
X582457Y1233411D02*
Y1228333D01*
X585843D01*
X594911Y1232802D02*
Y1227723D01*
X598297D01*
X254620Y1181480D02*
Y1176402D01*
X258005D01*
X323965Y311673D02*
Y306595D01*
X327350D01*
X283727Y267693D02*
Y262614D01*
X287113D01*
X207478Y118787D02*
Y113709D01*
X210864D01*
X192861Y122322D02*
Y117243D01*
X196246D01*
X125566Y164441D02*
Y159363D01*
X128951D01*
X260799Y674681D02*
Y669603D01*
X264185D01*
X347034Y384029D02*
Y378951D01*
X350420D01*
X345534Y372027D02*
Y366949D01*
X348919D01*
X134777Y718367D02*
Y713288D01*
X138163D01*
X359351Y892167D02*
Y887088D01*
X362737D01*
X359351Y897167D02*
Y892088D01*
X362737D01*
X359351Y902167D02*
Y897088D01*
X362737D01*
X347351Y902167D02*
Y897088D01*
X350737D01*
X347351Y897167D02*
Y892088D01*
X350737D01*
X347351Y892167D02*
Y887088D01*
X350737D01*
X353351Y902167D02*
Y897088D01*
X356736D01*
X353351Y897167D02*
Y892088D01*
X356736D01*
X353351Y892167D02*
Y887088D01*
X356736D01*
X143546Y850167D02*
Y845089D01*
X146931D01*
X143546Y855167D02*
Y850089D01*
X146931D01*
X143546Y860167D02*
Y855089D01*
X146931D01*
X102500Y1466923D02*
Y1461845D01*
X105885D01*
X537978Y1387168D02*
Y1382090D01*
X541363D01*
X411871Y1391964D02*
Y1386885D01*
X415256D01*
X234696Y1257616D02*
Y1252538D01*
X238081D01*
X759828Y1042740D02*
Y1037662D01*
X763213D01*
X181508Y680282D02*
Y675203D01*
X184893D01*
X411618Y683903D02*
Y678825D01*
X415003D01*
X386792Y695006D02*
Y689928D01*
X390178D01*
X364428Y690952D02*
Y685873D01*
X367813D01*
X479911Y684332D02*
Y679254D01*
X483297D01*
X523355Y747358D02*
Y742280D01*
X526740D01*
X481722Y738740D02*
Y733661D01*
X485108D01*
X351299Y677991D02*
Y672912D01*
X354684D01*
X326107Y680282D02*
Y675203D01*
X329492D01*
X655841Y209604D02*
Y204525D01*
X659226D01*
X705873Y201442D02*
Y196364D01*
X709259D01*
X312714Y362685D02*
Y357606D01*
X316099D01*
X189899Y249295D02*
Y244217D01*
X193285D01*
X197899Y249295D02*
Y244217D01*
X201285D01*
X217964Y481530D02*
Y476452D01*
X221349D01*
X230664Y481530D02*
Y476452D01*
X234049D01*
X655953Y1373185D02*
Y1368106D01*
X659338D01*
X522428Y1090105D02*
Y1085026D01*
X525813D01*
X522131Y1102367D02*
Y1097288D01*
X525517D01*
X236806Y1192893D02*
Y1187815D01*
X240192D01*
X528822Y1099268D02*
Y1094190D01*
X532208D01*
X515110Y1089775D02*
Y1084697D01*
X518496D01*
X239018Y1182713D02*
Y1177635D01*
X242403D01*
X245299Y1182886D02*
Y1177807D01*
X248685D01*
X690631Y178976D02*
Y173897D01*
X694017D01*
X123811Y154925D02*
Y149847D01*
X127197D01*
X99296Y426251D02*
Y421173D01*
X102682D01*
X237393Y459026D02*
Y453947D01*
X240779D01*
X87612Y491651D02*
Y486572D01*
X90998D01*
X200320Y225224D02*
Y220145D01*
X203706D01*
X249418Y963163D02*
Y958084D01*
X252804D01*
X209799Y906031D02*
Y900953D01*
X213185D01*
X243335Y808704D02*
Y803626D01*
X246721D01*
X248418Y896163D02*
Y891084D01*
X251804D01*
X34938Y1104650D02*
Y1099572D01*
X38324D01*
X649861Y32661D02*
Y27583D01*
X653247D01*
X646441Y29015D02*
Y23936D01*
X649826D01*
X667399Y33324D02*
Y28246D01*
X670785D01*
X683694Y181438D02*
Y176360D01*
X687080D01*
X736431Y189765D02*
Y184687D01*
X739817D01*
X737986Y138575D02*
Y133497D01*
X741372D01*
X733969Y145463D02*
Y140385D01*
X737354D01*
X801231Y24537D02*
Y19459D01*
X804617D01*
X795449Y24895D02*
Y19816D01*
X798835D01*
X808473Y24812D02*
Y19734D01*
X811858D01*
X846273Y24878D02*
Y19800D01*
X849659D01*
X841140Y22582D02*
Y17504D01*
X844526D01*
X853111Y24749D02*
Y19671D01*
X856496D01*
X888440Y11781D02*
Y6702D01*
X891825D01*
X628673Y550444D02*
Y545366D01*
X632058D01*
X496946Y59058D02*
Y53980D01*
X500331D01*
X496549Y53781D02*
Y48703D01*
X499935D01*
X764370Y977907D02*
Y972829D01*
X767755D01*
X539740Y85560D02*
Y80482D01*
X543125D01*
X336279Y106188D02*
Y101109D01*
X339665D01*
X330975Y116775D02*
Y111697D01*
X334360D01*
X331411Y65331D02*
Y60253D01*
X334797D01*
X364299Y52438D02*
Y47360D01*
X367685D01*
X324849Y105854D02*
Y100776D01*
X328234D01*
X312753Y79147D02*
Y74069D01*
X316139D01*
X688620Y1245443D02*
Y1240365D01*
X692006D01*
X670620Y1245392D02*
Y1240313D01*
X674006D01*
X703867Y295964D02*
Y290886D01*
X707253D01*
X711594Y301692D02*
Y296614D01*
X714980D01*
X752141Y371614D02*
Y366536D01*
X755527D01*
X805067Y348776D02*
Y343698D01*
X808453D01*
X143582Y843718D02*
Y838640D01*
X146967D01*
X300278Y71462D02*
Y66384D01*
X303664D01*
X402145Y218313D02*
Y213235D01*
X405531D01*
X408691Y220779D02*
Y215700D01*
X412077D01*
X12324Y1070751D02*
Y1065673D01*
X15710D01*
X224852Y154894D02*
Y149815D01*
X228237D01*
X167792Y89658D02*
Y84580D01*
X171178D01*
X418431Y36321D02*
Y31243D01*
X421816D01*
X239238Y148735D02*
Y143657D01*
X242624D01*
X202942Y90917D02*
Y85838D01*
X206328D01*
X190759Y115781D02*
Y110703D01*
X194144D01*
X601431Y139321D02*
Y134243D01*
X604816D01*
X737587Y371171D02*
Y366093D01*
X740973D01*
X710965Y371080D02*
Y366002D01*
X714351D01*
X81476Y850468D02*
Y845389D01*
X84862D01*
X264561Y368706D02*
Y363628D01*
X267946D01*
X178145Y249118D02*
Y244039D01*
X181531D01*
X525751Y141052D02*
Y135974D01*
X529136D01*
X532166Y147566D02*
Y142488D01*
X535552D01*
X379760Y409312D02*
Y404233D01*
X383145D01*
X121799Y309031D02*
Y303953D01*
X125185D01*
X94255Y409998D02*
Y404919D01*
X97640D01*
X99865Y409899D02*
Y404821D01*
X103251D01*
X333668Y278078D02*
Y272999D01*
X337054D01*
X941914Y740029D02*
Y734950D01*
X945299D01*
X127799Y115031D02*
Y109953D01*
X131185D01*
X127799Y122031D02*
Y116953D01*
X131185D01*
X139799Y115031D02*
Y109953D01*
X143185D01*
X133799Y115031D02*
Y109953D01*
X137185D01*
X133799Y122031D02*
Y116953D01*
X137185D01*
X139799Y122031D02*
Y116953D01*
X143185D01*
X132331Y293076D02*
Y287998D01*
X135717D01*
X132331Y299076D02*
Y293998D01*
X135717D01*
X139332Y293076D02*
Y287998D01*
X142717D01*
X139332Y299076D02*
Y293998D01*
X142717D01*
X201671Y77708D02*
Y72629D01*
X205056D01*
X211398Y52831D02*
Y47753D01*
X214783D01*
X229198Y67364D02*
Y62286D01*
X232583D01*
X181749Y499511D02*
Y494432D01*
X185134D01*
X109788Y739942D02*
Y734864D01*
X113173D01*
X134062Y772153D02*
Y767075D01*
X137448D01*
X163437Y763453D02*
Y758375D01*
X166822D01*
X196799Y484031D02*
Y478952D01*
X200185D01*
X196799Y490031D02*
Y484952D01*
X200185D01*
X206799Y484031D02*
Y478953D01*
X210185D01*
X206799Y489031D02*
Y483953D01*
X210185D01*
X190799Y496031D02*
Y490952D01*
X194185D01*
X196799Y496031D02*
Y490952D01*
X200185D01*
X195664Y705257D02*
Y700178D01*
X199049D01*
X195799Y503031D02*
Y497952D01*
X199185D01*
X214988Y497220D02*
Y492141D01*
X218374D01*
X336444Y228118D02*
Y223040D01*
X339829D01*
X330225Y229984D02*
Y224906D01*
X333610D01*
X332634Y235033D02*
Y229955D01*
X336019D01*
X342713Y229666D02*
Y224588D01*
X346098D01*
X304148Y320848D02*
Y315769D01*
X307534D01*
X323528Y318056D02*
Y312978D01*
X326914D01*
X364393Y254437D02*
Y249359D01*
X367778D01*
X371276Y295085D02*
Y290007D01*
X374661D01*
X377127Y321382D02*
Y316303D01*
X380513D01*
X340034Y346265D02*
Y341187D01*
X343419D01*
X362669Y722336D02*
Y717258D01*
X366055D01*
X370866Y325521D02*
Y320443D01*
X374252D01*
X380130Y372209D02*
Y367131D01*
X383516D01*
X392876Y722363D02*
Y717284D01*
X396262D01*
X7899Y807032D02*
Y801953D01*
X11284D01*
X7819Y1063943D02*
Y1058865D01*
X11204D01*
X131372Y778044D02*
Y772966D01*
X134758D01*
X142688Y772651D02*
Y767572D01*
X146073D01*
X8034Y1182216D02*
Y1177138D01*
X11419D01*
X80301Y1503529D02*
Y1498451D01*
X83687D01*
X141988Y1330529D02*
Y1325450D01*
X145373D01*
X170299Y1329531D02*
Y1324453D01*
X173685D01*
X341620Y786520D02*
Y781442D01*
X345006D01*
X302791Y978747D02*
Y973669D01*
X306176D01*
X315491Y978865D02*
Y973786D01*
X318876D01*
X224979Y1207214D02*
Y1202136D01*
X228365D01*
X561431Y139321D02*
Y134243D01*
X564816D01*
X566065Y129582D02*
Y124503D01*
X569450D01*
X561431Y155321D02*
Y150243D01*
X564816D01*
X569431Y139321D02*
Y134243D01*
X572816D01*
X585431Y131321D02*
Y126243D01*
X588816D01*
X585431Y139321D02*
Y134243D01*
X588816D01*
X569431Y155321D02*
Y150243D01*
X572816D01*
X585431Y155321D02*
Y150243D01*
X588816D01*
X443799Y308030D02*
Y302952D01*
X447185D01*
X450386Y323724D02*
Y318646D01*
X453771D01*
X569431Y163321D02*
Y158243D01*
X572816D01*
X585431Y163321D02*
Y158243D01*
X588816D01*
X489206Y242985D02*
Y237906D01*
X492592D01*
X561887Y178909D02*
Y173831D01*
X565273D01*
X491749Y255945D02*
Y250867D01*
X495134D01*
X593431Y139321D02*
Y134243D01*
X596816D01*
X593431Y155321D02*
Y150243D01*
X596816D01*
X608124Y207733D02*
Y202655D01*
X611510D01*
X664016Y164321D02*
Y159243D01*
X667401D01*
X730299Y14673D02*
Y9595D01*
X733685D01*
X779266Y14898D02*
Y9820D01*
X782651D01*
X824249Y14688D02*
Y9609D01*
X827635D01*
X869196Y15031D02*
Y9952D01*
X872582D01*
X740671Y185709D02*
Y180631D01*
X744057D01*
X687158Y276298D02*
Y271219D01*
X690544D01*
X690046Y324543D02*
Y319465D01*
X693432D01*
X773714Y281271D02*
Y276193D01*
X777099D01*
X986363Y281312D02*
Y276234D01*
X989749D01*
X808659Y282061D02*
Y276983D01*
X812044D01*
X793839Y306521D02*
Y301443D01*
X797224D01*
X421728Y383923D02*
Y378845D01*
X425113D01*
X453997Y389227D02*
Y384149D01*
X457382D01*
X503913Y363813D02*
Y358735D01*
X507298D01*
X497339Y396529D02*
Y391451D01*
X500725D01*
X443198Y716153D02*
Y711075D01*
X446584D01*
X440356Y1389093D02*
Y1384015D01*
X443742D01*
X487840Y717431D02*
Y712353D01*
X491226D01*
X529577Y721322D02*
Y716244D01*
X532963D01*
X538891Y965031D02*
Y959953D01*
X542276D01*
X696064Y404767D02*
Y399688D01*
X699449D01*
X785484Y741549D02*
Y736471D01*
X788869D01*
X556791Y965031D02*
Y959953D01*
X560176D01*
X862799Y832371D02*
Y827292D01*
X866185D01*
X989699Y570031D02*
Y564953D01*
X993085D01*
X959299Y935031D02*
Y929953D01*
X962685D01*
X553216Y1385289D02*
Y1380211D01*
X556601D01*
X671136Y1386716D02*
Y1381638D01*
X674521D01*
X851799Y824031D02*
Y818953D01*
X855185D01*
X394039Y80143D02*
Y75064D01*
X397424D01*
X888799Y965031D02*
Y959953D01*
X892185D01*
X160187Y803249D02*
Y798170D01*
X163573D01*
X139064Y777844D02*
Y772766D01*
X142449D01*
X34988Y894187D02*
Y889108D01*
X38373D01*
X16052Y1127381D02*
Y1122302D01*
X19438D01*
X679199Y22194D02*
Y17116D01*
X682585D01*
X570919Y49931D02*
Y44853D01*
X574305D01*
X563919Y49931D02*
Y44853D01*
X567305D01*
X670108Y1041138D02*
Y1036060D01*
X673493D01*
X257701Y1097191D02*
Y1092113D01*
X261086D01*
X255456Y1119977D02*
Y1114899D01*
X258841D01*
X247967Y1141981D02*
Y1136902D01*
X251353D01*
X381816Y347448D02*
Y342370D01*
X385201D01*
X824509Y786940D02*
Y781861D01*
X827894D01*
X824509Y792940D02*
Y787861D01*
X827894D01*
X103799Y60053D02*
Y54974D01*
X107185D01*
X103799Y53053D02*
Y47975D01*
X107185D01*
X103799Y26553D02*
Y21474D01*
X107185D01*
X103799Y10031D02*
Y4953D01*
X107185D01*
X103799Y46053D02*
Y40974D01*
X107185D01*
X103799Y33053D02*
Y27974D01*
X107185D01*
X103799Y39053D02*
Y33974D01*
X107185D01*
X103799Y102053D02*
Y96974D01*
X107185D01*
X103799Y116053D02*
Y110975D01*
X107185D01*
X103799Y109053D02*
Y103975D01*
X107185D01*
X103799Y74053D02*
Y68974D01*
X107185D01*
X103799Y67053D02*
Y61975D01*
X107185D01*
X103799Y95053D02*
Y89974D01*
X107185D01*
X103799Y81053D02*
Y75974D01*
X107185D01*
X103799Y88053D02*
Y82975D01*
X107185D01*
X103799Y134031D02*
Y128953D01*
X107185D01*
X103799Y123053D02*
Y117975D01*
X107185D01*
X103799Y146031D02*
Y140953D01*
X107185D01*
X103799Y140031D02*
Y134953D01*
X107185D01*
X110799Y122031D02*
Y116953D01*
X114185D01*
X103799Y167031D02*
Y161953D01*
X107185D01*
X103799Y160031D02*
Y154953D01*
X107185D01*
X103799Y188031D02*
Y182953D01*
X107185D01*
X103799Y174031D02*
Y168953D01*
X107185D01*
X103799Y181031D02*
Y175953D01*
X107185D01*
X103799Y153031D02*
Y147953D01*
X107185D01*
X111530Y187810D02*
Y182732D01*
X114916D01*
X113799Y154031D02*
Y148953D01*
X117185D01*
X114368Y160689D02*
Y155610D01*
X117754D01*
X114083Y173786D02*
Y168708D01*
X117468D01*
X114119Y167286D02*
Y162207D01*
X117504D01*
X103799Y202031D02*
Y196953D01*
X107185D01*
X103799Y195031D02*
Y189953D01*
X107185D01*
X103799Y245041D02*
Y239963D01*
X107185D01*
X103799Y216031D02*
Y210953D01*
X107185D01*
X103799Y209031D02*
Y203953D01*
X107185D01*
X103799Y238041D02*
Y232963D01*
X107185D01*
X103799Y223031D02*
Y217953D01*
X107185D01*
X103799Y230031D02*
Y224953D01*
X107185D01*
X103799Y259041D02*
Y253963D01*
X107185D01*
X103799Y252041D02*
Y246963D01*
X107185D01*
X103799Y272041D02*
Y266963D01*
X107185D01*
X103799Y266041D02*
Y260963D01*
X107185D01*
X109236Y266624D02*
Y261545D01*
X112622D01*
X103799Y319041D02*
Y313963D01*
X107185D01*
X103799Y312041D02*
Y306963D01*
X107185D01*
X103799Y339041D02*
Y333963D01*
X107185D01*
X103799Y326041D02*
Y320963D01*
X107185D01*
X103799Y333041D02*
Y327963D01*
X107185D01*
X103799Y284041D02*
Y278963D01*
X107185D01*
X103799Y278031D02*
Y272952D01*
X107185D01*
X103799Y305041D02*
Y299963D01*
X107185D01*
X103799Y291041D02*
Y285963D01*
X107185D01*
X103799Y298041D02*
Y292963D01*
X107185D01*
X114199Y312041D02*
Y306963D01*
X117585D01*
X114199Y319041D02*
Y313963D01*
X117585D01*
X114199Y284041D02*
Y278963D01*
X117585D01*
X114199Y278369D02*
Y273291D01*
X117585D01*
X114199Y305041D02*
Y299963D01*
X117585D01*
X114199Y291041D02*
Y285963D01*
X117585D01*
X114199Y298041D02*
Y292963D01*
X117585D01*
X114199Y333041D02*
Y327963D01*
X117585D01*
X114199Y326041D02*
Y320963D01*
X117585D01*
X115420Y135035D02*
Y129957D01*
X118806D01*
X116799Y122031D02*
Y116953D01*
X120185D01*
X116809Y140045D02*
Y134967D01*
X120194D01*
X118799Y150031D02*
Y144953D01*
X122185D01*
X120727Y132556D02*
Y127477D01*
X124113D01*
X121471Y126157D02*
Y121079D01*
X124857D01*
X121769Y145302D02*
Y140224D01*
X125154D01*
X115555Y178922D02*
Y173843D01*
X118941D01*
X116817Y188534D02*
Y183456D01*
X120203D01*
X124299Y170531D02*
Y165453D01*
X127685D01*
X124299Y203531D02*
Y198453D01*
X127685D01*
X131799Y132031D02*
Y126953D01*
X135185D01*
X138974Y27521D02*
Y22443D01*
X142359D01*
X133299Y161531D02*
Y156453D01*
X136685D01*
X163201Y133224D02*
Y128146D01*
X166586D01*
X127382Y183550D02*
Y178472D01*
X130767D01*
X133299Y179531D02*
Y174453D01*
X136685D01*
X133299Y170531D02*
Y165453D01*
X136685D01*
X133299Y194531D02*
Y189453D01*
X136685D01*
X133299Y212531D02*
Y207453D01*
X136685D01*
X133299Y203531D02*
Y198453D01*
X136685D01*
X142299Y170531D02*
Y165453D01*
X145685D01*
X142299Y203531D02*
Y198453D01*
X145685D01*
X115684Y263696D02*
Y258618D01*
X119070D01*
X115567Y273794D02*
Y268716D01*
X118952D01*
X127683Y268851D02*
Y263772D01*
X131069D01*
X152225Y292550D02*
Y287472D01*
X155611D01*
X136286Y326277D02*
Y321199D01*
X139672D01*
X146046Y306157D02*
Y301079D01*
X149431D01*
X152225Y305550D02*
Y300472D01*
X155611D01*
X148046Y319657D02*
Y314579D01*
X151431D01*
X84544Y431624D02*
Y426546D01*
X87929D01*
X23594Y464574D02*
Y459496D01*
X26979D01*
X30594Y464574D02*
Y459496D01*
X33979D01*
X9594Y464574D02*
Y459496D01*
X12979D01*
X16594Y464574D02*
Y459496D01*
X19979D01*
X37594Y464574D02*
Y459496D01*
X40979D01*
X51594Y464574D02*
Y459496D01*
X54979D01*
X44594Y464574D02*
Y459496D01*
X47979D01*
X58594Y464574D02*
Y459496D01*
X61979D01*
X65594Y464574D02*
Y459496D01*
X68979D01*
X72594Y464574D02*
Y459496D01*
X75979D01*
X79594Y464574D02*
Y459496D01*
X82979D01*
X103799Y349041D02*
Y343963D01*
X107185D01*
X103799Y344041D02*
Y338963D01*
X107185D01*
X103799Y371043D02*
Y365965D01*
X107185D01*
X103799Y355041D02*
Y349963D01*
X107185D01*
X103799Y361041D02*
Y355963D01*
X107185D01*
X103799Y377043D02*
Y371965D01*
X107185D01*
X108764Y372076D02*
Y366998D01*
X112150D01*
X87950Y405892D02*
Y400814D01*
X91335D01*
X97850Y395993D02*
Y390914D01*
X101235D01*
X92900Y400942D02*
Y395864D01*
X96285D01*
X84544Y438624D02*
Y433546D01*
X87929D01*
X84544Y424624D02*
Y419546D01*
X87929D01*
X84544Y459624D02*
Y454546D01*
X87929D01*
X84544Y445625D02*
Y440546D01*
X87929D01*
X84544Y452625D02*
Y447546D01*
X87929D01*
X84544Y417625D02*
Y412546D01*
X87929D01*
X84544Y410625D02*
Y405546D01*
X87929D01*
X103799Y384043D02*
Y378965D01*
X107185D01*
X103799Y391043D02*
Y385965D01*
X107185D01*
X112302Y395276D02*
Y390197D01*
X115687D01*
X5969Y469031D02*
Y463953D01*
X9355D01*
X5969Y476031D02*
Y470953D01*
X9355D01*
X48094Y471574D02*
Y466496D01*
X51479D01*
X34094Y471574D02*
Y466496D01*
X37479D01*
X41094Y471574D02*
Y466496D01*
X44479D01*
X55094Y471574D02*
Y466496D01*
X58479D01*
X62094Y471574D02*
Y466496D01*
X65479D01*
X69094Y471574D02*
Y466496D01*
X72479D01*
X76094Y471574D02*
Y466496D01*
X79479D01*
X104299Y544723D02*
Y539645D01*
X107685D01*
X114199Y340041D02*
Y334963D01*
X117585D01*
X118799Y343041D02*
Y337963D01*
X122185D01*
X115128Y357383D02*
Y352305D01*
X118514D01*
X119649Y353526D02*
Y348447D01*
X123035D01*
X119821Y361118D02*
Y356040D01*
X123207D01*
X121969Y348543D02*
Y343464D01*
X125355D01*
X112302Y382276D02*
Y377197D01*
X115687D01*
X113924Y373133D02*
Y368054D01*
X117310D01*
X119452Y371044D02*
Y365966D01*
X122838D01*
X121664Y366253D02*
Y361175D01*
X125049D01*
X136286Y339277D02*
Y334199D01*
X139672D01*
X132070Y367277D02*
Y362199D01*
X135455D01*
X132070Y354277D02*
Y349199D01*
X135455D01*
X190299Y170531D02*
Y165453D01*
X193685D01*
X199299Y170531D02*
Y165453D01*
X202685D01*
X199299Y161531D02*
Y156453D01*
X202685D01*
X208299Y170531D02*
Y165453D01*
X211685D01*
X190299Y203531D02*
Y198453D01*
X193685D01*
X199299Y212531D02*
Y207453D01*
X202685D01*
X199299Y179531D02*
Y174453D01*
X202685D01*
X199299Y203531D02*
Y198453D01*
X202685D01*
X208299Y203531D02*
Y198453D01*
X211685D01*
X237799Y235131D02*
Y230053D01*
X241185D01*
X237799Y227131D02*
Y222053D01*
X241185D01*
X247411Y276064D02*
Y270986D01*
X250797D01*
X185856Y288778D02*
Y283700D01*
X189242D01*
X185856Y294778D02*
Y289700D01*
X189242D01*
X188856Y299278D02*
Y294200D01*
X192241D01*
X188856Y312278D02*
Y307200D01*
X192241D01*
X185856Y322778D02*
Y317700D01*
X189242D01*
X185856Y316778D02*
Y311700D01*
X189242D01*
X188856Y327278D02*
Y322200D01*
X192241D01*
X188856Y284278D02*
Y279200D01*
X192241D01*
X185856Y350778D02*
Y345700D01*
X189242D01*
X185856Y344778D02*
Y339700D01*
X189242D01*
X188856Y368278D02*
Y363200D01*
X192241D01*
X185856Y378778D02*
Y373700D01*
X189242D01*
X185856Y372778D02*
Y367700D01*
X189242D01*
X188856Y383278D02*
Y378200D01*
X192241D01*
X188856Y340278D02*
Y335200D01*
X192241D01*
X188856Y355278D02*
Y350200D01*
X192241D01*
X254799Y379031D02*
Y373953D01*
X258185D01*
X257799Y261835D02*
Y256757D01*
X261185D01*
X332491Y262034D02*
Y256956D01*
X335876D01*
X384448Y229468D02*
Y224389D01*
X387834D01*
X369591Y239319D02*
Y234241D01*
X372976D01*
X382448Y250921D02*
Y245842D01*
X385834D01*
X360549Y267781D02*
Y262703D01*
X363935D01*
X374498Y275762D02*
Y270684D01*
X377883D01*
X391214Y262769D02*
Y257691D01*
X394599D01*
X397549Y240781D02*
Y235703D01*
X400935D01*
X407195Y264065D02*
Y258987D01*
X410580D01*
X428834Y272003D02*
Y266924D01*
X432220D01*
X353399Y321963D02*
Y316885D01*
X356785D01*
X357399Y343841D02*
Y338763D01*
X360785D01*
X377036Y297757D02*
Y292679D01*
X380422D01*
X392399Y293841D02*
Y288763D01*
X395785D01*
X430817Y293782D02*
Y288703D01*
X434203D01*
X357399Y337841D02*
Y332763D01*
X360785D01*
X177577Y443629D02*
Y438551D01*
X180963D01*
X256064Y477015D02*
Y471937D01*
X259449D01*
X261964Y554370D02*
Y549292D01*
X265349D01*
X193759Y584531D02*
Y579453D01*
X197144D01*
X180099Y599992D02*
Y594913D01*
X183484D01*
X190299Y603531D02*
Y598453D01*
X193685D01*
X190299Y625531D02*
Y620453D01*
X193685D01*
X313214Y554370D02*
Y549292D01*
X316599D01*
X313369Y606705D02*
Y601627D01*
X316754D01*
X313369Y625681D02*
Y620603D01*
X316754D01*
X337799Y669945D02*
Y664866D01*
X341185D01*
X338655Y745791D02*
Y740713D01*
X342040D01*
X69701Y915125D02*
Y910046D01*
X73087D01*
X73924Y905870D02*
Y900791D01*
X77309D01*
X73268Y922991D02*
Y917913D01*
X76654D01*
X69701Y948249D02*
Y943170D01*
X73087D01*
X73268Y940382D02*
Y935303D01*
X76654D01*
X78917Y940035D02*
Y934957D01*
X82303D01*
X78917Y923338D02*
Y918260D01*
X82303D01*
X83149Y907630D02*
Y902552D01*
X86535D01*
X84548Y914006D02*
Y908928D01*
X87933D01*
X85030Y922953D02*
Y917874D01*
X88415D01*
X83149Y955743D02*
Y950665D01*
X86535D01*
X85030Y940420D02*
Y935342D01*
X88415D01*
X84548Y949367D02*
Y944288D01*
X87933D01*
X69701Y1057119D02*
Y1052041D01*
X73087D01*
X73924Y1047864D02*
Y1042786D01*
X77309D01*
X73924Y957503D02*
Y952425D01*
X77309D01*
X73268Y1064986D02*
Y1059908D01*
X76654D01*
X73268Y1082377D02*
Y1077298D01*
X76654D01*
X78917Y1082029D02*
Y1076951D01*
X82303D01*
X83149Y1049625D02*
Y1044546D01*
X86535D01*
X84548Y1056001D02*
Y1050923D01*
X87933D01*
X78917Y1065333D02*
Y1060255D01*
X82303D01*
X85030Y1082415D02*
Y1077337D01*
X88415D01*
X85030Y1064948D02*
Y1059869D01*
X88415D01*
X230299Y889031D02*
Y883953D01*
X233685D01*
X230299Y877031D02*
Y871953D01*
X233685D01*
X230299Y883031D02*
Y877953D01*
X233685D01*
X230299Y908031D02*
Y902953D01*
X233685D01*
X230299Y927031D02*
Y921953D01*
X233685D01*
X230299Y914031D02*
Y908953D01*
X233685D01*
X230299Y933031D02*
Y927953D01*
X233685D01*
X230299Y939031D02*
Y933953D01*
X233685D01*
X230299Y902031D02*
Y896953D01*
X233685D01*
X230299Y952031D02*
Y946953D01*
X233685D01*
X230299Y958031D02*
Y952953D01*
X233685D01*
X230299Y964031D02*
Y958953D01*
X233685D01*
X233534Y1038061D02*
Y1032983D01*
X236920D01*
X69701Y1090243D02*
Y1085165D01*
X73087D01*
X73924Y1099498D02*
Y1094420D01*
X77309D01*
X73924Y1160864D02*
Y1155786D01*
X77309D01*
X69701Y1170119D02*
Y1165041D01*
X73087D01*
X73268Y1177986D02*
Y1172908D01*
X76654D01*
X73268Y1195377D02*
Y1190298D01*
X76654D01*
X84548Y1091361D02*
Y1086283D01*
X87933D01*
X83039Y1097487D02*
Y1092409D01*
X86424D01*
X83149Y1162625D02*
Y1157546D01*
X86535D01*
X78917Y1195030D02*
Y1189951D01*
X82303D01*
X78917Y1178333D02*
Y1173255D01*
X82303D01*
X84548Y1169001D02*
Y1163923D01*
X87933D01*
X88899Y1163134D02*
Y1158055D01*
X92284D01*
X85030Y1195415D02*
Y1190337D01*
X88415D01*
X85030Y1177947D02*
Y1172869D01*
X88415D01*
X69701Y1203243D02*
Y1198165D01*
X73087D01*
X73924Y1212498D02*
Y1207420D01*
X77309D01*
X84548Y1204361D02*
Y1199283D01*
X87933D01*
X83149Y1210738D02*
Y1205660D01*
X86535D01*
X145590Y1480549D02*
Y1475471D01*
X148976D01*
X129056Y1480549D02*
Y1475471D01*
X132442D01*
X167045Y1451939D02*
Y1446860D01*
X170430D01*
X128277Y1506533D02*
Y1501455D01*
X131662D01*
X144811Y1508533D02*
Y1503455D01*
X148197D01*
X158277Y1506533D02*
Y1501455D01*
X161662D01*
X178736Y1463630D02*
Y1458552D01*
X182122D01*
X204045Y1440939D02*
Y1435860D01*
X207430D01*
X215736Y1452630D02*
Y1447552D01*
X219122D01*
X174811Y1506533D02*
Y1501455D01*
X178197D01*
X277390Y1535693D02*
Y1530614D01*
X280776D01*
X301799Y1546681D02*
Y1541603D01*
X305185D01*
X318799Y1546681D02*
Y1541603D01*
X322185D01*
X336910Y1542591D02*
Y1537513D01*
X340296D01*
X351749Y1527731D02*
Y1522653D01*
X355134D01*
X377120Y1338392D02*
Y1333313D01*
X380506D01*
X392120Y1338392D02*
Y1333313D01*
X395506D01*
X401120Y1338392D02*
Y1333313D01*
X404506D01*
X365120Y1350392D02*
Y1345313D01*
X368506D01*
X380120Y1350392D02*
Y1345313D01*
X383506D01*
X389120Y1350392D02*
Y1345313D01*
X392506D01*
X404120Y1350392D02*
Y1345313D01*
X407506D01*
X364389Y1567870D02*
Y1562792D01*
X367775D01*
X365084Y1551802D02*
Y1546724D01*
X368470D01*
X385799Y1555681D02*
Y1550603D01*
X389185D01*
X396120Y1385392D02*
Y1380314D01*
X399506D01*
X402799Y1555681D02*
Y1550603D01*
X406185D01*
X416120Y1338392D02*
Y1333313D01*
X419506D01*
X430620Y1338392D02*
Y1333313D01*
X434006D01*
X411120Y1385392D02*
Y1380314D01*
X414506D01*
X427753Y1454852D02*
Y1449773D01*
X431139D01*
X407654Y1484308D02*
Y1479230D01*
X411040D01*
X411825Y1473965D02*
Y1468886D01*
X415211D01*
X417063Y1493346D02*
Y1488267D01*
X420449D01*
X421884Y1472144D02*
Y1467065D01*
X425270D01*
X428031Y1468463D02*
Y1463385D01*
X431416D01*
X436359Y278121D02*
Y273043D01*
X439745D01*
X442082Y293806D02*
Y288727D01*
X445467D01*
X454526Y290944D02*
Y285865D01*
X457912D01*
X552998Y317066D02*
Y311987D01*
X556383D01*
X558419Y49931D02*
Y44853D01*
X561805D01*
X552998Y296066D02*
Y290987D01*
X556383D01*
X505299Y626531D02*
Y621453D01*
X508685D01*
X570539Y75103D02*
Y70024D01*
X573924D01*
X576419Y49931D02*
Y44853D01*
X579805D01*
X581145Y64496D02*
Y59418D01*
X584531D01*
X648032Y65681D02*
Y60602D01*
X651418D01*
X648097Y49121D02*
Y44043D01*
X651483D01*
X629843Y75669D02*
Y70591D01*
X633228D01*
X637283Y83088D02*
Y78009D01*
X640669D01*
X637283Y67968D02*
Y62890D01*
X640669D01*
X451049Y733681D02*
Y728603D01*
X454435D01*
X564620Y858531D02*
Y853453D01*
X568006D01*
X683609Y70621D02*
Y65543D01*
X686995D01*
X692609Y70621D02*
Y65543D01*
X695995D01*
X701609Y70621D02*
Y65543D01*
X704995D01*
X683609Y79621D02*
Y74543D01*
X686995D01*
X692609Y88621D02*
Y83543D01*
X695995D01*
X683609Y88621D02*
Y83543D01*
X686995D01*
X692609Y79621D02*
Y74543D01*
X695995D01*
X701609Y79621D02*
Y74543D01*
X704995D01*
X701609Y88621D02*
Y83543D01*
X704995D01*
X735275Y82775D02*
Y77697D01*
X738661D01*
X736275Y71775D02*
Y66697D01*
X739661D01*
X735275Y92775D02*
Y87697D01*
X738661D01*
X708275Y133775D02*
Y128697D01*
X711661D01*
X710299Y165781D02*
Y160703D01*
X713685D01*
X715299Y170781D02*
Y165703D01*
X718685D01*
X727299Y165781D02*
Y160703D01*
X730685D01*
X728799Y134281D02*
Y129203D01*
X732185D01*
X722299Y170781D02*
Y165703D01*
X725685D01*
X678714Y324521D02*
Y319443D01*
X682099D01*
X678714Y330521D02*
Y325443D01*
X682099D01*
X682964Y338271D02*
Y333193D01*
X686349D01*
X696415Y289986D02*
Y284908D01*
X699800D01*
X716549Y270781D02*
Y265703D01*
X719935D01*
X730490Y267780D02*
Y262702D01*
X733875D01*
X725714Y321521D02*
Y316443D01*
X729099D01*
X734714Y312521D02*
Y307443D01*
X738099D01*
X734714Y321521D02*
Y316443D01*
X738099D01*
X725714Y330521D02*
Y325443D01*
X729099D01*
X725714Y339521D02*
Y334443D01*
X729099D01*
X725714Y348521D02*
Y343443D01*
X729099D01*
X734714Y339521D02*
Y334443D01*
X738099D01*
X734714Y330521D02*
Y325443D01*
X738099D01*
X734714Y348521D02*
Y343443D01*
X738099D01*
X765779Y75231D02*
Y70153D01*
X769165D01*
X765779Y58231D02*
Y53153D01*
X769165D01*
X776275Y58775D02*
Y53697D01*
X779661D01*
X798275Y58775D02*
Y53697D01*
X801661D01*
X786214Y283771D02*
Y278693D01*
X789599D01*
X982299Y286004D02*
Y280926D01*
X985685D01*
X807891Y288466D02*
Y283387D01*
X811276D01*
X743714Y312521D02*
Y307443D01*
X747099D01*
X743714Y321521D02*
Y316443D01*
X747099D01*
X752714Y321521D02*
Y316443D01*
X756099D01*
X761714Y321521D02*
Y316443D01*
X765099D01*
X761714Y312521D02*
Y307443D01*
X765099D01*
X743714Y330521D02*
Y325443D01*
X747099D01*
X752714Y330521D02*
Y325443D01*
X756099D01*
X743714Y339521D02*
Y334443D01*
X747099D01*
X752714Y339521D02*
Y334443D01*
X756099D01*
X743714Y348521D02*
Y343443D01*
X747099D01*
X752714Y348521D02*
Y343443D01*
X756099D01*
X761714Y330521D02*
Y325443D01*
X765099D01*
X761714Y339521D02*
Y334443D01*
X765099D01*
X761714Y348521D02*
Y343443D01*
X765099D01*
X678964Y360521D02*
Y355443D01*
X682349D01*
X703845Y372883D02*
Y367804D01*
X707231D01*
X781367Y582220D02*
Y577141D01*
X784753D01*
X718120Y894392D02*
Y889313D01*
X721506D01*
X735120Y894392D02*
Y889313D01*
X738506D01*
X872620Y740392D02*
Y735313D01*
X876006D01*
X985699Y575031D02*
Y569953D01*
X989085D01*
X820799Y774031D02*
Y768953D01*
X824185D01*
X849635Y780449D02*
Y775371D01*
X853021D01*
X872620Y757392D02*
Y752313D01*
X876006D01*
X868396Y829291D02*
Y824213D01*
X871781D01*
X442120Y1326392D02*
Y1321313D01*
X445506D01*
X457120Y1326392D02*
Y1321313D01*
X460506D01*
X468120Y1326392D02*
Y1321313D01*
X471506D01*
X445620Y1338392D02*
Y1333313D01*
X449006D01*
X454620Y1338392D02*
Y1333313D01*
X458006D01*
X469620Y1338392D02*
Y1333313D01*
X473006D01*
X480120Y1338392D02*
Y1333313D01*
X483506D01*
X483120Y1326392D02*
Y1321313D01*
X486506D01*
X495120Y1338392D02*
Y1333313D01*
X498506D01*
X441782Y1482352D02*
Y1477273D01*
X445167D01*
X457175Y1494613D02*
Y1489535D01*
X460560D01*
X469901Y1440468D02*
Y1435390D01*
X473287D01*
X478406Y1445531D02*
Y1440453D01*
X481791D01*
X471429Y1494641D02*
Y1489562D01*
X474815D01*
X454690Y1569681D02*
Y1564603D01*
X458076D01*
X470690Y1569681D02*
Y1564603D01*
X474076D01*
X459190Y1574181D02*
Y1569103D01*
X462576D01*
X466190Y1574181D02*
Y1569103D01*
X469576D01*
X483620Y1419938D02*
Y1414860D01*
X487006D01*
X484390Y1412432D02*
Y1407354D01*
X487776D01*
X523620Y1419938D02*
Y1414860D01*
X527006D01*
X484834Y1435860D02*
Y1430782D01*
X488219D01*
X500772Y1461718D02*
Y1456639D01*
X504158D01*
X529103Y1467291D02*
Y1462213D01*
X532489D01*
X529376Y1459997D02*
Y1454919D01*
X532762D01*
X479954Y1489781D02*
Y1484703D01*
X483340D01*
X479954Y1496738D02*
Y1491659D01*
X483340D01*
X486347Y1484040D02*
Y1478961D01*
X489732D01*
X513183Y1469415D02*
Y1464337D01*
X516569D01*
X535622Y1529553D02*
Y1524475D01*
X539008D01*
X555841Y1435432D02*
Y1430354D01*
X559227D01*
X562841Y1435432D02*
Y1430354D01*
X566227D01*
X562259Y1450625D02*
Y1445547D01*
X565645D01*
X545210Y1459858D02*
Y1454780D01*
X548595D01*
X580841Y1438432D02*
Y1433354D01*
X584227D01*
X566049Y1529681D02*
Y1524603D01*
X569435D01*
X586531Y1435623D02*
Y1430545D01*
X589917D01*
X598298Y1427180D02*
Y1422101D01*
X601684D01*
X634959Y1452435D02*
Y1447357D01*
X638345D01*
X622862Y1480933D02*
Y1475854D01*
X626248D01*
X613905Y1497470D02*
Y1492392D01*
X617291D01*
X607590Y1526961D02*
Y1521883D01*
X610976D01*
X607590Y1533428D02*
Y1528350D01*
X610976D01*
X626690Y1497289D02*
Y1492211D01*
X630075D01*
X623471Y1523357D02*
Y1518279D01*
X626857D01*
X626642Y1505463D02*
Y1500385D01*
X630027D01*
X712120Y918392D02*
Y913313D01*
X715506D01*
X713620Y966392D02*
Y961313D01*
X717006D01*
X714120Y1014392D02*
Y1009313D01*
X717506D01*
X713620Y1062392D02*
Y1057313D01*
X717006D01*
X708620Y1104392D02*
Y1099313D01*
X712006D01*
X724120Y930392D02*
Y925313D01*
X727506D01*
X729120Y918392D02*
Y913313D01*
X732506D01*
X736120Y942392D02*
Y937313D01*
X739506D01*
X741120Y930392D02*
Y925313D01*
X744506D01*
X748120Y954392D02*
Y949313D01*
X751506D01*
X753120Y942392D02*
Y937313D01*
X756506D01*
X725620Y978392D02*
Y973313D01*
X729006D01*
X727620Y966392D02*
Y961313D01*
X731006D01*
X737620Y990392D02*
Y985313D01*
X741006D01*
X739620Y978392D02*
Y973313D01*
X743006D01*
X749620Y1002392D02*
Y997313D01*
X753006D01*
X751620Y990392D02*
Y985313D01*
X755006D01*
X765120Y954392D02*
Y949313D01*
X768506D01*
X920693Y960711D02*
Y955633D01*
X924078D01*
X921082Y987310D02*
Y982232D01*
X924468D01*
X727620Y1014392D02*
Y1009313D01*
X731006D01*
X736120Y1038392D02*
Y1033313D01*
X739506D01*
X753120Y1038392D02*
Y1033313D01*
X756506D01*
X727620Y1062392D02*
Y1057313D01*
X731006D01*
X737120Y1074392D02*
Y1069313D01*
X740506D01*
X750120Y1086392D02*
Y1081313D01*
X753506D01*
X752120Y1074392D02*
Y1069313D01*
X755506D01*
X763620Y1002392D02*
Y997313D01*
X767006D01*
X780055Y1030947D02*
Y1025869D01*
X783441D01*
X766620Y1044382D02*
Y1039304D01*
X770006D01*
X773620Y1100325D02*
Y1095247D01*
X777006D01*
X779620Y1113382D02*
Y1108304D01*
X783006D01*
X658013Y1413942D02*
Y1408863D01*
X661398D01*
X658013Y1394942D02*
Y1389863D01*
X661398D01*
X665841Y1430432D02*
Y1425354D01*
X669227D01*
X639006Y1482391D02*
Y1477313D01*
X642392D01*
X639227Y1476847D02*
Y1471768D01*
X642612D01*
X638144Y1488823D02*
Y1483744D01*
X641530D01*
X644280Y1451534D02*
Y1446456D01*
X647665D01*
X651926Y1468116D02*
Y1463037D01*
X655312D01*
X660922Y1474039D02*
Y1468961D01*
X664308D01*
X682102Y1427076D02*
Y1421998D01*
X685487D01*
X672233Y1453999D02*
Y1448921D01*
X675619D01*
X689233Y1450999D02*
Y1445921D01*
X692619D01*
X693519Y1434130D02*
Y1429051D01*
X696905D01*
X704277Y1432956D02*
Y1427878D01*
X707662D01*
X705274Y1460615D02*
Y1455537D01*
X708660D01*
X810279Y1140031D02*
Y1134953D01*
X813665D01*
X769491Y1271808D02*
Y1266730D01*
X772876D01*
X810279Y1160031D02*
Y1154953D01*
X813665D01*
X721728Y1454088D02*
Y1449009D01*
X725114D01*
X717799Y1509031D02*
Y1503953D01*
X721185D01*
X736877Y1457831D02*
Y1452753D01*
X740262D01*
X745202Y1443200D02*
Y1438122D01*
X748587D01*
X734075Y1508539D02*
Y1503460D01*
X737461D01*
X748799Y1508031D02*
Y1502953D01*
X752185D01*
X764288Y1508031D02*
Y1502953D01*
X767674D01*
X782426Y1503159D02*
Y1498080D01*
X785811D01*
X785479Y1516769D02*
Y1511691D01*
X788865D01*
X663487Y1110392D02*
Y1105313D01*
X666873D01*
X674371Y138561D02*
Y133483D01*
X677757D01*
X656557Y1098308D02*
Y1093230D01*
X659942D01*
X673910Y82946D02*
Y77868D01*
X677295D01*
X228620Y1188392D02*
Y1183313D01*
X232006D01*
X748549Y597031D02*
Y591953D01*
X751935D01*
X240620Y1164392D02*
Y1159313D01*
X244006D01*
X747996Y611188D02*
Y606110D01*
X751381D01*
X753549Y602031D02*
Y596953D01*
X756935D01*
X270499Y1202532D02*
Y1197453D01*
X273884D01*
X748549Y587031D02*
Y581953D01*
X751935D01*
X808714Y294521D02*
Y289443D01*
X812099D01*
X808714Y324521D02*
Y319443D01*
X812099D01*
X808714Y306521D02*
Y301443D01*
X812099D01*
X808714Y312521D02*
Y307443D01*
X812099D01*
X773620Y1107325D02*
Y1102247D01*
X777006D01*
X763120Y1086392D02*
Y1081313D01*
X766506D01*
X779620Y1094382D02*
Y1089304D01*
X783006D01*
X764699Y1095531D02*
Y1090453D01*
X768085D01*
X812375Y1510156D02*
Y1505078D01*
X815761D01*
X820620Y1510156D02*
Y1505078D01*
X824006D01*
X898349Y1004981D02*
Y999903D01*
X901735D01*
X894349Y1011981D02*
Y1006903D01*
X897735D01*
X842900Y1270595D02*
Y1265516D01*
X846286D01*
X134899Y783396D02*
Y778318D01*
X138284D01*
X142899Y783396D02*
Y778318D01*
X146284D01*
X104351Y781167D02*
Y776088D01*
X107737D01*
X100619Y793910D02*
Y788832D01*
X104004D01*
X513921Y693004D02*
Y687925D01*
X517306D01*
X690620Y1074382D02*
Y1069304D01*
X694006D01*
X250778Y1094047D02*
Y1088969D01*
X254163D01*
X462576Y1247845D02*
Y1242766D01*
X465962D01*
X282891Y1179323D02*
Y1174245D01*
X286276D01*
X87131Y690111D02*
Y685032D01*
X90516D01*
X92130Y690111D02*
Y685032D01*
X95516D01*
X97130Y690111D02*
Y685032D01*
X100516D01*
X97130Y698111D02*
Y693032D01*
X100516D01*
X87131Y698111D02*
Y693032D01*
X90516D01*
X92130Y698111D02*
Y693032D01*
X95516D01*
X10855Y923402D02*
Y918324D01*
X14240D01*
X171679Y776190D02*
Y771112D01*
X175064D01*
X825428Y812984D02*
Y807906D01*
X828813D01*
X829515Y810060D02*
Y804982D01*
X832901D01*
X834540Y809265D02*
Y804187D01*
X837926D01*
X838940Y815766D02*
Y810688D01*
X842326D01*
X839565Y811054D02*
Y805975D01*
X842950D01*
X471031Y898794D02*
Y893715D01*
X474417D01*
X302791Y1014723D02*
Y1009644D01*
X306176D01*
X315491Y1014723D02*
Y1009644D01*
X318876D01*
X470955Y913141D02*
Y908062D01*
X474341D01*
X476392Y898660D02*
Y893582D01*
X479778D01*
X476297Y912721D02*
Y907643D01*
X479683D01*
X772799Y1088031D02*
Y1082953D01*
X776185D01*
X390693Y299324D02*
Y294245D01*
X394079D01*
X270462Y940408D02*
Y935330D01*
X273848D01*
X232799Y1159031D02*
Y1153953D01*
X236185D01*
X283799Y262031D02*
Y256953D01*
X287185D01*
X283656Y273354D02*
Y268276D01*
X287041D01*
X601431Y163321D02*
Y158243D01*
X604816D01*
X625431Y179321D02*
Y174243D01*
X628816D01*
X629163Y184417D02*
Y179338D01*
X632549D01*
X295034Y520278D02*
Y515200D01*
X298419D01*
X495442Y496077D02*
Y490999D01*
X498827D01*
X566131Y199521D02*
Y194443D01*
X569516D01*
X521431Y163321D02*
Y158243D01*
X524816D01*
X529431Y155321D02*
Y150243D01*
X532816D01*
X537431Y155321D02*
Y150243D01*
X540816D01*
X553431Y147321D02*
Y142243D01*
X556816D01*
X553431Y155321D02*
Y150243D01*
X556816D01*
X341620Y780520D02*
Y775442D01*
X345006D01*
X235943Y115111D02*
Y110033D01*
X239329D01*
X241151Y114268D02*
Y109190D01*
X244536D01*
X236358Y103524D02*
Y98446D01*
X239744D01*
D467*
X1196905Y773105D02*
X4355280D01*
X1196905Y735005D02*
X4355280D01*
X1196905Y696905D02*
X4355280D01*
Y811205D01*
X1196905D02*
X4355280D01*
X1196905Y696905D02*
Y811205D01*
X3999020Y696905D02*
Y811205D01*
X3779117Y696905D02*
Y811205D01*
X3440381Y696905D02*
Y811205D01*
X3101645Y696905D02*
Y811205D01*
X2884789Y696905D02*
Y811205D01*
X2719732Y696905D02*
Y811205D01*
X2530299Y696905D02*
Y811205D01*
X2380478Y696905D02*
Y811205D01*
X2078306Y696905D02*
Y811205D01*
X1891920Y696905D02*
Y811205D01*
X1763427Y696905D02*
Y811205D01*
X1499344Y696905D02*
Y811205D01*
X1336827Y696905D02*
Y811205D01*
D468*
X4010450Y784535D02*
Y802817D01*
X4019591D01*
X4022638Y799770D01*
Y793676D01*
X4019591Y790629D01*
X4010450D01*
X4016544D02*
X4022638Y784535D01*
X4031779D02*
X4037873D01*
X4040920Y787582D01*
Y793676D01*
X4037873Y796723D01*
X4031779D01*
X4028732Y793676D01*
Y787582D01*
X4031779Y784535D01*
X4047014Y796723D02*
Y787582D01*
X4050061Y784535D01*
X4059202D01*
Y796723D01*
X4068344Y799770D02*
Y796723D01*
X4065296D01*
X4071390D01*
X4068344D01*
Y787582D01*
X4071390Y784535D01*
X4089673D02*
X4083578D01*
X4080532Y787582D01*
Y793676D01*
X4083578Y796723D01*
X4089673D01*
X4092720Y793676D01*
Y790629D01*
X4080532D01*
X4111002Y802817D02*
Y784535D01*
X4101861D01*
X4098813Y787582D01*
Y793676D01*
X4101861Y796723D01*
X4111002D01*
X4135378Y784535D02*
Y802817D01*
X4144519D01*
X4147566Y799770D01*
Y793676D01*
X4144519Y790629D01*
X4135378D01*
X4156707Y796723D02*
X4162801D01*
X4165848Y793676D01*
Y784535D01*
X4156707D01*
X4153660Y787582D01*
X4156707Y790629D01*
X4165848D01*
X4174989Y799770D02*
Y796723D01*
X4171942D01*
X4178036D01*
X4174989D01*
Y787582D01*
X4178036Y784535D01*
X4187177Y802817D02*
Y784535D01*
Y793676D01*
X4190224Y796723D01*
X4196318D01*
X4199365Y793676D01*
Y784535D01*
X4223741Y802817D02*
Y784535D01*
X4235929D01*
X4251164D02*
X4245070D01*
X4242023Y787582D01*
Y793676D01*
X4245070Y796723D01*
X4251164D01*
X4254211Y793676D01*
Y790629D01*
X4242023D01*
X4260305Y784535D02*
Y796723D01*
X4269446D01*
X4272493Y793676D01*
Y784535D01*
X4284681Y778441D02*
X4287729D01*
X4290775Y781488D01*
Y796723D01*
X4281635D01*
X4278587Y793676D01*
Y787582D01*
X4281635Y784535D01*
X4290775D01*
X4299916Y799770D02*
Y796723D01*
X4296870D01*
X4302964D01*
X4299916D01*
Y787582D01*
X4302964Y784535D01*
X4312104Y802817D02*
Y784535D01*
Y793676D01*
X4315152Y796723D01*
X4321246D01*
X4324293Y793676D01*
Y784535D01*
X3790547Y802817D02*
Y784535D01*
Y793676D01*
X3802735D01*
Y802817D01*
Y784535D01*
X3811877D02*
X3817971D01*
X3821017Y787582D01*
Y793676D01*
X3817971Y796723D01*
X3811877D01*
X3808829Y793676D01*
Y787582D01*
X3811877Y784535D01*
X3827112D02*
X3833206D01*
X3830158D01*
Y802817D01*
X3827112D01*
X3851488Y784535D02*
X3845394D01*
X3842346Y787582D01*
Y793676D01*
X3845394Y796723D01*
X3851488D01*
X3854535Y793676D01*
Y790629D01*
X3842346D01*
X3878911Y802817D02*
Y784535D01*
X3891099D01*
X3906334D02*
X3900240D01*
X3897193Y787582D01*
Y793676D01*
X3900240Y796723D01*
X3906334D01*
X3909381Y793676D01*
Y790629D01*
X3897193D01*
X3915475Y784535D02*
Y796723D01*
X3924616D01*
X3927663Y793676D01*
Y784535D01*
X3939851Y778441D02*
X3942898D01*
X3945945Y781488D01*
Y796723D01*
X3936804D01*
X3933757Y793676D01*
Y787582D01*
X3936804Y784535D01*
X3945945D01*
X3955086Y799770D02*
Y796723D01*
X3952039D01*
X3958133D01*
X3955086D01*
Y787582D01*
X3958133Y784535D01*
X3967274Y802817D02*
Y784535D01*
Y793676D01*
X3970321Y796723D01*
X3976415D01*
X3979462Y793676D01*
Y784535D01*
X3451811Y802817D02*
Y784535D01*
Y793676D01*
X3463999D01*
Y802817D01*
Y784535D01*
X3473140D02*
X3479234D01*
X3482281Y787582D01*
Y793676D01*
X3479234Y796723D01*
X3473140D01*
X3470093Y793676D01*
Y787582D01*
X3473140Y784535D01*
X3488375D02*
X3494469D01*
X3491422D01*
Y802817D01*
X3488375D01*
X3512751Y784535D02*
X3506657D01*
X3503610Y787582D01*
Y793676D01*
X3506657Y796723D01*
X3512751D01*
X3515798Y793676D01*
Y790629D01*
X3503610D01*
X3540174Y802817D02*
X3552362D01*
X3546268D01*
Y784535D01*
X3561503D02*
X3567597D01*
X3570645Y787582D01*
Y793676D01*
X3567597Y796723D01*
X3561503D01*
X3558456Y793676D01*
Y787582D01*
X3561503Y784535D01*
X3576739D02*
X3582833D01*
X3579785D01*
Y802817D01*
X3576739D01*
X3601115Y784535D02*
X3595021D01*
X3591974Y787582D01*
Y793676D01*
X3595021Y796723D01*
X3601115D01*
X3604162Y793676D01*
Y790629D01*
X3591974D01*
X3610256Y796723D02*
Y784535D01*
Y790629D01*
X3613303Y793676D01*
X3616350Y796723D01*
X3619397D01*
X3631585D02*
X3637679D01*
X3640726Y793676D01*
Y784535D01*
X3631585D01*
X3628538Y787582D01*
X3631585Y790629D01*
X3640726D01*
X3646820Y784535D02*
Y796723D01*
X3655961D01*
X3659008Y793676D01*
Y784535D01*
X3677290Y796723D02*
X3668149D01*
X3665102Y793676D01*
Y787582D01*
X3668149Y784535D01*
X3677290D01*
X3692525D02*
X3686431D01*
X3683384Y787582D01*
Y793676D01*
X3686431Y796723D01*
X3692525D01*
X3695572Y793676D01*
Y790629D01*
X3683384D01*
X3726042Y784535D02*
X3719948Y790629D01*
Y796723D01*
X3726042Y802817D01*
X3735183Y793676D02*
X3747371D01*
X3753465Y784535D02*
X3759559Y790629D01*
Y796723D01*
X3753465Y802817D01*
X3113075D02*
Y784535D01*
Y793676D01*
X3125262D01*
Y802817D01*
Y784535D01*
X3134404D02*
X3140498D01*
X3143545Y787582D01*
Y793676D01*
X3140498Y796723D01*
X3134404D01*
X3131357Y793676D01*
Y787582D01*
X3134404Y784535D01*
X3149639D02*
X3155733D01*
X3152686D01*
Y802817D01*
X3149639D01*
X3174015Y784535D02*
X3167921D01*
X3164874Y787582D01*
Y793676D01*
X3167921Y796723D01*
X3174015D01*
X3177062Y793676D01*
Y790629D01*
X3164874D01*
X3201438Y802817D02*
X3213626D01*
X3207532D01*
Y784535D01*
X3222767D02*
X3228861D01*
X3231908Y787582D01*
Y793676D01*
X3228861Y796723D01*
X3222767D01*
X3219720Y793676D01*
Y787582D01*
X3222767Y784535D01*
X3238002D02*
X3244096D01*
X3241049D01*
Y802817D01*
X3238002D01*
X3262378Y784535D02*
X3256284D01*
X3253237Y787582D01*
Y793676D01*
X3256284Y796723D01*
X3262378D01*
X3265425Y793676D01*
Y790629D01*
X3253237D01*
X3271519Y796723D02*
Y784535D01*
Y790629D01*
X3274566Y793676D01*
X3277613Y796723D01*
X3280660D01*
X3292849D02*
X3298942D01*
X3301989Y793676D01*
Y784535D01*
X3292849D01*
X3289801Y787582D01*
X3292849Y790629D01*
X3301989D01*
X3308083Y784535D02*
Y796723D01*
X3317224D01*
X3320272Y793676D01*
Y784535D01*
X3338553Y796723D02*
X3329413D01*
X3326365Y793676D01*
Y787582D01*
X3329413Y784535D01*
X3338553D01*
X3353789D02*
X3347695D01*
X3344648Y787582D01*
Y793676D01*
X3347695Y796723D01*
X3353789D01*
X3356836Y793676D01*
Y790629D01*
X3344648D01*
X3387306Y784535D02*
X3381212Y790629D01*
Y796723D01*
X3387306Y802817D01*
X3396447Y793676D02*
X3408635D01*
X3402541Y799770D02*
Y787582D01*
X3414729Y784535D02*
X3420823Y790629D01*
Y796723D01*
X3414729Y802817D01*
X2896219D02*
Y784535D01*
X2905360D01*
X2908407Y787582D01*
Y799770D01*
X2905360Y802817D01*
X2896219D01*
X2923642Y784535D02*
X2917548D01*
X2914501Y787582D01*
Y793676D01*
X2917548Y796723D01*
X2923642D01*
X2926689Y793676D01*
Y790629D01*
X2914501D01*
X2932783Y784535D02*
X2941924D01*
X2944971Y787582D01*
X2941924Y790629D01*
X2935830D01*
X2932783Y793676D01*
X2935830Y796723D01*
X2944971D01*
X2963253D02*
X2954112D01*
X2951065Y793676D01*
Y787582D01*
X2954112Y784535D01*
X2963253D01*
X2969347Y796723D02*
Y784535D01*
Y790629D01*
X2972394Y793676D01*
X2975441Y796723D01*
X2978488D01*
X2987629Y784535D02*
X2993723D01*
X2990676D01*
Y796723D01*
X2987629D01*
X3002864Y778441D02*
Y796723D01*
X3012005D01*
X3015052Y793676D01*
Y787582D01*
X3012005Y784535D01*
X3002864D01*
X3024193Y799770D02*
Y796723D01*
X3021146D01*
X3027240D01*
X3024193D01*
Y787582D01*
X3027240Y784535D01*
X3036382D02*
X3042475D01*
X3039428D01*
Y796723D01*
X3036382D01*
X3054663Y784535D02*
X3060757D01*
X3063805Y787582D01*
Y793676D01*
X3060757Y796723D01*
X3054663D01*
X3051617Y793676D01*
Y787582D01*
X3054663Y784535D01*
X3069898D02*
Y796723D01*
X3079040D01*
X3082086Y793676D01*
Y784535D01*
X2731162Y802817D02*
X2743350D01*
X2737256D01*
Y784535D01*
X2758585D02*
X2752491D01*
X2749444Y787582D01*
Y793676D01*
X2752491Y796723D01*
X2758585D01*
X2761632Y793676D01*
Y790629D01*
X2749444D01*
X2767726Y784535D02*
Y796723D01*
X2770773D01*
X2773820Y793676D01*
Y784535D01*
Y793676D01*
X2776867Y796723D01*
X2779914Y793676D01*
Y784535D01*
X2786008Y778441D02*
Y796723D01*
X2795150D01*
X2798196Y793676D01*
Y787582D01*
X2795150Y784535D01*
X2786008D01*
X2804290D02*
X2810385D01*
X2807337D01*
Y802817D01*
X2804290D01*
X2822573Y796723D02*
X2828667D01*
X2831714Y793676D01*
Y784535D01*
X2822573D01*
X2819525Y787582D01*
X2822573Y790629D01*
X2831714D01*
X2840854Y799770D02*
Y796723D01*
X2837808D01*
X2843902D01*
X2840854D01*
Y787582D01*
X2843902Y784535D01*
X2862184D02*
X2856090D01*
X2853043Y787582D01*
Y793676D01*
X2856090Y796723D01*
X2862184D01*
X2865231Y793676D01*
Y790629D01*
X2853043D01*
X2541729Y784535D02*
Y802817D01*
X2550870D01*
X2553917Y799770D01*
Y793676D01*
X2550870Y790629D01*
X2541729D01*
X2563058Y796723D02*
X2569153D01*
X2572199Y793676D01*
Y784535D01*
X2563058D01*
X2560012Y787582D01*
X2563058Y790629D01*
X2572199D01*
X2590482Y802817D02*
Y784535D01*
X2581341D01*
X2578293Y787582D01*
Y793676D01*
X2581341Y796723D01*
X2590482D01*
X2627046Y799770D02*
X2623999Y802817D01*
X2617905D01*
X2614858Y799770D01*
Y796723D01*
X2617905Y793676D01*
X2623999D01*
X2627046Y790629D01*
Y787582D01*
X2623999Y784535D01*
X2617905D01*
X2614858Y787582D01*
X2633140Y802817D02*
Y784535D01*
Y793676D01*
X2636187Y796723D01*
X2642281D01*
X2645328Y793676D01*
Y784535D01*
X2654469Y796723D02*
X2660563D01*
X2663610Y793676D01*
Y784535D01*
X2654469D01*
X2651422Y787582D01*
X2654469Y790629D01*
X2663610D01*
X2669704Y778441D02*
Y796723D01*
X2678845D01*
X2681892Y793676D01*
Y787582D01*
X2678845Y784535D01*
X2669704D01*
X2697127D02*
X2691033D01*
X2687986Y787582D01*
Y793676D01*
X2691033Y796723D01*
X2697127D01*
X2700174Y793676D01*
Y790629D01*
X2687986D01*
X2391908Y802817D02*
Y790629D01*
X2398002Y784535D01*
X2404096Y790629D01*
Y802817D01*
X2410190Y784535D02*
X2416284D01*
X2413237D01*
Y796723D01*
X2410190D01*
X2428472D02*
X2434566D01*
X2437613Y793676D01*
Y784535D01*
X2428472D01*
X2425425Y787582D01*
X2428472Y790629D01*
X2437613D01*
X2443707Y784535D02*
X2455895Y796723D01*
X2461989Y784535D02*
Y802817D01*
X2471130D01*
X2474177Y799770D01*
Y793676D01*
X2471130Y790629D01*
X2461989D01*
X2483318Y796723D02*
X2489412D01*
X2492459Y793676D01*
Y784535D01*
X2483318D01*
X2480271Y787582D01*
X2483318Y790629D01*
X2492459D01*
X2510741Y802817D02*
Y784535D01*
X2501600D01*
X2498553Y787582D01*
Y793676D01*
X2501600Y796723D01*
X2510741D01*
X2089736Y802817D02*
Y784535D01*
X2098877D01*
X2101924Y787582D01*
Y799770D01*
X2098877Y802817D01*
X2089736D01*
X2108018Y796723D02*
Y784535D01*
Y790629D01*
X2111065Y793676D01*
X2114112Y796723D01*
X2117159D01*
X2126300Y784535D02*
X2132394D01*
X2129347D01*
Y796723D01*
X2126300D01*
X2141535Y784535D02*
X2147629D01*
X2144582D01*
Y802817D01*
X2141535D01*
X2156770Y784535D02*
X2162864D01*
X2159817D01*
Y802817D01*
X2156770D01*
X2190287D02*
Y784535D01*
X2202475D01*
X2211616Y796723D02*
X2217710D01*
X2220757Y793676D01*
Y784535D01*
X2211616D01*
X2208569Y787582D01*
X2211616Y790629D01*
X2220757D01*
X2226851Y796723D02*
Y787582D01*
X2229898Y784535D01*
X2239039D01*
Y781488D01*
X2235992Y778441D01*
X2232945D01*
X2239039Y784535D02*
Y796723D01*
X2254274Y784535D02*
X2248180D01*
X2245133Y787582D01*
Y793676D01*
X2248180Y796723D01*
X2254274D01*
X2257321Y793676D01*
Y790629D01*
X2245133D01*
X2263415Y796723D02*
Y784535D01*
Y790629D01*
X2266462Y793676D01*
X2269509Y796723D01*
X2272556D01*
X2299980Y784535D02*
Y802817D01*
X2309121D01*
X2312168Y799770D01*
Y793676D01*
X2309121Y790629D01*
X2299980D01*
X2321309Y796723D02*
X2327403D01*
X2330450Y793676D01*
Y784535D01*
X2321309D01*
X2318262Y787582D01*
X2321309Y790629D01*
X2330450D01*
X2336544Y784535D02*
X2342638D01*
X2339591D01*
Y796723D01*
X2336544D01*
X2351779D02*
Y784535D01*
Y790629D01*
X2354826Y793676D01*
X2357873Y796723D01*
X2360920D01*
X1903350Y802817D02*
Y784535D01*
Y793676D01*
X1915538D01*
Y802817D01*
Y784535D01*
X1924679D02*
X1930773D01*
X1933820Y787582D01*
Y793676D01*
X1930773Y796723D01*
X1924679D01*
X1921632Y793676D01*
Y787582D01*
X1924679Y784535D01*
X1939914D02*
X1946008D01*
X1942961D01*
Y802817D01*
X1939914D01*
X1964290Y784535D02*
X1958196D01*
X1955149Y787582D01*
Y793676D01*
X1958196Y796723D01*
X1964290D01*
X1967337Y793676D01*
Y790629D01*
X1955149D01*
X1991713Y802817D02*
X2003901D01*
X1997807D01*
Y784535D01*
X2009995Y796723D02*
Y787582D01*
X2013042Y784535D01*
X2022183D01*
Y781488D01*
X2019136Y778441D01*
X2016089D01*
X2022183Y784535D02*
Y796723D01*
X2028277Y778441D02*
Y796723D01*
X2037419D01*
X2040466Y793676D01*
Y787582D01*
X2037419Y784535D01*
X2028277D01*
X2055701D02*
X2049606D01*
X2046559Y787582D01*
Y793676D01*
X2049606Y796723D01*
X2055701D01*
X2058748Y793676D01*
Y790629D01*
X2046559D01*
X1774857Y784535D02*
Y802817D01*
X1783999D01*
X1787045Y799770D01*
Y793676D01*
X1783999Y790629D01*
X1774857D01*
X1793139Y784535D02*
X1799234D01*
X1796187D01*
Y802817D01*
X1793139D01*
X1811422Y796723D02*
X1817516D01*
X1820563Y793676D01*
Y784535D01*
X1811422D01*
X1808375Y787582D01*
X1811422Y790629D01*
X1820563D01*
X1829704Y799770D02*
Y796723D01*
X1826657D01*
X1832751D01*
X1829704D01*
Y787582D01*
X1832751Y784535D01*
X1851033D02*
X1844939D01*
X1841892Y787582D01*
Y793676D01*
X1844939Y796723D01*
X1851033D01*
X1854080Y793676D01*
Y790629D01*
X1841892D01*
X1872362Y802817D02*
Y784535D01*
X1863221D01*
X1860174Y787582D01*
Y793676D01*
X1863221Y796723D01*
X1872362D01*
X1510774Y802817D02*
Y784535D01*
Y793676D01*
X1522962D01*
Y802817D01*
Y784535D01*
X1532103D02*
X1538197D01*
X1541244Y787582D01*
Y793676D01*
X1538197Y796723D01*
X1532103D01*
X1529056Y793676D01*
Y787582D01*
X1532103Y784535D01*
X1547338D02*
X1553432D01*
X1550385D01*
Y802817D01*
X1547338D01*
X1571714Y784535D02*
X1565620D01*
X1562573Y787582D01*
Y793676D01*
X1565620Y796723D01*
X1571714D01*
X1574761Y793676D01*
Y790629D01*
X1562573D01*
X1611325Y799770D02*
X1608278Y802817D01*
X1602184D01*
X1599137Y799770D01*
Y796723D01*
X1602184Y793676D01*
X1608278D01*
X1611325Y790629D01*
Y787582D01*
X1608278Y784535D01*
X1602184D01*
X1599137Y787582D01*
X1617419Y784535D02*
X1623513D01*
X1620466D01*
Y796723D01*
X1617419D01*
X1632654D02*
X1644843D01*
X1632654Y784535D01*
X1644843D01*
X1660078D02*
X1653983D01*
X1650936Y787582D01*
Y793676D01*
X1653983Y796723D01*
X1660078D01*
X1663125Y793676D01*
Y790629D01*
X1650936D01*
X1360446Y799770D02*
X1357399Y802817D01*
X1351304D01*
X1348257Y799770D01*
Y787582D01*
X1351304Y784535D01*
X1357399D01*
X1360446Y787582D01*
X1369586Y784535D02*
X1375681D01*
X1378728Y787582D01*
Y793676D01*
X1375681Y796723D01*
X1369586D01*
X1366539Y793676D01*
Y787582D01*
X1369586Y784535D01*
X1384822Y796723D02*
Y787582D01*
X1387869Y784535D01*
X1397010D01*
Y796723D01*
X1403104Y784535D02*
Y796723D01*
X1412245D01*
X1415292Y793676D01*
Y784535D01*
X1424433Y799770D02*
Y796723D01*
X1421386D01*
X1427480D01*
X1424433D01*
Y787582D01*
X1427480Y784535D01*
X1231953Y799770D02*
X1228906Y802817D01*
X1222812D01*
X1219765Y799770D01*
Y796723D01*
X1222812Y793676D01*
X1228906D01*
X1231953Y790629D01*
Y787582D01*
X1228906Y784535D01*
X1222812D01*
X1219765Y787582D01*
X1238047Y796723D02*
Y787582D01*
X1241094Y784535D01*
X1250235D01*
Y781488D01*
X1247188Y778441D01*
X1244141D01*
X1250235Y784535D02*
Y796723D01*
X1256329Y784535D02*
Y796723D01*
X1259376D01*
X1262423Y793676D01*
Y784535D01*
Y793676D01*
X1265470Y796723D01*
X1268517Y793676D01*
Y784535D01*
X1274611Y802817D02*
Y784535D01*
X1283752D01*
X1286799Y787582D01*
Y790629D01*
Y793676D01*
X1283752Y796723D01*
X1274611D01*
X1295940Y784535D02*
X1302034D01*
X1305081Y787582D01*
Y793676D01*
X1302034Y796723D01*
X1295940D01*
X1292893Y793676D01*
Y787582D01*
X1295940Y784535D01*
X1311175D02*
X1317269D01*
X1314222D01*
Y802817D01*
X1311175D01*
M02*
