G04*
G04 #@! TF.GenerationSoftware,Altium Limited,Altium Designer,26.9.1 (10)*
G04*
G04 Layer_Color=128*
G04 Board_Origin=9999995|9999995*
%FSLAX44Y44*%
%MOMM*%
G71*
G04*
G04 #@! TF.SameCoordinates,9D83EA41-EA8C-4E9F-96AF-D385C4C8DFFD*
G04*
G04*
G04 #@! TF.FilePolarity,Positive*
G04*
G01*
G75*
%ADD466C,0.0508*%
D466*
X238059Y101493D02*
X239059D01*
X238559Y100993D02*
Y101993D01*
X242852Y112237D02*
X243852D01*
X243352Y111737D02*
Y112737D01*
X922783Y985279D02*
X923783D01*
X923283Y984779D02*
Y985779D01*
X922393Y958680D02*
X923393D01*
X922893Y958180D02*
Y959180D01*
X537323Y1527522D02*
X538323D01*
X537823Y1527022D02*
Y1528022D01*
X452750Y731650D02*
X453750D01*
X453250Y731150D02*
Y732150D01*
X315070Y623650D02*
X316070D01*
X315570Y623150D02*
Y624150D01*
X315070Y604674D02*
X316070D01*
X315570Y604174D02*
Y605174D01*
X280973Y169100D02*
X281973D01*
X281473Y168600D02*
Y169600D01*
X257000Y240600D02*
X258000D01*
X257500Y240100D02*
Y241100D01*
X257000Y207600D02*
X258000D01*
X257500Y207100D02*
Y208100D01*
X256354Y287351D02*
X257354D01*
X256854Y286851D02*
Y287851D01*
X248000Y249600D02*
X249000D01*
X248500Y249100D02*
Y250100D01*
X239000Y240600D02*
X240000D01*
X239500Y240100D02*
Y241100D01*
X248000Y231600D02*
X249000D01*
X248500Y231100D02*
Y232100D01*
X248000Y240600D02*
X249000D01*
X248500Y240100D02*
Y241100D01*
X248000Y216600D02*
X249000D01*
X248500Y216100D02*
Y217100D01*
X224000Y240600D02*
X225000D01*
X224500Y240100D02*
Y241100D01*
X248000Y207600D02*
X249000D01*
X248500Y207100D02*
Y208100D01*
X239000Y207600D02*
X240000D01*
X239500Y207100D02*
Y208100D01*
X248000Y198600D02*
X249000D01*
X248500Y198100D02*
Y199100D01*
X224000Y207600D02*
X225000D01*
X224500Y207100D02*
Y208100D01*
X215000Y231600D02*
X216000D01*
X215500Y231100D02*
Y232100D01*
X215000Y216600D02*
X216000D01*
X215500Y216100D02*
Y217100D01*
X215000Y240600D02*
X216000D01*
X215500Y240100D02*
Y241100D01*
X215000Y207600D02*
X216000D01*
X215500Y207100D02*
Y208100D01*
X215000Y249600D02*
X216000D01*
X215500Y249100D02*
Y250100D01*
X206000Y240600D02*
X207000D01*
X206500Y240100D02*
Y241100D01*
X206000Y207600D02*
X207000D01*
X206500Y207100D02*
Y208100D01*
X215000Y198600D02*
X216000D01*
X215500Y198100D02*
Y199100D01*
X191000Y240600D02*
X192000D01*
X191500Y240100D02*
Y241100D01*
X182000Y216600D02*
X183000D01*
X182500Y216100D02*
Y217100D01*
X182000Y207600D02*
X183000D01*
X182500Y207100D02*
Y208100D01*
X182000Y240600D02*
X183000D01*
X182500Y240100D02*
Y241100D01*
X182000Y249600D02*
X183000D01*
X182500Y249100D02*
Y250100D01*
X182000Y231600D02*
X183000D01*
X182500Y231100D02*
Y232100D01*
X191000Y207600D02*
X192000D01*
X191500Y207100D02*
Y208100D01*
X182000Y198600D02*
X183000D01*
X182500Y198100D02*
Y199100D01*
X173000Y240600D02*
X174000D01*
X173500Y240100D02*
Y241100D01*
X158000Y240600D02*
X159000D01*
X158500Y240100D02*
Y241100D01*
X149000Y240600D02*
X150000D01*
X149500Y240100D02*
Y241100D01*
X149000Y249600D02*
X150000D01*
X149500Y249100D02*
Y250100D01*
X149000Y216600D02*
X150000D01*
X149500Y216100D02*
Y217100D01*
X149000Y231600D02*
X150000D01*
X149500Y231100D02*
Y232100D01*
X140000Y240600D02*
X141000D01*
X140500Y240100D02*
Y241100D01*
X129000Y271600D02*
X130000D01*
X129500Y271100D02*
Y272100D01*
X129000Y251600D02*
X130000D01*
X129500Y251100D02*
Y252100D01*
X129000Y246600D02*
X130000D01*
X129500Y246100D02*
Y247100D01*
X129000Y256600D02*
X130000D01*
X129500Y256100D02*
Y257100D01*
X129000Y236600D02*
X130000D01*
X129500Y236100D02*
Y237100D01*
X129000Y241600D02*
X130000D01*
X129500Y241100D02*
Y242100D01*
X129000Y226600D02*
X130000D01*
X129500Y226100D02*
Y227100D01*
X129000Y221600D02*
X130000D01*
X129500Y221100D02*
Y222100D01*
X129000Y231600D02*
X130000D01*
X129500Y231100D02*
Y232100D01*
X129000Y211600D02*
X130000D01*
X129500Y211100D02*
Y212100D01*
X129000Y216600D02*
X130000D01*
X129500Y216100D02*
Y217100D01*
X158000Y207600D02*
X159000D01*
X158500Y207100D02*
Y208100D01*
X173000Y207600D02*
X174000D01*
X173500Y207100D02*
Y208100D01*
X149000Y207600D02*
X150000D01*
X149500Y207100D02*
Y208100D01*
X149000Y198600D02*
X150000D01*
X149500Y198100D02*
Y199100D01*
X140000Y207600D02*
X141000D01*
X140500Y207100D02*
Y208100D01*
X141000Y173384D02*
X142000D01*
X141500Y172884D02*
Y173884D01*
X156000Y173384D02*
X157000D01*
X156500Y172884D02*
Y173884D01*
X129000Y196600D02*
X130000D01*
X129500Y196100D02*
Y197100D01*
X129000Y186600D02*
X130000D01*
X129500Y186100D02*
Y187100D01*
X129000Y201600D02*
X130000D01*
X129500Y201100D02*
Y202100D01*
X129000Y191600D02*
X130000D01*
X129500Y191100D02*
Y192100D01*
X129000Y206600D02*
X130000D01*
X129500Y206100D02*
Y207100D01*
X301979Y69431D02*
X302979D01*
X302479Y68931D02*
Y69931D01*
X326550Y103823D02*
X327550D01*
X327050Y103323D02*
Y104323D01*
X333112Y63300D02*
X334112D01*
X333612Y62800D02*
Y63800D01*
X337980Y104157D02*
X338980D01*
X338480Y103657D02*
Y104656D01*
X363355Y365673D02*
X364355D01*
X363855Y365173D02*
Y366173D01*
X290598Y300422D02*
X291598D01*
X291098Y299923D02*
Y300923D01*
X245154Y116883D02*
X246154D01*
X245654Y116383D02*
Y117383D01*
M02*
