G04*
G04 #@! TF.GenerationSoftware,Altium Limited,Altium Designer,26.9.1 (10)*
G04*
G04 Layer_Color=12632256*
G04 Board_Origin=9999995|9999995*
%FSLAX44Y44*%
%MOMM*%
G71*
G04*
G04 #@! TF.SameCoordinates,9D83EA41-EA8C-4E9F-96AF-D385C4C8DFFD*
G04*
G04*
G04 #@! TF.FilePolarity,Positive*
G04*
G01*
G75*
%ADD214C,2.2000*%
%ADD293C,2.0000*%
%ADD294C,1.7000*%
%ADD295C,2.1000*%
%ADD296C,2.4000*%
%ADD297C,0.5000*%
%ADD298O,2.3000X5.1000*%
%ADD299O,2.2000X4.7000*%
%ADD300O,4.7000X2.5000*%
%ADD301O,2.2000X1.2000*%
%ADD302C,6.0000*%
%ADD303C,5.3000*%
%ADD304C,1.3000*%
%ADD305O,3.6000X1.3000*%
%ADD306C,1.4224*%
%ADD307C,0.9000*%
%ADD308C,1.3500*%
%ADD309O,3.2000X1.4000*%
%ADD310C,3.0000*%
D214*
X959000Y1004000D02*
D03*
Y1054000D02*
D03*
Y954000D02*
D03*
Y904000D02*
D03*
Y854000D02*
D03*
D293*
X889841Y125250D02*
D03*
Y221750D02*
D03*
D294*
X798441Y132900D02*
D03*
Y153200D02*
D03*
X823841Y122750D02*
D03*
Y163350D02*
D03*
X798441Y112600D02*
D03*
X823841Y143050D02*
D03*
Y203950D02*
D03*
Y224250D02*
D03*
X798441Y234400D02*
D03*
Y193800D02*
D03*
Y214100D02*
D03*
X823841Y183650D02*
D03*
D295*
X927941Y98300D02*
D03*
X978741D02*
D03*
X953341D02*
D03*
X978741Y248700D02*
D03*
X953341D02*
D03*
D296*
X889841Y85600D02*
D03*
Y261400D02*
D03*
D297*
X162425Y16990D02*
D03*
X119925D02*
D03*
D298*
X887480Y1148000D02*
D03*
D299*
X945480D02*
D03*
D300*
X917480Y1195000D02*
D03*
D301*
X933011Y704090D02*
D03*
X984011D02*
D03*
Y790490D02*
D03*
X933011D02*
D03*
D302*
X54011Y1457360D02*
D03*
Y707360D02*
D03*
X804011D02*
D03*
Y1457360D02*
D03*
D303*
X572511Y342247D02*
D03*
D304*
X857000Y386750D02*
D03*
X889000D02*
D03*
X857000Y366750D02*
D03*
X889000D02*
D03*
X857000Y426750D02*
D03*
Y446750D02*
D03*
X872000Y416750D02*
D03*
Y396750D02*
D03*
Y371750D02*
D03*
X889000Y426750D02*
D03*
Y446750D02*
D03*
X904000Y416750D02*
D03*
Y396750D02*
D03*
Y371750D02*
D03*
X857000Y406750D02*
D03*
X889000D02*
D03*
X872000Y441750D02*
D03*
X904000D02*
D03*
D305*
X924000Y342750D02*
D03*
X867200D02*
D03*
Y470750D02*
D03*
X924000D02*
D03*
D306*
X635000Y508000D02*
D03*
X609600D02*
D03*
X584200D02*
D03*
X558800D02*
D03*
X533400D02*
D03*
X508000D02*
D03*
X482600D02*
D03*
X457200D02*
D03*
X416560D02*
D03*
X391160D02*
D03*
X365760D02*
D03*
X340360D02*
D03*
X314960D02*
D03*
X289560D02*
D03*
X264160D02*
D03*
X238760D02*
D03*
X213360D02*
D03*
X187960D02*
D03*
X279400Y25400D02*
D03*
X304800D02*
D03*
X330200D02*
D03*
X355600D02*
D03*
X381000D02*
D03*
X406400D02*
D03*
X431800D02*
D03*
X457200D02*
D03*
X508000D02*
D03*
X533400D02*
D03*
X558800D02*
D03*
X584200D02*
D03*
X609600D02*
D03*
X635000D02*
D03*
D307*
X918000Y595000D02*
D03*
X906400D02*
D03*
X900600Y585000D02*
D03*
X889000D02*
D03*
X883200Y595000D02*
D03*
X871600D02*
D03*
X865800Y585000D02*
D03*
X854200D02*
D03*
X848400Y595000D02*
D03*
X842600Y585000D02*
D03*
X813600Y595000D02*
D03*
X836800D02*
D03*
X831000Y585000D02*
D03*
X819400D02*
D03*
X825200Y595000D02*
D03*
X860000D02*
D03*
X877400Y585000D02*
D03*
X894800Y595000D02*
D03*
X912200Y585000D02*
D03*
D308*
X937000Y605000D02*
D03*
X804500Y570000D02*
D03*
D309*
X804500Y622500D02*
D03*
X835500Y557500D02*
D03*
X899500Y622500D02*
D03*
X925500Y557500D02*
D03*
D310*
X920000Y40000D02*
D03*
X615000Y590000D02*
D03*
X35000Y590000D02*
D03*
X141170Y66000D02*
D03*
X35000Y1560000D02*
D03*
X900000Y1559999D02*
D03*
M02*
