G04*
G04 #@! TF.GenerationSoftware,Altium Limited,Altium Designer,26.9.1 (10)*
G04*
G04 Layer_Color=128*
G04 Board_Origin=9999995|9999995*
%FSLAX44Y44*%
%MOMM*%
G71*
G04*
G04 #@! TF.SameCoordinates,9D83EA41-EA8C-4E9F-96AF-D385C4C8DFFD*
G04*
G04*
G04 #@! TF.FilePolarity,Positive*
G04*
G01*
G75*
%ADD466C,0.0508*%
D466*
X237559Y101493D02*
X239559D01*
X238559Y100493D02*
Y102493D01*
X242352Y112237D02*
X244352D01*
X243352Y111237D02*
Y113237D01*
X237144Y113080D02*
X239144D01*
X238144Y112080D02*
Y114080D01*
X342821Y778489D02*
X344821D01*
X343821Y777489D02*
Y779489D01*
X554632Y153290D02*
X556631D01*
X555631Y152290D02*
Y154290D01*
X554632Y145290D02*
X556631D01*
X555631Y144290D02*
Y146290D01*
X538632Y153290D02*
X540631D01*
X539632Y152290D02*
Y154290D01*
X530631Y153290D02*
X532631D01*
X531631Y152290D02*
Y154290D01*
X522631Y161290D02*
X524631D01*
X523631Y160290D02*
Y162290D01*
X567332Y197490D02*
X569332D01*
X568331Y196490D02*
Y198490D01*
X496642Y494046D02*
X498642D01*
X497642Y493046D02*
Y495046D01*
X296235Y518247D02*
X298235D01*
X297235Y517247D02*
Y519247D01*
X630364Y182386D02*
X632364D01*
X631364Y181386D02*
Y183386D01*
X626631Y177290D02*
X628631D01*
X627631Y176290D02*
Y178290D01*
X602631Y161290D02*
X604631D01*
X603631Y160290D02*
Y162290D01*
X284857Y271323D02*
X286857D01*
X285857Y270323D02*
Y272323D01*
X285000Y260000D02*
X287000D01*
X286000Y259000D02*
Y261000D01*
X234000Y1157000D02*
X236000D01*
X235000Y1156000D02*
Y1158000D01*
X271663Y938377D02*
X273663D01*
X272663Y937377D02*
Y939377D01*
X391894Y297292D02*
X393894D01*
X392894Y296292D02*
Y298293D01*
X774000Y1086000D02*
X776000D01*
X775000Y1085000D02*
Y1087000D01*
X477498Y910690D02*
X479498D01*
X478498Y909690D02*
Y911690D01*
X477593Y896629D02*
X479593D01*
X478593Y895629D02*
Y897629D01*
X472156Y911109D02*
X474156D01*
X473156Y910109D02*
Y912110D01*
X316692Y1012691D02*
X318692D01*
X317692Y1011692D02*
Y1013691D01*
X303992Y1012691D02*
X305992D01*
X304992Y1011692D02*
Y1013691D01*
X472232Y896762D02*
X474232D01*
X473232Y895762D02*
Y897763D01*
X840765Y809022D02*
X842765D01*
X841765Y808022D02*
Y810022D01*
X840141Y813735D02*
X842141D01*
X841141Y812735D02*
Y814735D01*
X835741Y807234D02*
X837741D01*
X836741Y806234D02*
Y808234D01*
X830716Y808029D02*
X832716D01*
X831716Y807029D02*
Y809029D01*
X826628Y810953D02*
X828628D01*
X827628Y809953D02*
Y811953D01*
X172879Y774159D02*
X174879D01*
X173879Y773159D02*
Y775159D01*
X12056Y921371D02*
X14056D01*
X13056Y920371D02*
Y922371D01*
X93331Y696080D02*
X95331D01*
X94331Y695080D02*
Y697080D01*
X88331Y696080D02*
X90331D01*
X89331Y695080D02*
Y697080D01*
X98331Y696080D02*
X100331D01*
X99331Y695080D02*
Y697080D01*
X98331Y688080D02*
X100331D01*
X99331Y687080D02*
Y689080D01*
X93331Y688080D02*
X95331D01*
X94331Y687080D02*
Y689080D01*
X88331Y688080D02*
X90331D01*
X89331Y687080D02*
Y689080D01*
X284092Y1177292D02*
X286092D01*
X285092Y1176292D02*
Y1178292D01*
X463777Y1245814D02*
X465777D01*
X464777Y1244814D02*
Y1246814D01*
X251978Y1092016D02*
X253979D01*
X252978Y1091016D02*
Y1093016D01*
X691821Y1072351D02*
X693821D01*
X692821Y1071351D02*
Y1073351D01*
X515121Y690973D02*
X517122D01*
X516121Y689973D02*
Y691973D01*
X101819Y791879D02*
X103819D01*
X102819Y790879D02*
Y792879D01*
X105552Y779136D02*
X107552D01*
X106552Y778136D02*
Y780136D01*
X144099Y781365D02*
X146099D01*
X145099Y780365D02*
Y782365D01*
X136099Y781365D02*
X138099D01*
X137099Y780365D02*
Y782365D01*
X844101Y1268563D02*
X846101D01*
X845101Y1267563D02*
Y1269563D01*
X895550Y1009950D02*
X897550D01*
X896550Y1008950D02*
Y1010950D01*
X899550Y1002950D02*
X901550D01*
X900550Y1001950D02*
Y1003950D01*
X821821Y1508125D02*
X823821D01*
X822821Y1507125D02*
Y1509125D01*
X813576Y1508125D02*
X815576D01*
X814576Y1507125D02*
Y1509125D01*
X765900Y1093500D02*
X767900D01*
X766900Y1092500D02*
Y1094500D01*
X780821Y1092351D02*
X782821D01*
X781821Y1091351D02*
Y1093351D01*
X764321Y1084360D02*
X766321D01*
X765321Y1083360D02*
Y1085360D01*
X774821Y1105294D02*
X776821D01*
X775821Y1104294D02*
Y1106294D01*
X809915Y310490D02*
X811915D01*
X810915Y309490D02*
Y311490D01*
X809915Y304490D02*
X811915D01*
X810915Y303490D02*
Y305490D01*
X809915Y322490D02*
X811915D01*
X810915Y321490D02*
Y323490D01*
X809915Y292490D02*
X811915D01*
X810915Y291490D02*
Y293490D01*
X749750Y585000D02*
X751750D01*
X750750Y584000D02*
Y586000D01*
X271699Y1200500D02*
X273699D01*
X272699Y1199500D02*
Y1201500D01*
X754750Y600000D02*
X756750D01*
X755750Y599000D02*
Y601000D01*
X749196Y609157D02*
X751197D01*
X750197Y608157D02*
Y610157D01*
X241821Y1162360D02*
X243821D01*
X242821Y1161360D02*
Y1163360D01*
X749750Y595000D02*
X751750D01*
X750750Y594000D02*
Y596000D01*
X229821Y1186360D02*
X231821D01*
X230821Y1185360D02*
Y1187360D01*
X675110Y80915D02*
X677110D01*
X676110Y79915D02*
Y81915D01*
X657757Y1096277D02*
X659758D01*
X658757Y1095277D02*
Y1097277D01*
X675572Y136530D02*
X677572D01*
X676572Y135530D02*
Y137530D01*
X664688Y1108360D02*
X666688D01*
X665688Y1107360D02*
Y1109360D01*
X786680Y1514738D02*
X788680D01*
X787680Y1513738D02*
Y1515738D01*
X783626Y1501128D02*
X785627D01*
X784626Y1500128D02*
Y1502128D01*
X765489Y1506000D02*
X767489D01*
X766489Y1505000D02*
Y1507000D01*
X750000Y1506000D02*
X752000D01*
X751000Y1505000D02*
Y1507000D01*
X735276Y1506508D02*
X737276D01*
X736276Y1505508D02*
Y1507507D01*
X746403Y1441169D02*
X748403D01*
X747403Y1440169D02*
Y1442169D01*
X738077Y1455800D02*
X740077D01*
X739077Y1454800D02*
Y1456800D01*
X719000Y1507000D02*
X721000D01*
X720000Y1506000D02*
Y1508000D01*
X722929Y1452057D02*
X724929D01*
X723929Y1451057D02*
Y1453057D01*
X811480Y1158000D02*
X813480D01*
X812480Y1157000D02*
Y1159000D01*
X770692Y1269777D02*
X772692D01*
X771692Y1268777D02*
Y1270777D01*
X811480Y1138000D02*
X813480D01*
X812480Y1137000D02*
Y1139000D01*
X706475Y1458584D02*
X708475D01*
X707475Y1457584D02*
Y1459584D01*
X705478Y1430925D02*
X707478D01*
X706478Y1429925D02*
Y1431925D01*
X694720Y1432099D02*
X696720D01*
X695720Y1431099D02*
Y1433099D01*
X690434Y1448968D02*
X692434D01*
X691434Y1447968D02*
Y1449968D01*
X673434Y1451968D02*
X675434D01*
X674434Y1450968D02*
Y1452968D01*
X683302Y1425045D02*
X685302D01*
X684302Y1424045D02*
Y1426045D01*
X662123Y1472008D02*
X664123D01*
X663123Y1471008D02*
Y1473008D01*
X653127Y1466085D02*
X655127D01*
X654127Y1465085D02*
Y1467085D01*
X645480Y1449503D02*
X647480D01*
X646480Y1448503D02*
Y1450503D01*
X639345Y1486792D02*
X641345D01*
X640345Y1485791D02*
Y1487791D01*
X640427Y1474816D02*
X642428D01*
X641428Y1473815D02*
Y1475815D01*
X640207Y1480360D02*
X642207D01*
X641207Y1479360D02*
Y1481360D01*
X667042Y1428401D02*
X669042D01*
X668042Y1427401D02*
Y1429401D01*
X659214Y1392910D02*
X661214D01*
X660214Y1391910D02*
Y1393910D01*
X659214Y1411911D02*
X661214D01*
X660214Y1410910D02*
Y1412910D01*
X780821Y1111351D02*
X782821D01*
X781821Y1110351D02*
Y1112351D01*
X774821Y1098294D02*
X776821D01*
X775821Y1097294D02*
Y1099294D01*
X767821Y1042351D02*
X769821D01*
X768821Y1041351D02*
Y1043351D01*
X781256Y1028916D02*
X783256D01*
X782256Y1027916D02*
Y1029916D01*
X764821Y1000360D02*
X766821D01*
X765821Y999360D02*
Y1001360D01*
X753321Y1072360D02*
X755321D01*
X754321Y1071360D02*
Y1073360D01*
X751321Y1084360D02*
X753321D01*
X752321Y1083360D02*
Y1085360D01*
X738321Y1072360D02*
X740321D01*
X739321Y1071360D02*
Y1073360D01*
X728821Y1060360D02*
X730821D01*
X729821Y1059360D02*
Y1061360D01*
X754321Y1036360D02*
X756321D01*
X755321Y1035360D02*
Y1037360D01*
X737321Y1036360D02*
X739321D01*
X738321Y1035360D02*
Y1037360D01*
X728821Y1012360D02*
X730821D01*
X729821Y1011360D02*
Y1013360D01*
X922283Y985279D02*
X924283D01*
X923283Y984279D02*
Y986279D01*
X921893Y958680D02*
X923893D01*
X922893Y957680D02*
Y959680D01*
X766321Y952360D02*
X768321D01*
X767321Y951360D02*
Y953360D01*
X752821Y988360D02*
X754821D01*
X753821Y987360D02*
Y989360D01*
X750821Y1000360D02*
X752821D01*
X751821Y999360D02*
Y1001360D01*
X740821Y976360D02*
X742821D01*
X741821Y975360D02*
Y977360D01*
X738821Y988360D02*
X740821D01*
X739821Y987360D02*
Y989360D01*
X728821Y964360D02*
X730821D01*
X729821Y963360D02*
Y965360D01*
X726821Y976360D02*
X728821D01*
X727821Y975360D02*
Y977360D01*
X754321Y940360D02*
X756321D01*
X755321Y939360D02*
Y941360D01*
X749321Y952360D02*
X751321D01*
X750321Y951360D02*
Y953360D01*
X742321Y928360D02*
X744321D01*
X743321Y927360D02*
Y929360D01*
X737321Y940360D02*
X739321D01*
X738321Y939360D02*
Y941360D01*
X730321Y916360D02*
X732321D01*
X731321Y915360D02*
Y917360D01*
X725321Y928360D02*
X727321D01*
X726321Y927360D02*
Y929360D01*
X709821Y1102360D02*
X711821D01*
X710821Y1101360D02*
Y1103360D01*
X714821Y1060360D02*
X716821D01*
X715821Y1059360D02*
Y1061360D01*
X715321Y1012360D02*
X717321D01*
X716321Y1011360D02*
Y1013360D01*
X714821Y964360D02*
X716821D01*
X715821Y963360D02*
Y965360D01*
X713321Y916360D02*
X715321D01*
X714321Y915360D02*
Y917360D01*
X627842Y1503432D02*
X629842D01*
X628842Y1502432D02*
Y1504432D01*
X624672Y1521326D02*
X626672D01*
X625672Y1520326D02*
Y1522326D01*
X627891Y1495258D02*
X629891D01*
X628891Y1494258D02*
Y1496258D01*
X608791Y1531397D02*
X610791D01*
X609791Y1530397D02*
Y1532397D01*
X608791Y1524930D02*
X610791D01*
X609791Y1523930D02*
Y1525930D01*
X615106Y1495439D02*
X617106D01*
X616106Y1494439D02*
Y1496439D01*
X624063Y1478902D02*
X626063D01*
X625063Y1477902D02*
Y1479902D01*
X636160Y1450404D02*
X638160D01*
X637160Y1449404D02*
Y1451404D01*
X599499Y1425148D02*
X601499D01*
X600499Y1424148D02*
Y1426148D01*
X587732Y1433592D02*
X589732D01*
X588732Y1432592D02*
Y1434592D01*
X567250Y1527650D02*
X569250D01*
X568250Y1526650D02*
Y1528650D01*
X582042Y1436401D02*
X584042D01*
X583042Y1435401D02*
Y1437401D01*
X546410Y1457827D02*
X548410D01*
X547410Y1456827D02*
Y1458827D01*
X563460Y1448594D02*
X565460D01*
X564460Y1447594D02*
Y1449594D01*
X564042Y1433401D02*
X566042D01*
X565042Y1432401D02*
Y1434401D01*
X557042Y1433401D02*
X559042D01*
X558042Y1432401D02*
Y1434401D01*
X536823Y1527522D02*
X538823D01*
X537823Y1526522D02*
Y1528522D01*
X514384Y1467384D02*
X516384D01*
X515384Y1466384D02*
Y1468384D01*
X487547Y1482009D02*
X489548D01*
X488548Y1481009D02*
Y1483009D01*
X481155Y1494706D02*
X483155D01*
X482155Y1493706D02*
Y1495706D01*
X481155Y1487750D02*
X483155D01*
X482155Y1486750D02*
Y1488750D01*
X530577Y1457966D02*
X532577D01*
X531577Y1456966D02*
Y1458966D01*
X530304Y1465260D02*
X532304D01*
X531304Y1464260D02*
Y1466260D01*
X501973Y1459686D02*
X503973D01*
X502973Y1458687D02*
Y1460686D01*
X486035Y1433829D02*
X488035D01*
X487035Y1432829D02*
Y1434829D01*
X524821Y1417907D02*
X526821D01*
X525821Y1416907D02*
Y1418907D01*
X485591Y1410401D02*
X487591D01*
X486591Y1409401D02*
Y1411401D01*
X484821Y1417907D02*
X486821D01*
X485821Y1416907D02*
Y1418907D01*
X467391Y1572150D02*
X469391D01*
X468391Y1571150D02*
Y1573150D01*
X460391Y1572150D02*
X462391D01*
X461391Y1571150D02*
Y1573150D01*
X471891Y1567650D02*
X473891D01*
X472891Y1566650D02*
Y1568650D01*
X455891Y1567650D02*
X457891D01*
X456891Y1566650D02*
Y1568650D01*
X472630Y1492610D02*
X474630D01*
X473630Y1491610D02*
Y1493610D01*
X479606Y1443500D02*
X481606D01*
X480606Y1442500D02*
Y1444500D01*
X471102Y1438437D02*
X473102D01*
X472102Y1437437D02*
Y1439437D01*
X458375Y1492582D02*
X460375D01*
X459375Y1491582D02*
Y1493582D01*
X442982Y1480320D02*
X444982D01*
X443982Y1479321D02*
Y1481320D01*
X496321Y1336360D02*
X498321D01*
X497321Y1335360D02*
Y1337360D01*
X484321Y1324360D02*
X486321D01*
X485321Y1323360D02*
Y1325360D01*
X481321Y1336360D02*
X483321D01*
X482321Y1335360D02*
Y1337360D01*
X470821Y1336360D02*
X472821D01*
X471821Y1335360D02*
Y1337360D01*
X455821Y1336360D02*
X457821D01*
X456821Y1335360D02*
Y1337360D01*
X446821Y1336360D02*
X448821D01*
X447821Y1335360D02*
Y1337360D01*
X469321Y1324360D02*
X471321D01*
X470321Y1323360D02*
Y1325360D01*
X458321Y1324360D02*
X460321D01*
X459321Y1323360D02*
Y1325360D01*
X443321Y1324360D02*
X445321D01*
X444321Y1323360D02*
Y1325360D01*
X869597Y827260D02*
X871597D01*
X870597Y826260D02*
Y828260D01*
X873821Y755360D02*
X875821D01*
X874821Y754360D02*
Y756360D01*
X850836Y778418D02*
X852836D01*
X851836Y777418D02*
Y779418D01*
X822000Y772000D02*
X824000D01*
X823000Y771000D02*
Y773000D01*
X986900Y573000D02*
X988900D01*
X987900Y572000D02*
Y574000D01*
X873821Y738361D02*
X875821D01*
X874821Y737361D02*
Y739361D01*
X736321Y892360D02*
X738321D01*
X737321Y891360D02*
Y893360D01*
X719321Y892360D02*
X721321D01*
X720321Y891360D02*
Y893360D01*
X782568Y580188D02*
X784568D01*
X783568Y579188D02*
Y581188D01*
X705046Y370852D02*
X707046D01*
X706046Y369852D02*
Y371852D01*
X680164Y358490D02*
X682165D01*
X681164Y357490D02*
Y359490D01*
X762915Y346490D02*
X764914D01*
X763914Y345490D02*
Y347490D01*
X762915Y337490D02*
X764914D01*
X763914Y336490D02*
Y338490D01*
X762915Y328490D02*
X764914D01*
X763914Y327490D02*
Y329490D01*
X753914Y346490D02*
X755915D01*
X754914Y345490D02*
Y347490D01*
X744914Y346490D02*
X746915D01*
X745915Y345490D02*
Y347490D01*
X753914Y337490D02*
X755915D01*
X754914Y336490D02*
Y338490D01*
X744914Y337490D02*
X746915D01*
X745915Y336490D02*
Y338490D01*
X753914Y328490D02*
X755915D01*
X754914Y327490D02*
Y329490D01*
X744914Y328490D02*
X746915D01*
X745915Y327490D02*
Y329490D01*
X762915Y310490D02*
X764914D01*
X763914Y309490D02*
Y311490D01*
X762915Y319490D02*
X764914D01*
X763914Y318490D02*
Y320490D01*
X753914Y319490D02*
X755915D01*
X754914Y318490D02*
Y320490D01*
X744914Y319490D02*
X746915D01*
X745915Y318490D02*
Y320490D01*
X744914Y310490D02*
X746915D01*
X745915Y309490D02*
Y311490D01*
X809092Y286434D02*
X811092D01*
X810092Y285434D02*
Y287435D01*
X983500Y283973D02*
X985500D01*
X984500Y282973D02*
Y284973D01*
X787414Y281740D02*
X789415D01*
X788415Y280740D02*
Y282740D01*
X799476Y56744D02*
X801476D01*
X800476Y55744D02*
Y57744D01*
X777476Y56744D02*
X779476D01*
X778476Y55744D02*
Y57744D01*
X766980Y56200D02*
X768980D01*
X767980Y55200D02*
Y57200D01*
X766980Y73200D02*
X768980D01*
X767980Y72200D02*
Y74200D01*
X735915Y346490D02*
X737915D01*
X736915Y345490D02*
Y347490D01*
X735915Y328490D02*
X737915D01*
X736915Y327490D02*
Y329490D01*
X735915Y337490D02*
X737915D01*
X736915Y336490D02*
Y338490D01*
X726915Y346490D02*
X728914D01*
X727915Y345490D02*
Y347490D01*
X726915Y337490D02*
X728914D01*
X727915Y336490D02*
Y338490D01*
X726915Y328490D02*
X728914D01*
X727915Y327490D02*
Y329490D01*
X735915Y319490D02*
X737915D01*
X736915Y318490D02*
Y320490D01*
X735915Y310490D02*
X737915D01*
X736915Y309490D02*
Y311490D01*
X726915Y319490D02*
X728914D01*
X727915Y318490D02*
Y320490D01*
X731691Y265749D02*
X733690D01*
X732691Y264749D02*
Y266749D01*
X717750Y268750D02*
X719750D01*
X718750Y267750D02*
Y269750D01*
X697615Y287955D02*
X699615D01*
X698615Y286955D02*
Y288955D01*
X684165Y336240D02*
X686164D01*
X685164Y335240D02*
Y337240D01*
X679914Y328490D02*
X681915D01*
X680915Y327490D02*
Y329490D01*
X679914Y322490D02*
X681915D01*
X680915Y321490D02*
Y323490D01*
X723500Y168750D02*
X725500D01*
X724500Y167750D02*
Y169750D01*
X730000Y132250D02*
X732000D01*
X731000Y131250D02*
Y133250D01*
X728500Y163750D02*
X730500D01*
X729500Y162750D02*
Y164750D01*
X716500Y168750D02*
X718500D01*
X717500Y167750D02*
Y169750D01*
X711500Y163750D02*
X713500D01*
X712500Y162750D02*
Y164750D01*
X709476Y131744D02*
X711476D01*
X710476Y130744D02*
Y132744D01*
X736476Y90744D02*
X738476D01*
X737476Y89744D02*
Y91744D01*
Y69744D02*
X739476D01*
X738476Y68744D02*
Y70744D01*
X736476Y80744D02*
X738476D01*
X737476Y79744D02*
Y81744D01*
X702810Y86590D02*
X704810D01*
X703810Y85590D02*
Y87590D01*
X702810Y77590D02*
X704810D01*
X703810Y76590D02*
Y78590D01*
X693810Y77590D02*
X695810D01*
X694810Y76590D02*
Y78590D01*
X684810Y86590D02*
X686810D01*
X685810Y85590D02*
Y87590D01*
X693810Y86590D02*
X695810D01*
X694810Y85590D02*
Y87590D01*
X684810Y77590D02*
X686810D01*
X685810Y76590D02*
Y78590D01*
X702810Y68590D02*
X704810D01*
X703810Y67590D02*
Y69590D01*
X693810Y68590D02*
X695810D01*
X694810Y67590D02*
Y69590D01*
X684810Y68590D02*
X686810D01*
X685810Y67590D02*
Y69590D01*
X565821Y856500D02*
X567821D01*
X566821Y855500D02*
Y857500D01*
X452250Y731650D02*
X454250D01*
X453250Y730650D02*
Y732650D01*
X638484Y65937D02*
X640484D01*
X639484Y64937D02*
Y66937D01*
X638484Y81056D02*
X640484D01*
X639484Y80056D02*
Y82056D01*
X631043Y73638D02*
X633043D01*
X632043Y72638D02*
Y74638D01*
X649298Y47090D02*
X651298D01*
X650298Y46090D02*
Y48090D01*
X649233Y63650D02*
X651233D01*
X650233Y62650D02*
Y64650D01*
X582346Y62465D02*
X584346D01*
X583346Y61465D02*
Y63465D01*
X577620Y47900D02*
X579620D01*
X578620Y46900D02*
Y48900D01*
X571740Y73072D02*
X573740D01*
X572739Y72072D02*
Y74072D01*
X506500Y624500D02*
X508500D01*
X507500Y623500D02*
Y625500D01*
X554198Y294034D02*
X556198D01*
X555198Y293034D02*
Y295034D01*
X559620Y47900D02*
X561620D01*
X560620Y46900D02*
Y48900D01*
X554198Y315034D02*
X556198D01*
X555198Y314034D02*
Y316034D01*
X455727Y288912D02*
X457727D01*
X456727Y287912D02*
Y289912D01*
X443283Y291775D02*
X445283D01*
X444283Y290775D02*
Y292775D01*
X437560Y276090D02*
X439560D01*
X438560Y275090D02*
Y277090D01*
X429232Y1466432D02*
X431232D01*
X430232Y1465432D02*
Y1467432D01*
X423085Y1470113D02*
X425085D01*
X424085Y1469113D02*
Y1471113D01*
X418264Y1491314D02*
X420264D01*
X419264Y1490314D02*
Y1492314D01*
X413026Y1471934D02*
X415026D01*
X414026Y1470934D02*
Y1472934D01*
X408855Y1482277D02*
X410855D01*
X409855Y1481277D02*
Y1483277D01*
X428954Y1452820D02*
X430954D01*
X429954Y1451820D02*
Y1453820D01*
X412321Y1383361D02*
X414321D01*
X413321Y1382361D02*
Y1384361D01*
X431821Y1336360D02*
X433821D01*
X432821Y1335360D02*
Y1337360D01*
X417321Y1336360D02*
X419321D01*
X418321Y1335360D02*
Y1337360D01*
X404000Y1553650D02*
X406000D01*
X405000Y1552650D02*
Y1554650D01*
X397321Y1383361D02*
X399321D01*
X398321Y1382361D02*
Y1384361D01*
X387000Y1553650D02*
X389000D01*
X388000Y1552650D02*
Y1554650D01*
X366285Y1549771D02*
X368285D01*
X367285Y1548771D02*
Y1550771D01*
X365590Y1565839D02*
X367590D01*
X366590Y1564839D02*
Y1566839D01*
X405321Y1348360D02*
X407321D01*
X406321Y1347360D02*
Y1349360D01*
X390321Y1348360D02*
X392321D01*
X391321Y1347360D02*
Y1349360D01*
X381321Y1348360D02*
X383321D01*
X382321Y1347360D02*
Y1349360D01*
X366321Y1348360D02*
X368321D01*
X367321Y1347360D02*
Y1349360D01*
X402321Y1336360D02*
X404321D01*
X403321Y1335360D02*
Y1337360D01*
X393321Y1336360D02*
X395321D01*
X394321Y1335360D02*
Y1337360D01*
X378321Y1336360D02*
X380321D01*
X379321Y1335360D02*
Y1337360D01*
X352950Y1525700D02*
X354950D01*
X353950Y1524700D02*
Y1526700D01*
X338111Y1540560D02*
X340111D01*
X339111Y1539560D02*
Y1541560D01*
X320000Y1544650D02*
X322000D01*
X321000Y1543650D02*
Y1545650D01*
X303000Y1544650D02*
X305000D01*
X304000Y1543650D02*
Y1545650D01*
X278591Y1533661D02*
X280591D01*
X279591Y1532661D02*
Y1534661D01*
X176012Y1504502D02*
X178012D01*
X177012Y1503502D02*
Y1505502D01*
X216937Y1450599D02*
X218937D01*
X217937Y1449599D02*
Y1451599D01*
X205246Y1438907D02*
X207246D01*
X206246Y1437908D02*
Y1439908D01*
X179937Y1461599D02*
X181937D01*
X180937Y1460599D02*
Y1462599D01*
X159477Y1504502D02*
X161477D01*
X160477Y1503502D02*
Y1505502D01*
X146012Y1506502D02*
X148012D01*
X147012Y1505502D02*
Y1507502D01*
X129477Y1504502D02*
X131477D01*
X130477Y1503502D02*
Y1505502D01*
X168246Y1449908D02*
X170246D01*
X169246Y1448907D02*
Y1450907D01*
X130257Y1478518D02*
X132257D01*
X131257Y1477518D02*
Y1479518D01*
X146791Y1478518D02*
X148791D01*
X147791Y1477518D02*
Y1479518D01*
X84350Y1208707D02*
X86350D01*
X85350Y1207707D02*
Y1209707D01*
X85748Y1202330D02*
X87748D01*
X86748Y1201330D02*
Y1203330D01*
X75125Y1210467D02*
X77125D01*
X76125Y1209467D02*
Y1211467D01*
X70902Y1201212D02*
X72902D01*
X71902Y1200212D02*
Y1202212D01*
X86230Y1175916D02*
X88230D01*
X87230Y1174916D02*
Y1176916D01*
X86230Y1193384D02*
X88230D01*
X87230Y1192384D02*
Y1194384D01*
X90099Y1161102D02*
X92099D01*
X91099Y1160102D02*
Y1162102D01*
X85748Y1166970D02*
X87748D01*
X86748Y1165970D02*
Y1167970D01*
X80118Y1176302D02*
X82118D01*
X81118Y1175302D02*
Y1177302D01*
X80118Y1192998D02*
X82118D01*
X81118Y1191998D02*
Y1193998D01*
X84350Y1160593D02*
X86350D01*
X85350Y1159594D02*
Y1161593D01*
X84239Y1095456D02*
X86239D01*
X85239Y1094456D02*
Y1096456D01*
X85748Y1089330D02*
X87748D01*
X86748Y1088330D02*
Y1090330D01*
X74469Y1193345D02*
X76469D01*
X75469Y1192345D02*
Y1194345D01*
X74469Y1175955D02*
X76469D01*
X75469Y1174955D02*
Y1176955D01*
X70902Y1168088D02*
X72902D01*
X71902Y1167088D02*
Y1169088D01*
X75125Y1158833D02*
X77125D01*
X76125Y1157833D02*
Y1159833D01*
X75125Y1097467D02*
X77125D01*
X76125Y1096467D02*
Y1098467D01*
X70902Y1088212D02*
X72902D01*
X71902Y1087212D02*
Y1089212D01*
X234735Y1036030D02*
X236735D01*
X235735Y1035030D02*
Y1037030D01*
X231500Y962000D02*
X233500D01*
X232500Y961000D02*
Y963000D01*
X231500Y956000D02*
X233500D01*
X232500Y955000D02*
Y957000D01*
X231500Y950000D02*
X233500D01*
X232500Y949000D02*
Y951000D01*
X231500Y900000D02*
X233500D01*
X232500Y899000D02*
Y901000D01*
X231500Y937000D02*
X233500D01*
X232500Y936000D02*
Y938000D01*
X231500Y931000D02*
X233500D01*
X232500Y930000D02*
Y932000D01*
X231500Y912000D02*
X233500D01*
X232500Y911000D02*
Y913000D01*
X231500Y925000D02*
X233500D01*
X232500Y924000D02*
Y926000D01*
X231500Y906000D02*
X233500D01*
X232500Y905000D02*
Y907000D01*
X231500Y881000D02*
X233500D01*
X232500Y880000D02*
Y882000D01*
X231500Y875000D02*
X233500D01*
X232500Y874000D02*
Y876000D01*
X231500Y887000D02*
X233500D01*
X232500Y886000D02*
Y888000D01*
X86230Y1062916D02*
X88230D01*
X87230Y1061916D02*
Y1063916D01*
X86230Y1080384D02*
X88230D01*
X87230Y1079384D02*
Y1081384D01*
X80118Y1063302D02*
X82118D01*
X81118Y1062302D02*
Y1064302D01*
X85748Y1053970D02*
X87748D01*
X86748Y1052970D02*
Y1054970D01*
X84350Y1047594D02*
X86350D01*
X85350Y1046593D02*
Y1048594D01*
X80118Y1079998D02*
X82118D01*
X81118Y1078998D02*
Y1080998D01*
X74469Y1080345D02*
X76469D01*
X75469Y1079345D02*
Y1081345D01*
X74469Y1062955D02*
X76469D01*
X75469Y1061955D02*
Y1063955D01*
X75125Y955472D02*
X77125D01*
X76125Y954472D02*
Y956472D01*
X75125Y1045833D02*
X77125D01*
X76125Y1044833D02*
Y1046833D01*
X70902Y1055088D02*
X72902D01*
X71902Y1054088D02*
Y1056088D01*
X85748Y947336D02*
X87748D01*
X86748Y946336D02*
Y948336D01*
X86230Y938389D02*
X88230D01*
X87230Y937389D02*
Y939389D01*
X84350Y953712D02*
X86350D01*
X85350Y952712D02*
Y954712D01*
X86230Y920922D02*
X88230D01*
X87230Y919922D02*
Y921921D01*
X85748Y911975D02*
X87748D01*
X86748Y910975D02*
Y912975D01*
X84350Y905599D02*
X86350D01*
X85350Y904599D02*
Y906599D01*
X80118Y921307D02*
X82118D01*
X81118Y920307D02*
Y922307D01*
X80118Y938004D02*
X82118D01*
X81118Y937004D02*
Y939004D01*
X74469Y938351D02*
X76469D01*
X75469Y937351D02*
Y939351D01*
X70902Y946217D02*
X72902D01*
X71902Y945217D02*
Y947217D01*
X74469Y920960D02*
X76469D01*
X75469Y919960D02*
Y921960D01*
X75125Y903839D02*
X77125D01*
X76125Y902839D02*
Y904838D01*
X70902Y913093D02*
X72902D01*
X71902Y912094D02*
Y914093D01*
X339855Y743760D02*
X341855D01*
X340855Y742760D02*
Y744760D01*
X339000Y667913D02*
X341000D01*
X340000Y666913D02*
Y668913D01*
X314570Y623650D02*
X316570D01*
X315570Y622650D02*
Y624650D01*
X314570Y604674D02*
X316570D01*
X315570Y603674D02*
Y605674D01*
X314415Y552339D02*
X316415D01*
X315415Y551339D02*
Y553339D01*
X191500Y623500D02*
X193500D01*
X192500Y622500D02*
Y624500D01*
X191500Y601500D02*
X193500D01*
X192500Y600500D02*
Y602500D01*
X181299Y597960D02*
X183299D01*
X182299Y596960D02*
Y598960D01*
X194959Y582500D02*
X196959D01*
X195959Y581500D02*
Y583500D01*
X263165Y552339D02*
X265165D01*
X264165Y551339D02*
Y553339D01*
X257265Y474984D02*
X259265D01*
X258265Y473984D02*
Y475984D01*
X178778Y441598D02*
X180778D01*
X179778Y440598D02*
Y442598D01*
X358600Y335810D02*
X360600D01*
X359600Y334810D02*
Y336810D01*
X432018Y291750D02*
X434018D01*
X433018Y290750D02*
Y292750D01*
X393600Y291810D02*
X395600D01*
X394600Y290810D02*
Y292810D01*
X378237Y295726D02*
X380237D01*
X379237Y294726D02*
Y296726D01*
X358600Y341810D02*
X360600D01*
X359600Y340810D02*
Y342810D01*
X354600Y319932D02*
X356600D01*
X355600Y318932D02*
Y320932D01*
X430035Y269972D02*
X432035D01*
X431035Y268972D02*
Y270972D01*
X408395Y262034D02*
X410395D01*
X409395Y261034D02*
Y263034D01*
X398750Y238750D02*
X400750D01*
X399750Y237750D02*
Y239750D01*
X392415Y260738D02*
X394415D01*
X393415Y259738D02*
Y261738D01*
X375699Y273731D02*
X377699D01*
X376698Y272731D02*
Y274731D01*
X361750Y265750D02*
X363750D01*
X362750Y264750D02*
Y266750D01*
X383649Y248889D02*
X385649D01*
X384649Y247889D02*
Y249889D01*
X370792Y237288D02*
X372791D01*
X371791Y236288D02*
Y238288D01*
X385649Y227437D02*
X387649D01*
X386649Y226437D02*
Y228437D01*
X333691Y260003D02*
X335691D01*
X334691Y259003D02*
Y261003D01*
X259000Y259804D02*
X261000D01*
X260000Y258804D02*
Y260804D01*
X256000Y377000D02*
X258000D01*
X257000Y376000D02*
Y378000D01*
X190057Y353247D02*
X192057D01*
X191057Y352247D02*
Y354247D01*
X190057Y338247D02*
X192057D01*
X191057Y337247D02*
Y339247D01*
X190057Y381247D02*
X192057D01*
X191057Y380247D02*
Y382247D01*
X187057Y370747D02*
X189057D01*
X188057Y369747D02*
Y371747D01*
X187057Y376747D02*
X189057D01*
X188057Y375747D02*
Y377747D01*
X190057Y366247D02*
X192057D01*
X191057Y365247D02*
Y367247D01*
X187057Y342747D02*
X189057D01*
X188057Y341747D02*
Y343747D01*
X187057Y348747D02*
X189057D01*
X188057Y347747D02*
Y349747D01*
X190057Y282247D02*
X192057D01*
X191057Y281247D02*
Y283247D01*
X190057Y325247D02*
X192057D01*
X191057Y324247D02*
Y326247D01*
X187057Y314747D02*
X189057D01*
X188057Y313747D02*
Y315747D01*
X187057Y320747D02*
X189057D01*
X188057Y319747D02*
Y321747D01*
X190057Y310247D02*
X192057D01*
X191057Y309247D02*
Y311247D01*
X190057Y297247D02*
X192057D01*
X191057Y296247D02*
Y298247D01*
X187057Y292747D02*
X189057D01*
X188057Y291747D02*
Y293747D01*
X187057Y286747D02*
X189057D01*
X188057Y285747D02*
Y287747D01*
X248612Y274033D02*
X250612D01*
X249612Y273033D02*
Y275033D01*
X239000Y225100D02*
X241000D01*
X240000Y224100D02*
Y226100D01*
X239000Y233100D02*
X241000D01*
X240000Y232100D02*
Y234100D01*
X209500Y201500D02*
X211500D01*
X210500Y200500D02*
Y202500D01*
X200500Y201500D02*
X202500D01*
X201500Y200500D02*
Y202500D01*
X200500Y177500D02*
X202500D01*
X201500Y176500D02*
Y178500D01*
X200500Y210500D02*
X202500D01*
X201500Y209500D02*
Y211500D01*
X191500Y201500D02*
X193500D01*
X192500Y200500D02*
Y202500D01*
X209500Y168500D02*
X211500D01*
X210500Y167500D02*
Y169500D01*
X200500Y159500D02*
X202500D01*
X201500Y158500D02*
Y160500D01*
X200500Y168500D02*
X202500D01*
X201500Y167500D02*
Y169500D01*
X191500Y168500D02*
X193500D01*
X192500Y167500D02*
Y169500D01*
X133271Y352246D02*
X135271D01*
X134270Y351246D02*
Y353246D01*
X133271Y365246D02*
X135271D01*
X134270Y364246D02*
Y366246D01*
X137487Y337246D02*
X139487D01*
X138487Y336246D02*
Y338246D01*
X122865Y364222D02*
X124865D01*
X123865Y363222D02*
Y365222D01*
X120653Y369013D02*
X122653D01*
X121653Y368013D02*
Y370013D01*
X115125Y371101D02*
X117125D01*
X116125Y370101D02*
Y372101D01*
X113502Y380245D02*
X115502D01*
X114502Y379245D02*
Y381245D01*
X123170Y346511D02*
X125170D01*
X124170Y345512D02*
Y347511D01*
X121022Y359087D02*
X123022D01*
X122022Y358087D02*
Y360087D01*
X120850Y351494D02*
X122850D01*
X121850Y350494D02*
Y352495D01*
X116329Y355352D02*
X118329D01*
X117329Y354352D02*
Y356352D01*
X120000Y341010D02*
X122000D01*
X121000Y340010D02*
Y342010D01*
X115400Y338010D02*
X117400D01*
X116400Y337010D02*
Y339010D01*
X105500Y542692D02*
X107500D01*
X106500Y541692D02*
Y543692D01*
X77295Y469543D02*
X79295D01*
X78295Y468543D02*
Y470543D01*
X70295Y469543D02*
X72295D01*
X71295Y468543D02*
Y470543D01*
X63295Y469543D02*
X65295D01*
X64295Y468543D02*
Y470543D01*
X56295Y469543D02*
X58295D01*
X57295Y468543D02*
Y470543D01*
X42295Y469543D02*
X44295D01*
X43295Y468543D02*
Y470543D01*
X35295Y469543D02*
X37295D01*
X36295Y468543D02*
Y470543D01*
X49295Y469543D02*
X51295D01*
X50295Y468543D02*
Y470543D01*
X7170Y474000D02*
X9170D01*
X8170Y473000D02*
Y475000D01*
X7170Y467000D02*
X9170D01*
X8170Y466000D02*
Y468000D01*
X113502Y393245D02*
X115502D01*
X114502Y392245D02*
Y394245D01*
X105000Y389012D02*
X107000D01*
X106000Y388012D02*
Y390012D01*
X105000Y382012D02*
X107000D01*
X106000Y381012D02*
Y383012D01*
X85744Y408593D02*
X87744D01*
X86744Y407593D02*
Y409593D01*
X85744Y415593D02*
X87744D01*
X86744Y414593D02*
Y416593D01*
X85744Y450593D02*
X87744D01*
X86744Y449593D02*
Y451593D01*
X85744Y443593D02*
X87744D01*
X86744Y442593D02*
Y444593D01*
X85744Y457593D02*
X87744D01*
X86744Y456593D02*
Y458593D01*
X85744Y422593D02*
X87744D01*
X86744Y421593D02*
Y423593D01*
X85744Y436593D02*
X87744D01*
X86744Y435593D02*
Y437593D01*
X94101Y398911D02*
X96101D01*
X95100Y397911D02*
Y399911D01*
X99050Y393962D02*
X101050D01*
X100050Y392962D02*
Y394962D01*
X89151Y403861D02*
X91151D01*
X90151Y402861D02*
Y404861D01*
X109965Y370045D02*
X111965D01*
X110965Y369045D02*
Y371045D01*
X105000Y375012D02*
X107000D01*
X106000Y374012D02*
Y376012D01*
X105000Y359010D02*
X107000D01*
X106000Y358010D02*
Y360010D01*
X105000Y353010D02*
X107000D01*
X106000Y352010D02*
Y354010D01*
X105000Y369012D02*
X107000D01*
X106000Y368012D02*
Y370012D01*
X105000Y342010D02*
X107000D01*
X106000Y341010D02*
Y343010D01*
X105000Y347010D02*
X107000D01*
X106000Y346010D02*
Y348010D01*
X80795Y462543D02*
X82795D01*
X81795Y461543D02*
Y463543D01*
X73795Y462543D02*
X75795D01*
X74795Y461543D02*
Y463543D01*
X66795Y462543D02*
X68795D01*
X67795Y461543D02*
Y463543D01*
X59795Y462543D02*
X61795D01*
X60795Y461543D02*
Y463543D01*
X45795Y462543D02*
X47795D01*
X46795Y461543D02*
Y463543D01*
X52795Y462543D02*
X54795D01*
X53795Y461543D02*
Y463543D01*
X38795Y462543D02*
X40795D01*
X39795Y461543D02*
Y463543D01*
X17795Y462543D02*
X19794D01*
X18794Y461543D02*
Y463543D01*
X10795Y462543D02*
X12795D01*
X11795Y461543D02*
Y463543D01*
X31795Y462543D02*
X33795D01*
X32794Y461543D02*
Y463543D01*
X24794Y462543D02*
X26795D01*
X25794Y461543D02*
Y463543D01*
X85744Y429593D02*
X87744D01*
X86744Y428593D02*
Y430593D01*
X149247Y317626D02*
X151247D01*
X150246Y316626D02*
Y318626D01*
X153426Y303519D02*
X155426D01*
X154426Y302519D02*
Y304519D01*
X147247Y304126D02*
X149247D01*
X148246Y303126D02*
Y305126D01*
X137487Y324246D02*
X139487D01*
X138487Y323246D02*
Y325246D01*
X153426Y290519D02*
X155426D01*
X154426Y289519D02*
Y291519D01*
X128884Y266820D02*
X130884D01*
X129884Y265820D02*
Y267820D01*
X116767Y271763D02*
X118767D01*
X117767Y270763D02*
Y272763D01*
X116885Y261665D02*
X118885D01*
X117885Y260665D02*
Y262665D01*
X143500Y201500D02*
X145500D01*
X144500Y200500D02*
Y202500D01*
X143500Y168500D02*
X145500D01*
X144500Y167500D02*
Y169500D01*
X134500Y201500D02*
X136500D01*
X135500Y200500D02*
Y202500D01*
X134500Y210500D02*
X136500D01*
X135500Y209500D02*
Y211500D01*
X134500Y192500D02*
X136500D01*
X135500Y191500D02*
Y193500D01*
X134500Y168500D02*
X136500D01*
X135500Y167500D02*
Y169500D01*
X134500Y177500D02*
X136500D01*
X135500Y176500D02*
Y178500D01*
X128582Y181519D02*
X130583D01*
X129583Y180519D02*
Y182519D01*
X164401Y131193D02*
X166401D01*
X165401Y130193D02*
Y132193D01*
X134500Y159500D02*
X136500D01*
X135500Y158500D02*
Y160500D01*
X140175Y25490D02*
X142175D01*
X141175Y24490D02*
Y26490D01*
X133000Y130000D02*
X135000D01*
X134000Y129000D02*
Y131000D01*
X125500Y201500D02*
X127500D01*
X126500Y200500D02*
Y202500D01*
X125500Y168500D02*
X127500D01*
X126500Y167500D02*
Y169500D01*
X118018Y186503D02*
X120018D01*
X119018Y185503D02*
Y187503D01*
X116756Y176891D02*
X118756D01*
X117756Y175891D02*
Y177891D01*
X122969Y143271D02*
X124969D01*
X123969Y142271D02*
Y144271D01*
X122672Y124126D02*
X124672D01*
X123672Y123126D02*
Y125126D01*
X121928Y130524D02*
X123928D01*
X122928Y129524D02*
Y131524D01*
X120000Y148000D02*
X122000D01*
X121000Y147000D02*
Y149000D01*
X118010Y138014D02*
X120009D01*
X119010Y137014D02*
Y139014D01*
X118000Y120000D02*
X120000D01*
X119000Y119000D02*
Y121000D01*
X116621Y133004D02*
X118621D01*
X117621Y132004D02*
Y134004D01*
X115400Y324010D02*
X117400D01*
X116400Y323010D02*
Y325010D01*
X115400Y331010D02*
X117400D01*
X116400Y330010D02*
Y332010D01*
X115400Y296010D02*
X117400D01*
X116400Y295010D02*
Y297010D01*
X115400Y289010D02*
X117400D01*
X116400Y288010D02*
Y290010D01*
X115400Y303010D02*
X117400D01*
X116400Y302010D02*
Y304010D01*
X115400Y276338D02*
X117400D01*
X116400Y275338D02*
Y277338D01*
X115400Y282010D02*
X117400D01*
X116400Y281010D02*
Y283010D01*
X115400Y317010D02*
X117400D01*
X116400Y316010D02*
Y318010D01*
X115400Y310010D02*
X117400D01*
X116400Y309010D02*
Y311010D01*
X105000Y296010D02*
X107000D01*
X106000Y295010D02*
Y297010D01*
X105000Y289010D02*
X107000D01*
X106000Y288010D02*
Y290010D01*
X105000Y303010D02*
X107000D01*
X106000Y302010D02*
Y304010D01*
X105000Y275999D02*
X107000D01*
X106000Y274999D02*
Y276999D01*
X105000Y282010D02*
X107000D01*
X106000Y281010D02*
Y283010D01*
X105000Y331010D02*
X107000D01*
X106000Y330010D02*
Y332010D01*
X105000Y324010D02*
X107000D01*
X106000Y323010D02*
Y325010D01*
X105000Y337010D02*
X107000D01*
X106000Y336010D02*
Y338010D01*
X105000Y310010D02*
X107000D01*
X106000Y309010D02*
Y311010D01*
X105000Y317010D02*
X107000D01*
X106000Y316010D02*
Y318010D01*
X110437Y264592D02*
X112437D01*
X111437Y263592D02*
Y265592D01*
X105000Y264010D02*
X107000D01*
X106000Y263010D02*
Y265010D01*
X105000Y270010D02*
X107000D01*
X106000Y269010D02*
Y271010D01*
X105000Y250010D02*
X107000D01*
X106000Y249010D02*
Y251010D01*
X105000Y257010D02*
X107000D01*
X106000Y256010D02*
Y258010D01*
X105000Y228000D02*
X107000D01*
X106000Y227000D02*
Y229000D01*
X105000Y221000D02*
X107000D01*
X106000Y220000D02*
Y222000D01*
X105000Y236010D02*
X107000D01*
X106000Y235010D02*
Y237010D01*
X105000Y207000D02*
X107000D01*
X106000Y206000D02*
Y208000D01*
X105000Y214000D02*
X107000D01*
X106000Y213000D02*
Y215000D01*
X105000Y243010D02*
X107000D01*
X106000Y242010D02*
Y244010D01*
X105000Y193000D02*
X107000D01*
X106000Y192000D02*
Y194000D01*
X105000Y200000D02*
X107000D01*
X106000Y199000D02*
Y201000D01*
X115319Y165254D02*
X117319D01*
X116320Y164254D02*
Y166255D01*
X115284Y171755D02*
X117284D01*
X116284Y170755D02*
Y172755D01*
X115569Y158658D02*
X117569D01*
X116569Y157657D02*
Y159657D01*
X115000Y152000D02*
X117000D01*
X116000Y151000D02*
Y153000D01*
X112731Y185779D02*
X114731D01*
X113731Y184779D02*
Y186779D01*
X105000Y151000D02*
X107000D01*
X106000Y150000D02*
Y152000D01*
X105000Y179000D02*
X107000D01*
X106000Y178000D02*
Y180000D01*
X105000Y172000D02*
X107000D01*
X106000Y171000D02*
Y173000D01*
X105000Y186000D02*
X107000D01*
X106000Y185000D02*
Y187000D01*
X105000Y158000D02*
X107000D01*
X106000Y157000D02*
Y159000D01*
X105000Y165000D02*
X107000D01*
X106000Y164000D02*
Y166000D01*
X112000Y120000D02*
X114000D01*
X113000Y119000D02*
Y121000D01*
X105000Y138000D02*
X107000D01*
X106000Y137000D02*
Y139000D01*
X105000Y144000D02*
X107000D01*
X106000Y143000D02*
Y145000D01*
X105000Y121022D02*
X107000D01*
X106000Y120022D02*
Y122022D01*
X105000Y132000D02*
X107000D01*
X106000Y131000D02*
Y133000D01*
X105000Y86022D02*
X107000D01*
X106000Y85022D02*
Y87022D01*
X105000Y79022D02*
X107000D01*
X106000Y78022D02*
Y80022D01*
X105000Y93022D02*
X107000D01*
X106000Y92022D02*
Y94022D01*
X105000Y65022D02*
X107000D01*
X106000Y64022D02*
Y66022D01*
X105000Y72022D02*
X107000D01*
X106000Y71022D02*
Y73022D01*
X105000Y107022D02*
X107000D01*
X106000Y106022D02*
Y108022D01*
X105000Y114022D02*
X107000D01*
X106000Y113022D02*
Y115022D01*
X105000Y100022D02*
X107000D01*
X106000Y99022D02*
Y101022D01*
X105000Y37022D02*
X107000D01*
X106000Y36022D02*
Y38022D01*
X105000Y31022D02*
X107000D01*
X106000Y30022D02*
Y32022D01*
X105000Y44022D02*
X107000D01*
X106000Y43022D02*
Y45022D01*
X105000Y8000D02*
X107000D01*
X106000Y7000D02*
Y9000D01*
X105000Y24522D02*
X107000D01*
X106000Y23522D02*
Y25522D01*
X105000Y51022D02*
X107000D01*
X106000Y50022D02*
Y52022D01*
X105000Y58022D02*
X107000D01*
X106000Y57022D02*
Y59022D01*
X825710Y790909D02*
X827710D01*
X826710Y789909D02*
Y791909D01*
X825710Y784909D02*
X827710D01*
X826710Y783909D02*
Y785909D01*
X383017Y345417D02*
X385017D01*
X384017Y344417D02*
Y346417D01*
X249168Y1139949D02*
X251168D01*
X250168Y1138949D02*
Y1140949D01*
X256657Y1117946D02*
X258657D01*
X257657Y1116946D02*
Y1118946D01*
X258901Y1095160D02*
X260901D01*
X259901Y1094160D02*
Y1096160D01*
X671309Y1039107D02*
X673308D01*
X672309Y1038107D02*
Y1040107D01*
X565120Y47900D02*
X567120D01*
X566120Y46900D02*
Y48900D01*
X572120Y47900D02*
X574120D01*
X573120Y46900D02*
Y48900D01*
X680400Y20163D02*
X682400D01*
X681400Y19163D02*
Y21163D01*
X17253Y1125350D02*
X19253D01*
X18253Y1124350D02*
Y1126349D01*
X36188Y892155D02*
X38189D01*
X37188Y891155D02*
Y893155D01*
X140265Y775813D02*
X142265D01*
X141265Y774813D02*
Y776813D01*
X161388Y801218D02*
X163388D01*
X162388Y800218D02*
Y802218D01*
X890000Y963000D02*
X892000D01*
X891000Y962000D02*
Y964000D01*
X395239Y78112D02*
X397239D01*
X396239Y77112D02*
Y79112D01*
X853000Y822000D02*
X855000D01*
X854000Y821000D02*
Y823000D01*
X672337Y1384685D02*
X674336D01*
X673336Y1383685D02*
Y1385685D01*
X554416Y1383258D02*
X556416D01*
X555416Y1382258D02*
Y1384258D01*
X960500Y933000D02*
X962500D01*
X961500Y932000D02*
Y934000D01*
X990900Y568000D02*
X992900D01*
X991900Y567000D02*
Y569000D01*
X864000Y830340D02*
X866000D01*
X865000Y829340D02*
Y831339D01*
X557992Y963000D02*
X559992D01*
X558992Y962000D02*
Y964000D01*
X786684Y739518D02*
X788684D01*
X787684Y738518D02*
Y740518D01*
X697265Y402735D02*
X699265D01*
X698265Y401735D02*
Y403735D01*
X540092Y963000D02*
X542092D01*
X541092Y962000D02*
Y964000D01*
X530778Y719291D02*
X532778D01*
X531778Y718291D02*
Y720291D01*
X489041Y715400D02*
X491041D01*
X490041Y714400D02*
Y716400D01*
X441557Y1387062D02*
X443557D01*
X442557Y1386062D02*
Y1388062D01*
X444399Y714122D02*
X446399D01*
X445399Y713122D02*
Y715122D01*
X498540Y394498D02*
X500540D01*
X499540Y393498D02*
Y395498D01*
X505113Y361782D02*
X507113D01*
X506114Y360782D02*
Y362782D01*
X455197Y387196D02*
X457197D01*
X456198Y386196D02*
Y388196D01*
X422928Y381892D02*
X424928D01*
X423928Y380892D02*
Y382892D01*
X795040Y304490D02*
X797040D01*
X796040Y303490D02*
Y305490D01*
X809860Y280030D02*
X811860D01*
X810860Y279030D02*
Y281030D01*
X987564Y279281D02*
X989564D01*
X988564Y278281D02*
Y280281D01*
X774914Y279240D02*
X776915D01*
X775915Y278240D02*
Y280240D01*
X691247Y322512D02*
X693247D01*
X692247Y321512D02*
Y323512D01*
X688359Y274266D02*
X690359D01*
X689359Y273267D02*
Y275266D01*
X741872Y183678D02*
X743872D01*
X742872Y182678D02*
Y184678D01*
X870397Y12999D02*
X872397D01*
X871397Y11999D02*
Y13999D01*
X825450Y12656D02*
X827450D01*
X826450Y11656D02*
Y13656D01*
X780467Y12867D02*
X782467D01*
X781467Y11867D02*
Y13867D01*
X731500Y12642D02*
X733500D01*
X732500Y11642D02*
Y13642D01*
X665216Y162290D02*
X667216D01*
X666216Y161290D02*
Y163290D01*
X609325Y205702D02*
X611325D01*
X610325Y204702D02*
Y206702D01*
X594632Y153290D02*
X596632D01*
X595631Y152290D02*
Y154290D01*
X594632Y137290D02*
X596632D01*
X595631Y136290D02*
Y138290D01*
X492949Y253914D02*
X494949D01*
X493950Y252914D02*
Y254914D01*
X563088Y176878D02*
X565088D01*
X564088Y175878D02*
Y177878D01*
X490407Y240953D02*
X492407D01*
X491407Y239953D02*
Y241953D01*
X586632Y161290D02*
X588632D01*
X587631Y160290D02*
Y162290D01*
X570631Y161290D02*
X572631D01*
X571631Y160290D02*
Y162290D01*
X451587Y321693D02*
X453587D01*
X452587Y320693D02*
Y322693D01*
X445000Y305999D02*
X447000D01*
X446000Y304999D02*
Y306999D01*
X586632Y153290D02*
X588632D01*
X587631Y152290D02*
Y154290D01*
X570631Y153290D02*
X572631D01*
X571631Y152290D02*
Y154290D01*
X586632Y137290D02*
X588632D01*
X587631Y136290D02*
Y138290D01*
X586632Y129290D02*
X588632D01*
X587631Y128290D02*
Y130290D01*
X570631Y137290D02*
X572631D01*
X571631Y136290D02*
Y138290D01*
X562631Y153290D02*
X564632D01*
X563632Y152290D02*
Y154290D01*
X567266Y127550D02*
X569266D01*
X568266Y126551D02*
Y128551D01*
X562631Y137290D02*
X564632D01*
X563632Y136290D02*
Y138290D01*
X226180Y1205183D02*
X228180D01*
X227180Y1204183D02*
Y1206183D01*
X316692Y976833D02*
X318692D01*
X317692Y975833D02*
Y977833D01*
X303992Y976716D02*
X305992D01*
X304992Y975716D02*
Y977716D01*
X342821Y784489D02*
X344821D01*
X343821Y783489D02*
Y785489D01*
X171500Y1327500D02*
X173500D01*
X172500Y1326500D02*
Y1328500D01*
X143189Y1328497D02*
X145189D01*
X144189Y1327497D02*
Y1329497D01*
X81502Y1501498D02*
X83502D01*
X82502Y1500498D02*
Y1502498D01*
X9234Y1180185D02*
X11234D01*
X10234Y1179185D02*
Y1181185D01*
X143888Y770620D02*
X145888D01*
X144888Y769620D02*
Y771619D01*
X132573Y776013D02*
X134573D01*
X133573Y775013D02*
Y777013D01*
X9019Y1061912D02*
X11019D01*
X10019Y1060912D02*
Y1062912D01*
X9099Y805000D02*
X11099D01*
X10099Y804000D02*
Y806000D01*
X394077Y720331D02*
X396077D01*
X395077Y719332D02*
Y721331D01*
X381331Y370178D02*
X383331D01*
X382331Y369178D02*
Y371178D01*
X372067Y323490D02*
X374067D01*
X373067Y322490D02*
Y324490D01*
X363870Y720305D02*
X365870D01*
X364870Y719305D02*
Y721305D01*
X341235Y344234D02*
X343235D01*
X342235Y343234D02*
Y345234D01*
X378328Y319351D02*
X380328D01*
X379328Y318351D02*
Y320351D01*
X372477Y293054D02*
X374477D01*
X373477Y292054D02*
Y294054D01*
X365594Y252406D02*
X367594D01*
X366594Y251406D02*
Y253406D01*
X324729Y316025D02*
X326729D01*
X325729Y315025D02*
Y317025D01*
X305349Y318816D02*
X307349D01*
X306349Y317816D02*
Y319816D01*
X343913Y227635D02*
X345914D01*
X344913Y226635D02*
Y228635D01*
X333834Y233002D02*
X335835D01*
X334835Y232002D02*
Y234002D01*
X331425Y227953D02*
X333425D01*
X332425Y226953D02*
Y228953D01*
X337645Y226087D02*
X339645D01*
X338645Y225087D02*
Y227087D01*
X216189Y495188D02*
X218189D01*
X217189Y494188D02*
Y496188D01*
X197000Y500999D02*
X199000D01*
X198000Y499999D02*
Y501999D01*
X196864Y703225D02*
X198864D01*
X197864Y702225D02*
Y704225D01*
X198000Y493999D02*
X200000D01*
X199000Y492999D02*
Y494999D01*
X192000Y493999D02*
X194000D01*
X193000Y492999D02*
Y494999D01*
X208000Y487000D02*
X210000D01*
X209000Y486000D02*
Y488000D01*
X208000Y482000D02*
X210000D01*
X209000Y481000D02*
Y483000D01*
X198000Y487999D02*
X200000D01*
X199000Y486999D02*
Y488999D01*
X198000Y481999D02*
X200000D01*
X199000Y480999D02*
Y482999D01*
X164638Y761422D02*
X166637D01*
X165637Y760422D02*
Y762422D01*
X135263Y770122D02*
X137263D01*
X136263Y769122D02*
Y771122D01*
X110989Y737911D02*
X112989D01*
X111989Y736911D02*
Y738911D01*
X182949Y497480D02*
X184949D01*
X183949Y496480D02*
Y498480D01*
X230398Y65333D02*
X232398D01*
X231398Y64333D02*
Y66333D01*
X212599Y50800D02*
X214599D01*
X213599Y49800D02*
Y51800D01*
X202872Y75677D02*
X204872D01*
X203872Y74677D02*
Y76677D01*
X140532Y297045D02*
X142532D01*
X141532Y296045D02*
Y298045D01*
X140532Y291045D02*
X142532D01*
X141532Y290045D02*
Y292045D01*
X133532Y297045D02*
X135532D01*
X134532Y296045D02*
Y298045D01*
X133532Y291045D02*
X135532D01*
X134532Y290045D02*
Y292045D01*
X141000Y120000D02*
X143000D01*
X142000Y119000D02*
Y121000D01*
X135000Y120000D02*
X137000D01*
X136000Y119000D02*
Y121000D01*
X135000Y113000D02*
X137000D01*
X136000Y112000D02*
Y114000D01*
X141000Y113000D02*
X143000D01*
X142000Y112000D02*
Y114000D01*
X129000Y120000D02*
X131000D01*
X130000Y119000D02*
Y121000D01*
X129000Y113000D02*
X131000D01*
X130000Y112000D02*
Y114000D01*
X943115Y737998D02*
X945115D01*
X944115Y736998D02*
Y738998D01*
X334869Y276047D02*
X336869D01*
X335869Y275047D02*
Y277047D01*
X101066Y407868D02*
X103066D01*
X102066Y406868D02*
Y408868D01*
X95456Y407966D02*
X97456D01*
X96456Y406967D02*
Y408966D01*
X123000Y307000D02*
X125000D01*
X124000Y306000D02*
Y308000D01*
X380960Y407280D02*
X382960D01*
X381960Y406280D02*
Y408280D01*
X533367Y145535D02*
X535367D01*
X534367Y144535D02*
Y146535D01*
X526951Y139021D02*
X528951D01*
X527951Y138021D02*
Y140021D01*
X179346Y247086D02*
X181346D01*
X180346Y246086D02*
Y248086D01*
X265762Y366675D02*
X267762D01*
X266762Y365675D02*
Y367675D01*
X82677Y848437D02*
X84677D01*
X83677Y847437D02*
Y849437D01*
X712166Y369049D02*
X714166D01*
X713166Y368049D02*
Y370049D01*
X738788Y369140D02*
X740788D01*
X739788Y368140D02*
Y370140D01*
X602631Y137290D02*
X604632D01*
X603632Y136290D02*
Y138290D01*
X191959Y113750D02*
X193959D01*
X192959Y112750D02*
Y114750D01*
X204143Y88885D02*
X206143D01*
X205143Y87885D02*
Y89885D01*
X240439Y146704D02*
X242439D01*
X241439Y145704D02*
Y147704D01*
X419631Y34290D02*
X421631D01*
X420631Y33290D02*
Y35290D01*
X168993Y87627D02*
X170993D01*
X169993Y86627D02*
Y88627D01*
X226053Y152863D02*
X228053D01*
X227053Y151862D02*
Y153862D01*
X13525Y1068720D02*
X15525D01*
X14525Y1067720D02*
Y1069720D01*
X409892Y218747D02*
X411892D01*
X410892Y217747D02*
Y219747D01*
X403346Y216282D02*
X405346D01*
X404346Y215282D02*
Y217282D01*
X301479Y69431D02*
X303479D01*
X302479Y68431D02*
Y70431D01*
X144782Y841687D02*
X146782D01*
X145782Y840687D02*
Y842687D01*
X806268Y346745D02*
X808268D01*
X807268Y345745D02*
Y347745D01*
X753342Y369583D02*
X755342D01*
X754342Y368583D02*
Y370583D01*
X712795Y299661D02*
X714795D01*
X713795Y298661D02*
Y300661D01*
X705068Y293933D02*
X707068D01*
X706068Y292933D02*
Y294933D01*
X671821Y1243360D02*
X673821D01*
X672821Y1242360D02*
Y1244360D01*
X689821Y1243412D02*
X691821D01*
X690821Y1242412D02*
Y1244412D01*
X313954Y77116D02*
X315954D01*
X314954Y76116D02*
Y78116D01*
X326050Y103823D02*
X328050D01*
X327050Y102823D02*
Y104823D01*
X365500Y50407D02*
X367500D01*
X366500Y49407D02*
Y51407D01*
X332612Y63300D02*
X334612D01*
X333612Y62300D02*
Y64300D01*
X332175Y114744D02*
X334175D01*
X333175Y113744D02*
Y115744D01*
X337480Y104157D02*
X339480D01*
X338480Y103156D02*
Y105156D01*
X540940Y83529D02*
X542940D01*
X541940Y82529D02*
Y84529D01*
X765571Y975876D02*
X767570D01*
X766571Y974876D02*
Y976876D01*
X497750Y51750D02*
X499750D01*
X498750Y50750D02*
Y52750D01*
X498147Y57027D02*
X500147D01*
X499147Y56027D02*
Y58027D01*
X629874Y548413D02*
X631874D01*
X630874Y547413D02*
Y549413D01*
X889641Y9749D02*
X891641D01*
X890641Y8749D02*
Y10749D01*
X854311Y22718D02*
X856311D01*
X855311Y21718D02*
Y23718D01*
X842341Y20551D02*
X844341D01*
X843341Y19551D02*
Y21551D01*
X847474Y22847D02*
X849474D01*
X848474Y21847D02*
Y23847D01*
X809673Y22781D02*
X811674D01*
X810674Y21781D02*
Y23781D01*
X796650Y22864D02*
X798650D01*
X797650Y21864D02*
Y23864D01*
X802432Y22506D02*
X804432D01*
X803432Y21506D02*
Y23506D01*
X735169Y143432D02*
X737169D01*
X736169Y142432D02*
Y144432D01*
X739187Y136544D02*
X741187D01*
X740187Y135544D02*
Y137544D01*
X737632Y187734D02*
X739632D01*
X738632Y186734D02*
Y188734D01*
X684895Y179407D02*
X686895D01*
X685895Y178407D02*
Y180407D01*
X668600Y31293D02*
X670600D01*
X669600Y30293D02*
Y32293D01*
X647641Y26983D02*
X649641D01*
X648641Y25983D02*
Y27983D01*
X651062Y30630D02*
X653062D01*
X652062Y29630D02*
Y31630D01*
X36139Y1102619D02*
X38139D01*
X37139Y1101619D02*
Y1103619D01*
X249619Y894131D02*
X251619D01*
X250619Y893131D02*
Y895132D01*
X244536Y806673D02*
X246536D01*
X245536Y805673D02*
Y807673D01*
X211000Y904000D02*
X213000D01*
X212000Y903000D02*
Y905000D01*
X250619Y961132D02*
X252619D01*
X251619Y960132D02*
Y962132D01*
X201521Y223192D02*
X203521D01*
X202521Y222192D02*
Y224192D01*
X88813Y489619D02*
X90813D01*
X89813Y488619D02*
Y490619D01*
X238594Y456994D02*
X240594D01*
X239594Y455994D02*
Y457994D01*
X100497Y424220D02*
X102497D01*
X101497Y423220D02*
Y425220D01*
X125012Y152894D02*
X127012D01*
X126012Y151894D02*
Y153894D01*
X691832Y176945D02*
X693832D01*
X692832Y175945D02*
Y177945D01*
X246500Y1180855D02*
X248500D01*
X247500Y1179855D02*
Y1181855D01*
X240218Y1180682D02*
X242218D01*
X241218Y1179682D02*
Y1181682D01*
X516311Y1087744D02*
X518311D01*
X517311Y1086744D02*
Y1088744D01*
X530023Y1097237D02*
X532023D01*
X531023Y1096237D02*
Y1098237D01*
X238007Y1190862D02*
X240007D01*
X239007Y1189862D02*
Y1191862D01*
X523332Y1100335D02*
X525332D01*
X524332Y1099335D02*
Y1101335D01*
X523628Y1088074D02*
X525628D01*
X524628Y1087074D02*
Y1089073D01*
X657153Y1371153D02*
X659153D01*
X658153Y1370153D02*
Y1372153D01*
X231865Y479499D02*
X233865D01*
X232865Y478499D02*
Y480499D01*
X219165Y479499D02*
X221165D01*
X220165Y478499D02*
Y480499D01*
X199100Y247264D02*
X201100D01*
X200100Y246264D02*
Y248264D01*
X191100Y247264D02*
X193100D01*
X192100Y246264D02*
Y248264D01*
X313914Y360653D02*
X315914D01*
X314914Y359653D02*
Y361653D01*
X707074Y199411D02*
X709074D01*
X708074Y198411D02*
Y200411D01*
X657041Y207573D02*
X659041D01*
X658041Y206573D02*
Y208573D01*
X327308Y678250D02*
X329308D01*
X328308Y677250D02*
Y679250D01*
X352499Y675959D02*
X354499D01*
X353499Y674959D02*
Y676960D01*
X482923Y736709D02*
X484923D01*
X483923Y735708D02*
Y737709D01*
X524556Y745327D02*
X526555D01*
X525555Y744327D02*
Y746327D01*
X481112Y682301D02*
X483112D01*
X482112Y681301D02*
Y683301D01*
X365628Y688920D02*
X367628D01*
X366628Y687920D02*
Y689920D01*
X387993Y692975D02*
X389993D01*
X388993Y691975D02*
Y693975D01*
X412819Y681872D02*
X414819D01*
X413819Y680872D02*
Y682872D01*
X182709Y678250D02*
X184709D01*
X183709Y677250D02*
Y679250D01*
X761028Y1040709D02*
X763028D01*
X762028Y1039709D02*
Y1041709D01*
X235896Y1255585D02*
X237896D01*
X236896Y1254585D02*
Y1256585D01*
X413072Y1389932D02*
X415071D01*
X414072Y1388932D02*
Y1390932D01*
X539178Y1385137D02*
X541178D01*
X540178Y1384137D02*
Y1386137D01*
X103701Y1464892D02*
X105701D01*
X104700Y1463892D02*
Y1465892D01*
X144746Y858136D02*
X146746D01*
X145746Y857136D02*
Y859136D01*
X144746Y853136D02*
X146746D01*
X145746Y852136D02*
Y854136D01*
X144746Y848136D02*
X146746D01*
X145746Y847136D02*
Y849136D01*
X354552Y890136D02*
X356552D01*
X355552Y889136D02*
Y891136D01*
X354552Y895136D02*
X356552D01*
X355552Y894136D02*
Y896136D01*
X354552Y900136D02*
X356552D01*
X355552Y899136D02*
Y901136D01*
X348552Y890136D02*
X350552D01*
X349552Y889136D02*
Y891136D01*
X348552Y895136D02*
X350552D01*
X349552Y894136D02*
Y896136D01*
X348552Y900136D02*
X350552D01*
X349552Y899136D02*
Y901136D01*
X360552Y900136D02*
X362552D01*
X361552Y899136D02*
Y901136D01*
X360552Y895136D02*
X362552D01*
X361552Y894136D02*
Y896136D01*
X360552Y890136D02*
X362552D01*
X361552Y889136D02*
Y891136D01*
X135978Y716336D02*
X137978D01*
X136978Y715335D02*
Y717336D01*
X346735Y369996D02*
X348735D01*
X347735Y368996D02*
Y370996D01*
X348235Y381998D02*
X350235D01*
X349235Y380998D02*
Y382998D01*
X262000Y672650D02*
X264000D01*
X263000Y671650D02*
Y673650D01*
X126766Y162410D02*
X128766D01*
X127766Y161410D02*
Y163410D01*
X194061Y120291D02*
X196061D01*
X195061Y119291D02*
Y121291D01*
X208679Y116756D02*
X210679D01*
X209679Y115756D02*
Y117756D01*
X284928Y265662D02*
X286928D01*
X285928Y264662D02*
Y266661D01*
X325165Y309642D02*
X327165D01*
X326166Y308642D02*
Y310642D01*
X255820Y1179449D02*
X257820D01*
X256820Y1178449D02*
Y1180449D01*
X596112Y1230770D02*
X598112D01*
X597112Y1229770D02*
Y1231770D01*
X583658Y1231380D02*
X585658D01*
X584658Y1230380D02*
Y1232380D01*
X455372Y847146D02*
X457372D01*
X456372Y846146D02*
Y848146D01*
X452228Y969974D02*
X454228D01*
X453228Y968974D02*
Y970974D01*
X535821Y1234360D02*
X537821D01*
X536821Y1233360D02*
Y1235360D01*
X513821Y1228360D02*
X515821D01*
X514821Y1227360D02*
Y1229360D01*
X540235Y186747D02*
X542235D01*
X541235Y185747D02*
Y187747D01*
X805094Y267621D02*
X807094D01*
X806094Y266621D02*
Y268621D01*
X151821Y696482D02*
X153821D01*
X152821Y695482D02*
Y697482D01*
X474228Y808909D02*
X476228D01*
X475228Y807909D02*
Y809909D01*
X492374Y1292270D02*
X494374D01*
X493373Y1291270D02*
Y1293270D01*
X468228Y807909D02*
X470228D01*
X469228Y806909D02*
Y808909D01*
X455288Y1253356D02*
X457287D01*
X456287Y1252356D02*
Y1254356D01*
X362855Y365673D02*
X364855D01*
X363855Y364673D02*
Y366673D01*
X336824Y313959D02*
X338824D01*
X337824Y312959D02*
Y314959D01*
X290335Y313190D02*
X292335D01*
X291335Y312190D02*
Y314190D01*
X290098Y300422D02*
X292098D01*
X291098Y299422D02*
Y301423D01*
X290393Y320235D02*
X292393D01*
X291393Y319235D02*
Y321235D01*
X381600Y291810D02*
X383600D01*
X382600Y290810D02*
Y292810D01*
X394674Y235568D02*
X396674D01*
X395674Y234568D02*
Y236568D01*
X389725Y230618D02*
X391725D01*
X390725Y229618D02*
Y231618D01*
X358546Y330696D02*
X360546D01*
X359546Y329696D02*
Y331696D01*
X358546Y323697D02*
X360546D01*
X359546Y322696D02*
Y324697D01*
X387600Y291810D02*
X389600D01*
X388600Y290810D02*
Y292810D01*
X157000Y221950D02*
X159000D01*
X158000Y220950D02*
Y222950D01*
X147257Y274438D02*
X149257D01*
X148257Y273438D02*
Y275438D01*
X329568Y314767D02*
X331568D01*
X330568Y313767D02*
Y315767D01*
X294933Y332768D02*
X296933D01*
X295933Y331768D02*
Y333768D01*
X312380Y326996D02*
X314380D01*
X313380Y325996D02*
Y327996D01*
X290857Y329200D02*
X292857D01*
X291857Y328200D02*
Y330200D01*
X211064Y110888D02*
X213064D01*
X212064Y109888D02*
Y111888D01*
X244654Y116883D02*
X246654D01*
X245654Y115883D02*
Y117883D01*
X142821Y703489D02*
X144821D01*
X143821Y702489D02*
Y704489D01*
X71430Y560667D02*
X73430D01*
X72430Y559667D02*
Y561667D01*
X100869Y418229D02*
X102869D01*
X101869Y417229D02*
Y419230D01*
X74983Y565995D02*
X76983D01*
X75983Y564995D02*
Y566995D01*
X158821Y707489D02*
X160821D01*
X159821Y706489D02*
Y708489D01*
X311918Y1235454D02*
X313918D01*
X312918Y1234454D02*
Y1236454D01*
X222500Y1229500D02*
X224500D01*
X223500Y1228500D02*
Y1230500D01*
X222503Y1222661D02*
X224503D01*
X223503Y1221661D02*
Y1223661D01*
X234500Y1217500D02*
X236500D01*
X235500Y1216500D02*
Y1218500D01*
X231196Y1229209D02*
X233196D01*
X232196Y1228209D02*
Y1230209D01*
X67212Y565426D02*
X69212D01*
X68212Y564426D02*
Y566426D01*
X63820Y558463D02*
X65820D01*
X64820Y557463D02*
Y559463D01*
X59000Y563783D02*
X61000D01*
X60000Y562783D02*
Y564783D01*
X54000Y560000D02*
X56000D01*
X55000Y559000D02*
Y561000D01*
X100672Y412852D02*
X102672D01*
X101672Y411852D02*
Y413852D01*
X499000Y1557000D02*
X501000D01*
X500000Y1556000D02*
Y1558000D01*
X525000Y1557000D02*
X527000D01*
X526000Y1556000D02*
Y1558000D01*
X213921Y1445459D02*
X215921D01*
X214921Y1444459D02*
Y1446459D01*
X486321Y1336360D02*
X488321D01*
X487321Y1335360D02*
Y1337360D01*
X210386Y1441924D02*
X212386D01*
X211386Y1440924D02*
Y1442924D01*
X491321Y1336360D02*
X493321D01*
X492321Y1335360D02*
Y1337360D01*
X170245Y1503000D02*
X172245D01*
X171245Y1502000D02*
Y1504000D01*
X436821Y1336360D02*
X438821D01*
X437821Y1335360D02*
Y1337360D01*
X165245Y1503000D02*
X167245D01*
X166245Y1502000D02*
Y1504000D01*
X441821Y1336360D02*
X443821D01*
X442821Y1335360D02*
Y1337360D01*
X334734Y1449332D02*
X336734D01*
X335734Y1448332D02*
Y1450332D01*
X321544Y1446752D02*
X323544D01*
X322544Y1445752D02*
Y1447752D01*
X176921Y1456459D02*
X178921D01*
X177921Y1455459D02*
Y1457459D01*
X173386Y1452924D02*
X175386D01*
X174386Y1451924D02*
Y1453924D01*
X141024Y1477016D02*
X143024D01*
X142024Y1476017D02*
Y1478017D01*
X136024Y1477016D02*
X138024D01*
X137024Y1476017D02*
Y1478017D01*
X140245Y1503000D02*
X142245D01*
X141244Y1502000D02*
Y1504000D01*
X135245Y1503000D02*
X137245D01*
X136245Y1502000D02*
Y1504000D01*
X589924Y92904D02*
X591924D01*
X590924Y91904D02*
Y93904D01*
X523107Y57313D02*
X525107D01*
X524107Y56314D02*
Y58313D01*
X549099Y51522D02*
X551099D01*
X550099Y50522D02*
Y52522D01*
X159100Y149210D02*
X161100D01*
X160100Y148210D02*
Y150210D01*
X201000Y1300200D02*
X203000D01*
X202000Y1299200D02*
Y1301200D01*
X261996Y1238853D02*
X263996D01*
X262996Y1237853D02*
Y1239853D01*
X453122Y345913D02*
X455122D01*
X454122Y344913D02*
Y346913D01*
X397821Y862360D02*
X399821D01*
X398821Y861360D02*
Y863360D01*
X375422Y927659D02*
X377422D01*
X376422Y926659D02*
Y928659D01*
X777014Y314925D02*
X779014D01*
X778014Y313925D02*
Y315925D01*
X777218Y309222D02*
X779219D01*
X778219Y308222D02*
Y310222D01*
X325390Y719197D02*
X327390D01*
X326390Y718197D02*
Y720197D01*
X559012Y119991D02*
X561012D01*
X560012Y118991D02*
Y120991D01*
X559299Y183370D02*
X561299D01*
X560299Y182370D02*
Y184370D01*
X481624Y657006D02*
X483624D01*
X482625Y656006D02*
Y658006D01*
X298000Y1049650D02*
X300000D01*
X299000Y1048650D02*
Y1050650D01*
X368357Y371350D02*
X370357D01*
X369357Y370350D02*
Y372350D01*
X387139Y378139D02*
X389139D01*
X388139Y377139D02*
Y379139D01*
X397011Y914376D02*
X399011D01*
X398011Y913376D02*
Y915376D01*
X391023Y418860D02*
X393023D01*
X392023Y417860D02*
Y419860D01*
X392000Y407800D02*
X394000D01*
X393000Y406800D02*
Y408800D01*
X400759Y400753D02*
X402759D01*
X401759Y399753D02*
Y401753D01*
X810022Y749938D02*
X812022D01*
X811022Y748938D02*
Y750938D01*
X658400Y28800D02*
X660400D01*
X659400Y27800D02*
Y29800D01*
X677857Y28800D02*
X679857D01*
X678857Y27800D02*
Y29800D01*
X803166Y298446D02*
X805166D01*
X804166Y297446D02*
Y299446D01*
X800164Y322490D02*
X802165D01*
X801164Y321490D02*
Y323490D01*
X800164Y310490D02*
X802165D01*
X801164Y309490D02*
Y311490D01*
X703928Y327576D02*
X705928D01*
X704928Y326576D02*
Y328576D01*
X702660Y321028D02*
X704660D01*
X703660Y320028D02*
Y322028D01*
X361000Y1560907D02*
X363000D01*
X362000Y1559907D02*
Y1561907D01*
X361000Y1553907D02*
X363000D01*
X362000Y1552907D02*
Y1554907D01*
X392767Y1550141D02*
X394767D01*
X393767Y1549141D02*
Y1551141D01*
X399767Y1550141D02*
X401767D01*
X400767Y1549141D02*
Y1551141D01*
X314991Y1547076D02*
X316991D01*
X315991Y1546076D02*
Y1548076D01*
X307991Y1547076D02*
X309991D01*
X308991Y1546076D02*
Y1548076D01*
X348000Y1530650D02*
X350000D01*
X349000Y1529650D02*
Y1531650D01*
X343050Y1535600D02*
X345050D01*
X344050Y1534600D02*
Y1536600D01*
X749146Y136366D02*
X751146D01*
X750146Y135366D02*
Y137366D01*
X677557Y90898D02*
X679557D01*
X678557Y89898D02*
Y91898D01*
X682703Y98173D02*
X684703D01*
X683703Y97173D02*
Y99173D01*
X626631Y121290D02*
X628631D01*
X627631Y120290D02*
Y122290D01*
X630609Y126156D02*
X632609D01*
X631609Y125156D02*
Y127156D01*
X626631Y129290D02*
X628631D01*
X627631Y128290D02*
Y130290D01*
X630960Y144640D02*
X632960D01*
X631960Y143640D02*
Y145640D01*
X598582Y92688D02*
X600582D01*
X599582Y91688D02*
Y93688D01*
X615064Y125580D02*
X617064D01*
X616064Y124580D02*
Y126580D01*
X610631Y129290D02*
X612631D01*
X611632Y128290D02*
Y130290D01*
X757165Y577856D02*
X759165D01*
X758165Y576856D02*
Y578856D01*
X669472Y275099D02*
X671472D01*
X670472Y274099D02*
Y276099D01*
X725000Y137750D02*
X727000D01*
X726000Y136750D02*
Y138750D01*
X715000Y137750D02*
X717000D01*
X716000Y136750D02*
Y138750D01*
X751062Y64700D02*
X753062D01*
X752062Y63700D02*
Y65700D01*
X783476Y62744D02*
X785476D01*
X784476Y61744D02*
Y63744D01*
X751062Y54700D02*
X753062D01*
X752062Y53700D02*
Y55700D01*
X751063Y90590D02*
X753063D01*
X752063Y89590D02*
Y91590D01*
X751063Y80590D02*
X753063D01*
X752063Y79590D02*
Y81590D01*
X793476Y62744D02*
X795476D01*
X794476Y61744D02*
Y63744D01*
X244977Y479347D02*
X246977D01*
X245977Y478347D02*
Y480347D01*
X752750Y566000D02*
X754750D01*
X753750Y565000D02*
Y567000D01*
X474845Y1072450D02*
X476845D01*
X475845Y1071450D02*
Y1073450D01*
X402321Y1383361D02*
X404321D01*
X403321Y1382361D02*
Y1384361D01*
X407321Y1383361D02*
X409321D01*
X408321Y1382361D02*
Y1384361D01*
X407321Y1336360D02*
X409321D01*
X408321Y1335360D02*
Y1337360D01*
X412321Y1336360D02*
X414321D01*
X413321Y1335360D02*
Y1337360D01*
X383321Y1336360D02*
X385321D01*
X384321Y1335360D02*
Y1337360D01*
X388321Y1336360D02*
X390321D01*
X389321Y1335360D02*
Y1337360D01*
X395321Y1348360D02*
X397321D01*
X396321Y1347360D02*
Y1349360D01*
X400321Y1348360D02*
X402321D01*
X401321Y1347360D02*
Y1349360D01*
X376321Y1348360D02*
X378321D01*
X377321Y1347360D02*
Y1349360D01*
X706275Y1059847D02*
X708275D01*
X707275Y1058847D02*
Y1060847D01*
X415070Y653322D02*
X417070D01*
X416070Y652322D02*
Y654322D01*
X325070Y653322D02*
X327070D01*
X326070Y652322D02*
Y654322D01*
X566523Y532782D02*
X568523D01*
X567523Y531782D02*
Y533782D01*
X580188Y532999D02*
X582188D01*
X581188Y532000D02*
Y533999D01*
X573355Y532891D02*
X575355D01*
X574356Y531891D02*
Y533891D01*
X580080Y539832D02*
X582080D01*
X581080Y538832D02*
Y540832D01*
X573247Y539724D02*
X575247D01*
X574247Y538724D02*
Y540724D01*
X77570Y1272620D02*
X79570D01*
X78570Y1271620D02*
Y1273620D01*
X37750Y1047650D02*
X39750D01*
X38750Y1046650D02*
Y1048650D01*
X12112Y1162348D02*
X14112D01*
X13112Y1161348D02*
Y1163348D01*
X209821Y1310360D02*
X211821D01*
X210821Y1309360D02*
Y1311360D01*
X209716Y1316427D02*
X211716D01*
X210716Y1315427D02*
Y1317427D01*
X197821Y1310360D02*
X199821D01*
X198821Y1309360D02*
Y1311360D01*
X202821Y1316360D02*
X204821D01*
X203821Y1315360D02*
Y1317360D01*
X498678Y686224D02*
X500678D01*
X499678Y685224D02*
Y687224D01*
X475821Y1263360D02*
X477821D01*
X476821Y1262360D02*
Y1264360D01*
X731750Y544763D02*
X733750D01*
X732750Y543763D02*
Y545763D01*
X737750Y544763D02*
X739750D01*
X738750Y543763D02*
Y545763D01*
X498503Y1288218D02*
X500503D01*
X499503Y1287218D02*
Y1289218D01*
X715815Y1286648D02*
X717815D01*
X716815Y1285648D02*
Y1287648D01*
X692021Y1278560D02*
X694021D01*
X693021Y1277560D02*
Y1279560D01*
X667821Y1286781D02*
X669821D01*
X668821Y1285780D02*
Y1287780D01*
X724403Y1245058D02*
X726403D01*
X725403Y1244058D02*
Y1246058D01*
X780150Y1336017D02*
X782150D01*
X781150Y1335018D02*
Y1337018D01*
X267246Y1273908D02*
X269246D01*
X268246Y1272908D02*
Y1274909D01*
X392100Y1073010D02*
X394100D01*
X393100Y1072010D02*
Y1074010D01*
X714824Y1274302D02*
X716824D01*
X715824Y1273302D02*
Y1275302D01*
X619527Y1126437D02*
X621527D01*
X620527Y1125437D02*
Y1127437D01*
X666559Y1263122D02*
X668559D01*
X667559Y1262122D02*
Y1264122D01*
X519854Y1384577D02*
X521853D01*
X520854Y1383577D02*
Y1385577D01*
X315905Y679751D02*
X317905D01*
X316905Y678751D02*
Y680751D01*
X422479Y826630D02*
X424479D01*
X423479Y825630D02*
Y827630D01*
X331000Y339800D02*
X333000D01*
X332000Y338800D02*
Y340800D01*
X343955Y220922D02*
X345955D01*
X344955Y219922D02*
Y221922D01*
X616440Y549289D02*
X618440D01*
X617440Y548289D02*
Y550289D01*
X634698Y551901D02*
X636698D01*
X635698Y550901D02*
Y552901D01*
X843265Y236998D02*
X845265D01*
X844265Y235998D02*
Y237998D01*
X808626Y273155D02*
X810626D01*
X809626Y272155D02*
Y274155D01*
X547030Y150274D02*
X549030D01*
X548030Y149274D02*
Y151274D01*
X652689Y126727D02*
X654689D01*
X653689Y125727D02*
Y127727D01*
X644344Y295193D02*
X646344D01*
X645344Y294193D02*
Y296193D01*
X650344Y295193D02*
X652344D01*
X651344Y294193D02*
Y296193D01*
X656344Y295193D02*
X658344D01*
X657344Y294193D02*
Y296193D01*
X674344Y295193D02*
X676344D01*
X675344Y294193D02*
Y296193D01*
X668344Y295193D02*
X670344D01*
X669344Y294193D02*
Y296193D01*
X662344Y295193D02*
X664344D01*
X663344Y294193D02*
Y296193D01*
X432018Y181993D02*
X434018D01*
X433018Y180993D02*
Y182993D01*
X420018Y181993D02*
X422018D01*
X421018Y180993D02*
Y182993D01*
X420018Y192993D02*
X422018D01*
X421018Y191993D02*
Y193993D01*
X432018Y192993D02*
X434018D01*
X433018Y191993D02*
Y193993D01*
X434018Y187993D02*
X436018D01*
X435018Y186993D02*
Y188993D01*
X426018Y179993D02*
X428018D01*
X427018Y178993D02*
Y180993D01*
X418018Y187993D02*
X420018D01*
X419018Y186993D02*
Y188993D01*
X426018Y194993D02*
X428018D01*
X427018Y193993D02*
Y195993D01*
X426018Y187993D02*
X428018D01*
X427018Y186993D02*
Y188993D01*
X692827Y297174D02*
X694827D01*
X693827Y296175D02*
Y298174D01*
X723415Y297740D02*
X725415D01*
X724415Y296740D02*
Y298740D01*
X768914Y279240D02*
X770915D01*
X769914Y278240D02*
Y280240D01*
X777165Y298240D02*
X779165D01*
X778165Y297240D02*
Y299240D01*
X753165Y296240D02*
X755164D01*
X754165Y295240D02*
Y297240D01*
X742165Y296240D02*
X744165D01*
X743165Y295240D02*
Y297240D01*
X753165Y360740D02*
X755164D01*
X754165Y359740D02*
Y361740D01*
X742165Y360740D02*
X744165D01*
X743165Y359740D02*
Y361740D01*
X419786Y361442D02*
X421786D01*
X420786Y360442D02*
Y362442D01*
X447789Y355808D02*
X449789D01*
X448789Y354808D02*
Y356808D01*
X444073Y313490D02*
X446073D01*
X445073Y312490D02*
Y314490D01*
X459614Y318490D02*
X461614D01*
X460615Y317490D02*
Y319490D01*
X798000Y364250D02*
X800000D01*
X799000Y363250D02*
Y365250D01*
X770571Y387686D02*
X772571D01*
X771571Y386686D02*
Y388686D01*
X705645Y364935D02*
X707645D01*
X706645Y363935D02*
Y365935D01*
X684699Y353501D02*
X686699D01*
X685699Y352500D02*
Y354501D01*
X686699Y343501D02*
X688699D01*
X687699Y342500D02*
Y344501D01*
X685729Y325053D02*
X687729D01*
X686729Y324053D02*
Y326053D01*
X795884Y292456D02*
X797884D01*
X796884Y291456D02*
Y293456D01*
X661699Y215501D02*
X663699D01*
X662699Y214501D02*
Y216500D01*
X661699Y220679D02*
X663699D01*
X662699Y219680D02*
Y221679D01*
X674399Y228200D02*
X676400D01*
X675399Y227201D02*
Y229200D01*
X669221Y228200D02*
X671220D01*
X670220Y227201D02*
Y229200D01*
X693400Y228200D02*
X695399D01*
X694399Y227201D02*
Y229200D01*
X688221Y228200D02*
X690220D01*
X689221Y227201D02*
Y229200D01*
X746779Y498107D02*
X748779D01*
X747779Y497107D02*
Y499107D01*
X701336Y20720D02*
X703336D01*
X702336Y19720D02*
Y21720D01*
X554198Y308034D02*
X556198D01*
X555198Y307034D02*
Y309034D01*
X554198Y301034D02*
X556198D01*
X555198Y300034D02*
Y302034D01*
X402915Y263738D02*
X404915D01*
X403914Y262738D02*
Y264738D01*
X396914Y263738D02*
X398914D01*
X397915Y262738D02*
Y264738D01*
X666436Y1133896D02*
X668436D01*
X667436Y1132896D02*
Y1134896D01*
X545612Y1368831D02*
X547612D01*
X546612Y1367831D02*
Y1369831D01*
X486012Y1277050D02*
X488012D01*
X487012Y1276050D02*
Y1278050D01*
X482745Y210555D02*
X484745D01*
X483745Y209555D02*
Y211555D01*
X270500Y1217500D02*
X272500D01*
X271500Y1216500D02*
Y1218500D01*
X296499Y677000D02*
X298499D01*
X297499Y676001D02*
Y678000D01*
X119619Y677132D02*
X121619D01*
X120619Y676132D02*
Y678131D01*
X427619Y1251132D02*
X429619D01*
X428619Y1250132D02*
Y1252132D01*
X477663Y203082D02*
X479663D01*
X478663Y202082D02*
Y204082D01*
X557491Y1537101D02*
X559491D01*
X558491Y1536101D02*
Y1538101D01*
X545291Y1537101D02*
X547291D01*
X546291Y1536101D02*
Y1538101D01*
X464472Y199689D02*
X466472D01*
X465472Y198689D02*
Y200689D01*
X265500Y386000D02*
X267500D01*
X266500Y385000D02*
Y387000D01*
X559451Y1275675D02*
X561451D01*
X560451Y1274675D02*
Y1276675D01*
X276894Y677000D02*
X278894D01*
X277894Y676001D02*
Y678000D01*
X295021Y1228560D02*
X297021D01*
X296021Y1227560D02*
Y1229560D01*
X467633Y204691D02*
X469633D01*
X468633Y203691D02*
Y205691D01*
X240131Y801625D02*
X242131D01*
X241131Y800625D02*
Y802625D01*
X246500Y1217500D02*
X248500D01*
X247500Y1216500D02*
Y1218500D01*
X403632Y211290D02*
X405631D01*
X404631Y210290D02*
Y212290D01*
X237141Y1205500D02*
X239141D01*
X238141Y1204500D02*
Y1206500D01*
X246619Y972132D02*
X248619D01*
X247619Y971132D02*
Y973131D01*
X332021Y1036211D02*
X334021D01*
X333021Y1035211D02*
Y1037211D01*
X360284Y385247D02*
X362284D01*
X361284Y384247D02*
Y386247D01*
X740991Y75392D02*
X742991D01*
X741991Y74392D02*
Y76392D01*
X755247Y132560D02*
X757247D01*
X756247Y131560D02*
Y133560D01*
X736400Y54913D02*
X738400D01*
X737400Y53913D02*
Y55913D01*
X740000Y101080D02*
X742000D01*
X741000Y100080D02*
Y102080D01*
X423784Y1375432D02*
X425784D01*
X424784Y1374432D02*
Y1376432D01*
X608262Y240753D02*
X610262D01*
X609262Y239753D02*
Y241752D01*
X610295Y136304D02*
X612295D01*
X611295Y135304D02*
Y137304D01*
X622193Y110971D02*
X624193D01*
X623193Y109971D02*
Y111971D01*
X651629Y164750D02*
X653629D01*
X652629Y163750D02*
Y165749D01*
X579413Y118857D02*
X581413D01*
X580413Y117857D02*
Y119857D01*
X557699Y160500D02*
X559699D01*
X558699Y159500D02*
Y161500D01*
X691669Y1336819D02*
X693669D01*
X692669Y1335820D02*
Y1337820D01*
X699619Y1289131D02*
X701619D01*
X700619Y1288132D02*
Y1290132D01*
X602631Y97290D02*
X604631D01*
X603631Y96290D02*
Y98290D01*
X594632Y97290D02*
X596632D01*
X595631Y96290D02*
Y98290D01*
X586632Y113290D02*
X588632D01*
X587631Y112290D02*
Y114290D01*
X698631Y437290D02*
X700631D01*
X699631Y436290D02*
Y438290D01*
X747664Y291990D02*
X749665D01*
X748664Y290990D02*
Y292990D01*
X696589Y377192D02*
X698589D01*
X697589Y376192D02*
Y378192D01*
X693632Y437290D02*
X695631D01*
X694632Y436290D02*
Y438290D01*
X745068Y277864D02*
X747068D01*
X746068Y276864D02*
Y278864D01*
X691247Y377093D02*
X693247D01*
X692247Y376092D02*
Y378092D01*
X688632Y437290D02*
X690631D01*
X689632Y436290D02*
Y438290D01*
X674695Y322468D02*
X676695D01*
X675695Y321468D02*
Y323468D01*
X678691Y378394D02*
X680691D01*
X679691Y377394D02*
Y379394D01*
X682632Y436290D02*
X684631D01*
X683631Y435290D02*
Y437290D01*
X711969Y320782D02*
X713969D01*
X712969Y319782D02*
Y321782D01*
X675129Y382642D02*
X677129D01*
X676129Y381642D02*
Y383642D01*
X497235Y246747D02*
X499235D01*
X498235Y245747D02*
Y247747D01*
X689386Y404148D02*
X691386D01*
X690386Y403148D02*
Y405148D01*
X256264Y1192990D02*
X258264D01*
X257264Y1191990D02*
Y1193990D01*
X929363Y755941D02*
X931363D01*
X930363Y754941D02*
Y756941D01*
X939310Y749525D02*
X941310D01*
X940310Y748525D02*
Y750525D01*
X931115Y740998D02*
X933115D01*
X932115Y739998D02*
Y741998D01*
X248378Y1244051D02*
X250378D01*
X249378Y1243051D02*
Y1245051D01*
X693097Y1229343D02*
X695097D01*
X694097Y1228343D02*
Y1230343D01*
X697458Y1235110D02*
X699458D01*
X698458Y1234110D02*
Y1236110D01*
X697638Y1245309D02*
X699638D01*
X698638Y1244309D02*
Y1246309D01*
X672770Y1233632D02*
X674770D01*
X673770Y1232632D02*
Y1234632D01*
X656348Y1252572D02*
X658348D01*
X657348Y1251572D02*
Y1253572D01*
X647377Y1251941D02*
X649377D01*
X648377Y1250940D02*
Y1252941D01*
X691876Y1263620D02*
X693876D01*
X692876Y1262620D02*
Y1264620D01*
X703906Y1273667D02*
X705906D01*
X704906Y1272667D02*
Y1274667D01*
X728021Y1273560D02*
X730021D01*
X729021Y1272560D02*
Y1274560D01*
X728200Y1251213D02*
X730200D01*
X729200Y1250213D02*
Y1252213D01*
X682953Y1252360D02*
X684953D01*
X683953Y1251360D02*
Y1253360D01*
X728341Y1262529D02*
X730341D01*
X729341Y1261528D02*
Y1263529D01*
X757009Y1264460D02*
X759009D01*
X758009Y1263460D02*
Y1265460D01*
X737248Y1264059D02*
X739248D01*
X738248Y1263059D02*
Y1265059D01*
X468475Y77500D02*
X470475D01*
X469475Y76500D02*
Y78500D01*
X458221Y78025D02*
X460221D01*
X459221Y77025D02*
Y79026D01*
X455631Y56290D02*
X457631D01*
X456631Y55290D02*
Y57290D01*
X493337Y212137D02*
X495337D01*
X494337Y211137D02*
Y213137D01*
X467631Y195290D02*
X469631D01*
X468631Y194290D02*
Y196290D01*
X471395Y213055D02*
X473395D01*
X472395Y212055D02*
Y214055D01*
X480262Y223413D02*
X482262D01*
X481262Y222413D02*
Y224413D01*
X610631Y113290D02*
X612631D01*
X611631Y112290D02*
Y114290D01*
X594632Y129290D02*
X596632D01*
X595631Y128290D02*
Y130290D01*
X627235Y156747D02*
X629235D01*
X628235Y155747D02*
Y157747D01*
X610631Y105290D02*
X612631D01*
X611632Y104290D02*
Y106290D01*
X594632Y121290D02*
X596632D01*
X595631Y120290D02*
Y122290D01*
X626631Y97290D02*
X628631D01*
X627631Y96290D02*
Y98290D01*
X393054Y201078D02*
X395054D01*
X394054Y200078D02*
Y202078D01*
X525631Y180290D02*
X527631D01*
X526632Y179290D02*
Y181290D01*
X420004Y28917D02*
X422004D01*
X421004Y27917D02*
Y29917D01*
X630631Y190290D02*
X632631D01*
X631632Y189290D02*
Y191290D01*
X626631Y193290D02*
X628631D01*
X627631Y192290D02*
Y194290D01*
X618632Y185290D02*
X620631D01*
X619632Y184290D02*
Y186290D01*
X448643Y364132D02*
X450643D01*
X449643Y363131D02*
Y365131D01*
X43550Y1159800D02*
X45550D01*
X44550Y1158800D02*
Y1160800D01*
X687624Y99191D02*
X689623D01*
X688624Y98191D02*
Y100191D01*
X677348Y102880D02*
X679348D01*
X678348Y101880D02*
Y103880D01*
X392569Y379310D02*
X394569D01*
X393569Y378310D02*
Y380310D01*
X375329Y382413D02*
X377329D01*
X376329Y381413D02*
Y383413D01*
X405021Y404870D02*
X407021D01*
X406021Y403870D02*
Y405870D01*
X777400Y387400D02*
X779400D01*
X778400Y386400D02*
Y388400D01*
X714400Y333400D02*
X716400D01*
X715400Y332400D02*
Y334400D01*
X692400Y314400D02*
X694400D01*
X693400Y313400D02*
Y315400D01*
X690400Y335400D02*
X692400D01*
X691400Y334400D02*
Y336400D01*
X779011Y761360D02*
X781011D01*
X780011Y760360D02*
Y762360D01*
X785761Y749945D02*
X787761D01*
X786761Y748944D02*
Y750945D01*
X794011Y765360D02*
X796011D01*
X795011Y764360D02*
Y766360D01*
X762821Y1287360D02*
X764821D01*
X763821Y1286360D02*
Y1288360D01*
X777165Y303740D02*
X779165D01*
X778165Y302740D02*
Y304740D01*
X535235Y1217247D02*
X537235D01*
X536235Y1216247D02*
Y1218247D01*
X38679Y1303945D02*
X40679D01*
X39679Y1302945D02*
Y1304945D01*
X211089Y1279442D02*
X213088D01*
X212089Y1278442D02*
Y1280442D01*
X769665Y360740D02*
X771665D01*
X770665Y359740D02*
Y361740D01*
X713407Y325598D02*
X715407D01*
X714407Y324598D02*
Y326598D01*
X913115Y634998D02*
X915115D01*
X914115Y633998D02*
Y635998D01*
X892649Y933049D02*
X894649D01*
X893649Y932049D02*
Y934049D01*
X893098Y944386D02*
X895098D01*
X894098Y943385D02*
Y945386D01*
X651304Y120871D02*
X653304D01*
X652304Y119871D02*
Y121871D01*
X619988Y1229265D02*
X621988D01*
X620988Y1228265D02*
Y1230265D01*
X703096Y1157332D02*
X705097D01*
X704097Y1156332D02*
Y1158332D01*
X453235Y336747D02*
X455235D01*
X454235Y335747D02*
Y337747D01*
X855719Y1514041D02*
X857719D01*
X856719Y1513042D02*
Y1515042D01*
X703914Y1096490D02*
X705915D01*
X704914Y1095490D02*
Y1097490D01*
X397141Y204660D02*
X399141D01*
X398141Y203661D02*
Y205660D01*
X605631Y188290D02*
X607631D01*
X606631Y187290D02*
Y189290D01*
X610453Y251501D02*
X612453D01*
X611453Y250501D02*
Y252501D01*
X712664Y353240D02*
X714665D01*
X713664Y352240D02*
Y354240D01*
X725665Y360740D02*
X727664D01*
X726665Y359740D02*
Y361740D01*
X777165Y353240D02*
X779165D01*
X778165Y352240D02*
Y354240D01*
X743165Y273240D02*
X745164D01*
X744165Y272240D02*
Y274240D01*
X759750Y590000D02*
X761750D01*
X760750Y589000D02*
Y591000D01*
X759750Y566000D02*
X761750D01*
X760750Y565000D02*
Y567000D01*
X115800Y1289400D02*
X117800D01*
X116800Y1288400D02*
Y1290400D01*
X778314Y1311292D02*
X780314D01*
X779314Y1310292D02*
Y1312292D01*
X769914Y621891D02*
X771914D01*
X770914Y620891D02*
Y622891D01*
X873821Y743860D02*
X875821D01*
X874821Y742860D02*
Y744861D01*
X730821Y892360D02*
X732821D01*
X731821Y891360D02*
Y893360D01*
X873821Y749861D02*
X875821D01*
X874821Y748860D02*
Y750861D01*
X724821Y892360D02*
X726821D01*
X725821Y891360D02*
Y893360D01*
X649173Y58590D02*
X651173D01*
X650173Y57590D02*
Y59590D01*
X649173Y52590D02*
X651173D01*
X650173Y51590D02*
Y53590D01*
X780821Y1098351D02*
X782821D01*
X781821Y1097351D02*
Y1099351D01*
X638424Y75997D02*
X640424D01*
X639424Y74997D02*
Y76997D01*
X780821Y1105351D02*
X782821D01*
X781821Y1104351D02*
Y1106351D01*
X638424Y70997D02*
X640424D01*
X639424Y69997D02*
Y71997D01*
X845530Y1516106D02*
X847530D01*
X846530Y1515106D02*
Y1517106D01*
X850102Y1505338D02*
X852102D01*
X851102Y1504338D02*
Y1506338D01*
X718821Y916360D02*
X720821D01*
X719821Y915360D02*
Y917360D01*
X193057Y292747D02*
X195057D01*
X194057Y291747D02*
Y293747D01*
X724821Y916360D02*
X726821D01*
X725821Y915360D02*
Y917360D01*
X193057Y286747D02*
X195057D01*
X194057Y285747D02*
Y287747D01*
X730821Y928360D02*
X732821D01*
X731821Y927360D02*
Y929360D01*
X193057Y320747D02*
X195057D01*
X194057Y319747D02*
Y321747D01*
X736821Y928360D02*
X738821D01*
X737821Y927360D02*
Y929360D01*
X193057Y314747D02*
X195057D01*
X194057Y313747D02*
Y315747D01*
X742821Y940360D02*
X744821D01*
X743821Y939360D02*
Y941360D01*
X193057Y348747D02*
X195057D01*
X194057Y347747D02*
Y349747D01*
X748821Y940360D02*
X750821D01*
X749821Y939360D02*
Y941360D01*
X193057Y342747D02*
X195057D01*
X194057Y341747D02*
Y343747D01*
X754821Y952360D02*
X756821D01*
X755821Y951360D02*
Y953360D01*
X193057Y376747D02*
X195057D01*
X194057Y375747D02*
Y377747D01*
X760821Y952360D02*
X762821D01*
X761821Y951360D02*
Y953360D01*
X193057Y370747D02*
X195057D01*
X194057Y369747D02*
Y371747D01*
X777013Y1033158D02*
X779013D01*
X778013Y1032158D02*
Y1034158D01*
X433915Y286790D02*
X435914D01*
X434915Y285790D02*
Y287790D01*
X772064Y1038108D02*
X774063D01*
X773064Y1037108D02*
Y1039108D01*
X437415Y281290D02*
X439414D01*
X438414Y280290D02*
Y282290D01*
X450415Y286790D02*
X452415D01*
X451414Y285790D02*
Y287790D01*
X742821Y1036360D02*
X744821D01*
X743821Y1035360D02*
Y1037360D01*
X444415Y286790D02*
X446415D01*
X445415Y285790D02*
Y287790D01*
X748821Y1036360D02*
X750821D01*
X749821Y1035360D02*
Y1037360D01*
X247938Y1162807D02*
X249938D01*
X248938Y1161807D02*
Y1163807D01*
X279619Y1012132D02*
X281619D01*
X280619Y1011132D02*
Y1013131D01*
X260017Y1160537D02*
X262017D01*
X261017Y1159537D02*
Y1161537D01*
X262588Y1181425D02*
X264588D01*
X263588Y1180425D02*
Y1182425D01*
X277821Y1138360D02*
X279821D01*
X278821Y1137360D02*
Y1139360D01*
X284033Y1093036D02*
X286033D01*
X285033Y1092037D02*
Y1094036D01*
X248246Y1236073D02*
X250247D01*
X249247Y1235073D02*
Y1237073D01*
X291499Y681468D02*
X293499D01*
X292499Y680468D02*
Y682468D01*
X529821Y1294360D02*
X531821D01*
X530821Y1293360D02*
Y1295360D01*
X529821Y1306360D02*
X531821D01*
X530821Y1305360D02*
Y1307360D01*
X796915Y1500490D02*
X798914D01*
X797915Y1499490D02*
Y1501490D01*
X786915Y1496490D02*
X788914D01*
X787915Y1495490D02*
Y1497490D01*
X495076Y220264D02*
X497076D01*
X496076Y219264D02*
Y221264D01*
X679821Y1085360D02*
X681821D01*
X680821Y1084360D02*
Y1086360D01*
X523439Y773531D02*
X525439D01*
X524439Y772531D02*
Y774531D01*
X500631Y223290D02*
X502631D01*
X501632Y222290D02*
Y224290D01*
X792245Y1513820D02*
X794245D01*
X793245Y1512820D02*
Y1514820D01*
X786245Y1519820D02*
X788245D01*
X787245Y1518820D02*
Y1520820D01*
X184619Y772132D02*
X186619D01*
X185619Y771132D02*
Y773131D01*
X265325Y436136D02*
X267325D01*
X266325Y435136D02*
Y437136D01*
X295870Y1094249D02*
X297870D01*
X296870Y1093249D02*
Y1095249D01*
X523544Y1266186D02*
X525544D01*
X524544Y1265186D02*
Y1267186D01*
X426021Y1265205D02*
X428021D01*
X427021Y1264205D02*
Y1266205D01*
X552213Y1058352D02*
X554213D01*
X553213Y1057352D02*
Y1059352D01*
X564913Y1058352D02*
X566913D01*
X565913Y1057352D02*
Y1059352D01*
X577613Y1058352D02*
X579613D01*
X578613Y1057352D02*
Y1059352D01*
X679821Y1075493D02*
X681821D01*
X680821Y1074493D02*
Y1076493D01*
X669346Y385980D02*
X671346D01*
X670346Y384980D02*
Y386980D01*
X668947Y76286D02*
X670947D01*
X669947Y75286D02*
Y77286D01*
X524059Y807531D02*
X526059D01*
X525059Y806531D02*
Y808531D01*
X371321Y1348360D02*
X373321D01*
X372321Y1347360D02*
Y1349360D01*
X474321Y1324360D02*
X476321D01*
X475321Y1323360D02*
Y1325360D01*
X479321Y1324360D02*
X481321D01*
X480321Y1323360D02*
Y1325360D01*
X460821Y1336360D02*
X462821D01*
X461821Y1335360D02*
Y1337360D01*
X465821Y1336360D02*
X467821D01*
X466821Y1335360D02*
Y1337360D01*
X448321Y1324360D02*
X450321D01*
X449321Y1323360D02*
Y1325360D01*
X453321Y1324360D02*
X455321D01*
X454321Y1323360D02*
Y1325360D01*
X523301Y1536994D02*
X525301D01*
X524301Y1535994D02*
Y1537994D01*
X498319Y1532691D02*
X500319D01*
X499319Y1531691D02*
Y1533691D01*
X553821Y1270360D02*
X555821D01*
X554821Y1269360D02*
Y1271360D01*
X559821Y1304351D02*
X561821D01*
X560821Y1303351D02*
Y1305351D01*
X679673Y1428484D02*
X681673D01*
X680673Y1427484D02*
Y1429484D01*
X679484Y1452520D02*
X681484D01*
X680484Y1451520D02*
Y1453520D01*
X684434Y1447571D02*
X686434D01*
X685434Y1446571D02*
Y1448571D01*
X672673Y1428484D02*
X674673D01*
X673673Y1427484D02*
Y1429484D01*
X599282Y1430767D02*
X601282D01*
X600282Y1429767D02*
Y1431767D01*
X594332Y1435716D02*
X596332D01*
X595332Y1434716D02*
Y1436716D01*
X659214Y1398911D02*
X661214D01*
X660214Y1397910D02*
Y1399910D01*
X576821Y1434401D02*
X578821D01*
X577821Y1433401D02*
Y1435401D01*
X564600Y1428401D02*
X566600D01*
X565600Y1427401D02*
Y1429401D01*
X579821Y1425401D02*
X581821D01*
X580821Y1424401D02*
Y1426401D01*
X659214Y1405910D02*
X661214D01*
X660214Y1404910D02*
Y1406910D01*
X569821Y1434401D02*
X571821D01*
X570821Y1433401D02*
Y1435401D01*
X557600Y1428401D02*
X559600D01*
X558600Y1427401D02*
Y1429401D01*
X586821Y1425401D02*
X588821D01*
X587821Y1424401D02*
Y1426401D01*
X695685Y1426613D02*
X697685D01*
X696685Y1425613D02*
Y1427613D01*
X702685Y1426613D02*
X704685D01*
X703685Y1425613D02*
Y1427613D01*
X742992Y1445452D02*
X744992D01*
X743992Y1444451D02*
Y1446452D01*
X738042Y1450401D02*
X740042D01*
X739042Y1449401D02*
Y1451401D01*
X712092Y1457351D02*
X714092D01*
X713092Y1456351D02*
Y1458351D01*
X717042Y1452401D02*
X719042D01*
X718042Y1451401D02*
Y1453401D01*
X477042Y1438401D02*
X479042D01*
X478042Y1437401D02*
Y1439401D01*
X482042Y1438401D02*
X484042D01*
X483042Y1437401D02*
Y1439401D01*
X665442Y143356D02*
X667442D01*
X666442Y142355D02*
Y144355D01*
X553821Y1294360D02*
X555821D01*
X554821Y1293360D02*
Y1295360D01*
X553821Y1282360D02*
X555821D01*
X554821Y1281360D02*
Y1283360D01*
M02*
