G04*
G04 #@! TF.GenerationSoftware,Altium Limited,Altium Designer,26.9.1 (10)*
G04*
G04 Layer_Color=128*
G04 Board_Origin=9999995|9999995*
%FSLAX44Y44*%
%MOMM*%
G71*
G04*
G04 #@! TF.SameCoordinates,9D83EA41-EA8C-4E9F-96AF-D385C4C8DFFD*
G04*
G04*
G04 #@! TF.FilePolarity,Positive*
G04*
G01*
G75*
%ADD33R,1.1430X0.7620*%
G04:AMPARAMS|DCode=51|XSize=0.67mm|YSize=0.3mm|CornerRadius=0.075mm|HoleSize=0mm|Usage=FLASHONLY|Rotation=180.000|XOffset=0mm|YOffset=0mm|HoleType=Round|Shape=RoundedRectangle|*
%AMROUNDEDRECTD51*
21,1,0.6700,0.1500,0,0,180.0*
21,1,0.5200,0.3000,0,0,180.0*
1,1,0.1500,-0.2600,0.0750*
1,1,0.1500,0.2600,0.0750*
1,1,0.1500,0.2600,-0.0750*
1,1,0.1500,-0.2600,-0.0750*
%
%ADD51ROUNDEDRECTD51*%
G04:AMPARAMS|DCode=58|XSize=0.5001mm|YSize=0.6mm|CornerRadius=0.125mm|HoleSize=0mm|Usage=FLASHONLY|Rotation=180.000|XOffset=0mm|YOffset=0mm|HoleType=Round|Shape=RoundedRectangle|*
%AMROUNDEDRECTD58*
21,1,0.5001,0.3499,0,0,180.0*
21,1,0.2501,0.6000,0,0,180.0*
1,1,0.2501,-0.1250,0.1749*
1,1,0.2501,0.1250,0.1749*
1,1,0.2501,0.1250,-0.1749*
1,1,0.2501,-0.1250,-0.1749*
%
%ADD58ROUNDEDRECTD58*%
G04:AMPARAMS|DCode=59|XSize=0.4001mm|YSize=0.6mm|CornerRadius=0.1mm|HoleSize=0mm|Usage=FLASHONLY|Rotation=180.000|XOffset=0mm|YOffset=0mm|HoleType=Round|Shape=RoundedRectangle|*
%AMROUNDEDRECTD59*
21,1,0.4001,0.3999,0,0,180.0*
21,1,0.2000,0.6000,0,0,180.0*
1,1,0.2000,-0.1000,0.2000*
1,1,0.2000,0.1000,0.2000*
1,1,0.2000,0.1000,-0.2000*
1,1,0.2000,-0.1000,-0.2000*
%
%ADD59ROUNDEDRECTD59*%
G04:AMPARAMS|DCode=64|XSize=0.2mm|YSize=0.675mm|CornerRadius=0.01mm|HoleSize=0mm|Usage=FLASHONLY|Rotation=180.000|XOffset=0mm|YOffset=0mm|HoleType=Round|Shape=RoundedRectangle|*
%AMROUNDEDRECTD64*
21,1,0.2000,0.6550,0,0,180.0*
21,1,0.1800,0.6750,0,0,180.0*
1,1,0.0200,-0.0900,0.3275*
1,1,0.0200,0.0900,0.3275*
1,1,0.0200,0.0900,-0.3275*
1,1,0.0200,-0.0900,-0.3275*
%
%ADD64ROUNDEDRECTD64*%
G04:AMPARAMS|DCode=65|XSize=0.2776mm|YSize=0.7816mm|CornerRadius=0mm|HoleSize=0mm|Usage=FLASHONLY|Rotation=180.000|XOffset=0mm|YOffset=0mm|HoleType=Round|Shape=RoundedRectangle|*
%AMROUNDEDRECTD65*
21,1,0.2776,0.7816,0,0,180.0*
21,1,0.2776,0.7816,0,0,180.0*
1,1,0.0000,-0.1388,0.3908*
1,1,0.0000,0.1388,0.3908*
1,1,0.0000,0.1388,-0.3908*
1,1,0.0000,-0.1388,-0.3908*
%
%ADD65ROUNDEDRECTD65*%
G04:AMPARAMS|DCode=66|XSize=0.2776mm|YSize=0.7811mm|CornerRadius=0mm|HoleSize=0mm|Usage=FLASHONLY|Rotation=180.000|XOffset=0mm|YOffset=0mm|HoleType=Round|Shape=RoundedRectangle|*
%AMROUNDEDRECTD66*
21,1,0.2776,0.7811,0,0,180.0*
21,1,0.2776,0.7811,0,0,180.0*
1,1,0.0000,-0.1388,0.3905*
1,1,0.0000,0.1388,0.3905*
1,1,0.0000,0.1388,-0.3905*
1,1,0.0000,-0.1388,-0.3905*
%
%ADD66ROUNDEDRECTD66*%
G04:AMPARAMS|DCode=78|XSize=0.2mm|YSize=0.7mm|CornerRadius=0.025mm|HoleSize=0mm|Usage=FLASHONLY|Rotation=0.000|XOffset=0mm|YOffset=0mm|HoleType=Round|Shape=RoundedRectangle|*
%AMROUNDEDRECTD78*
21,1,0.2000,0.6500,0,0,0.0*
21,1,0.1500,0.7000,0,0,0.0*
1,1,0.0500,0.0750,-0.3250*
1,1,0.0500,-0.0750,-0.3250*
1,1,0.0500,-0.0750,0.3250*
1,1,0.0500,0.0750,0.3250*
%
%ADD78ROUNDEDRECTD78*%
G04:AMPARAMS|DCode=79|XSize=0.2mm|YSize=0.7mm|CornerRadius=0.025mm|HoleSize=0mm|Usage=FLASHONLY|Rotation=90.000|XOffset=0mm|YOffset=0mm|HoleType=Round|Shape=RoundedRectangle|*
%AMROUNDEDRECTD79*
21,1,0.2000,0.6500,0,0,90.0*
21,1,0.1500,0.7000,0,0,90.0*
1,1,0.0500,0.3250,0.0750*
1,1,0.0500,0.3250,-0.0750*
1,1,0.0500,-0.3250,-0.0750*
1,1,0.0500,-0.3250,0.0750*
%
%ADD79ROUNDEDRECTD79*%
G04:AMPARAMS|DCode=87|XSize=0.55mm|YSize=0.58mm|CornerRadius=0.1403mm|HoleSize=0mm|Usage=FLASHONLY|Rotation=270.000|XOffset=0mm|YOffset=0mm|HoleType=Round|Shape=RoundedRectangle|*
%AMROUNDEDRECTD87*
21,1,0.5500,0.2995,0,0,270.0*
21,1,0.2695,0.5800,0,0,270.0*
1,1,0.2805,-0.1498,-0.1348*
1,1,0.2805,-0.1498,0.1348*
1,1,0.2805,0.1498,0.1348*
1,1,0.2805,0.1498,-0.1348*
%
%ADD87ROUNDEDRECTD87*%
G04:AMPARAMS|DCode=98|XSize=0.31mm|YSize=0.34mm|CornerRadius=0.0806mm|HoleSize=0mm|Usage=FLASHONLY|Rotation=180.000|XOffset=0mm|YOffset=0mm|HoleType=Round|Shape=RoundedRectangle|*
%AMROUNDEDRECTD98*
21,1,0.3100,0.1788,0,0,180.0*
21,1,0.1488,0.3400,0,0,180.0*
1,1,0.1612,-0.0744,0.0894*
1,1,0.1612,0.0744,0.0894*
1,1,0.1612,0.0744,-0.0894*
1,1,0.1612,-0.0744,-0.0894*
%
%ADD98ROUNDEDRECTD98*%
G04:AMPARAMS|DCode=99|XSize=0.31mm|YSize=0.34mm|CornerRadius=0.0806mm|HoleSize=0mm|Usage=FLASHONLY|Rotation=90.000|XOffset=0mm|YOffset=0mm|HoleType=Round|Shape=RoundedRectangle|*
%AMROUNDEDRECTD99*
21,1,0.3100,0.1788,0,0,90.0*
21,1,0.1488,0.3400,0,0,90.0*
1,1,0.1612,0.0894,0.0744*
1,1,0.1612,0.0894,-0.0744*
1,1,0.1612,-0.0894,-0.0744*
1,1,0.1612,-0.0894,0.0744*
%
%ADD99ROUNDEDRECTD99*%
G04:AMPARAMS|DCode=100|XSize=0.55mm|YSize=0.58mm|CornerRadius=0.1403mm|HoleSize=0mm|Usage=FLASHONLY|Rotation=180.000|XOffset=0mm|YOffset=0mm|HoleType=Round|Shape=RoundedRectangle|*
%AMROUNDEDRECTD100*
21,1,0.5500,0.2995,0,0,180.0*
21,1,0.2695,0.5800,0,0,180.0*
1,1,0.2805,-0.1348,0.1498*
1,1,0.2805,0.1348,0.1498*
1,1,0.2805,0.1348,-0.1498*
1,1,0.2805,-0.1348,-0.1498*
%
%ADD100ROUNDEDRECTD100*%
G04:AMPARAMS|DCode=102|XSize=1.3mm|YSize=1.1001mm|CornerRadius=0.055mm|HoleSize=0mm|Usage=FLASHONLY|Rotation=180.000|XOffset=0mm|YOffset=0mm|HoleType=Round|Shape=RoundedRectangle|*
%AMROUNDEDRECTD102*
21,1,1.3000,0.9901,0,0,180.0*
21,1,1.1900,1.1001,0,0,180.0*
1,1,0.1100,-0.5950,0.4950*
1,1,0.1100,0.5950,0.4950*
1,1,0.1100,0.5950,-0.4950*
1,1,0.1100,-0.5950,-0.4950*
%
%ADD102ROUNDEDRECTD102*%
G04:AMPARAMS|DCode=103|XSize=0.2mm|YSize=0.675mm|CornerRadius=0.01mm|HoleSize=0mm|Usage=FLASHONLY|Rotation=90.000|XOffset=0mm|YOffset=0mm|HoleType=Round|Shape=RoundedRectangle|*
%AMROUNDEDRECTD103*
21,1,0.2000,0.6550,0,0,90.0*
21,1,0.1800,0.6750,0,0,90.0*
1,1,0.0200,0.3275,0.0900*
1,1,0.0200,0.3275,-0.0900*
1,1,0.0200,-0.3275,-0.0900*
1,1,0.0200,-0.3275,0.0900*
%
%ADD103ROUNDEDRECTD103*%
G04:AMPARAMS|DCode=104|XSize=0.2776mm|YSize=0.7811mm|CornerRadius=0mm|HoleSize=0mm|Usage=FLASHONLY|Rotation=270.000|XOffset=0mm|YOffset=0mm|HoleType=Round|Shape=RoundedRectangle|*
%AMROUNDEDRECTD104*
21,1,0.2776,0.7811,0,0,270.0*
21,1,0.2776,0.7811,0,0,270.0*
1,1,0.0000,-0.3905,-0.1388*
1,1,0.0000,-0.3905,0.1388*
1,1,0.0000,0.3905,0.1388*
1,1,0.0000,0.3905,-0.1388*
%
%ADD104ROUNDEDRECTD104*%
G04:AMPARAMS|DCode=105|XSize=0.2776mm|YSize=0.7816mm|CornerRadius=0mm|HoleSize=0mm|Usage=FLASHONLY|Rotation=270.000|XOffset=0mm|YOffset=0mm|HoleType=Round|Shape=RoundedRectangle|*
%AMROUNDEDRECTD105*
21,1,0.2776,0.7816,0,0,270.0*
21,1,0.2776,0.7816,0,0,270.0*
1,1,0.0000,-0.3908,-0.1388*
1,1,0.0000,-0.3908,0.1388*
1,1,0.0000,0.3908,0.1388*
1,1,0.0000,0.3908,-0.1388*
%
%ADD105ROUNDEDRECTD105*%
G04:AMPARAMS|DCode=106|XSize=1.11mm|YSize=1.47mm|CornerRadius=0.2498mm|HoleSize=0mm|Usage=FLASHONLY|Rotation=270.000|XOffset=0mm|YOffset=0mm|HoleType=Round|Shape=RoundedRectangle|*
%AMROUNDEDRECTD106*
21,1,1.1100,0.9705,0,0,270.0*
21,1,0.6105,1.4700,0,0,270.0*
1,1,0.4995,-0.4853,-0.3053*
1,1,0.4995,-0.4853,0.3053*
1,1,0.4995,0.4853,0.3053*
1,1,0.4995,0.4853,-0.3053*
%
%ADD106ROUNDEDRECTD106*%
G04:AMPARAMS|DCode=107|XSize=1.11mm|YSize=1.47mm|CornerRadius=0.2498mm|HoleSize=0mm|Usage=FLASHONLY|Rotation=0.000|XOffset=0mm|YOffset=0mm|HoleType=Round|Shape=RoundedRectangle|*
%AMROUNDEDRECTD107*
21,1,1.1100,0.9705,0,0,0.0*
21,1,0.6105,1.4700,0,0,0.0*
1,1,0.4995,0.3053,-0.4853*
1,1,0.4995,-0.3053,-0.4853*
1,1,0.4995,-0.3053,0.4853*
1,1,0.4995,0.3053,0.4853*
%
%ADD107ROUNDEDRECTD107*%
G04:AMPARAMS|DCode=108|XSize=0.63mm|YSize=0.58mm|CornerRadius=0.1508mm|HoleSize=0mm|Usage=FLASHONLY|Rotation=180.000|XOffset=0mm|YOffset=0mm|HoleType=Round|Shape=RoundedRectangle|*
%AMROUNDEDRECTD108*
21,1,0.6300,0.2784,0,0,180.0*
21,1,0.3284,0.5800,0,0,180.0*
1,1,0.3016,-0.1642,0.1392*
1,1,0.3016,0.1642,0.1392*
1,1,0.3016,0.1642,-0.1392*
1,1,0.3016,-0.1642,-0.1392*
%
%ADD108ROUNDEDRECTD108*%
G04:AMPARAMS|DCode=109|XSize=0.63mm|YSize=0.58mm|CornerRadius=0.1508mm|HoleSize=0mm|Usage=FLASHONLY|Rotation=90.000|XOffset=0mm|YOffset=0mm|HoleType=Round|Shape=RoundedRectangle|*
%AMROUNDEDRECTD109*
21,1,0.6300,0.2784,0,0,90.0*
21,1,0.3284,0.5800,0,0,90.0*
1,1,0.3016,0.1392,0.1642*
1,1,0.3016,0.1392,-0.1642*
1,1,0.3016,-0.1392,-0.1642*
1,1,0.3016,-0.1392,0.1642*
%
%ADD109ROUNDEDRECTD109*%
%ADD110R,1.4000X3.3000*%
G04:AMPARAMS|DCode=112|XSize=0.99mm|YSize=1.47mm|CornerRadius=0.2525mm|HoleSize=0mm|Usage=FLASHONLY|Rotation=0.000|XOffset=0mm|YOffset=0mm|HoleType=Round|Shape=RoundedRectangle|*
%AMROUNDEDRECTD112*
21,1,0.9900,0.9651,0,0,0.0*
21,1,0.4851,1.4700,0,0,0.0*
1,1,0.5049,0.2426,-0.4826*
1,1,0.5049,-0.2426,-0.4826*
1,1,0.5049,-0.2426,0.4826*
1,1,0.5049,0.2426,0.4826*
%
%ADD112ROUNDEDRECTD112*%
G04:AMPARAMS|DCode=114|XSize=0.99mm|YSize=1.47mm|CornerRadius=0.2525mm|HoleSize=0mm|Usage=FLASHONLY|Rotation=270.000|XOffset=0mm|YOffset=0mm|HoleType=Round|Shape=RoundedRectangle|*
%AMROUNDEDRECTD114*
21,1,0.9900,0.9651,0,0,270.0*
21,1,0.4851,1.4700,0,0,270.0*
1,1,0.5049,-0.4826,-0.2426*
1,1,0.5049,-0.4826,0.2426*
1,1,0.5049,0.4826,0.2426*
1,1,0.5049,0.4826,-0.2426*
%
%ADD114ROUNDEDRECTD114*%
G04:AMPARAMS|DCode=115|XSize=0.24mm|YSize=0.6mm|CornerRadius=0.03mm|HoleSize=0mm|Usage=FLASHONLY|Rotation=0.000|XOffset=0mm|YOffset=0mm|HoleType=Round|Shape=RoundedRectangle|*
%AMROUNDEDRECTD115*
21,1,0.2400,0.5400,0,0,0.0*
21,1,0.1800,0.6000,0,0,0.0*
1,1,0.0600,0.0900,-0.2700*
1,1,0.0600,-0.0900,-0.2700*
1,1,0.0600,-0.0900,0.2700*
1,1,0.0600,0.0900,0.2700*
%
%ADD115ROUNDEDRECTD115*%
G04:AMPARAMS|DCode=116|XSize=0.24mm|YSize=0.6mm|CornerRadius=0.03mm|HoleSize=0mm|Usage=FLASHONLY|Rotation=270.000|XOffset=0mm|YOffset=0mm|HoleType=Round|Shape=RoundedRectangle|*
%AMROUNDEDRECTD116*
21,1,0.2400,0.5400,0,0,270.0*
21,1,0.1800,0.6000,0,0,270.0*
1,1,0.0600,-0.2700,-0.0900*
1,1,0.0600,-0.2700,0.0900*
1,1,0.0600,0.2700,0.0900*
1,1,0.0600,0.2700,-0.0900*
%
%ADD116ROUNDEDRECTD116*%
%ADD118R,0.2600X0.2500*%
%ADD119R,0.2500X0.2600*%
%ADD315C,0.4000*%
G04:AMPARAMS|DCode=320|XSize=0.62mm|YSize=0.25mm|CornerRadius=0.0313mm|HoleSize=0mm|Usage=FLASHONLY|Rotation=0.000|XOffset=0mm|YOffset=0mm|HoleType=Round|Shape=RoundedRectangle|*
%AMROUNDEDRECTD320*
21,1,0.6200,0.1875,0,0,0.0*
21,1,0.5575,0.2500,0,0,0.0*
1,1,0.0625,0.2788,-0.0938*
1,1,0.0625,-0.2788,-0.0938*
1,1,0.0625,-0.2788,0.0938*
1,1,0.0625,0.2788,0.0938*
%
%ADD320ROUNDEDRECTD320*%
G04:AMPARAMS|DCode=323|XSize=0.25mm|YSize=0.6mm|CornerRadius=0.0625mm|HoleSize=0mm|Usage=FLASHONLY|Rotation=180.000|XOffset=0mm|YOffset=0mm|HoleType=Round|Shape=RoundedRectangle|*
%AMROUNDEDRECTD323*
21,1,0.2500,0.4750,0,0,180.0*
21,1,0.1250,0.6000,0,0,180.0*
1,1,0.1250,-0.0625,0.2375*
1,1,0.1250,0.0625,0.2375*
1,1,0.1250,0.0625,-0.2375*
1,1,0.1250,-0.0625,-0.2375*
%
%ADD323ROUNDEDRECTD323*%
G04:AMPARAMS|DCode=324|XSize=0.73mm|YSize=0.5mm|CornerRadius=0.0625mm|HoleSize=0mm|Usage=FLASHONLY|Rotation=270.000|XOffset=0mm|YOffset=0mm|HoleType=Round|Shape=RoundedRectangle|*
%AMROUNDEDRECTD324*
21,1,0.7300,0.3750,0,0,270.0*
21,1,0.6050,0.5000,0,0,270.0*
1,1,0.1250,-0.1875,-0.3025*
1,1,0.1250,-0.1875,0.3025*
1,1,0.1250,0.1875,0.3025*
1,1,0.1250,0.1875,-0.3025*
%
%ADD324ROUNDEDRECTD324*%
%ADD325R,2.2000X2.5000*%
%ADD326R,2.0700X2.0600*%
G04:AMPARAMS|DCode=327|XSize=0.2mm|YSize=0.75mm|CornerRadius=0.025mm|HoleSize=0mm|Usage=FLASHONLY|Rotation=0.000|XOffset=0mm|YOffset=0mm|HoleType=Round|Shape=RoundedRectangle|*
%AMROUNDEDRECTD327*
21,1,0.2000,0.7000,0,0,0.0*
21,1,0.1500,0.7500,0,0,0.0*
1,1,0.0500,0.0750,-0.3500*
1,1,0.0500,-0.0750,-0.3500*
1,1,0.0500,-0.0750,0.3500*
1,1,0.0500,0.0750,0.3500*
%
%ADD327ROUNDEDRECTD327*%
G04:AMPARAMS|DCode=328|XSize=0.2mm|YSize=0.75mm|CornerRadius=0.025mm|HoleSize=0mm|Usage=FLASHONLY|Rotation=270.000|XOffset=0mm|YOffset=0mm|HoleType=Round|Shape=RoundedRectangle|*
%AMROUNDEDRECTD328*
21,1,0.2000,0.7000,0,0,270.0*
21,1,0.1500,0.7500,0,0,270.0*
1,1,0.0500,-0.3500,-0.0750*
1,1,0.0500,-0.3500,0.0750*
1,1,0.0500,0.3500,0.0750*
1,1,0.0500,0.3500,-0.0750*
%
%ADD328ROUNDEDRECTD328*%
G04:AMPARAMS|DCode=330|XSize=0.2mm|YSize=0.85mm|CornerRadius=0.05mm|HoleSize=0mm|Usage=FLASHONLY|Rotation=180.000|XOffset=0mm|YOffset=0mm|HoleType=Round|Shape=RoundedRectangle|*
%AMROUNDEDRECTD330*
21,1,0.2000,0.7500,0,0,180.0*
21,1,0.1000,0.8500,0,0,180.0*
1,1,0.1000,-0.0500,0.3750*
1,1,0.1000,0.0500,0.3750*
1,1,0.1000,0.0500,-0.3750*
1,1,0.1000,-0.0500,-0.3750*
%
%ADD330ROUNDEDRECTD330*%
G04:AMPARAMS|DCode=331|XSize=0.2mm|YSize=0.85mm|CornerRadius=0.05mm|HoleSize=0mm|Usage=FLASHONLY|Rotation=270.000|XOffset=0mm|YOffset=0mm|HoleType=Round|Shape=RoundedRectangle|*
%AMROUNDEDRECTD331*
21,1,0.2000,0.7500,0,0,270.0*
21,1,0.1000,0.8500,0,0,270.0*
1,1,0.1000,-0.3750,-0.0500*
1,1,0.1000,-0.3750,0.0500*
1,1,0.1000,0.3750,0.0500*
1,1,0.1000,0.3750,-0.0500*
%
%ADD331ROUNDEDRECTD331*%
%ADD333R,0.5000X0.3000*%
%ADD334R,0.3000X0.5000*%
%ADD335R,0.7000X0.7000*%
G04:AMPARAMS|DCode=338|XSize=0.7mm|YSize=0.25mm|CornerRadius=0.0313mm|HoleSize=0mm|Usage=FLASHONLY|Rotation=270.000|XOffset=0mm|YOffset=0mm|HoleType=Round|Shape=RoundedRectangle|*
%AMROUNDEDRECTD338*
21,1,0.7000,0.1875,0,0,270.0*
21,1,0.6375,0.2500,0,0,270.0*
1,1,0.0625,-0.0938,-0.3188*
1,1,0.0625,-0.0938,0.3188*
1,1,0.0625,0.0938,0.3188*
1,1,0.0625,0.0938,-0.3188*
%
%ADD338ROUNDEDRECTD338*%
G04:AMPARAMS|DCode=340|XSize=0.8mm|YSize=0.35mm|CornerRadius=0.0438mm|HoleSize=0mm|Usage=FLASHONLY|Rotation=0.000|XOffset=0mm|YOffset=0mm|HoleType=Round|Shape=RoundedRectangle|*
%AMROUNDEDRECTD340*
21,1,0.8000,0.2625,0,0,0.0*
21,1,0.7125,0.3500,0,0,0.0*
1,1,0.0875,0.3563,-0.1313*
1,1,0.0875,-0.3563,-0.1313*
1,1,0.0875,-0.3563,0.1313*
1,1,0.0875,0.3563,0.1313*
%
%ADD340ROUNDEDRECTD340*%
G04:AMPARAMS|DCode=342|XSize=1.05mm|YSize=1.72mm|CornerRadius=0.252mm|HoleSize=0mm|Usage=FLASHONLY|Rotation=90.000|XOffset=0mm|YOffset=0mm|HoleType=Round|Shape=RoundedRectangle|*
%AMROUNDEDRECTD342*
21,1,1.0500,1.2160,0,0,90.0*
21,1,0.5460,1.7200,0,0,90.0*
1,1,0.5040,0.6080,0.2730*
1,1,0.5040,0.6080,-0.2730*
1,1,0.5040,-0.6080,-0.2730*
1,1,0.5040,-0.6080,0.2730*
%
%ADD342ROUNDEDRECTD342*%
%ADD343R,1.4000X4.2000*%
%ADD344R,0.6500X2.1500*%
%ADD345R,0.6500X1.9500*%
G04:AMPARAMS|DCode=346|XSize=1.16mm|YSize=1.82mm|CornerRadius=0.2494mm|HoleSize=0mm|Usage=FLASHONLY|Rotation=0.000|XOffset=0mm|YOffset=0mm|HoleType=Round|Shape=RoundedRectangle|*
%AMROUNDEDRECTD346*
21,1,1.1600,1.3212,0,0,0.0*
21,1,0.6612,1.8200,0,0,0.0*
1,1,0.4988,0.3306,-0.6606*
1,1,0.4988,-0.3306,-0.6606*
1,1,0.4988,-0.3306,0.6606*
1,1,0.4988,0.3306,0.6606*
%
%ADD346ROUNDEDRECTD346*%
G04:AMPARAMS|DCode=347|XSize=0.87mm|YSize=0.97mm|CornerRadius=0.2218mm|HoleSize=0mm|Usage=FLASHONLY|Rotation=90.000|XOffset=0mm|YOffset=0mm|HoleType=Round|Shape=RoundedRectangle|*
%AMROUNDEDRECTD347*
21,1,0.8700,0.5263,0,0,90.0*
21,1,0.4263,0.9700,0,0,90.0*
1,1,0.4437,0.2632,0.2132*
1,1,0.4437,0.2632,-0.2132*
1,1,0.4437,-0.2632,-0.2132*
1,1,0.4437,-0.2632,0.2132*
%
%ADD347ROUNDEDRECTD347*%
G04:AMPARAMS|DCode=348|XSize=1.1001mm|YSize=1.8999mm|CornerRadius=0.275mm|HoleSize=0mm|Usage=FLASHONLY|Rotation=180.000|XOffset=0mm|YOffset=0mm|HoleType=Round|Shape=RoundedRectangle|*
%AMROUNDEDRECTD348*
21,1,1.1001,1.3499,0,0,180.0*
21,1,0.5500,1.8999,0,0,180.0*
1,1,0.5500,-0.2750,0.6749*
1,1,0.5500,0.2750,0.6749*
1,1,0.5500,0.2750,-0.6749*
1,1,0.5500,-0.2750,-0.6749*
%
%ADD348ROUNDEDRECTD348*%
%ADD349R,3.3000X1.4000*%
G04:AMPARAMS|DCode=350|XSize=0.33mm|YSize=0.46mm|CornerRadius=0.0165mm|HoleSize=0mm|Usage=FLASHONLY|Rotation=270.000|XOffset=0mm|YOffset=0mm|HoleType=Round|Shape=RoundedRectangle|*
%AMROUNDEDRECTD350*
21,1,0.3300,0.4270,0,0,270.0*
21,1,0.2970,0.4600,0,0,270.0*
1,1,0.0330,-0.2135,-0.1485*
1,1,0.0330,-0.2135,0.1485*
1,1,0.0330,0.2135,0.1485*
1,1,0.0330,0.2135,-0.1485*
%
%ADD350ROUNDEDRECTD350*%
%ADD351R,2.5000X2.2000*%
G04:AMPARAMS|DCode=352|XSize=0.73mm|YSize=0.5mm|CornerRadius=0.0625mm|HoleSize=0mm|Usage=FLASHONLY|Rotation=0.000|XOffset=0mm|YOffset=0mm|HoleType=Round|Shape=RoundedRectangle|*
%AMROUNDEDRECTD352*
21,1,0.7300,0.3750,0,0,0.0*
21,1,0.6050,0.5000,0,0,0.0*
1,1,0.1250,0.3025,-0.1875*
1,1,0.1250,-0.3025,-0.1875*
1,1,0.1250,-0.3025,0.1875*
1,1,0.1250,0.3025,0.1875*
%
%ADD352ROUNDEDRECTD352*%
G04:AMPARAMS|DCode=356|XSize=1.16mm|YSize=1.82mm|CornerRadius=0.2494mm|HoleSize=0mm|Usage=FLASHONLY|Rotation=270.000|XOffset=0mm|YOffset=0mm|HoleType=Round|Shape=RoundedRectangle|*
%AMROUNDEDRECTD356*
21,1,1.1600,1.3212,0,0,270.0*
21,1,0.6612,1.8200,0,0,270.0*
1,1,0.4988,-0.6606,-0.3306*
1,1,0.4988,-0.6606,0.3306*
1,1,0.4988,0.6606,0.3306*
1,1,0.4988,0.6606,-0.3306*
%
%ADD356ROUNDEDRECTD356*%
G04:AMPARAMS|DCode=357|XSize=0.87mm|YSize=0.97mm|CornerRadius=0.2218mm|HoleSize=0mm|Usage=FLASHONLY|Rotation=0.000|XOffset=0mm|YOffset=0mm|HoleType=Round|Shape=RoundedRectangle|*
%AMROUNDEDRECTD357*
21,1,0.8700,0.5263,0,0,0.0*
21,1,0.4263,0.9700,0,0,0.0*
1,1,0.4437,0.2132,-0.2632*
1,1,0.4437,-0.2132,-0.2632*
1,1,0.4437,-0.2132,0.2632*
1,1,0.4437,0.2132,0.2632*
%
%ADD357ROUNDEDRECTD357*%
%ADD358R,2.0600X2.0700*%
%ADD399R,1.0160X0.7620*%
%ADD400R,1.0160X0.5080*%
%ADD401R,0.8000X1.4000*%
%ADD402R,1.5000X1.5000*%
%ADD403R,1.2000X1.2000*%
%ADD404R,1.2000X1.2000*%
%ADD405R,0.9500X0.9500*%
%ADD406R,1.2000X1.2000*%
%ADD407R,1.2000X1.2000*%
%ADD408R,1.2000X1.2000*%
%ADD409R,0.4500X0.4500*%
%ADD410R,1.4000X0.5000*%
%ADD411R,1.4000X0.6000*%
G36*
X823030Y1024030D02*
X812030D01*
X809030Y1027030D01*
Y1029030D01*
X823030Y1029030D01*
X823030Y1024030D01*
D02*
G37*
G36*
X974711Y511459D02*
X973673D01*
X972711Y512421D01*
Y518459D01*
X974711D01*
Y511459D01*
D02*
G37*
G36*
X987150Y308384D02*
Y302346D01*
X985150D01*
Y309346D01*
X986188D01*
X987150Y308384D01*
D02*
G37*
G36*
X740810Y159090D02*
X739772D01*
X738810Y160052D01*
Y166090D01*
X740810D01*
Y159090D01*
D02*
G37*
D33*
X828765Y1253009D02*
D03*
X842735D02*
D03*
X852018Y967935D02*
D03*
X838059Y967947D02*
D03*
D51*
X974809Y170190D02*
D03*
X960010Y170190D02*
D03*
X974809Y165190D02*
D03*
X960010Y160190D02*
D03*
X974809D02*
D03*
Y196190D02*
D03*
X960010Y196190D02*
D03*
X974809Y191190D02*
D03*
X960010Y186190D02*
D03*
X974809D02*
D03*
D58*
X779065Y903156D02*
D03*
X794066Y921154D02*
D03*
Y903156D02*
D03*
X779065Y921154D02*
D03*
D59*
X786566Y903156D02*
D03*
Y921154D02*
D03*
D64*
X599791Y1532542D02*
D03*
Y1523792D02*
D03*
X604791Y1532542D02*
D03*
Y1523792D02*
D03*
X614791D02*
D03*
X614791Y1532542D02*
D03*
X619791D02*
D03*
Y1523792D02*
D03*
X543591Y1442537D02*
D03*
Y1433787D02*
D03*
X538591Y1442537D02*
D03*
Y1433787D02*
D03*
X523591D02*
D03*
Y1442537D02*
D03*
X528591Y1433787D02*
D03*
Y1442537D02*
D03*
X462390D02*
D03*
Y1433787D02*
D03*
X447390D02*
D03*
Y1442537D02*
D03*
X467390D02*
D03*
Y1433787D02*
D03*
X452390Y1442537D02*
D03*
Y1433787D02*
D03*
X391190Y1442537D02*
D03*
Y1433787D02*
D03*
X376190Y1433787D02*
D03*
X376190Y1442537D02*
D03*
X386190Y1433787D02*
D03*
Y1442537D02*
D03*
X371190Y1433787D02*
D03*
Y1442537D02*
D03*
X452391Y1523792D02*
D03*
Y1532542D02*
D03*
X447391D02*
D03*
Y1523792D02*
D03*
X467391D02*
D03*
X467391Y1532542D02*
D03*
X462391D02*
D03*
X462391Y1523792D02*
D03*
X376190D02*
D03*
Y1532542D02*
D03*
X371190Y1523792D02*
D03*
Y1532542D02*
D03*
X391190Y1523792D02*
D03*
Y1532542D02*
D03*
X386190Y1523792D02*
D03*
Y1532542D02*
D03*
X314991Y1523792D02*
D03*
Y1532542D02*
D03*
X309991D02*
D03*
Y1523792D02*
D03*
X299991Y1532542D02*
D03*
Y1523792D02*
D03*
X294991Y1532542D02*
D03*
Y1523792D02*
D03*
X591165Y401625D02*
D03*
Y392875D02*
D03*
X596165Y401625D02*
D03*
Y392875D02*
D03*
X611165D02*
D03*
Y401625D02*
D03*
X606165D02*
D03*
Y392875D02*
D03*
X529965Y401628D02*
D03*
Y392878D02*
D03*
X534965Y401628D02*
D03*
Y392878D02*
D03*
X519965Y401628D02*
D03*
Y392878D02*
D03*
X514965Y401628D02*
D03*
Y392878D02*
D03*
X438665Y392875D02*
D03*
Y401625D02*
D03*
X443665D02*
D03*
Y392875D02*
D03*
X453665Y401625D02*
D03*
Y392875D02*
D03*
X458665Y401625D02*
D03*
Y392875D02*
D03*
X323065Y402490D02*
D03*
Y393740D02*
D03*
X318065Y402490D02*
D03*
Y393740D02*
D03*
X338065Y402490D02*
D03*
Y393740D02*
D03*
X333065Y402490D02*
D03*
Y393740D02*
D03*
X410242Y973907D02*
D03*
Y965157D02*
D03*
X390242Y973907D02*
D03*
Y965157D02*
D03*
X405242Y973907D02*
D03*
Y965157D02*
D03*
X395242Y973907D02*
D03*
Y965157D02*
D03*
X359442D02*
D03*
Y973907D02*
D03*
X354442Y965157D02*
D03*
Y973907D02*
D03*
X344442Y965157D02*
D03*
Y973907D02*
D03*
X339442Y965157D02*
D03*
Y973907D02*
D03*
X453741Y1055162D02*
D03*
Y1063912D02*
D03*
X458742D02*
D03*
Y1055162D02*
D03*
X468742Y1063912D02*
D03*
Y1055162D02*
D03*
X473741Y1063912D02*
D03*
Y1055162D02*
D03*
X407942D02*
D03*
Y1063912D02*
D03*
X422942Y1055162D02*
D03*
Y1063912D02*
D03*
X402942Y1055162D02*
D03*
Y1063912D02*
D03*
X417942Y1055162D02*
D03*
Y1063912D02*
D03*
X354441D02*
D03*
Y1055162D02*
D03*
X344442Y1063912D02*
D03*
X344441Y1055162D02*
D03*
X339441Y1063912D02*
D03*
Y1055162D02*
D03*
X359441D02*
D03*
Y1063912D02*
D03*
X254165Y566752D02*
D03*
Y558002D02*
D03*
X259165Y566752D02*
D03*
Y558002D02*
D03*
X269165Y566752D02*
D03*
Y558002D02*
D03*
X274165Y566752D02*
D03*
Y558002D02*
D03*
X221515Y393737D02*
D03*
Y402487D02*
D03*
X231515Y393737D02*
D03*
Y402487D02*
D03*
X216515Y393737D02*
D03*
Y402487D02*
D03*
X236515D02*
D03*
Y393737D02*
D03*
X305415Y558002D02*
D03*
Y566752D02*
D03*
X310415Y558002D02*
D03*
Y566752D02*
D03*
X320415Y558002D02*
D03*
Y566752D02*
D03*
X325415Y558002D02*
D03*
Y566752D02*
D03*
X272315Y402487D02*
D03*
Y393737D02*
D03*
X287315D02*
D03*
Y402487D02*
D03*
X267315Y393737D02*
D03*
Y402487D02*
D03*
X282315D02*
D03*
Y393737D02*
D03*
D65*
X609791Y1531397D02*
D03*
X533591Y1434932D02*
D03*
X457390D02*
D03*
X381190D02*
D03*
X457391Y1524937D02*
D03*
X381190Y1524937D02*
D03*
X304991D02*
D03*
X601165Y394020D02*
D03*
X524965Y394023D02*
D03*
X448665Y394020D02*
D03*
X328065Y394885D02*
D03*
X400242Y966302D02*
D03*
X349442D02*
D03*
X463741Y1056307D02*
D03*
X412942D02*
D03*
X349441Y1056307D02*
D03*
X264165Y559147D02*
D03*
X226515Y394882D02*
D03*
X315415Y559147D02*
D03*
X277315Y394882D02*
D03*
D66*
X609791Y1524930D02*
D03*
X533591Y1441399D02*
D03*
X457390D02*
D03*
X381190D02*
D03*
X457391Y1531404D02*
D03*
X381190D02*
D03*
X304991D02*
D03*
X601165Y400487D02*
D03*
X524965Y400490D02*
D03*
X448665Y400487D02*
D03*
X328065Y401352D02*
D03*
X400242Y972769D02*
D03*
X349442D02*
D03*
X463741Y1062774D02*
D03*
X412942D02*
D03*
X349441D02*
D03*
X264165Y565614D02*
D03*
X226515Y401349D02*
D03*
X315415Y565614D02*
D03*
X277315Y401349D02*
D03*
D78*
X317000Y283700D02*
D03*
X313000D02*
D03*
X309000D02*
D03*
X305000D02*
D03*
X301000D02*
D03*
Y297700D02*
D03*
X305000D02*
D03*
X309000D02*
D03*
X313000D02*
D03*
X317000D02*
D03*
X981711Y495959D02*
D03*
X973711D02*
D03*
X977711D02*
D03*
X985711D02*
D03*
Y514959D02*
D03*
X981711Y514959D02*
D03*
X977711Y514959D02*
D03*
X974150Y324846D02*
D03*
X978150D02*
D03*
X986150D02*
D03*
X982150D02*
D03*
X974150Y305846D02*
D03*
X978150D02*
D03*
X982150D02*
D03*
X739810Y143590D02*
D03*
X743810Y143590D02*
D03*
X747810Y143590D02*
D03*
X751810Y143590D02*
D03*
X751810Y162590D02*
D03*
X747810Y162590D02*
D03*
X743810Y162590D02*
D03*
D79*
X317500Y290700D02*
D03*
X300500D02*
D03*
X970211Y507459D02*
D03*
X989211Y507459D02*
D03*
X970211Y503459D02*
D03*
X989211Y503459D02*
D03*
X989650Y313346D02*
D03*
X970650Y313346D02*
D03*
Y317346D02*
D03*
X989650Y317346D02*
D03*
X736310Y155090D02*
D03*
X755310Y151090D02*
D03*
X736310D02*
D03*
X755310Y155090D02*
D03*
D87*
X860500Y1404500D02*
D03*
Y1414000D02*
D03*
X429228Y830409D02*
D03*
Y839909D02*
D03*
X786566Y931405D02*
D03*
X786566Y940905D02*
D03*
X636650Y226250D02*
D03*
Y235750D02*
D03*
X626650Y226250D02*
D03*
Y235750D02*
D03*
X646650Y226250D02*
D03*
Y235750D02*
D03*
X612650Y226250D02*
D03*
Y235750D02*
D03*
X370391Y70480D02*
D03*
Y79980D02*
D03*
X360391Y70480D02*
D03*
Y79980D02*
D03*
X320391Y70480D02*
D03*
Y79980D02*
D03*
X380391Y70480D02*
D03*
X380391Y79980D02*
D03*
X350391D02*
D03*
Y70480D02*
D03*
X340392D02*
D03*
Y79980D02*
D03*
X330391D02*
D03*
Y70480D02*
D03*
D98*
X717310Y81590D02*
D03*
X711810D02*
D03*
X717310Y69590D02*
D03*
X711810D02*
D03*
X728560Y48915D02*
D03*
X734060D02*
D03*
X666310Y69630D02*
D03*
X660810D02*
D03*
X728560Y54915D02*
D03*
X734060Y54915D02*
D03*
X668810Y43840D02*
D03*
X674310D02*
D03*
X666310Y79590D02*
D03*
X660810D02*
D03*
X900030Y888970D02*
D03*
X894530D02*
D03*
X907030Y894970D02*
D03*
X912530D02*
D03*
X774165Y297740D02*
D03*
X768664D02*
D03*
X699165Y300740D02*
D03*
X704665D02*
D03*
X774165Y314740D02*
D03*
X768664D02*
D03*
X374203Y337551D02*
D03*
X368703D02*
D03*
X459799Y295320D02*
D03*
X465299D02*
D03*
X459799Y303320D02*
D03*
X465299D02*
D03*
X459799Y321320D02*
D03*
X465299D02*
D03*
X381214Y323490D02*
D03*
X386715D02*
D03*
X381214Y316490D02*
D03*
X386715D02*
D03*
X381214Y337490D02*
D03*
X386715D02*
D03*
X381214Y330490D02*
D03*
X386715D02*
D03*
X444920Y352179D02*
D03*
X439420D02*
D03*
X381115Y351490D02*
D03*
X386614D02*
D03*
X459799Y327320D02*
D03*
X465299D02*
D03*
X900030Y894970D02*
D03*
X894530D02*
D03*
X813530Y850470D02*
D03*
X808030D02*
D03*
X813530Y857470D02*
D03*
X808030D02*
D03*
X812740Y887120D02*
D03*
X818240D02*
D03*
X812740Y893120D02*
D03*
X818240D02*
D03*
X459799Y333320D02*
D03*
X465299D02*
D03*
X818240Y907120D02*
D03*
X812740D02*
D03*
X459799Y340320D02*
D03*
X465299D02*
D03*
X768664Y303740D02*
D03*
X774165D02*
D03*
X812740Y913120D02*
D03*
X818240D02*
D03*
X812740Y901120D02*
D03*
X818240D02*
D03*
X812740Y919120D02*
D03*
X818240D02*
D03*
X540062Y1131010D02*
D03*
X534562D02*
D03*
X633527Y1140241D02*
D03*
X639027D02*
D03*
X540062Y1153010D02*
D03*
X534562D02*
D03*
X785530Y1038280D02*
D03*
X791030D02*
D03*
X844280Y1053000D02*
D03*
X849780D02*
D03*
X947410Y173440D02*
D03*
X941909Y173440D02*
D03*
X429265Y822998D02*
D03*
X434765D02*
D03*
X488379Y906159D02*
D03*
X482879D02*
D03*
X488379Y899159D02*
D03*
X482879D02*
D03*
X392978Y860159D02*
D03*
X387478D02*
D03*
X392978Y916159D02*
D03*
X387478D02*
D03*
X982980Y527706D02*
D03*
X977480Y527706D02*
D03*
X344497Y868309D02*
D03*
X338997Y868309D02*
D03*
X344497Y861309D02*
D03*
X338997D02*
D03*
X338997Y854309D02*
D03*
X344497D02*
D03*
X814510Y969470D02*
D03*
X809010D02*
D03*
X789316Y892647D02*
D03*
X783816D02*
D03*
X387478Y909159D02*
D03*
X392978D02*
D03*
X387478Y902159D02*
D03*
X392978D02*
D03*
X387478Y867159D02*
D03*
X392978D02*
D03*
X387478Y874159D02*
D03*
X392978D02*
D03*
X387478Y881159D02*
D03*
X392978D02*
D03*
X387478Y888159D02*
D03*
X392978D02*
D03*
X387478Y895159D02*
D03*
X392978D02*
D03*
X879030Y984190D02*
D03*
X873530D02*
D03*
X587631Y229744D02*
D03*
X593131D02*
D03*
X581632D02*
D03*
X576132D02*
D03*
X494860Y123490D02*
D03*
X489360D02*
D03*
X494860Y130490D02*
D03*
X489360D02*
D03*
X494860Y160490D02*
D03*
X489360D02*
D03*
X494860Y151490D02*
D03*
X489360D02*
D03*
X494860Y137490D02*
D03*
X489360D02*
D03*
X494860Y144490D02*
D03*
X489360D02*
D03*
X539882Y229751D02*
D03*
X534381D02*
D03*
X545881D02*
D03*
X551381D02*
D03*
X972900Y295000D02*
D03*
X967400D02*
D03*
X985000Y294750D02*
D03*
X979500D02*
D03*
X752062Y59700D02*
D03*
X746562D02*
D03*
X752063Y85590D02*
D03*
X746563D02*
D03*
X286827Y964510D02*
D03*
X281327D02*
D03*
X152753Y132343D02*
D03*
X158253D02*
D03*
X152753Y125343D02*
D03*
X158253D02*
D03*
X326000Y273072D02*
D03*
X331500D02*
D03*
X374000Y888159D02*
D03*
X379500D02*
D03*
X489360Y116490D02*
D03*
X494860Y116490D02*
D03*
X489360Y167490D02*
D03*
X494860D02*
D03*
X713664Y349740D02*
D03*
X719165D02*
D03*
X301327Y950509D02*
D03*
X295827D02*
D03*
X286827Y957509D02*
D03*
X281327D02*
D03*
X232500Y137600D02*
D03*
X227000D02*
D03*
X300000Y180100D02*
D03*
X305500D02*
D03*
X300000Y173100D02*
D03*
X305500D02*
D03*
Y194100D02*
D03*
X300000D02*
D03*
X305500Y187100D02*
D03*
X300000D02*
D03*
X488378Y876492D02*
D03*
X482878D02*
D03*
X488378Y883433D02*
D03*
X482878D02*
D03*
X111670Y346511D02*
D03*
X117170D02*
D03*
X111670Y364010D02*
D03*
X117170D02*
D03*
X111670Y144010D02*
D03*
X117170D02*
D03*
X111670Y126510D02*
D03*
X117170D02*
D03*
X317000Y315950D02*
D03*
X322500D02*
D03*
X319500Y273072D02*
D03*
X314000D02*
D03*
Y266072D02*
D03*
X319500D02*
D03*
X317000Y308950D02*
D03*
X322500D02*
D03*
X960750Y292000D02*
D03*
X955250D02*
D03*
X216017Y382429D02*
D03*
X221517D02*
D03*
X853450Y685750D02*
D03*
X847950D02*
D03*
X853450Y694750D02*
D03*
X847950D02*
D03*
X854450Y514750D02*
D03*
X848950D02*
D03*
X841450D02*
D03*
X835950D02*
D03*
X841050Y1422200D02*
D03*
X846550D02*
D03*
X295827Y957509D02*
D03*
X301327D02*
D03*
X295827Y964510D02*
D03*
X301327D02*
D03*
X238550Y106000D02*
D03*
X244050D02*
D03*
D99*
X260300Y111500D02*
D03*
Y106000D02*
D03*
X888280Y889000D02*
D03*
Y894500D02*
D03*
X720540Y106630D02*
D03*
Y112130D02*
D03*
X726040Y91130D02*
D03*
Y85630D02*
D03*
X714810Y46638D02*
D03*
Y41138D02*
D03*
X720810Y46638D02*
D03*
Y41138D02*
D03*
X700810Y57590D02*
D03*
Y63090D02*
D03*
X888280Y916720D02*
D03*
Y922220D02*
D03*
Y910220D02*
D03*
Y904720D02*
D03*
X895030Y904720D02*
D03*
Y910220D02*
D03*
X912130Y877220D02*
D03*
Y882720D02*
D03*
X899026Y877220D02*
D03*
Y882720D02*
D03*
X740415Y297740D02*
D03*
Y303240D02*
D03*
X750915Y297740D02*
D03*
Y303240D02*
D03*
X728415Y297740D02*
D03*
Y303240D02*
D03*
X746164Y360740D02*
D03*
Y355240D02*
D03*
X757165Y360740D02*
D03*
Y355240D02*
D03*
X720415Y297740D02*
D03*
Y303240D02*
D03*
X775164Y355240D02*
D03*
Y360740D02*
D03*
X405915Y361190D02*
D03*
Y355690D02*
D03*
X398914Y361190D02*
D03*
Y355690D02*
D03*
X414865Y361240D02*
D03*
Y355740D02*
D03*
X401440Y299840D02*
D03*
Y305340D02*
D03*
X853030Y933220D02*
D03*
Y927720D02*
D03*
X859530Y933220D02*
D03*
Y927720D02*
D03*
X813030D02*
D03*
Y933220D02*
D03*
X833530D02*
D03*
Y927720D02*
D03*
X846530Y933220D02*
D03*
Y927720D02*
D03*
X872530Y933220D02*
D03*
Y927720D02*
D03*
X879030Y933220D02*
D03*
Y927720D02*
D03*
X866030Y933220D02*
D03*
Y927720D02*
D03*
X767165Y360740D02*
D03*
Y355240D02*
D03*
X892526Y877220D02*
D03*
Y882720D02*
D03*
X905526Y877220D02*
D03*
Y882720D02*
D03*
X806530Y927720D02*
D03*
Y933220D02*
D03*
X947410Y194440D02*
D03*
Y199940D02*
D03*
X437228Y840909D02*
D03*
Y835409D02*
D03*
X453228Y840909D02*
D03*
Y835409D02*
D03*
X403228Y840909D02*
D03*
Y835409D02*
D03*
X409228Y840909D02*
D03*
Y835409D02*
D03*
X419228Y929159D02*
D03*
Y934659D02*
D03*
X412228Y929159D02*
D03*
Y934659D02*
D03*
X405228Y929159D02*
D03*
Y934659D02*
D03*
X421228Y840909D02*
D03*
Y835409D02*
D03*
X415228Y840909D02*
D03*
Y835409D02*
D03*
X989980Y539706D02*
D03*
X989980Y545206D02*
D03*
X426228Y929159D02*
D03*
Y934659D02*
D03*
X436228Y929159D02*
D03*
Y934659D02*
D03*
X888275Y934167D02*
D03*
Y928667D02*
D03*
Y940472D02*
D03*
Y945972D02*
D03*
X720721Y1160310D02*
D03*
Y1165810D02*
D03*
X695321Y1175760D02*
D03*
Y1181260D02*
D03*
X669921Y1150360D02*
D03*
Y1155860D02*
D03*
X644521Y1175760D02*
D03*
Y1181260D02*
D03*
Y1150360D02*
D03*
Y1155860D02*
D03*
X947410Y156440D02*
D03*
X947410Y161940D02*
D03*
Y182440D02*
D03*
Y187940D02*
D03*
X351747Y864059D02*
D03*
Y858559D02*
D03*
X970480Y527706D02*
D03*
Y533206D02*
D03*
X840030Y988740D02*
D03*
Y994240D02*
D03*
X846530Y988740D02*
D03*
Y994240D02*
D03*
X853030Y988740D02*
D03*
Y994240D02*
D03*
X895030Y928670D02*
D03*
Y934170D02*
D03*
X827030Y994240D02*
D03*
Y988740D02*
D03*
X895030Y916720D02*
D03*
Y922220D02*
D03*
X833530Y994240D02*
D03*
Y988740D02*
D03*
X902030Y922220D02*
D03*
Y916720D02*
D03*
X909030D02*
D03*
Y922220D02*
D03*
X776566Y938835D02*
D03*
Y933335D02*
D03*
X213000Y137600D02*
D03*
Y143100D02*
D03*
X866030Y988740D02*
D03*
Y994240D02*
D03*
X882840Y953720D02*
D03*
Y959220D02*
D03*
X859530Y988740D02*
D03*
Y994240D02*
D03*
X814260Y980700D02*
D03*
Y975200D02*
D03*
Y961200D02*
D03*
Y955700D02*
D03*
X807260Y980700D02*
D03*
Y975200D02*
D03*
X827030Y1005970D02*
D03*
Y1000470D02*
D03*
X833530Y1005970D02*
D03*
Y1000470D02*
D03*
X819530Y927720D02*
D03*
Y933220D02*
D03*
X827030D02*
D03*
Y927720D02*
D03*
X840030Y933220D02*
D03*
Y927720D02*
D03*
X733210Y172930D02*
D03*
Y178430D02*
D03*
X746810Y172930D02*
D03*
Y178430D02*
D03*
X753279Y185774D02*
D03*
Y191274D02*
D03*
X662500Y150000D02*
D03*
Y155500D02*
D03*
X739560Y178430D02*
D03*
X739560Y172930D02*
D03*
X753160D02*
D03*
Y178430D02*
D03*
X955000Y303500D02*
D03*
Y298000D02*
D03*
X789476Y62744D02*
D03*
Y57244D02*
D03*
X721000Y137750D02*
D03*
Y132250D02*
D03*
X747369Y630789D02*
D03*
Y625289D02*
D03*
X146000Y304100D02*
D03*
Y309600D02*
D03*
X139000Y304100D02*
D03*
Y309600D02*
D03*
X861750Y1223750D02*
D03*
Y1229250D02*
D03*
X867250Y1290750D02*
D03*
Y1285250D02*
D03*
X751691Y1275010D02*
D03*
Y1280510D02*
D03*
X643690Y1268280D02*
D03*
Y1262780D02*
D03*
X289692Y1101990D02*
D03*
Y1107490D02*
D03*
X296821Y1060360D02*
D03*
Y1065860D02*
D03*
X249821Y1101989D02*
D03*
Y1107489D02*
D03*
X558992Y1052777D02*
D03*
Y1058277D02*
D03*
X584392Y1052777D02*
D03*
Y1058277D02*
D03*
X571692Y1052777D02*
D03*
Y1058277D02*
D03*
X751691Y1286510D02*
D03*
Y1292010D02*
D03*
X643691Y1256560D02*
D03*
Y1251060D02*
D03*
X289692Y1113990D02*
D03*
Y1119490D02*
D03*
X296821Y1072360D02*
D03*
Y1077860D02*
D03*
X249821Y1113989D02*
D03*
Y1119489D02*
D03*
X303000Y308950D02*
D03*
X303000Y314450D02*
D03*
X558992Y1064777D02*
D03*
Y1070277D02*
D03*
X584392Y1064777D02*
D03*
Y1070277D02*
D03*
X571692Y1064777D02*
D03*
Y1070277D02*
D03*
X760693Y1286510D02*
D03*
Y1292010D02*
D03*
X670692Y1262777D02*
D03*
Y1268277D02*
D03*
X679692Y1262777D02*
D03*
Y1268277D02*
D03*
X724692Y1262727D02*
D03*
Y1268227D02*
D03*
X715692Y1262727D02*
D03*
Y1268227D02*
D03*
X697692Y1262727D02*
D03*
Y1268227D02*
D03*
X652692Y1262777D02*
D03*
Y1268277D02*
D03*
X688692Y1262777D02*
D03*
Y1268277D02*
D03*
X706692Y1262727D02*
D03*
Y1268227D02*
D03*
X751692Y1262727D02*
D03*
Y1268227D02*
D03*
X733692Y1262677D02*
D03*
Y1268177D02*
D03*
X661692Y1262777D02*
D03*
Y1268277D02*
D03*
X742692Y1262677D02*
D03*
Y1268177D02*
D03*
X760693Y1280510D02*
D03*
Y1275010D02*
D03*
X670692Y1256827D02*
D03*
Y1251327D02*
D03*
X679692Y1256827D02*
D03*
Y1251327D02*
D03*
X724692Y1256777D02*
D03*
Y1251277D02*
D03*
X715692Y1256777D02*
D03*
Y1251277D02*
D03*
X697692Y1256777D02*
D03*
Y1251277D02*
D03*
X652692Y1256827D02*
D03*
Y1251327D02*
D03*
X688692Y1256827D02*
D03*
Y1251327D02*
D03*
X706692Y1256777D02*
D03*
Y1251277D02*
D03*
X751692Y1256777D02*
D03*
Y1251277D02*
D03*
X733692Y1256727D02*
D03*
Y1251227D02*
D03*
X661692Y1256827D02*
D03*
Y1251327D02*
D03*
X742692Y1256727D02*
D03*
Y1251227D02*
D03*
X280692Y1101990D02*
D03*
Y1107490D02*
D03*
Y1113990D02*
D03*
Y1119490D02*
D03*
X249821Y1132989D02*
D03*
Y1127489D02*
D03*
X870250Y1261750D02*
D03*
Y1256250D02*
D03*
X867250Y1278250D02*
D03*
Y1272750D02*
D03*
X842750Y1282250D02*
D03*
Y1276750D02*
D03*
X836250Y1282250D02*
D03*
Y1276750D02*
D03*
X829750Y1282250D02*
D03*
Y1276750D02*
D03*
X800250Y1248250D02*
D03*
Y1242750D02*
D03*
X859530Y946470D02*
D03*
Y940970D02*
D03*
X823250Y1282250D02*
D03*
Y1276750D02*
D03*
X816750Y1282250D02*
D03*
Y1276750D02*
D03*
X810250Y1282250D02*
D03*
Y1276750D02*
D03*
X870250Y1249750D02*
D03*
Y1244250D02*
D03*
X855250Y1229250D02*
D03*
Y1223750D02*
D03*
X848750Y1229250D02*
D03*
Y1223750D02*
D03*
X842250Y1229250D02*
D03*
Y1223750D02*
D03*
X835750Y1229250D02*
D03*
Y1223750D02*
D03*
X829250Y1229250D02*
D03*
Y1223750D02*
D03*
X822750Y1229250D02*
D03*
Y1223750D02*
D03*
X816250Y1229250D02*
D03*
Y1223750D02*
D03*
X733214Y191269D02*
D03*
Y185769D02*
D03*
X257000Y304100D02*
D03*
Y309600D02*
D03*
X139000Y143100D02*
D03*
Y137600D02*
D03*
X213000Y125600D02*
D03*
Y131100D02*
D03*
X866030Y946470D02*
D03*
Y940970D02*
D03*
X541092Y972282D02*
D03*
Y966782D02*
D03*
X558992Y972282D02*
D03*
Y966782D02*
D03*
X276000Y143100D02*
D03*
Y137600D02*
D03*
X269000Y143100D02*
D03*
Y137600D02*
D03*
X283000Y143100D02*
D03*
Y137600D02*
D03*
X262000Y143100D02*
D03*
Y137600D02*
D03*
X290000D02*
D03*
Y143100D02*
D03*
X719165Y360740D02*
D03*
Y355240D02*
D03*
X730164Y360740D02*
D03*
Y355240D02*
D03*
X876340Y953720D02*
D03*
Y959220D02*
D03*
X866030Y999470D02*
D03*
Y1004970D02*
D03*
X961000Y298000D02*
D03*
Y303500D02*
D03*
X982980Y545206D02*
D03*
Y539706D02*
D03*
X255000Y137600D02*
D03*
Y143100D02*
D03*
X248000Y137600D02*
D03*
Y143100D02*
D03*
X220000Y137600D02*
D03*
Y143100D02*
D03*
X132000Y304100D02*
D03*
Y309600D02*
D03*
Y143100D02*
D03*
Y137600D02*
D03*
X250000Y304100D02*
D03*
Y309600D02*
D03*
X184000D02*
D03*
Y304100D02*
D03*
X177000Y309600D02*
D03*
Y304100D02*
D03*
X222000Y309600D02*
D03*
Y304100D02*
D03*
X214896Y309771D02*
D03*
Y304271D02*
D03*
X163000Y309600D02*
D03*
Y304100D02*
D03*
X170000Y309600D02*
D03*
Y304100D02*
D03*
X248000Y125600D02*
D03*
Y131100D02*
D03*
X241000Y143100D02*
D03*
Y137600D02*
D03*
X676250Y356225D02*
D03*
X676250Y350725D02*
D03*
X669250D02*
D03*
Y356225D02*
D03*
X469228Y840909D02*
D03*
Y835409D02*
D03*
X462228Y840909D02*
D03*
Y835409D02*
D03*
X327500Y279950D02*
D03*
Y285450D02*
D03*
Y300450D02*
D03*
Y294950D02*
D03*
X184000Y143100D02*
D03*
Y137600D02*
D03*
X206000D02*
D03*
Y143100D02*
D03*
X334500Y279950D02*
D03*
Y285450D02*
D03*
X296000Y308950D02*
D03*
Y314450D02*
D03*
X299000Y273700D02*
D03*
Y268200D02*
D03*
X306000Y273700D02*
D03*
Y268200D02*
D03*
X271000Y304100D02*
D03*
Y309600D02*
D03*
X310000Y308950D02*
D03*
Y314450D02*
D03*
X206000Y131100D02*
D03*
Y125600D02*
D03*
X177000Y137600D02*
D03*
Y143100D02*
D03*
X170000Y137600D02*
D03*
Y143100D02*
D03*
X264000Y309600D02*
D03*
Y304100D02*
D03*
X768566Y938835D02*
D03*
Y933335D02*
D03*
X760566D02*
D03*
Y938835D02*
D03*
X982980Y551206D02*
D03*
Y556707D02*
D03*
X869030Y814470D02*
D03*
Y819970D02*
D03*
Y808470D02*
D03*
Y802970D02*
D03*
X453742Y1073922D02*
D03*
Y1079422D02*
D03*
X272442Y375351D02*
D03*
Y380851D02*
D03*
X111670Y358012D02*
D03*
Y352511D02*
D03*
X847800Y1409950D02*
D03*
Y1415450D02*
D03*
X810000Y1415500D02*
D03*
Y1410000D02*
D03*
X832300Y1415450D02*
D03*
Y1409950D02*
D03*
X902030Y928670D02*
D03*
Y934170D02*
D03*
X839800Y1415450D02*
D03*
Y1409950D02*
D03*
X910050Y999200D02*
D03*
Y993700D02*
D03*
X909030Y934170D02*
D03*
Y928670D02*
D03*
D100*
X701810Y111340D02*
D03*
X711310D02*
D03*
X424536Y296858D02*
D03*
X415036D02*
D03*
X899430Y844670D02*
D03*
X908930D02*
D03*
X899430Y855670D02*
D03*
X908930D02*
D03*
X871950Y685750D02*
D03*
X862450D02*
D03*
X871950Y514750D02*
D03*
X862450D02*
D03*
X860550Y1394000D02*
D03*
X851050D02*
D03*
D102*
X596383Y240745D02*
D03*
X573380Y258743D02*
D03*
X573380Y240745D02*
D03*
X596383Y258743D02*
D03*
D103*
X648656Y1435151D02*
D03*
X639906D02*
D03*
Y1440151D02*
D03*
X648656D02*
D03*
Y1420151D02*
D03*
X639906D02*
D03*
X648656Y1425151D02*
D03*
X639906Y1425151D02*
D03*
D104*
X641044Y1430151D02*
D03*
D105*
X647511D02*
D03*
D106*
X895800Y1325000D02*
D03*
Y1342000D02*
D03*
X983360Y397250D02*
D03*
Y380250D02*
D03*
X983360Y360250D02*
D03*
Y343250D02*
D03*
X389228Y927659D02*
D03*
Y944659D02*
D03*
X983360Y416250D02*
D03*
X983360Y433250D02*
D03*
X983360Y453250D02*
D03*
Y470250D02*
D03*
X221892Y1047277D02*
D03*
Y1030277D02*
D03*
X221892Y1014277D02*
D03*
Y997277D02*
D03*
X895050Y994950D02*
D03*
Y977950D02*
D03*
X667680Y125210D02*
D03*
X667680Y108210D02*
D03*
X855800Y1364000D02*
D03*
Y1381000D02*
D03*
X875800Y1325000D02*
D03*
Y1342000D02*
D03*
Y1364000D02*
D03*
Y1381000D02*
D03*
X895800Y1364000D02*
D03*
Y1381000D02*
D03*
D107*
X753011Y122360D02*
D03*
X736011D02*
D03*
X203892Y979777D02*
D03*
X220892D02*
D03*
X704040Y29130D02*
D03*
X721040D02*
D03*
X776963Y373571D02*
D03*
X793962D02*
D03*
D108*
X894830Y822670D02*
D03*
X903530D02*
D03*
X899830Y833670D02*
D03*
X908530D02*
D03*
X911030Y902970D02*
D03*
X902330D02*
D03*
X852030Y801470D02*
D03*
X860730D02*
D03*
X662901Y177910D02*
D03*
X671601D02*
D03*
X662901Y187910D02*
D03*
X671601Y187910D02*
D03*
X662551Y137910D02*
D03*
X671252D02*
D03*
X152753Y140343D02*
D03*
X161453D02*
D03*
X837800Y1363000D02*
D03*
X829100D02*
D03*
D109*
X847030Y1035780D02*
D03*
Y1044480D02*
D03*
X372747Y829958D02*
D03*
X372747Y838659D02*
D03*
X360747Y865659D02*
D03*
X360747Y856959D02*
D03*
X372747Y849959D02*
D03*
Y858659D02*
D03*
X445228Y839509D02*
D03*
Y830809D02*
D03*
X910050Y976450D02*
D03*
Y985150D02*
D03*
X877530Y975690D02*
D03*
Y966990D02*
D03*
X738369Y632389D02*
D03*
Y623689D02*
D03*
X154000Y304100D02*
D03*
Y312800D02*
D03*
X800250Y1265350D02*
D03*
Y1256650D02*
D03*
X336500Y295350D02*
D03*
Y304050D02*
D03*
X193000Y143100D02*
D03*
Y134400D02*
D03*
X796900Y1394850D02*
D03*
Y1386150D02*
D03*
X871800Y1404900D02*
D03*
Y1413600D02*
D03*
X858800Y1325000D02*
D03*
Y1333700D02*
D03*
X847030Y1025780D02*
D03*
Y1017080D02*
D03*
D110*
X487391Y83530D02*
D03*
X449391D02*
D03*
D112*
X853030Y817470D02*
D03*
X834730D02*
D03*
D114*
X887000Y1062850D02*
D03*
Y1081150D02*
D03*
X895800Y1256500D02*
D03*
Y1274800D02*
D03*
X922000Y1256500D02*
D03*
Y1274800D02*
D03*
X887000Y1027850D02*
D03*
Y1046150D02*
D03*
D115*
X853250Y1264500D02*
D03*
X833250D02*
D03*
X848250D02*
D03*
Y1241500D02*
D03*
X818250D02*
D03*
X823250D02*
D03*
X818250Y1264500D02*
D03*
X823250D02*
D03*
X828250D02*
D03*
X838250D02*
D03*
X843250D02*
D03*
Y1241500D02*
D03*
X828250D02*
D03*
X838250D02*
D03*
X833250D02*
D03*
X853250D02*
D03*
X827530Y979450D02*
D03*
X847530Y956450D02*
D03*
X842530D02*
D03*
X832530Y956450D02*
D03*
X837530D02*
D03*
X842530Y979450D02*
D03*
X847530D02*
D03*
X852530D02*
D03*
X832530D02*
D03*
X837530D02*
D03*
X862530D02*
D03*
X852530Y956450D02*
D03*
X862530D02*
D03*
X857530Y979450D02*
D03*
Y956450D02*
D03*
X827530D02*
D03*
D116*
X814250Y1255500D02*
D03*
Y1250500D02*
D03*
X857250Y1255500D02*
D03*
Y1250500D02*
D03*
X823530Y965450D02*
D03*
X866530Y970450D02*
D03*
X823530D02*
D03*
X866530Y965450D02*
D03*
D118*
X520641Y1527522D02*
D03*
X525141D02*
D03*
X558241D02*
D03*
X562741D02*
D03*
X546541D02*
D03*
X542041D02*
D03*
X508441D02*
D03*
X503941D02*
D03*
D119*
X754369Y630289D02*
D03*
Y625789D02*
D03*
X330591Y1446657D02*
D03*
Y1442157D02*
D03*
X317591Y1446657D02*
D03*
Y1442157D02*
D03*
X279591Y1525917D02*
D03*
Y1530417D02*
D03*
X470092Y974542D02*
D03*
Y970042D02*
D03*
X457392Y974542D02*
D03*
Y970042D02*
D03*
X444692Y974542D02*
D03*
Y970042D02*
D03*
X279100Y976260D02*
D03*
Y971760D02*
D03*
X429265Y560130D02*
D03*
Y564630D02*
D03*
X403865Y560130D02*
D03*
Y564630D02*
D03*
X416565Y560130D02*
D03*
Y564630D02*
D03*
D315*
X597371Y1170360D02*
D03*
X587371D02*
D03*
X607371Y1160360D02*
D03*
X567371D02*
D03*
X567371Y1150360D02*
D03*
X577371Y1140360D02*
D03*
Y1150360D02*
D03*
X597371D02*
D03*
X577371Y1170360D02*
D03*
X567371D02*
D03*
X567371Y1140360D02*
D03*
X587371Y1150360D02*
D03*
X597371Y1160360D02*
D03*
X587371Y1130360D02*
D03*
X597371Y1130360D02*
D03*
X587371Y1140360D02*
D03*
X597371D02*
D03*
X607371Y1130360D02*
D03*
X577371Y1160360D02*
D03*
X607371Y1140360D02*
D03*
X577371Y1130360D02*
D03*
X567371Y1130360D02*
D03*
X607371Y1150360D02*
D03*
X587371Y1160360D02*
D03*
X571631Y177290D02*
D03*
X555631Y201290D02*
D03*
X603631Y145290D02*
D03*
X531631Y97290D02*
D03*
X563632Y89290D02*
D03*
X571631Y105290D02*
D03*
X531631Y177290D02*
D03*
X523631D02*
D03*
Y97290D02*
D03*
X539632Y177290D02*
D03*
X579632Y105290D02*
D03*
X571631Y201290D02*
D03*
X547631Y169290D02*
D03*
X531631Y185290D02*
D03*
Y169290D02*
D03*
X563631Y97290D02*
D03*
X611632Y185290D02*
D03*
X603631Y177290D02*
D03*
X547631D02*
D03*
X547631Y185290D02*
D03*
X619632Y113290D02*
D03*
X611632Y145290D02*
D03*
X563632Y161290D02*
D03*
X579631Y97290D02*
D03*
X635631Y193290D02*
D03*
X603631D02*
D03*
X523631D02*
D03*
X523631Y185290D02*
D03*
Y129290D02*
D03*
X523631Y121290D02*
D03*
X523631Y113290D02*
D03*
X523631Y105290D02*
D03*
X531631Y201290D02*
D03*
X531631Y193290D02*
D03*
Y129290D02*
D03*
X531631Y121290D02*
D03*
X531631Y113290D02*
D03*
X531631Y105290D02*
D03*
X539632Y185290D02*
D03*
Y169290D02*
D03*
Y137290D02*
D03*
Y129290D02*
D03*
Y121290D02*
D03*
Y97290D02*
D03*
X547631Y161290D02*
D03*
X547631Y137290D02*
D03*
X547631Y129290D02*
D03*
Y121290D02*
D03*
Y105290D02*
D03*
X547631Y97290D02*
D03*
Y89290D02*
D03*
X555631Y137290D02*
D03*
X555631Y113290D02*
D03*
X563632Y201290D02*
D03*
Y193290D02*
D03*
Y177290D02*
D03*
X563631Y169290D02*
D03*
X571631Y193290D02*
D03*
X571632Y185290D02*
D03*
X571631Y169290D02*
D03*
X579631Y201290D02*
D03*
X579632Y177290D02*
D03*
X579631Y169290D02*
D03*
X579631Y121290D02*
D03*
X587631Y177290D02*
D03*
X595631Y201290D02*
D03*
X603632Y153290D02*
D03*
X603631Y113290D02*
D03*
X611631Y177290D02*
D03*
X611631Y169290D02*
D03*
X611632Y161290D02*
D03*
Y137290D02*
D03*
X619632Y177290D02*
D03*
X619632Y169290D02*
D03*
X619632Y161290D02*
D03*
Y153290D02*
D03*
Y145290D02*
D03*
Y137290D02*
D03*
X627631Y169290D02*
D03*
X627631Y161290D02*
D03*
Y153290D02*
D03*
Y145290D02*
D03*
Y137290D02*
D03*
X635631Y177290D02*
D03*
X635631Y169290D02*
D03*
X635631Y161290D02*
D03*
X635631Y153290D02*
D03*
Y145290D02*
D03*
X635631Y137290D02*
D03*
X635631Y129290D02*
D03*
X563632Y121290D02*
D03*
X635631Y105290D02*
D03*
X547631Y153290D02*
D03*
X539632Y161290D02*
D03*
X523631Y169290D02*
D03*
X587631Y201290D02*
D03*
X587631Y193290D02*
D03*
X603631Y185290D02*
D03*
Y129290D02*
D03*
X579632Y113290D02*
D03*
X555631Y161290D02*
D03*
X595631Y169290D02*
D03*
X635631Y113290D02*
D03*
X619632Y185290D02*
D03*
X627631Y193290D02*
D03*
X627631Y185290D02*
D03*
X571632Y121290D02*
D03*
X563632Y105290D02*
D03*
Y113290D02*
D03*
X539632Y89290D02*
D03*
X635631Y185290D02*
D03*
X603631Y161290D02*
D03*
X627631Y177290D02*
D03*
X531631Y153290D02*
D03*
X539632Y153290D02*
D03*
X555631Y153290D02*
D03*
Y145290D02*
D03*
X523631Y161290D02*
D03*
X611632Y129290D02*
D03*
X627631Y121290D02*
D03*
Y97290D02*
D03*
X619632Y105290D02*
D03*
X595631Y121290D02*
D03*
X611632Y105290D02*
D03*
X603631Y201290D02*
D03*
X595631Y193290D02*
D03*
X611632Y201290D02*
D03*
X611631Y193290D02*
D03*
X547631Y113290D02*
D03*
X531631Y89290D02*
D03*
X555631Y129290D02*
D03*
X539632Y113290D02*
D03*
X627631Y89290D02*
D03*
X603632Y137290D02*
D03*
X627631Y129290D02*
D03*
X619632Y129290D02*
D03*
X635631Y121290D02*
D03*
X579632Y185290D02*
D03*
X579631Y193290D02*
D03*
X611632Y153290D02*
D03*
X531631Y137290D02*
D03*
X523631D02*
D03*
X523631Y153290D02*
D03*
X619632Y201290D02*
D03*
Y193290D02*
D03*
X627631Y201290D02*
D03*
X595631Y161290D02*
D03*
X619632Y121290D02*
D03*
X611631D02*
D03*
X627631Y105290D02*
D03*
X595631Y129290D02*
D03*
X611631Y113290D02*
D03*
X635631Y97290D02*
D03*
X555631D02*
D03*
X555631Y105290D02*
D03*
X571631Y89290D02*
D03*
X579631D02*
D03*
X587631Y169290D02*
D03*
X531631Y161290D02*
D03*
X611631Y97290D02*
D03*
X603631Y105290D02*
D03*
X587631Y121290D02*
D03*
X595631Y113290D02*
D03*
X563631Y129290D02*
D03*
X555631Y177290D02*
D03*
X555631Y193290D02*
D03*
X539632Y201290D02*
D03*
X563631Y185290D02*
D03*
X547631Y145290D02*
D03*
X539632D02*
D03*
X531631D02*
D03*
X523631D02*
D03*
X547631Y193290D02*
D03*
Y201290D02*
D03*
X539632Y105290D02*
D03*
X587631Y89290D02*
D03*
X619632Y97290D02*
D03*
X619632Y89290D02*
D03*
X603631Y89290D02*
D03*
X587631Y113290D02*
D03*
X595631Y97290D02*
D03*
Y89290D02*
D03*
X587631Y105290D02*
D03*
X611632Y89290D02*
D03*
X603631Y97290D02*
D03*
X595631Y105290D02*
D03*
X587631Y97290D02*
D03*
X555631Y89290D02*
D03*
X571631Y97290D02*
D03*
X563632Y137290D02*
D03*
Y153290D02*
D03*
X571631D02*
D03*
X571631Y129290D02*
D03*
Y137290D02*
D03*
X587631Y129290D02*
D03*
Y137290D02*
D03*
Y153290D02*
D03*
X571631Y161290D02*
D03*
X587631Y161290D02*
D03*
X595631Y137290D02*
D03*
Y153290D02*
D03*
X523631Y89290D02*
D03*
X555631Y121290D02*
D03*
X555631Y169290D02*
D03*
X523631Y201290D02*
D03*
X555631Y185290D02*
D03*
X563632Y145290D02*
D03*
X571632Y113290D02*
D03*
X579632Y129290D02*
D03*
X579631Y137290D02*
D03*
X587631Y145290D02*
D03*
X571631Y145290D02*
D03*
X579631Y153290D02*
D03*
Y145290D02*
D03*
X579632Y161290D02*
D03*
X587631Y185290D02*
D03*
X627631Y113290D02*
D03*
X635631Y89290D02*
D03*
X595631Y177290D02*
D03*
X603631Y121290D02*
D03*
X595631Y145290D02*
D03*
X603631Y169290D02*
D03*
X595631Y185290D02*
D03*
X635631Y201290D02*
D03*
X539632Y193290D02*
D03*
D320*
X837800Y1375000D02*
D03*
Y1380000D02*
D03*
Y1385000D02*
D03*
Y1390000D02*
D03*
Y1395000D02*
D03*
Y1400000D02*
D03*
X810000D02*
D03*
Y1395000D02*
D03*
Y1390000D02*
D03*
Y1385000D02*
D03*
Y1380000D02*
D03*
Y1375000D02*
D03*
D323*
X360747Y845309D02*
D03*
X355747D02*
D03*
Y831309D02*
D03*
X350747D02*
D03*
X360747D02*
D03*
X350747Y845309D02*
D03*
D324*
X906500Y1082500D02*
D03*
Y1060800D02*
D03*
Y1026800D02*
D03*
Y1048500D02*
D03*
D325*
X232000Y1459660D02*
D03*
Y1506660D02*
D03*
X695760Y540821D02*
D03*
Y493821D02*
D03*
X413321Y78860D02*
D03*
Y125860D02*
D03*
D326*
X260300Y83000D02*
D03*
X222300D02*
D03*
X876000Y774000D02*
D03*
X838000D02*
D03*
X831320Y1168000D02*
D03*
X793320D02*
D03*
D327*
X863030Y916970D02*
D03*
X843030Y837970D02*
D03*
X863030D02*
D03*
X835030Y916970D02*
D03*
X859030Y837970D02*
D03*
X855030D02*
D03*
X851030D02*
D03*
X847030D02*
D03*
X871030D02*
D03*
X839030D02*
D03*
X859030Y916970D02*
D03*
X871030D02*
D03*
X867030D02*
D03*
X847030D02*
D03*
X843030D02*
D03*
X839030D02*
D03*
X835030Y837970D02*
D03*
X855030Y916970D02*
D03*
X851030D02*
D03*
X867030Y837970D02*
D03*
D328*
X877530Y895470D02*
D03*
Y867470D02*
D03*
Y863470D02*
D03*
Y859470D02*
D03*
Y855470D02*
D03*
Y851470D02*
D03*
Y847470D02*
D03*
Y879470D02*
D03*
Y883470D02*
D03*
X828530Y907470D02*
D03*
Y899470D02*
D03*
Y903470D02*
D03*
Y891470D02*
D03*
Y887470D02*
D03*
X877530D02*
D03*
Y899470D02*
D03*
Y907470D02*
D03*
Y871470D02*
D03*
Y875470D02*
D03*
Y903470D02*
D03*
X828530Y883470D02*
D03*
Y879470D02*
D03*
Y875470D02*
D03*
Y871470D02*
D03*
Y867470D02*
D03*
Y863470D02*
D03*
Y859470D02*
D03*
Y855470D02*
D03*
Y851470D02*
D03*
Y847470D02*
D03*
Y895470D02*
D03*
X877530Y891470D02*
D03*
D330*
X433228Y917659D02*
D03*
X449228D02*
D03*
X429228D02*
D03*
X457228D02*
D03*
X441228D02*
D03*
X437228D02*
D03*
X445228Y858659D02*
D03*
Y917659D02*
D03*
X453228Y858659D02*
D03*
X425228D02*
D03*
X421228D02*
D03*
X417228D02*
D03*
X413228D02*
D03*
X449228D02*
D03*
X457228D02*
D03*
X437228D02*
D03*
X425228Y917659D02*
D03*
X421228D02*
D03*
X413228D02*
D03*
X429228Y858659D02*
D03*
X441228D02*
D03*
X433228D02*
D03*
X417228Y917659D02*
D03*
X453228D02*
D03*
D331*
X464728Y910159D02*
D03*
Y882159D02*
D03*
Y878159D02*
D03*
Y898159D02*
D03*
Y874159D02*
D03*
Y870159D02*
D03*
Y866159D02*
D03*
X405728Y906159D02*
D03*
Y870159D02*
D03*
Y910159D02*
D03*
Y902159D02*
D03*
Y898159D02*
D03*
Y874159D02*
D03*
Y878159D02*
D03*
Y882159D02*
D03*
Y886159D02*
D03*
Y894159D02*
D03*
X464728D02*
D03*
Y890159D02*
D03*
X405728D02*
D03*
Y866159D02*
D03*
X464728Y886159D02*
D03*
Y902159D02*
D03*
Y906159D02*
D03*
D333*
X123000Y181600D02*
D03*
X275000Y176600D02*
D03*
Y181600D02*
D03*
Y186600D02*
D03*
Y191600D02*
D03*
Y196600D02*
D03*
Y201600D02*
D03*
Y206600D02*
D03*
Y216600D02*
D03*
Y221600D02*
D03*
Y231600D02*
D03*
Y236600D02*
D03*
Y246600D02*
D03*
Y251600D02*
D03*
Y261600D02*
D03*
Y266600D02*
D03*
Y271600D02*
D03*
X123000Y266600D02*
D03*
Y176600D02*
D03*
Y191600D02*
D03*
Y186600D02*
D03*
Y206600D02*
D03*
Y196600D02*
D03*
Y201600D02*
D03*
Y236600D02*
D03*
Y231600D02*
D03*
Y246600D02*
D03*
Y241600D02*
D03*
Y216600D02*
D03*
Y211600D02*
D03*
Y226600D02*
D03*
Y221600D02*
D03*
Y251600D02*
D03*
Y256600D02*
D03*
Y261600D02*
D03*
Y271600D02*
D03*
X275000Y226600D02*
D03*
Y211600D02*
D03*
Y241600D02*
D03*
Y256600D02*
D03*
D334*
X131500Y168100D02*
D03*
X136500D02*
D03*
X161500D02*
D03*
X166500D02*
D03*
X176500D02*
D03*
X181500D02*
D03*
X186500D02*
D03*
X191500D02*
D03*
X196500D02*
D03*
X206500D02*
D03*
X211500D02*
D03*
X216500D02*
D03*
X221500D02*
D03*
X226500D02*
D03*
X231500D02*
D03*
X236500D02*
D03*
X241500D02*
D03*
X246500D02*
D03*
X251500D02*
D03*
X256500D02*
D03*
X261500D02*
D03*
X266500D02*
D03*
X266500Y280100D02*
D03*
X261500D02*
D03*
X251500D02*
D03*
X246500D02*
D03*
X236500D02*
D03*
X231500D02*
D03*
X221500D02*
D03*
X216500D02*
D03*
X206500D02*
D03*
X201500D02*
D03*
X196500D02*
D03*
X191500D02*
D03*
X186500D02*
D03*
X181500D02*
D03*
X176500D02*
D03*
X171500D02*
D03*
X166500D02*
D03*
X161500D02*
D03*
X141500D02*
D03*
X136500D02*
D03*
X131500D02*
D03*
X146500Y168100D02*
D03*
X146500Y280100D02*
D03*
X151500Y168100D02*
D03*
Y280100D02*
D03*
X141500Y168100D02*
D03*
X171500D02*
D03*
X156500D02*
D03*
Y280100D02*
D03*
X201500Y168100D02*
D03*
X211500Y280100D02*
D03*
X226500D02*
D03*
X241500D02*
D03*
X256500D02*
D03*
D335*
X124000Y169100D02*
D03*
Y279100D02*
D03*
X274000Y169100D02*
D03*
Y279100D02*
D03*
D338*
X904327Y943735D02*
D03*
X910827D02*
D03*
X897827D02*
D03*
X910827Y962735D02*
D03*
X897827D02*
D03*
X904327D02*
D03*
D340*
X801030Y1031780D02*
D03*
X831030Y1044780D02*
D03*
X801030Y1038280D02*
D03*
X831030Y1025280D02*
D03*
X801030Y1025280D02*
D03*
Y1044780D02*
D03*
X831030Y1031780D02*
D03*
Y1038280D02*
D03*
D342*
X678251Y165760D02*
D03*
X678251Y150060D02*
D03*
D343*
X841300Y1325000D02*
D03*
X804300D02*
D03*
D344*
X232865Y459998D02*
D03*
X220165D02*
D03*
X347165D02*
D03*
X207465D02*
D03*
X194765D02*
D03*
X182065D02*
D03*
X169365D02*
D03*
X270965Y423503D02*
D03*
X321765D02*
D03*
X309065D02*
D03*
X347165D02*
D03*
X334465D02*
D03*
X359865Y459998D02*
D03*
X372565D02*
D03*
X156665Y423503D02*
D03*
X486865Y459998D02*
D03*
X474165D02*
D03*
X461465D02*
D03*
X448765D02*
D03*
X143965Y423503D02*
D03*
X118565D02*
D03*
X105865D02*
D03*
X309065Y459998D02*
D03*
X321765D02*
D03*
X334465D02*
D03*
X245565D02*
D03*
X423365Y423503D02*
D03*
X436065D02*
D03*
X461465D02*
D03*
X474165D02*
D03*
X537665D02*
D03*
X550365D02*
D03*
X575765D02*
D03*
X588465D02*
D03*
X436065Y459998D02*
D03*
X423365D02*
D03*
X410665D02*
D03*
X397965D02*
D03*
X385265D02*
D03*
X182065Y423503D02*
D03*
X194765D02*
D03*
X220165D02*
D03*
X232865D02*
D03*
X397965D02*
D03*
X385265D02*
D03*
X372565D02*
D03*
X359865D02*
D03*
X512265D02*
D03*
X626565D02*
D03*
X613865D02*
D03*
X258265D02*
D03*
X499565D02*
D03*
X651965Y459998D02*
D03*
X664665D02*
D03*
X690065D02*
D03*
X702765D02*
D03*
X677365D02*
D03*
X715465D02*
D03*
X728165D02*
D03*
X270965D02*
D03*
X245565Y423503D02*
D03*
X131265Y459998D02*
D03*
X143965D02*
D03*
X156665D02*
D03*
X131265Y423503D02*
D03*
X169365D02*
D03*
X207465D02*
D03*
X258265Y459998D02*
D03*
X410665Y423503D02*
D03*
X448765D02*
D03*
X486865D02*
D03*
X499565Y459998D02*
D03*
X512265D02*
D03*
X524965Y423503D02*
D03*
Y459998D02*
D03*
X563065Y423503D02*
D03*
X537665Y459998D02*
D03*
X550365D02*
D03*
X563065D02*
D03*
X575765D02*
D03*
X588465D02*
D03*
X601165D02*
D03*
Y423503D02*
D03*
X613865Y459998D02*
D03*
X639265Y423503D02*
D03*
X664665D02*
D03*
X651965D02*
D03*
X626565Y459998D02*
D03*
X639265D02*
D03*
X677365Y423503D02*
D03*
X702765D02*
D03*
X690065D02*
D03*
X715465D02*
D03*
X728165D02*
D03*
X105865Y459998D02*
D03*
X118565D02*
D03*
X444692Y1032772D02*
D03*
X343092D02*
D03*
X330392D02*
D03*
X368492Y996287D02*
D03*
X355792D02*
D03*
X343092D02*
D03*
X330392D02*
D03*
X279592Y1032772D02*
D03*
Y996287D02*
D03*
X558992Y1032772D02*
D03*
X533592D02*
D03*
X520892D02*
D03*
X571692D02*
D03*
X558992Y996287D02*
D03*
X546292D02*
D03*
X571692D02*
D03*
X584392D02*
D03*
X597092D02*
D03*
X609792D02*
D03*
X622492D02*
D03*
X635192D02*
D03*
X647892D02*
D03*
X609792Y1032772D02*
D03*
X584392D02*
D03*
X597092D02*
D03*
X622492D02*
D03*
X635192D02*
D03*
X508192D02*
D03*
X647892D02*
D03*
X546292D02*
D03*
X508192Y996287D02*
D03*
X520892D02*
D03*
X533592D02*
D03*
X419292Y1032772D02*
D03*
X393892D02*
D03*
X406592D02*
D03*
Y996287D02*
D03*
X355792Y1032772D02*
D03*
X393892Y996287D02*
D03*
X419292D02*
D03*
X368492Y1032772D02*
D03*
X457392D02*
D03*
X470092D02*
D03*
X457392Y996287D02*
D03*
X470092D02*
D03*
X292292D02*
D03*
X381192D02*
D03*
X431992Y1032772D02*
D03*
X482792D02*
D03*
X444692Y996287D02*
D03*
X495492D02*
D03*
X304992D02*
D03*
X317692D02*
D03*
X292292Y1032772D02*
D03*
X381192D02*
D03*
X431992Y996287D02*
D03*
X482792D02*
D03*
X495492Y1032772D02*
D03*
X317692D02*
D03*
X304992D02*
D03*
X317691Y1464917D02*
D03*
X330391D02*
D03*
X558991Y1501402D02*
D03*
X546291D02*
D03*
X317691D02*
D03*
X330391D02*
D03*
X508191Y1464917D02*
D03*
X520891D02*
D03*
X431991D02*
D03*
X444691D02*
D03*
X597091Y1501402D02*
D03*
X584391D02*
D03*
Y1464917D02*
D03*
X597091D02*
D03*
X635191Y1501402D02*
D03*
X622491D02*
D03*
X368491Y1464917D02*
D03*
X355791D02*
D03*
X406591D02*
D03*
X393891D02*
D03*
X482791D02*
D03*
X470091D02*
D03*
X622491D02*
D03*
X635191D02*
D03*
X406591Y1501402D02*
D03*
X368491D02*
D03*
X508191D02*
D03*
X470091D02*
D03*
X431991D02*
D03*
X279591Y1464917D02*
D03*
X292291D02*
D03*
X393891Y1501402D02*
D03*
X520891D02*
D03*
X355791D02*
D03*
X482791D02*
D03*
X444691D02*
D03*
X546291Y1464917D02*
D03*
X558991D02*
D03*
X279591Y1501402D02*
D03*
X292291D02*
D03*
X304991Y1464917D02*
D03*
Y1501402D02*
D03*
X343091Y1464917D02*
D03*
Y1501402D02*
D03*
X381191D02*
D03*
Y1464917D02*
D03*
X419291D02*
D03*
Y1501402D02*
D03*
X457391Y1464917D02*
D03*
Y1501402D02*
D03*
X495491Y1464917D02*
D03*
Y1501402D02*
D03*
X533591Y1464917D02*
D03*
Y1501402D02*
D03*
X571691Y1464917D02*
D03*
Y1501402D02*
D03*
X609791Y1464917D02*
D03*
Y1501402D02*
D03*
X647891Y1464917D02*
D03*
Y1501402D02*
D03*
D345*
X296365Y460997D02*
D03*
Y422507D02*
D03*
X283665Y460997D02*
D03*
Y422507D02*
D03*
D346*
X232500Y956000D02*
D03*
X203000D02*
D03*
X232500Y881000D02*
D03*
X203000D02*
D03*
X232500Y906000D02*
D03*
X203000D02*
D03*
X232500Y931000D02*
D03*
X203000D02*
D03*
D347*
X902646Y765290D02*
D03*
Y750290D02*
D03*
X869000Y1054500D02*
D03*
Y1039500D02*
D03*
X902650Y720290D02*
D03*
Y735290D02*
D03*
D348*
X530632Y244751D02*
D03*
X555631D02*
D03*
D349*
X734840Y648789D02*
D03*
Y686789D02*
D03*
X184000Y1502160D02*
D03*
Y1464160D02*
D03*
D350*
X111670Y132510D02*
D03*
Y138010D02*
D03*
D351*
X842821Y1083360D02*
D03*
X795821D02*
D03*
D352*
X941346Y747290D02*
D03*
X919646D02*
D03*
D356*
X240944Y1404170D02*
D03*
X240944Y1433670D02*
D03*
X216350Y1404170D02*
D03*
Y1433670D02*
D03*
X266043Y1327285D02*
D03*
X266043Y1297785D02*
D03*
X241449Y1327285D02*
D03*
Y1297785D02*
D03*
X216854Y1327285D02*
D03*
Y1297785D02*
D03*
X339826Y1327285D02*
D03*
X339826Y1297785D02*
D03*
X315232Y1327285D02*
D03*
X315232Y1297785D02*
D03*
X290637Y1327285D02*
D03*
X290637Y1297785D02*
D03*
D357*
X834980Y1138000D02*
D03*
X819980D02*
D03*
X834980Y1118000D02*
D03*
X819980D02*
D03*
D358*
X734841Y710688D02*
D03*
Y748688D02*
D03*
D399*
X823902Y1387506D02*
D03*
D400*
X823898Y1378604D02*
D03*
X823902Y1396396D02*
D03*
D401*
X841030Y852470D02*
D03*
X853030D02*
D03*
X865030D02*
D03*
X841030Y868980D02*
D03*
X853030D02*
D03*
X865030D02*
D03*
X865030Y902470D02*
D03*
X853030D02*
D03*
X841030D02*
D03*
X865030Y885960D02*
D03*
X853030D02*
D03*
X841030D02*
D03*
D402*
X425217Y878159D02*
D03*
X445217D02*
D03*
Y898159D02*
D03*
X425217D02*
D03*
D403*
X142000Y215100D02*
D03*
X157000Y200100D02*
D03*
X157000Y233099D02*
D03*
X175000Y248099D02*
D03*
X190000Y233099D02*
D03*
X175000Y215100D02*
D03*
X190000Y200100D02*
D03*
X207999Y215100D02*
D03*
X222999Y200100D02*
D03*
X207999Y248099D02*
D03*
X222999Y233099D02*
D03*
X241000Y248099D02*
D03*
X256000Y233099D02*
D03*
X241000Y215100D02*
D03*
X256000Y200100D02*
D03*
D404*
X157000Y215100D02*
D03*
X142000Y200100D02*
D03*
X256000Y248099D02*
D03*
X241000Y233099D02*
D03*
D405*
X143255Y246849D02*
D03*
D406*
X157000Y248099D02*
D03*
X142000Y233099D02*
D03*
X256000Y215100D02*
D03*
X241000Y200100D02*
D03*
D407*
X190000Y248099D02*
D03*
X175000Y233099D02*
D03*
X222999Y215100D02*
D03*
X207999Y200100D02*
D03*
D408*
X190000Y215100D02*
D03*
X175000Y200100D02*
D03*
X222999Y248099D02*
D03*
X207999Y233099D02*
D03*
D409*
X900976Y953238D02*
D03*
X907673D02*
D03*
D410*
X816030Y1043530D02*
D03*
D411*
X816032Y1035030D02*
D03*
M02*
