G04*
G04 #@! TF.GenerationSoftware,Altium Limited,Altium Designer,26.9.1 (10)*
G04*
G04 Layer_Color=2752767*
G04 Board_Origin=9999995|9999995*
%FSLAX44Y44*%
%MOMM*%
G71*
G04*
G04 #@! TF.SameCoordinates,9D83EA41-EA8C-4E9F-96AF-D385C4C8DFFD*
G04*
G04*
G04 #@! TF.FilePolarity,Positive*
G04*
G01*
G75*
%ADD12C,0.2540*%
%ADD466C,0.0508*%
%ADD467C,0.3810*%
%ADD468C,0.4064*%
D12*
X3979979Y754053D02*
X3990136D01*
X3760076D02*
X3770233D01*
X2687996Y756592D02*
X2693074Y746435D01*
X2698153Y756592D01*
X2713388Y746435D02*
X2703231D01*
X2713388Y756592D01*
Y759131D01*
X2710849Y761670D01*
X2705770D01*
X2703231Y759131D01*
X2728623Y761670D02*
X2718466D01*
Y754053D01*
X2723545Y756592D01*
X2726084D01*
X2728623Y754053D01*
Y748974D01*
X2726084Y746435D01*
X2721005D01*
X2718466Y748974D01*
X2733701Y761670D02*
Y746435D01*
Y754053D01*
X2736241Y756592D01*
X2741319D01*
X2743858Y754053D01*
Y746435D01*
X2748936D02*
X2754015D01*
X2751476D01*
Y761670D01*
X2748936Y759131D01*
X2761632D02*
X2764171Y761670D01*
X2769250D01*
X2771789Y759131D01*
Y748974D01*
X2769250Y746435D01*
X2764171D01*
X2761632Y748974D01*
Y759131D01*
X2776867Y746435D02*
Y756592D01*
X2779406D01*
X2781946Y754053D01*
Y746435D01*
Y754053D01*
X2784485Y756592D01*
X2787024Y754053D01*
Y746435D01*
X2792102Y759131D02*
X2794642Y761670D01*
X2799720D01*
X2802259Y759131D01*
Y748974D01*
X2799720Y746435D01*
X2794642D01*
X2792102Y748974D01*
Y759131D01*
X2812416Y746435D02*
X2807338Y751513D01*
Y756592D01*
X2812416Y761670D01*
X2820033Y746435D02*
X2825112D01*
X2822573D01*
Y761670D01*
X2820033Y759131D01*
X2832729Y746435D02*
X2837808Y751513D01*
Y756592D01*
X2832729Y761670D01*
X2498563Y746435D02*
Y761670D01*
X2506181D01*
X2508720Y759131D01*
Y754053D01*
X2506181Y751513D01*
X2498563D01*
X2503642D02*
X2508720Y746435D01*
X2516338D02*
X2521416D01*
X2523955Y748974D01*
Y754053D01*
X2521416Y756592D01*
X2516338D01*
X2513798Y754053D01*
Y748974D01*
X2516338Y746435D01*
X2529034Y756592D02*
Y748974D01*
X2531573Y746435D01*
X2539190D01*
Y756592D01*
X2544269Y746435D02*
Y756592D01*
X2551886D01*
X2554425Y754053D01*
Y746435D01*
X2569660Y761670D02*
Y746435D01*
X2562043D01*
X2559504Y748974D01*
Y754053D01*
X2562043Y756592D01*
X2569660D01*
X2582356Y746435D02*
X2577278D01*
X2574739Y748974D01*
Y754053D01*
X2577278Y756592D01*
X2582356D01*
X2584895Y754053D01*
Y751513D01*
X2574739D01*
X2600131Y761670D02*
Y746435D01*
X2592513D01*
X2589974Y748974D01*
Y754053D01*
X2592513Y756592D01*
X2600131D01*
X2348742Y761670D02*
Y751513D01*
X2353820Y746435D01*
X2358898Y751513D01*
Y761670D01*
X2363977Y746435D02*
X2369055D01*
X2366516D01*
Y756592D01*
X2363977D01*
X2379212D02*
X2384290D01*
X2386830Y754053D01*
Y746435D01*
X2379212D01*
X2376673Y748974D01*
X2379212Y751513D01*
X2386830D01*
X2046570Y761670D02*
X2056726D01*
X2051648D01*
Y746435D01*
X2069422Y761670D02*
X2064344D01*
X2061805Y759131D01*
Y748974D01*
X2064344Y746435D01*
X2069422D01*
X2071961Y748974D01*
Y759131D01*
X2069422Y761670D01*
X2077040Y746435D02*
Y761670D01*
X2084657D01*
X2087196Y759131D01*
Y754053D01*
X2084657Y751513D01*
X2077040D01*
X2092275Y743896D02*
X2102431D01*
X2107510Y761670D02*
Y746435D01*
X2117667D01*
X2122745D02*
X2127823D01*
X2125284D01*
Y761670D01*
X2122745Y759131D01*
X2150676Y754053D02*
X2160833D01*
X2181146Y761670D02*
Y746435D01*
X2191303D01*
X2206538D02*
X2196381D01*
X2206538Y756592D01*
Y759131D01*
X2203999Y761670D01*
X2198920D01*
X2196381Y759131D01*
X1860184Y746435D02*
Y761670D01*
X1867801D01*
X1870341Y759131D01*
Y754053D01*
X1867801Y751513D01*
X1860184D01*
X1865262D02*
X1870341Y746435D01*
X1877958D02*
X1883036D01*
X1885576Y748974D01*
Y754053D01*
X1883036Y756592D01*
X1877958D01*
X1875419Y754053D01*
Y748974D01*
X1877958Y746435D01*
X1890654Y756592D02*
Y748974D01*
X1893193Y746435D01*
X1900811D01*
Y756592D01*
X1905889Y746435D02*
Y756592D01*
X1913507D01*
X1916046Y754053D01*
Y746435D01*
X1931281Y761670D02*
Y746435D01*
X1923663D01*
X1921124Y748974D01*
Y754053D01*
X1923663Y756592D01*
X1931281D01*
X1731691Y746435D02*
Y761670D01*
X1739309D01*
X1741848Y759131D01*
Y754053D01*
X1739309Y751513D01*
X1731691D01*
X1746927Y761670D02*
X1757083D01*
X1752005D01*
Y746435D01*
X1762162Y761670D02*
Y746435D01*
Y754053D01*
X1772318D01*
Y761670D01*
Y746435D01*
X1470147Y759131D02*
X1472686Y761670D01*
X1477765D01*
X1480304Y759131D01*
Y756592D01*
X1477765Y754053D01*
X1475225D01*
X1477765D01*
X1480304Y751513D01*
Y748974D01*
X1477765Y746435D01*
X1472686D01*
X1470147Y748974D01*
X1485382Y746435D02*
Y748974D01*
X1487921D01*
Y746435D01*
X1485382D01*
X1498078Y748974D02*
X1500617Y746435D01*
X1505695D01*
X1508235Y748974D01*
Y759131D01*
X1505695Y761670D01*
X1500617D01*
X1498078Y759131D01*
Y756592D01*
X1500617Y754053D01*
X1508235D01*
X1520931Y746435D02*
Y761670D01*
X1513313Y754053D01*
X1523470D01*
X1528548Y746435D02*
Y756592D01*
X1531087D01*
X1533627Y754053D01*
Y746435D01*
Y754053D01*
X1536166Y756592D01*
X1538705Y754053D01*
Y746435D01*
X1543783D02*
X1548862D01*
X1546322D01*
Y756592D01*
X1543783D01*
X1556479Y746435D02*
X1561557D01*
X1559018D01*
Y761670D01*
X1556479D01*
X1589488Y746435D02*
X1584410Y751513D01*
Y756592D01*
X1589488Y761670D01*
X1597106Y759131D02*
X1599645Y761670D01*
X1604724D01*
X1607263Y759131D01*
Y748974D01*
X1604724Y746435D01*
X1599645D01*
X1597106Y748974D01*
Y759131D01*
X1612341Y746435D02*
Y748974D01*
X1614880D01*
Y746435D01*
X1612341D01*
X1625037D02*
X1630115D01*
X1627576D01*
Y761670D01*
X1625037Y759131D01*
X1637733D02*
X1640272Y761670D01*
X1645350D01*
X1647890Y759131D01*
Y748974D01*
X1645350Y746435D01*
X1640272D01*
X1637733Y748974D01*
Y759131D01*
X1652968D02*
X1655507Y761670D01*
X1660585D01*
X1663125Y759131D01*
Y748974D01*
X1660585Y746435D01*
X1655507D01*
X1652968Y748974D01*
Y759131D01*
X1668203Y746435D02*
Y756592D01*
X1670742D01*
X1673281Y754053D01*
Y746435D01*
Y754053D01*
X1675820Y756592D01*
X1678360Y754053D01*
Y746435D01*
X1683438D02*
Y756592D01*
X1685977D01*
X1688516Y754053D01*
Y746435D01*
Y754053D01*
X1691055Y756592D01*
X1693595Y754053D01*
Y746435D01*
X1698673D02*
X1703751Y751513D01*
Y756592D01*
X1698673Y761670D01*
X1348257Y721031D02*
X1350797Y723570D01*
X1355875D01*
X1358414Y721031D01*
Y718492D01*
X1355875Y715953D01*
X1353336D01*
X1355875D01*
X1358414Y713413D01*
Y710874D01*
X1355875Y708335D01*
X1350797D01*
X1348257Y710874D01*
X1378728Y723570D02*
X1388884D01*
X1383806D01*
Y708335D01*
X1396502D02*
X1401580D01*
X1404119Y710874D01*
Y715953D01*
X1401580Y718492D01*
X1396502D01*
X1393963Y715953D01*
Y710874D01*
X1396502Y708335D01*
X1411737Y721031D02*
Y718492D01*
X1409198D01*
X1414276D01*
X1411737D01*
Y710874D01*
X1414276Y708335D01*
X1424433Y718492D02*
X1429511D01*
X1432050Y715953D01*
Y708335D01*
X1424433D01*
X1421894Y710874D01*
X1424433Y713413D01*
X1432050D01*
X1437129Y708335D02*
X1442207D01*
X1439668D01*
Y723570D01*
X1437129D01*
X1348257Y759131D02*
X1350797Y761670D01*
X1355875D01*
X1358414Y759131D01*
Y756592D01*
X1355875Y754053D01*
X1353336D01*
X1355875D01*
X1358414Y751513D01*
Y748974D01*
X1355875Y746435D01*
X1350797D01*
X1348257Y748974D01*
X1215197Y760826D02*
X1220840D01*
X1218019D01*
Y743898D01*
X1215197D01*
X1220840D01*
D466*
X521646Y1556031D02*
X523338D01*
X522492D01*
Y1550953D01*
X521646D01*
X523338D01*
X501890Y1521458D02*
X503583D01*
X502737D01*
Y1516380D01*
X501890D01*
X503583D01*
X521890Y1521458D02*
X523583D01*
X522737D01*
Y1516380D01*
X521890D01*
X523583D01*
D467*
X1196905Y773105D02*
X4324810D01*
X1196905Y735005D02*
X4324810D01*
X1196905Y696905D02*
X4324810D01*
Y811205D01*
X1196905D02*
X4324810D01*
X1196905Y696905D02*
Y811205D01*
X3968549Y696905D02*
Y811205D01*
X3748646Y696905D02*
Y811205D01*
X3409910Y696905D02*
Y811205D01*
X3071173Y696905D02*
Y811205D01*
X2854318Y696905D02*
Y811205D01*
X2676566Y696905D02*
Y811205D01*
X2487133Y696905D02*
Y811205D01*
X2337312Y696905D02*
Y811205D01*
X2035140Y696905D02*
Y811205D01*
X1848754Y696905D02*
Y811205D01*
X1720261Y696905D02*
Y811205D01*
X1458717Y696905D02*
Y811205D01*
X1336827Y696905D02*
Y811205D01*
D468*
X3979979Y784535D02*
Y802817D01*
X3989120D01*
X3992167Y799770D01*
Y793676D01*
X3989120Y790629D01*
X3979979D01*
X3986073D02*
X3992167Y784535D01*
X4001308D02*
X4007402D01*
X4010449Y787582D01*
Y793676D01*
X4007402Y796723D01*
X4001308D01*
X3998261Y793676D01*
Y787582D01*
X4001308Y784535D01*
X4016543Y796723D02*
Y787582D01*
X4019590Y784535D01*
X4028731D01*
Y796723D01*
X4037872Y799770D02*
Y796723D01*
X4034825D01*
X4040919D01*
X4037872D01*
Y787582D01*
X4040919Y784535D01*
X4059201D02*
X4053107D01*
X4050060Y787582D01*
Y793676D01*
X4053107Y796723D01*
X4059201D01*
X4062249Y793676D01*
Y790629D01*
X4050060D01*
X4080530Y802817D02*
Y784535D01*
X4071389D01*
X4068343Y787582D01*
Y793676D01*
X4071389Y796723D01*
X4080530D01*
X4104907Y784535D02*
Y802817D01*
X4114048D01*
X4117095Y799770D01*
Y793676D01*
X4114048Y790629D01*
X4104907D01*
X4126236Y796723D02*
X4132330D01*
X4135377Y793676D01*
Y784535D01*
X4126236D01*
X4123189Y787582D01*
X4126236Y790629D01*
X4135377D01*
X4144518Y799770D02*
Y796723D01*
X4141471D01*
X4147565D01*
X4144518D01*
Y787582D01*
X4147565Y784535D01*
X4156706Y802817D02*
Y784535D01*
Y793676D01*
X4159753Y796723D01*
X4165847D01*
X4168894Y793676D01*
Y784535D01*
X4193270Y802817D02*
Y784535D01*
X4205458D01*
X4220693D02*
X4214599D01*
X4211552Y787582D01*
Y793676D01*
X4214599Y796723D01*
X4220693D01*
X4223740Y793676D01*
Y790629D01*
X4211552D01*
X4229834Y784535D02*
Y796723D01*
X4238975D01*
X4242022Y793676D01*
Y784535D01*
X4254210Y778441D02*
X4257257D01*
X4260304Y781488D01*
Y796723D01*
X4251163D01*
X4248116Y793676D01*
Y787582D01*
X4251163Y784535D01*
X4260304D01*
X4269445Y799770D02*
Y796723D01*
X4266398D01*
X4272492D01*
X4269445D01*
Y787582D01*
X4272492Y784535D01*
X4281633Y802817D02*
Y784535D01*
Y793676D01*
X4284680Y796723D01*
X4290775D01*
X4293821Y793676D01*
Y784535D01*
X3760076Y802817D02*
Y784535D01*
Y793676D01*
X3772264D01*
Y802817D01*
Y784535D01*
X3781405D02*
X3787499D01*
X3790546Y787582D01*
Y793676D01*
X3787499Y796723D01*
X3781405D01*
X3778358Y793676D01*
Y787582D01*
X3781405Y784535D01*
X3796640D02*
X3802734D01*
X3799688D01*
Y802817D01*
X3796640D01*
X3821017Y784535D02*
X3814922D01*
X3811875Y787582D01*
Y793676D01*
X3814922Y796723D01*
X3821017D01*
X3824063Y793676D01*
Y790629D01*
X3811875D01*
X3848440Y802817D02*
Y784535D01*
X3860628D01*
X3875863D02*
X3869769D01*
X3866722Y787582D01*
Y793676D01*
X3869769Y796723D01*
X3875863D01*
X3878910Y793676D01*
Y790629D01*
X3866722D01*
X3885004Y784535D02*
Y796723D01*
X3894145D01*
X3897192Y793676D01*
Y784535D01*
X3909380Y778441D02*
X3912427D01*
X3915474Y781488D01*
Y796723D01*
X3906333D01*
X3903286Y793676D01*
Y787582D01*
X3906333Y784535D01*
X3915474D01*
X3924615Y799770D02*
Y796723D01*
X3921568D01*
X3927662D01*
X3924615D01*
Y787582D01*
X3927662Y784535D01*
X3936803Y802817D02*
Y784535D01*
Y793676D01*
X3939850Y796723D01*
X3945944D01*
X3948991Y793676D01*
Y784535D01*
X3421340Y802817D02*
Y784535D01*
Y793676D01*
X3433528D01*
Y802817D01*
Y784535D01*
X3442669D02*
X3448763D01*
X3451810Y787582D01*
Y793676D01*
X3448763Y796723D01*
X3442669D01*
X3439622Y793676D01*
Y787582D01*
X3442669Y784535D01*
X3457904D02*
X3463998D01*
X3460951D01*
Y802817D01*
X3457904D01*
X3482280Y784535D02*
X3476186D01*
X3473139Y787582D01*
Y793676D01*
X3476186Y796723D01*
X3482280D01*
X3485327Y793676D01*
Y790629D01*
X3473139D01*
X3509703Y802817D02*
X3521891D01*
X3515797D01*
Y784535D01*
X3531032D02*
X3537126D01*
X3540173Y787582D01*
Y793676D01*
X3537126Y796723D01*
X3531032D01*
X3527985Y793676D01*
Y787582D01*
X3531032Y784535D01*
X3546267D02*
X3552361D01*
X3549314D01*
Y802817D01*
X3546267D01*
X3570644Y784535D02*
X3564550D01*
X3561502Y787582D01*
Y793676D01*
X3564550Y796723D01*
X3570644D01*
X3573690Y793676D01*
Y790629D01*
X3561502D01*
X3579785Y796723D02*
Y784535D01*
Y790629D01*
X3582831Y793676D01*
X3585879Y796723D01*
X3588925D01*
X3601114D02*
X3607208D01*
X3610255Y793676D01*
Y784535D01*
X3601114D01*
X3598067Y787582D01*
X3601114Y790629D01*
X3610255D01*
X3616349Y784535D02*
Y796723D01*
X3625490D01*
X3628537Y793676D01*
Y784535D01*
X3646819Y796723D02*
X3637678D01*
X3634631Y793676D01*
Y787582D01*
X3637678Y784535D01*
X3646819D01*
X3662054D02*
X3655960D01*
X3652913Y787582D01*
Y793676D01*
X3655960Y796723D01*
X3662054D01*
X3665101Y793676D01*
Y790629D01*
X3652913D01*
X3695571Y784535D02*
X3689477Y790629D01*
Y796723D01*
X3695571Y802817D01*
X3704712Y793676D02*
X3716900D01*
X3722994Y784535D02*
X3729088Y790629D01*
Y796723D01*
X3722994Y802817D01*
X3082603D02*
Y784535D01*
Y793676D01*
X3094792D01*
Y802817D01*
Y784535D01*
X3103932D02*
X3110027D01*
X3113074Y787582D01*
Y793676D01*
X3110027Y796723D01*
X3103932D01*
X3100886Y793676D01*
Y787582D01*
X3103932Y784535D01*
X3119167D02*
X3125262D01*
X3122215D01*
Y802817D01*
X3119167D01*
X3143544Y784535D02*
X3137450D01*
X3134403Y787582D01*
Y793676D01*
X3137450Y796723D01*
X3143544D01*
X3146591Y793676D01*
Y790629D01*
X3134403D01*
X3170967Y802817D02*
X3183155D01*
X3177061D01*
Y784535D01*
X3192296D02*
X3198390D01*
X3201437Y787582D01*
Y793676D01*
X3198390Y796723D01*
X3192296D01*
X3189249Y793676D01*
Y787582D01*
X3192296Y784535D01*
X3207531D02*
X3213625D01*
X3210578D01*
Y802817D01*
X3207531D01*
X3231907Y784535D02*
X3225813D01*
X3222766Y787582D01*
Y793676D01*
X3225813Y796723D01*
X3231907D01*
X3234954Y793676D01*
Y790629D01*
X3222766D01*
X3241048Y796723D02*
Y784535D01*
Y790629D01*
X3244095Y793676D01*
X3247142Y796723D01*
X3250189D01*
X3262377D02*
X3268471D01*
X3271518Y793676D01*
Y784535D01*
X3262377D01*
X3259330Y787582D01*
X3262377Y790629D01*
X3271518D01*
X3277612Y784535D02*
Y796723D01*
X3286754D01*
X3289800Y793676D01*
Y784535D01*
X3308083Y796723D02*
X3298941D01*
X3295894Y793676D01*
Y787582D01*
X3298941Y784535D01*
X3308083D01*
X3323318D02*
X3317224D01*
X3314177Y787582D01*
Y793676D01*
X3317224Y796723D01*
X3323318D01*
X3326364Y793676D01*
Y790629D01*
X3314177D01*
X3356835Y784535D02*
X3350741Y790629D01*
Y796723D01*
X3356835Y802817D01*
X3365976Y793676D02*
X3378164D01*
X3372070Y799770D02*
Y787582D01*
X3384258Y784535D02*
X3390352Y790629D01*
Y796723D01*
X3384258Y802817D01*
X2865748D02*
Y784535D01*
X2874889D01*
X2877935Y787582D01*
Y799770D01*
X2874889Y802817D01*
X2865748D01*
X2893171Y784535D02*
X2887077D01*
X2884030Y787582D01*
Y793676D01*
X2887077Y796723D01*
X2893171D01*
X2896218Y793676D01*
Y790629D01*
X2884030D01*
X2902312Y784535D02*
X2911453D01*
X2914500Y787582D01*
X2911453Y790629D01*
X2905359D01*
X2902312Y793676D01*
X2905359Y796723D01*
X2914500D01*
X2932782D02*
X2923641D01*
X2920594Y793676D01*
Y787582D01*
X2923641Y784535D01*
X2932782D01*
X2938876Y796723D02*
Y784535D01*
Y790629D01*
X2941923Y793676D01*
X2944970Y796723D01*
X2948017D01*
X2957158Y784535D02*
X2963252D01*
X2960205D01*
Y796723D01*
X2957158D01*
X2972393Y778441D02*
Y796723D01*
X2981534D01*
X2984581Y793676D01*
Y787582D01*
X2981534Y784535D01*
X2972393D01*
X2993722Y799770D02*
Y796723D01*
X2990675D01*
X2996769D01*
X2993722D01*
Y787582D01*
X2996769Y784535D01*
X3005910D02*
X3012004D01*
X3008957D01*
Y796723D01*
X3005910D01*
X3024192Y784535D02*
X3030286D01*
X3033333Y787582D01*
Y793676D01*
X3030286Y796723D01*
X3024192D01*
X3021145Y793676D01*
Y787582D01*
X3024192Y784535D01*
X3039427D02*
Y796723D01*
X3048568D01*
X3051615Y793676D01*
Y784535D01*
X2687996Y802817D02*
X2700184D01*
X2694090D01*
Y784535D01*
X2715419D02*
X2709325D01*
X2706278Y787582D01*
Y793676D01*
X2709325Y796723D01*
X2715419D01*
X2718466Y793676D01*
Y790629D01*
X2706278D01*
X2724560Y784535D02*
Y796723D01*
X2727607D01*
X2730654Y793676D01*
Y784535D01*
Y793676D01*
X2733701Y796723D01*
X2736748Y793676D01*
Y784535D01*
X2742842Y778441D02*
Y796723D01*
X2751983D01*
X2755031Y793676D01*
Y787582D01*
X2751983Y784535D01*
X2742842D01*
X2761124D02*
X2767218D01*
X2764171D01*
Y802817D01*
X2761124D01*
X2779406Y796723D02*
X2785500D01*
X2788547Y793676D01*
Y784535D01*
X2779406D01*
X2776360Y787582D01*
X2779406Y790629D01*
X2788547D01*
X2797689Y799770D02*
Y796723D01*
X2794642D01*
X2800735D01*
X2797689D01*
Y787582D01*
X2800735Y784535D01*
X2819018D02*
X2812924D01*
X2809877Y787582D01*
Y793676D01*
X2812924Y796723D01*
X2819018D01*
X2822065Y793676D01*
Y790629D01*
X2809877D01*
X2498563Y784535D02*
Y802817D01*
X2507704D01*
X2510751Y799770D01*
Y793676D01*
X2507704Y790629D01*
X2498563D01*
X2519892Y796723D02*
X2525986D01*
X2529034Y793676D01*
Y784535D01*
X2519892D01*
X2516845Y787582D01*
X2519892Y790629D01*
X2529034D01*
X2547316Y802817D02*
Y784535D01*
X2538174D01*
X2535128Y787582D01*
Y793676D01*
X2538174Y796723D01*
X2547316D01*
X2583880Y799770D02*
X2580833Y802817D01*
X2574739D01*
X2571692Y799770D01*
Y796723D01*
X2574739Y793676D01*
X2580833D01*
X2583880Y790629D01*
Y787582D01*
X2580833Y784535D01*
X2574739D01*
X2571692Y787582D01*
X2589974Y802817D02*
Y784535D01*
Y793676D01*
X2593021Y796723D01*
X2599115D01*
X2602162Y793676D01*
Y784535D01*
X2611303Y796723D02*
X2617397D01*
X2620444Y793676D01*
Y784535D01*
X2611303D01*
X2608256Y787582D01*
X2611303Y790629D01*
X2620444D01*
X2626538Y778441D02*
Y796723D01*
X2635679D01*
X2638726Y793676D01*
Y787582D01*
X2635679Y784535D01*
X2626538D01*
X2653961D02*
X2647867D01*
X2644820Y787582D01*
Y793676D01*
X2647867Y796723D01*
X2653961D01*
X2657008Y793676D01*
Y790629D01*
X2644820D01*
X2348742Y802817D02*
Y790629D01*
X2354836Y784535D01*
X2360930Y790629D01*
Y802817D01*
X2367024Y784535D02*
X2373118D01*
X2370071D01*
Y796723D01*
X2367024D01*
X2385306D02*
X2391400D01*
X2394447Y793676D01*
Y784535D01*
X2385306D01*
X2382259Y787582D01*
X2385306Y790629D01*
X2394447D01*
X2400541Y784535D02*
X2412729Y796723D01*
X2418823Y784535D02*
Y802817D01*
X2427964D01*
X2431011Y799770D01*
Y793676D01*
X2427964Y790629D01*
X2418823D01*
X2440152Y796723D02*
X2446246D01*
X2449293Y793676D01*
Y784535D01*
X2440152D01*
X2437105Y787582D01*
X2440152Y790629D01*
X2449293D01*
X2467575Y802817D02*
Y784535D01*
X2458434D01*
X2455387Y787582D01*
Y793676D01*
X2458434Y796723D01*
X2467575D01*
X2046570Y802817D02*
Y784535D01*
X2055711D01*
X2058758Y787582D01*
Y799770D01*
X2055711Y802817D01*
X2046570D01*
X2064852Y796723D02*
Y784535D01*
Y790629D01*
X2067899Y793676D01*
X2070946Y796723D01*
X2073993D01*
X2083134Y784535D02*
X2089228D01*
X2086181D01*
Y796723D01*
X2083134D01*
X2098369Y784535D02*
X2104463D01*
X2101416D01*
Y802817D01*
X2098369D01*
X2113604Y784535D02*
X2119698D01*
X2116651D01*
Y802817D01*
X2113604D01*
X2147121D02*
Y784535D01*
X2159309D01*
X2168450Y796723D02*
X2174544D01*
X2177591Y793676D01*
Y784535D01*
X2168450D01*
X2165403Y787582D01*
X2168450Y790629D01*
X2177591D01*
X2183685Y796723D02*
Y787582D01*
X2186732Y784535D01*
X2195873D01*
Y781488D01*
X2192826Y778441D01*
X2189779D01*
X2195873Y784535D02*
Y796723D01*
X2211108Y784535D02*
X2205014D01*
X2201967Y787582D01*
Y793676D01*
X2205014Y796723D01*
X2211108D01*
X2214155Y793676D01*
Y790629D01*
X2201967D01*
X2220249Y796723D02*
Y784535D01*
Y790629D01*
X2223296Y793676D01*
X2226343Y796723D01*
X2229390D01*
X2256814Y784535D02*
Y802817D01*
X2265955D01*
X2269002Y799770D01*
Y793676D01*
X2265955Y790629D01*
X2256814D01*
X2278143Y796723D02*
X2284237D01*
X2287284Y793676D01*
Y784535D01*
X2278143D01*
X2275096Y787582D01*
X2278143Y790629D01*
X2287284D01*
X2293378Y784535D02*
X2299472D01*
X2296425D01*
Y796723D01*
X2293378D01*
X2308613D02*
Y784535D01*
Y790629D01*
X2311660Y793676D01*
X2314707Y796723D01*
X2317754D01*
X1860184Y802817D02*
Y784535D01*
Y793676D01*
X1872372D01*
Y802817D01*
Y784535D01*
X1881513D02*
X1887607D01*
X1890654Y787582D01*
Y793676D01*
X1887607Y796723D01*
X1881513D01*
X1878466Y793676D01*
Y787582D01*
X1881513Y784535D01*
X1896748D02*
X1902842D01*
X1899795D01*
Y802817D01*
X1896748D01*
X1921124Y784535D02*
X1915030D01*
X1911983Y787582D01*
Y793676D01*
X1915030Y796723D01*
X1921124D01*
X1924171Y793676D01*
Y790629D01*
X1911983D01*
X1948547Y802817D02*
X1960735D01*
X1954641D01*
Y784535D01*
X1966829Y796723D02*
Y787582D01*
X1969876Y784535D01*
X1979017D01*
Y781488D01*
X1975970Y778441D01*
X1972923D01*
X1979017Y784535D02*
Y796723D01*
X1985111Y778441D02*
Y796723D01*
X1994252D01*
X1997299Y793676D01*
Y787582D01*
X1994252Y784535D01*
X1985111D01*
X2012535D02*
X2006440D01*
X2003394Y787582D01*
Y793676D01*
X2006440Y796723D01*
X2012535D01*
X2015582Y793676D01*
Y790629D01*
X2003394D01*
X1731691Y784535D02*
Y802817D01*
X1740833D01*
X1743880Y799770D01*
Y793676D01*
X1740833Y790629D01*
X1731691D01*
X1749973Y784535D02*
X1756068D01*
X1753020D01*
Y802817D01*
X1749973D01*
X1768256Y796723D02*
X1774350D01*
X1777397Y793676D01*
Y784535D01*
X1768256D01*
X1765209Y787582D01*
X1768256Y790629D01*
X1777397D01*
X1786538Y799770D02*
Y796723D01*
X1783491D01*
X1789585D01*
X1786538D01*
Y787582D01*
X1789585Y784535D01*
X1807867D02*
X1801773D01*
X1798726Y787582D01*
Y793676D01*
X1801773Y796723D01*
X1807867D01*
X1810914Y793676D01*
Y790629D01*
X1798726D01*
X1829196Y802817D02*
Y784535D01*
X1820055D01*
X1817008Y787582D01*
Y793676D01*
X1820055Y796723D01*
X1829196D01*
X1470147Y802817D02*
Y784535D01*
Y793676D01*
X1482335D01*
Y802817D01*
Y784535D01*
X1491476D02*
X1497570D01*
X1500617Y787582D01*
Y793676D01*
X1497570Y796723D01*
X1491476D01*
X1488429Y793676D01*
Y787582D01*
X1491476Y784535D01*
X1506711D02*
X1512805D01*
X1509758D01*
Y802817D01*
X1506711D01*
X1531087Y784535D02*
X1524993D01*
X1521946Y787582D01*
Y793676D01*
X1524993Y796723D01*
X1531087D01*
X1534134Y793676D01*
Y790629D01*
X1521946D01*
X1570699Y799770D02*
X1567652Y802817D01*
X1561557D01*
X1558510Y799770D01*
Y796723D01*
X1561557Y793676D01*
X1567652D01*
X1570699Y790629D01*
Y787582D01*
X1567652Y784535D01*
X1561557D01*
X1558510Y787582D01*
X1576792Y784535D02*
X1582887D01*
X1579839D01*
Y796723D01*
X1576792D01*
X1592028D02*
X1604216D01*
X1592028Y784535D01*
X1604216D01*
X1619451D02*
X1613357D01*
X1610310Y787582D01*
Y793676D01*
X1613357Y796723D01*
X1619451D01*
X1622498Y793676D01*
Y790629D01*
X1610310D01*
X1360446Y799770D02*
X1357399Y802817D01*
X1351304D01*
X1348257Y799770D01*
Y787582D01*
X1351304Y784535D01*
X1357399D01*
X1360446Y787582D01*
X1369586Y784535D02*
X1375681D01*
X1378728Y787582D01*
Y793676D01*
X1375681Y796723D01*
X1369586D01*
X1366539Y793676D01*
Y787582D01*
X1369586Y784535D01*
X1384822Y796723D02*
Y787582D01*
X1387869Y784535D01*
X1397010D01*
Y796723D01*
X1403104Y784535D02*
Y796723D01*
X1412245D01*
X1415292Y793676D01*
Y784535D01*
X1424433Y799770D02*
Y796723D01*
X1421386D01*
X1427480D01*
X1424433D01*
Y787582D01*
X1427480Y784535D01*
X1231953Y799770D02*
X1228906Y802817D01*
X1222812D01*
X1219765Y799770D01*
Y796723D01*
X1222812Y793676D01*
X1228906D01*
X1231953Y790629D01*
Y787582D01*
X1228906Y784535D01*
X1222812D01*
X1219765Y787582D01*
X1238047Y796723D02*
Y787582D01*
X1241094Y784535D01*
X1250235D01*
Y781488D01*
X1247188Y778441D01*
X1244141D01*
X1250235Y784535D02*
Y796723D01*
X1256329Y784535D02*
Y796723D01*
X1259376D01*
X1262423Y793676D01*
Y784535D01*
Y793676D01*
X1265470Y796723D01*
X1268517Y793676D01*
Y784535D01*
X1274611Y802817D02*
Y784535D01*
X1283752D01*
X1286799Y787582D01*
Y790629D01*
Y793676D01*
X1283752Y796723D01*
X1274611D01*
X1295940Y784535D02*
X1302034D01*
X1305081Y787582D01*
Y793676D01*
X1302034Y796723D01*
X1295940D01*
X1292893Y793676D01*
Y787582D01*
X1295940Y784535D01*
X1311175D02*
X1317269D01*
X1314222D01*
Y802817D01*
X1311175D01*
M02*
