G04*
G04 #@! TF.GenerationSoftware,Altium Limited,Altium Designer,26.9.1 (10)*
G04*
G04 Layer_Color=32768*
G04 Board_Origin=9999995|9999995*
%FSLAX44Y44*%
%MOMM*%
G71*
G04*
G04 #@! TF.SameCoordinates,9D83EA41-EA8C-4E9F-96AF-D385C4C8DFFD*
G04*
G04*
G04 #@! TF.FilePolarity,Positive*
G04*
G01*
G75*
%ADD13C,0.2000*%
%ADD266C,0.1270*%
%ADD269C,0.1000*%
%ADD412C,0.0500*%
D13*
X648970Y262400D02*
Y279400D01*
X631970D02*
X648970D01*
X665970D01*
X648970D02*
Y296400D01*
X692970Y237400D02*
Y321400D01*
X604970Y237400D02*
X692970D01*
X604970D02*
Y321400D01*
X692970D01*
X66999Y542000D02*
Y638000D01*
Y542000D02*
X582999D01*
Y638000D01*
X66999D02*
X582999D01*
X324999Y573000D02*
Y590000D01*
X324974Y589975D02*
X341974D01*
X324999Y589950D02*
Y606950D01*
X307999Y589975D02*
X324999D01*
X124600Y276610D02*
X220600D01*
X124600Y142610D02*
Y276610D01*
Y142610D02*
X220600D01*
Y276610D01*
X172600Y209210D02*
Y226210D01*
Y209210D02*
X189600D01*
X155600D02*
X172600D01*
Y192210D02*
Y209210D01*
D266*
X694579Y152000D02*
G03*
X694579Y152000I-4579J0D01*
G01*
X731494Y413490D02*
G03*
X731494Y413490I-4579J0D01*
G01*
X683650Y152000D02*
X696350D01*
X690000Y145650D02*
Y158350D01*
X706000Y140001D02*
Y163999D01*
X674000D02*
X706000D01*
X674000Y140001D02*
Y163999D01*
Y140001D02*
X706000D01*
X710915Y425489D02*
X742914D01*
Y401491D02*
Y425489D01*
X710915Y401491D02*
X742914D01*
X710915D02*
Y425489D01*
X726915Y407140D02*
Y419840D01*
X720564Y413490D02*
X733264D01*
D269*
X956794Y1148000D02*
G03*
X956794Y1148000I-11314J0D01*
G01*
X466358Y508000D02*
G03*
X466358Y508000I-9158J0D01*
G01*
X466181Y25400D02*
G03*
X466181Y25400I-8981J0D01*
G01*
X779841Y58500D02*
X1021841D01*
X1021841Y288500D02*
X1021841Y58500D01*
X779841D02*
Y288500D01*
X888591Y173500D02*
X909841D01*
X779841Y288500D02*
X1021841D01*
X888591Y173500D02*
Y194750D01*
X867341Y173500D02*
X888591D01*
Y152250D02*
Y173500D01*
X463745Y1561000D02*
Y1576000D01*
Y1561000D02*
X478745D01*
X463745Y1546000D02*
Y1561000D01*
X448745D02*
X463745D01*
X546745Y1536000D02*
Y1601000D01*
X380745Y1536000D02*
X546745D01*
X380745D02*
Y1601000D01*
X546745D01*
X872980Y1096000D02*
X1026980D01*
X872980D02*
Y1212000D01*
X1026980D01*
Y1096000D02*
Y1212000D01*
X945480Y1148000D02*
Y1168000D01*
Y1148000D02*
X965480D01*
X945480Y1128000D02*
Y1148000D01*
X925480D02*
X945480D01*
X488821Y1084360D02*
Y1134360D01*
Y1084360D02*
X538821D01*
X438821D02*
X488821D01*
Y1034360D02*
Y1084360D01*
X275051Y336747D02*
Y346747D01*
X270051Y341747D02*
X280051D01*
X919000Y821000D02*
X1000000D01*
X919000Y1079000D02*
X1000000D01*
Y821000D02*
Y1079000D01*
X919000Y821000D02*
Y1079000D01*
X942000Y954000D02*
X959000D01*
Y971000D01*
Y954000D02*
X976000D01*
X959000Y937000D02*
Y954000D01*
X171450Y521736D02*
X651235D01*
Y494263D02*
Y521736D01*
X171450Y494263D02*
Y521736D01*
Y494263D02*
X651235D01*
X444500Y508000D02*
X468630D01*
X457200D02*
X468630D01*
X457200Y497840D02*
Y519430D01*
X263119Y12007D02*
X650926D01*
X263119D02*
Y38676D01*
X446200Y25400D02*
X468545D01*
X457200Y14615D02*
Y36400D01*
X263119Y38676D02*
X650926D01*
Y12007D02*
Y38676D01*
X100745Y1601000D02*
X266745D01*
X100745Y1536000D02*
Y1601000D01*
Y1536000D02*
X266745D01*
Y1601000D01*
X168745Y1561000D02*
X183745D01*
Y1546000D02*
Y1561000D01*
X198745D01*
X183745D02*
Y1576000D01*
X743745Y1561000D02*
Y1576000D01*
Y1561000D02*
X758745D01*
X743745Y1546000D02*
Y1561000D01*
X728745D02*
X743745D01*
X826745Y1536000D02*
Y1601000D01*
X660745Y1536000D02*
X826745D01*
X660745D02*
Y1601000D01*
X826745D01*
X225602Y660500D02*
Y670500D01*
X220602Y665500D02*
X230602D01*
X198602Y683000D02*
X252602D01*
X198602Y648000D02*
X252602Y648000D01*
X198602Y648000D02*
Y683000D01*
X252602Y648000D02*
Y683000D01*
D412*
X577374Y186290D02*
G03*
X577374Y186290I-2542J0D01*
G01*
X67517Y494030D02*
G03*
X67517Y494030I-4016J0D01*
G01*
X735000Y12499D02*
G03*
X735000Y12499I-2500J0D01*
G01*
X223417Y30865D02*
G03*
X223417Y30865I-4243J0D01*
G01*
X187000Y124500D02*
G03*
X187000Y124500I-2500J0D01*
G01*
X140350Y929655D02*
G03*
X140350Y929655I-6350J0D01*
G01*
X985436Y676090D02*
G03*
X985436Y676090I-2175J0D01*
G01*
X597281Y207540D02*
G03*
X597281Y207540I-1650J0D01*
G01*
X958016Y747290D02*
G03*
X958016Y747290I-5000J0D01*
G01*
X746829Y72744D02*
G03*
X746829Y72744I-1013J0D01*
G01*
X674013Y26050D02*
G03*
X674013Y26050I-1013J0D01*
G01*
X652013Y129000D02*
G03*
X652013Y129000I-1013J0D01*
G01*
X679813Y26050D02*
G03*
X679813Y26050I-1013J0D01*
G01*
X746823Y96590D02*
G03*
X746823Y96590I-1013J0D01*
G01*
Y44590D02*
G03*
X746823Y44590I-1013J0D01*
G01*
Y118590D02*
G03*
X746823Y118590I-1013J0D01*
G01*
Y105590D02*
G03*
X746823Y105590I-1013J0D01*
G01*
Y112340D02*
G03*
X746823Y112340I-1013J0D01*
G01*
X709013Y123000D02*
G03*
X709013Y123000I-1013J0D01*
G01*
X733823Y121590D02*
G03*
X733823Y121590I-1013J0D01*
G01*
X739394Y128770D02*
G03*
X739394Y128770I-1013J0D01*
G01*
X690013Y131700D02*
G03*
X690013Y131700I-1013J0D01*
G01*
X702013D02*
G03*
X702013Y131700I-1013J0D01*
G01*
X690013Y125700D02*
G03*
X690013Y125700I-1013J0D01*
G01*
X845013Y737668D02*
G03*
X845013Y737668I-1013J0D01*
G01*
X839013Y737668D02*
G03*
X839013Y737668I-1013J0D01*
G01*
X857013D02*
G03*
X857013Y737668I-1013J0D01*
G01*
X851013Y737668D02*
G03*
X851013Y737668I-1013J0D01*
G01*
X844013Y800412D02*
G03*
X844013Y800412I-1013J0D01*
G01*
X860013Y749118D02*
G03*
X860013Y749118I-1013J0D01*
G01*
X856013Y800412D02*
G03*
X856013Y800412I-1013J0D01*
G01*
X848013Y749118D02*
G03*
X848013Y749118I-1013J0D01*
G01*
X824013D02*
G03*
X824013Y749118I-1013J0D01*
G01*
X836013Y749118D02*
G03*
X836013Y749118I-1013J0D01*
G01*
X832013Y800412D02*
G03*
X832013Y800412I-1013J0D01*
G01*
X434834Y1385107D02*
G03*
X434834Y1385107I-1013J0D01*
G01*
X550524Y1391340D02*
G03*
X550524Y1391340I-1013J0D01*
G01*
X666524Y1392090D02*
G03*
X666524Y1392090I-1013J0D01*
G01*
X754250Y548650D02*
G03*
X754250Y548650I-1013J0D01*
G01*
Y554650D02*
G03*
X754250Y554650I-1013J0D01*
G01*
X749763Y625350D02*
G03*
X749763Y625350I-1013J0D01*
G01*
Y631350D02*
G03*
X749763Y631350I-1013J0D01*
G01*
X736763Y625350D02*
G03*
X736763Y625350I-1013J0D01*
G01*
Y631350D02*
G03*
X736763Y631350I-1013J0D01*
G01*
X765750Y548650D02*
G03*
X765750Y548650I-1013J0D01*
G01*
Y554650D02*
G03*
X765750Y554650I-1013J0D01*
G01*
X724750Y548650D02*
G03*
X724750Y548650I-1013J0D01*
G01*
Y554650D02*
G03*
X724750Y554650I-1013J0D01*
G01*
X763763Y625350D02*
G03*
X763763Y625350I-1013J0D01*
G01*
Y631350D02*
G03*
X763763Y631350I-1013J0D01*
G01*
X770928Y270490D02*
G03*
X770928Y270490I-1013J0D01*
G01*
X804928Y292490D02*
G03*
X804928Y292490I-1013J0D01*
G01*
Y342490D02*
G03*
X804928Y342490I-1013J0D01*
G01*
X798249Y385423D02*
G03*
X798249Y385423I-1013J0D01*
G01*
X804928Y310490D02*
G03*
X804928Y310490I-1013J0D01*
G01*
Y322490D02*
G03*
X804928Y322490I-1013J0D01*
G01*
X786013Y382750D02*
G03*
X786013Y382750I-1013J0D01*
G01*
X689177Y358490D02*
G03*
X689177Y358490I-1013J0D01*
G01*
X688928Y340490D02*
G03*
X688928Y340490I-1013J0D01*
G01*
Y328490D02*
G03*
X688928Y328490I-1013J0D01*
G01*
X776927Y270490D02*
G03*
X776927Y270490I-1013J0D01*
G01*
X702323Y273240D02*
G03*
X702323Y273240I-1013J0D01*
G01*
X688928Y322490D02*
G03*
X688928Y322490I-1013J0D01*
G01*
X804928Y304490D02*
G03*
X804928Y304490I-1013J0D01*
G01*
X752927Y270490D02*
G03*
X752927Y270490I-1013J0D01*
G01*
X740928D02*
G03*
X740928Y270490I-1013J0D01*
G01*
X707278Y387490D02*
G03*
X707278Y387490I-1013J0D01*
G01*
X724928Y384490D02*
G03*
X724928Y384490I-1013J0D01*
G01*
X736928D02*
G03*
X736928Y384490I-1013J0D01*
G01*
X457157Y389490D02*
G03*
X457157Y389490I-1013J0D01*
G01*
X425248Y258997D02*
G03*
X425248Y258997I-1013J0D01*
G01*
X477878Y304990D02*
G03*
X477878Y304990I-1013J0D01*
G01*
Y313490D02*
G03*
X477878Y313490I-1013J0D01*
G01*
X347241Y291909D02*
G03*
X347241Y291909I-1013J0D01*
G01*
X341241Y291909D02*
G03*
X341241Y291909I-1013J0D01*
G01*
X751050Y131150D02*
G03*
X751050Y131150I-1650J0D01*
G01*
X750137Y538400D02*
G03*
X750137Y538400I-1650J0D01*
G01*
X750400Y643350D02*
G03*
X750400Y643350I-1650J0D01*
G01*
X737400D02*
G03*
X737400Y643350I-1650J0D01*
G01*
X771137Y538400D02*
G03*
X771137Y538400I-1650J0D01*
G01*
X730137D02*
G03*
X730137Y538400I-1650J0D01*
G01*
X764400Y643350D02*
G03*
X764400Y643350I-1650J0D01*
G01*
X699915Y389490D02*
G03*
X699915Y389490I-1650J0D01*
G01*
X438635Y251747D02*
G03*
X438635Y251747I-1650J0D01*
G01*
X266776Y208627D02*
G03*
X266776Y208627I-2175J0D01*
G01*
X287776D02*
G03*
X287776Y208627I-2175J0D01*
G01*
X308776D02*
G03*
X308776Y208627I-2175J0D01*
G01*
X329776D02*
G03*
X329776Y208627I-2175J0D01*
G01*
X350776D02*
G03*
X350776Y208627I-2175J0D01*
G01*
X371776D02*
G03*
X371776Y208627I-2175J0D01*
G01*
X392776D02*
G03*
X392776Y208627I-2175J0D01*
G01*
X413776D02*
G03*
X413776Y208627I-2175J0D01*
G01*
X434776D02*
G03*
X434776Y208627I-2175J0D01*
G01*
X455776D02*
G03*
X455776Y208627I-2175J0D01*
G01*
X476776D02*
G03*
X476776Y208627I-2175J0D01*
G01*
X497776D02*
G03*
X497776Y208627I-2175J0D01*
G01*
X518776D02*
G03*
X518776Y208627I-2175J0D01*
G01*
X266776Y187627D02*
G03*
X266776Y187627I-2175J0D01*
G01*
X287776D02*
G03*
X287776Y187627I-2175J0D01*
G01*
X308776D02*
G03*
X308776Y187627I-2175J0D01*
G01*
X329776D02*
G03*
X329776Y187627I-2175J0D01*
G01*
X350776D02*
G03*
X350776Y187627I-2175J0D01*
G01*
X371776D02*
G03*
X371776Y187627I-2175J0D01*
G01*
X392776D02*
G03*
X392776Y187627I-2175J0D01*
G01*
X413776D02*
G03*
X413776Y187627I-2175J0D01*
G01*
X434776D02*
G03*
X434776Y187627I-2175J0D01*
G01*
X455776D02*
G03*
X455776Y187627I-2175J0D01*
G01*
X476776D02*
G03*
X476776Y187627I-2175J0D01*
G01*
X497776D02*
G03*
X497776Y187627I-2175J0D01*
G01*
X518776D02*
G03*
X518776Y187627I-2175J0D01*
G01*
X266776Y166627D02*
G03*
X266776Y166627I-2175J0D01*
G01*
X287776D02*
G03*
X287776Y166627I-2175J0D01*
G01*
X308776D02*
G03*
X308776Y166627I-2175J0D01*
G01*
X329776D02*
G03*
X329776Y166627I-2175J0D01*
G01*
X350776D02*
G03*
X350776Y166627I-2175J0D01*
G01*
X371776D02*
G03*
X371776Y166627I-2175J0D01*
G01*
X392776D02*
G03*
X392776Y166627I-2175J0D01*
G01*
X413776D02*
G03*
X413776Y166627I-2175J0D01*
G01*
X434776D02*
G03*
X434776Y166627I-2175J0D01*
G01*
X455776D02*
G03*
X455776Y166627I-2175J0D01*
G01*
X476776D02*
G03*
X476776Y166627I-2175J0D01*
G01*
X497776D02*
G03*
X497776Y166627I-2175J0D01*
G01*
X518776D02*
G03*
X518776Y166627I-2175J0D01*
G01*
X266776Y145627D02*
G03*
X266776Y145627I-2175J0D01*
G01*
X287776D02*
G03*
X287776Y145627I-2175J0D01*
G01*
X308776D02*
G03*
X308776Y145627I-2175J0D01*
G01*
X329776D02*
G03*
X329776Y145627I-2175J0D01*
G01*
X350776D02*
G03*
X350776Y145627I-2175J0D01*
G01*
X371776D02*
G03*
X371776Y145627I-2175J0D01*
G01*
X392776D02*
G03*
X392776Y145627I-2175J0D01*
G01*
X413776D02*
G03*
X413776Y145627I-2175J0D01*
G01*
X434776D02*
G03*
X434776Y145627I-2175J0D01*
G01*
X455776D02*
G03*
X455776Y145627I-2175J0D01*
G01*
X476776D02*
G03*
X476776Y145627I-2175J0D01*
G01*
X497776D02*
G03*
X497776Y145627I-2175J0D01*
G01*
X518776D02*
G03*
X518776Y145627I-2175J0D01*
G01*
X266776Y124627D02*
G03*
X266776Y124627I-2175J0D01*
G01*
X287776D02*
G03*
X287776Y124627I-2175J0D01*
G01*
X308776D02*
G03*
X308776Y124627I-2175J0D01*
G01*
X329776D02*
G03*
X329776Y124627I-2175J0D01*
G01*
X350776D02*
G03*
X350776Y124627I-2175J0D01*
G01*
X371776D02*
G03*
X371776Y124627I-2175J0D01*
G01*
X392776D02*
G03*
X392776Y124627I-2175J0D01*
G01*
X413776D02*
G03*
X413776Y124627I-2175J0D01*
G01*
X434776D02*
G03*
X434776Y124627I-2175J0D01*
G01*
X455776D02*
G03*
X455776Y124627I-2175J0D01*
G01*
X476776D02*
G03*
X476776Y124627I-2175J0D01*
G01*
X497776D02*
G03*
X497776Y124627I-2175J0D01*
G01*
X518776D02*
G03*
X518776Y124627I-2175J0D01*
G01*
X266776Y103627D02*
G03*
X266776Y103627I-2175J0D01*
G01*
X287776D02*
G03*
X287776Y103627I-2175J0D01*
G01*
X308776D02*
G03*
X308776Y103627I-2175J0D01*
G01*
X329776D02*
G03*
X329776Y103627I-2175J0D01*
G01*
X350776D02*
G03*
X350776Y103627I-2175J0D01*
G01*
X371776D02*
G03*
X371776Y103627I-2175J0D01*
G01*
X392776D02*
G03*
X392776Y103627I-2175J0D01*
G01*
X413776D02*
G03*
X413776Y103627I-2175J0D01*
G01*
X434776D02*
G03*
X434776Y103627I-2175J0D01*
G01*
X455776D02*
G03*
X455776Y103627I-2175J0D01*
G01*
X476776D02*
G03*
X476776Y103627I-2175J0D01*
G01*
X497776D02*
G03*
X497776Y103627I-2175J0D01*
G01*
X518776D02*
G03*
X518776Y103627I-2175J0D01*
G01*
X266776Y82627D02*
G03*
X266776Y82627I-2175J0D01*
G01*
X287776D02*
G03*
X287776Y82627I-2175J0D01*
G01*
X308776D02*
G03*
X308776Y82627I-2175J0D01*
G01*
X329776D02*
G03*
X329776Y82627I-2175J0D01*
G01*
X350776D02*
G03*
X350776Y82627I-2175J0D01*
G01*
X371776D02*
G03*
X371776Y82627I-2175J0D01*
G01*
X392776D02*
G03*
X392776Y82627I-2175J0D01*
G01*
X413776D02*
G03*
X413776Y82627I-2175J0D01*
G01*
X434776D02*
G03*
X434776Y82627I-2175J0D01*
G01*
X455776D02*
G03*
X455776Y82627I-2175J0D01*
G01*
X476776D02*
G03*
X476776Y82627I-2175J0D01*
G01*
X497776D02*
G03*
X497776Y82627I-2175J0D01*
G01*
X518776D02*
G03*
X518776Y82627I-2175J0D01*
G01*
X266776Y61627D02*
G03*
X266776Y61627I-2175J0D01*
G01*
X287776D02*
G03*
X287776Y61627I-2175J0D01*
G01*
X308776D02*
G03*
X308776Y61627I-2175J0D01*
G01*
X329776D02*
G03*
X329776Y61627I-2175J0D01*
G01*
X350776D02*
G03*
X350776Y61627I-2175J0D01*
G01*
X371776D02*
G03*
X371776Y61627I-2175J0D01*
G01*
X392776D02*
G03*
X392776Y61627I-2175J0D01*
G01*
X413776D02*
G03*
X413776Y61627I-2175J0D01*
G01*
X434776D02*
G03*
X434776Y61627I-2175J0D01*
G01*
X455776D02*
G03*
X455776Y61627I-2175J0D01*
G01*
X476776D02*
G03*
X476776Y61627I-2175J0D01*
G01*
X497776D02*
G03*
X497776Y61627I-2175J0D01*
G01*
X518776D02*
G03*
X518776Y61627I-2175J0D01*
G01*
X477878Y291990D02*
G03*
X477878Y291990I-1013J0D01*
G01*
Y319990D02*
G03*
X477878Y319990I-1013J0D01*
G01*
X355743Y298240D02*
G03*
X355743Y298240I-1013J0D01*
G01*
X414878Y389490D02*
G03*
X414878Y389490I-1013J0D01*
G01*
X477878Y358990D02*
G03*
X477878Y358990I-1013J0D01*
G01*
X795489Y56494D02*
G03*
X795489Y56494I-1013J0D01*
G01*
X785489D02*
G03*
X785489Y56494I-1013J0D01*
G01*
X746825Y54700D02*
G03*
X746825Y54700I-1013J0D01*
G01*
Y64700D02*
G03*
X746825Y64700I-1013J0D01*
G01*
X746826Y80590D02*
G03*
X746826Y80590I-1013J0D01*
G01*
Y90590D02*
G03*
X746826Y90590I-1013J0D01*
G01*
X727013Y131500D02*
G03*
X727013Y131500I-1013J0D01*
G01*
X717013D02*
G03*
X717013Y131500I-1013J0D01*
G01*
X699213Y26050D02*
G03*
X699213Y26050I-1013J0D01*
G01*
X868013Y800412D02*
G03*
X868013Y800412I-1013J0D01*
G01*
X814013Y800412D02*
G03*
X814013Y800412I-1013J0D01*
G01*
X880263Y761900D02*
G03*
X880263Y761900I-1013J0D01*
G01*
X820013Y800412D02*
G03*
X820013Y800412I-1013J0D01*
G01*
X883013Y770650D02*
G03*
X883013Y770650I-1013J0D01*
G01*
X883013Y776650D02*
G03*
X883013Y776650I-1013J0D01*
G01*
X892288Y647997D02*
G03*
X892288Y647997I-1013J0D01*
G01*
X421377Y389490D02*
G03*
X421377Y389490I-1013J0D01*
G01*
X477878Y298490D02*
G03*
X477878Y298490I-1013J0D01*
G01*
X656384Y1386411D02*
G03*
X656384Y1386411I-1013J0D01*
G01*
X745763Y551900D02*
G03*
X745763Y551900I-1013J0D01*
G01*
X434998Y261747D02*
G03*
X434998Y261747I-1013J0D01*
G01*
X804928Y298490D02*
G03*
X804928Y298490I-1013J0D01*
G01*
X713278Y387490D02*
G03*
X713278Y387490I-1013J0D01*
G01*
X804923Y279590D02*
G03*
X804923Y279590I-1013J0D01*
G01*
Y285590D02*
G03*
X804923Y285590I-1013J0D01*
G01*
X731565Y392490D02*
G03*
X731565Y392490I-1650J0D01*
G01*
X375877Y389490D02*
G03*
X375877Y389490I-1013J0D01*
G01*
X465378Y400990D02*
G03*
X465378Y400990I-1013J0D01*
G01*
X489378Y326490D02*
G03*
X489378Y326490I-1013J0D01*
G01*
X733763Y551900D02*
G03*
X733763Y551900I-1013J0D01*
G01*
X739763D02*
G03*
X739763Y551900I-1013J0D01*
G01*
X646053Y98130D02*
G03*
X646053Y98130I-1013J0D01*
G01*
Y91630D02*
G03*
X646053Y91630I-1013J0D01*
G01*
X900038Y647997D02*
G03*
X900038Y647997I-1013J0D01*
G01*
X674013Y129000D02*
G03*
X674013Y129000I-1013J0D01*
G01*
X681013D02*
G03*
X681013Y129000I-1013J0D01*
G01*
X489378Y352490D02*
G03*
X489378Y352490I-1013J0D01*
G01*
X395378Y400990D02*
G03*
X395378Y400990I-1013J0D01*
G01*
X382378Y389490D02*
G03*
X382378Y389490I-1013J0D01*
G01*
X434378D02*
G03*
X434378Y389490I-1013J0D01*
G01*
X388877D02*
G03*
X388877Y389490I-1013J0D01*
G01*
X347241Y303909D02*
G03*
X347241Y303909I-1013J0D01*
G01*
X341241D02*
G03*
X341241Y303909I-1013J0D01*
G01*
X427878Y389490D02*
G03*
X427878Y389490I-1013J0D01*
G01*
X375877Y400990D02*
G03*
X375877Y400990I-1013J0D01*
G01*
X343248Y354497D02*
G03*
X343248Y354497I-1013J0D01*
G01*
X489378Y371990D02*
G03*
X489378Y371990I-1013J0D01*
G01*
X489378Y345990D02*
G03*
X489378Y345990I-1013J0D01*
G01*
X465378Y389490D02*
G03*
X465378Y389490I-1013J0D01*
G01*
X477878Y326490D02*
G03*
X477878Y326490I-1013J0D01*
G01*
Y352490D02*
G03*
X477878Y352490I-1013J0D01*
G01*
X395378Y389490D02*
G03*
X395378Y389490I-1013J0D01*
G01*
X408377D02*
G03*
X408377Y389490I-1013J0D01*
G01*
X477878Y339490D02*
G03*
X477878Y339490I-1013J0D01*
G01*
X350248Y352497D02*
G03*
X350248Y352497I-1013J0D01*
G01*
X477878Y371990D02*
G03*
X477878Y371990I-1013J0D01*
G01*
Y345990D02*
G03*
X477878Y345990I-1013J0D01*
G01*
X401878Y389490D02*
G03*
X401878Y389490I-1013J0D01*
G01*
X477878Y332990D02*
G03*
X477878Y332990I-1013J0D01*
G01*
Y378990D02*
G03*
X477878Y378990I-1013J0D01*
G01*
Y365490D02*
G03*
X477878Y365490I-1013J0D01*
G01*
X656384Y1379910D02*
G03*
X656384Y1379910I-1013J0D01*
G01*
X255500Y1401000D02*
G03*
X255500Y1401000I-2500J0D01*
G01*
X235500D02*
G03*
X235500Y1401000I-2500J0D01*
G01*
X845841Y70600D02*
G03*
X845841Y70600I-2500J0D01*
G01*
X105585Y1113650D02*
G03*
X105585Y1113650I-1650J0D01*
G01*
X73000Y1003650D02*
G03*
X73000Y1003650I-2500J0D01*
G01*
X73000Y1250650D02*
G03*
X73000Y1250650I-2500J0D01*
G01*
Y1230650D02*
G03*
X73000Y1230650I-2500J0D01*
G01*
X70000Y1216650D02*
G03*
X70000Y1216650I-1650J0D01*
G01*
X11013Y1069650D02*
G03*
X11013Y1069650I-1013J0D01*
G01*
X183500Y1222150D02*
G03*
X183500Y1222150I-2500J0D01*
G01*
Y1147150D02*
G03*
X183500Y1147150I-2500J0D01*
G01*
X215500Y1401000D02*
G03*
X215500Y1401000I-2500J0D01*
G01*
X22013Y1078650D02*
G03*
X22013Y1078650I-1013J0D01*
G01*
X105585Y1227309D02*
G03*
X105585Y1227309I-1650J0D01*
G01*
X73000Y1023650D02*
G03*
X73000Y1023650I-2500J0D01*
G01*
X72995Y1117650D02*
G03*
X72995Y1117650I-2500J0D01*
G01*
Y1138650D02*
G03*
X72995Y1138650I-2500J0D01*
G01*
X69995Y1103650D02*
G03*
X69995Y1103650I-1650J0D01*
G01*
X22013Y1191650D02*
G03*
X22013Y1191650I-1013J0D01*
G01*
X105585Y974655D02*
G03*
X105585Y974655I-1650J0D01*
G01*
X73000Y975655D02*
G03*
X73000Y975655I-2500J0D01*
G01*
Y883655D02*
G03*
X73000Y883655I-2500J0D01*
G01*
X70000Y961155D02*
G03*
X70000Y961155I-1650J0D01*
G01*
X11013Y927655D02*
G03*
X11013Y927655I-1013J0D01*
G01*
X183500Y967155D02*
G03*
X183500Y967155I-2500J0D01*
G01*
Y892155D02*
G03*
X183500Y892155I-2500J0D01*
G01*
X22013Y936655D02*
G03*
X22013Y936655I-1013J0D01*
G01*
X311000Y1393500D02*
G03*
X311000Y1393500I-2500J0D01*
G01*
X92828Y787912D02*
G03*
X92828Y787912I-1650J0D01*
G01*
X129178Y754412D02*
G03*
X129178Y754412I-2500J0D01*
G01*
X125441Y767412D02*
G03*
X125441Y767412I-1013J0D01*
G01*
Y801412D02*
G03*
X125441Y801412I-1013J0D01*
G01*
X117178Y833412D02*
G03*
X117178Y833412I-2500J0D01*
G01*
X97691Y770412D02*
G03*
X97691Y770412I-1013J0D01*
G01*
X755310Y226590D02*
G03*
X755310Y226590I-2500J0D01*
G01*
X740823Y219340D02*
G03*
X740823Y219340I-1013J0D01*
G01*
X706573Y216090D02*
G03*
X706573Y216090I-1013J0D01*
G01*
X675310Y209590D02*
G03*
X675310Y209590I-2500J0D01*
G01*
X732323Y195090D02*
G03*
X732323Y195090I-1013J0D01*
G01*
X717960Y189090D02*
G03*
X717960Y189090I-1650J0D01*
G01*
X22013Y1091650D02*
G03*
X22013Y1091650I-1013J0D01*
G01*
X22013Y1205650D02*
G03*
X22013Y1205650I-1013J0D01*
G01*
X421274Y675500D02*
G03*
X421274Y675500I-1013J0D01*
G01*
X331274D02*
G03*
X331274Y675500I-1013J0D01*
G01*
X185512D02*
G03*
X185512Y675500I-1013J0D01*
G01*
X421274Y656000D02*
G03*
X421274Y656000I-1013J0D01*
G01*
X331274D02*
G03*
X331274Y656000I-1013J0D01*
G01*
X185512D02*
G03*
X185512Y656000I-1013J0D01*
G01*
X356299Y659500D02*
G03*
X356299Y659500I-1650J0D01*
G01*
X265537Y659501D02*
G03*
X265537Y659501I-1650J0D01*
G01*
X121299Y659500D02*
G03*
X121299Y659500I-1650J0D01*
G01*
X267000Y1428000D02*
G03*
X267000Y1428000I-2500J0D01*
G01*
X275500Y1401000D02*
G03*
X275500Y1401000I-2500J0D01*
G01*
X364420Y246236D02*
G03*
X364420Y246236I-1013J0D01*
G01*
X117178Y814412D02*
G03*
X117178Y814412I-2500J0D01*
G01*
X332286Y428747D02*
G03*
X332286Y428747I-1013J0D01*
G01*
X331793Y275902D02*
G03*
X331793Y275902I-1013J0D01*
G01*
X346761Y441747D02*
G03*
X346761Y441747I-2500J0D01*
G01*
X353533Y414055D02*
G03*
X353533Y414055I-2500J0D01*
G01*
X342151Y270662D02*
G03*
X342151Y270662I-1013J0D01*
G01*
X122500Y1350000D02*
G03*
X122500Y1350000I-2500J0D01*
G01*
X185500D02*
G03*
X185500Y1350000I-2500J0D01*
G01*
X61500Y1392000D02*
G03*
X61500Y1392000I-2500J0D01*
G01*
Y1413000D02*
G03*
X61500Y1413000I-2500J0D01*
G01*
X159752Y1288992D02*
G03*
X159752Y1288992I-1013J0D01*
G01*
X134389Y1316992D02*
G03*
X134389Y1316992I-1650J0D01*
G01*
X694310Y209590D02*
G03*
X694310Y209590I-2500J0D01*
G01*
X183500Y1034150D02*
G03*
X183500Y1034150I-2500J0D01*
G01*
X150250Y1021650D02*
G03*
X150250Y1021650I-2500J0D01*
G01*
X985436Y659090D02*
G03*
X985436Y659090I-2175J0D01*
G01*
X140350Y1071650D02*
G03*
X140350Y1071650I-6350J0D01*
G01*
X140350Y1184650D02*
G03*
X140350Y1184650I-6350J0D01*
G01*
X641513Y147700D02*
G03*
X641513Y147700I-1013J0D01*
G01*
X641513Y139700D02*
G03*
X641513Y139700I-1013J0D01*
G01*
X660413Y26050D02*
G03*
X660413Y26050I-1013J0D01*
G01*
X646053Y111290D02*
G03*
X646053Y111290I-1013J0D01*
G01*
X692413Y14050D02*
G03*
X692413Y14050I-1013J0D01*
G01*
X685613D02*
G03*
X685613Y14050I-1013J0D01*
G01*
X667213Y14050D02*
G03*
X667213Y14050I-1013J0D01*
G01*
X653013Y147700D02*
G03*
X653013Y147700I-1013J0D01*
G01*
Y139700D02*
G03*
X653013Y139700I-1013J0D01*
G01*
X660313Y14050D02*
G03*
X660313Y14050I-1013J0D01*
G01*
X646053Y117750D02*
G03*
X646053Y117750I-1013J0D01*
G01*
X692413Y26050D02*
G03*
X692413Y26050I-1013J0D01*
G01*
X685613Y26050D02*
G03*
X685613Y26050I-1013J0D01*
G01*
X667213Y26050D02*
G03*
X667213Y26050I-1013J0D01*
G01*
X965774Y659090D02*
G03*
X965774Y659090I-1013J0D01*
G01*
X90691Y770412D02*
G03*
X90691Y770412I-1013J0D01*
G01*
X867491Y70600D02*
G03*
X867491Y70600I-1650J0D01*
G01*
X31650Y1021650D02*
G03*
X31650Y1021650I-1650J0D01*
G01*
X16650Y1058650D02*
G03*
X16650Y1058650I-1650J0D01*
G01*
X34013Y1036650D02*
G03*
X34013Y1036650I-1013J0D01*
G01*
X25013Y1069650D02*
G03*
X25013Y1069650I-1013J0D01*
G01*
X18013Y1047650D02*
G03*
X18013Y1047650I-1013J0D01*
G01*
X34008Y1153650D02*
G03*
X34008Y1153650I-1013J0D01*
G01*
X25013Y1047650D02*
G03*
X25013Y1047650I-1013J0D01*
G01*
X19263Y1139400D02*
G03*
X19263Y1139400I-1013J0D01*
G01*
X16650Y916655D02*
G03*
X16650Y916655I-1650J0D01*
G01*
X29202Y891905D02*
G03*
X29202Y891905I-1013J0D01*
G01*
X25013Y927655D02*
G03*
X25013Y927655I-1013J0D01*
G01*
X34008Y1146650D02*
G03*
X34008Y1146650I-1013J0D01*
G01*
X23763Y1032905D02*
G03*
X23763Y1032905I-1013J0D01*
G01*
X18013Y904466D02*
G03*
X18013Y904466I-1013J0D01*
G01*
X22201Y891905D02*
G03*
X22201Y891905I-1013J0D01*
G01*
X83691Y770412D02*
G03*
X83691Y770412I-1013J0D01*
G01*
X76691D02*
G03*
X76691Y770412I-1013J0D01*
G01*
X732323Y188090D02*
G03*
X732323Y188090I-1013J0D01*
G01*
Y181090D02*
G03*
X732323Y181090I-1013J0D01*
G01*
X92828Y797912D02*
G03*
X92828Y797912I-1650J0D01*
G01*
X707960Y189090D02*
G03*
X707960Y189090I-1650J0D01*
G01*
X357262Y668000D02*
G03*
X357262Y668000I-1013J0D01*
G01*
X266500D02*
G03*
X266500Y668000I-1013J0D01*
G01*
X122262Y668000D02*
G03*
X122262Y668000I-1013J0D01*
G01*
X125862Y643500D02*
G03*
X125862Y643500I-1013J0D01*
G01*
X110112Y646250D02*
G03*
X110112Y646250I-1013J0D01*
G01*
X374112Y640500D02*
G03*
X374112Y640500I-1013J0D01*
G01*
X157500Y1350000D02*
G03*
X157500Y1350000I-2500J0D01*
G01*
X27650Y1392000D02*
G03*
X27650Y1392000I-2500J0D01*
G01*
X75330Y1327930D02*
G03*
X75330Y1327930I-2500J0D01*
G01*
X16013Y1302400D02*
G03*
X16013Y1302400I-1013J0D01*
G01*
X331793Y303909D02*
G03*
X331793Y303909I-1013J0D01*
G01*
X336248Y343497D02*
G03*
X336248Y343497I-1013J0D01*
G01*
Y354497D02*
G03*
X336248Y354497I-1013J0D01*
G01*
X112239Y1316992D02*
G03*
X112239Y1316992I-2500J0D01*
G01*
X98830Y1417930D02*
G03*
X98830Y1417930I-2500J0D01*
G01*
X185402Y1303992D02*
G03*
X185402Y1303992I-1013J0D01*
G01*
Y1316992D02*
G03*
X185402Y1316992I-1013J0D01*
G01*
X11013Y1047650D02*
G03*
X11013Y1047650I-1013J0D01*
G01*
X24013Y1150650D02*
G03*
X24013Y1150650I-1013J0D01*
G01*
X17013D02*
G03*
X17013Y1150650I-1013J0D01*
G01*
X10013D02*
G03*
X10013Y1150650I-1013J0D01*
G01*
X25701Y904467D02*
G03*
X25701Y904467I-1013J0D01*
G01*
X11013Y904466D02*
G03*
X11013Y904466I-1013J0D01*
G01*
X165219Y1433930D02*
G03*
X165219Y1433930I-1650J0D01*
G01*
X129389Y1330992D02*
G03*
X129389Y1330992I-1650J0D01*
G01*
Y1302992D02*
G03*
X129389Y1302992I-1650J0D01*
G01*
X150250Y1138650D02*
G03*
X150250Y1138650I-2500J0D01*
G01*
Y1232650D02*
G03*
X150250Y1232650I-2500J0D01*
G01*
Y1117650D02*
G03*
X150250Y1117650I-2500J0D01*
G01*
X183500Y1109150D02*
G03*
X183500Y1109150I-2500J0D01*
G01*
X18013Y1069650D02*
G03*
X18013Y1069650I-1013J0D01*
G01*
X18013Y927655D02*
G03*
X18013Y927655I-1013J0D01*
G01*
X69995Y1152650D02*
G03*
X69995Y1152650I-1650J0D01*
G01*
X70000Y1039650D02*
G03*
X70000Y1039650I-1650J0D01*
G01*
Y898155D02*
G03*
X70000Y898155I-1650J0D01*
G01*
X386112Y640500D02*
G03*
X386112Y640500I-1013J0D01*
G01*
X144612Y692251D02*
G03*
X144612Y692251I-1013J0D01*
G01*
X138112D02*
G03*
X138112Y692251I-1013J0D01*
G01*
X374955Y688700D02*
G03*
X374955Y688700I-1013J0D01*
G01*
X488513Y674501D02*
G03*
X488513Y674501I-1013J0D01*
G01*
Y655500D02*
G03*
X488513Y655500I-1013J0D01*
G01*
X497150Y656500D02*
G03*
X497150Y656500I-1650J0D01*
G01*
X496513Y674501D02*
G03*
X496513Y674501I-1013J0D01*
G01*
X150250Y881655D02*
G03*
X150250Y881655I-2500J0D01*
G01*
Y977655D02*
G03*
X150250Y977655I-2500J0D01*
G01*
X613282Y213290D02*
G03*
X613282Y213290I-1650J0D01*
G01*
X568894Y142290D02*
G03*
X568894Y142290I-1013J0D01*
G01*
X592394Y142290D02*
G03*
X592394Y142290I-1013J0D01*
G01*
X570894Y133290D02*
G03*
X570894Y133290I-1013J0D01*
G01*
X561394Y169290D02*
G03*
X561394Y169290I-1013J0D01*
G01*
X570394Y157290D02*
G03*
X570394Y157290I-1013J0D01*
G01*
X580644Y158540D02*
G03*
X580644Y158540I-1013J0D01*
G01*
X568894Y148290D02*
G03*
X568894Y148290I-1013J0D01*
G01*
X580394Y150290D02*
G03*
X580394Y150290I-1013J0D01*
G01*
X591394Y133290D02*
G03*
X591394Y133290I-1013J0D01*
G01*
X592394Y148290D02*
G03*
X592394Y148290I-1013J0D01*
G01*
X574894Y169290D02*
G03*
X574894Y169290I-1013J0D01*
G01*
X590894Y157290D02*
G03*
X590894Y157290I-1013J0D01*
G01*
X542645Y158290D02*
G03*
X542645Y158290I-1013J0D01*
G01*
X580644Y131040D02*
G03*
X580644Y131040I-1013J0D01*
G01*
X596645Y195290D02*
G03*
X596645Y195290I-1013J0D01*
G01*
X554644Y192290D02*
G03*
X554644Y192290I-1013J0D01*
G01*
X600513Y179999D02*
G03*
X600513Y179999I-1013J0D01*
G01*
X586394Y169290D02*
G03*
X586394Y169290I-1013J0D01*
G01*
X210178Y73240D02*
G03*
X210178Y73240I-1013J0D01*
G01*
X225678Y73240D02*
G03*
X225678Y73240I-1013J0D01*
G01*
X810958Y834055D02*
G03*
X810958Y834055I-1013J0D01*
G01*
X806008Y829106D02*
G03*
X806008Y829106I-1013J0D01*
G01*
X554644Y186290D02*
G03*
X554644Y186290I-1013J0D01*
G01*
X542645Y150290D02*
G03*
X542645Y150290I-1013J0D01*
G01*
X596645Y189290D02*
G03*
X596645Y189290I-1013J0D01*
G01*
X593513Y179999D02*
G03*
X593513Y179999I-1013J0D01*
G01*
X580394Y140290D02*
G03*
X580394Y140290I-1013J0D01*
G01*
X182013Y995655D02*
G03*
X182013Y995655I-1013J0D01*
G01*
X550325Y1379263D02*
G03*
X550325Y1379263I-1013J0D01*
G01*
X98378Y1463978D02*
G03*
X98378Y1463978I-1013J0D01*
G01*
X98878Y1504248D02*
G03*
X98878Y1504248I-1013J0D01*
G01*
X92515Y1482748D02*
G03*
X92515Y1482748I-1650J0D01*
G01*
X833110Y274090D02*
G03*
X833110Y274090I-2500J0D01*
G01*
X754030Y255970D02*
G03*
X754030Y255970I-2500J0D01*
G01*
X342084Y778489D02*
G03*
X342084Y778489I-1013J0D01*
G01*
X531405Y700647D02*
G03*
X531405Y700647I-1013J0D01*
G01*
X197663Y73240D02*
G03*
X197663Y73240I-1013J0D01*
G01*
X192615Y710500D02*
G03*
X192615Y710500I-1013J0D01*
G01*
X162615Y750100D02*
G03*
X162615Y750100I-1013J0D01*
G01*
X870000Y12499D02*
G03*
X870000Y12499I-2500J0D01*
G01*
X825000D02*
G03*
X825000Y12499I-2500J0D01*
G01*
X780000D02*
G03*
X780000Y12499I-2500J0D01*
G01*
X193402Y1316992D02*
G03*
X193402Y1316992I-1013J0D01*
G01*
X150251Y853090D02*
G03*
X150251Y853090I-2500J0D01*
G01*
X150328Y833412D02*
G03*
X150328Y833412I-2500J0D01*
G01*
X193402Y1303992D02*
G03*
X193402Y1303992I-1013J0D01*
G01*
X965774Y676090D02*
G03*
X965774Y676090I-1013J0D01*
G01*
X525405Y711647D02*
G03*
X525405Y711647I-1013J0D01*
G01*
X90691Y779412D02*
G03*
X90691Y779412I-1013J0D01*
G01*
X518905Y711647D02*
G03*
X518905Y711647I-1013J0D01*
G01*
X512405D02*
G03*
X512405Y711647I-1013J0D01*
G01*
X505905D02*
G03*
X505905Y711647I-1013J0D01*
G01*
X342084Y763489D02*
G03*
X342084Y763489I-1013J0D01*
G01*
X371632Y742266D02*
G03*
X371632Y742266I-1013J0D01*
G01*
X91877Y1463978D02*
G03*
X91877Y1463978I-1013J0D01*
G01*
X364420Y233236D02*
G03*
X364420Y233236I-1013J0D01*
G01*
X342084Y756489D02*
G03*
X342084Y756489I-1013J0D01*
G01*
X537405Y706147D02*
G03*
X537405Y706147I-1013J0D01*
G01*
X130584Y516489D02*
G03*
X130584Y516489I-1013J0D01*
G01*
X849513Y12499D02*
G03*
X849513Y12499I-1013J0D01*
G01*
X804513D02*
G03*
X804513Y12499I-1013J0D01*
G01*
X759513D02*
G03*
X759513Y12499I-1013J0D01*
G01*
X714513D02*
G03*
X714513Y12499I-1013J0D01*
G01*
X880513D02*
G03*
X880513Y12499I-1013J0D01*
G01*
X835513D02*
G03*
X835513Y12499I-1013J0D01*
G01*
X790513D02*
G03*
X790513Y12499I-1013J0D01*
G01*
X745513D02*
G03*
X745513Y12499I-1013J0D01*
G01*
X856513D02*
G03*
X856513Y12499I-1013J0D01*
G01*
X811513D02*
G03*
X811513Y12499I-1013J0D01*
G01*
X766513D02*
G03*
X766513Y12499I-1013J0D01*
G01*
X721513D02*
G03*
X721513Y12499I-1013J0D01*
G01*
X887513D02*
G03*
X887513Y12499I-1013J0D01*
G01*
X842513D02*
G03*
X842513Y12499I-1013J0D01*
G01*
X797513D02*
G03*
X797513Y12499I-1013J0D01*
G01*
X752513D02*
G03*
X752513Y12499I-1013J0D01*
G01*
X179933Y70240D02*
G03*
X179933Y70240I-1013J0D01*
G01*
X185365Y730200D02*
G03*
X185365Y730200I-1013J0D01*
G01*
X185365Y767100D02*
G03*
X185365Y767100I-1013J0D01*
G01*
X185365Y693500D02*
G03*
X185365Y693500I-1013J0D01*
G01*
X171865D02*
G03*
X171865Y693500I-1013J0D01*
G01*
X171865Y767100D02*
G03*
X171865Y767100I-1013J0D01*
G01*
X162613Y722250D02*
G03*
X162613Y722250I-1013J0D01*
G01*
X478513Y752912D02*
G03*
X478513Y752912I-1013J0D01*
G01*
X472013Y752912D02*
G03*
X472013Y752912I-1013J0D01*
G01*
X465513Y752912D02*
G03*
X465513Y752912I-1013J0D01*
G01*
X458013Y711372D02*
G03*
X458013Y711372I-1013J0D01*
G01*
X480513Y711372D02*
G03*
X480513Y711372I-1013J0D01*
G01*
X473013Y711372D02*
G03*
X473013Y711372I-1013J0D01*
G01*
X465513Y711372D02*
G03*
X465513Y711372I-1013J0D01*
G01*
X9763Y1020905D02*
G03*
X9763Y1020905I-1013J0D01*
G01*
X333674Y741232D02*
G03*
X333674Y741232I-1013J0D01*
G01*
X518905Y700647D02*
G03*
X518905Y700647I-1013J0D01*
G01*
X525405Y752907D02*
G03*
X525405Y752907I-1013J0D01*
G01*
X518905D02*
G03*
X518905Y752907I-1013J0D01*
G01*
X512405D02*
G03*
X512405Y752907I-1013J0D01*
G01*
X505905D02*
G03*
X505905Y752907I-1013J0D01*
G01*
X214373Y484250D02*
G03*
X214373Y484250I-1013J0D01*
G01*
X188973D02*
G03*
X188973Y484250I-1013J0D01*
G01*
X428354Y1385110D02*
G03*
X428354Y1385110I-1013J0D01*
G01*
X538325Y1379263D02*
G03*
X538325Y1379263I-1013J0D01*
G01*
X105378Y1504248D02*
G03*
X105378Y1504248I-1013J0D01*
G01*
X111378D02*
G03*
X111378Y1504248I-1013J0D01*
G01*
X117878Y1504248D02*
G03*
X117878Y1504248I-1013J0D01*
G01*
X421524Y1385090D02*
G03*
X421524Y1385090I-1013J0D01*
G01*
X786524Y1361340D02*
G03*
X786524Y1361340I-1013J0D01*
G01*
X124378Y1504248D02*
G03*
X124378Y1504248I-1013J0D01*
G01*
X124377Y1463978D02*
G03*
X124377Y1463978I-1013J0D01*
G01*
X666524Y1380090D02*
G03*
X666524Y1380090I-1013J0D01*
G01*
X528155Y761157D02*
G03*
X528155Y761157I-1013J0D01*
G01*
X667013Y129000D02*
G03*
X667013Y129000I-1013J0D01*
G01*
X350248Y388497D02*
G03*
X350248Y388497I-1013J0D01*
G01*
X345998Y366247D02*
G03*
X345998Y366247I-1013J0D01*
G01*
X336248Y388497D02*
G03*
X336248Y388497I-1013J0D01*
G01*
X343248D02*
G03*
X343248Y388497I-1013J0D01*
G01*
X336248Y368997D02*
G03*
X336248Y368997I-1013J0D01*
G01*
X485013Y752912D02*
G03*
X485013Y752912I-1013J0D01*
G01*
X488013Y711372D02*
G03*
X488013Y711372I-1013J0D01*
G01*
X491513Y752912D02*
G03*
X491513Y752912I-1013J0D01*
G01*
X531905Y752907D02*
G03*
X531905Y752907I-1013J0D01*
G01*
X531405Y711647D02*
G03*
X531405Y711647I-1013J0D01*
G01*
X539542Y731687D02*
G03*
X539542Y731687I-1650J0D01*
G01*
X538905Y752907D02*
G03*
X538905Y752907I-1013J0D01*
G01*
X115691Y729360D02*
G03*
X115691Y729360I-1013J0D01*
G01*
X18663Y790190D02*
G03*
X18663Y790190I-1013J0D01*
G01*
X94511Y712860D02*
G03*
X94511Y712860I-1013J0D01*
G01*
X35663Y767190D02*
G03*
X35663Y767190I-1013J0D01*
G01*
X70150Y796690D02*
G03*
X70150Y796690I-2500J0D01*
G01*
X77699Y650500D02*
G03*
X77699Y650500I-2500J0D01*
G01*
X349613Y270560D02*
G03*
X349613Y270560I-1013J0D01*
G01*
X127691Y729360D02*
G03*
X127691Y729360I-1013J0D01*
G01*
X18663Y802190D02*
G03*
X18663Y802190I-1013J0D01*
G01*
X98691Y732360D02*
G03*
X98691Y732360I-1013J0D01*
G01*
X105691D02*
G03*
X105691Y732360I-1013J0D01*
G01*
X15663Y773190D02*
G03*
X15663Y773190I-1013J0D01*
G01*
Y780190D02*
G03*
X15663Y780190I-1013J0D01*
G01*
X492150Y731412D02*
G03*
X492150Y731412I-1650J0D01*
G01*
X22013Y1085150D02*
G03*
X22013Y1085150I-1013J0D01*
G01*
X22013Y1198650D02*
G03*
X22013Y1198650I-1013J0D01*
G01*
X732323Y174090D02*
G03*
X732323Y174090I-1013J0D01*
G01*
X34013Y1029650D02*
G03*
X34013Y1029650I-1013J0D01*
G01*
X22013Y1212650D02*
G03*
X22013Y1212650I-1013J0D01*
G01*
X387012Y688700D02*
G03*
X387012Y688700I-1013J0D01*
G01*
X342084Y749489D02*
G03*
X342084Y749489I-1013J0D01*
G01*
X11013Y1182650D02*
G03*
X11013Y1182650I-1013J0D01*
G01*
X22013Y943655D02*
G03*
X22013Y943655I-1013J0D01*
G01*
Y957655D02*
G03*
X22013Y957655I-1013J0D01*
G01*
Y950655D02*
G03*
X22013Y950655I-1013J0D01*
G01*
X16763Y1032905D02*
G03*
X16763Y1032905I-1013J0D01*
G01*
X11013Y1210030D02*
G03*
X11013Y1210030I-1013J0D01*
G01*
X16013Y1162400D02*
G03*
X16013Y1162400I-1013J0D01*
G01*
X16650Y1171000D02*
G03*
X16650Y1171000I-1650J0D01*
G01*
X18013Y1182650D02*
G03*
X18013Y1182650I-1013J0D01*
G01*
X25013Y1182400D02*
G03*
X25013Y1182400I-1013J0D01*
G01*
X364330Y728732D02*
G03*
X364330Y728732I-1013J0D01*
G01*
X402632D02*
G03*
X402632Y728732I-1013J0D01*
G01*
X647175Y69997D02*
G03*
X647175Y69997I-1013J0D01*
G01*
Y76997D02*
G03*
X647175Y76997I-1013J0D01*
G01*
X50663Y847016D02*
G03*
X50663Y847016I-1013J0D01*
G01*
X406834Y757239D02*
G03*
X406834Y757239I-1013J0D01*
G01*
X444430Y728732D02*
G03*
X444430Y728732I-1013J0D01*
G01*
X342084Y770489D02*
G03*
X342084Y770489I-1013J0D01*
G01*
X399834Y768739D02*
G03*
X399834Y768739I-1013J0D01*
G01*
Y757239D02*
G03*
X399834Y757239I-1013J0D01*
G01*
X413632Y720882D02*
G03*
X413632Y720882I-1013J0D01*
G01*
X371632Y728732D02*
G03*
X371632Y728732I-1013J0D01*
G01*
X413632Y732382D02*
G03*
X413632Y732382I-1013J0D01*
G01*
X117113Y216210D02*
G03*
X117113Y216210I-1013J0D01*
G01*
X663144Y151040D02*
G03*
X663144Y151040I-1013J0D01*
G01*
X559144Y130540D02*
G03*
X559144Y130540I-1013J0D01*
G01*
X941089Y688000D02*
G03*
X941089Y688000I-1013J0D01*
G01*
X951667D02*
G03*
X951667Y688000I-1013J0D01*
G01*
X880370Y699851D02*
G03*
X880370Y699851I-1013J0D01*
G01*
X869772Y699850D02*
G03*
X869772Y699850I-1013J0D01*
G01*
X833013Y737668D02*
G03*
X833013Y737668I-1013J0D01*
G01*
X827013D02*
G03*
X827013Y737668I-1013J0D01*
G01*
X869013D02*
G03*
X869013Y737668I-1013J0D01*
G01*
X863013D02*
G03*
X863013Y737668I-1013J0D01*
G01*
X776763Y400000D02*
G03*
X776763Y400000I-1013J0D01*
G01*
X784263D02*
G03*
X784263Y400000I-1013J0D01*
G01*
X816763Y367000D02*
G03*
X816763Y367000I-1013J0D01*
G01*
X810763D02*
G03*
X810763Y367000I-1013J0D01*
G01*
X835920Y324836D02*
G03*
X835920Y324836I-1013J0D01*
G01*
X840870Y329786D02*
G03*
X840870Y329786I-1013J0D01*
G01*
X383475Y268267D02*
G03*
X383475Y268267I-1013J0D01*
G01*
X390475D02*
G03*
X390475Y268267I-1013J0D01*
G01*
X702362Y258805D02*
G03*
X702362Y258805I-1013J0D01*
G01*
X702327Y265100D02*
G03*
X702327Y265100I-1013J0D01*
G01*
X378763Y255500D02*
G03*
X378763Y255500I-1013J0D01*
G01*
X371763D02*
G03*
X371763Y255500I-1013J0D01*
G01*
X449763Y268270D02*
G03*
X449763Y268270I-1013J0D01*
G01*
X443763D02*
G03*
X443763Y268270I-1013J0D01*
G01*
X19263Y1133400D02*
G03*
X19263Y1133400I-1013J0D01*
G01*
X179933Y77240D02*
G03*
X179933Y77240I-1013J0D01*
G01*
Y63240D02*
G03*
X179933Y63240I-1013J0D01*
G01*
X406833Y768740D02*
G03*
X406833Y768740I-1013J0D01*
G01*
X162613Y734750D02*
G03*
X162613Y734750I-1013J0D01*
G01*
X171865Y730200D02*
G03*
X171865Y730200I-1013J0D01*
G01*
X199150Y97000D02*
G03*
X199150Y97000I-1650J0D01*
G01*
X168513Y132000D02*
G03*
X168513Y132000I-1013J0D01*
G01*
X155513D02*
G03*
X155513Y132000I-1013J0D01*
G01*
X198513Y125500D02*
G03*
X198513Y125500I-1013J0D01*
G01*
X143513Y111000D02*
G03*
X143513Y111000I-1013J0D01*
G01*
X187000Y97000D02*
G03*
X187000Y97000I-2500J0D01*
G01*
X143513Y119000D02*
G03*
X143513Y119000I-1013J0D01*
G01*
X117178Y852412D02*
G03*
X117178Y852412I-2500J0D01*
G01*
Y871412D02*
G03*
X117178Y871412I-2500J0D01*
G01*
X459013Y752912D02*
G03*
X459013Y752912I-1013J0D01*
G01*
X130584Y486531D02*
G03*
X130584Y486531I-1013J0D01*
G01*
X130583Y477087D02*
G03*
X130583Y477087I-1013J0D01*
G01*
X131220Y467000D02*
G03*
X131220Y467000I-1650J0D01*
G01*
X130584Y495971D02*
G03*
X130584Y495971I-1013J0D01*
G01*
X45263Y1103650D02*
G03*
X45263Y1103650I-1013J0D01*
G01*
X130583Y457000D02*
G03*
X130583Y457000I-1013J0D01*
G01*
X244013Y87751D02*
G03*
X244013Y87751I-1013J0D01*
G01*
X198513Y113000D02*
G03*
X198513Y113000I-1013J0D01*
G01*
X244013Y100251D02*
G03*
X244013Y100251I-1013J0D01*
G01*
X230113Y158410D02*
G03*
X230113Y158410I-1013J0D01*
G01*
X61663Y832016D02*
G03*
X61663Y832016I-1013J0D01*
G01*
X75663D02*
G03*
X75663Y832016I-1013J0D01*
G01*
X542645Y135290D02*
G03*
X542645Y135290I-1013J0D01*
G01*
Y143290D02*
G03*
X542645Y143290I-1013J0D01*
G01*
X333673Y727730D02*
G03*
X333673Y727730I-1013J0D01*
G01*
X46951Y898155D02*
G03*
X46951Y898155I-1013J0D01*
G01*
X36202Y891905D02*
G03*
X36202Y891905I-1013J0D01*
G01*
X46951Y889155D02*
G03*
X46951Y889155I-1013J0D01*
G01*
X218013Y87751D02*
G03*
X218013Y87751I-1013J0D01*
G01*
X225013D02*
G03*
X225013Y87751I-1013J0D01*
G01*
X232013D02*
G03*
X232013Y87751I-1013J0D01*
G01*
X562132Y201530D02*
X587531Y201530D01*
X562132Y171050D02*
X587531Y171050D01*
X587531Y201530D02*
X587531Y171050D01*
X562132Y171050D02*
X562132Y201530D01*
X574832Y181290D02*
Y191290D01*
X569832Y186290D02*
X579832Y186290D01*
X58421Y494030D02*
X68581D01*
X63501Y488950D02*
Y499110D01*
X8891Y529590D02*
X116841D01*
Y459740D02*
Y529590D01*
X8891Y459740D02*
X116841D01*
X8891D02*
Y529590D01*
X668821Y1379411D02*
X766821D01*
X668821Y1423410D02*
X766821D01*
X668821Y1379411D02*
Y1423410D01*
X766821Y1379411D02*
Y1423410D01*
X717821Y1396411D02*
Y1406411D01*
X712821Y1401411D02*
X722821D01*
X694415Y379990D02*
X797414D01*
X694415Y276990D02*
X797414D01*
Y379990D01*
X694415Y276990D02*
Y379990D01*
X745915Y323490D02*
Y333490D01*
X740915Y328490D02*
X750915D01*
X806710Y793700D02*
X875290D01*
X806710Y755600D02*
X875290Y755600D01*
X875290Y793700D02*
X875290Y755600D01*
X806710Y755600D02*
Y793700D01*
X841000Y769650D02*
Y779650D01*
X836000Y774650D02*
X846000D01*
X67650Y852016D02*
X67650Y842016D01*
X62650Y847016D02*
X72650D01*
X54950Y857176D02*
X80350D01*
X54950Y836856D02*
X80350D01*
X54950D02*
Y857176D01*
X80350Y836856D02*
Y857176D01*
X138419Y1293982D02*
X138419Y1327002D01*
X179059D02*
X179059Y1293982D01*
X138419Y1327002D02*
X179059D01*
X138419Y1293982D02*
X179059D01*
X158739Y1310492D02*
Y1314302D01*
X154929Y1310492D02*
X158739D01*
Y1306682D02*
Y1310492D01*
X162549D01*
X143000Y1387580D02*
X153000D01*
Y1397580D01*
Y1387580D02*
X163000D01*
X153000Y1377580D02*
Y1387580D01*
X172050Y1365990D02*
X172050Y1409170D01*
X133950Y1365990D02*
X172050Y1365990D01*
X133950Y1409170D02*
X133950Y1365990D01*
X133950Y1409170D02*
X172050D01*
X96950Y1409170D02*
X135050Y1409170D01*
X96950Y1409170D02*
X96950Y1365990D01*
X135050D01*
X135050Y1409170D02*
X135050Y1365990D01*
X116000Y1377580D02*
Y1387580D01*
X126000D01*
X116000D02*
Y1397580D01*
X106000Y1387580D02*
X116000D01*
X4950Y1335830D02*
X43050Y1335830D01*
X43050Y1379010D02*
X43050Y1335830D01*
X4950Y1379010D02*
X43050Y1379010D01*
X4950Y1335830D02*
Y1379010D01*
X24000Y1357420D02*
Y1367420D01*
X14000Y1357420D02*
X24000Y1357420D01*
Y1347420D02*
Y1357420D01*
X34000Y1357420D01*
X61000Y1357420D02*
X71000Y1357420D01*
X61000Y1347420D02*
Y1357420D01*
X51000Y1357420D02*
X61000Y1357420D01*
Y1367420D01*
X41950Y1335830D02*
X41950Y1379010D01*
X80050Y1379010D01*
X80050Y1335830D02*
X80050Y1379010D01*
X41950Y1335830D02*
X80050Y1335830D01*
X212500Y97500D02*
X235500D01*
Y124500D01*
X212500D02*
X235500D01*
X212500Y97500D02*
Y124500D01*
X224000Y105920D02*
Y116080D01*
X218920Y111000D02*
X229080D01*
X40000Y1304150D02*
Y1314150D01*
X35000Y1309150D02*
X45000Y1309150D01*
X19000Y1291150D02*
X61000D01*
X19000Y1327150D02*
X61000Y1327150D01*
Y1291150D02*
Y1327150D01*
X19000Y1291150D02*
X19000Y1327150D01*
X732500Y8999D02*
Y15999D01*
X729000Y12499D02*
X736000D01*
X740200Y4799D02*
Y20199D01*
X724800D02*
X740200D01*
X724800Y4799D02*
Y20199D01*
Y4799D02*
X740200D01*
X212175Y30865D02*
X219175D01*
Y23865D02*
Y30865D01*
X226175D01*
X219175D02*
Y37865D01*
X183175Y865D02*
X255175D01*
X183175D02*
Y59865D01*
X255175D01*
Y865D02*
Y59865D01*
X176245Y1522790D02*
X178785D01*
X162275Y1531680D02*
X190215D01*
X162275Y1513900D02*
X190215D01*
X162275D02*
Y1531680D01*
X190215Y1513900D02*
Y1531680D01*
X176245Y1522790D02*
Y1525330D01*
X173705Y1522790D02*
X176245D01*
Y1520250D02*
Y1522790D01*
X190850Y111150D02*
X190850Y137850D01*
X178150Y111150D02*
Y137850D01*
Y111150D02*
X190850D01*
X181050Y124500D02*
X187950Y124500D01*
X184500Y121050D02*
X184500Y127950D01*
X178150Y137850D02*
X190850Y137850D01*
X735560Y36840D02*
Y118340D01*
X654060Y36840D02*
Y118340D01*
Y36840D02*
X735560D01*
X654060Y118340D02*
X735560D01*
X689810Y77590D02*
X699810D01*
X694810Y72590D02*
Y82590D01*
X92000Y966655D02*
X176000D01*
Y892655D02*
Y966655D01*
X92000Y892655D02*
X176000D01*
X92000D02*
Y966655D01*
X134000Y919655D02*
Y929655D01*
Y939655D01*
X124000Y929655D02*
X134000Y929655D01*
X144000Y929655D01*
X415914Y328490D02*
Y338490D01*
X405914Y328490D02*
X415914D01*
Y318490D02*
Y328490D01*
X425914D01*
X363414Y380990D02*
X468414D01*
X363414Y275990D02*
Y380990D01*
Y275990D02*
X468414D01*
Y380990D01*
X710110Y225290D02*
X735510Y225290D01*
X710110Y225290D02*
X710110Y199890D01*
X735510Y225290D02*
X735510Y199890D01*
X717810Y212590D02*
X727810D01*
X722810Y207590D02*
Y217590D01*
X710110Y199890D02*
X735510Y199890D01*
X39650Y783190D02*
X39650Y793190D01*
X34650Y788190D02*
X44650D01*
X26400Y774940D02*
X52900D01*
X26400Y801440D02*
X52900Y801440D01*
Y774940D02*
Y801440D01*
X26400Y801440D02*
X26400Y774940D01*
X60000Y929655D02*
Y939655D01*
Y919655D02*
Y929655D01*
X70000D01*
X50000D02*
X60000D01*
X30000Y903655D02*
Y955655D01*
X90000D01*
X30000Y903655D02*
X90000D01*
Y955655D01*
X778821Y794360D02*
Y1374360D01*
X198821Y794360D02*
Y1374360D01*
Y794360D02*
X778821D01*
X198821Y1374360D02*
X778821D01*
X227781Y229987D02*
Y453507D01*
Y229987D02*
X321761D01*
Y453507D01*
X227781D02*
X321761D01*
X983261Y673190D02*
Y678990D01*
X980361Y676090D02*
X986161D01*
X971361Y681890D02*
X995161D01*
X971361Y670290D02*
Y681890D01*
Y670290D02*
X995161D01*
Y681890D01*
X593432Y207540D02*
X597831D01*
X595631Y205340D02*
X595631Y209740D01*
X591231Y198540D02*
X591231Y216540D01*
X591231Y198540D02*
X600032Y198540D01*
Y216540D01*
X591231Y216540D02*
X600032Y216540D01*
X691050Y251290D02*
X724070Y251290D01*
X702560Y238590D02*
X712560D01*
X707560Y233590D02*
Y243590D01*
X691050Y251290D02*
X691050Y225890D01*
X724070Y225890D02*
Y251290D01*
X691050Y225890D02*
X724070Y225890D01*
X919016Y693950D02*
X1010161D01*
Y800630D01*
X953016Y757290D02*
X953016Y747290D01*
X963016D01*
X953016Y737290D02*
X953016Y747290D01*
X943016D02*
X953016D01*
X919016Y693950D02*
Y800630D01*
X1010161D01*
X196002Y767500D02*
X324002D01*
X196002Y697500D02*
Y767500D01*
Y688500D02*
Y697500D01*
Y688500D02*
X323002D01*
X324002D01*
Y767500D01*
X237502Y741000D02*
X260002D01*
Y718500D02*
Y741000D01*
X282502D01*
X260002D02*
Y763500D01*
X730750Y610000D02*
X770750D01*
X730750Y570000D02*
X770750D01*
Y610000D01*
X730750Y570000D02*
Y610000D01*
X750750Y585000D02*
Y595000D01*
X745750Y590000D02*
X755750D01*
X350821Y751489D02*
X390821D01*
X350821Y775489D02*
X390821D01*
X350821Y751489D02*
Y775489D01*
X390821Y751489D02*
Y775489D01*
X370821Y758489D02*
Y768489D01*
X365821Y763489D02*
X375821D01*
X924000Y406750D02*
Y413100D01*
Y400400D02*
Y406750D01*
X930350D01*
X917650D02*
X924000D01*
X844000Y331750D02*
Y481750D01*
X1024000D01*
Y331750D02*
Y481750D01*
X844000Y331750D02*
X1024000D01*
X870750Y575000D02*
Y590000D01*
X855750D02*
X870750D01*
Y605000D01*
Y590000D02*
X885750D01*
X787250Y547000D02*
Y633000D01*
Y547000D02*
X1022000D01*
Y560500D01*
Y633000D01*
X787250D02*
X1022000D01*
X751116Y70044D02*
Y75444D01*
X740516Y70044D02*
X751116D01*
X740516D02*
Y75444D01*
X751116D01*
X744466Y72744D02*
X747166D01*
X745816Y71394D02*
Y74094D01*
X671650Y26050D02*
X674350D01*
X673000Y24700D02*
Y27400D01*
X675700Y20750D02*
Y31350D01*
X670300D02*
X675700D01*
X670300Y20750D02*
Y31350D01*
Y20750D02*
X675700D01*
X649650Y129000D02*
X652350D01*
X651000Y127650D02*
Y130350D01*
X648300Y123700D02*
Y134300D01*
Y123700D02*
X653700D01*
Y134300D01*
X648300D02*
X653700D01*
X676100Y20750D02*
X681500D01*
X676100D02*
Y31350D01*
X681500D01*
Y20750D02*
Y31350D01*
X678800Y24700D02*
Y27400D01*
X677450Y26050D02*
X680150D01*
X751110Y93890D02*
Y99290D01*
X740510Y93890D02*
X751110D01*
X740510D02*
Y99290D01*
X751110D01*
X744460Y96590D02*
X747160D01*
X745810Y95240D02*
Y97940D01*
X751110Y41890D02*
Y47290D01*
X740510Y41890D02*
X751110D01*
X740510D02*
Y47290D01*
X751110D01*
X744460Y44590D02*
X747160D01*
X745810Y43240D02*
Y45940D01*
Y117240D02*
Y119940D01*
X744460Y118590D02*
X747160D01*
X740510Y121290D02*
X751110D01*
X740510Y115890D02*
Y121290D01*
Y115890D02*
X751110D01*
Y121290D01*
X745810Y104240D02*
Y106940D01*
X744460Y105590D02*
X747160D01*
X740510Y108290D02*
X751110D01*
X740510Y102890D02*
Y108290D01*
Y102890D02*
X751110D01*
Y108290D01*
Y109640D02*
Y115040D01*
X740510Y109640D02*
X751110D01*
X740510D02*
Y115040D01*
X751110D01*
X744460Y112340D02*
X747160D01*
X745810Y110990D02*
Y113690D01*
X706650Y123000D02*
X709350D01*
X708000Y121650D02*
Y124350D01*
X705300Y117700D02*
Y128300D01*
Y117700D02*
X710700D01*
Y128300D01*
X705300D02*
X710700D01*
X738110Y118890D02*
Y124290D01*
X727510Y118890D02*
X738110D01*
X727510D02*
Y124290D01*
X738110D01*
X731460Y121590D02*
X734160D01*
X732810Y120240D02*
Y122940D01*
X738381Y127420D02*
Y130120D01*
X737031Y128770D02*
X739731D01*
X733081Y126070D02*
X743681D01*
Y131470D01*
X733081D02*
X743681D01*
X733081Y126070D02*
Y131470D01*
X694300Y129000D02*
Y134400D01*
X683700Y129000D02*
X694300D01*
X683700D02*
Y134400D01*
X694300D01*
X687650Y131700D02*
X690350D01*
X689000Y130350D02*
Y133050D01*
X695700Y129000D02*
Y134400D01*
X706300D01*
Y129000D02*
Y134400D01*
X695700Y129000D02*
X706300D01*
X699650Y131700D02*
X702350D01*
X701000Y130350D02*
Y133050D01*
X689000Y124350D02*
Y127050D01*
X687650Y125700D02*
X690350D01*
X683700Y123000D02*
X694300D01*
Y128400D01*
X683700D02*
X694300D01*
X683700Y123000D02*
Y128400D01*
X846950Y732118D02*
Y743218D01*
X841050Y732118D02*
Y743218D01*
X846950D01*
X841050Y732118D02*
X846950D01*
X844000Y736318D02*
Y739018D01*
X842650Y737668D02*
X845350D01*
X840950Y732118D02*
Y743218D01*
X835050Y732118D02*
Y743218D01*
X840950D01*
X835050Y732118D02*
X840950D01*
X838000Y736318D02*
Y739018D01*
X836650Y737668D02*
X839350D01*
X858950Y732118D02*
Y743218D01*
X853050Y732118D02*
Y743218D01*
X858950D01*
X853050Y732118D02*
X858950D01*
X856000Y736318D02*
Y739018D01*
X854650Y737668D02*
X857350D01*
X852950Y732118D02*
Y743218D01*
X847050Y732118D02*
Y743218D01*
X852950D01*
X847050Y732118D02*
X852950D01*
X850000Y736318D02*
Y739018D01*
X848650Y737668D02*
X851350D01*
X841650Y800412D02*
X844350Y800412D01*
X843000Y799062D02*
X843000Y801762D01*
X840300Y795112D02*
Y805712D01*
Y795112D02*
X845700D01*
Y805712D01*
X840300D02*
X845700D01*
X857650Y749118D02*
X860350D01*
X859000Y747768D02*
Y750468D01*
X861700Y743818D02*
Y754418D01*
X856300Y754418D02*
X861700Y754418D01*
X856300Y743818D02*
X856300Y754418D01*
X856300Y743818D02*
X861700D01*
X853650Y800412D02*
X856350D01*
X855000Y799062D02*
Y801762D01*
X852300Y795112D02*
Y805712D01*
Y795112D02*
X857700D01*
Y805712D01*
X852300Y805712D02*
X857700Y805712D01*
X845650Y749118D02*
X848350D01*
X847000Y747768D02*
X847000Y750468D01*
X849700Y754418D02*
X849700Y743818D01*
X844300Y754418D02*
X849700D01*
X844300D02*
X844300Y743818D01*
X849700Y743818D01*
X821650Y749118D02*
X824350D01*
X823000Y747768D02*
Y750468D01*
X825700Y743818D02*
X825700Y754418D01*
X820300Y754418D02*
X825700Y754418D01*
X820300Y743818D02*
Y754418D01*
Y743818D02*
X825700Y743818D01*
X833650Y749118D02*
X836350Y749118D01*
X835000Y747768D02*
X835000Y750468D01*
X837700Y743818D02*
Y754418D01*
X832300D02*
X837700D01*
X832300Y743818D02*
X832300Y754418D01*
X832300Y743818D02*
X837700D01*
X829650Y800412D02*
X832350Y800412D01*
X831000Y799062D02*
Y801762D01*
X828300Y805712D02*
X828300Y795112D01*
X833700D01*
X833700Y805712D02*
X833700Y795112D01*
X828300Y805712D02*
X833700Y805712D01*
X431121Y1390407D02*
X436521Y1390407D01*
Y1379807D02*
Y1390407D01*
X431121Y1379807D02*
X436521Y1379807D01*
X431121Y1379807D02*
Y1390407D01*
X433821Y1383757D02*
Y1386457D01*
X432471Y1385107D02*
X435171D01*
X548161Y1391340D02*
X550861D01*
X549511Y1389990D02*
Y1392690D01*
X546811Y1396640D02*
X546811Y1386040D01*
X552211Y1386040D01*
Y1396640D01*
X546811Y1396640D02*
X552211Y1396640D01*
X662811Y1397390D02*
X668211D01*
Y1386790D02*
Y1397390D01*
X662811Y1386790D02*
X668211Y1386790D01*
X662811Y1386790D02*
Y1397390D01*
X665511Y1390740D02*
Y1393440D01*
X664161Y1392090D02*
X666861Y1392090D01*
X753237Y547300D02*
Y550000D01*
X751887Y548650D02*
X754587D01*
X747937Y545950D02*
X758537D01*
Y551350D01*
X747937D02*
X758537D01*
X747937Y545950D02*
Y551350D01*
Y551950D02*
Y557350D01*
X758537D01*
Y551950D02*
Y557350D01*
X747937Y551950D02*
X758537D01*
X751887Y554650D02*
X754587D01*
X753237Y553300D02*
Y556000D01*
X743450Y622650D02*
Y628050D01*
X754050D01*
Y622650D02*
Y628050D01*
X743450Y622650D02*
X754050D01*
X747400Y625350D02*
X750100D01*
X748750Y624000D02*
Y626700D01*
Y630000D02*
Y632700D01*
X747400Y631350D02*
X750100D01*
X743450Y628650D02*
X754050D01*
Y634050D01*
X743450D02*
X754050D01*
X743450Y628650D02*
Y634050D01*
X741050Y622650D02*
Y628050D01*
X730450Y622650D02*
X741050D01*
X730450D02*
Y628050D01*
X741050D01*
X734400Y625350D02*
X737100D01*
X735750Y624000D02*
Y626700D01*
Y630000D02*
Y632700D01*
X734400Y631350D02*
X737100D01*
X730450Y634050D02*
X741050D01*
X730450Y628650D02*
Y634050D01*
Y628650D02*
X741050D01*
Y634050D01*
X770037Y545950D02*
Y551350D01*
X759437Y545950D02*
X770037D01*
X759437D02*
Y551350D01*
X770037D01*
X763387Y548650D02*
X766087D01*
X764737Y547300D02*
Y550000D01*
Y553300D02*
Y556000D01*
X763387Y554650D02*
X766087D01*
X759437Y557350D02*
X770037D01*
X759437Y551950D02*
Y557350D01*
Y551950D02*
X770037D01*
Y557350D01*
X723737Y547300D02*
Y550000D01*
X722387Y548650D02*
X725087D01*
X718437Y551350D02*
X729037D01*
X718437Y545950D02*
Y551350D01*
Y545950D02*
X729037D01*
Y551350D01*
Y551950D02*
Y557350D01*
X718437Y551950D02*
X729037D01*
X718437D02*
Y557350D01*
X729037D01*
X722387Y554650D02*
X725087D01*
X723737Y553300D02*
Y556000D01*
X757450Y622650D02*
Y628050D01*
X768050D01*
Y622650D02*
Y628050D01*
X757450Y622650D02*
X768050D01*
X761400Y625350D02*
X764100D01*
X762750Y624000D02*
Y626700D01*
Y630000D02*
Y632700D01*
X761400Y631350D02*
X764100D01*
X757450Y628650D02*
X768050D01*
Y634050D01*
X757450D02*
X768050D01*
X757450Y628650D02*
Y634050D01*
X768565Y270490D02*
X771264D01*
X769914Y269140D02*
Y271840D01*
X772615Y265190D02*
Y275790D01*
X767215D02*
X772615D01*
X767215Y265190D02*
Y275790D01*
Y265190D02*
X772615D01*
X803914Y291140D02*
Y293840D01*
X802564Y292490D02*
X805265D01*
X798615Y295190D02*
X809214D01*
X798615Y289790D02*
Y295190D01*
Y289790D02*
X809214D01*
Y295190D01*
X803914Y341140D02*
Y343840D01*
X802564Y342490D02*
X805265D01*
X798615Y345190D02*
X809214D01*
X798615Y339790D02*
Y345190D01*
Y339790D02*
X809214D01*
Y345190D01*
X795886Y385423D02*
X798586D01*
X797236Y384073D02*
Y386773D01*
X794536Y380123D02*
Y390723D01*
Y380123D02*
X799936D01*
Y390723D01*
X794536D02*
X799936D01*
X803914Y309140D02*
Y311840D01*
X802564Y310490D02*
X805265D01*
X798615Y313190D02*
X809214D01*
X798615Y307790D02*
Y313190D01*
Y307790D02*
X809214D01*
Y313190D01*
X803914Y321140D02*
Y323840D01*
X802564Y322490D02*
X805265D01*
X798615Y325190D02*
X809214D01*
X798615Y319790D02*
Y325190D01*
Y319790D02*
X809214D01*
Y325190D01*
X785000Y381400D02*
Y384100D01*
X783650Y382750D02*
X786350D01*
X779700Y385450D02*
X790300D01*
X779700Y380050D02*
Y385450D01*
Y380050D02*
X790300D01*
Y385450D01*
X688165Y357140D02*
Y359840D01*
X686814Y358490D02*
X689514D01*
X682865Y355790D02*
X693465D01*
Y361190D01*
X682865D02*
X693465D01*
X682865Y355790D02*
Y361190D01*
X687915Y339140D02*
Y341840D01*
X686564Y340490D02*
X689265D01*
X682615Y337790D02*
X693214D01*
Y343190D01*
X682615D02*
X693214D01*
X682615Y337790D02*
Y343190D01*
X687915Y327140D02*
Y329840D01*
X686564Y328490D02*
X689265D01*
X682615Y325790D02*
X693214D01*
Y331190D01*
X682615D02*
X693214D01*
X682615Y325790D02*
Y331190D01*
X774565Y270490D02*
X777264D01*
X775915Y269140D02*
Y271840D01*
X778615Y265190D02*
Y275790D01*
X773214D02*
X778615D01*
X773214Y265190D02*
Y275790D01*
Y265190D02*
X778615D01*
X706610Y270540D02*
Y275940D01*
X696010Y270540D02*
X706610D01*
X696010D02*
Y275940D01*
X706610D01*
X699960Y273240D02*
X702660D01*
X701310Y271890D02*
Y274590D01*
X687915Y321140D02*
Y323840D01*
X686564Y322490D02*
X689265D01*
X682615Y319790D02*
X693214D01*
Y325190D01*
X682615D02*
X693214D01*
X682615Y319790D02*
Y325190D01*
X803914Y303140D02*
Y305840D01*
X802564Y304490D02*
X805265D01*
X798615Y307190D02*
X809214D01*
X798615Y301790D02*
Y307190D01*
Y301790D02*
X809214D01*
Y307190D01*
X750564Y270490D02*
X753264D01*
X751915Y269140D02*
Y271840D01*
X754614Y265190D02*
Y275790D01*
X749214D02*
X754614D01*
X749214Y265190D02*
Y275790D01*
Y265190D02*
X754614D01*
X738565Y270490D02*
X741264D01*
X739914Y269140D02*
Y271840D01*
X742615Y265190D02*
Y275790D01*
X737215D02*
X742615D01*
X737215Y265190D02*
Y275790D01*
Y265190D02*
X742615D01*
X704915Y387490D02*
X707615D01*
X706265Y386140D02*
Y388840D01*
X703565Y382190D02*
Y392790D01*
Y382190D02*
X708965D01*
Y392790D01*
X703565D02*
X708965D01*
X723915Y383140D02*
Y385840D01*
X722564Y384490D02*
X725265D01*
X718615Y381790D02*
X729214D01*
Y387190D01*
X718615D02*
X729214D01*
X718615Y381790D02*
Y387190D01*
X741215Y381790D02*
Y387190D01*
X730615Y381790D02*
X741215D01*
X730615D02*
Y387190D01*
X741215D01*
X734565Y384490D02*
X737265D01*
X735915Y383140D02*
Y385840D01*
X453444Y394790D02*
X458844D01*
Y384190D02*
Y394790D01*
X453444Y384190D02*
X458844D01*
X453444D02*
Y394790D01*
X456144Y388140D02*
Y390840D01*
X454794Y389490D02*
X457494D01*
X422885Y258997D02*
X425585D01*
X424235Y257647D02*
Y260347D01*
X426935Y253697D02*
Y264297D01*
X421535D02*
X426935D01*
X421535Y253697D02*
Y264297D01*
Y253697D02*
X426935D01*
X482164Y302290D02*
Y307690D01*
X471564Y302290D02*
X482164D01*
X471564D02*
Y307690D01*
X482164D01*
X475514Y304990D02*
X478214D01*
X476865Y303640D02*
Y306340D01*
X482164Y310790D02*
Y316190D01*
X471564Y310790D02*
X482164D01*
X471564D02*
Y316190D01*
X482164D01*
X475514Y313490D02*
X478214D01*
X476865Y312140D02*
Y314840D01*
X343528Y286609D02*
X348928Y286609D01*
X343528Y286609D02*
Y297209D01*
X348928Y297209D01*
Y286609D02*
Y297209D01*
X346228Y290559D02*
Y293259D01*
X344878Y291909D02*
X347578D01*
X338878D02*
X341578D01*
X340228Y290559D02*
Y293259D01*
X342928Y286609D02*
Y297209D01*
X337528D02*
X342928D01*
X337528Y286609D02*
Y297209D01*
Y286609D02*
X342928D01*
X745000Y122150D02*
X753800D01*
X745000D02*
Y140150D01*
X753800D01*
Y122150D02*
Y140150D01*
X749400Y128950D02*
Y133350D01*
X747200Y131150D02*
X751600D01*
X748487Y536200D02*
Y540600D01*
X746287Y538400D02*
X750687D01*
X739487Y534000D02*
X757487D01*
Y542800D01*
X739487D02*
X757487D01*
X739487Y534000D02*
Y542800D01*
X744350Y652350D02*
X753150D01*
Y634350D02*
Y652350D01*
X744350Y634350D02*
X753150D01*
X744350D02*
Y652350D01*
X748750Y641150D02*
Y645550D01*
X746550Y643350D02*
X750950D01*
X731350Y652350D02*
X740150D01*
Y634350D02*
Y652350D01*
X731350Y634350D02*
X740150D01*
X731350D02*
Y652350D01*
X735750Y641150D02*
Y645550D01*
X733550Y643350D02*
X737950D01*
X769487Y536200D02*
Y540600D01*
X767287Y538400D02*
X771687D01*
X760487Y542800D02*
X778487D01*
X760487Y534000D02*
Y542800D01*
Y534000D02*
X778487D01*
Y542800D01*
X728487Y536200D02*
Y540600D01*
X726287Y538400D02*
X730687D01*
X719487Y542800D02*
X737487D01*
X719487Y534000D02*
Y542800D01*
Y534000D02*
X737487D01*
Y542800D01*
X758350Y652350D02*
X767150D01*
Y634350D02*
Y652350D01*
X758350Y634350D02*
X767150D01*
X758350D02*
Y652350D01*
X762750Y641150D02*
Y645550D01*
X760550Y643350D02*
X764950D01*
X696065Y389490D02*
X700465D01*
X698265Y387290D02*
Y391690D01*
X702665Y380490D02*
Y398490D01*
X693865D02*
X702665D01*
X693865Y380490D02*
Y398490D01*
Y380490D02*
X702665D01*
X445985Y247347D02*
Y256147D01*
X427985Y247347D02*
X445985D01*
X427985D02*
Y256147D01*
X445985D01*
X434785Y251747D02*
X439185D01*
X436985Y249547D02*
Y253947D01*
X268915Y221143D02*
X277117Y212940D01*
X260288Y196111D02*
X277117Y212940D01*
X252085Y204313D02*
X260288Y196111D01*
X252085Y204313D02*
X268915Y221143D01*
X262551Y206576D02*
X266652Y210677D01*
X262551D02*
X266652Y206576D01*
X289915Y221143D02*
X298117Y212940D01*
X281288Y196111D02*
X298117Y212940D01*
X273085Y204313D02*
X281288Y196111D01*
X273085Y204313D02*
X289915Y221143D01*
X283551Y206576D02*
X287652Y210677D01*
X283551D02*
X287652Y206576D01*
X310915Y221143D02*
X319117Y212940D01*
X302288Y196111D02*
X319117Y212940D01*
X294085Y204313D02*
X302288Y196111D01*
X294085Y204313D02*
X310915Y221143D01*
X304551Y206576D02*
X308652Y210677D01*
X304551D02*
X308652Y206576D01*
X331915Y221143D02*
X340117Y212940D01*
X323288Y196111D02*
X340117Y212940D01*
X315085Y204313D02*
X323288Y196111D01*
X315085Y204313D02*
X331915Y221143D01*
X325551Y206576D02*
X329652Y210677D01*
X325551D02*
X329652Y206576D01*
X352915Y221143D02*
X361117Y212940D01*
X344288Y196111D02*
X361117Y212940D01*
X336085Y204313D02*
X344288Y196111D01*
X336085Y204313D02*
X352915Y221143D01*
X346551Y206576D02*
X350652Y210677D01*
X346551D02*
X350652Y206576D01*
X367551Y210677D02*
X371652Y206576D01*
X367551D02*
X371652Y210677D01*
X357085Y204313D02*
X373914Y221143D01*
X357085Y204313D02*
X365288Y196111D01*
X382117Y212940D01*
X373914Y221143D02*
X382117Y212940D01*
X394915Y221143D02*
X403117Y212940D01*
X386288Y196111D02*
X403117Y212940D01*
X378085Y204313D02*
X386288Y196111D01*
X378085Y204313D02*
X394915Y221143D01*
X388551Y206576D02*
X392652Y210677D01*
X388551D02*
X392652Y206576D01*
X415915Y221143D02*
X424117Y212940D01*
X407288Y196111D02*
X424117Y212940D01*
X399085Y204313D02*
X407288Y196111D01*
X399085Y204313D02*
X415915Y221143D01*
X409551Y206576D02*
X413652Y210677D01*
X409551D02*
X413652Y206576D01*
X436914Y221143D02*
X445117Y212940D01*
X428288Y196111D02*
X445117Y212940D01*
X420085Y204313D02*
X428288Y196111D01*
X420085Y204313D02*
X436914Y221143D01*
X430551Y206576D02*
X434652Y210677D01*
X430551D02*
X434652Y206576D01*
X457915Y221143D02*
X466117Y212940D01*
X449288Y196111D02*
X466117Y212940D01*
X441085Y204313D02*
X449288Y196111D01*
X441085Y204313D02*
X457915Y221143D01*
X451551Y206576D02*
X455652Y210677D01*
X451551D02*
X455652Y206576D01*
X478915Y221143D02*
X487117Y212940D01*
X470288Y196111D02*
X487117Y212940D01*
X462085Y204313D02*
X470288Y196111D01*
X462085Y204313D02*
X478915Y221143D01*
X472551Y206576D02*
X476652Y210677D01*
X472551D02*
X476652Y206576D01*
X499915Y221143D02*
X508117Y212940D01*
X491288Y196111D02*
X508117Y212940D01*
X483085Y204313D02*
X491288Y196111D01*
X483085Y204313D02*
X499915Y221143D01*
X493551Y206576D02*
X497652Y210677D01*
X493551D02*
X497652Y206576D01*
X520915Y221143D02*
X529117Y212940D01*
X512288Y196111D02*
X529117Y212940D01*
X504085Y204313D02*
X512288Y196111D01*
X504085Y204313D02*
X520915Y221143D01*
X514551Y206576D02*
X518652Y210677D01*
X514551D02*
X518652Y206576D01*
X268915Y200143D02*
X277117Y191940D01*
X260288Y175111D02*
X277117Y191940D01*
X252085Y183313D02*
X260288Y175111D01*
X252085Y183313D02*
X268915Y200143D01*
X262551Y185576D02*
X266652Y189677D01*
X262551D02*
X266652Y185576D01*
X289914Y200143D02*
X298117Y191940D01*
X281288Y175111D02*
X298117Y191940D01*
X273085Y183313D02*
X281288Y175111D01*
X273085Y183313D02*
X289914Y200143D01*
X283551Y185576D02*
X287652Y189677D01*
X283551D02*
X287652Y185576D01*
X310914Y200143D02*
X319117Y191940D01*
X302288Y175111D02*
X319117Y191940D01*
X294085Y183313D02*
X302288Y175111D01*
X294085Y183313D02*
X310914Y200143D01*
X304551Y185576D02*
X308652Y189677D01*
X304551D02*
X308652Y185576D01*
X331915Y200143D02*
X340117Y191940D01*
X323288Y175111D02*
X340117Y191940D01*
X315085Y183313D02*
X323288Y175111D01*
X315085Y183313D02*
X331915Y200143D01*
X325551Y185576D02*
X329652Y189677D01*
X325551D02*
X329652Y185576D01*
X352915Y200143D02*
X361117Y191940D01*
X344288Y175111D02*
X361117Y191940D01*
X336085Y183313D02*
X344288Y175111D01*
X336085Y183313D02*
X352915Y200143D01*
X346551Y185576D02*
X350652Y189677D01*
X346551D02*
X350652Y185576D01*
X373914Y200143D02*
X382117Y191940D01*
X365288Y175111D02*
X382117Y191940D01*
X357085Y183313D02*
X365288Y175111D01*
X357085Y183313D02*
X373914Y200143D01*
X367551Y185576D02*
X371652Y189677D01*
X367551D02*
X371652Y185576D01*
X394915Y200143D02*
X403117Y191940D01*
X386288Y175111D02*
X403117Y191940D01*
X378085Y183313D02*
X386288Y175111D01*
X378085Y183313D02*
X394915Y200143D01*
X388551Y185576D02*
X392652Y189677D01*
X388551D02*
X392652Y185576D01*
X415914Y200143D02*
X424117Y191940D01*
X407288Y175111D02*
X424117Y191940D01*
X399085Y183313D02*
X407288Y175111D01*
X399085Y183313D02*
X415914Y200143D01*
X409551Y185576D02*
X413652Y189677D01*
X409551D02*
X413652Y185576D01*
X436914Y200143D02*
X445117Y191940D01*
X428288Y175111D02*
X445117Y191940D01*
X420085Y183313D02*
X428288Y175111D01*
X420085Y183313D02*
X436914Y200143D01*
X430551Y185576D02*
X434652Y189677D01*
X430551D02*
X434652Y185576D01*
X457915Y200143D02*
X466117Y191940D01*
X449288Y175111D02*
X466117Y191940D01*
X441085Y183313D02*
X449288Y175111D01*
X441085Y183313D02*
X457915Y200143D01*
X451551Y185576D02*
X455652Y189677D01*
X451551D02*
X455652Y185576D01*
X478914Y200143D02*
X487117Y191940D01*
X470288Y175111D02*
X487117Y191940D01*
X462085Y183313D02*
X470288Y175111D01*
X462085Y183313D02*
X478914Y200143D01*
X472551Y185576D02*
X476652Y189677D01*
X472551D02*
X476652Y185576D01*
X499915Y200143D02*
X508117Y191940D01*
X491288Y175111D02*
X508117Y191940D01*
X483085Y183313D02*
X491288Y175111D01*
X483085Y183313D02*
X499915Y200143D01*
X493551Y185576D02*
X497652Y189677D01*
X493551D02*
X497652Y185576D01*
X520915Y200143D02*
X529117Y191940D01*
X512288Y175111D02*
X529117Y191940D01*
X504085Y183313D02*
X512288Y175111D01*
X504085Y183313D02*
X520915Y200143D01*
X514551Y185576D02*
X518652Y189677D01*
X514551D02*
X518652Y185576D01*
X268915Y179142D02*
X277117Y170940D01*
X260288Y154111D02*
X277117Y170940D01*
X252085Y162313D02*
X260288Y154111D01*
X252085Y162313D02*
X268915Y179142D01*
X262551Y164576D02*
X266652Y168677D01*
X262551D02*
X266652Y164576D01*
X289915Y179142D02*
X298117Y170940D01*
X281288Y154111D02*
X298117Y170940D01*
X273085Y162313D02*
X281288Y154111D01*
X273085Y162313D02*
X289915Y179142D01*
X283551Y164576D02*
X287652Y168677D01*
X283551D02*
X287652Y164576D01*
X310915Y179142D02*
X319117Y170940D01*
X302288Y154111D02*
X319117Y170940D01*
X294085Y162313D02*
X302288Y154111D01*
X294085Y162313D02*
X310915Y179142D01*
X304551Y164576D02*
X308652Y168677D01*
X304551D02*
X308652Y164576D01*
X331915Y179142D02*
X340117Y170940D01*
X323288Y154111D02*
X340117Y170940D01*
X315085Y162313D02*
X323288Y154111D01*
X315085Y162313D02*
X331915Y179142D01*
X325551Y164576D02*
X329652Y168677D01*
X325551D02*
X329652Y164576D01*
X352915Y179142D02*
X361117Y170940D01*
X344288Y154111D02*
X361117Y170940D01*
X336085Y162313D02*
X344288Y154111D01*
X336085Y162313D02*
X352915Y179142D01*
X346551Y164576D02*
X350652Y168677D01*
X346551D02*
X350652Y164576D01*
X373915Y179142D02*
X382117Y170940D01*
X365288Y154111D02*
X382117Y170940D01*
X357085Y162313D02*
X365288Y154111D01*
X357085Y162313D02*
X373915Y179142D01*
X367551Y164576D02*
X371652Y168677D01*
X367551D02*
X371652Y164576D01*
X394915Y179142D02*
X403117Y170940D01*
X386288Y154111D02*
X403117Y170940D01*
X378085Y162313D02*
X386288Y154111D01*
X378085Y162313D02*
X394915Y179142D01*
X388551Y164576D02*
X392652Y168677D01*
X388551D02*
X392652Y164576D01*
X415914Y179142D02*
X424117Y170940D01*
X407288Y154111D02*
X424117Y170940D01*
X399085Y162313D02*
X407288Y154111D01*
X399085Y162313D02*
X415914Y179142D01*
X409551Y164576D02*
X413652Y168677D01*
X409551D02*
X413652Y164576D01*
X436914Y179142D02*
X445117Y170940D01*
X428288Y154111D02*
X445117Y170940D01*
X420085Y162313D02*
X428288Y154111D01*
X420085Y162313D02*
X436914Y179142D01*
X430551Y164576D02*
X434652Y168677D01*
X430551D02*
X434652Y164576D01*
X457915Y179142D02*
X466117Y170940D01*
X449288Y154111D02*
X466117Y170940D01*
X441085Y162313D02*
X449288Y154111D01*
X441085Y162313D02*
X457915Y179142D01*
X451551Y164576D02*
X455652Y168677D01*
X451551D02*
X455652Y164576D01*
X478914Y179142D02*
X487117Y170940D01*
X470288Y154111D02*
X487117Y170940D01*
X462085Y162313D02*
X470288Y154111D01*
X462085Y162313D02*
X478914Y179142D01*
X472551Y164576D02*
X476652Y168677D01*
X472551D02*
X476652Y164576D01*
X499915Y179142D02*
X508117Y170940D01*
X491288Y154111D02*
X508117Y170940D01*
X483085Y162313D02*
X491288Y154111D01*
X483085Y162313D02*
X499915Y179142D01*
X493551Y164576D02*
X497652Y168677D01*
X493551D02*
X497652Y164576D01*
X520915Y179142D02*
X529117Y170940D01*
X512288Y154111D02*
X529117Y170940D01*
X504085Y162313D02*
X512288Y154111D01*
X504085Y162313D02*
X520915Y179142D01*
X514551Y164576D02*
X518652Y168677D01*
X514551D02*
X518652Y164576D01*
X262551Y147677D02*
X266652Y143576D01*
X262551D02*
X266652Y147677D01*
X252085Y141313D02*
X268915Y158143D01*
X252085Y141313D02*
X260288Y133111D01*
X277117Y149940D01*
X268915Y158143D02*
X277117Y149940D01*
X289914Y158143D02*
X298117Y149940D01*
X281288Y133111D02*
X298117Y149940D01*
X273085Y141313D02*
X281288Y133111D01*
X273085Y141313D02*
X289914Y158143D01*
X283551Y143576D02*
X287652Y147677D01*
X283551D02*
X287652Y143576D01*
X310914Y158143D02*
X319117Y149940D01*
X302288Y133111D02*
X319117Y149940D01*
X294085Y141313D02*
X302288Y133111D01*
X294085Y141313D02*
X310914Y158143D01*
X304551Y143576D02*
X308652Y147677D01*
X304551D02*
X308652Y143576D01*
X331915Y158143D02*
X340117Y149940D01*
X323288Y133111D02*
X340117Y149940D01*
X315085Y141313D02*
X323288Y133111D01*
X315085Y141313D02*
X331915Y158143D01*
X325551Y143576D02*
X329652Y147677D01*
X325551D02*
X329652Y143576D01*
X352915Y158143D02*
X361117Y149940D01*
X344288Y133111D02*
X361117Y149940D01*
X336085Y141313D02*
X344288Y133111D01*
X336085Y141313D02*
X352915Y158143D01*
X346551Y143576D02*
X350652Y147677D01*
X346551D02*
X350652Y143576D01*
X373914Y158143D02*
X382117Y149940D01*
X365288Y133111D02*
X382117Y149940D01*
X357085Y141313D02*
X365288Y133111D01*
X357085Y141313D02*
X373914Y158143D01*
X367551Y143576D02*
X371652Y147677D01*
X367551D02*
X371652Y143576D01*
X394915Y158143D02*
X403117Y149940D01*
X386288Y133111D02*
X403117Y149940D01*
X378085Y141313D02*
X386288Y133111D01*
X378085Y141313D02*
X394915Y158143D01*
X388551Y143576D02*
X392652Y147677D01*
X388551D02*
X392652Y143576D01*
X415914Y158143D02*
X424117Y149940D01*
X407288Y133111D02*
X424117Y149940D01*
X399085Y141313D02*
X407288Y133111D01*
X399085Y141313D02*
X415914Y158143D01*
X409551Y143576D02*
X413652Y147677D01*
X409551D02*
X413652Y143576D01*
X436914Y158143D02*
X445117Y149940D01*
X428288Y133111D02*
X445117Y149940D01*
X420085Y141313D02*
X428288Y133111D01*
X420085Y141313D02*
X436914Y158143D01*
X430551Y143576D02*
X434652Y147677D01*
X430551D02*
X434652Y143576D01*
X457915Y158143D02*
X466117Y149940D01*
X449288Y133111D02*
X466117Y149940D01*
X441085Y141313D02*
X449288Y133111D01*
X441085Y141313D02*
X457915Y158143D01*
X451551Y143576D02*
X455652Y147677D01*
X451551D02*
X455652Y143576D01*
X478914Y158143D02*
X487117Y149940D01*
X470288Y133111D02*
X487117Y149940D01*
X462085Y141313D02*
X470288Y133111D01*
X462085Y141313D02*
X478914Y158143D01*
X472551Y143576D02*
X476652Y147677D01*
X472551D02*
X476652Y143576D01*
X493551Y147677D02*
X497652Y143576D01*
X493551D02*
X497652Y147677D01*
X483085Y141313D02*
X499915Y158143D01*
X483085Y141313D02*
X491288Y133111D01*
X508117Y149940D01*
X499915Y158143D02*
X508117Y149940D01*
X520915Y158143D02*
X529117Y149940D01*
X512288Y133111D02*
X529117Y149940D01*
X504085Y141313D02*
X512288Y133111D01*
X504085Y141313D02*
X520915Y158143D01*
X514551Y143576D02*
X518652Y147677D01*
X514551D02*
X518652Y143576D01*
X268915Y137143D02*
X277117Y128940D01*
X260288Y112111D02*
X277117Y128940D01*
X252085Y120313D02*
X260288Y112111D01*
X252085Y120313D02*
X268915Y137143D01*
X262551Y122576D02*
X266652Y126677D01*
X262551D02*
X266652Y122576D01*
X289914Y137143D02*
X298117Y128940D01*
X281288Y112111D02*
X298117Y128940D01*
X273085Y120313D02*
X281288Y112111D01*
X273085Y120313D02*
X289914Y137143D01*
X283551Y122576D02*
X287652Y126677D01*
X283551D02*
X287652Y122576D01*
X310914Y137143D02*
X319117Y128940D01*
X302288Y112111D02*
X319117Y128940D01*
X294085Y120313D02*
X302288Y112111D01*
X294085Y120313D02*
X310914Y137143D01*
X304551Y122576D02*
X308652Y126677D01*
X304551D02*
X308652Y122576D01*
X331914Y137143D02*
X340117Y128940D01*
X323288Y112111D02*
X340117Y128940D01*
X315085Y120313D02*
X323288Y112111D01*
X315085Y120313D02*
X331914Y137143D01*
X325551Y122576D02*
X329652Y126677D01*
X325551D02*
X329652Y122576D01*
X352915Y137143D02*
X361117Y128940D01*
X344288Y112111D02*
X361117Y128940D01*
X336085Y120313D02*
X344288Y112111D01*
X336085Y120313D02*
X352915Y137143D01*
X346551Y122576D02*
X350652Y126677D01*
X346551D02*
X350652Y122576D01*
X373914Y137143D02*
X382117Y128940D01*
X365288Y112111D02*
X382117Y128940D01*
X357085Y120313D02*
X365288Y112111D01*
X357085Y120313D02*
X373914Y137143D01*
X367551Y122576D02*
X371652Y126677D01*
X367551D02*
X371652Y122576D01*
X394915Y137143D02*
X403117Y128940D01*
X386288Y112111D02*
X403117Y128940D01*
X378085Y120313D02*
X386288Y112111D01*
X378085Y120313D02*
X394915Y137143D01*
X388551Y122576D02*
X392652Y126677D01*
X388551D02*
X392652Y122576D01*
X415914Y137143D02*
X424117Y128940D01*
X407288Y112111D02*
X424117Y128940D01*
X399085Y120313D02*
X407288Y112111D01*
X399085Y120313D02*
X415914Y137143D01*
X409551Y122576D02*
X413652Y126677D01*
X409551D02*
X413652Y122576D01*
X436914Y137143D02*
X445117Y128940D01*
X428288Y112111D02*
X445117Y128940D01*
X420085Y120313D02*
X428288Y112111D01*
X420085Y120313D02*
X436914Y137143D01*
X430551Y122576D02*
X434652Y126677D01*
X430551D02*
X434652Y122576D01*
X457915Y137143D02*
X466117Y128940D01*
X449288Y112111D02*
X466117Y128940D01*
X441085Y120313D02*
X449288Y112111D01*
X441085Y120313D02*
X457915Y137143D01*
X451551Y122576D02*
X455652Y126677D01*
X451551D02*
X455652Y122576D01*
X478914Y137143D02*
X487117Y128940D01*
X470288Y112111D02*
X487117Y128940D01*
X462085Y120313D02*
X470288Y112111D01*
X462085Y120313D02*
X478914Y137143D01*
X472551Y122576D02*
X476652Y126677D01*
X472551D02*
X476652Y122576D01*
X499915Y137143D02*
X508117Y128940D01*
X491288Y112111D02*
X508117Y128940D01*
X483085Y120313D02*
X491288Y112111D01*
X483085Y120313D02*
X499915Y137143D01*
X493551Y122576D02*
X497652Y126677D01*
X493551D02*
X497652Y122576D01*
X520915Y137143D02*
X529117Y128940D01*
X512288Y112111D02*
X529117Y128940D01*
X504085Y120313D02*
X512288Y112111D01*
X504085Y120313D02*
X520915Y137143D01*
X514551Y122576D02*
X518652Y126677D01*
X514551D02*
X518652Y122576D01*
X268915Y116143D02*
X277117Y107940D01*
X260288Y91111D02*
X277117Y107940D01*
X252085Y99313D02*
X260288Y91111D01*
X252085Y99313D02*
X268915Y116143D01*
X262551Y101576D02*
X266652Y105677D01*
X262551D02*
X266652Y101576D01*
X289914Y116143D02*
X298117Y107940D01*
X281288Y91111D02*
X298117Y107940D01*
X273085Y99313D02*
X281288Y91111D01*
X273085Y99313D02*
X289914Y116143D01*
X283551Y101576D02*
X287652Y105677D01*
X283551D02*
X287652Y101576D01*
X310914Y116143D02*
X319117Y107940D01*
X302288Y91111D02*
X319117Y107940D01*
X294085Y99313D02*
X302288Y91111D01*
X294085Y99313D02*
X310914Y116143D01*
X304551Y101576D02*
X308652Y105677D01*
X304551D02*
X308652Y101576D01*
X325551Y105677D02*
X329652Y101576D01*
X325551D02*
X329652Y105677D01*
X315085Y99313D02*
X331915Y116143D01*
X315085Y99313D02*
X323288Y91111D01*
X340117Y107940D01*
X331915Y116143D02*
X340117Y107940D01*
X352915Y116143D02*
X361117Y107940D01*
X344288Y91111D02*
X361117Y107940D01*
X336085Y99313D02*
X344288Y91111D01*
X336085Y99313D02*
X352915Y116143D01*
X346551Y101576D02*
X350652Y105677D01*
X346551D02*
X350652Y101576D01*
X373914Y116143D02*
X382117Y107940D01*
X365288Y91111D02*
X382117Y107940D01*
X357085Y99313D02*
X365288Y91111D01*
X357085Y99313D02*
X373914Y116143D01*
X367551Y101576D02*
X371652Y105677D01*
X367551D02*
X371652Y101576D01*
X394915Y116143D02*
X403117Y107940D01*
X386288Y91111D02*
X403117Y107940D01*
X378085Y99313D02*
X386288Y91111D01*
X378085Y99313D02*
X394915Y116143D01*
X388551Y101576D02*
X392652Y105677D01*
X388551D02*
X392652Y101576D01*
X415914Y116143D02*
X424117Y107940D01*
X407288Y91111D02*
X424117Y107940D01*
X399085Y99313D02*
X407288Y91111D01*
X399085Y99313D02*
X415914Y116143D01*
X409551Y101576D02*
X413652Y105677D01*
X409551D02*
X413652Y101576D01*
X430551Y105677D02*
X434652Y101576D01*
X430551D02*
X434652Y105677D01*
X420085Y99313D02*
X436914Y116143D01*
X420085Y99313D02*
X428288Y91111D01*
X445117Y107940D01*
X436914Y116143D02*
X445117Y107940D01*
X457915Y116143D02*
X466117Y107940D01*
X449288Y91111D02*
X466117Y107940D01*
X441085Y99313D02*
X449288Y91111D01*
X441085Y99313D02*
X457915Y116143D01*
X451551Y101576D02*
X455652Y105677D01*
X451551D02*
X455652Y101576D01*
X478914Y116143D02*
X487117Y107940D01*
X470288Y91111D02*
X487117Y107940D01*
X462085Y99313D02*
X470288Y91111D01*
X462085Y99313D02*
X478914Y116143D01*
X472551Y101576D02*
X476652Y105677D01*
X472551D02*
X476652Y101576D01*
X499915Y116143D02*
X508117Y107940D01*
X491288Y91111D02*
X508117Y107940D01*
X483085Y99313D02*
X491288Y91111D01*
X483085Y99313D02*
X499915Y116143D01*
X493551Y101576D02*
X497652Y105677D01*
X493551D02*
X497652Y101576D01*
X520915Y116143D02*
X529117Y107940D01*
X512288Y91111D02*
X529117Y107940D01*
X504085Y99313D02*
X512288Y91111D01*
X504085Y99313D02*
X520915Y116143D01*
X514551Y101576D02*
X518652Y105677D01*
X514551D02*
X518652Y101576D01*
X268915Y95143D02*
X277117Y86940D01*
X260288Y70111D02*
X277117Y86940D01*
X252085Y78313D02*
X260288Y70111D01*
X252085Y78313D02*
X268915Y95143D01*
X262551Y80576D02*
X266652Y84677D01*
X262551D02*
X266652Y80576D01*
X289914Y95143D02*
X298117Y86940D01*
X281288Y70111D02*
X298117Y86940D01*
X273085Y78313D02*
X281288Y70111D01*
X273085Y78313D02*
X289914Y95143D01*
X283551Y80576D02*
X287652Y84677D01*
X283551D02*
X287652Y80576D01*
X310914Y95143D02*
X319117Y86940D01*
X302288Y70111D02*
X319117Y86940D01*
X294085Y78313D02*
X302288Y70111D01*
X294085Y78313D02*
X310914Y95143D01*
X304551Y80576D02*
X308652Y84677D01*
X304551D02*
X308652Y80576D01*
X331915Y95143D02*
X340117Y86940D01*
X323288Y70111D02*
X340117Y86940D01*
X315085Y78313D02*
X323288Y70111D01*
X315085Y78313D02*
X331915Y95143D01*
X325551Y80576D02*
X329652Y84677D01*
X325551D02*
X329652Y80576D01*
X352915Y95143D02*
X361117Y86940D01*
X344288Y70111D02*
X361117Y86940D01*
X336085Y78313D02*
X344288Y70111D01*
X336085Y78313D02*
X352915Y95143D01*
X346551Y80576D02*
X350652Y84677D01*
X346551D02*
X350652Y80576D01*
X373914Y95143D02*
X382117Y86940D01*
X365288Y70111D02*
X382117Y86940D01*
X357085Y78313D02*
X365288Y70111D01*
X357085Y78313D02*
X373914Y95143D01*
X367551Y80576D02*
X371652Y84677D01*
X367551D02*
X371652Y80576D01*
X394915Y95143D02*
X403117Y86940D01*
X386288Y70111D02*
X403117Y86940D01*
X378085Y78313D02*
X386288Y70111D01*
X378085Y78313D02*
X394915Y95143D01*
X388551Y80576D02*
X392652Y84677D01*
X388551D02*
X392652Y80576D01*
X415915Y95143D02*
X424117Y86940D01*
X407288Y70111D02*
X424117Y86940D01*
X399085Y78313D02*
X407288Y70111D01*
X399085Y78313D02*
X415915Y95143D01*
X409551Y80576D02*
X413652Y84677D01*
X409551D02*
X413652Y80576D01*
X430551Y84677D02*
X434652Y80576D01*
X430551D02*
X434652Y84677D01*
X420085Y78313D02*
X436915Y95143D01*
X420085Y78313D02*
X428288Y70111D01*
X445117Y86940D01*
X436915Y95143D02*
X445117Y86940D01*
X457915Y95143D02*
X466117Y86940D01*
X449288Y70111D02*
X466117Y86940D01*
X441085Y78313D02*
X449288Y70111D01*
X441085Y78313D02*
X457915Y95143D01*
X451551Y80576D02*
X455652Y84677D01*
X451551D02*
X455652Y80576D01*
X478914Y95143D02*
X487117Y86940D01*
X470288Y70111D02*
X487117Y86940D01*
X462085Y78313D02*
X470288Y70111D01*
X462085Y78313D02*
X478914Y95143D01*
X472551Y80576D02*
X476652Y84677D01*
X472551D02*
X476652Y80576D01*
X499915Y95143D02*
X508117Y86940D01*
X491288Y70111D02*
X508117Y86940D01*
X483085Y78313D02*
X491288Y70111D01*
X483085Y78313D02*
X499915Y95143D01*
X493551Y80576D02*
X497652Y84677D01*
X493551D02*
X497652Y80576D01*
X520915Y95143D02*
X529117Y86940D01*
X512288Y70111D02*
X529117Y86940D01*
X504085Y78313D02*
X512288Y70111D01*
X504085Y78313D02*
X520915Y95143D01*
X514551Y80576D02*
X518652Y84677D01*
X514551D02*
X518652Y80576D01*
X268915Y74142D02*
X277117Y65940D01*
X260288Y49111D02*
X277117Y65940D01*
X252085Y57313D02*
X260288Y49111D01*
X252085Y57313D02*
X268915Y74142D01*
X262551Y59576D02*
X266652Y63677D01*
X262551D02*
X266652Y59576D01*
X289914Y74142D02*
X298117Y65940D01*
X281288Y49111D02*
X298117Y65940D01*
X273085Y57313D02*
X281288Y49111D01*
X273085Y57313D02*
X289914Y74142D01*
X283551Y59576D02*
X287652Y63677D01*
X283551D02*
X287652Y59576D01*
X310914Y74142D02*
X319117Y65940D01*
X302288Y49111D02*
X319117Y65940D01*
X294085Y57313D02*
X302288Y49111D01*
X294085Y57313D02*
X310914Y74142D01*
X304551Y59576D02*
X308652Y63677D01*
X304551D02*
X308652Y59576D01*
X331915Y74142D02*
X340117Y65940D01*
X323288Y49111D02*
X340117Y65940D01*
X315085Y57313D02*
X323288Y49111D01*
X315085Y57313D02*
X331915Y74142D01*
X325551Y59576D02*
X329652Y63677D01*
X325551D02*
X329652Y59576D01*
X352915Y74142D02*
X361117Y65940D01*
X344288Y49111D02*
X361117Y65940D01*
X336085Y57313D02*
X344288Y49111D01*
X336085Y57313D02*
X352915Y74142D01*
X346551Y59576D02*
X350652Y63677D01*
X346551D02*
X350652Y59576D01*
X373914Y74142D02*
X382117Y65940D01*
X365288Y49111D02*
X382117Y65940D01*
X357085Y57313D02*
X365288Y49111D01*
X357085Y57313D02*
X373914Y74142D01*
X367551Y59576D02*
X371652Y63677D01*
X367551D02*
X371652Y59576D01*
X388551Y63677D02*
X392652Y59576D01*
X388551D02*
X392652Y63677D01*
X378085Y57313D02*
X394915Y74142D01*
X378085Y57313D02*
X386288Y49111D01*
X403117Y65940D01*
X394915Y74142D02*
X403117Y65940D01*
X415914Y74142D02*
X424117Y65940D01*
X407288Y49111D02*
X424117Y65940D01*
X399085Y57313D02*
X407288Y49111D01*
X399085Y57313D02*
X415914Y74142D01*
X409551Y59576D02*
X413652Y63677D01*
X409551D02*
X413652Y59576D01*
X436915Y74142D02*
X445117Y65940D01*
X428288Y49111D02*
X445117Y65940D01*
X420085Y57313D02*
X428288Y49111D01*
X420085Y57313D02*
X436915Y74142D01*
X430551Y59576D02*
X434652Y63677D01*
X430551D02*
X434652Y59576D01*
X457915Y74142D02*
X466117Y65940D01*
X449288Y49111D02*
X466117Y65940D01*
X441086Y57313D02*
X449288Y49111D01*
X441086Y57313D02*
X457915Y74142D01*
X451551Y59576D02*
X455652Y63677D01*
X451551D02*
X455652Y59576D01*
X478914Y74142D02*
X487117Y65940D01*
X470288Y49111D02*
X487117Y65940D01*
X462085Y57313D02*
X470288Y49111D01*
X462085Y57313D02*
X478914Y74142D01*
X472551Y59576D02*
X476652Y63677D01*
X472551D02*
X476652Y59576D01*
X499915Y74142D02*
X508117Y65940D01*
X491288Y49111D02*
X508117Y65940D01*
X483085Y57313D02*
X491288Y49111D01*
X483085Y57313D02*
X499915Y74142D01*
X493551Y59576D02*
X497652Y63677D01*
X493551D02*
X497652Y59576D01*
X520915Y74142D02*
X529117Y65940D01*
X512288Y49111D02*
X529117Y65940D01*
X504085Y57313D02*
X512288Y49111D01*
X504085Y57313D02*
X520915Y74142D01*
X514551Y59576D02*
X518652Y63677D01*
X514551D02*
X518652Y59576D01*
X471315Y289040D02*
X482415D01*
X471315Y294940D02*
X482415D01*
Y289040D02*
Y294940D01*
X471315Y289040D02*
Y294940D01*
X475514Y291990D02*
X478214D01*
X476865Y290640D02*
Y293340D01*
X471315Y317040D02*
X482415D01*
X471315Y322940D02*
X482415D01*
Y317040D02*
Y322940D01*
X471315Y317040D02*
Y322940D01*
X475514Y319990D02*
X478214D01*
X476865Y318640D02*
Y321340D01*
X353380Y298240D02*
X356080D01*
X354730Y296890D02*
Y299590D01*
X351780Y292690D02*
X357680D01*
X351780Y303790D02*
X357680D01*
X351780Y292690D02*
Y303790D01*
X357680Y292690D02*
Y303790D01*
X412514Y389490D02*
X415215D01*
X413865Y388140D02*
Y390840D01*
X410914Y395040D02*
X416814D01*
X410914Y383940D02*
X416814D01*
Y395040D01*
X410914Y383940D02*
Y395040D01*
X471315Y361940D02*
X482415D01*
X471315Y356040D02*
X482415D01*
X471315D02*
Y361940D01*
X482415Y356040D02*
Y361940D01*
X475514Y358990D02*
X478214D01*
X476865Y357640D02*
Y360340D01*
X791526Y62044D02*
X791526Y50944D01*
X797426Y50944D02*
Y62044D01*
X791526Y50944D02*
X797426Y50944D01*
X791526Y62044D02*
X797426D01*
X794476Y55144D02*
Y57844D01*
X793126Y56494D02*
X795826D01*
X781526Y50944D02*
Y62044D01*
X787426Y50944D02*
X787426Y62044D01*
X781526Y50944D02*
X787426Y50944D01*
X781526Y62044D02*
X787426D01*
X784476Y55144D02*
Y57844D01*
X783126Y56494D02*
X785826D01*
X740262Y57650D02*
X751362D01*
X740262Y51750D02*
X751362D01*
X740262D02*
Y57650D01*
X751362Y51750D02*
Y57650D01*
X744462Y54700D02*
X747162D01*
X745812Y53350D02*
Y56050D01*
X740262Y67650D02*
X751362D01*
X740262Y61750D02*
X751362D01*
X740262D02*
Y67650D01*
X751362Y61750D02*
Y67650D01*
X744462Y64700D02*
X747162D01*
X745812Y63350D02*
Y66050D01*
X745813Y79240D02*
Y81940D01*
X744463Y80590D02*
X747163D01*
X751363Y77640D02*
Y83540D01*
X740263Y77640D02*
Y83540D01*
Y77640D02*
X751363D01*
X740263Y83540D02*
X751363D01*
X745813Y89240D02*
Y91940D01*
X744463Y90590D02*
X747163D01*
X751363Y87640D02*
Y93540D01*
X740263Y87640D02*
Y93540D01*
Y87640D02*
X751363D01*
X740263Y93540D02*
X751363D01*
X723050Y125950D02*
Y137050D01*
X728950Y125950D02*
Y137050D01*
X723050Y125950D02*
X728950D01*
X723050Y137050D02*
X728950D01*
X726000Y130150D02*
Y132850D01*
X724650Y131500D02*
X727350D01*
X713050Y125950D02*
Y137050D01*
X718950Y125950D02*
Y137050D01*
X713050Y125950D02*
X718950D01*
X713050Y137050D02*
X718950D01*
X716000Y130150D02*
Y132850D01*
X714650Y131500D02*
X717350D01*
X696850Y26050D02*
X699550D01*
X698200Y24700D02*
Y27400D01*
X695250Y31600D02*
X701150D01*
X695250Y20500D02*
X701150D01*
Y31600D01*
X695250Y20500D02*
Y31600D01*
X865650Y800412D02*
X868350D01*
X867000Y801762D02*
X867000Y799062D01*
X864050Y805962D02*
X869950Y805962D01*
X864050Y794862D02*
X869950D01*
Y805962D01*
X864050Y805962D02*
X864050Y794862D01*
X811650Y800412D02*
X814350Y800412D01*
X813000Y799062D02*
Y801762D01*
X810050Y805962D02*
X815950D01*
X810050Y794862D02*
X815950Y794862D01*
Y805962D01*
X810050D02*
X810050Y794862D01*
X877900Y761900D02*
X880600Y761900D01*
X879250Y760550D02*
Y763250D01*
X876300Y756350D02*
X882200D01*
X876300Y767450D02*
X882200Y767450D01*
X876300Y767450D02*
X876300Y756350D01*
X882200Y767450D02*
X882200Y756350D01*
X817650Y800412D02*
X820350D01*
X819000Y801762D02*
X819000Y799062D01*
X816050Y805962D02*
X821950Y805962D01*
X816050Y794862D02*
X821950Y794862D01*
X821950Y805962D02*
X821950Y794862D01*
X816050Y794862D02*
Y805962D01*
X882000Y769300D02*
Y772000D01*
X880650Y770650D02*
X883350D01*
X887550Y773600D02*
X887550Y767700D01*
X876450Y773600D02*
X876450Y767700D01*
X887550Y767700D01*
X876450Y773600D02*
X887550D01*
X882000Y775300D02*
Y778000D01*
X880650Y776650D02*
X883350D01*
X887550Y773700D02*
Y779600D01*
X876450D02*
X876450Y773700D01*
X887550Y773700D01*
X876450Y779600D02*
X887550D01*
X889924Y647997D02*
X892625D01*
X891274Y646647D02*
Y649347D01*
X888325Y642447D02*
X894225D01*
X888325Y653547D02*
X894225D01*
X888325Y642447D02*
Y653547D01*
X894225Y642447D02*
Y653547D01*
X419015Y389490D02*
X421715D01*
X420364Y388140D02*
Y390840D01*
X417415Y395040D02*
X423315D01*
X417415Y383940D02*
X423315D01*
Y395040D01*
X417415Y383940D02*
Y395040D01*
X471315Y295540D02*
X482415D01*
X471315Y301440D02*
X482415D01*
Y295540D02*
Y301440D01*
X471315Y295540D02*
Y301440D01*
X475514Y298490D02*
X478214D01*
X476865Y297140D02*
Y299840D01*
X655371Y1385060D02*
Y1387760D01*
X654021Y1386411D02*
X656721D01*
X649821Y1383461D02*
Y1389361D01*
X660921Y1383461D02*
Y1389361D01*
X649821D02*
X660921D01*
X649821Y1383461D02*
X660921D01*
X743400Y551900D02*
X746100D01*
X744750Y550550D02*
Y553250D01*
X741800Y546350D02*
X747700D01*
X741800Y557450D02*
X747700D01*
X741800Y546350D02*
Y557450D01*
X747700Y546350D02*
Y557450D01*
X428435Y264697D02*
X439535D01*
X428435Y258797D02*
X439535D01*
X428435D02*
Y264697D01*
X439535Y258797D02*
Y264697D01*
X432635Y261747D02*
X435335D01*
X433985Y260397D02*
Y263097D01*
X803914Y297140D02*
Y299840D01*
X802564Y298490D02*
X805265D01*
X809464Y295540D02*
Y301440D01*
X798364Y295540D02*
Y301440D01*
Y295540D02*
X809464D01*
X798364Y301440D02*
X809464D01*
X710915Y387490D02*
X713615D01*
X712265Y386140D02*
Y388840D01*
X709315Y393040D02*
X715215D01*
X709315Y381940D02*
X715215D01*
Y393040D01*
X709315Y381940D02*
Y393040D01*
X798360Y276640D02*
X809460D01*
X798360Y282540D02*
X809460D01*
Y276640D02*
Y282540D01*
X798360Y276640D02*
Y282540D01*
X802560Y279590D02*
X805260D01*
X803910Y278240D02*
Y280940D01*
X803910Y284240D02*
Y286940D01*
X802560Y285590D02*
X805260D01*
X798360Y282640D02*
Y288540D01*
X809460Y282640D02*
Y288540D01*
X798360D02*
X809460D01*
X798360Y282640D02*
X809460D01*
X738914Y388090D02*
Y396890D01*
X720915Y388090D02*
X738914D01*
X720915D02*
Y396890D01*
X738914D01*
X727714Y392490D02*
X732114D01*
X729914Y390290D02*
Y394690D01*
X373515Y389490D02*
X376214D01*
X374865Y388140D02*
Y390840D01*
X371914Y383940D02*
X377814D01*
X371914Y395040D02*
X377814D01*
X371914Y383940D02*
Y395040D01*
X377814Y383940D02*
Y395040D01*
X463014Y400990D02*
X465714D01*
X464365Y399640D02*
Y402340D01*
X461414Y395440D02*
X467314D01*
X461414Y406540D02*
X467314D01*
X461414Y395440D02*
Y406540D01*
X467314Y395440D02*
Y406540D01*
X488364Y325140D02*
Y327840D01*
X487015Y326490D02*
X489715D01*
X482815Y323540D02*
Y329440D01*
X493914Y323540D02*
Y329440D01*
X482815D02*
X493914D01*
X482815Y323540D02*
X493914D01*
X731400Y551900D02*
X734100D01*
X732750Y550550D02*
Y553250D01*
X729800Y557450D02*
X735700D01*
X729800Y546350D02*
X735700D01*
Y557450D01*
X729800Y546350D02*
Y557450D01*
X737400Y551900D02*
X740100D01*
X738750Y550550D02*
Y553250D01*
X735800Y557450D02*
X741700D01*
X735800Y546350D02*
X741700D01*
Y557450D01*
X735800Y546350D02*
Y557450D01*
X639490Y101080D02*
X650590D01*
X639490Y95180D02*
X650590D01*
X639490D02*
Y101080D01*
X650590Y95180D02*
Y101080D01*
X643690Y98130D02*
X646390D01*
X645040Y96780D02*
Y99480D01*
X639490Y88680D02*
X650590D01*
X639490Y94580D02*
X650590D01*
Y88680D02*
Y94580D01*
X639490Y88680D02*
Y94580D01*
X643690Y91630D02*
X646390D01*
X645040Y90280D02*
Y92980D01*
X897674Y647997D02*
X900375D01*
X899025Y646647D02*
Y649347D01*
X896075Y653547D02*
X901974D01*
X896075Y642447D02*
X901974D01*
Y653547D01*
X896075Y642447D02*
Y653547D01*
X670050Y123450D02*
Y134550D01*
X675950Y123450D02*
Y134550D01*
X670050Y123450D02*
X675950D01*
X670050Y134550D02*
X675950D01*
X673000Y127650D02*
Y130350D01*
X671650Y129000D02*
X674350D01*
X677050Y123450D02*
Y134550D01*
X682950Y123450D02*
Y134550D01*
X677050Y123450D02*
X682950D01*
X677050Y134550D02*
X682950D01*
X680000Y127650D02*
Y130350D01*
X678650Y129000D02*
X681350D01*
X488364Y351140D02*
Y353840D01*
X487015Y352490D02*
X489715D01*
X482815Y349540D02*
Y355440D01*
X493914Y349540D02*
Y355440D01*
X482815D02*
X493914D01*
X482815Y349540D02*
X493914D01*
X393014Y400990D02*
X395714D01*
X394365Y399640D02*
Y402340D01*
X391414Y395440D02*
X397314D01*
X391414Y406540D02*
X397314D01*
X391414Y395440D02*
Y406540D01*
X397314Y395440D02*
Y406540D01*
X384314Y383940D02*
Y395040D01*
X378414Y383940D02*
Y395040D01*
X384314D01*
X378414Y383940D02*
X384314D01*
X381365Y388140D02*
Y390840D01*
X380014Y389490D02*
X382715D01*
X432015D02*
X434715D01*
X433364Y388140D02*
Y390840D01*
X430415Y383940D02*
X436315D01*
X430415Y395040D02*
X436315D01*
X430415Y383940D02*
Y395040D01*
X436315Y383940D02*
Y395040D01*
X386515Y389490D02*
X389215D01*
X387864Y388140D02*
Y390840D01*
X384915Y383940D02*
X390815D01*
X384915Y395040D02*
X390815D01*
X384915Y383940D02*
Y395040D01*
X390815Y383940D02*
Y395040D01*
X349178Y298359D02*
Y309459D01*
X343278Y298359D02*
Y309459D01*
X349178D01*
X343278Y298359D02*
X349178D01*
X346228Y302559D02*
Y305259D01*
X344878Y303909D02*
X347578Y303909D01*
X343178Y298359D02*
Y309459D01*
X337278Y298359D02*
Y309459D01*
X343178D01*
X337278Y298359D02*
X343178D01*
X340228Y302559D02*
Y305259D01*
X338878Y303909D02*
X341578D01*
X425514Y389490D02*
X428214D01*
X426865Y388140D02*
Y390840D01*
X423914Y395040D02*
X429814D01*
X423914Y383940D02*
X429814D01*
Y395040D01*
X423914Y383940D02*
Y395040D01*
X373515Y400990D02*
X376214D01*
X374865Y399640D02*
Y402340D01*
X371914Y395440D02*
X377814D01*
X371914Y406540D02*
X377814D01*
X371914Y395440D02*
Y406540D01*
X377814Y395440D02*
Y406540D01*
X340885Y354497D02*
X343585D01*
X342235Y353147D02*
Y355847D01*
X339285Y360047D02*
X345185D01*
X339285Y348947D02*
X345185D01*
Y360047D01*
X339285Y348947D02*
Y360047D01*
X482815Y369040D02*
X493914D01*
X482815Y374940D02*
X493914D01*
Y369040D02*
Y374940D01*
X482815Y369040D02*
Y374940D01*
X487015Y371990D02*
X489715D01*
X488364Y370640D02*
Y373340D01*
Y344640D02*
Y347340D01*
X487015Y345990D02*
X489715D01*
X482814Y343040D02*
X482815Y348940D01*
X493914Y343040D02*
Y348940D01*
X482815Y348940D02*
X493914Y348940D01*
X482814Y343040D02*
X493914D01*
X463014Y389490D02*
X465714D01*
X464365Y388140D02*
Y390840D01*
X461414Y383940D02*
X467314D01*
X461414Y395040D02*
X467314D01*
X461414Y383940D02*
Y395040D01*
X467314Y383940D02*
Y395040D01*
X476865Y325140D02*
Y327840D01*
X475514Y326490D02*
X478214D01*
X471315Y323540D02*
Y329440D01*
X482415Y323540D02*
Y329440D01*
X471315D02*
X482415D01*
X471315Y323540D02*
X482415D01*
X476865Y351140D02*
Y353840D01*
X475514Y352490D02*
X478214D01*
X471315Y349540D02*
Y355440D01*
X482415Y349540D02*
Y355440D01*
X471315D02*
X482415D01*
X471315Y349540D02*
X482415D01*
X393014Y389490D02*
X395714D01*
X394365Y388140D02*
Y390840D01*
X391414Y383940D02*
X397314D01*
X391414Y395040D02*
X397314D01*
X391414Y383940D02*
Y395040D01*
X397314Y383940D02*
Y395040D01*
X406015Y389490D02*
X408714D01*
X407365Y388140D02*
Y390840D01*
X404414Y383940D02*
X410314D01*
X404414Y395040D02*
X410314D01*
X404414Y383940D02*
Y395040D01*
X410314Y383940D02*
Y395040D01*
X471315Y336540D02*
X482415D01*
X471315Y342440D02*
X482415D01*
Y336540D02*
Y342440D01*
X471315Y336540D02*
Y342440D01*
X475514Y339490D02*
X478214D01*
X476865Y338140D02*
Y340840D01*
X347885Y352497D02*
X350585D01*
X349235Y351147D02*
Y353847D01*
X346285Y346947D02*
X352185D01*
X346285Y358047D02*
X352185D01*
X346285Y346947D02*
Y358047D01*
X352185Y346947D02*
Y358047D01*
X471315Y369040D02*
X482415D01*
X471315Y374940D02*
X482415D01*
Y369040D02*
Y374940D01*
X471315Y369040D02*
Y374940D01*
X475514Y371990D02*
X478214D01*
X476865Y370640D02*
Y373340D01*
Y344640D02*
Y347340D01*
X475514Y345990D02*
X478214D01*
X471315Y343040D02*
Y348940D01*
X482415Y343040D02*
Y348940D01*
X471315D02*
X482415D01*
X471315Y343040D02*
X482415D01*
X399515Y389490D02*
X402215D01*
X400864Y388140D02*
Y390840D01*
X397915Y395040D02*
X403815D01*
X397915Y383940D02*
X403815D01*
Y395040D01*
X397915Y383940D02*
Y395040D01*
X471315Y335940D02*
X482415D01*
X471315Y330040D02*
X482415D01*
X471315D02*
Y335940D01*
X482415Y330040D02*
Y335940D01*
X475514Y332990D02*
X478214D01*
X476865Y331640D02*
Y334340D01*
Y377640D02*
Y380340D01*
X475514Y378990D02*
X478214D01*
X471315Y376040D02*
Y381940D01*
X482415Y376040D02*
Y381940D01*
X471315D02*
X482415D01*
X471315Y376040D02*
X482415D01*
X471315Y362540D02*
X482415D01*
X471315Y368440D02*
X482415D01*
Y362540D02*
Y368440D01*
X471315Y362540D02*
Y368440D01*
X475514Y365490D02*
X478214D01*
X476865Y364140D02*
Y366840D01*
X436821Y1379407D02*
X534821D01*
X436821Y1423407D02*
X534821D01*
X436821Y1379407D02*
Y1423407D01*
X534821Y1379407D02*
Y1423407D01*
X485821Y1396407D02*
Y1406407D01*
X480821Y1401407D02*
X490821D01*
X552821Y1379410D02*
X650821D01*
X552821Y1423410D02*
X650821D01*
X552821Y1379410D02*
Y1423410D01*
X650821Y1379410D02*
Y1423410D01*
X601821Y1396410D02*
Y1406410D01*
X596821Y1401410D02*
X606821D01*
X146245Y1520250D02*
Y1522790D01*
X143705D02*
X146245D01*
Y1525330D01*
X160215Y1513900D02*
Y1531680D01*
X132275Y1513900D02*
Y1531680D01*
Y1513900D02*
X160215D01*
X132275Y1531680D02*
X160215D01*
X146245Y1522790D02*
X148785D01*
X706245Y1520250D02*
Y1522790D01*
X703705D02*
X706245D01*
Y1525330D01*
X720215Y1513900D02*
Y1531680D01*
X692275Y1513900D02*
Y1531680D01*
Y1513900D02*
X720215D01*
X692275Y1531680D02*
X720215D01*
X706245Y1522790D02*
X708785D01*
X426245Y1520250D02*
Y1522790D01*
X423705D02*
X426245D01*
Y1525330D01*
X440215Y1513900D02*
Y1531680D01*
X412275Y1513900D02*
Y1531680D01*
Y1513900D02*
X440215D01*
X412275Y1531680D02*
X440215D01*
X426245Y1522790D02*
X428785D01*
X736245Y1520250D02*
Y1522790D01*
X733705D02*
X736245D01*
Y1525330D01*
X750215Y1513900D02*
Y1531680D01*
X722275Y1513900D02*
Y1531680D01*
Y1513900D02*
X750215D01*
X722275Y1531680D02*
X750215D01*
X736245Y1522790D02*
X738785D01*
X456245Y1520250D02*
Y1522790D01*
X453705D02*
X456245D01*
Y1525330D01*
X470215Y1513900D02*
Y1531680D01*
X442275Y1513900D02*
Y1531680D01*
Y1513900D02*
X470215D01*
X442275Y1531680D02*
X470215D01*
X456245Y1522790D02*
X458785D01*
X206245Y1520250D02*
Y1522790D01*
X203705D02*
X206245D01*
Y1525330D01*
X220215Y1513900D02*
Y1531680D01*
X192275Y1513900D02*
Y1531680D01*
Y1513900D02*
X220215D01*
X192275Y1531680D02*
X220215D01*
X206245Y1522790D02*
X208785D01*
X766245Y1520250D02*
Y1522790D01*
X763705D02*
X766245D01*
Y1525330D01*
X780215Y1513900D02*
Y1531680D01*
X752275Y1513900D02*
Y1531680D01*
Y1513900D02*
X780215D01*
X752275Y1531680D02*
X780215D01*
X766245Y1522790D02*
X768785D01*
X486245Y1520250D02*
Y1522790D01*
X483705D02*
X486245D01*
Y1525330D01*
X500215Y1513900D02*
Y1531680D01*
X472275Y1513900D02*
Y1531680D01*
Y1513900D02*
X500215D01*
X472275Y1531680D02*
X500215D01*
X486245Y1522790D02*
X488785D01*
X867485Y647997D02*
X870024D01*
X856055Y639107D02*
X883995D01*
X856055Y656887D02*
X883995D01*
Y639107D02*
Y656887D01*
X856055Y639107D02*
Y656887D01*
X870024Y645457D02*
Y647997D01*
X872564D01*
X870024D02*
Y650537D01*
X887305Y532000D02*
Y534540D01*
Y532000D02*
X889845D01*
X887305Y529460D02*
Y532000D01*
X873335Y523110D02*
Y540890D01*
X901275Y523110D02*
Y540890D01*
X873335D02*
X901275D01*
X873335Y523110D02*
X901275D01*
X884765Y532000D02*
X887305D01*
X834025Y647997D02*
Y650537D01*
Y647997D02*
X836565D01*
X834025Y645457D02*
Y647997D01*
X820055Y639107D02*
Y656887D01*
X847995Y639107D02*
Y656887D01*
X820055D02*
X847995D01*
X820055Y639107D02*
X847995D01*
X831485Y647997D02*
X834025D01*
X205786Y282247D02*
X208326D01*
X205786Y279707D02*
Y282247D01*
X203246D02*
X205786D01*
X196896Y296217D02*
X214676D01*
X196896Y268277D02*
X214676D01*
Y296217D01*
X196896Y268277D02*
Y296217D01*
X205786Y282247D02*
Y284787D01*
Y310247D02*
X208326D01*
X205786Y307707D02*
Y310247D01*
X203246D02*
X205786D01*
X196896Y324217D02*
X214676D01*
X196896Y296277D02*
X214676D01*
Y324217D01*
X196896Y296277D02*
Y324217D01*
X205786Y310247D02*
Y312787D01*
Y338247D02*
Y340787D01*
X196896Y324277D02*
Y352217D01*
X214676Y324277D02*
Y352217D01*
X196896Y324277D02*
X214676D01*
X196896Y352217D02*
X214676D01*
X203246Y338247D02*
X205786D01*
Y335707D02*
Y338247D01*
X208326D01*
X205786Y366247D02*
X208326D01*
X205786Y363707D02*
Y366247D01*
X203246D02*
X205786D01*
X196896Y380217D02*
X214676D01*
X196896Y352277D02*
X214676D01*
Y380217D01*
X196896Y352277D02*
Y380217D01*
X205786Y366247D02*
Y368787D01*
Y394247D02*
X208326D01*
X205786Y391707D02*
Y394247D01*
X203246D02*
X205786D01*
X196896Y408217D02*
X214676D01*
X196896Y380277D02*
X214676D01*
Y408217D01*
X196896Y380277D02*
Y408217D01*
X205786Y394247D02*
Y396787D01*
X903446Y698590D02*
Y701130D01*
X894556Y684620D02*
Y712560D01*
X912336Y684620D02*
Y712560D01*
X894556Y684620D02*
X912336D01*
X894556Y712560D02*
X912336D01*
X900906Y698590D02*
X903446D01*
Y696050D02*
Y698590D01*
X905986D01*
X983000Y317210D02*
Y319750D01*
X980460D02*
X983000D01*
Y322290D01*
X996970Y310860D02*
Y328640D01*
X969030Y310860D02*
Y328640D01*
Y310860D02*
X996970D01*
X969030Y328640D02*
X996970D01*
X983000Y319750D02*
X985540D01*
X954000D02*
X956540D01*
X940030Y328640D02*
X967970D01*
X940030Y310860D02*
X967970D01*
X940030D02*
Y328640D01*
X967970Y310860D02*
Y328640D01*
X954000Y319750D02*
Y322290D01*
X951460Y319750D02*
X954000D01*
Y317210D02*
Y319750D01*
X830760Y426750D02*
X833300D01*
X830760Y424210D02*
Y426750D01*
X828220D02*
X830760D01*
X821870Y440720D02*
X839650D01*
X821870Y412780D02*
X839650D01*
Y440720D01*
X821870Y412780D02*
Y440720D01*
X830760Y426750D02*
Y429290D01*
Y369250D02*
X833300D01*
X830760Y366710D02*
Y369250D01*
X828220D02*
X830760D01*
X821870Y383220D02*
X839650D01*
X821870Y355280D02*
X839650D01*
Y383220D01*
X821870Y355280D02*
Y383220D01*
X830760Y369250D02*
Y371790D01*
X649821Y1376960D02*
X660921D01*
X649821Y1382861D02*
X660921D01*
Y1376960D02*
Y1382861D01*
X649821Y1376960D02*
Y1382861D01*
X654021Y1379910D02*
X656721D01*
X655371Y1378560D02*
Y1381261D01*
X243600Y1417100D02*
X262400D01*
X262400Y1384900D01*
X243600D02*
X262400D01*
X243600D02*
Y1417100D01*
X253000Y1397500D02*
Y1404500D01*
X249500Y1401000D02*
X256500Y1401000D01*
X223600Y1417100D02*
X242400D01*
X242400Y1384900D02*
X242400Y1417100D01*
X223600Y1384900D02*
X242400Y1384900D01*
X223600Y1384900D02*
Y1417100D01*
X233000Y1397500D02*
Y1404500D01*
X229500Y1401000D02*
X236500D01*
X859441Y61200D02*
Y80000D01*
X827241Y61200D02*
X859441D01*
X827241D02*
Y80000D01*
X859441D01*
X839841Y70600D02*
X846841D01*
X843341Y67100D02*
Y74100D01*
X94935Y1109250D02*
X94935Y1118050D01*
X112935D01*
X112935Y1109250D01*
X94935Y1109250D02*
X112935Y1109250D01*
X101735Y1113650D02*
X106135Y1113650D01*
X103935Y1111450D02*
Y1115850D01*
X70500Y1000150D02*
X70500Y1007150D01*
X67000Y1003650D02*
X74000Y1003650D01*
X54400Y994250D02*
X86600Y994250D01*
X86600Y1013050D02*
X86600Y994250D01*
X54400Y1013050D02*
X86600Y1013050D01*
X54400Y994250D02*
Y1013050D01*
X70500Y1254150D02*
X70500Y1247150D01*
X67000Y1250650D02*
X74000D01*
X54400Y1241250D02*
X86600Y1241250D01*
X86600Y1260050D02*
X86600Y1241250D01*
X54400Y1260050D02*
X86600D01*
X54400Y1241250D02*
Y1260050D01*
X70500Y1234150D02*
X70500Y1227150D01*
X67000Y1230650D02*
X74000D01*
X54400Y1221250D02*
X86600Y1221250D01*
X86600Y1240050D01*
X54400D02*
X86600D01*
X54400Y1221250D02*
Y1240050D01*
X59350Y1212250D02*
Y1221050D01*
X77350D01*
X77350Y1212250D01*
X59350D02*
X77350D01*
X66150Y1216650D02*
X70550D01*
X68350Y1214450D02*
Y1218850D01*
X7300Y1074950D02*
X12700Y1074950D01*
Y1064350D02*
Y1074950D01*
X7300Y1064350D02*
X12700D01*
X7300Y1074950D02*
X7300Y1064350D01*
X10000Y1068300D02*
Y1071000D01*
X8650Y1069650D02*
X11350Y1069650D01*
X177500Y1222150D02*
X184500D01*
X181000Y1218650D02*
Y1225650D01*
X171600Y1206050D02*
X171600Y1238250D01*
X171600Y1206050D02*
X190400Y1206050D01*
X190400Y1238250D01*
X171600Y1238250D02*
X190400Y1238250D01*
X177500Y1147150D02*
X184500D01*
X181000Y1143650D02*
Y1150650D01*
X190400Y1131050D02*
X190400Y1163250D01*
X171600D02*
X190400D01*
X171600Y1131050D02*
X171600Y1163250D01*
X171600Y1131050D02*
X190400D01*
X203600Y1417100D02*
X222400D01*
Y1384900D02*
Y1417100D01*
X203600Y1384900D02*
X222400D01*
X203600D02*
X203600Y1417100D01*
X213000Y1397500D02*
Y1404500D01*
X209500Y1401000D02*
X216500D01*
X15700Y1075950D02*
X15700Y1081350D01*
X26300D01*
Y1075950D02*
Y1081350D01*
X15700Y1075950D02*
X26300Y1075950D01*
X19650Y1078650D02*
X22350D01*
X21000Y1080000D02*
X21000Y1077300D01*
X94935Y1222909D02*
X94935Y1231709D01*
X112935Y1231709D01*
Y1222909D02*
Y1231709D01*
X94935Y1222909D02*
X112935Y1222909D01*
X101735Y1227309D02*
X106135Y1227309D01*
X103935Y1225109D02*
Y1229509D01*
X70500Y1020150D02*
X70500Y1027150D01*
X67000Y1023650D02*
X74000D01*
X54400Y1014250D02*
X86600Y1014250D01*
Y1033050D01*
X54400Y1033050D02*
X86600Y1033050D01*
X54400Y1014250D02*
X54400Y1033050D01*
X70495Y1121150D02*
X70495Y1114150D01*
X66995Y1117650D02*
X73995Y1117650D01*
X54395Y1108250D02*
X86595D01*
Y1127050D01*
X54395D02*
X86595D01*
X54395Y1108250D02*
Y1127050D01*
X70495Y1135150D02*
Y1142150D01*
X66995Y1138650D02*
X73995Y1138650D01*
X54395Y1129250D02*
X86595Y1129250D01*
Y1148050D01*
X54395Y1148050D02*
X86595Y1148050D01*
X54395Y1129250D02*
Y1148050D01*
X59345Y1099250D02*
X59345Y1108050D01*
X77345D01*
Y1099250D02*
Y1108050D01*
X59345Y1099250D02*
X77345Y1099250D01*
X66145Y1103650D02*
X70545D01*
X68345Y1101450D02*
Y1105850D01*
X15700Y1194350D02*
X15700Y1188950D01*
X15700Y1194350D02*
X26300Y1194350D01*
Y1188950D02*
Y1194350D01*
X15700Y1188950D02*
X26300D01*
X19650Y1191650D02*
X22350D01*
X21000Y1190300D02*
X21000Y1193000D01*
X94935Y970255D02*
Y979055D01*
X112935D01*
Y970255D02*
Y979055D01*
X94935Y970255D02*
X112935D01*
X101735Y974655D02*
X106135D01*
X103935Y972455D02*
Y976855D01*
X70500Y972155D02*
Y979155D01*
X67000Y975655D02*
X74000D01*
X54400Y966255D02*
X86600D01*
Y985055D01*
X54400Y985055D02*
X86600Y985055D01*
X54400Y985055D02*
X54400Y966255D01*
X70500Y880155D02*
Y887155D01*
X67000Y883655D02*
X74000D01*
X54400Y874255D02*
X86600Y874255D01*
Y893055D01*
X54400Y893055D02*
X86600Y893055D01*
X54400Y874255D02*
Y893055D01*
X59350Y956755D02*
Y965555D01*
X77350Y965555D01*
X77350Y956755D02*
X77350Y965555D01*
X59350Y956755D02*
X77350D01*
X66150Y961155D02*
X70550Y961155D01*
X68350Y958955D02*
Y963355D01*
X7300Y932955D02*
X12700D01*
Y922355D02*
Y932955D01*
X7300Y922355D02*
X12700D01*
X7300D02*
Y932955D01*
X10000Y926305D02*
X10000Y929005D01*
X8650Y927655D02*
X11350D01*
X177500Y967155D02*
X184500D01*
X181000Y970655D02*
X181000Y963655D01*
X171600Y951055D02*
Y983255D01*
Y951055D02*
X190400Y951055D01*
X190400Y983255D01*
X171600D02*
X190400D01*
X177500Y892155D02*
X184500D01*
X181000Y895655D02*
X181000Y888655D01*
X190400Y876055D02*
Y908255D01*
X171600D02*
X190400D01*
X171600Y876055D02*
Y908255D01*
Y876055D02*
X190400Y876055D01*
X15700Y939355D02*
X15700Y933955D01*
X15700Y939355D02*
X26300D01*
Y933955D02*
Y939355D01*
X15700Y933955D02*
X26300D01*
X19650Y936655D02*
X22350D01*
X21000Y935305D02*
X21000Y938005D01*
X324600Y1384100D02*
Y1402900D01*
X292400Y1384100D02*
X324600D01*
X292400D02*
Y1402900D01*
X324600D01*
X305000Y1393500D02*
X312000D01*
X308500Y1390000D02*
X308500Y1397000D01*
X91178Y785712D02*
X91178Y790112D01*
X88978Y787912D02*
X93378Y787912D01*
X82178Y792312D02*
X100178Y792312D01*
X82178Y783512D02*
Y792312D01*
Y783512D02*
X100178Y783512D01*
X100178Y792312D02*
X100178Y783512D01*
X110578Y745012D02*
Y763812D01*
X142778D01*
X142778Y745012D02*
X142778Y763812D01*
X110578Y745012D02*
X142778D01*
X123178Y754412D02*
X130178D01*
X126678Y750912D02*
X126678Y757912D01*
X124428Y766062D02*
Y768762D01*
X123078Y767412D02*
X125778D01*
X119128Y764712D02*
X129728Y764712D01*
Y770112D01*
X119128D02*
X129728D01*
X119128D02*
X119128Y764712D01*
X124428Y802762D02*
X124428Y800062D01*
X123078Y801412D02*
X125778D01*
X119128Y798712D02*
X129728Y798712D01*
X129728Y804112D02*
X129728Y798712D01*
X119128Y804112D02*
X129728D01*
X119128D02*
X119128Y798712D01*
X98578Y824012D02*
Y842812D01*
X130778D01*
Y824012D02*
Y842812D01*
X98578Y824012D02*
X130778D01*
X111178Y833412D02*
X118178D01*
X114678Y829912D02*
X114678Y836912D01*
X95328Y770412D02*
X98028Y770412D01*
X96678Y769062D02*
X96678Y771762D01*
X99378Y765112D02*
Y775712D01*
X93978Y775712D02*
X99378Y775712D01*
X93978Y765112D02*
Y775712D01*
Y765112D02*
X99378D01*
X743410Y210490D02*
X762210D01*
X743410D02*
X743410Y242690D01*
X762210D01*
X762210Y210490D01*
X752810Y223090D02*
Y230090D01*
X749310Y226590D02*
X756310D01*
X738460Y219340D02*
X741160Y219340D01*
X739810Y217990D02*
Y220690D01*
X742510Y214040D02*
Y224640D01*
X737110D02*
X742510D01*
X737110Y214040D02*
X737110Y224640D01*
X737110Y214040D02*
X742510Y214040D01*
X704210Y216090D02*
X706910Y216090D01*
X705560Y214740D02*
X705560Y217440D01*
X708260Y210790D02*
Y221390D01*
X702860Y221390D02*
X708260Y221390D01*
X702860Y210790D02*
Y221390D01*
Y210790D02*
X708260Y210790D01*
X663410Y193490D02*
X682210Y193490D01*
X663410Y225690D02*
X663410Y193490D01*
X663410Y225690D02*
X682210D01*
Y193490D02*
Y225690D01*
X672810Y206090D02*
X672810Y213090D01*
X669310Y209590D02*
X676310Y209590D01*
X736610Y197790D02*
X736610Y192390D01*
X726010D02*
X736610D01*
X726010D02*
Y197790D01*
X736610D01*
X729960Y195090D02*
X732660Y195090D01*
X731310Y196440D02*
X731310Y193740D01*
X714110Y189090D02*
X718510D01*
X716310Y186890D02*
Y191290D01*
X711910Y180090D02*
Y198090D01*
Y180090D02*
X720710D01*
X720710Y198090D02*
X720710Y180090D01*
X711910Y198090D02*
X720710D01*
X15700Y1088950D02*
Y1094350D01*
X26300D01*
X26300Y1088950D02*
X26300Y1094350D01*
X15700Y1088950D02*
X26300D01*
X19650Y1091650D02*
X22350D01*
X21000Y1090300D02*
Y1093000D01*
X15700Y1202950D02*
X15700Y1208350D01*
X26300D01*
X26300Y1202950D01*
X15700Y1202950D02*
X26300Y1202950D01*
X19650Y1205650D02*
X22350D01*
X21000Y1204300D02*
Y1207000D01*
X418911Y675500D02*
X421611Y675500D01*
X420261Y674150D02*
Y676850D01*
X422961Y670200D02*
Y680800D01*
X417561Y680800D02*
X422961Y680800D01*
X417561Y670200D02*
Y680800D01*
Y670200D02*
X422961Y670200D01*
X328911Y675500D02*
X331611D01*
X330261Y674150D02*
Y676850D01*
X332961Y670200D02*
Y680800D01*
X327561Y680800D02*
X332961Y680800D01*
X327561Y670201D02*
X327561Y680800D01*
X327561Y670201D02*
X332961Y670200D01*
X183149Y675500D02*
X185849D01*
X184499Y674150D02*
Y676850D01*
X187199Y670200D02*
Y680800D01*
X181799Y680800D02*
X187199Y680800D01*
X181799Y670200D02*
Y680800D01*
Y670200D02*
X187199Y670200D01*
X418911Y656000D02*
X421611Y656000D01*
X420261Y654650D02*
Y657350D01*
X417561Y661300D02*
X417561Y650700D01*
X422961Y650701D01*
Y661300D01*
X417561D02*
X422961D01*
X328911Y656000D02*
X331611D01*
X330261Y654650D02*
Y657350D01*
X327561Y650701D02*
Y661300D01*
Y650701D02*
X332961Y650700D01*
X332961Y661300D01*
X327561Y661300D02*
X332961Y661300D01*
X183149Y656000D02*
X185849D01*
X184499Y654650D02*
Y657350D01*
X181799Y650701D02*
Y661300D01*
Y650701D02*
X187199Y650700D01*
X187199Y661300D01*
X181799D02*
X187199D01*
X354649Y657300D02*
X354649Y661700D01*
X352449Y659500D02*
X356849Y659501D01*
X345649Y663900D02*
X363649D01*
X345649Y655100D02*
Y663900D01*
Y655100D02*
X363649Y655100D01*
Y663900D01*
X263887Y657300D02*
Y661701D01*
X261687Y659501D02*
X266087D01*
X254887Y663901D02*
X272887Y663900D01*
X254887Y655100D02*
Y663901D01*
Y655100D02*
X272887D01*
X272887Y663900D01*
X119649Y657300D02*
Y661700D01*
X117449Y659500D02*
X121849D01*
X110649Y663900D02*
X128649Y663901D01*
X110649Y663900D02*
X110649Y655100D01*
X128649D01*
Y663901D01*
X248400Y1418600D02*
Y1437400D01*
X280600D01*
Y1418600D02*
Y1437400D01*
X248400Y1418600D02*
X280600D01*
X261000Y1428000D02*
X268000D01*
X264500Y1424500D02*
Y1431500D01*
X263600Y1417100D02*
X282400D01*
Y1384900D02*
Y1417100D01*
X263600Y1384900D02*
X282400D01*
X263600D02*
Y1417100D01*
X273000Y1397500D02*
Y1404500D01*
X269500Y1401000D02*
X276500D01*
X362057Y246236D02*
X364757D01*
X363407Y244886D02*
Y247586D01*
X366107Y240936D02*
Y251536D01*
X360707D02*
X366107D01*
X360707Y240936D02*
Y251536D01*
Y240936D02*
X366107D01*
X98578Y805012D02*
X98578Y823812D01*
X130778Y823812D01*
X130778Y805012D02*
X130778Y823812D01*
X98578Y805012D02*
X130778D01*
X111178Y814412D02*
X118178D01*
X114678Y810912D02*
X114678Y817912D01*
X336573Y426047D02*
Y431447D01*
X325973Y426047D02*
X336573D01*
X325973D02*
Y431447D01*
X336573D01*
X329923Y428747D02*
X332623D01*
X331273Y427397D02*
Y430097D01*
X328080Y281202D02*
X333480D01*
X333480Y270602D02*
X333480Y281202D01*
X328080Y270602D02*
X333480Y270602D01*
X328080Y270602D02*
Y281202D01*
X330780Y274552D02*
Y277252D01*
X329430Y275902D02*
X332130D01*
X360361Y432347D02*
Y451147D01*
X328161Y432347D02*
X360361Y432347D01*
X328161Y432347D02*
Y451147D01*
X360361Y451147D01*
X340761Y441747D02*
X347761D01*
X344261Y438247D02*
Y445247D01*
X341633Y430155D02*
X360433D01*
Y397955D02*
Y430155D01*
X341633Y397955D02*
X360433D01*
X341633D02*
Y430155D01*
X351033Y410555D02*
Y417555D01*
X347533Y414055D02*
X354533D01*
X339788Y270662D02*
X342488D01*
X341138Y269312D02*
Y272012D01*
X338438Y265362D02*
Y275962D01*
Y265362D02*
X343838D01*
Y275962D01*
X338438D02*
X343838D01*
X120000Y1346500D02*
Y1353500D01*
X116500Y1350000D02*
X123500D01*
X103900Y1359400D02*
X136100D01*
X103900Y1340600D02*
Y1359400D01*
Y1340600D02*
X136100D01*
Y1359400D01*
X173600Y1333900D02*
X192400Y1333900D01*
X173600Y1333900D02*
Y1366100D01*
X192400D01*
Y1333900D02*
Y1366100D01*
X183000Y1346500D02*
Y1353500D01*
X179500Y1350000D02*
X186500D01*
X59000Y1388500D02*
Y1395500D01*
X55500Y1392000D02*
X62500D01*
X42900Y1382600D02*
X75100D01*
Y1401400D01*
X42900D02*
X75100D01*
X42900Y1382600D02*
Y1401400D01*
X59000Y1409500D02*
X59000Y1416500D01*
X55500Y1413000D02*
X62500D01*
X42900Y1422400D02*
X75100Y1422400D01*
X42900Y1422400D02*
X42900Y1403600D01*
X75100Y1403600D01*
Y1422400D01*
X158739Y1287642D02*
Y1290342D01*
X157389Y1288992D02*
X160089Y1288992D01*
X153439Y1291692D02*
X164039D01*
X153439D02*
X153439Y1286292D01*
X164039D01*
Y1291692D01*
X130539Y1316992D02*
X134939D01*
X132739Y1319192D02*
X132739Y1314792D01*
X128339Y1307992D02*
X128339Y1325992D01*
X128339Y1307992D02*
X137139Y1307992D01*
Y1325992D01*
X128339D02*
X137139D01*
X682410Y193490D02*
X701210D01*
X682410Y225690D02*
X682410Y193490D01*
X682410Y225690D02*
X701210Y225690D01*
X701210Y193490D01*
X691810Y206090D02*
Y213090D01*
X688310Y209590D02*
X695310D01*
X177500Y1034150D02*
X184500Y1034150D01*
X181000Y1030650D02*
X181000Y1037650D01*
X190400Y1018050D02*
X190400Y1050250D01*
X171600D02*
X190400D01*
X171600Y1018050D02*
Y1050250D01*
Y1018050D02*
X190400D01*
X147750Y1018150D02*
Y1025150D01*
X144250Y1021650D02*
X151250D01*
X131650Y1031050D02*
X163850D01*
X131650Y1012250D02*
Y1031050D01*
Y1012250D02*
X163850D01*
X163850Y1031050D01*
X995161Y653290D02*
Y664890D01*
X971361Y653290D02*
X995161D01*
X971361D02*
Y664890D01*
X995161D01*
X980361Y659090D02*
X986161D01*
X983261Y656190D02*
Y661990D01*
X92000Y1108650D02*
X176000D01*
Y1034650D02*
Y1108650D01*
X92000Y1034650D02*
X176000D01*
X92000D02*
Y1108650D01*
X134000Y1061650D02*
Y1071650D01*
X134000Y1081650D02*
X134000Y1071650D01*
X124000D02*
X134000D01*
X144000Y1071650D01*
X134000Y1184650D02*
X144000D01*
X124000D02*
X134000D01*
Y1194650D01*
Y1174650D02*
Y1184650D01*
X92000Y1147650D02*
Y1221650D01*
Y1147650D02*
X176000D01*
Y1221650D01*
X92000D02*
X176000D01*
X156378Y783152D02*
X156378Y816172D01*
X143678Y794662D02*
Y804662D01*
X138678Y799662D02*
X148678Y799662D01*
X130978Y816172D02*
X156378Y816172D01*
X130978Y783152D02*
X156378Y783152D01*
X130978Y783152D02*
X130978Y816172D01*
X634950Y150650D02*
X646050D01*
X634950Y144750D02*
X646050D01*
X634950D02*
Y150650D01*
X646050Y144750D02*
Y150650D01*
X639150Y147700D02*
X641850D01*
X640500Y146350D02*
Y149050D01*
X634950Y142650D02*
X646050Y142650D01*
X634950Y136750D02*
X646050Y136750D01*
X634950Y136750D02*
Y142650D01*
X646050Y136750D02*
X646050Y142650D01*
X639150Y139700D02*
X641850Y139700D01*
X640500Y138350D02*
Y141050D01*
X662350Y20500D02*
X662350Y31600D01*
X656450Y20500D02*
Y31600D01*
X662350D01*
X656450Y20500D02*
X662350D01*
X659400Y24700D02*
X659400Y27400D01*
X658050Y26050D02*
X660750D01*
X639490Y114240D02*
X650590D01*
X639490Y108340D02*
X650590D01*
X639490D02*
Y114240D01*
X650590Y108340D02*
Y114240D01*
X643690Y111290D02*
X646390D01*
X645040Y109940D02*
X645040Y112640D01*
X688450Y19600D02*
X688450Y8500D01*
X694350D02*
Y19600D01*
X688450Y8500D02*
X694350D01*
X688450Y19600D02*
X694350D01*
X691400Y12700D02*
Y15400D01*
X690050Y14050D02*
X692750D01*
X681650Y8500D02*
Y19600D01*
X687550D02*
X687550Y8500D01*
X681650D02*
X687550D01*
X681650Y19600D02*
X687550D01*
X684600Y12700D02*
Y15400D01*
X683250Y14050D02*
X685950D01*
X663250Y8500D02*
Y19600D01*
X669150Y8500D02*
Y19600D01*
X663250Y8500D02*
X669150D01*
X663250Y19600D02*
X669150D01*
X666200Y12700D02*
Y15400D01*
X664850Y14050D02*
X667550Y14050D01*
X646450Y150650D02*
X657550D01*
X646450Y144750D02*
X657550Y144750D01*
X646450Y144750D02*
X646450Y150650D01*
X657550Y144750D02*
Y150650D01*
X650650Y147700D02*
X653350Y147700D01*
X652000Y146350D02*
Y149050D01*
X646450Y142650D02*
X657550D01*
X646450Y136750D02*
X657550D01*
X646450Y142650D02*
X646450Y136750D01*
X657550D02*
Y142650D01*
X650650Y139700D02*
X653350D01*
X652000Y141050D02*
X652000Y138350D01*
X662250Y8500D02*
Y19600D01*
X656350Y8500D02*
Y19600D01*
X662250D01*
X656350Y8500D02*
X662250D01*
X659300Y12700D02*
Y15400D01*
X657950Y14050D02*
X660650D01*
X639490Y114800D02*
X650590D01*
X639490Y120700D02*
X650590Y120700D01*
Y114800D02*
Y120700D01*
X639490Y114800D02*
Y120700D01*
X643690Y117750D02*
X646390Y117750D01*
X645040Y116400D02*
Y119100D01*
X688450Y20500D02*
X688450Y31600D01*
X694350Y20500D02*
Y31600D01*
X688450Y20500D02*
X694350D01*
X688450Y31600D02*
X694350Y31600D01*
X691400Y24700D02*
Y27400D01*
X690050Y26050D02*
X692750Y26050D01*
X681650Y20500D02*
X681650Y31600D01*
X687550Y20500D02*
Y31600D01*
X681650Y20500D02*
X687550D01*
X681650Y31600D02*
X687550Y31600D01*
X684600Y24700D02*
Y27400D01*
X683250Y26050D02*
X685950Y26050D01*
X663250Y20500D02*
Y31600D01*
X669150D02*
X669150Y20500D01*
X663250D02*
X669150D01*
X663250Y31600D02*
X669150D01*
X666200Y27400D02*
X666200Y24700D01*
X664850Y26050D02*
X667550D01*
X959211Y662040D02*
X970311D01*
X959211Y656140D02*
X970311D01*
X959211D02*
Y662040D01*
X970311Y656140D02*
Y662040D01*
X963411Y659090D02*
X966111D01*
X964761Y657740D02*
Y660440D01*
X88328Y770412D02*
X91028D01*
X89678Y771762D02*
X89678Y769062D01*
X86728Y764862D02*
X92628Y764862D01*
X86728Y775962D02*
X92628D01*
X86728Y764862D02*
X86728Y775962D01*
X92628Y764862D02*
Y775962D01*
X863641Y70600D02*
X868041D01*
X865841Y68400D02*
Y72800D01*
X870241Y61600D02*
Y79600D01*
X861441D02*
X870241D01*
X861441Y61600D02*
Y79600D01*
Y61600D02*
X870241D01*
X30000Y1019450D02*
X30000Y1023850D01*
X27800Y1021650D02*
X32200Y1021650D01*
X21000Y1017250D02*
X39000Y1017250D01*
Y1026050D01*
X21000Y1026050D02*
X39000Y1026050D01*
X21000Y1017250D02*
X21000Y1026050D01*
X15000Y1060850D02*
X15000Y1056450D01*
X12800Y1058650D02*
X17200D01*
X6000Y1054250D02*
X24000D01*
Y1063050D01*
X6000D02*
X24000D01*
X6000Y1054250D02*
Y1063050D01*
X27450Y1033700D02*
X38550Y1033700D01*
X27450Y1039600D02*
X38550Y1039600D01*
X38550Y1033700D02*
X38550Y1039600D01*
X27450Y1039600D02*
X27450Y1033700D01*
X31650Y1036650D02*
X34350Y1036650D01*
X33000Y1038000D02*
X33000Y1035300D01*
X21050Y1064100D02*
X21050Y1075200D01*
X26950Y1064100D02*
Y1075200D01*
X21050Y1064100D02*
X26950Y1064100D01*
X21050Y1075200D02*
X26950Y1075200D01*
X24000Y1068300D02*
Y1071000D01*
X22650Y1069650D02*
X25350D01*
X19950Y1042100D02*
Y1053200D01*
X14050Y1042100D02*
X14050Y1053200D01*
X19950Y1053200D01*
X14050Y1042100D02*
X19950Y1042100D01*
X17000Y1046300D02*
Y1049000D01*
X15650Y1047650D02*
X18350Y1047650D01*
X27445Y1150700D02*
X38545D01*
X27445Y1156600D02*
X38545D01*
X38545Y1150700D02*
X38545Y1156600D01*
X27445D02*
X27445Y1150700D01*
X31645Y1153650D02*
X34345D01*
X32995Y1152300D02*
X32995Y1155000D01*
X26950Y1042100D02*
X26950Y1053200D01*
X21050Y1042100D02*
X21050Y1053200D01*
X26950D01*
X21050Y1042100D02*
X26950Y1042100D01*
X24000Y1046300D02*
Y1049000D01*
X22650Y1047650D02*
X25350Y1047650D01*
X12700Y1142350D02*
X23800Y1142350D01*
X12700Y1136450D02*
X23800D01*
X12700Y1142350D02*
X12700Y1136450D01*
X23800D02*
Y1142350D01*
X16900Y1139400D02*
X19600Y1139400D01*
X18250Y1138050D02*
Y1140750D01*
X6000Y912255D02*
X6000Y921055D01*
X24000Y921055D01*
Y912255D02*
Y921055D01*
X6000Y912255D02*
X24000Y912255D01*
X12800Y916655D02*
X17200D01*
X15000Y914455D02*
Y918855D01*
X25238Y886355D02*
Y897455D01*
X31139Y886355D02*
Y897455D01*
X25238Y886355D02*
X31139D01*
X25238Y897455D02*
X31139D01*
X28189Y890555D02*
Y893255D01*
X26839Y891905D02*
X29539D01*
X21050Y922105D02*
Y933205D01*
X26950Y922105D02*
Y933205D01*
X21050Y922105D02*
X26950D01*
X21050Y933205D02*
X26950Y933205D01*
X24000Y926305D02*
Y929005D01*
X22650Y927655D02*
X25350Y927655D01*
X27445Y1143700D02*
X38545Y1143700D01*
X27445Y1149600D02*
X38545D01*
X38545Y1143700D01*
X27445Y1143700D02*
X27445Y1149600D01*
X31645Y1146650D02*
X34345D01*
X32995Y1145300D02*
X32995Y1148000D01*
X19800Y1027355D02*
Y1038455D01*
X25700Y1027355D02*
Y1038455D01*
X19800Y1027355D02*
X25700D01*
X19800Y1038455D02*
X25700D01*
X22750Y1031555D02*
Y1034255D01*
X21400Y1032905D02*
X24100D01*
X19950Y898916D02*
Y910016D01*
X14050Y898916D02*
Y910016D01*
X19950D01*
X14050Y898916D02*
X19950D01*
X17000Y903116D02*
Y905816D01*
X15650Y904466D02*
X18350D01*
X19839Y891905D02*
X22538D01*
X21188Y890555D02*
Y893255D01*
X18239Y886355D02*
X24139D01*
X18239Y897455D02*
X24139D01*
X18239Y886355D02*
Y897455D01*
X24139D02*
X24139Y886355D01*
X81328Y770412D02*
X84028D01*
X82678Y771762D02*
X82678Y769062D01*
X79728Y775962D02*
X85628Y775962D01*
X79728Y764862D02*
X85628D01*
Y775962D01*
X79728Y764862D02*
Y775962D01*
X74328Y770412D02*
X77028Y770412D01*
X75678Y769062D02*
Y771762D01*
X72728Y775962D02*
X78628D01*
X72728Y764862D02*
X78628Y764862D01*
X78628Y775962D01*
X72728Y764862D02*
Y775962D01*
X725760Y191040D02*
X736860Y191040D01*
X725760Y185140D02*
X736860Y185140D01*
X725760Y191040D02*
X725760Y185140D01*
X736860Y185140D02*
Y191040D01*
X729960Y188090D02*
X732660Y188090D01*
X731310Y189440D02*
X731310Y186740D01*
X731310Y179740D02*
X731310Y182440D01*
X729960Y181090D02*
X732660Y181090D01*
X725760Y178140D02*
Y184040D01*
X736860Y178140D02*
Y184040D01*
X725760D02*
X736860D01*
X725760Y178140D02*
X736860Y178140D01*
X100178Y793512D02*
Y802312D01*
X82178Y793512D02*
X100178Y793512D01*
X82178Y793512D02*
Y802312D01*
X100178D01*
X88978Y797912D02*
X93378Y797912D01*
X91178Y795712D02*
X91178Y800112D01*
X701910Y198090D02*
X710710Y198090D01*
Y180090D02*
Y198090D01*
X701910Y180090D02*
X710710D01*
X701910Y198090D02*
X701910Y180090D01*
X706310Y186890D02*
Y191290D01*
X704110Y189090D02*
X708510Y189090D01*
X356249Y666650D02*
Y669351D01*
X354899Y668000D02*
X357599D01*
X361799Y665050D02*
X361799Y670950D01*
X350699Y665050D02*
Y670950D01*
Y665050D02*
X361799D01*
X350699Y670950D02*
X361799D01*
X265487Y666650D02*
Y669351D01*
X264137Y668000D02*
X266837D01*
X271037Y665050D02*
X271037Y670950D01*
X259937Y665050D02*
Y670950D01*
Y665050D02*
X271037D01*
X259937Y670950D02*
X271037Y670950D01*
X121249Y666650D02*
Y669351D01*
X119899Y668000D02*
X122599D01*
X126799Y665050D02*
Y670950D01*
X115699Y665050D02*
X115699Y670950D01*
X115699Y665050D02*
X126799D01*
X115699Y670950D02*
X126799Y670950D01*
X119299Y640550D02*
X130399D01*
X119299Y646450D02*
X130399D01*
Y640550D02*
Y646450D01*
X119299Y640550D02*
Y646450D01*
X123499Y643500D02*
X126199D01*
X124849Y642150D02*
Y644850D01*
X107749Y646250D02*
X110449D01*
X109099Y644900D02*
Y647600D01*
X106149Y640700D02*
X112049D01*
X106149Y651800D02*
X112049D01*
X106149Y640700D02*
Y651800D01*
X112049Y640700D02*
Y651800D01*
X367549Y643450D02*
X378649D01*
X367549Y637550D02*
X378649D01*
X367549D02*
Y643450D01*
X378649Y637550D02*
Y643450D01*
X371749Y640500D02*
X374449D01*
X373099Y639150D02*
Y641851D01*
X139400Y1341150D02*
X170600D01*
X139400Y1358850D02*
X170600D01*
Y1341150D02*
Y1358850D01*
X155000Y1346500D02*
Y1353500D01*
X151500Y1350000D02*
X158500D01*
X139400Y1341150D02*
Y1358850D01*
X9550Y1400850D02*
X40750D01*
X9550Y1383150D02*
X40750D01*
X9550D02*
Y1400850D01*
X25150Y1388500D02*
Y1395500D01*
X21650Y1392000D02*
X28650D01*
X40750Y1383150D02*
Y1400850D01*
X59480Y1321580D02*
X59480Y1334280D01*
X69380Y1327930D02*
X76280D01*
X72830Y1331380D02*
X72830Y1324480D01*
X86180Y1321580D02*
X86180Y1334280D01*
X59480Y1321580D02*
X86180D01*
X59480Y1334280D02*
X86180D01*
X13650Y1302400D02*
X16350Y1302400D01*
X15000Y1301050D02*
Y1303750D01*
X12050Y1296850D02*
X17950Y1296850D01*
X12050Y1307950D02*
X17950D01*
X12050D02*
X12050Y1296850D01*
X17950Y1307950D02*
X17950Y1296850D01*
X329430Y303909D02*
X332130D01*
X330780Y302559D02*
Y305259D01*
X327830Y309459D02*
X333730D01*
X327830Y298359D02*
X333730D01*
Y309459D01*
X327830Y298359D02*
Y309459D01*
X338185Y337947D02*
Y349047D01*
X332285Y337947D02*
Y349047D01*
X338185D01*
X332285Y337947D02*
X338185D01*
X335235Y342147D02*
Y344847D01*
X333885Y343497D02*
X336585D01*
X332285Y348947D02*
Y360047D01*
X338185Y348947D02*
Y360047D01*
X332285Y348947D02*
X338185D01*
X332285Y360047D02*
X338185D01*
X335235Y353147D02*
Y355847D01*
X333885Y354497D02*
X336585D01*
X100889Y1332592D02*
X118589Y1332592D01*
X109739Y1313492D02*
Y1320492D01*
X106239Y1316992D02*
X113239D01*
X100889Y1301392D02*
X118589D01*
Y1332592D01*
X100889Y1301392D02*
Y1332592D01*
X82980Y1411580D02*
X109680D01*
X82980Y1424280D02*
X109680D01*
X82980Y1411580D02*
Y1424280D01*
X96330Y1421380D02*
X96330Y1414480D01*
X92880Y1417930D02*
X99780Y1417930D01*
X109680Y1411580D02*
X109680Y1424280D01*
X183039Y1303992D02*
X185739D01*
X184389Y1305342D02*
X184389Y1302642D01*
X181439Y1298442D02*
X187339D01*
X181439Y1309542D02*
X187339D01*
X181439Y1298442D02*
Y1309542D01*
X187339Y1298442D02*
Y1309542D01*
X183039Y1316992D02*
X185739D01*
X184389Y1318342D02*
X184389Y1315642D01*
X181439Y1322542D02*
X187339D01*
X181439Y1311442D02*
X187339D01*
Y1322542D01*
X181439Y1311442D02*
Y1322542D01*
X7050Y1042100D02*
Y1053200D01*
X12950Y1042100D02*
Y1053200D01*
X7050Y1042100D02*
X12950D01*
X7050Y1053200D02*
X12950Y1053200D01*
X10000Y1046300D02*
Y1049000D01*
X8650Y1047650D02*
X11350D01*
X25950Y1156200D02*
X25950Y1145100D01*
X20050Y1145100D02*
Y1156200D01*
X25950Y1156200D01*
X20050Y1145100D02*
X25950Y1145100D01*
X23000Y1149300D02*
X23000Y1152000D01*
X21650Y1150650D02*
X24350D01*
X18950Y1145100D02*
X18950Y1156200D01*
X13050Y1145100D02*
X13050Y1156200D01*
X18950D01*
X13050Y1145100D02*
X18950D01*
X16000Y1149300D02*
Y1152000D01*
X14650Y1150650D02*
X17350D01*
X6050Y1156200D02*
X6050Y1145100D01*
X11950Y1156200D02*
X11950Y1145100D01*
X6050Y1145100D02*
X11950Y1145100D01*
X6050Y1156200D02*
X11950D01*
X9000Y1152000D02*
X9000Y1149300D01*
X7650Y1150650D02*
X10350D01*
X23338Y904467D02*
X26038Y904467D01*
X24688Y903117D02*
Y905817D01*
X21739Y898917D02*
X27638D01*
X21739Y910017D02*
X27638D01*
X21739D02*
X21739Y898917D01*
X27638D02*
Y910017D01*
X7050Y898916D02*
Y910016D01*
X12950Y898916D02*
Y910016D01*
X7050Y898916D02*
X12950D01*
X7050Y910016D02*
X12950D01*
X10000Y903116D02*
Y905816D01*
X8650Y904466D02*
X11350D01*
X161369Y1433930D02*
X165769D01*
X163569Y1431730D02*
X163569Y1436130D01*
X167969Y1424930D02*
Y1442930D01*
X159169Y1442930D02*
X167969Y1442930D01*
X159169Y1442930D02*
X159169Y1424930D01*
X167969Y1424930D01*
X136739Y1326592D02*
Y1335392D01*
X118739Y1326592D02*
X136739D01*
X118739D02*
Y1335392D01*
X136739D01*
X125539Y1330992D02*
X129939D01*
X127739Y1328792D02*
Y1333192D01*
X136739Y1298592D02*
X136739Y1307392D01*
X118739Y1298592D02*
X136739Y1298592D01*
X118739Y1298592D02*
Y1307392D01*
X136739D01*
X125539Y1302992D02*
X129939D01*
X127739Y1300792D02*
Y1305192D01*
X363329Y682010D02*
X416669D01*
X363329Y648990D02*
X416669D01*
Y682010D01*
X363329Y648990D02*
Y682010D01*
X389999Y660500D02*
Y670500D01*
X384999Y665500D02*
X394999D01*
X273329Y682010D02*
X326669D01*
X273329Y648990D02*
X326669D01*
Y682010D01*
X273329Y648990D02*
Y682010D01*
X299999Y660500D02*
Y670500D01*
X294999Y665500D02*
X304999D01*
X128329Y682010D02*
X181669D01*
X128329Y648990D02*
X181669D01*
X181669Y682010D02*
X181669Y648990D01*
X128329D02*
X128329Y682010D01*
X154999Y660500D02*
Y670500D01*
X149999Y665500D02*
X159999D01*
X60000Y1071650D02*
Y1081650D01*
Y1061650D02*
Y1071650D01*
X70000D01*
X50000D02*
X60000D01*
X30000Y1045650D02*
Y1097650D01*
X90000D01*
X30000Y1045650D02*
X90000D01*
Y1097650D01*
X60000Y1194650D02*
X60000Y1184650D01*
X60000Y1174650D02*
X60000Y1184650D01*
X70000D01*
X50000D02*
X60000D01*
X30000Y1158650D02*
X30000Y1210650D01*
X90000D01*
X30000Y1158650D02*
X90000Y1158650D01*
X90000Y1210650D02*
X90000Y1158650D01*
X137000Y1430580D02*
Y1440580D01*
X132000Y1435580D02*
X142000D01*
X116000Y1453580D02*
X158000Y1453580D01*
X116000Y1417580D02*
X158000D01*
X116000D02*
Y1453580D01*
X158000Y1417580D02*
X158000Y1453580D01*
X130378Y771712D02*
X130378Y797112D01*
X104978Y797112D02*
X130378Y797112D01*
X104978Y771712D02*
X130378Y771712D01*
X117678Y779412D02*
X117678Y789412D01*
X112678Y784412D02*
X122678D01*
X104978Y771712D02*
Y797112D01*
X355657Y257486D02*
X355657Y230986D01*
X329157Y230986D02*
Y257486D01*
Y230986D02*
X355657Y230986D01*
X329157Y257486D02*
X355657D01*
X337407Y244236D02*
X347407D01*
X342407Y239236D02*
Y249236D01*
X326256Y424287D02*
X334783D01*
X329523Y421747D02*
X330523D01*
Y422747D01*
Y421747D02*
X331523D01*
X330523Y420747D02*
Y421747D01*
X334783Y419207D02*
Y424287D01*
X326256Y419207D02*
X334783D01*
X326256D02*
Y424287D01*
X325701Y379479D02*
Y388006D01*
X328241Y382747D02*
Y383747D01*
X327241D02*
X328241D01*
Y384747D01*
Y383747D02*
X329241D01*
X325701Y388006D02*
X330781D01*
Y379479D02*
Y388006D01*
X325701Y379479D02*
X330781D01*
X344775Y372487D02*
Y381014D01*
X342235Y376747D02*
Y377747D01*
Y376747D02*
X343235D01*
X342235Y375747D02*
Y376747D01*
X341235D02*
X342235D01*
X339695Y372487D02*
X344775D01*
X339695D02*
Y381014D01*
X344775D01*
X330781Y365487D02*
Y374014D01*
X328241Y369747D02*
Y370747D01*
Y369747D02*
X329241D01*
X328241Y368747D02*
Y369747D01*
X327241D02*
X328241D01*
X325701Y365487D02*
X330781D01*
X325701D02*
Y374014D01*
X330781D01*
X903443Y762290D02*
Y764830D01*
X894553Y748320D02*
Y776260D01*
X912333Y748320D02*
Y776260D01*
X894553Y748320D02*
X912333D01*
X894553Y776260D02*
X912333D01*
X900903Y762290D02*
X903443Y762290D01*
Y759750D02*
Y762290D01*
X905983D01*
X903443Y732290D02*
X905983Y732290D01*
X903443Y729750D02*
Y732290D01*
X900903Y732290D02*
X903443Y732290D01*
X894553Y746260D02*
X912333D01*
X894553Y718320D02*
X912333Y718320D01*
X912333Y746260D02*
X912333Y718320D01*
X894553Y718320D02*
Y746260D01*
X903443Y732290D02*
Y734830D01*
X147750Y1135150D02*
Y1142150D01*
X144250Y1138650D02*
X151250Y1138650D01*
X131650Y1148050D02*
X163850D01*
X131650Y1129250D02*
Y1148050D01*
Y1129250D02*
X163850D01*
X163850Y1148050D02*
X163850Y1129250D01*
X147750Y1229150D02*
Y1236150D01*
X144250Y1232650D02*
X151250D01*
X131650Y1242050D02*
X163850Y1242050D01*
X131650Y1242050D02*
X131650Y1223250D01*
X163850Y1223250D01*
Y1242050D01*
X147750Y1114150D02*
Y1121150D01*
X144250Y1117650D02*
X151250Y1117650D01*
X131650Y1127050D02*
X163850Y1127050D01*
X131650Y1108250D02*
Y1127050D01*
Y1108250D02*
X163850D01*
Y1127050D01*
X177500Y1109150D02*
X184500Y1109150D01*
X181000Y1105650D02*
X181000Y1112650D01*
X171600Y1125250D02*
X171600Y1093050D01*
X190400Y1093050D01*
Y1125250D01*
X171600Y1125250D02*
X190400Y1125250D01*
X15650Y1069650D02*
X18350D01*
X17000Y1068300D02*
Y1071000D01*
X14050Y1064100D02*
X19950Y1064100D01*
X14050Y1075200D02*
X19950D01*
X14050Y1064100D02*
X14050Y1075200D01*
X19950Y1064100D02*
Y1075200D01*
X19950Y922105D02*
Y933205D01*
X14050Y922105D02*
Y933205D01*
X19950Y933205D01*
X14050Y922105D02*
X19950D01*
X17000Y926305D02*
Y929005D01*
X15650Y927655D02*
X18350Y927655D01*
X59345Y1148250D02*
Y1157050D01*
X77345Y1157050D01*
Y1148250D02*
Y1157050D01*
X59345Y1148250D02*
X77345Y1148250D01*
X66145Y1152650D02*
X70545D01*
X68345Y1150450D02*
Y1154850D01*
X59350Y1035250D02*
X59350Y1044050D01*
X77350Y1044050D01*
Y1035250D02*
Y1044050D01*
X59350Y1035250D02*
X77350D01*
X66150Y1039650D02*
X70550Y1039650D01*
X68350Y1041850D02*
X68350Y1037450D01*
X59350Y893755D02*
Y902555D01*
X77350Y902555D01*
X77350Y893755D02*
X77350Y902555D01*
X59350Y893755D02*
X77350D01*
X66150Y898155D02*
X70550Y898155D01*
X68350Y895955D02*
Y900355D01*
X379549Y637550D02*
X390649D01*
X379549Y643450D02*
X390649D01*
Y637550D02*
Y643450D01*
X379549Y637550D02*
Y643450D01*
X383749Y640500D02*
X386449D01*
X385099Y639150D02*
Y641851D01*
X140649Y686701D02*
Y697801D01*
X146549Y686701D02*
Y697801D01*
X140649Y686701D02*
X146549D01*
X140649Y697801D02*
X146549D01*
X143599Y690900D02*
Y693600D01*
X142249Y692251D02*
X144949D01*
X134149Y686701D02*
Y697801D01*
X140049Y686701D02*
Y697801D01*
X134149Y686701D02*
X140049D01*
X134149Y697801D02*
X140049D01*
X137099Y690900D02*
Y693600D01*
X135749Y692251D02*
X138449D01*
X368392Y685750D02*
X379492D01*
X368392Y691650D02*
X379492D01*
Y685750D02*
Y691650D01*
X368392Y685750D02*
Y691650D01*
X372592Y688700D02*
X375292D01*
X373942Y687350D02*
Y690050D01*
X328493Y269179D02*
X337020D01*
X331761Y266639D02*
X332761D01*
Y267639D01*
Y266639D02*
X333761D01*
X332761Y265639D02*
Y266639D01*
X337020Y264099D02*
Y269179D01*
X328493Y264099D02*
X337020D01*
X328493D02*
Y269179D01*
X330781Y340487D02*
Y349014D01*
X328241Y344747D02*
Y345747D01*
Y344747D02*
X329241D01*
X328241Y343747D02*
Y344747D01*
X327241D02*
X328241D01*
X325701Y340487D02*
X330781D01*
X325701D02*
Y349014D01*
X330781D01*
X325701Y349479D02*
Y358006D01*
X328241Y352747D02*
Y353747D01*
X327241D02*
X328241D01*
Y354747D01*
Y353747D02*
X329241D01*
X325701Y358006D02*
X330781D01*
Y349479D02*
Y358006D01*
X325701Y349479D02*
X330781D01*
X484800Y669201D02*
X490200D01*
X484800D02*
Y679800D01*
X490200D01*
Y669201D02*
Y679800D01*
X487500Y673150D02*
Y675851D01*
X486150Y674501D02*
X488850D01*
X484800Y660800D02*
X490200D01*
Y650201D02*
Y660800D01*
X484800Y650201D02*
X490200D01*
X484800D02*
Y660800D01*
X487500Y654150D02*
Y656851D01*
X486150Y655500D02*
X488850D01*
X491100Y665500D02*
X499900D01*
Y647500D02*
Y665500D01*
X491100Y647500D02*
X499900D01*
X491100D02*
Y665500D01*
X495500Y654301D02*
Y658700D01*
X493300Y656500D02*
X497700D01*
X498450Y668951D02*
Y680051D01*
X492550Y668951D02*
Y680051D01*
X498450D01*
X492550Y668951D02*
X498450D01*
X495500Y673150D02*
Y675851D01*
X494150Y674501D02*
X496850D01*
X465500Y665500D02*
X475500D01*
X470500Y660500D02*
Y670500D01*
X457000Y653500D02*
Y677500D01*
X484000Y653500D02*
Y677500D01*
X457000Y653500D02*
X484000D01*
X457000Y677500D02*
X484000D01*
X903446Y795360D02*
Y797900D01*
X894556Y781390D02*
Y809330D01*
X912336Y781390D02*
Y809330D01*
X894556Y781390D02*
X912336D01*
X894556Y809330D02*
X912336D01*
X900906Y795360D02*
X903446D01*
Y792820D02*
Y795360D01*
X905986D01*
X147750Y878155D02*
Y885155D01*
X144250Y881655D02*
X151250D01*
X131650Y891055D02*
X163850D01*
X131650Y872255D02*
Y891055D01*
Y872255D02*
X163850D01*
Y891055D01*
Y968255D02*
Y987055D01*
X131650Y968255D02*
X163850D01*
X131650D02*
Y987055D01*
X163850D01*
X144250Y977655D02*
X151250D01*
X147750Y974155D02*
Y981155D01*
X611632Y211090D02*
Y215490D01*
X609431Y213290D02*
X613831Y213290D01*
X602631Y208890D02*
X620631D01*
X620631Y217690D01*
X602631Y217690D02*
X620631Y217690D01*
X602631Y208890D02*
X602631Y217690D01*
X567881Y140940D02*
Y143640D01*
X566531Y142290D02*
X569231Y142290D01*
X562581Y144990D02*
X573181D01*
X562581D02*
X562581Y139590D01*
X573181D01*
X573181Y144990D02*
X573181Y139590D01*
X591381Y140940D02*
Y143640D01*
X590031Y142290D02*
X592731D01*
X586081Y139590D02*
X596681D01*
X596682Y144990D01*
X586081Y144990D02*
X596682Y144990D01*
X586081Y139590D02*
Y144990D01*
X569881Y131940D02*
Y134640D01*
X568531Y133290D02*
X571231D01*
X564581Y135990D02*
X575181D01*
X564581Y130590D02*
Y135990D01*
Y130590D02*
X575181D01*
Y135990D01*
X560381Y170640D02*
X560381Y167940D01*
X559031Y169290D02*
X561731Y169290D01*
X555081Y166590D02*
X565681Y166590D01*
X565681Y171990D01*
X555081Y171990D02*
X565681Y171990D01*
X555081Y166590D02*
X555081Y171990D01*
X569381Y158640D02*
X569381Y155940D01*
X568031Y157290D02*
X570731D01*
X564081Y159990D02*
X574682D01*
X564081Y154590D02*
Y159990D01*
Y154590D02*
X574682D01*
Y159990D01*
X578282Y158540D02*
X580981D01*
X579632Y157190D02*
Y159890D01*
X582331Y153240D02*
Y163840D01*
X576931Y163840D02*
X582331Y163840D01*
X576931Y163840D02*
X576931Y153240D01*
X582331D01*
X567881Y146940D02*
Y149640D01*
X566531Y148290D02*
X569231Y148290D01*
X562581Y150990D02*
X573181D01*
X562581Y145590D02*
X562581Y150990D01*
X562581Y145590D02*
X573181Y145590D01*
X573181Y150990D02*
X573181Y145590D01*
X579381Y148940D02*
X579381Y151640D01*
X578031Y150290D02*
X580732D01*
X574081Y152990D02*
X584682D01*
X574081D02*
X574081Y147590D01*
X584682D01*
Y152990D01*
X590381Y131940D02*
Y134640D01*
X589031Y133290D02*
X591731D01*
X585081Y130590D02*
X595681D01*
Y135990D01*
X585081D02*
X595681D01*
X585081D02*
X585081Y130590D01*
X586081Y150990D02*
X586081Y145590D01*
X586081Y150990D02*
X596681D01*
X596682Y145590D01*
X586081Y145590D02*
X596682Y145590D01*
X590031Y148290D02*
X592731Y148290D01*
X591381Y146940D02*
Y149640D01*
X573881Y167940D02*
Y170640D01*
X572531Y169290D02*
X575231Y169290D01*
X568581Y166590D02*
X579181Y166590D01*
X579181Y171990D02*
X579181Y166590D01*
X568581Y171990D02*
X579181Y171990D01*
X568581Y166590D02*
Y171990D01*
X589881Y155940D02*
Y158640D01*
X588531Y157290D02*
X591231D01*
X584581Y154590D02*
X595182D01*
Y159990D01*
X584581Y159990D02*
X595182Y159990D01*
X584581Y154590D02*
Y159990D01*
X541632Y156940D02*
Y159640D01*
X540281Y158290D02*
X542981Y158290D01*
X536331Y155590D02*
X546931D01*
Y160990D01*
X536331Y160990D02*
X546931Y160990D01*
X536331Y160990D02*
X536331Y155590D01*
X578281Y131040D02*
X580981Y131040D01*
X579632Y129690D02*
Y132390D01*
X576931Y125740D02*
Y136340D01*
Y125740D02*
X582331Y125740D01*
Y136340D01*
X576931D02*
X582331D01*
X595631Y193940D02*
Y196640D01*
X594282Y195290D02*
X596982D01*
X590331Y192590D02*
X600931Y192590D01*
Y197990D01*
X590331Y197990D02*
X600931Y197990D01*
X590331Y192590D02*
Y197990D01*
X553631Y190940D02*
Y193640D01*
X552281Y192290D02*
X554981D01*
X548331Y194990D02*
X558932Y194990D01*
X548331Y194990D02*
X548331Y189590D01*
X558932Y189590D01*
Y194990D01*
X598150Y179999D02*
X600850D01*
X599500Y178649D02*
Y181349D01*
X596800Y174699D02*
Y185299D01*
Y174699D02*
X602200Y174699D01*
Y185299D01*
X596800Y185299D02*
X602200Y185299D01*
X585381Y167940D02*
Y170640D01*
X584031Y169290D02*
X586731D01*
X579832Y166340D02*
Y172240D01*
X590931Y166340D02*
Y172240D01*
X579832Y172240D02*
X590931Y172240D01*
X579832Y166340D02*
X590931Y166340D01*
X209165Y71890D02*
Y74590D01*
X207815Y73240D02*
X210515D01*
X214715Y70290D02*
Y76190D01*
X203615Y70290D02*
Y76190D01*
Y70290D02*
X214715D01*
X203615Y76190D02*
X214715D01*
X224665Y71890D02*
Y74590D01*
X223315Y73240D02*
X226015D01*
X219115Y70290D02*
Y76190D01*
X230215Y70290D02*
Y76190D01*
X219115D02*
X230215D01*
X219115Y70290D02*
X230215D01*
X803934Y835894D02*
X811783Y828045D01*
X808106Y840066D02*
X815955Y832217D01*
X811783Y828045D02*
X815955Y832217D01*
X803934Y835894D02*
X808106Y840066D01*
X808990Y835010D02*
X810899Y833101D01*
X808990Y833101D02*
X810899Y835010D01*
X798984Y830944D02*
X806833Y823095D01*
X803156Y835116D02*
X811005Y827267D01*
X806833Y823095D02*
X811005Y827267D01*
X798984Y830944D02*
X803156Y835116D01*
X804040Y830060D02*
X805949Y828151D01*
X804040Y828151D02*
X805949Y830060D01*
X558932Y183590D02*
Y188990D01*
X548331Y183590D02*
X558932D01*
X548331D02*
X548331Y188990D01*
X558932D01*
X552281Y186290D02*
X554981D01*
X553631Y184940D02*
Y187640D01*
X536331Y152990D02*
X536331Y147590D01*
X536331Y152990D02*
X546931Y152990D01*
X546931Y147590D02*
X546931Y152990D01*
X536331Y147590D02*
X546931Y147590D01*
X540281Y150290D02*
X542981D01*
X541632Y148940D02*
Y151640D01*
X595631Y190640D02*
X595631Y187940D01*
X594281Y189290D02*
X596982D01*
X590331Y186590D02*
X600932D01*
X600931Y191990D02*
X600932Y186590D01*
X590331Y191990D02*
X600931Y191990D01*
X590331Y186590D02*
X590331Y191990D01*
X589800Y185299D02*
X595200D01*
X595200Y174699D01*
X589800Y174699D02*
X595200Y174699D01*
X589800Y174699D02*
Y185299D01*
X592500Y178649D02*
Y181349D01*
X591150Y179999D02*
X593850Y179999D01*
X584681Y142990D02*
X584682Y137590D01*
X574081Y137590D02*
X584682Y137590D01*
X574081Y137590D02*
X574081Y142990D01*
X584681D01*
X578031Y140290D02*
X580731Y140290D01*
X579381Y141640D02*
X579381Y138940D01*
X181000Y994305D02*
Y997005D01*
X179650Y995655D02*
X182350D01*
X175700Y992955D02*
X186300D01*
Y998355D01*
X175700D02*
X186300D01*
X175700Y992955D02*
Y998355D01*
X543762Y1376313D02*
X554862D01*
X543762Y1382213D02*
X554862D01*
Y1376313D02*
Y1382213D01*
X543762Y1376313D02*
Y1382213D01*
X547962Y1379263D02*
X550662D01*
X549312Y1377912D02*
Y1380612D01*
X94665Y1458678D02*
X100064D01*
X94665D02*
Y1469278D01*
X100064Y1469278D01*
X100064Y1458678D02*
X100064Y1469278D01*
X97365Y1462628D02*
Y1465328D01*
X96014Y1463978D02*
X98715Y1463978D01*
X96515Y1504248D02*
X99214D01*
X97865Y1505598D02*
X97865Y1502898D01*
X95164Y1498948D02*
X95165Y1509548D01*
X95164Y1498948D02*
X100564Y1498948D01*
Y1509548D01*
X95165D02*
X100564D01*
X88665Y1482748D02*
X93065D01*
X90865Y1480548D02*
Y1484948D01*
X95265Y1473748D02*
X95265Y1491748D01*
X86465D02*
X95265D01*
X86465D02*
X86465Y1473748D01*
X95265Y1473748D01*
X846710Y264690D02*
Y283490D01*
X814510Y264690D02*
X846710D01*
X814510D02*
Y283490D01*
X846710D01*
X827110Y274090D02*
X834110D01*
X830610Y270590D02*
Y277590D01*
X735430Y246570D02*
Y265370D01*
X767630D01*
Y246570D02*
Y265370D01*
X735430Y246570D02*
X767630D01*
X748030Y255970D02*
X755030D01*
X751530Y252470D02*
Y259470D01*
X335771Y775789D02*
Y781189D01*
X346371D01*
Y775789D02*
Y781189D01*
X335771Y775789D02*
X346371D01*
X339721Y778489D02*
X342421D01*
X341071Y777139D02*
Y779839D01*
X527692Y695347D02*
X533092Y695347D01*
X527692Y695347D02*
Y705947D01*
X533092Y705947D01*
Y695347D02*
Y705947D01*
X530392Y699297D02*
Y701997D01*
X529042Y700647D02*
X531742D01*
X196650Y71890D02*
Y74590D01*
X195300Y73240D02*
X198000D01*
X191350Y70540D02*
X201950D01*
Y75940D01*
X191350D02*
X201950D01*
X191350Y70540D02*
Y75940D01*
X188902Y715800D02*
X194302D01*
Y705200D02*
Y715800D01*
X188902Y705200D02*
X194302D01*
X188902D02*
Y715800D01*
X191602Y709150D02*
Y711850D01*
X190252Y710500D02*
X192952D01*
X158902Y744800D02*
X164302D01*
X158902D02*
Y755400D01*
X164302D01*
Y744800D02*
Y755400D01*
X161602Y748750D02*
Y751450D01*
X160252Y750100D02*
X162952D01*
X867500Y8999D02*
Y15999D01*
X864000Y12499D02*
X871000D01*
X875200Y20199D02*
X875200Y4799D01*
X859800Y20199D02*
X875200Y20199D01*
X859800Y4799D02*
Y20199D01*
Y4799D02*
X875200D01*
X822500Y8999D02*
Y15999D01*
X819000Y12499D02*
X826000D01*
X830200Y4799D02*
Y20199D01*
X814800D02*
X830200D01*
X814800Y4799D02*
Y20199D01*
Y4799D02*
X830200D01*
X777500Y8999D02*
Y15999D01*
X774000Y12499D02*
X781000D01*
X785200Y4799D02*
X785200Y20199D01*
X769800D02*
X785200D01*
X769800Y4799D02*
Y20199D01*
Y4799D02*
X785200Y4799D01*
X189439Y1311442D02*
Y1322542D01*
X195339Y1311442D02*
Y1322542D01*
X189439Y1311442D02*
X195339D01*
X189439Y1322542D02*
X195339D01*
X192389Y1315642D02*
Y1318342D01*
X191039Y1316992D02*
X193739D01*
X132151Y844240D02*
Y861940D01*
X144251Y853090D02*
X151251D01*
X147751Y849590D02*
Y856590D01*
X163351Y844240D02*
Y861940D01*
X132151D02*
X163351D01*
X132151Y844240D02*
X163351D01*
X132228Y824562D02*
Y842262D01*
X144328Y833412D02*
X151328D01*
X147828Y829912D02*
Y836912D01*
X163428Y824562D02*
Y842262D01*
X132228D02*
X163428D01*
X132228Y824562D02*
X163428D01*
X191039Y1303992D02*
X193739D01*
X192389Y1302642D02*
Y1305342D01*
X189439Y1298442D02*
X195339D01*
X189439Y1309542D02*
X195339D01*
X189439Y1298442D02*
Y1309542D01*
X195339Y1298442D02*
Y1309542D01*
X964761Y674740D02*
Y677440D01*
X963411Y676090D02*
X966111D01*
X970311Y673140D02*
Y679040D01*
X959211Y673140D02*
Y679040D01*
Y673140D02*
X970311D01*
X959211Y679040D02*
X970311D01*
X527342Y706097D02*
Y717197D01*
X521442Y706097D02*
Y717197D01*
X527342Y717197D01*
X521442Y706097D02*
X527342D01*
X524392Y710297D02*
Y712997D01*
X523042Y711647D02*
X525742Y711647D01*
X89678Y778062D02*
Y780762D01*
X88328Y779412D02*
X91028D01*
X95228Y776462D02*
Y782362D01*
X84128Y776462D02*
Y782362D01*
Y776462D02*
X95228D01*
X84128Y782362D02*
X95228D01*
X520842Y706097D02*
Y717197D01*
X514942Y706097D02*
X514942Y717197D01*
X520842D01*
X514942Y706097D02*
X520842D01*
X517892Y710297D02*
Y712997D01*
X516542Y711647D02*
X519242D01*
X514342Y706097D02*
X514342Y717197D01*
X508442Y706097D02*
Y717197D01*
X514342D01*
X508442Y706097D02*
X514342D01*
X511392Y710297D02*
Y712997D01*
X510042Y711647D02*
X512742Y711647D01*
X507842Y706097D02*
Y717197D01*
X501942Y706097D02*
Y717197D01*
X507842Y717197D01*
X501942Y706097D02*
X507842D01*
X504892Y710297D02*
Y712997D01*
X503542Y711647D02*
X506242D01*
X341071Y762139D02*
Y764839D01*
X339721Y763489D02*
X342421D01*
X335521Y760539D02*
Y766439D01*
X346621Y760539D02*
Y766439D01*
X335521D02*
X346621D01*
X335521Y760539D02*
X346621D01*
X369269Y742266D02*
X371969D01*
X370619Y740916D02*
Y743616D01*
X367669Y736716D02*
X373569D01*
X367669Y747816D02*
X373569D01*
X367669Y736716D02*
Y747816D01*
X373569Y736716D02*
Y747816D01*
X89515Y1463978D02*
X92214D01*
X90865Y1462628D02*
Y1465328D01*
X87914Y1469528D02*
X93815D01*
X87914Y1458428D02*
X93815Y1458428D01*
Y1469528D01*
X87914Y1458428D02*
Y1469528D01*
X360457Y227686D02*
Y238786D01*
X366357Y227686D02*
Y238786D01*
X360457Y227686D02*
X366357D01*
X360457Y238786D02*
X366357D01*
X363407Y231886D02*
Y234586D01*
X362057Y233236D02*
X364757D01*
X341071Y755139D02*
Y757839D01*
X339721Y756489D02*
X342421D01*
X335521Y753539D02*
Y759439D01*
X346621Y753539D02*
Y759439D01*
X335521D02*
X346621D01*
X335521Y753539D02*
X346621D01*
X539342Y700597D02*
X539342Y711697D01*
X533442Y711697D02*
X533442Y700597D01*
X533442Y711697D02*
X539342Y711697D01*
X533442Y700597D02*
X539342D01*
X536392Y704797D02*
Y707497D01*
X535042Y706147D02*
X537742D01*
X124021Y513539D02*
X135121D01*
X124021Y519439D02*
X135121D01*
Y513539D02*
Y519439D01*
X124021Y513539D02*
Y519439D01*
X128221Y516489D02*
X130921D01*
X129571Y515139D02*
Y517839D01*
X847150Y12499D02*
X849850Y12499D01*
X848500Y11149D02*
Y13849D01*
X845550Y6949D02*
X851450D01*
X845550Y18049D02*
X851450D01*
X845550Y6949D02*
Y18049D01*
X851450Y6949D02*
Y18049D01*
X802150Y12499D02*
X804850D01*
X803500Y11149D02*
Y13849D01*
X800550Y6949D02*
X806450D01*
X800550Y18049D02*
X806450D01*
X800550Y6949D02*
Y18049D01*
X806450Y6949D02*
X806450Y18049D01*
X757150Y12499D02*
X759850D01*
X758500Y11149D02*
Y13849D01*
X755550Y6949D02*
X761450D01*
X755550Y18049D02*
X761450D01*
X755550Y6949D02*
Y18049D01*
X761450Y6949D02*
Y18049D01*
X712150Y12499D02*
X714850D01*
X713500Y11149D02*
Y13849D01*
X710550Y6949D02*
X716450D01*
X710550Y18049D02*
X716450D01*
X710550Y6949D02*
Y18049D01*
X716450Y6949D02*
Y18049D01*
X878150Y12499D02*
X880850Y12499D01*
X879500Y11149D02*
Y13849D01*
X876550Y6949D02*
X882450D01*
X876550Y18049D02*
X882450D01*
X876550Y6949D02*
Y18049D01*
X882450Y6949D02*
X882450Y18049D01*
X833150Y12499D02*
X835850D01*
X834500Y11149D02*
Y13849D01*
X831550Y6949D02*
X837450D01*
X831550Y18049D02*
X837450D01*
X831550Y6949D02*
Y18049D01*
X837450Y6949D02*
Y18049D01*
X788150Y12499D02*
X790850D01*
X789500Y11149D02*
Y13849D01*
X786550Y6949D02*
X792450D01*
X786550Y18049D02*
X792450D01*
X786550Y6949D02*
Y18049D01*
X792450Y6949D02*
Y18049D01*
X743150Y12499D02*
X745850D01*
X744500Y11149D02*
Y13849D01*
X741550Y6949D02*
X747450D01*
X741550Y18049D02*
X747450D01*
X741550Y6949D02*
Y18049D01*
X747450Y6949D02*
Y18049D01*
X854150Y12499D02*
X856850Y12499D01*
X855500Y11149D02*
Y13849D01*
X852550Y18049D02*
X858450D01*
X852550Y6949D02*
X858450D01*
Y18049D01*
X852550Y6949D02*
Y18049D01*
X809150Y12499D02*
X811850D01*
X810500Y11149D02*
Y13849D01*
X807550Y18049D02*
X813450D01*
X807550Y6949D02*
X813450D01*
X813450Y18049D01*
X807550Y6949D02*
Y18049D01*
X764150Y12499D02*
X766850D01*
X765500Y11149D02*
Y13849D01*
X762550Y18049D02*
X768450D01*
X762550Y6949D02*
X768450D01*
Y18049D01*
X762550D02*
X762550Y6949D01*
X719150Y12499D02*
X721850Y12499D01*
X720500Y11149D02*
Y13849D01*
X717550Y18049D02*
X723450D01*
X717550Y6949D02*
X723450Y6949D01*
Y18049D01*
X717550Y6949D02*
Y18049D01*
X885150Y12499D02*
X887850D01*
X886500Y11149D02*
Y13849D01*
X883550Y18049D02*
X889450D01*
X883550Y6949D02*
X889450D01*
Y18049D01*
X883550D02*
X883550Y6949D01*
X840150Y12499D02*
X842850Y12499D01*
X841500Y11149D02*
Y13849D01*
X838550Y18049D02*
X844450D01*
X838550Y6949D02*
X844450D01*
Y18049D01*
X838550Y6949D02*
Y18049D01*
X795150Y12499D02*
X797850D01*
X796500Y11149D02*
Y13849D01*
X793550Y18049D02*
X799450D01*
X793550Y6949D02*
X799450D01*
Y18049D01*
X793550Y6949D02*
Y18049D01*
X750150Y12499D02*
X752850Y12499D01*
X751500Y11149D02*
Y13849D01*
X748550Y18049D02*
X754450D01*
X748550Y6949D02*
X754450D01*
Y18049D01*
X748550Y6949D02*
Y18049D01*
X178920Y68890D02*
Y71590D01*
X177570Y70240D02*
X180270D01*
X184470Y67290D02*
X184470Y73190D01*
X173370Y67290D02*
X173370Y73190D01*
X173370Y67290D02*
X184470Y67290D01*
X173370Y73190D02*
X184470Y73190D01*
X178802Y733150D02*
X189902D01*
X178802Y727250D02*
X189902D01*
X178802D02*
Y733150D01*
X189902Y727250D02*
Y733150D01*
X183002Y730200D02*
X185702D01*
X184352Y728850D02*
Y731550D01*
X178802Y764150D02*
X189902D01*
X178802Y770050D02*
X189902D01*
Y764150D02*
Y770050D01*
X178802Y764150D02*
Y770050D01*
X183002Y767100D02*
X185702D01*
X184352Y765750D02*
Y768450D01*
X178802Y690550D02*
X189902D01*
X178802Y696450D02*
X189902D01*
Y690550D02*
Y696450D01*
X178802Y690550D02*
Y696450D01*
X183002Y693500D02*
X185702D01*
X184352Y692150D02*
Y694850D01*
X165302Y690550D02*
X176402D01*
X165302Y696450D02*
X176402D01*
Y690550D02*
Y696450D01*
X165302Y690550D02*
Y696450D01*
X169502Y693500D02*
X172202D01*
X170852Y692150D02*
Y694850D01*
X170852Y765750D02*
Y768450D01*
X169502Y767100D02*
X172202D01*
X176402Y764150D02*
Y770050D01*
X165302Y764150D02*
Y770050D01*
Y764150D02*
X176402D01*
X165302Y770050D02*
X176402D01*
X158650Y716700D02*
Y727800D01*
X164550Y716700D02*
Y727800D01*
X158650Y716700D02*
X164550D01*
X158650Y727800D02*
X164550D01*
X161600Y720900D02*
Y723600D01*
X160250Y722250D02*
X162950D01*
X476150Y752912D02*
X478850D01*
X477500Y751562D02*
Y754262D01*
X474550Y758462D02*
X480450Y758462D01*
X474550Y747362D02*
X480450D01*
X480450Y758462D01*
X474550Y758462D02*
X474550Y747362D01*
X468050D02*
X468050Y758462D01*
X473950Y758462D02*
X473950Y747362D01*
X468050Y747362D02*
X473950Y747362D01*
X468050Y758462D02*
X473950Y758462D01*
X471000Y751562D02*
Y754262D01*
X469650Y752912D02*
X472350Y752912D01*
X461550Y747362D02*
X461550Y758462D01*
X467450Y758462D02*
X467450Y747362D01*
X461550Y747362D02*
X467450Y747362D01*
X461550Y758462D02*
X467450Y758462D01*
X464500Y751562D02*
X464500Y754262D01*
X463150Y752912D02*
X465850Y752912D01*
X459950Y716922D02*
X459950Y705822D01*
X454050D02*
X454050Y716922D01*
X459950Y716922D01*
X454050Y705822D02*
X459950D01*
X457000Y710022D02*
Y712722D01*
X455650Y711372D02*
X458350Y711372D01*
X478150Y711372D02*
X480850D01*
X479500Y712722D02*
X479500Y710022D01*
X476550Y705822D02*
X482450Y705822D01*
X476550Y716922D02*
X482450D01*
X476550Y705822D02*
Y716922D01*
X482450D02*
X482450Y705822D01*
X470650Y711372D02*
X473350D01*
X472000Y710022D02*
X472000Y712722D01*
X469050Y705822D02*
X474950D01*
X469050Y716922D02*
X474950Y716922D01*
X469050Y705822D02*
X469050Y716922D01*
X474950Y716922D02*
X474950Y705822D01*
X463150Y711372D02*
X465850D01*
X464500Y710022D02*
X464500Y712722D01*
X461550Y705822D02*
X467450Y705822D01*
X461550Y716922D02*
X467450D01*
X461550Y705822D02*
Y716922D01*
X467450Y705822D02*
X467450Y716922D01*
X7400Y1020905D02*
X10100D01*
X8750Y1019555D02*
Y1022255D01*
X5800Y1026455D02*
X11700D01*
X5800Y1015355D02*
X11700D01*
Y1026455D01*
X5800Y1015355D02*
Y1026455D01*
X331311Y741232D02*
X334011D01*
X332661Y739882D02*
Y742581D01*
X329711Y746781D02*
X335611D01*
X329711Y735682D02*
X335611D01*
Y746781D01*
X329711Y735682D02*
Y746781D01*
X520842Y695097D02*
Y706197D01*
X514941D02*
X514942Y695097D01*
X514941Y706197D02*
X520842D01*
X514942Y695097D02*
X520842D01*
X517892Y699297D02*
Y701997D01*
X516542Y700647D02*
X519242D01*
X527342Y747357D02*
Y758457D01*
X521442Y747357D02*
Y758457D01*
X527342D01*
X521442Y747357D02*
X527342Y747357D01*
X524392Y751557D02*
Y754257D01*
X523042Y752907D02*
X525742Y752907D01*
X520842Y747357D02*
Y758457D01*
X514942D02*
X514942Y747357D01*
X514942Y758457D02*
X520842D01*
X514942Y747357D02*
X520842D01*
X517892Y751557D02*
Y754257D01*
X516542Y752907D02*
X519242D01*
X514342Y747357D02*
Y758457D01*
X508442Y747357D02*
X508442Y758457D01*
X514342D01*
X508442Y747357D02*
X514342D01*
X511392Y751557D02*
Y754257D01*
X510042Y752907D02*
X512742Y752907D01*
X507842Y747357D02*
Y758457D01*
X501942Y747357D02*
Y758457D01*
X507842D01*
X501942Y747357D02*
X507842Y747357D01*
X504892Y751557D02*
Y754257D01*
X503542Y752907D02*
X506242D01*
X212010Y484250D02*
X214710D01*
X213360Y482900D02*
Y485600D01*
X210410Y489800D02*
X216310D01*
X210410Y478700D02*
X216310D01*
Y489800D01*
X210410Y478700D02*
Y489800D01*
X186610Y484250D02*
X189310D01*
X187960Y482900D02*
Y485600D01*
X185010Y489800D02*
X190910D01*
X185010Y478700D02*
X190910D01*
Y489800D01*
X185010Y478700D02*
Y489800D01*
X337157Y740432D02*
X357477D01*
X337157Y715032D02*
X357477D01*
Y740432D01*
X337157Y715032D02*
Y740432D01*
X347317Y722731D02*
Y732731D01*
X342317Y727731D02*
X352317D01*
X167442Y723200D02*
X187762D01*
X167442Y697800D02*
X187762D01*
Y723200D01*
X167442Y697800D02*
Y723200D01*
X177602Y705500D02*
Y715500D01*
X172602Y710500D02*
X182602D01*
X172602Y750100D02*
X182602D01*
X177602Y745100D02*
Y755100D01*
X187762Y737400D02*
Y762800D01*
X167442Y737400D02*
Y762800D01*
X187762D01*
X167442Y737400D02*
X187762D01*
X220985Y1524060D02*
X229512D01*
X225245Y1526600D02*
X226245D01*
X225245Y1525600D02*
Y1526600D01*
X224245D02*
X225245D01*
Y1527600D01*
X220985Y1524060D02*
Y1529140D01*
X229512D01*
Y1524060D02*
Y1529140D01*
X780985Y1524060D02*
X789512D01*
X785245Y1526600D02*
X786245D01*
X785245Y1525600D02*
Y1526600D01*
X784245D02*
X785245D01*
Y1527600D01*
X780985Y1524060D02*
Y1529140D01*
X789512D01*
Y1524060D02*
Y1529140D01*
X500985Y1524060D02*
X509512D01*
X505245Y1526600D02*
X506245D01*
X505245Y1525600D02*
Y1526600D01*
X504245D02*
X505245D01*
Y1527600D01*
X500985Y1524060D02*
Y1529140D01*
X509512D01*
Y1524060D02*
Y1529140D01*
X230977D02*
X239504D01*
X234245Y1526600D02*
X235245D01*
Y1527600D01*
Y1526600D02*
X236245D01*
X235245Y1525600D02*
Y1526600D01*
X239504Y1524060D02*
Y1529140D01*
X230977Y1524060D02*
X239504D01*
X230977D02*
Y1529140D01*
X790977D02*
X799504D01*
X794245Y1526600D02*
X795245D01*
Y1527600D01*
Y1526600D02*
X796245D01*
X795245Y1525600D02*
Y1526600D01*
X799504Y1524060D02*
Y1529140D01*
X790977Y1524060D02*
X799504D01*
X790977D02*
Y1529140D01*
X510977D02*
X519504D01*
X514245Y1526600D02*
X515245D01*
Y1527600D01*
Y1526600D02*
X516245D01*
X515245Y1525600D02*
Y1526600D01*
X519504Y1524060D02*
Y1529140D01*
X510977Y1524060D02*
X519504D01*
X510977D02*
Y1529140D01*
X240985Y1524060D02*
X249512D01*
X245245Y1526600D02*
X246245D01*
X245245Y1525600D02*
Y1526600D01*
X244245D02*
X245245D01*
Y1527600D01*
X240985Y1524060D02*
Y1529140D01*
X249512D01*
Y1524060D02*
Y1529140D01*
X800985Y1524060D02*
X809512D01*
X805245Y1526600D02*
X806245D01*
X805245Y1525600D02*
Y1526600D01*
X804245D02*
X805245D01*
Y1527600D01*
X800985Y1524060D02*
Y1529140D01*
X809512D01*
Y1524060D02*
Y1529140D01*
X520985Y1524060D02*
X529512D01*
X525245Y1526600D02*
X526245D01*
X525245Y1525600D02*
Y1526600D01*
X524245D02*
X525245D01*
Y1527600D01*
X520985Y1524060D02*
Y1529140D01*
X529512D01*
Y1524060D02*
Y1529140D01*
X111840Y232070D02*
X120368D01*
X116100Y234610D02*
X117100D01*
X116100Y233610D02*
Y234610D01*
X115100D02*
X116100D01*
Y235610D01*
X111840Y232070D02*
Y237150D01*
X120368D01*
Y232070D02*
Y237150D01*
X111840Y206670D02*
X120368D01*
X116100Y209210D02*
X117100D01*
X116100Y208210D02*
Y209210D01*
X115100D02*
X116100D01*
Y210210D01*
X111840Y206670D02*
Y211750D01*
X120368D01*
Y206670D02*
Y211750D01*
X111840Y155870D02*
X120368D01*
X116100Y158410D02*
X117100D01*
X116100Y157410D02*
Y158410D01*
X115100D02*
X116100D01*
Y159410D01*
X111840Y155870D02*
Y160950D01*
X120368D01*
Y155870D02*
Y160950D01*
X224832Y224750D02*
X233360D01*
X228100Y222210D02*
X229100D01*
Y223210D01*
Y222210D02*
X230100D01*
X229100Y221210D02*
Y222210D01*
X233360Y219670D02*
Y224750D01*
X224832Y219670D02*
X233360D01*
X224832D02*
Y224750D01*
Y216750D02*
X233360D01*
X228100Y214210D02*
X229100D01*
Y215210D01*
Y214210D02*
X230100D01*
X229100Y213210D02*
Y214210D01*
X233360Y211670D02*
Y216750D01*
X224832Y211670D02*
X233360D01*
X224832D02*
Y216750D01*
Y206750D02*
X233360D01*
X228100Y204210D02*
X229100D01*
Y205210D01*
Y204210D02*
X230100D01*
X229100Y203210D02*
Y204210D01*
X233360Y201670D02*
Y206750D01*
X224832Y201670D02*
X233360D01*
X224832D02*
Y206750D01*
Y186350D02*
X233360D01*
X228100Y183810D02*
X229100D01*
Y184810D01*
Y183810D02*
X230100D01*
X229100Y182810D02*
Y183810D01*
X233360Y181270D02*
Y186350D01*
X224832Y181270D02*
X233360D01*
X224832D02*
Y186350D01*
X212841Y690530D02*
X221368D01*
X216109Y687990D02*
X217109D01*
Y688990D01*
Y687990D02*
X218109D01*
X217109Y686990D02*
Y687990D01*
X221368Y685450D02*
Y690530D01*
X212841Y685450D02*
X221368D01*
X212841D02*
Y690530D01*
X243742Y770960D02*
X252269D01*
X248002Y773500D02*
X249002D01*
X248002Y772500D02*
Y773500D01*
X247002D02*
X248002D01*
Y774500D01*
X243742Y770960D02*
Y776040D01*
X252269D01*
Y770960D02*
Y776040D01*
X267734D02*
X276261D01*
X271002Y773500D02*
X272002D01*
Y774500D01*
Y773500D02*
X273002D01*
X272002Y772500D02*
Y773500D01*
X276261Y770960D02*
Y776040D01*
X267734Y770960D02*
X276261D01*
X267734D02*
Y776040D01*
X219647Y68780D02*
X228174D01*
X222915Y66240D02*
X223915D01*
Y67240D01*
Y66240D02*
X224915D01*
X223915Y65240D02*
Y66240D01*
X228174Y63700D02*
Y68780D01*
X219647Y63700D02*
X228174D01*
X219647D02*
Y68780D01*
X205655Y63700D02*
X214182D01*
X209914Y66240D02*
X210914D01*
X209914Y65240D02*
Y66240D01*
X208915D02*
X209914D01*
Y67240D01*
X205655Y63700D02*
Y68780D01*
X214182D01*
Y63700D02*
Y68780D01*
X192390Y64150D02*
X200918D01*
X196650Y66690D02*
X197650D01*
X196650Y65690D02*
Y66690D01*
X195650D02*
X196650D01*
Y67690D01*
X192390Y64150D02*
Y69230D01*
X200918D01*
Y64150D02*
Y69230D01*
X424391Y1379560D02*
Y1390660D01*
X430291Y1379560D02*
Y1390660D01*
X424391Y1379560D02*
X430291D01*
X424391Y1390660D02*
X430291D01*
X427341Y1383760D02*
Y1386460D01*
X425991Y1385110D02*
X428691D01*
X537312Y1377912D02*
Y1380612D01*
X535962Y1379263D02*
X538662D01*
X531762Y1376313D02*
Y1382213D01*
X542862Y1376313D02*
Y1382213D01*
X531762D02*
X542862D01*
X531762Y1376313D02*
X542862D01*
X107315Y1498698D02*
X107315Y1509798D01*
X101415Y1498698D02*
Y1509798D01*
X107315D01*
X101415Y1498698D02*
X107315D01*
X104365Y1505598D02*
X104365Y1502898D01*
X103015Y1504248D02*
X105715Y1504248D01*
X113315Y1498698D02*
Y1509798D01*
X107415Y1498698D02*
X107415Y1509798D01*
X113315D01*
X107415Y1498698D02*
X113315Y1498698D01*
X110365Y1502898D02*
X110365Y1505598D01*
X109015Y1504248D02*
X111715D01*
X119815Y1498698D02*
Y1509798D01*
X113915Y1498698D02*
Y1509798D01*
X119815Y1509798D01*
X113915Y1498698D02*
X119815D01*
X116865Y1502898D02*
Y1505598D01*
X115515Y1504248D02*
X118215Y1504248D01*
X423461Y1379540D02*
Y1390640D01*
X417561Y1379540D02*
Y1390640D01*
X423461D01*
X417561Y1379540D02*
X423461D01*
X420511Y1383740D02*
Y1386440D01*
X419161Y1385090D02*
X421861D01*
X782561Y1355790D02*
Y1366890D01*
X788461Y1355790D02*
Y1366890D01*
X782561Y1355790D02*
X788461D01*
X782561Y1366890D02*
X788461D01*
X785511Y1359990D02*
Y1362690D01*
X784161Y1361340D02*
X786861D01*
X126315Y1498698D02*
Y1509798D01*
X120415Y1498698D02*
X120415Y1509798D01*
X126315D01*
X120415Y1498698D02*
X126315Y1498698D01*
X123365Y1502898D02*
Y1505598D01*
X122015Y1504248D02*
X124715Y1504248D01*
X126314Y1458428D02*
X126315Y1469528D01*
X120415Y1458428D02*
X120415Y1469528D01*
X126315D01*
X120415Y1458428D02*
X126314D01*
X123364Y1462628D02*
Y1465328D01*
X122015Y1463978D02*
X124714Y1463978D01*
X664161Y1380090D02*
X666861D01*
X665511Y1378740D02*
Y1381440D01*
X662561Y1374540D02*
X668461D01*
X662561Y1385640D02*
X668461D01*
X662561Y1374540D02*
Y1385640D01*
X668461Y1374540D02*
Y1385640D01*
X521592Y764107D02*
X532691D01*
X521592Y758207D02*
X532691D01*
X521592D02*
Y764107D01*
X532691Y758207D02*
Y764107D01*
X525792Y761157D02*
X528492D01*
X527142Y759807D02*
Y762507D01*
X664650Y129000D02*
X667350D01*
X666000Y127650D02*
Y130350D01*
X663050Y134550D02*
X668950D01*
X663050Y123450D02*
X668950D01*
Y134550D01*
X663050Y123450D02*
Y134550D01*
X347885Y388497D02*
X350585D01*
X349235Y387147D02*
Y389847D01*
X346285Y394047D02*
X352185D01*
X346285Y382947D02*
X352185D01*
Y394047D01*
X346285Y382947D02*
Y394047D01*
X344985Y364897D02*
Y367597D01*
X343635Y366247D02*
X346335D01*
X339435Y363297D02*
Y369197D01*
X350535Y363297D02*
Y369197D01*
X339435D02*
X350535D01*
X339435Y363297D02*
X350535D01*
X333885Y388497D02*
X336585D01*
X335235Y387147D02*
Y389847D01*
X332285Y382947D02*
X338185D01*
X332285Y394047D02*
X338185D01*
X332285Y382947D02*
Y394047D01*
X338185Y382947D02*
Y394047D01*
X340885Y388497D02*
X343585D01*
X342235Y387147D02*
Y389847D01*
X339285Y382947D02*
X345185D01*
X339285Y394047D02*
X345185D01*
X339285Y382947D02*
Y394047D01*
X345185Y382947D02*
Y394047D01*
X333885Y368997D02*
X336585D01*
X335235Y367647D02*
Y370347D01*
X332285Y374547D02*
X338185D01*
X332285Y363447D02*
X338185D01*
Y374547D01*
X332285Y363447D02*
Y374547D01*
X482650Y752912D02*
X485350Y752912D01*
X484000Y751562D02*
Y754262D01*
X481300Y747612D02*
X481300Y758212D01*
X481300Y747612D02*
X486700Y747612D01*
Y758212D01*
X481300Y758212D02*
X486700Y758212D01*
X485650Y711372D02*
X488350Y711372D01*
X487000Y712722D02*
X487000Y710022D01*
X489700Y716672D02*
X489700Y706072D01*
X484300Y716672D02*
X489700Y716672D01*
X484300Y706072D02*
Y716672D01*
Y706072D02*
X489700Y706072D01*
X493450Y747362D02*
Y758462D01*
X487550Y747362D02*
Y758462D01*
X493450Y758462D01*
X487550Y747362D02*
X493450D01*
X490500Y751562D02*
X490500Y754262D01*
X489150Y752912D02*
X491850Y752912D01*
X105865Y1482748D02*
X115865D01*
X110865Y1477748D02*
Y1487748D01*
X124365Y1494748D02*
X124365Y1470748D01*
X97365Y1470748D02*
Y1494748D01*
X124365D01*
X97365Y1470748D02*
X124365Y1470748D01*
X457000Y743412D02*
X484000D01*
X457000Y719412D02*
X484000D01*
Y743412D01*
X457000Y719412D02*
Y743412D01*
X470500Y726412D02*
Y736412D01*
X465500Y731412D02*
X475500D01*
X529542Y752907D02*
X532242D01*
X530892Y751557D02*
Y754257D01*
X528192Y747607D02*
Y758207D01*
Y747607D02*
X533592D01*
X533592Y758207D01*
X528192Y758207D02*
X533592Y758207D01*
X529042Y711647D02*
X531742D01*
X530392Y710297D02*
Y712997D01*
X533092Y716947D02*
X533092Y706347D01*
X527692Y716947D02*
X533092D01*
X527692Y706347D02*
Y716947D01*
Y706347D02*
X533092Y706347D01*
X535692Y731687D02*
X540092D01*
X537892Y729487D02*
Y733887D01*
X533492Y722687D02*
Y740687D01*
Y722687D02*
X542292D01*
Y740687D01*
X533492D02*
X542292D01*
X536542Y752907D02*
X539242Y752907D01*
X537892Y751557D02*
Y754257D01*
X534942Y758457D02*
X540842D01*
X534942Y747357D02*
X540842Y747357D01*
Y758457D01*
X534942Y747357D02*
Y758457D01*
X506392Y743687D02*
X533392D01*
X506392Y719687D02*
X533392D01*
Y743687D01*
X506392Y719687D02*
Y743687D01*
X519892Y726687D02*
Y736687D01*
X514892Y731687D02*
X524892D01*
X114678Y728010D02*
Y730711D01*
X113328Y729360D02*
X116028D01*
X109378Y732060D02*
X119978D01*
X109378D02*
X109378Y726660D01*
X119978Y726661D01*
Y732060D01*
X16300Y790190D02*
X19000D01*
X17650Y788840D02*
Y791540D01*
X14950Y784890D02*
Y795490D01*
Y784890D02*
X20350D01*
Y795490D01*
X14950D02*
X20350D01*
X92148Y712860D02*
X94848D01*
X93498Y714211D02*
X93498Y711510D01*
X90798Y707561D02*
Y718160D01*
Y707561D02*
X96198D01*
Y718160D01*
X90798D02*
X96198D01*
X34650Y765840D02*
Y768540D01*
X33300Y767190D02*
X36000D01*
X29350Y764490D02*
X39950D01*
Y769890D01*
X29350Y769890D02*
X39950Y769890D01*
X29350Y769890D02*
X29350Y764490D01*
X58250Y812790D02*
X77050D01*
Y780590D02*
Y812790D01*
X58250Y780590D02*
X77050D01*
X58250D02*
Y812790D01*
X67650Y793190D02*
Y800190D01*
X64150Y796690D02*
X71150D01*
X59099Y641100D02*
Y659900D01*
X91299D01*
Y641100D02*
Y659900D01*
X59099Y641100D02*
X91299Y641100D01*
X71699Y650500D02*
X78699D01*
X75199Y647000D02*
Y654000D01*
X347250Y270560D02*
X349950D01*
X348600Y269210D02*
Y271910D01*
X345650Y276110D02*
X351550D01*
X345650Y265010D02*
X351550D01*
Y276110D01*
X345650Y265010D02*
Y276110D01*
X126678Y728010D02*
X126678Y730710D01*
X125328Y729360D02*
X128028D01*
X132228Y726410D02*
Y732310D01*
X121128Y726410D02*
Y732310D01*
Y726410D02*
X132228D01*
X121128Y732310D02*
X132228D01*
X16300Y802190D02*
X19000D01*
X17650Y800840D02*
Y803540D01*
X14700Y807740D02*
X20600D01*
X14700Y796640D02*
X20600D01*
Y807740D01*
X14700Y796640D02*
Y807740D01*
X96328Y732360D02*
X99028D01*
X97678Y731010D02*
Y733710D01*
X94728Y726811D02*
X100628D01*
X94728Y737910D02*
X100628Y737910D01*
X94728Y737910D02*
X94728Y726811D01*
X100628Y737910D02*
X100628Y726811D01*
X103328Y732360D02*
X106028D01*
X104678Y733710D02*
X104678Y731011D01*
X101728Y737910D02*
X107628D01*
X101728Y726811D02*
X107628D01*
Y737910D01*
X101728Y726811D02*
Y737910D01*
X14650Y771840D02*
X14650Y774540D01*
X13300Y773190D02*
X16000D01*
X20200Y770240D02*
Y776140D01*
X9100Y770240D02*
Y776140D01*
Y770240D02*
X20200D01*
X9100Y776140D02*
X20200Y776140D01*
X14650Y778840D02*
Y781540D01*
X13300Y780190D02*
X16000D01*
X9100Y777240D02*
Y783140D01*
X20200Y777240D02*
Y783140D01*
X9100D02*
X20200D01*
X9100Y777240D02*
X20200D01*
X107678Y707361D02*
X117678Y707361D01*
X112678Y702360D02*
Y712360D01*
X99428Y694110D02*
Y720610D01*
X125928Y694110D02*
X125928Y720611D01*
X99428Y694110D02*
X125928D01*
X99428Y720610D02*
X125928Y720611D01*
X486100Y740412D02*
X494900D01*
X494900Y722412D01*
X486100Y722412D02*
X494900Y722412D01*
X486100Y722412D02*
X486100Y740412D01*
X490500Y733612D02*
X490500Y729212D01*
X488300Y731412D02*
X492700Y731412D01*
X21000Y1083800D02*
Y1086500D01*
X19650Y1085150D02*
X22350D01*
X15450Y1082200D02*
Y1088100D01*
X26550Y1082200D02*
Y1088100D01*
X15450D02*
X26550D01*
X15450Y1082200D02*
X26550D01*
X21000Y1197300D02*
Y1200000D01*
X19650Y1198650D02*
X22350D01*
X15450Y1195700D02*
Y1201600D01*
X26550Y1195700D02*
Y1201600D01*
X15450D02*
X26550D01*
X15450Y1195700D02*
X26550D01*
X725760Y177040D02*
X736860D01*
X725760Y171140D02*
X736860D01*
X725760D02*
Y177040D01*
X736860Y171140D02*
Y177040D01*
X729960Y174090D02*
X732660D01*
X731310Y172740D02*
Y175440D01*
X33000Y1028300D02*
Y1031000D01*
X31650Y1029650D02*
X34350D01*
X27450Y1026700D02*
Y1032600D01*
X38550Y1026700D02*
Y1032600D01*
X27450D02*
X38550D01*
X27450Y1026700D02*
X38550D01*
X21000Y1211300D02*
Y1214000D01*
X19650Y1212650D02*
X22350D01*
X15450Y1209700D02*
Y1215600D01*
X26550Y1209700D02*
Y1215600D01*
X15450D02*
X26550D01*
X15450Y1209700D02*
X26550D01*
X385999Y687350D02*
Y690051D01*
X384649Y688700D02*
X387349D01*
X391549Y685750D02*
Y691650D01*
X380449Y685750D02*
Y691650D01*
Y685750D02*
X391549D01*
X380449Y691650D02*
X391549D01*
X335521Y746539D02*
X346621D01*
X335521Y752439D02*
X346621D01*
Y746539D02*
Y752439D01*
X335521Y746539D02*
Y752439D01*
X339721Y749489D02*
X342421D01*
X341071Y748139D02*
Y750839D01*
X8650Y1182650D02*
X11350D01*
X10000Y1181300D02*
Y1184000D01*
X7300Y1177350D02*
Y1187950D01*
Y1177350D02*
X12700D01*
Y1187950D01*
X7300D02*
X12700D01*
X21000Y942305D02*
Y945005D01*
X19650Y943655D02*
X22350D01*
X26550Y940705D02*
Y946605D01*
X15450Y940705D02*
Y946605D01*
Y940705D02*
X26550D01*
X15450Y946605D02*
X26550D01*
X21000Y956305D02*
Y959005D01*
X19650Y957655D02*
X22350D01*
X15450Y954705D02*
Y960605D01*
X26550Y954705D02*
Y960605D01*
X15450D02*
X26550D01*
X15450Y954705D02*
X26550D01*
X21000Y949305D02*
Y952005D01*
X19650Y950655D02*
X22350D01*
X15450Y947705D02*
Y953605D01*
X26550Y947705D02*
Y953605D01*
X15450D02*
X26550D01*
X15450Y947705D02*
X26550D01*
X14400Y1032905D02*
X17100D01*
X15750Y1031555D02*
Y1034255D01*
X12800Y1027355D02*
X18700D01*
X12800Y1038455D02*
X18700D01*
X12800Y1027355D02*
Y1038455D01*
X18700Y1027355D02*
Y1038455D01*
X8650Y1210030D02*
X11350D01*
X10000Y1208680D02*
Y1211380D01*
X7050Y1204480D02*
X12950D01*
X7050Y1215580D02*
X12950D01*
X7050Y1204480D02*
Y1215580D01*
X12950Y1204480D02*
Y1215580D01*
X9450Y1159450D02*
X20550D01*
X9450Y1165350D02*
X20550D01*
Y1159450D02*
Y1165350D01*
X9450Y1159450D02*
Y1165350D01*
X13650Y1162400D02*
X16350D01*
X15000Y1161050D02*
Y1163750D01*
X15000Y1168800D02*
Y1173200D01*
X12800Y1171000D02*
X17200D01*
X6000Y1166600D02*
X24000D01*
Y1175400D01*
X6000D02*
X24000D01*
X6000Y1166600D02*
Y1175400D01*
X19950Y1177100D02*
Y1188200D01*
X14050Y1177100D02*
Y1188200D01*
X19950D01*
X14050Y1177100D02*
X19950D01*
X17000Y1181300D02*
Y1184000D01*
X15650Y1182650D02*
X18350D01*
X21050Y1176850D02*
Y1187950D01*
X26950Y1176850D02*
Y1187950D01*
X21050Y1176850D02*
X26950D01*
X21050Y1187950D02*
X26950D01*
X24000Y1181050D02*
Y1183750D01*
X22650Y1182400D02*
X25350D01*
X361967Y728732D02*
X364667D01*
X363317Y727382D02*
Y730081D01*
X360617Y723431D02*
Y734032D01*
Y723431D02*
X366017D01*
Y734032D01*
X360617D02*
X366017D01*
X400269Y728732D02*
X402969D01*
X401619Y727382D02*
Y730081D01*
X398919Y723431D02*
Y734032D01*
Y723431D02*
X404319D01*
Y734032D01*
X398919D02*
X404319D01*
X651462Y67297D02*
Y72697D01*
X640862Y67297D02*
X651462D01*
X640862D02*
Y72697D01*
X651462D01*
X644812Y69997D02*
X647512D01*
X646162Y68647D02*
Y71347D01*
X651462Y74297D02*
Y79697D01*
X640862Y74297D02*
X651462D01*
X640862D02*
Y79697D01*
X651462D01*
X644812Y76997D02*
X647512D01*
X646162Y75647D02*
Y78347D01*
X375459Y740432D02*
X395779D01*
X375459Y715032D02*
X395779D01*
Y740432D01*
X375459Y715032D02*
Y740432D01*
X385619Y722731D02*
Y732731D01*
X380619Y727731D02*
X390619D01*
X46700Y841466D02*
Y852566D01*
X52600Y841466D02*
Y852566D01*
X46700Y841466D02*
X52600D01*
X46700Y852566D02*
X52600D01*
X49650Y845666D02*
Y848366D01*
X48300Y847016D02*
X51000D01*
X404471Y757239D02*
X407171D01*
X405821Y755889D02*
Y758589D01*
X403121Y751939D02*
Y762539D01*
Y751939D02*
X408521D01*
Y762539D01*
X403121D02*
X408521D01*
X442067Y728732D02*
X444767Y728732D01*
X443417Y730081D02*
X443417Y727382D01*
X440717Y723431D02*
Y734032D01*
Y723431D02*
X446117D01*
X446117Y734032D01*
X440717D02*
X446117D01*
X341071Y769139D02*
Y771839D01*
X339721Y770489D02*
X342421D01*
X335521Y767539D02*
Y773439D01*
X346621Y767539D02*
Y773439D01*
X335521D02*
X346621D01*
X335521Y767539D02*
X346621D01*
X397471Y768739D02*
X400171D01*
X398821Y767389D02*
Y770089D01*
X395871Y763189D02*
X401771D01*
X395871Y774289D02*
X401771D01*
X395871Y763189D02*
Y774289D01*
X401771Y763189D02*
Y774289D01*
X397471Y757239D02*
X400171D01*
X398821Y755889D02*
Y758589D01*
X395871Y751689D02*
X401771D01*
X395871Y762789D02*
X401771D01*
X395871Y751689D02*
Y762789D01*
X401771Y751689D02*
Y762789D01*
X411269Y720882D02*
X413969D01*
X412619Y719531D02*
Y722232D01*
X409669Y715331D02*
X415569D01*
X409669Y726431D02*
X415569D01*
X409669D02*
X409669Y715331D01*
X415569D02*
Y726431D01*
X369269Y728732D02*
X371969D01*
X370619Y727382D02*
Y730081D01*
X367669Y734281D02*
X373569D01*
X367669Y723182D02*
X373569D01*
Y734281D01*
X367669Y723182D02*
Y734281D01*
X411269Y732382D02*
X413969D01*
X412619Y733732D02*
X412619Y731031D01*
X409669Y737932D02*
X415569D01*
X409669Y726832D02*
X415569D01*
Y737932D01*
X409669Y726832D02*
Y737932D01*
X110550Y219160D02*
X121650D01*
X110550Y213260D02*
X121650D01*
X110550D02*
Y219160D01*
X121650Y213260D02*
Y219160D01*
X114750Y216210D02*
X117450D01*
X116100Y214860D02*
Y217560D01*
X422619Y727731D02*
X432619D01*
X427619Y732731D02*
X427619Y722731D01*
X417459Y715032D02*
Y740432D01*
X437779Y715032D02*
Y740432D01*
X417459Y715032D02*
X437779D01*
X417459Y740432D02*
X437779Y740432D01*
X659181Y145490D02*
Y156590D01*
X665081Y145490D02*
Y156590D01*
X659181Y145490D02*
X665081D01*
X659181Y156590D02*
X665081D01*
X662131Y149690D02*
Y152390D01*
X660781Y151040D02*
X663481D01*
X555181Y124990D02*
Y136090D01*
X561081Y124990D02*
Y136090D01*
X555181Y124990D02*
X561081D01*
X555181Y136090D02*
X561081D01*
X558131Y129190D02*
Y131890D01*
X556781Y130540D02*
X559481D01*
X934526Y690950D02*
X945626D01*
X934526Y685050D02*
X945626D01*
X934526D02*
Y690950D01*
X945626Y685050D02*
Y690950D01*
X938726Y688000D02*
X941426D01*
X940076Y686650D02*
Y689350D01*
X945104Y685050D02*
X956204D01*
X945104Y690950D02*
X956204D01*
Y685050D02*
Y690950D01*
X945104D02*
X945104Y685050D01*
X949304Y688000D02*
X952004D01*
X950654Y686650D02*
X950654Y689350D01*
X873807Y696901D02*
X884907D01*
X873807Y702801D02*
X884907D01*
Y696901D02*
Y702801D01*
X873807Y696901D02*
Y702801D01*
X878007Y699851D02*
X880707D01*
X879357Y698501D02*
Y701201D01*
X863209Y702800D02*
X874309D01*
X863209Y696900D02*
X874309D01*
X863209D02*
Y702800D01*
X874309Y696900D02*
Y702800D01*
X867409Y699850D02*
X870109D01*
X868759Y698500D02*
Y701200D01*
X829300Y742968D02*
X834700D01*
Y732368D02*
Y742968D01*
X829300Y732368D02*
X834700D01*
X829300D02*
Y742968D01*
X832000Y736318D02*
Y739018D01*
X830650Y737668D02*
X833350D01*
X823300Y742968D02*
X828700D01*
Y732368D02*
Y742968D01*
X823300Y732368D02*
X828700D01*
X823300D02*
Y742968D01*
X826000Y736318D02*
Y739018D01*
X824650Y737668D02*
X827350D01*
X865300Y742968D02*
X870700D01*
Y732368D02*
Y742968D01*
X865300Y732368D02*
X870700D01*
X865300D02*
Y742968D01*
X868000Y736318D02*
Y739018D01*
X866650Y737668D02*
X869350D01*
X859300Y742968D02*
X864700D01*
Y732368D02*
Y742968D01*
X859300Y732368D02*
X864700D01*
X859300D02*
Y742968D01*
X862000Y736318D02*
Y739018D01*
X860650Y737668D02*
X863350D01*
X773050Y394700D02*
X778450D01*
X773050D02*
Y405300D01*
X778450D01*
Y394700D02*
Y405300D01*
X775750Y398650D02*
Y401350D01*
X774400Y400000D02*
X777100D01*
X780550Y394700D02*
X785950D01*
X780550D02*
Y405300D01*
X785950D01*
Y394700D02*
Y405300D01*
X783250Y398650D02*
Y401350D01*
X781900Y400000D02*
X784600D01*
X813050Y361700D02*
X818450D01*
X813050D02*
Y372300D01*
X818450D01*
Y361700D02*
Y372300D01*
X815750Y365650D02*
Y368350D01*
X814400Y367000D02*
X817100D01*
X807050Y361700D02*
X812450D01*
X807050D02*
Y372300D01*
X812450D01*
Y361700D02*
Y372300D01*
X809750Y365650D02*
Y368350D01*
X808400Y367000D02*
X811100D01*
X829250Y326674D02*
X833069Y330493D01*
X840564Y322997D01*
X836746Y319179D02*
X840564Y322997D01*
X829250Y326674D02*
X836746Y319179D01*
X833953Y325790D02*
X835862Y323881D01*
X833953D02*
X835862Y325790D01*
X834200Y331624D02*
X838018Y335443D01*
X845514Y327947D01*
X841695Y324129D02*
X845514Y327947D01*
X834200Y331624D02*
X841695Y324129D01*
X838902Y330740D02*
X840811Y328831D01*
X838902D02*
X840811Y330740D01*
X379762Y262967D02*
X385162D01*
X379762D02*
Y273567D01*
X385162D01*
Y262967D02*
Y273567D01*
X382462Y266917D02*
Y269617D01*
X381112Y268267D02*
X383812D01*
X386762Y262967D02*
X392162D01*
X386762D02*
Y273567D01*
X392162D01*
Y262967D02*
Y273567D01*
X389462Y266917D02*
Y269617D01*
X388112Y268267D02*
X390812D01*
X701349Y257455D02*
Y260155D01*
X699999Y258805D02*
X702699D01*
X696049Y261505D02*
X706649D01*
X696049Y256105D02*
Y261505D01*
Y256105D02*
X706649D01*
Y261505D01*
X706614Y262400D02*
Y267800D01*
X696014Y262400D02*
X706614D01*
X696014D02*
Y267800D01*
X706614D01*
X699964Y265100D02*
X702664D01*
X701314Y263750D02*
Y266450D01*
X376400Y255500D02*
X379100D01*
X377750Y254150D02*
Y256850D01*
X375050Y250200D02*
X375050Y260800D01*
X375050Y250200D02*
X380450D01*
Y260800D01*
X375050Y260800D02*
X380450Y260800D01*
X369400Y255500D02*
X372100D01*
X370750Y254150D02*
Y256850D01*
X368050Y250200D02*
Y260800D01*
Y250200D02*
X373450D01*
Y260800D01*
X368050D02*
X373450D01*
X446050Y273570D02*
X451450D01*
Y262970D02*
Y273570D01*
X446050Y262970D02*
X451450D01*
X446050D02*
Y273570D01*
X448750Y266920D02*
Y269620D01*
X447400Y268270D02*
X450100D01*
X440050Y273570D02*
X445450D01*
Y262970D02*
Y273570D01*
X440050Y262970D02*
X445450D01*
X440050D02*
Y273570D01*
X442750Y266920D02*
Y269620D01*
X441400Y268270D02*
X444100D01*
X18250Y1132050D02*
Y1134750D01*
X16900Y1133400D02*
X19600D01*
X12700Y1130450D02*
Y1136350D01*
X23800Y1130450D02*
Y1136350D01*
X12700D02*
X23800D01*
X12700Y1130450D02*
X23800D01*
X173620Y74540D02*
X173620Y79940D01*
X184220D01*
Y74540D02*
Y79940D01*
X173620Y74540D02*
X184220D01*
X177570Y77240D02*
X180270D01*
X178920Y75890D02*
Y78590D01*
X173370Y60290D02*
X184470D01*
X173370Y66190D02*
X184470Y66190D01*
X184470Y60290D02*
X184470Y66190D01*
X173370Y60290D02*
Y66190D01*
X177570Y63240D02*
X180270D01*
X178920Y61890D02*
Y64590D01*
X402870Y763190D02*
Y774290D01*
X408770Y763190D02*
Y774290D01*
X402870Y763190D02*
X408770D01*
X402870Y774290D02*
X408770D01*
X405820Y767390D02*
Y770090D01*
X404470Y768740D02*
X407170D01*
X164550Y729200D02*
Y740300D01*
X158650Y729200D02*
Y740300D01*
X164550D01*
X158650Y729200D02*
X164550D01*
X161600Y733400D02*
Y736100D01*
X160250Y734750D02*
X162950D01*
X165302Y733150D02*
X176402D01*
X165302Y727250D02*
X176402D01*
X165302D02*
Y733150D01*
X176402Y727250D02*
Y733150D01*
X169502Y730200D02*
X172202D01*
X170852Y728850D02*
Y731550D01*
X193100Y106000D02*
X201900D01*
Y88000D02*
Y106000D01*
X193100Y88000D02*
X201900D01*
X193100D02*
Y106000D01*
X197500Y94800D02*
Y99200D01*
X195300Y97000D02*
X199700D01*
X156420Y111000D02*
X166580D01*
X161500Y105920D02*
Y116080D01*
X150000Y97500D02*
Y124500D01*
X173000D01*
Y97500D02*
Y124500D01*
X150000Y97500D02*
X173000D01*
X167500Y130650D02*
Y133350D01*
X166150Y132000D02*
X168850Y132000D01*
X173050Y129050D02*
Y134950D01*
X161950D02*
X161950Y129050D01*
X173050Y129050D01*
X161950Y134950D02*
X173050D01*
X154500Y130650D02*
Y133350D01*
X153150Y132000D02*
X155850Y132000D01*
X148950Y129050D02*
Y134950D01*
X160050Y129050D02*
Y134950D01*
X148950D02*
X160050D01*
X148950Y129050D02*
X160050D01*
X194550Y119950D02*
Y131050D01*
X200450Y119950D02*
X200450Y131050D01*
X194550Y119950D02*
X200450D01*
X194550Y131050D02*
X200450D01*
X197500Y124150D02*
Y126850D01*
X196150Y125500D02*
X198850Y125500D01*
X142500Y109650D02*
Y112350D01*
X141150Y111000D02*
X143850D01*
X136950Y108050D02*
Y113950D01*
X148050Y108050D02*
Y113950D01*
X136950D02*
X148050D01*
X136950Y108050D02*
X148050D01*
X178150Y83650D02*
Y110350D01*
X190850Y83650D02*
Y110350D01*
X178150D02*
X190850D01*
X181050Y97000D02*
X187950D01*
X184500Y93550D02*
Y100450D01*
X178150Y83650D02*
X190850D01*
X136950Y116050D02*
X148050D01*
X136950Y121950D02*
X148050D01*
Y116050D02*
Y121950D01*
X136950Y116050D02*
Y121950D01*
X141150Y119000D02*
X143850D01*
X142500Y117650D02*
Y120350D01*
X114678Y848912D02*
Y855912D01*
X111178Y852412D02*
X118178D01*
X98578Y843012D02*
X130778D01*
Y861812D01*
X98578D02*
X130778D01*
X98578Y843012D02*
Y861812D01*
X114678Y874912D02*
X114678Y867912D01*
X111178Y871412D02*
X118178D01*
X98578Y862012D02*
X130778D01*
Y880812D01*
X98578D02*
X130778D01*
X98578Y862012D02*
Y880812D01*
X456650Y752912D02*
X459350D01*
X458000Y751562D02*
Y754262D01*
X455050Y758462D02*
X460950D01*
X455050Y747362D02*
X460950D01*
Y758462D01*
X455050Y747362D02*
Y758462D01*
X124021Y489481D02*
X135121D01*
X124021Y483581D02*
X135121D01*
X124021D02*
Y489481D01*
X135121Y483581D02*
Y489481D01*
X128221Y486531D02*
X130921D01*
X129571Y485181D02*
Y487881D01*
X124020Y474137D02*
X135120D01*
X124020Y480037D02*
X135120D01*
Y474137D02*
Y480037D01*
X124020Y474137D02*
Y480037D01*
X128220Y477087D02*
X130920D01*
X129570Y475737D02*
Y478437D01*
Y464800D02*
Y469200D01*
X127370Y467000D02*
X131770D01*
X120570Y462600D02*
X138570D01*
Y471400D01*
X120570D02*
X138570D01*
X120570Y462600D02*
Y471400D01*
X124021Y493021D02*
X135121D01*
X124021Y498921D02*
X135121D01*
Y493021D02*
Y498921D01*
X124021Y493021D02*
Y498921D01*
X128221Y495971D02*
X130921D01*
X129571Y494621D02*
Y497321D01*
X38700Y1100700D02*
X49800D01*
X38700Y1106600D02*
X49800D01*
Y1100700D02*
Y1106600D01*
X38700Y1100700D02*
Y1106600D01*
X42900Y1103650D02*
X45600D01*
X44250Y1102300D02*
Y1105000D01*
X129570Y455650D02*
Y458350D01*
X128220Y457000D02*
X130920D01*
X124020Y454050D02*
Y459950D01*
X135120Y454050D02*
Y459950D01*
X124020D02*
X135120D01*
X124020Y454050D02*
X135120D01*
X245950Y82201D02*
Y93301D01*
X240050Y82201D02*
Y93301D01*
X245950D01*
X240050Y82201D02*
X245950D01*
X243000Y86401D02*
Y89101D01*
X241650Y87751D02*
X244350D01*
X196150Y113000D02*
X198850D01*
X197500Y111650D02*
Y114350D01*
X194550Y107450D02*
X200450D01*
X194550Y118550D02*
X200450D01*
X194550Y107450D02*
Y118550D01*
X200450Y107450D02*
Y118550D01*
X240050Y94701D02*
Y105801D01*
X245950Y94701D02*
Y105801D01*
X240050Y94701D02*
X245950D01*
X240050Y105801D02*
X245950D01*
X243000Y98901D02*
Y101601D01*
X241650Y100251D02*
X244350D01*
X223550Y161360D02*
X234650D01*
X223550Y155460D02*
X234650D01*
X223550D02*
Y161360D01*
X234650Y155460D02*
Y161360D01*
X227750Y158410D02*
X230450D01*
X229100Y157060D02*
Y159760D01*
X55350Y829316D02*
X55350Y834716D01*
X65950D01*
Y829316D02*
Y834716D01*
X55350Y829316D02*
X65950D01*
X59300Y832016D02*
X62000Y832016D01*
X60650Y830666D02*
Y833366D01*
X69100Y834966D02*
X80200Y834966D01*
X69100Y829066D02*
X80200D01*
X69100D02*
Y834966D01*
X80200Y829066D02*
Y834966D01*
X73300Y832016D02*
X76000D01*
X74650Y830666D02*
Y833366D01*
X536082Y132340D02*
X547182D01*
X536082Y138240D02*
X547182D01*
Y132340D02*
Y138240D01*
X536082Y132340D02*
Y138240D01*
X540281Y135290D02*
X542981D01*
X541632Y133940D02*
Y136640D01*
X536082Y140340D02*
X547182D01*
X536082Y146240D02*
X547182D01*
Y140340D02*
Y146240D01*
X536082Y140340D02*
Y146240D01*
X540281Y143290D02*
X542981D01*
X541632Y141940D02*
Y144640D01*
X335610Y722180D02*
Y733280D01*
X329710Y722180D02*
Y733280D01*
X335610D01*
X329710Y722180D02*
X335610D01*
X332660Y726380D02*
Y729080D01*
X331310Y727730D02*
X334010D01*
X40388Y901105D02*
X51488D01*
X40388Y895205D02*
X51488D01*
X40388D02*
Y901105D01*
X51488Y895205D02*
Y901105D01*
X44588Y898155D02*
X47288D01*
X45939Y896805D02*
Y899505D01*
X32489Y886605D02*
X37889D01*
X32489D02*
Y897205D01*
X37889D01*
Y886605D02*
Y897205D01*
X35189Y890555D02*
Y893255D01*
X33839Y891905D02*
X36539D01*
X40388Y892105D02*
X51488D01*
X40388Y886205D02*
X51488D01*
X40388D02*
Y892105D01*
X51488Y886205D02*
Y892105D01*
X44588Y889155D02*
X47288D01*
X45939Y887805D02*
Y890505D01*
X214300Y82451D02*
X219700D01*
X214300D02*
Y93051D01*
X219700D01*
Y82451D02*
Y93051D01*
X217000Y86401D02*
Y89101D01*
X215650Y87751D02*
X218350D01*
X221300Y82451D02*
X226700D01*
X221300D02*
Y93051D01*
X226700D01*
Y82451D02*
Y93051D01*
X224000Y86401D02*
Y89101D01*
X222650Y87751D02*
X225350D01*
X228300Y82451D02*
X233700D01*
X228300D02*
Y93051D01*
X233700D01*
Y82451D02*
Y93051D01*
X231000Y86401D02*
Y89101D01*
X229650Y87751D02*
X232350D01*
M02*
