G04*
G04 #@! TF.GenerationSoftware,Altium Limited,Altium Designer,26.9.1 (10)*
G04*
G04 Layer_Color=39423*
G04 Board_Origin=9999995|9999995*
%FSLAX44Y44*%
%MOMM*%
G71*
G04*
G04 #@! TF.SameCoordinates,9D83EA41-EA8C-4E9F-96AF-D385C4C8DFFD*
G04*
G04*
G04 #@! TF.FilePolarity,Positive*
G04*
G01*
G75*
%ADD18R,0.8890X0.8890*%
%ADD266C,0.1270*%
%ADD269C,0.1000*%
%ADD412C,0.0500*%
%ADD413C,0.1200*%
%ADD414C,0.0050*%
%ADD415R,0.8650X0.8650*%
%ADD416R,0.7500X0.7000*%
%ADD417R,0.6000X0.6000*%
%ADD418R,1.1430X2.5400*%
%ADD419R,1.2300X1.2060*%
%ADD420R,1.0180X1.0180*%
%ADD421R,1.6030X1.5870*%
%ADD422R,0.8730X0.8730*%
%ADD423R,1.1241X1.1407*%
%ADD424R,2.0000X2.0000*%
%ADD425R,0.4500X0.4500*%
%ADD426R,0.4500X0.4500*%
%ADD427R,0.7620X0.7620*%
%ADD428R,0.6500X0.5960*%
%ADD429R,0.7460X0.7460*%
%ADD430R,2.5400X1.1430*%
D18*
X854314Y1244445D02*
D03*
X826472Y976520D02*
D03*
D266*
X215900Y95700D02*
X266700D01*
X215900Y70300D02*
Y95700D01*
Y70300D02*
X266700D01*
Y95700D01*
X568882Y261743D02*
X568882Y237745D01*
X600881D01*
X568882Y261743D02*
X600881Y261743D01*
X600881Y237745D02*
X600881Y261743D01*
X722141Y704288D02*
Y755088D01*
Y704288D02*
X747541D01*
Y755088D01*
X722141D02*
X747541D01*
X831600Y786700D02*
X882400D01*
X831600Y761300D02*
Y786700D01*
Y761300D02*
X882400D01*
Y786700D01*
X786920Y1180700D02*
X837720D01*
X786920Y1155300D02*
Y1180700D01*
Y1155300D02*
X837720D01*
Y1180700D01*
D269*
X808900Y1402500D02*
X838900D01*
X808900Y1372500D02*
X838900D01*
Y1402500D01*
X808900Y1372500D02*
Y1402500D01*
X298500Y281700D02*
X319500D01*
X298500Y299700D02*
X319500D01*
Y281700D02*
Y299700D01*
X298500Y281700D02*
Y299700D01*
X899750Y1080650D02*
X913250D01*
X899750Y1062650D02*
X913250D01*
X899750D02*
Y1080650D01*
X913250Y1062650D02*
Y1080650D01*
X212250Y1455160D02*
Y1511160D01*
X251750Y1455160D02*
Y1511160D01*
X212250D02*
X251750D01*
X212250Y1455160D02*
X251750D01*
X894300Y1061000D02*
Y1083000D01*
X879700Y1061000D02*
X894300D01*
X879700D02*
Y1083000D01*
X894300D01*
X863300Y1403950D02*
Y1414550D01*
X857700Y1403950D02*
X863300D01*
X857700D02*
Y1414550D01*
X863300D01*
X828030Y837470D02*
Y917470D01*
X878030Y837470D02*
Y917470D01*
X828030Y837470D02*
X878030D01*
X828030Y917470D02*
X878030D01*
X812750Y1240000D02*
Y1266000D01*
X858750Y1240000D02*
Y1266000D01*
X812750D02*
X858750D01*
X812750Y1240000D02*
X858750D01*
X617371Y1110360D02*
X617371Y1190360D01*
X557371D02*
X557371Y1110360D01*
X557371Y1190360D02*
X617371D01*
X557371Y1110360D02*
X617371D01*
X914327Y943235D02*
Y963235D01*
X894327D02*
X894327Y943235D01*
X914327D01*
X894327Y963235D02*
X914327D01*
X801030Y1050030D02*
X831030D01*
X801030Y1020030D02*
X831030D01*
Y1050030D01*
X801030Y1020030D02*
Y1050030D01*
X734515Y425093D02*
Y458393D01*
X99015D02*
X734515D01*
X99015Y425093D02*
Y458393D01*
Y425093D02*
X734515D01*
X273242Y1031182D02*
X654242D01*
X273242Y997882D02*
Y1031182D01*
Y997882D02*
X654242D01*
Y1031182D01*
X514631Y210290D02*
X644632D01*
X514631Y80290D02*
X644632D01*
X514631Y210290D02*
X514631Y80290D01*
X644632D02*
Y210290D01*
X526622Y253641D02*
X559641Y253641D01*
X559641Y235861D02*
X559641Y253641D01*
X526621Y235861D02*
X526622Y253641D01*
X526621Y235861D02*
X559641D01*
X717840Y643789D02*
Y691789D01*
X751840Y643789D02*
Y691789D01*
X717840D02*
X751840D01*
X717840Y643789D02*
X751840D01*
X791321Y1063610D02*
X847321D01*
X791321Y1103110D02*
X847321D01*
X791321Y1063610D02*
Y1103110D01*
X847321Y1063610D02*
Y1103110D01*
X273241Y1499812D02*
X654241D01*
X273241Y1466512D02*
Y1499812D01*
Y1466512D02*
X654241D01*
Y1499812D01*
X898880Y841870D02*
X909480D01*
X898880D02*
Y847470D01*
X909480D01*
Y841870D02*
Y847470D01*
X898880Y852870D02*
X909480D01*
X898880D02*
Y858470D01*
X909480D01*
Y852870D02*
Y858470D01*
X832880Y810170D02*
X854880D01*
X832880D02*
Y824770D01*
X854880D01*
Y810170D02*
Y824770D01*
X597291Y1523167D02*
X622291D01*
X597291Y1533167D02*
X622291Y1533167D01*
X597291Y1523167D02*
Y1533167D01*
X622291Y1533167D02*
X622291Y1523167D01*
X639281Y1417651D02*
Y1442651D01*
X649281Y1417651D02*
Y1442651D01*
X639281D02*
X649281D01*
X639281Y1417651D02*
X649281D01*
X521091Y1433162D02*
Y1443162D01*
X546091Y1433162D02*
Y1443162D01*
X521091Y1433162D02*
X546091D01*
X521091Y1443162D02*
X546091D01*
X444890Y1433162D02*
Y1443162D01*
X469890Y1433162D02*
Y1443162D01*
X444890Y1433162D02*
X469890D01*
X444890Y1443162D02*
X469890D01*
X368690D02*
X393690D01*
X368690Y1433162D02*
X393690D01*
Y1443162D01*
X368690Y1433162D02*
Y1443162D01*
X444891Y1533167D02*
X444891Y1523167D01*
X469891D02*
Y1533167D01*
X444891Y1523167D02*
X469891D01*
X444891Y1533167D02*
X469891Y1533167D01*
X368690D02*
X393690D01*
X368690Y1523167D02*
X393690D01*
Y1533167D01*
X368690Y1523167D02*
Y1533167D01*
X292491D02*
X317491D01*
X292491Y1523167D02*
X317491D01*
Y1533167D01*
X292491Y1523167D02*
Y1533167D01*
X588665Y402250D02*
X613665D01*
X588665Y392250D02*
X613665D01*
Y402250D01*
X588665Y392250D02*
Y402250D01*
X512465Y392253D02*
Y402253D01*
X537465Y392253D02*
Y402253D01*
X512465Y392253D02*
X537465D01*
X512465Y402253D02*
X537465D01*
X436165Y402250D02*
X461165D01*
X436165Y392250D02*
X461165D01*
Y402250D01*
X436165Y392250D02*
Y402250D01*
X315565Y403115D02*
X340565D01*
X315565Y393115D02*
X340565D01*
Y403115D01*
X315565Y393115D02*
Y403115D01*
X921496Y740540D02*
Y754040D01*
X939496Y740540D02*
Y754040D01*
X921496Y740540D02*
X939496D01*
X921496Y754040D02*
X939496D01*
X796726Y900725D02*
Y923585D01*
X776406Y900725D02*
X796726Y900725D01*
X776406Y900725D02*
Y923585D01*
X796726D01*
X783766Y941455D02*
X789366Y941455D01*
X783766Y930855D02*
Y941455D01*
Y930855D02*
X789366Y930855D01*
Y941455D01*
X868030Y954950D02*
Y980950D01*
X822030Y954950D02*
Y980950D01*
Y954950D02*
X868030D01*
X822030Y980950D02*
X868030Y980950D01*
X960910Y156690D02*
X973910Y156690D01*
X960910Y173690D02*
X973910D01*
X960910D02*
X960910Y156690D01*
X973910Y156690D02*
Y173690D01*
X960910Y182690D02*
X973910D01*
X960910Y199690D02*
X973910D01*
X960910D02*
X960910Y182690D01*
X973910D02*
X973910Y199690D01*
X969711Y515459D02*
X989711D01*
X969711Y495459D02*
X989711D01*
X969711D02*
Y515459D01*
X989711Y495459D02*
Y515459D01*
X970150Y305346D02*
X990150D01*
X970150Y325346D02*
X990150D01*
Y305346D02*
Y325346D01*
X970150Y305346D02*
Y325346D01*
X387742Y974532D02*
X412742D01*
X387742Y964532D02*
X412742D01*
Y974532D01*
X387742Y964532D02*
Y974532D01*
X336942Y964532D02*
Y974532D01*
X361942Y964532D02*
Y974532D01*
X336942Y964532D02*
X361942D01*
X336942Y974532D02*
X361942D01*
X451241Y1054537D02*
Y1064537D01*
X476242Y1054537D02*
Y1064537D01*
X451241Y1054537D02*
X476242D01*
X451241Y1064537D02*
X476242D01*
X400442D02*
X425442D01*
X400442Y1054537D02*
X425442D01*
Y1064537D01*
X400442Y1054537D02*
Y1064537D01*
X336941D02*
X361941D01*
X336941Y1054537D02*
X361941D01*
Y1064537D01*
X336941Y1054537D02*
Y1064537D01*
X251665Y567377D02*
X276665D01*
X251665Y557377D02*
X276665D01*
Y567377D01*
X251665Y557377D02*
Y567377D01*
X214015Y393112D02*
Y403112D01*
X239015Y393112D02*
Y403112D01*
X214015Y393112D02*
X239015D01*
X214015Y403112D02*
X239015D01*
X302915Y557377D02*
Y567377D01*
X327915Y557377D02*
Y567377D01*
X302915Y557377D02*
X327915D01*
X302915Y567377D02*
X327915D01*
X264815Y393112D02*
Y403112D01*
X289815Y393112D02*
Y403112D01*
X264815Y393112D02*
X289815D01*
X264815Y403112D02*
X289815D01*
X676011Y489321D02*
X715510D01*
X676011Y545321D02*
X715510D01*
Y489321D02*
Y545321D01*
X676011Y489321D02*
Y545321D01*
X393571Y74360D02*
Y130360D01*
X433071Y74360D02*
Y130360D01*
X393571D02*
X433071D01*
X393571Y74360D02*
X433071D01*
X492391Y66530D02*
Y100530D01*
X444391Y66530D02*
Y100530D01*
X492391D01*
X444391Y66530D02*
X492391D01*
X167000Y1459160D02*
Y1507160D01*
X201000Y1459160D02*
Y1507160D01*
X167000D02*
X201000D01*
X167000Y1459160D02*
X201000D01*
X755810Y143090D02*
Y163090D01*
X735810Y143090D02*
Y163090D01*
Y143090D02*
X755810D01*
X735810Y163090D02*
X755810D01*
X633850Y236300D02*
X639450D01*
X633850Y225700D02*
Y236300D01*
Y225700D02*
X639450D01*
Y236300D01*
X623850D02*
X629450D01*
X623850Y225700D02*
Y236300D01*
Y225700D02*
X629450D01*
Y236300D01*
X649450Y225700D02*
Y236300D01*
X643850Y225700D02*
X649450D01*
X643850D02*
Y236300D01*
X649450D01*
X609850D02*
X615450D01*
X609850Y225700D02*
Y236300D01*
Y225700D02*
X615450D01*
Y236300D01*
X367591Y80530D02*
X373191D01*
X367591Y69930D02*
Y80530D01*
Y69930D02*
X373191D01*
Y80530D01*
X363191Y80530D02*
X363191Y69930D01*
X357591D02*
X363191D01*
X357591D02*
X357591Y80530D01*
X363191D01*
X317591D02*
X323191D01*
X317591Y69930D02*
X317591Y80530D01*
X317591Y69930D02*
X323191D01*
X323191Y80530D02*
X323191Y69930D01*
X377591Y80530D02*
X383191D01*
X377591Y69930D02*
Y80530D01*
Y69930D02*
X383191D01*
Y80530D01*
X353191Y69930D02*
Y80530D01*
X347591Y69930D02*
X353191Y69930D01*
X347591Y69930D02*
Y80530D01*
X353191Y80530D01*
X337592Y80530D02*
X343191Y80530D01*
X337592Y69930D02*
Y80530D01*
Y69930D02*
X343191Y69930D01*
Y80530D01*
X327591Y69930D02*
X333191Y69930D01*
Y80530D01*
X327591Y80530D02*
X333191Y80530D01*
X327591Y69930D02*
Y80530D01*
X861900Y688550D02*
X872500D01*
Y682950D02*
Y688550D01*
X861900Y682950D02*
X872500D01*
X861900D02*
Y688550D01*
Y517550D02*
X872500D01*
Y511950D02*
Y517550D01*
X861900Y511950D02*
X872500D01*
X861900D02*
Y517550D01*
X850500Y1396800D02*
X861100D01*
Y1391200D02*
Y1396800D01*
X850500Y1391200D02*
X861100D01*
X850500D02*
Y1396800D01*
X903100Y1254650D02*
Y1276650D01*
X888500Y1254650D02*
X903100D01*
X888500D02*
Y1276650D01*
X903100D01*
X929300Y1254650D02*
Y1276650D01*
X914700Y1254650D02*
X929300D01*
X914700D02*
Y1276650D01*
X929300D01*
X899750Y1028650D02*
X913250D01*
X899750Y1046650D02*
X913250D01*
Y1028650D02*
Y1046650D01*
X899750Y1028650D02*
Y1046650D01*
X894300Y1026000D02*
Y1048000D01*
X879700Y1026000D02*
X894300D01*
X879700D02*
Y1048000D01*
X894300D01*
D412*
X146170Y16000D02*
G03*
X146170Y16000I-5000J0D01*
G01*
X151170D02*
G03*
X151170Y16000I-10000J0D01*
G01*
X865000Y1560000D02*
G03*
X865000Y1560000I-10000J0D01*
G01*
X860000D02*
G03*
X860000Y1560000I-5000J0D01*
G01*
X85000D02*
G03*
X85000Y1560000I-5000J0D01*
G01*
X90000D02*
G03*
X90000Y1560000I-10000J0D01*
G01*
X347247Y831809D02*
Y844809D01*
X364247Y831809D02*
Y844809D01*
X347247Y831809D02*
X364247D01*
X347247Y844809D02*
X364247Y844809D01*
X258600Y111950D02*
X262000D01*
X258600Y105550D02*
Y111950D01*
Y105550D02*
X262000D01*
Y111950D01*
X404728Y918659D02*
X465728D01*
X404728Y857659D02*
X465728D01*
X404728D02*
Y918659D01*
X465728Y857659D02*
Y918659D01*
X110200Y153350D02*
Y294850D01*
X287800D01*
X110200Y153350D02*
X287800D01*
Y294850D01*
X797800Y1300000D02*
Y1350000D01*
X847800D01*
Y1300000D02*
Y1350000D01*
X797800Y1300000D02*
X847800D01*
X519791Y1525922D02*
Y1529122D01*
X525991D01*
Y1525922D02*
Y1529122D01*
X519791Y1525922D02*
X525991D01*
X459349Y325620D02*
X465749D01*
X459349D02*
Y329020D01*
X465749D01*
Y325620D02*
Y329020D01*
X854730Y927270D02*
Y933670D01*
X851330Y927270D02*
X854730D01*
X851330D02*
Y933670D01*
X854730D01*
X861230Y927270D02*
Y933670D01*
X857830Y927270D02*
X861230D01*
X857830D02*
Y933670D01*
X861230D01*
X894080Y893270D02*
Y896670D01*
Y893270D02*
X900480D01*
Y896670D01*
X894080D02*
X900480D01*
X807580Y852170D02*
X813980D01*
Y848770D02*
Y852170D01*
X807580Y848770D02*
X813980D01*
X807580D02*
Y852170D01*
Y855770D02*
X813980D01*
X807580D02*
Y859170D01*
X813980D01*
Y855770D02*
Y859170D01*
X814730Y927270D02*
Y933670D01*
X811330Y927270D02*
X814730D01*
X811330D02*
Y933670D01*
X814730D01*
X835230Y927270D02*
Y933670D01*
X831830Y927270D02*
X835230D01*
X831830D02*
Y933670D01*
X835230D01*
X848230Y927270D02*
Y933670D01*
X844830Y927270D02*
X848230D01*
X844830D02*
Y933670D01*
X848230D01*
X874230Y927270D02*
Y933670D01*
X870830Y927270D02*
X874230D01*
X870830D02*
Y933670D01*
X874230D01*
X880730Y927270D02*
Y933670D01*
X877330Y927270D02*
X880730D01*
X877330D02*
Y933670D01*
X880730D01*
X867730Y927270D02*
Y933670D01*
X864330Y927270D02*
X867730D01*
X864330D02*
Y933670D01*
X867730D01*
X812290Y888820D02*
X818690D01*
Y885420D02*
Y888820D01*
X812290Y885420D02*
X818690D01*
X812290D02*
Y888820D01*
Y894820D02*
X818690D01*
Y891420D02*
Y894820D01*
X812290Y891420D02*
X818690D01*
X812290D02*
Y894820D01*
X459349Y331620D02*
Y335020D01*
Y331620D02*
X465749D01*
Y335020D01*
X459349D02*
X465749D01*
X768865Y354790D02*
Y361190D01*
X765464Y354790D02*
X768865D01*
X765464D02*
Y361190D01*
X768865D01*
X812290Y905420D02*
X818690D01*
X812290D02*
Y908820D01*
X818690D01*
Y905420D02*
Y908820D01*
X890826Y876770D02*
X894226D01*
Y883170D01*
X890826D02*
X894226D01*
X890826Y876770D02*
Y883170D01*
X903826D02*
X907226D01*
X903826Y876770D02*
Y883170D01*
Y876770D02*
X907226D01*
Y883170D01*
X459349Y338620D02*
X465749D01*
X459349D02*
Y342020D01*
X465749D01*
Y338620D02*
Y342020D01*
X768214Y305440D02*
X774614D01*
Y302040D02*
Y305440D01*
X768214Y302040D02*
X774614D01*
X768214D02*
Y305440D01*
X812290Y914820D02*
X818690D01*
Y911420D02*
Y914820D01*
X812290Y911420D02*
X818690D01*
X812290D02*
Y914820D01*
X808230Y927270D02*
Y933670D01*
X804830Y927270D02*
X808230D01*
X804830D02*
Y933670D01*
X808230D01*
X812290Y902820D02*
X818690D01*
Y899420D02*
Y902820D01*
X812290Y899420D02*
X818690D01*
X812290D02*
Y902820D01*
Y920820D02*
X818690D01*
Y917420D02*
Y920820D01*
X812290Y917420D02*
X818690D01*
X812290D02*
Y920820D01*
X719021Y1159860D02*
Y1166260D01*
X722421D01*
Y1159860D02*
Y1166260D01*
X719021Y1159860D02*
X722421D01*
X693621Y1175310D02*
X697021D01*
Y1181710D01*
X693621D02*
X697021D01*
X693621Y1175310D02*
Y1181710D01*
X668221Y1149910D02*
Y1156310D01*
X671621D01*
Y1149910D02*
Y1156310D01*
X668221Y1149910D02*
X671621D01*
X642821Y1175310D02*
Y1181710D01*
X646221D01*
Y1175310D02*
Y1181710D01*
X642821Y1175310D02*
X646221D01*
X642821Y1149910D02*
Y1156310D01*
X646221D01*
Y1149910D02*
Y1156310D01*
X642821Y1149910D02*
X646221D01*
X945710Y155990D02*
X949109Y155990D01*
Y162390D01*
X945710Y162390D02*
X949109Y162390D01*
X945710Y155990D02*
Y162390D01*
X945710Y181990D02*
X949109D01*
Y188390D01*
X945710D02*
X949109D01*
X945710Y181990D02*
X945710Y188390D01*
X353447Y858109D02*
Y864509D01*
X350047Y858109D02*
X353447Y858109D01*
X350047Y864509D02*
X350047Y858109D01*
X350047Y864509D02*
X353447D01*
X338547Y870009D02*
X344947D01*
Y866609D02*
Y870009D01*
X338547Y866609D02*
X344947D01*
X338547D02*
Y870009D01*
X338547Y859609D02*
Y863009D01*
Y859609D02*
X344947Y859609D01*
Y863009D01*
X338547Y863009D02*
X344947Y863009D01*
X338547Y856009D02*
X338547Y852609D01*
X344947D01*
Y856009D01*
X338547Y856009D02*
X344947Y856009D01*
X972180Y527256D02*
Y533656D01*
X968780Y527256D02*
X972180D01*
X968780D02*
Y533656D01*
X972180D01*
X841730Y988290D02*
Y994690D01*
X838330Y988290D02*
X841730D01*
X838330D02*
Y994690D01*
X841730D01*
X848230Y988290D02*
Y994690D01*
X844830Y988290D02*
X848230D01*
X844830D02*
Y994690D01*
X848230D01*
X808560Y971170D02*
X814960D01*
Y967770D02*
Y971170D01*
X808560Y967770D02*
X814960D01*
X808560D02*
Y971170D01*
X854730Y988290D02*
Y994690D01*
X851330Y988290D02*
X854730D01*
X851330D02*
Y994690D01*
X854730D01*
X893330Y928220D02*
X896730D01*
Y934620D01*
X893330D02*
X896730D01*
X893330Y928220D02*
Y934620D01*
X828730Y988290D02*
Y994690D01*
X825330Y988290D02*
X828730D01*
X825330D02*
Y994690D01*
X828730D01*
X893330Y916270D02*
Y922670D01*
X896730D01*
Y916270D02*
Y922670D01*
X893330Y916270D02*
X896730D01*
X835230Y988290D02*
Y994690D01*
X831830Y988290D02*
X835230D01*
X831830D02*
Y994690D01*
X835230D01*
X903730Y916270D02*
Y922670D01*
X900330Y916270D02*
X903730D01*
X900330D02*
Y922670D01*
X903730D01*
X910730Y916270D02*
X910730Y922670D01*
X907330Y916270D02*
X910730Y916270D01*
X907330Y916270D02*
Y922670D01*
X910730D01*
X778266Y932885D02*
Y939285D01*
X774866Y932885D02*
X778266D01*
X774866D02*
Y939285D01*
X778266D01*
X783366Y890947D02*
X789766D01*
X783366Y894347D02*
X783366Y890947D01*
X783366Y894347D02*
X789766Y894347D01*
Y890947D02*
Y894347D01*
X387028Y910859D02*
X393428D01*
Y907459D02*
Y910859D01*
X387028Y907459D02*
X393428D01*
X387028D02*
Y910859D01*
Y903859D02*
X393428D01*
Y900459D02*
Y903859D01*
X387028Y900459D02*
X393428D01*
X387028D02*
Y903859D01*
Y868859D02*
X393428D01*
Y865459D02*
Y868859D01*
X387028Y865459D02*
X393428D01*
X387028D02*
Y868859D01*
Y875859D02*
X393428D01*
Y872459D02*
Y875859D01*
X387028Y872459D02*
X393428D01*
X387028D02*
Y875859D01*
Y882859D02*
X393428D01*
Y879459D02*
Y882859D01*
X387028Y879459D02*
X393428D01*
X387028D02*
Y882859D01*
Y889859D02*
X393428D01*
Y886459D02*
Y889859D01*
X387028Y886459D02*
X393428D01*
X387028D02*
Y889859D01*
Y896859D02*
X393428D01*
Y893459D02*
Y896859D01*
X387028Y893459D02*
X393428D01*
X387028D02*
Y896859D01*
X211300Y137150D02*
X214700D01*
Y143550D01*
X211300D02*
X214700D01*
X211300Y137150D02*
Y143550D01*
X867730Y988290D02*
Y994690D01*
X864330Y988290D02*
X867730D01*
X864330D02*
Y994690D01*
X867730D01*
X881140Y959670D02*
X884540D01*
X881140Y953270D02*
Y959670D01*
Y953270D02*
X884540D01*
Y959670D01*
X857830Y994690D02*
X861230D01*
X857830Y988290D02*
Y994690D01*
Y988290D02*
X861230D01*
Y994690D01*
X873080Y985890D02*
X879480D01*
Y982490D02*
Y985890D01*
X873080Y982490D02*
X879480D01*
X873080D02*
Y985890D01*
X808960Y974750D02*
Y981150D01*
X805560Y974750D02*
X808960D01*
X805560D02*
Y981150D01*
X808960D01*
X825330Y1006420D02*
X828730D01*
X825330Y1000020D02*
Y1006420D01*
Y1000020D02*
X828730D01*
Y1006420D01*
X831830D02*
X835230D01*
X831830Y1000020D02*
Y1006420D01*
Y1000020D02*
X835230D01*
Y1006420D01*
X817830Y927270D02*
Y933670D01*
X821230D01*
Y927270D02*
Y933670D01*
X817830Y927270D02*
X821230D01*
X825330D02*
Y933670D01*
X828730D01*
Y927270D02*
Y933670D01*
X825330Y927270D02*
X828730D01*
X838330D02*
Y933670D01*
X841730D01*
Y927270D02*
Y933670D01*
X838330Y927270D02*
X841730D01*
X737860Y178880D02*
X741260D01*
X737860Y172480D02*
X737860Y178880D01*
X737860Y172480D02*
X741260D01*
X741260Y178880D01*
X488910Y121790D02*
X495310Y121790D01*
X488910Y121790D02*
Y125190D01*
X495310Y125190D01*
Y121790D02*
Y125190D01*
X488910Y128790D02*
X495310Y128790D01*
X488910Y128790D02*
Y132190D01*
X495310D01*
Y128790D02*
Y132190D01*
X488910Y158790D02*
X495310Y158790D01*
X488910Y158790D02*
X488910Y162190D01*
X495310Y162190D01*
Y158790D02*
Y162190D01*
X488910Y149790D02*
X495310D01*
X488910Y153190D02*
X488910Y149790D01*
X488910Y153190D02*
X495310D01*
X495310Y149790D01*
X488910Y135790D02*
X495310Y135790D01*
X488910Y139190D02*
X488910Y135790D01*
X488910Y139190D02*
X495310Y139190D01*
Y135790D02*
Y139190D01*
X488910Y142790D02*
X495310Y142790D01*
X488910Y142790D02*
X488910Y146190D01*
X495310Y146190D01*
X495310Y142790D01*
X751460Y178880D02*
X754860Y178880D01*
X751460Y172480D02*
Y178880D01*
Y172480D02*
X754860D01*
X754860Y178880D02*
X754860Y172480D01*
X979050Y296450D02*
X985450D01*
Y293050D02*
Y296450D01*
X979050Y293050D02*
X985450D01*
X979050D02*
Y296450D01*
X749991Y1274560D02*
Y1280960D01*
X753391D01*
Y1274560D02*
Y1280960D01*
X749991Y1274560D02*
X753391D01*
X641990Y1268730D02*
X645390D01*
X641990Y1262330D02*
Y1268730D01*
Y1262330D02*
X645390D01*
Y1268730D01*
X287992Y1101540D02*
Y1107940D01*
X291392D01*
Y1101540D02*
Y1107940D01*
X287992Y1101540D02*
X291392D01*
X295121Y1059910D02*
Y1066310D01*
X298521D01*
Y1059910D02*
Y1066310D01*
X295121Y1059910D02*
X298521D01*
X248121Y1101539D02*
Y1107939D01*
X251521D01*
Y1101539D02*
Y1107939D01*
X248121Y1101539D02*
X251521D01*
X557292Y1052327D02*
X560692D01*
Y1058727D01*
X557292D02*
X560692D01*
X557292Y1052327D02*
Y1058727D01*
X582692Y1052327D02*
Y1058727D01*
X586092D01*
Y1052327D02*
Y1058727D01*
X582692Y1052327D02*
X586092D01*
X569992D02*
Y1058727D01*
X573392D01*
Y1052327D02*
Y1058727D01*
X569992Y1052327D02*
X573392D01*
X749991Y1292460D02*
X753391D01*
X749991Y1286060D02*
Y1292460D01*
Y1286060D02*
X753391D01*
Y1292460D01*
X641991Y1250610D02*
Y1257010D01*
X645391D01*
Y1250610D02*
Y1257010D01*
X641991Y1250610D02*
X645391D01*
X291392Y1113540D02*
Y1119940D01*
X287992Y1113540D02*
X291392D01*
X287992D02*
Y1119940D01*
X291392D01*
X295121Y1078310D02*
X298521D01*
X295121Y1071910D02*
Y1078310D01*
Y1071910D02*
X298521D01*
Y1078310D01*
X251521Y1113539D02*
Y1119939D01*
X248121Y1113539D02*
X251521D01*
X248121D02*
Y1119939D01*
X251521D01*
X325550Y271372D02*
X331950D01*
X325550D02*
Y274772D01*
X331950D01*
Y271372D02*
Y274772D01*
X304700Y314900D02*
X304700Y308500D01*
X301300D02*
X304700D01*
X301300D02*
Y314900D01*
X304700D01*
X560692Y1064327D02*
Y1070727D01*
X557292Y1064327D02*
X560692D01*
X557292D02*
Y1070727D01*
X560692D01*
X582692D02*
X586092D01*
X582692Y1064327D02*
Y1070727D01*
Y1064327D02*
X586092D01*
Y1070727D01*
X569992D02*
X573392D01*
X569992Y1064327D02*
Y1070727D01*
Y1064327D02*
X573392D01*
Y1070727D01*
X758993Y1292460D02*
X762393D01*
X758993D02*
X758993Y1286060D01*
X762393Y1286060D01*
Y1292460D01*
X668992Y1268727D02*
X672392D01*
X668992Y1262327D02*
Y1268727D01*
Y1262327D02*
X672392D01*
Y1268727D01*
X677992D02*
X681392D01*
X677992Y1262327D02*
Y1268727D01*
Y1262327D02*
X681392D01*
Y1268727D01*
X726392Y1262277D02*
Y1268677D01*
X722992Y1262277D02*
X726392D01*
X722992D02*
Y1268677D01*
X726392D01*
X713992D02*
X717392D01*
X713992Y1262277D02*
Y1268677D01*
Y1262277D02*
X717392D01*
Y1268677D01*
X695992D02*
X699392D01*
X695992Y1262277D02*
Y1268677D01*
Y1262277D02*
X699392D01*
Y1268677D01*
X650992Y1268727D02*
X654392D01*
X650992Y1262327D02*
Y1268727D01*
Y1262327D02*
X654392D01*
Y1268727D01*
X686992D02*
X690392D01*
X686992Y1262327D02*
Y1268727D01*
Y1262327D02*
X690392D01*
Y1268727D01*
X704992Y1268677D02*
X708392D01*
X704992Y1262277D02*
Y1268677D01*
Y1262277D02*
X708392D01*
Y1268677D01*
X749992D02*
X753392D01*
X749992Y1262277D02*
Y1268677D01*
Y1262277D02*
X753392D01*
Y1268677D01*
X731992Y1268627D02*
X735392D01*
X731992Y1262227D02*
Y1268627D01*
Y1262227D02*
X735392D01*
Y1268627D01*
X659992Y1268727D02*
X663392D01*
X659992Y1262327D02*
Y1268727D01*
Y1262327D02*
X663392D01*
Y1268727D01*
X740992Y1268627D02*
X744392D01*
X740992Y1262227D02*
Y1268627D01*
Y1262227D02*
X744392D01*
Y1268627D01*
X758993Y1274560D02*
X762393D01*
X762393Y1280960D02*
X762393Y1274560D01*
X758993Y1280960D02*
X762393Y1280960D01*
X758993Y1274560D02*
X758993Y1280960D01*
X668992Y1250877D02*
X672392D01*
Y1257277D01*
X668992D02*
X672392D01*
X668992Y1250877D02*
Y1257277D01*
X677992Y1250877D02*
X681392D01*
Y1257277D01*
X677992D02*
X681392D01*
X677992Y1250877D02*
Y1257277D01*
X722992Y1250827D02*
Y1257227D01*
X726392D01*
Y1250827D02*
Y1257227D01*
X722992Y1250827D02*
X726392D01*
X713992D02*
X717392D01*
Y1257227D01*
X713992D02*
X717392D01*
X713992Y1250827D02*
Y1257227D01*
X695992Y1250827D02*
X699392D01*
Y1257227D01*
X695992D02*
X699392D01*
X695992Y1250827D02*
Y1257227D01*
X650992Y1250877D02*
X654392D01*
Y1257277D01*
X650992D02*
X654392D01*
X650992Y1250877D02*
Y1257277D01*
X686992Y1250877D02*
X690392D01*
Y1257277D01*
X686992D02*
X690392D01*
X686992Y1250877D02*
Y1257277D01*
X704992Y1250827D02*
X708392D01*
Y1257227D01*
X704992D02*
X708392D01*
X704992Y1250827D02*
Y1257227D01*
X749992Y1250827D02*
X753392D01*
Y1257227D01*
X749992D02*
X753392D01*
X749992Y1250827D02*
Y1257227D01*
X731992Y1250777D02*
X735392D01*
Y1257177D01*
X731992D02*
X735392D01*
X731992Y1250777D02*
Y1257177D01*
X659992Y1250877D02*
X663392D01*
Y1257277D01*
X659992D02*
X663392D01*
X659992Y1250877D02*
Y1257277D01*
X740992Y1250777D02*
X744392D01*
Y1257177D01*
X740992D02*
X744392D01*
X740992Y1250777D02*
Y1257177D01*
X278992Y1101540D02*
X282392D01*
Y1107940D01*
X278992D02*
X282392D01*
X278992Y1101540D02*
Y1107940D01*
Y1119940D02*
X282392D01*
X278992Y1113540D02*
Y1119940D01*
Y1113540D02*
X282392D01*
Y1119940D01*
X248121Y1127039D02*
Y1133439D01*
X251521D01*
Y1127039D02*
Y1133439D01*
X248121Y1127039D02*
X251521D01*
X871950Y1255800D02*
Y1262200D01*
X868550Y1255800D02*
X871950D01*
X868550D02*
Y1262200D01*
X871950D01*
X868950Y1272300D02*
Y1278700D01*
X865550Y1272300D02*
X868950D01*
X865550D02*
Y1278700D01*
X868950D01*
X844450Y1276300D02*
Y1282700D01*
X841050Y1276300D02*
X844450D01*
X841050D02*
Y1282700D01*
X844450D01*
X837950Y1276300D02*
Y1282700D01*
X834550Y1276300D02*
X837950D01*
X834550D02*
Y1282700D01*
X837950D01*
X831450Y1276300D02*
Y1282700D01*
X828050Y1276300D02*
X831450D01*
X828050D02*
Y1282700D01*
X831450D01*
X798550Y1248700D02*
X801950D01*
X798550Y1242300D02*
Y1248700D01*
Y1242300D02*
X801950D01*
Y1248700D01*
X861230Y940520D02*
Y946920D01*
X857830Y940520D02*
X861230D01*
X857830D02*
Y946920D01*
X861230D01*
X824950Y1276300D02*
Y1282700D01*
X821550Y1276300D02*
X824950D01*
X821550D02*
Y1282700D01*
X824950D01*
X818450Y1276300D02*
Y1282700D01*
X815050Y1276300D02*
X818450D01*
X815050D02*
Y1282700D01*
X818450D01*
X811950Y1276300D02*
Y1282700D01*
X808550Y1276300D02*
X811950D01*
X808550D02*
Y1282700D01*
X811950D01*
X868550Y1250200D02*
X868550Y1243800D01*
X868550Y1250200D02*
X871950D01*
X871950Y1243800D01*
X868550D02*
X871950D01*
X853550Y1223300D02*
Y1229700D01*
X856950Y1229700D01*
X856950Y1223300D01*
X853550D02*
X856950D01*
X847050Y1223300D02*
X847050Y1229700D01*
X850450D01*
X850450Y1223300D02*
X850450Y1229700D01*
X847050Y1223300D02*
X850450D01*
X840550Y1223300D02*
Y1229700D01*
X843950D01*
Y1223300D02*
Y1229700D01*
X840550Y1223300D02*
X843950D01*
X834050Y1223300D02*
Y1229700D01*
X837450D01*
Y1223300D02*
Y1229700D01*
X834050Y1223300D02*
X837450D01*
X827550Y1229700D02*
X827550Y1223300D01*
X827550Y1229700D02*
X830950D01*
X830950Y1223300D02*
X830950Y1229700D01*
X827550Y1223300D02*
X830950D01*
X821050Y1229700D02*
X821050Y1223300D01*
X821050Y1229700D02*
X824450D01*
X824450Y1223300D01*
X821050D02*
X824450D01*
X814550Y1223300D02*
X814550Y1229700D01*
X817950Y1229700D01*
Y1223300D02*
Y1229700D01*
X814550Y1223300D02*
X817950D01*
X734914Y185319D02*
Y191719D01*
X731514Y185319D02*
X734914D01*
X731514D02*
Y191719D01*
X734914D01*
X373550Y886459D02*
X379950D01*
X373550D02*
Y889859D01*
X379950D01*
Y886459D02*
Y889859D01*
X258700Y303650D02*
Y310050D01*
X255300Y303650D02*
X258700D01*
X255300D02*
Y310050D01*
X258700D01*
X137300Y137150D02*
Y143550D01*
X140700D01*
Y137150D02*
Y143550D01*
X137300Y137150D02*
X140700D01*
X211300Y131550D02*
X214700D01*
X211300Y125150D02*
Y131550D01*
Y125150D02*
X214700D01*
X214700Y131550D01*
X867730Y940520D02*
Y946920D01*
X864330Y940520D02*
X867730D01*
X864330D02*
Y946920D01*
X867730D01*
X542792Y966332D02*
Y972732D01*
X539392Y966332D02*
X542792D01*
X539392D02*
Y972732D01*
X542792D01*
X560692Y966332D02*
Y972732D01*
X557292Y966332D02*
X560692D01*
X557292D02*
Y972732D01*
X560692D01*
X752769Y631139D02*
X755969D01*
Y624939D02*
Y631139D01*
X752769Y624939D02*
X755969D01*
X752769D02*
Y631139D01*
X328991Y1447507D02*
X332191D01*
Y1441307D02*
Y1447507D01*
X328991Y1441307D02*
X332191D01*
X328991D02*
Y1447507D01*
X315991D02*
X319191D01*
Y1441307D02*
Y1447507D01*
X315991Y1441307D02*
X319191D01*
X315991D02*
Y1447507D01*
X277991Y1525067D02*
X281191D01*
X277991D02*
Y1531267D01*
X281191D01*
Y1525067D02*
Y1531267D01*
X557391Y1525922D02*
Y1529122D01*
X563591D01*
Y1525922D02*
Y1529122D01*
X557391Y1525922D02*
X563591D01*
X547391D02*
Y1529122D01*
X541191Y1525922D02*
X547391D01*
X541191D02*
Y1529122D01*
X547391D01*
X509291Y1525922D02*
Y1529122D01*
X503091Y1525922D02*
X509291D01*
X503091D02*
Y1529122D01*
X509291D01*
X468492Y975392D02*
X471692D01*
Y969192D02*
Y975392D01*
X468492Y969192D02*
X471692D01*
X468492D02*
Y975392D01*
X455792D02*
X458992D01*
Y969192D02*
Y975392D01*
X455792Y969192D02*
X458992D01*
X455792D02*
Y975392D01*
X443092D02*
X446292D01*
Y969192D02*
Y975392D01*
X443092Y969192D02*
X446292D01*
X443092D02*
Y975392D01*
X277500Y977110D02*
X280700D01*
Y970910D02*
Y977110D01*
X277500Y970910D02*
X280700D01*
X277500D02*
Y977110D01*
X274300Y137150D02*
Y143550D01*
X277700D01*
Y137150D02*
Y143550D01*
X274300Y137150D02*
X277700D01*
X267300D02*
Y143550D01*
X270700D01*
Y137150D02*
Y143550D01*
X267300Y137150D02*
X270700D01*
X281300D02*
Y143550D01*
X284700D01*
Y137150D02*
Y143550D01*
X281300Y137150D02*
X284700D01*
X260300D02*
Y143550D01*
X263700D01*
Y137150D02*
Y143550D01*
X260300Y137150D02*
X263700D01*
X288300D02*
Y143550D01*
X291700D01*
Y137150D02*
Y143550D01*
X288300Y137150D02*
X291700D01*
X488910Y118190D02*
X495310Y118190D01*
X495310Y114790D02*
X495310Y118190D01*
X488910Y114790D02*
X495310D01*
X488910D02*
Y118190D01*
X488910Y169190D02*
X495310D01*
Y165790D02*
Y169190D01*
X488910Y165790D02*
X495310D01*
X488910D02*
Y169190D01*
X427665Y559280D02*
X430865D01*
X427665D02*
Y565480D01*
X430865D01*
Y559280D02*
Y565480D01*
X402265Y559280D02*
X405465D01*
X402265D02*
Y565480D01*
X405465D01*
Y559280D02*
Y565480D01*
X414965Y559280D02*
X418165D01*
X414965D02*
Y565480D01*
X418165D01*
Y559280D02*
Y565480D01*
X295377Y948809D02*
X301777Y948809D01*
X295377Y948809D02*
Y952209D01*
X301777Y952209D01*
Y948809D02*
Y952209D01*
X280877Y955809D02*
Y959209D01*
Y955809D02*
X287277Y955809D01*
Y959209D01*
X280877Y959209D02*
X287277Y959209D01*
X878040Y953270D02*
Y959670D01*
X874640Y953270D02*
X878040D01*
X874640D02*
Y959670D01*
X878040D01*
X864330Y1005420D02*
X867730D01*
X864330Y999020D02*
Y1005420D01*
Y999020D02*
X867730D01*
Y1005420D01*
X959300Y297550D02*
Y303950D01*
X962700D01*
Y297550D02*
Y303950D01*
X959300Y297550D02*
X962700D01*
X984680Y539257D02*
Y545656D01*
X981280Y539257D02*
X984680D01*
X981280D02*
Y545656D01*
X984680D01*
X253300Y137150D02*
X256700D01*
Y143550D01*
X253300D02*
X256700D01*
X253300Y137150D02*
Y143550D01*
X246300Y137150D02*
X249700D01*
Y143550D01*
X246300D02*
X249700D01*
X246300Y137150D02*
Y143550D01*
X226550Y139300D02*
X232950D01*
Y135900D02*
Y139300D01*
X226550Y135900D02*
X232950D01*
X226550D02*
Y139300D01*
X218300Y137150D02*
X221700D01*
Y143550D01*
X218300D02*
X221700D01*
X218300Y137150D02*
Y143550D01*
X130300Y310050D02*
X133700D01*
X130300Y303650D02*
Y310050D01*
Y303650D02*
X133700D01*
Y310050D01*
X130300Y137150D02*
X133700D01*
Y143550D01*
X130300D02*
X133700D01*
X130300Y137150D02*
Y143550D01*
X305950Y178400D02*
Y181800D01*
X299550D02*
X305950D01*
X299550Y178400D02*
Y181800D01*
Y178400D02*
X305950D01*
Y171400D02*
Y174800D01*
X299550D02*
X305950D01*
X299550Y171400D02*
Y174800D01*
Y171400D02*
X305950D01*
X248300Y310050D02*
X251700D01*
X248300Y303650D02*
Y310050D01*
Y303650D02*
X251700D01*
Y310050D01*
X305950Y192400D02*
Y195800D01*
X299550D02*
X305950D01*
X299550Y192400D02*
Y195800D01*
Y192400D02*
X305950D01*
Y185400D02*
Y188800D01*
X299550D02*
X305950D01*
X299550Y185400D02*
Y188800D01*
Y185400D02*
X305950D01*
X182300Y310050D02*
X185700D01*
X182300Y303650D02*
Y310050D01*
Y303650D02*
X185700D01*
Y310050D01*
X175300D02*
X178700D01*
X175300Y303650D02*
Y310050D01*
Y303650D02*
X178700D01*
Y310050D01*
X220300D02*
X223700D01*
X220300Y303650D02*
Y310050D01*
Y303650D02*
X223700D01*
Y310050D01*
X213196Y310221D02*
X216596D01*
X213196Y303821D02*
Y310221D01*
Y303821D02*
X216596D01*
Y310221D01*
X161300Y310050D02*
X164700D01*
X161300Y303650D02*
Y310050D01*
Y303650D02*
X164700D01*
Y310050D01*
X168300D02*
X171700D01*
X168300Y303650D02*
Y310050D01*
Y303650D02*
X171700D01*
Y310050D01*
X249700Y125150D02*
Y131550D01*
X246300Y125150D02*
X249700D01*
X246300D02*
Y131550D01*
X249700D01*
X239300Y137150D02*
Y143550D01*
X242700D01*
Y137150D02*
Y143550D01*
X239300Y137150D02*
X242700D01*
X204300D02*
Y143550D01*
X207700D01*
Y137150D02*
Y143550D01*
X204300Y137150D02*
X207700D01*
X336200Y279500D02*
Y285900D01*
X332800Y279500D02*
X336200D01*
X332800D02*
Y285900D01*
X336200D01*
X297700Y308500D02*
Y314900D01*
X294300Y308500D02*
X297700D01*
X294300D02*
Y314900D01*
X297700D01*
X297300Y267750D02*
Y274150D01*
X300700D01*
Y267750D02*
Y274150D01*
X297300Y267750D02*
X300700D01*
X304300D02*
Y274150D01*
X307700D01*
Y267750D02*
Y274150D01*
X304300Y267750D02*
X307700D01*
X272700Y303650D02*
Y310050D01*
X269300Y303650D02*
X272700D01*
X269300D02*
Y310050D01*
X272700D01*
X311700Y308500D02*
Y314900D01*
X308300Y308500D02*
X311700D01*
X308300D02*
Y314900D01*
X311700D01*
X316550Y314250D02*
X322950D01*
X316550D02*
Y317650D01*
X322950D01*
Y314250D02*
Y317650D01*
X313550Y274772D02*
X319950D01*
Y271372D02*
Y274772D01*
X313550Y271372D02*
X319950D01*
X313550D02*
Y274772D01*
Y264372D02*
X319950D01*
X313550D02*
Y267772D01*
X319950D01*
Y264372D02*
Y267772D01*
X316550Y307250D02*
X322950D01*
X316550D02*
Y310650D01*
X322950D01*
Y307250D02*
Y310650D01*
X204300Y125150D02*
Y131550D01*
X207700D01*
Y125150D02*
Y131550D01*
X204300Y125150D02*
X207700D01*
X178700Y137150D02*
Y143550D01*
X175300Y137150D02*
X178700D01*
X175300D02*
Y143550D01*
X178700D01*
X171700Y137150D02*
Y143550D01*
X168300Y137150D02*
X171700D01*
X168300D02*
Y143550D01*
X171700D01*
X262300Y303650D02*
Y310050D01*
X265700D01*
Y303650D02*
Y310050D01*
X262300Y303650D02*
X265700D01*
X766866Y932885D02*
Y939285D01*
X770266D01*
Y932885D02*
Y939285D01*
X766866Y932885D02*
X770266D01*
X762266D02*
Y939285D01*
X758866Y932885D02*
X762266D01*
X758866D02*
Y939285D01*
X762266D01*
X954800Y293700D02*
X961200D01*
Y290300D02*
Y293700D01*
X954800Y290300D02*
X961200D01*
X954800D02*
Y293700D01*
X984680Y550756D02*
Y557156D01*
X981280Y550756D02*
X984680D01*
X981280D02*
Y557156D01*
X984680D01*
X867330Y814020D02*
X870730D01*
Y820420D01*
X867330D02*
X870730D01*
X867330Y814020D02*
Y820420D01*
Y808920D02*
X870730D01*
X867330Y802520D02*
Y808920D01*
Y802520D02*
X870730D01*
Y808920D01*
X452042Y1079872D02*
X455442D01*
X452042Y1073472D02*
Y1079872D01*
Y1073472D02*
X455442D01*
Y1079872D01*
X270742Y374901D02*
X274142D01*
Y381301D01*
X270742D02*
X274142D01*
X270742Y374901D02*
Y381301D01*
X215567Y380729D02*
Y384129D01*
Y380729D02*
X221967D01*
Y384129D01*
X215567D02*
X221967D01*
X853900Y684050D02*
Y687450D01*
X847500D02*
X853900D01*
X847500Y684050D02*
Y687450D01*
Y684050D02*
X853900D01*
X853900Y693050D02*
Y696450D01*
X847500D02*
X853900D01*
X847500Y693050D02*
Y696450D01*
Y693050D02*
X853900D01*
X854900Y513050D02*
Y516450D01*
X848500D02*
X854900D01*
X848500Y513050D02*
Y516450D01*
Y513050D02*
X854900D01*
X841900D02*
Y516450D01*
X835500D02*
X841900D01*
X835500Y513050D02*
Y516450D01*
Y513050D02*
X841900D01*
X846100Y1409500D02*
X849500D01*
Y1415900D01*
X846100D02*
X849500D01*
X846100Y1409500D02*
Y1415900D01*
X808300Y1415950D02*
X811700D01*
X808300Y1409550D02*
Y1415950D01*
Y1409550D02*
X811700D01*
Y1415950D01*
X830600Y1415900D02*
X834000D01*
X830600Y1409500D02*
Y1415900D01*
Y1409500D02*
X834000D01*
Y1415900D01*
X900330Y928220D02*
Y934620D01*
X903730D01*
Y928220D02*
Y934620D01*
X900330Y928220D02*
X903730D01*
X840600Y1420500D02*
Y1423900D01*
Y1420500D02*
X847000D01*
Y1423900D01*
X840600D02*
X847000D01*
X908350Y993250D02*
X911750D01*
Y999650D01*
X908350D02*
X911750D01*
X908350Y993250D02*
Y999650D01*
X907330Y928220D02*
X907330Y934620D01*
X910730D01*
X910730Y928220D02*
X910730Y934620D01*
X907330Y928220D02*
X910730D01*
X295377Y955809D02*
Y959209D01*
Y955809D02*
X301777D01*
Y959209D01*
X295377D02*
X301777D01*
X295377Y962810D02*
Y966209D01*
Y962810D02*
X301777D01*
Y966209D01*
X295377D02*
X301777D01*
X244500Y104300D02*
Y107700D01*
X238100D02*
X244500D01*
X238100Y104300D02*
Y107700D01*
Y104300D02*
X244500D01*
D413*
X669251Y168910D02*
X687252D01*
X669251D02*
X669251Y146910D01*
X687252D01*
Y168910D01*
X200750Y947000D02*
Y965000D01*
Y947000D02*
X234750D01*
Y965000D01*
X200750D02*
X234750D01*
X903100Y1322500D02*
Y1344500D01*
X888500Y1322500D02*
X903100D01*
X888500D02*
Y1344500D01*
X903100D01*
X897846Y766590D02*
X907446D01*
X897846Y748990D02*
Y766590D01*
Y748990D02*
X907446D01*
Y766590D01*
X844230Y1034830D02*
X849830D01*
Y1045430D01*
X844230D02*
X849830D01*
X844230Y1034830D02*
Y1045430D01*
X886580Y888550D02*
X889980D01*
Y894950D01*
X886580D02*
X889980D01*
X886580Y888550D02*
Y894950D01*
X113570Y132360D02*
Y138160D01*
X109770Y132360D02*
X113570D01*
X109770D02*
Y138160D01*
X113570D01*
X711360Y83290D02*
X717760D01*
Y79890D02*
Y83290D01*
X711360Y79890D02*
X717760D01*
X711360D02*
Y83290D01*
Y67890D02*
Y71290D01*
Y67890D02*
X717760D01*
Y71290D01*
X711360D02*
X717760D01*
X728110Y47215D02*
X734510D01*
X728110D02*
Y50615D01*
X734510D01*
Y47215D02*
Y50615D01*
X722240Y106180D02*
Y112580D01*
X718840Y106180D02*
X722240D01*
X718840D02*
Y112580D01*
X722240D01*
X660360Y71330D02*
X666760D01*
Y67930D02*
Y71330D01*
X660360Y67930D02*
X666760D01*
X660360D02*
Y71330D01*
X724340Y85180D02*
Y91580D01*
X727740D01*
Y85180D02*
Y91580D01*
X724340Y85180D02*
X727740D01*
X728110Y53215D02*
X734510D01*
X728110D02*
Y56615D01*
X734510D01*
Y53215D02*
Y56615D01*
X713110Y40688D02*
Y47088D01*
X716510D01*
Y40688D02*
Y47088D01*
X713110Y40688D02*
X716510D01*
X719110D02*
Y47088D01*
X722510D01*
Y40688D02*
Y47088D01*
X719110Y40688D02*
X722510D01*
X668360Y42140D02*
X674760D01*
X668360D02*
Y45540D01*
X674760D01*
Y42140D02*
Y45540D01*
X702510Y57140D02*
Y63540D01*
X699110Y57140D02*
X702510D01*
X699110D02*
Y63540D01*
X702510D01*
X660360Y81290D02*
X666760D01*
Y77890D02*
Y81290D01*
X660360Y77890D02*
X666760D01*
X660360D02*
Y81290D01*
X893880Y819870D02*
X904480D01*
X893880D02*
Y825470D01*
X904480D01*
Y819870D02*
Y825470D01*
X909480Y830870D02*
Y836470D01*
X898880D02*
X909480D01*
X898880Y830870D02*
Y836470D01*
Y830870D02*
X909480D01*
X886580Y916270D02*
Y922670D01*
X889980D01*
Y916270D02*
Y922670D01*
X886580Y916270D02*
X889980D01*
Y904270D02*
Y910670D01*
X886580Y904270D02*
X889980D01*
X886580D02*
Y910670D01*
X889980D01*
X901380Y905770D02*
X911980D01*
Y900170D02*
Y905770D01*
X901380Y900170D02*
X911980D01*
X901380D02*
Y905770D01*
X893330Y910670D02*
X896730D01*
X893330Y904270D02*
Y910670D01*
Y904270D02*
X896730D01*
Y910670D01*
X900480Y887270D02*
Y890670D01*
X894080D02*
X900480D01*
X894080Y887270D02*
Y890670D01*
Y887270D02*
X900480D01*
X910430Y883170D02*
X913830D01*
X910430Y876770D02*
Y883170D01*
Y876770D02*
X913830D01*
Y883170D01*
X897326D02*
X900726D01*
X897326Y876770D02*
Y883170D01*
Y876770D02*
X900726D01*
Y883170D01*
X912980Y893270D02*
Y896670D01*
X906580D02*
X912980D01*
X906580Y893270D02*
Y896670D01*
Y893270D02*
X912980D01*
X733511Y129660D02*
X755511D01*
Y115060D02*
Y129660D01*
X733511Y115060D02*
X755511D01*
X733511D02*
Y129660D01*
X768214Y299440D02*
X774614D01*
Y296040D02*
Y299440D01*
X768214Y296040D02*
X774614D01*
X768214D02*
Y299440D01*
X742114Y297290D02*
Y303690D01*
X738715Y297290D02*
X742114D01*
X738715D02*
Y303690D01*
X742114D01*
X752615Y297290D02*
Y303690D01*
X749215Y297290D02*
X752615D01*
X749215D02*
Y303690D01*
X752615D01*
X726714D02*
X730115D01*
X726714Y297290D02*
Y303690D01*
Y297290D02*
X730115D01*
Y303690D01*
X744464Y354790D02*
Y361190D01*
X747865D01*
Y354790D02*
Y361190D01*
X744464Y354790D02*
X747865D01*
X755464D02*
Y361190D01*
X758865D01*
Y354790D02*
Y361190D01*
X755464Y354790D02*
X758865D01*
X698715Y299040D02*
X705115D01*
X698715D02*
Y302440D01*
X705115D01*
Y299040D02*
Y302440D01*
X722115Y297290D02*
Y303690D01*
X718715Y297290D02*
X722115D01*
X718715D02*
Y303690D01*
X722115D01*
X768214Y316440D02*
X774614D01*
Y313040D02*
Y316440D01*
X768214Y313040D02*
X774614D01*
X768214D02*
Y316440D01*
X776864Y354790D02*
Y361190D01*
X773465Y354790D02*
X776864D01*
X773465D02*
Y361190D01*
X776864D01*
X404215Y355240D02*
Y361640D01*
X407615D01*
Y355240D02*
Y361640D01*
X404215Y355240D02*
X407615D01*
X397215D02*
Y361640D01*
X400615D01*
Y355240D02*
Y361640D01*
X397215Y355240D02*
X400615D01*
X368253Y339251D02*
X374653D01*
Y335851D02*
Y339251D01*
X368253Y335851D02*
X374653D01*
X368253D02*
Y339251D01*
X459349Y293620D02*
X465749D01*
X459349D02*
Y297020D01*
X465749D01*
Y293620D02*
Y297020D01*
X459349Y301620D02*
X465749D01*
X459349D02*
Y305020D01*
X465749D01*
Y301620D02*
Y305020D01*
X459349Y319620D02*
X465749D01*
X459349D02*
Y323020D01*
X465749D01*
Y319620D02*
Y323020D01*
X380765Y321790D02*
X387164D01*
X380765D02*
Y325190D01*
X387164D01*
Y321790D02*
Y325190D01*
X380765Y314790D02*
X387164D01*
X380765D02*
Y318190D01*
X387164D01*
Y314790D02*
Y318190D01*
X380765Y335790D02*
X387164D01*
X380765D02*
Y339190D01*
X387164D01*
Y335790D02*
Y339190D01*
X380765Y328790D02*
X387164D01*
X380765D02*
Y332190D01*
X387164D01*
Y328790D02*
Y332190D01*
X438970Y353879D02*
X445370D01*
Y350479D02*
Y353879D01*
X438970Y350479D02*
X445370D01*
X438970D02*
Y353879D01*
X380664Y349790D02*
X387065D01*
X380664D02*
Y353190D01*
X387065D01*
Y349790D02*
Y353190D01*
X413164Y355290D02*
X416564D01*
Y361690D01*
X413164D02*
X416564D01*
X413164Y355290D02*
Y361690D01*
X403140Y299390D02*
Y305790D01*
X399740Y299390D02*
X403140D01*
X399740D02*
Y305790D01*
X403140D01*
X701260Y108540D02*
X711860D01*
X701260D02*
Y114140D01*
X711860D01*
Y108540D02*
Y114140D01*
X414486Y294058D02*
X425086Y294058D01*
X414486Y294058D02*
Y299658D01*
X425086Y299658D01*
Y294058D02*
Y299658D01*
X534113Y1132710D02*
X540513D01*
Y1129310D02*
Y1132710D01*
X534113Y1129310D02*
X540513D01*
X534113D02*
Y1132710D01*
X633077Y1138541D02*
X639477D01*
X633077D02*
Y1141941D01*
X639477D01*
Y1138541D02*
Y1141941D01*
X534112Y1154710D02*
X540512D01*
Y1151310D02*
Y1154710D01*
X534112Y1151310D02*
X540512D01*
X534112D02*
Y1154710D01*
X976060Y399750D02*
X976060Y377750D01*
X976060Y399750D02*
X990660Y399750D01*
Y377750D02*
Y399750D01*
X976060Y377750D02*
X990660D01*
X976060Y340750D02*
Y362750D01*
X990660D01*
Y340750D02*
Y362750D01*
X976060Y340750D02*
X990660D01*
X785080Y1039980D02*
X791480Y1039980D01*
Y1036580D02*
Y1039980D01*
X785080Y1036580D02*
X791480Y1036580D01*
X785080Y1036580D02*
Y1039980D01*
X843830Y1051300D02*
X850230Y1051300D01*
X843830Y1051300D02*
Y1054700D01*
X850230D01*
X850230Y1051300D01*
X941460Y171740D02*
Y175140D01*
Y171740D02*
X947859D01*
X947859Y175140D01*
X941460Y175140D02*
X947859Y175140D01*
X945710Y200390D02*
X949109Y200390D01*
X945710Y193990D02*
Y200390D01*
Y193990D02*
X949109Y193990D01*
Y200390D01*
X861680Y798670D02*
Y804270D01*
X851080D02*
X861680D01*
X851080Y798670D02*
Y804270D01*
Y798670D02*
X861680D01*
X435528Y834959D02*
Y841359D01*
X438928D01*
Y834959D02*
Y841359D01*
X435528Y834959D02*
X438928D01*
X451528D02*
Y841359D01*
X454928D01*
Y834959D02*
Y841359D01*
X451528Y834959D02*
X454928D01*
X428815Y821298D02*
X435215Y821298D01*
X428815Y821298D02*
Y824698D01*
X435215Y824698D01*
Y821298D02*
Y824698D01*
X381928Y925159D02*
X396528D01*
Y947159D01*
X381928D02*
X396528D01*
X381928Y925159D02*
Y947159D01*
X401528Y834959D02*
Y841359D01*
X404928D01*
Y834959D02*
Y841359D01*
X401528Y834959D02*
X404928D01*
X369947Y839609D02*
X375547D01*
X369947Y829009D02*
X369947Y839609D01*
X369947Y829009D02*
X375547D01*
X375547Y839609D02*
X375547Y829009D01*
X363547Y866609D02*
X363547Y856009D01*
X357947Y856009D02*
X363547Y856009D01*
X357947Y856009D02*
Y866609D01*
X363547D01*
X369947Y849009D02*
X375547D01*
Y859609D01*
X369947D02*
X375547D01*
X369947Y849009D02*
Y859609D01*
X407528Y834959D02*
Y841359D01*
X410928D01*
Y834959D02*
Y841359D01*
X407528Y834959D02*
X410928D01*
X990660Y435750D02*
X990660Y413750D01*
X976060Y413750D02*
X990660Y413750D01*
X976060Y435750D02*
X976060Y413750D01*
X976060Y435750D02*
X990660D01*
X420928Y928709D02*
Y935109D01*
X417528Y928709D02*
X420928D01*
X417528D02*
Y935109D01*
X420928D01*
X413928Y928709D02*
Y935109D01*
X410528Y928709D02*
X413928D01*
X410528D02*
Y935109D01*
X413928D01*
X403528Y928709D02*
Y935109D01*
X406928D01*
Y928709D02*
Y935109D01*
X403528Y928709D02*
X406928D01*
X482429Y904459D02*
X488829D01*
X482429D02*
Y907859D01*
X488829D01*
Y904459D02*
Y907859D01*
X482429Y897459D02*
X488829D01*
X482429D02*
Y900859D01*
X488829D01*
Y897459D02*
Y900859D01*
X419528Y834959D02*
Y841359D01*
X422928D01*
Y834959D02*
Y841359D01*
X419528Y834959D02*
X422928D01*
X413528D02*
Y841359D01*
X416928D01*
Y834959D02*
Y841359D01*
X413528Y834959D02*
X416928D01*
X387028Y861859D02*
X393428D01*
Y858459D02*
Y861859D01*
X387028Y858459D02*
X393428D01*
X387028D02*
Y861859D01*
Y917859D02*
X393428D01*
Y914459D02*
Y917859D01*
X387028Y914459D02*
X393428D01*
X387028D02*
Y917859D01*
X976060Y472750D02*
X990660Y472750D01*
X976060Y450750D02*
Y472750D01*
Y450750D02*
X990660Y450750D01*
Y472750D01*
X977030Y526007D02*
Y529406D01*
Y526007D02*
X983430Y526007D01*
X983430Y529406D02*
X983430Y526007D01*
X977030Y529406D02*
X983430D01*
X988280Y545656D02*
X991680D01*
X988280Y539256D02*
Y545656D01*
Y539256D02*
X991680D01*
X991680Y545656D01*
X427928Y928709D02*
Y935109D01*
X424528Y928709D02*
X427928D01*
X424528D02*
Y935109D01*
X427928D01*
X214592Y1027777D02*
Y1049777D01*
X229192D01*
Y1027777D02*
Y1049777D01*
X214592Y1027777D02*
X229192D01*
X214592Y994777D02*
Y1016777D01*
X229192Y1016777D01*
Y994777D02*
Y1016777D01*
X214592Y994777D02*
X229192D01*
X223392Y972477D02*
Y987077D01*
X201392D02*
X223392D01*
X201392Y972477D02*
Y987077D01*
Y972477D02*
X223392D01*
X437928Y928709D02*
Y935109D01*
X434528Y928709D02*
X437928D01*
X434528D02*
X434528Y935109D01*
X437928Y935109D01*
X448028Y829859D02*
Y840459D01*
X442428Y829859D02*
X448028D01*
X442428D02*
Y840459D01*
X448028D01*
X887750Y997450D02*
X902350D01*
X887750Y975450D02*
Y997450D01*
Y975450D02*
X902350D01*
Y997450D01*
X912850Y975500D02*
Y986100D01*
X907250Y975500D02*
X912850D01*
X907250Y986100D02*
X907250Y975500D01*
X907250Y986100D02*
X912850Y986100D01*
X886575Y928217D02*
Y934617D01*
X889975D01*
Y928217D02*
Y934617D01*
X886575Y928217D02*
X889975D01*
X886575Y946422D02*
X889975D01*
X886575Y940022D02*
X886575Y946422D01*
X886575Y940022D02*
X889975D01*
X889975Y946422D02*
X889975Y940022D01*
X426428Y829859D02*
Y840459D01*
X432028D01*
Y829859D02*
Y840459D01*
X426428Y829859D02*
X432028D01*
X812560Y974750D02*
Y981150D01*
X815960D01*
Y974750D02*
Y981150D01*
X812560Y974750D02*
X815960D01*
Y955250D02*
Y961650D01*
X812560Y955250D02*
X815960D01*
X812560D02*
Y961650D01*
X815960D01*
X880330Y966040D02*
Y976640D01*
X874730Y966040D02*
X880330D01*
X874730D02*
Y976640D01*
X880330D01*
X731510Y178880D02*
X734910D01*
X731510D02*
X731510Y172480D01*
X734910D01*
X734910Y178880D02*
X734910Y172480D01*
X748510Y172480D02*
Y178880D01*
X745110Y172480D02*
X748510Y172480D01*
X745110Y172480D02*
X745110Y178880D01*
X748510Y178880D01*
X751580Y191724D02*
X754979Y191724D01*
X751580Y191724D02*
X751580Y185324D01*
X754979Y185324D01*
X754979Y191724D02*
X754979Y185324D01*
X587182Y231444D02*
X593582D01*
Y228044D02*
Y231444D01*
X587182Y228044D02*
X593582Y228044D01*
X587182Y228044D02*
X587182Y231444D01*
X575681Y228044D02*
X582081D01*
X575681D02*
Y231444D01*
X582081D01*
X582081Y228044D01*
X664200Y149550D02*
Y155950D01*
X660800Y149550D02*
X664200D01*
X660800D02*
X660800Y155950D01*
X664200D01*
X661952Y180710D02*
X672551Y180710D01*
Y175110D02*
Y180710D01*
X661952Y175110D02*
X672551D01*
X661952D02*
X661952Y180710D01*
X661952Y190710D02*
X672551Y190710D01*
X672551Y185110D02*
X672551Y190710D01*
X661952Y185110D02*
X672551Y185110D01*
X661952Y190710D02*
X661952Y185110D01*
X660380Y127710D02*
X674980Y127710D01*
X660380Y105710D02*
Y127710D01*
Y105710D02*
X674980D01*
Y127710D01*
X533931Y228051D02*
X540331Y228051D01*
X533931Y231451D02*
X533931Y228051D01*
X533931Y231451D02*
X540331Y231451D01*
X540331Y228051D02*
X540331Y231451D01*
X545431Y231451D02*
X551832Y231451D01*
X551831Y228051D02*
X551832Y231451D01*
X545431Y228051D02*
X551831Y228051D01*
X545431Y228051D02*
Y231451D01*
X661601Y135110D02*
Y140710D01*
Y135110D02*
X672202Y135110D01*
X672201Y140710D02*
X672202Y135110D01*
X661601Y140710D02*
X672201Y140710D01*
X701540Y36430D02*
X723540D01*
Y21830D02*
Y36430D01*
X701540Y21830D02*
X723540D01*
X701540D02*
Y36430D01*
X966950Y293300D02*
X966950Y296700D01*
X966950Y293300D02*
X973350Y293300D01*
Y296700D01*
X966950D02*
X973350D01*
X953300Y297550D02*
X956700D01*
X956700Y303950D01*
X953300D02*
X956700D01*
X953300Y297550D02*
X953300Y303950D01*
X787776Y56794D02*
Y63194D01*
X791176D01*
Y56794D02*
Y63194D01*
X787776Y56794D02*
X791176D01*
X746112Y61400D02*
X752512D01*
Y58000D02*
Y61400D01*
X746112Y58000D02*
X752512D01*
X746112D02*
Y61400D01*
X746113Y83890D02*
Y87290D01*
Y83890D02*
X752513D01*
Y87290D01*
X746113D02*
X752513D01*
X719300Y131800D02*
Y138200D01*
X722700D01*
Y131800D02*
Y138200D01*
X719300Y131800D02*
X722700D01*
X745669Y624839D02*
Y631239D01*
X749069D01*
Y624839D02*
Y631239D01*
X745669Y624839D02*
X749069D01*
X735569Y622739D02*
Y633339D01*
X741169D01*
Y622739D02*
Y633339D01*
X735569Y622739D02*
X741169D01*
X231944Y1401920D02*
X249944Y1401920D01*
Y1435920D01*
X231944D02*
X249944D01*
X231944Y1401920D02*
X231944Y1435920D01*
X207350Y1401920D02*
X225350D01*
X225350Y1435920D02*
X225350Y1401920D01*
X207350Y1435920D02*
X225350D01*
X207350Y1401920D02*
Y1435920D01*
X280877Y966209D02*
X287277D01*
X287277Y962810D01*
X280877Y962810D02*
X287277Y962810D01*
X280877Y962810D02*
Y966209D01*
X147700Y303650D02*
Y310050D01*
X144300Y303650D02*
X147700Y303650D01*
X144300Y303650D02*
Y310050D01*
X147700Y310050D01*
X152303Y130643D02*
X158703D01*
X152303D02*
Y134043D01*
X158703D01*
Y130643D02*
Y134043D01*
X140700Y303650D02*
Y310050D01*
X137300Y303650D02*
X140700D01*
X137300D02*
Y310050D01*
X140700D01*
X152303Y123643D02*
X158703D01*
X152303D02*
Y127043D01*
X158703D01*
Y123643D02*
Y127043D01*
X151200Y303150D02*
Y313750D01*
X156800D01*
Y303150D02*
Y313750D01*
X151200Y303150D02*
X156800D01*
X151803Y143143D02*
X162403D01*
Y137543D02*
Y143143D01*
X151803Y137543D02*
X162403D01*
X151803D02*
Y143143D01*
X275043Y1295535D02*
Y1329535D01*
X257043Y1295535D02*
X275043D01*
X257043D02*
Y1329535D01*
X275043D01*
X250449Y1295535D02*
Y1329535D01*
X232449Y1295535D02*
X250449D01*
X232449D02*
Y1329535D01*
X250449Y1329535D01*
X225854Y1295535D02*
Y1329535D01*
X207854Y1295535D02*
X225854Y1295535D01*
X207854Y1295535D02*
Y1329535D01*
X225854D01*
X330826D02*
X348826D01*
X330826Y1295535D02*
Y1329535D01*
Y1295535D02*
X348826Y1295535D01*
Y1329535D01*
X324232Y1295535D02*
Y1329535D01*
X306232Y1295535D02*
X324232Y1295535D01*
X306232Y1295535D02*
Y1329535D01*
X324232D01*
X299638Y1295535D02*
Y1329535D01*
X281637Y1295535D02*
X299638D01*
X281637D02*
Y1329535D01*
X299638D01*
X860050Y1223300D02*
X863450D01*
Y1229700D01*
X860050D02*
X863450D01*
X860050Y1223300D02*
Y1229700D01*
X865550Y1291200D02*
X868950D01*
X865550Y1284800D02*
Y1291200D01*
Y1284800D02*
X868950D01*
Y1291200D01*
X797450Y1255700D02*
X803050D01*
Y1266300D01*
X797450D02*
X803050D01*
X797450Y1255700D02*
Y1266300D01*
X796462Y366271D02*
Y380871D01*
X774463D02*
X796462D01*
X774463Y366271D02*
Y380871D01*
Y366271D02*
X796462D01*
X717465Y354790D02*
Y361190D01*
X720864D01*
X720864Y354790D02*
X720864Y361190D01*
X717465Y354790D02*
X720864Y354790D01*
X713215Y348040D02*
X719614D01*
X713215D02*
Y351440D01*
X719614D01*
Y348040D02*
Y351440D01*
X728465Y354790D02*
Y361190D01*
X731864D01*
Y354790D02*
Y361190D01*
X728465Y354790D02*
X731864D01*
X674550Y350275D02*
Y356675D01*
X677950Y356675D01*
X677950Y350275D02*
X677950Y356675D01*
X674550Y350275D02*
X677950Y350275D01*
X667550D02*
Y356675D01*
X670950D01*
Y350275D02*
Y356675D01*
X667550Y350275D02*
X670950D01*
X482428Y874792D02*
Y878192D01*
Y874792D02*
X488828D01*
Y878192D01*
X482428D02*
X488828D01*
X482428Y881733D02*
Y885133D01*
Y881733D02*
X488828D01*
Y885133D01*
X482428D02*
X488828D01*
X467528Y841359D02*
X470928D01*
X467528Y834959D02*
Y841359D01*
Y834959D02*
X470928D01*
Y841359D01*
X460528D02*
X463928D01*
X460528Y834959D02*
Y841359D01*
Y834959D02*
X463928D01*
Y841359D01*
X117620Y344812D02*
Y348212D01*
X111220D02*
X117620D01*
X111220Y344812D02*
Y348212D01*
Y344812D02*
X117620D01*
Y362310D02*
Y365710D01*
X111220D02*
X117620D01*
X111220Y362310D02*
Y365710D01*
Y362310D02*
X117620D01*
X117620Y142310D02*
Y145710D01*
X111220D02*
X117620D01*
X111220Y142310D02*
Y145710D01*
Y142310D02*
X117620D01*
Y124810D02*
Y128210D01*
X111220D02*
X117620D01*
X111220Y124810D02*
Y128210D01*
Y124810D02*
X117620D01*
X329200Y279500D02*
Y285900D01*
X325800Y279500D02*
X329200D01*
X325800D02*
Y285900D01*
X329200D01*
X325800Y294500D02*
Y300900D01*
X329200D01*
Y294500D02*
Y300900D01*
X325800Y294500D02*
X329200D01*
X333700Y294400D02*
Y305000D01*
X339300D01*
Y294400D02*
Y305000D01*
X333700Y294400D02*
X339300D01*
X182300Y137150D02*
Y143550D01*
X185700D01*
Y137150D02*
Y143550D01*
X182300Y137150D02*
X185700D01*
X195800Y133450D02*
Y144050D01*
X190200Y133450D02*
X195800D01*
X190200D02*
Y144050D01*
X195800D01*
X200750Y872000D02*
Y890000D01*
Y872000D02*
X234750D01*
Y890000D01*
X200750D02*
X234750D01*
X200750Y897000D02*
Y915000D01*
Y897000D02*
X234750D01*
Y915000D01*
X200750D02*
X234750D01*
X200750Y922000D02*
Y940000D01*
Y922000D02*
X234750D01*
Y940000D01*
X200750D02*
X234750D01*
X836280Y1133200D02*
Y1142800D01*
X818680D02*
X836280D01*
X818680Y1133200D02*
Y1142800D01*
Y1133200D02*
X836280D01*
Y1113200D02*
Y1122800D01*
X818680D02*
X836280D01*
X818680Y1113200D02*
Y1122800D01*
Y1113200D02*
X836280D01*
X864200Y1055800D02*
X873800D01*
X864200Y1038200D02*
Y1055800D01*
Y1038200D02*
X873800D01*
Y1055800D01*
X897850Y718990D02*
X907450D01*
Y736590D01*
X897850D02*
X907450D01*
X897850Y718990D02*
Y736590D01*
X109970Y358461D02*
X113370D01*
X109970Y352062D02*
Y358461D01*
Y352062D02*
X113370D01*
Y358461D01*
X794100Y1395800D02*
X799700D01*
X794100Y1385200D02*
Y1395800D01*
Y1385200D02*
X799700D01*
Y1395800D01*
X838750Y1360200D02*
Y1365800D01*
X828150D02*
X838750D01*
X828150Y1360200D02*
Y1365800D01*
Y1360200D02*
X838750D01*
X863100Y1361500D02*
Y1383500D01*
X848500Y1361500D02*
X863100D01*
X848500D02*
Y1383500D01*
X863100D01*
X869000Y1403950D02*
X874600D01*
Y1414550D01*
X869000D02*
X874600D01*
X869000Y1403950D02*
Y1414550D01*
X856000Y1324050D02*
X861600D01*
Y1334650D01*
X856000D02*
X861600D01*
X856000Y1324050D02*
Y1334650D01*
X883100Y1322500D02*
Y1344500D01*
X868500Y1322500D02*
X883100D01*
X868500D02*
Y1344500D01*
X883100D01*
Y1361500D02*
Y1383500D01*
X868500Y1361500D02*
X883100D01*
X868500D02*
Y1383500D01*
X883100D01*
X903100Y1361500D02*
Y1383500D01*
X888500Y1361500D02*
X903100D01*
X888500D02*
Y1383500D01*
X903100D01*
X838100Y1415900D02*
X841500D01*
X838100Y1409500D02*
Y1415900D01*
Y1409500D02*
X841500D01*
Y1415900D01*
X844230Y1026730D02*
X849830D01*
X844230Y1016130D02*
Y1026730D01*
Y1016130D02*
X849830D01*
Y1026730D01*
D414*
X141170Y11000D02*
Y21000D01*
X136170Y16000D02*
X146170D01*
X850000Y1560000D02*
X860000D01*
X855000Y1555000D02*
Y1565000D01*
X80000Y1555000D02*
Y1565000D01*
X75000Y1560000D02*
X85000D01*
D415*
X813225Y1376825D02*
D03*
D416*
X315748Y285198D02*
D03*
D417*
X350213Y841809D02*
D03*
D418*
X221615Y83000D02*
D03*
X837307Y774000D02*
D03*
X792629Y1167999D02*
D03*
D419*
X834180Y843500D02*
D03*
D420*
X409818Y913569D02*
D03*
D421*
X609355Y1182425D02*
D03*
D422*
X898692Y958870D02*
D03*
D423*
X806599Y1025516D02*
D03*
D424*
X724515Y448393D02*
D03*
X644242Y1007882D02*
D03*
X644241Y1476512D02*
D03*
D425*
X599541Y1530917D02*
D03*
X543841Y1435412D02*
D03*
X467640D02*
D03*
X391440D02*
D03*
X467641Y1525417D02*
D03*
X391440D02*
D03*
X315241D02*
D03*
X611415Y394500D02*
D03*
X535215Y394503D02*
D03*
X458915Y394500D02*
D03*
X338315Y395365D02*
D03*
X410492Y966782D02*
D03*
X359692D02*
D03*
X473992Y1056787D02*
D03*
X423191D02*
D03*
X359692D02*
D03*
X274415Y559627D02*
D03*
X236765Y395362D02*
D03*
X325665Y559627D02*
D03*
X287565Y395362D02*
D03*
D426*
X647031Y1440401D02*
D03*
D427*
X792918Y904520D02*
D03*
D428*
X970659Y170711D02*
D03*
X970657Y196711D02*
D03*
D429*
X973441Y511729D02*
D03*
X986420Y309076D02*
D03*
X739540Y159360D02*
D03*
D430*
X734831Y709994D02*
D03*
M02*
