G04*
G04 #@! TF.GenerationSoftware,Altium Limited,Altium Designer,26.9.1 (10)*
G04*
G04 Layer_Color=32896*
G04 Board_Origin=9999995|9999995*
%FSLAX44Y44*%
%MOMM*%
G71*
G04*
G04 #@! TF.SameCoordinates,9D83EA41-EA8C-4E9F-96AF-D385C4C8DFFD*
G04*
G04*
G04 #@! TF.FilePolarity,Positive*
G04*
G01*
G75*
%ADD10C,0.2500*%
%ADD13C,0.2000*%
%ADD269C,0.1000*%
G36*
X607371Y1190360D02*
X617371Y1180360D01*
X617371Y1190360D01*
X607371D01*
D02*
G37*
D10*
X807890Y1369720D02*
G03*
X807890Y1369720I-500J0D01*
G01*
X322500Y280700D02*
G03*
X322500Y280700I-500J0D01*
G01*
X346087Y847199D02*
G03*
X346087Y847199I-500J0D01*
G01*
X825590Y834290D02*
G03*
X825590Y834290I-500J0D01*
G01*
X859270Y1237410D02*
G03*
X859270Y1237410I-500J0D01*
G01*
X404748Y918139D02*
G03*
X404471Y918223I0J500D01*
G01*
X622161Y1194810D02*
G03*
X622161Y1194810I-500J0D01*
G01*
X896193Y970009D02*
G03*
X896193Y970009I-500J0D01*
G01*
X800020Y1018520D02*
G03*
X800020Y1018520I-500J0D01*
G01*
X728665Y474998D02*
G03*
X728665Y474998I-500J0D01*
G01*
X648392Y981287D02*
G03*
X648392Y981287I-500J0D01*
G01*
X648338Y1450200D02*
G03*
X648338Y1450200I-500J0D01*
G01*
X596321Y1534517D02*
G03*
X596321Y1534517I-500J0D01*
G01*
X657130Y1442120D02*
G03*
X657130Y1442120I-500J0D01*
G01*
X548061Y1431812D02*
G03*
X548061Y1431812I-500J0D01*
G01*
X471860D02*
G03*
X471860Y1431812I-500J0D01*
G01*
X395660D02*
G03*
X395660Y1431812I-500J0D01*
G01*
X471861Y1521817D02*
G03*
X471861Y1521817I-500J0D01*
G01*
X395660D02*
G03*
X395660Y1521817I-500J0D01*
G01*
X319461D02*
G03*
X319461Y1521817I-500J0D01*
G01*
X615635Y390900D02*
G03*
X615635Y390900I-500J0D01*
G01*
X539435Y390903D02*
G03*
X539435Y390903I-500J0D01*
G01*
X463135Y390900D02*
G03*
X463135Y390900I-500J0D01*
G01*
X342535Y391765D02*
G03*
X342535Y391765I-500J0D01*
G01*
X800416Y903156D02*
G03*
X800416Y903156I-500J0D01*
G01*
X822510Y983540D02*
G03*
X822510Y983540I-500J0D01*
G01*
X976963Y174731D02*
G03*
X976963Y174731I-500J0D01*
G01*
Y200731D02*
G03*
X976963Y200731I-500J0D01*
G01*
X968781Y516889D02*
G03*
X968781Y516889I-500J0D01*
G01*
X992080Y303916D02*
G03*
X992080Y303916I-500J0D01*
G01*
X414711Y963182D02*
G03*
X414711Y963182I-500J0D01*
G01*
X363912D02*
G03*
X363912Y963182I-500J0D01*
G01*
X478212Y1053187D02*
G03*
X478212Y1053187I-500J0D01*
G01*
X427411D02*
G03*
X427411Y1053187I-500J0D01*
G01*
X363912Y1053187D02*
G03*
X363912Y1053187I-500J0D01*
G01*
X278635Y556027D02*
G03*
X278635Y556027I-500J0D01*
G01*
X240985Y391762D02*
G03*
X240985Y391762I-500J0D01*
G01*
X329885Y556027D02*
G03*
X329885Y556027I-500J0D01*
G01*
X291785Y391762D02*
G03*
X291785Y391762I-500J0D01*
G01*
X734880Y164520D02*
G03*
X734880Y164520I-500J0D01*
G01*
X236720Y83000D02*
X245880Y75380D01*
X236720Y83000D02*
X245880Y90620D01*
X236720Y75380D02*
Y90620D01*
X245880Y75380D02*
Y90620D01*
X734841Y725108D02*
X742461Y734268D01*
X727221D02*
X734841Y725108D01*
X727221D02*
X742461D01*
X727221Y734268D02*
X742461D01*
X852420Y774000D02*
X861580Y766380D01*
X852420Y774000D02*
X861580Y781620D01*
X852420Y766380D02*
Y781620D01*
X861580Y766380D02*
Y781620D01*
X807740Y1168000D02*
X816900Y1160380D01*
X807740Y1168000D02*
X816900Y1175620D01*
X807740Y1160380D02*
Y1175620D01*
X816900Y1160380D02*
Y1175620D01*
D13*
X607371Y1190360D02*
X617371Y1180360D01*
X617371Y1110360D02*
X617371Y1190360D01*
X557371D02*
X557371Y1110360D01*
X557371Y1190360D02*
X617371D01*
X557371Y1110360D02*
X617371D01*
D269*
X514081Y211340D02*
G03*
X514081Y211340I-500J0D01*
G01*
M02*
