G04*
G04 #@! TF.GenerationSoftware,Altium Limited,Altium Designer,26.9.1 (10)*
G04*
G04 Layer_Color=15238730*
G04 Board_Origin=9999995|9999995*
%FSLAX44Y44*%
%MOMM*%
G71*
G04*
G04 #@! TF.SameCoordinates,9D83EA41-EA8C-4E9F-96AF-D385C4C8DFFD*
G04*
G04*
G04 #@! TF.FilePolarity,Positive*
G04*
G01*
G75*
%ADD12C,0.2540*%
%ADD13C,0.2000*%
%ADD18R,0.8890X0.8890*%
%ADD266C,0.1270*%
%ADD269C,0.1000*%
%ADD335R,0.7000X0.7000*%
%ADD336R,3.0000X3.0000*%
%ADD412C,0.0500*%
%ADD413C,0.1200*%
%ADD414C,0.0050*%
%ADD416R,0.7500X0.7000*%
%ADD425R,0.4500X0.4500*%
%ADD427R,0.7620X0.7620*%
%ADD428R,0.6500X0.5960*%
%ADD431R,0.6350X0.6350*%
%ADD432R,1.7780X1.7780*%
%ADD433R,5.5000X5.1900*%
%ADD434R,1.1496X1.0955*%
%ADD435R,2.1750X2.1750*%
%ADD436R,1.2720X1.2960*%
%ADD437R,1.0160X1.0160*%
%ADD438R,0.7480X0.7630*%
%ADD439R,0.4230X0.4230*%
%ADD440R,1.5000X1.5250*%
%ADD441R,1.5000X1.5000*%
%ADD442R,1.7500X1.7500*%
%ADD443R,0.8236X0.8166*%
%ADD444R,0.7460X0.7460*%
%ADD445R,1.3570X1.3650*%
%ADD446R,7.7950X7.7950*%
%ADD447R,1.7290X1.6650*%
%ADD448R,2.5895X2.4700*%
%ADD449R,2.6750X2.7500*%
%ADD450R,0.9680X0.9680*%
%ADD451R,0.8650X0.7460*%
%ADD452R,2.7500X2.7500*%
%ADD453R,2.7500X2.7500*%
%ADD454R,2.7500X2.7500*%
%ADD455R,1.2680X1.3512*%
%ADD456R,1.1595X1.1190*%
%ADD457R,0.4500X0.4500*%
%ADD458R,0.4500X0.4500*%
%ADD459R,0.8166X0.8236*%
%ADD460R,0.4230X0.4230*%
%ADD461R,0.4230X0.4230*%
%ADD462R,0.5960X0.6500*%
%ADD463R,0.7460X0.7460*%
G36*
X1009896Y607760D02*
X1003496D01*
Y612392D01*
X1004251D01*
Y608606D01*
X1006207D01*
Y612149D01*
X1006963D01*
Y608606D01*
X1009140D01*
Y612538D01*
X1009896D01*
Y607760D01*
D02*
G37*
G36*
X1009015Y606484D02*
X1009029Y606463D01*
X1009057Y606429D01*
X1009091Y606380D01*
X1009133Y606325D01*
X1009175Y606255D01*
X1009230Y606179D01*
X1009286Y606096D01*
X1009341Y606006D01*
X1009404Y605902D01*
X1009528Y605687D01*
X1009646Y605451D01*
X1009750Y605201D01*
Y605194D01*
X1009764Y605174D01*
X1009771Y605139D01*
X1009792Y605084D01*
X1009806Y605028D01*
X1009827Y604952D01*
X1009854Y604875D01*
X1009875Y604785D01*
X1009896Y604681D01*
X1009924Y604577D01*
X1009958Y604348D01*
X1009986Y604099D01*
X1010000Y603842D01*
Y603752D01*
X1009993Y603683D01*
X1009986Y603600D01*
X1009979Y603503D01*
X1009965Y603391D01*
X1009951Y603274D01*
X1009931Y603149D01*
X1009903Y603010D01*
X1009868Y602872D01*
X1009827Y602719D01*
X1009785Y602573D01*
X1009730Y602428D01*
X1009667Y602275D01*
X1009598Y602130D01*
X1009591Y602123D01*
X1009577Y602095D01*
X1009556Y602053D01*
X1009521Y602005D01*
X1009480Y601942D01*
X1009431Y601866D01*
X1009369Y601783D01*
X1009300Y601693D01*
X1009223Y601603D01*
X1009133Y601505D01*
X1009043Y601408D01*
X1008939Y601311D01*
X1008821Y601221D01*
X1008703Y601131D01*
X1008571Y601041D01*
X1008433Y600965D01*
X1008426Y600958D01*
X1008398Y600951D01*
X1008356Y600930D01*
X1008301Y600902D01*
X1008225Y600874D01*
X1008141Y600840D01*
X1008045Y600805D01*
X1007934Y600770D01*
X1007816Y600736D01*
X1007684Y600701D01*
X1007538Y600666D01*
X1007393Y600639D01*
X1007233Y600611D01*
X1007074Y600590D01*
X1006900Y600583D01*
X1006727Y600576D01*
X1006713D01*
X1006685D01*
X1006637D01*
X1006568Y600583D01*
X1006484Y600590D01*
X1006387Y600597D01*
X1006276Y600611D01*
X1006158Y600625D01*
X1006027Y600646D01*
X1005888Y600673D01*
X1005597Y600743D01*
X1005444Y600784D01*
X1005292Y600840D01*
X1005139Y600895D01*
X1004986Y600965D01*
X1004979Y600971D01*
X1004952Y600985D01*
X1004910Y601006D01*
X1004855Y601034D01*
X1004785Y601076D01*
X1004709Y601124D01*
X1004626Y601186D01*
X1004529Y601249D01*
X1004432Y601325D01*
X1004335Y601408D01*
X1004238Y601498D01*
X1004134Y601603D01*
X1004036Y601707D01*
X1003946Y601824D01*
X1003856Y601949D01*
X1003780Y602081D01*
X1003773Y602088D01*
X1003766Y602116D01*
X1003745Y602157D01*
X1003717Y602213D01*
X1003690Y602282D01*
X1003655Y602365D01*
X1003620Y602462D01*
X1003579Y602566D01*
X1003544Y602684D01*
X1003510Y602816D01*
X1003475Y602955D01*
X1003447Y603107D01*
X1003419Y603260D01*
X1003399Y603426D01*
X1003392Y603600D01*
X1003385Y603773D01*
Y603891D01*
X1003392Y603953D01*
X1003399Y604022D01*
X1003406Y604099D01*
X1003412Y604189D01*
X1003440Y604383D01*
X1003482Y604598D01*
X1003537Y604813D01*
X1003614Y605028D01*
Y605035D01*
X1003620Y605056D01*
X1003634Y605084D01*
X1003655Y605118D01*
X1003676Y605167D01*
X1003704Y605222D01*
X1003773Y605347D01*
X1003863Y605493D01*
X1003967Y605638D01*
X1004092Y605777D01*
X1004238Y605909D01*
X1004245Y605916D01*
X1004258Y605923D01*
X1004279Y605936D01*
X1004307Y605964D01*
X1004349Y605985D01*
X1004397Y606020D01*
X1004453Y606054D01*
X1004522Y606089D01*
X1004591Y606130D01*
X1004668Y606165D01*
X1004758Y606207D01*
X1004848Y606248D01*
X1005056Y606325D01*
X1005285Y606394D01*
X1005493Y605624D01*
X1005486D01*
X1005472Y605617D01*
X1005444Y605611D01*
X1005409Y605597D01*
X1005375Y605583D01*
X1005326Y605569D01*
X1005215Y605527D01*
X1005090Y605472D01*
X1004966Y605409D01*
X1004841Y605340D01*
X1004730Y605264D01*
X1004716Y605257D01*
X1004681Y605222D01*
X1004633Y605174D01*
X1004564Y605111D01*
X1004494Y605021D01*
X1004418Y604917D01*
X1004349Y604792D01*
X1004279Y604654D01*
Y604647D01*
X1004272Y604633D01*
X1004265Y604612D01*
X1004251Y604584D01*
X1004238Y604549D01*
X1004224Y604501D01*
X1004189Y604397D01*
X1004161Y604265D01*
X1004134Y604120D01*
X1004113Y603953D01*
X1004106Y603780D01*
Y603683D01*
X1004113Y603634D01*
Y603572D01*
X1004120Y603509D01*
X1004127Y603433D01*
X1004147Y603281D01*
X1004182Y603107D01*
X1004224Y602941D01*
X1004286Y602774D01*
Y602767D01*
X1004293Y602754D01*
X1004307Y602733D01*
X1004321Y602705D01*
X1004355Y602629D01*
X1004411Y602532D01*
X1004480Y602421D01*
X1004564Y602310D01*
X1004654Y602192D01*
X1004758Y602088D01*
X1004771Y602074D01*
X1004806Y602046D01*
X1004869Y601998D01*
X1004945Y601942D01*
X1005035Y601880D01*
X1005146Y601810D01*
X1005264Y601748D01*
X1005389Y601693D01*
X1005396D01*
X1005416Y601686D01*
X1005444Y601672D01*
X1005493Y601658D01*
X1005548Y601637D01*
X1005611Y601616D01*
X1005687Y601596D01*
X1005770Y601575D01*
X1005860Y601547D01*
X1005964Y601526D01*
X1006179Y601492D01*
X1006422Y601464D01*
X1006678Y601450D01*
X1006685D01*
X1006713D01*
X1006762D01*
X1006817Y601457D01*
X1006893D01*
X1006977Y601464D01*
X1007074Y601478D01*
X1007178Y601485D01*
X1007406Y601519D01*
X1007642Y601575D01*
X1007885Y601644D01*
X1008114Y601741D01*
X1008121Y601748D01*
X1008141Y601755D01*
X1008169Y601769D01*
X1008211Y601797D01*
X1008252Y601824D01*
X1008308Y601866D01*
X1008433Y601956D01*
X1008571Y602081D01*
X1008717Y602227D01*
X1008849Y602393D01*
X1008911Y602490D01*
X1008967Y602594D01*
Y602601D01*
X1008981Y602622D01*
X1008995Y602650D01*
X1009008Y602691D01*
X1009029Y602747D01*
X1009057Y602809D01*
X1009078Y602878D01*
X1009105Y602955D01*
X1009133Y603038D01*
X1009154Y603135D01*
X1009202Y603336D01*
X1009230Y603558D01*
X1009244Y603794D01*
Y603849D01*
X1009237Y603891D01*
Y603939D01*
X1009230Y603995D01*
X1009223Y604057D01*
X1009216Y604133D01*
X1009195Y604293D01*
X1009154Y604473D01*
X1009105Y604667D01*
X1009036Y604862D01*
Y604869D01*
X1009029Y604882D01*
X1009015Y604910D01*
X1009001Y604952D01*
X1008981Y604993D01*
X1008953Y605042D01*
X1008897Y605160D01*
X1008828Y605291D01*
X1008752Y605423D01*
X1008676Y605548D01*
X1008585Y605659D01*
X1007386D01*
Y603780D01*
X1006630D01*
Y606491D01*
X1009008D01*
X1009015Y606484D01*
D02*
G37*
G36*
X1006852Y599612D02*
X1006928D01*
X1007011Y599605D01*
X1007101Y599599D01*
X1007302Y599578D01*
X1007517Y599543D01*
X1007739Y599501D01*
X1007961Y599446D01*
X1007968D01*
X1007989Y599439D01*
X1008017Y599425D01*
X1008051Y599418D01*
X1008100Y599397D01*
X1008155Y599377D01*
X1008287Y599328D01*
X1008433Y599266D01*
X1008592Y599189D01*
X1008745Y599106D01*
X1008890Y599009D01*
X1008897D01*
X1008904Y598995D01*
X1008925Y598981D01*
X1008953Y598961D01*
X1009015Y598912D01*
X1009099Y598836D01*
X1009195Y598753D01*
X1009293Y598656D01*
X1009383Y598545D01*
X1009473Y598427D01*
Y598420D01*
X1009480Y598413D01*
X1009508Y598371D01*
X1009542Y598302D01*
X1009591Y598212D01*
X1009639Y598101D01*
X1009695Y597969D01*
X1009743Y597816D01*
X1009792Y597657D01*
Y597650D01*
X1009799Y597636D01*
Y597615D01*
X1009806Y597581D01*
X1009813Y597539D01*
X1009827Y597484D01*
X1009834Y597428D01*
X1009840Y597366D01*
X1009861Y597213D01*
X1009882Y597040D01*
X1009889Y596846D01*
X1009896Y596638D01*
Y594328D01*
X1003496D01*
Y596714D01*
X1003503Y596783D01*
Y596866D01*
X1003510Y596950D01*
X1003516Y597137D01*
X1003537Y597324D01*
X1003558Y597511D01*
X1003579Y597594D01*
X1003593Y597671D01*
Y597678D01*
X1003600Y597699D01*
X1003607Y597726D01*
X1003620Y597761D01*
X1003634Y597809D01*
X1003648Y597865D01*
X1003697Y597997D01*
X1003759Y598142D01*
X1003835Y598295D01*
X1003932Y598454D01*
X1004050Y598607D01*
X1004057Y598614D01*
X1004071Y598628D01*
X1004092Y598656D01*
X1004127Y598690D01*
X1004168Y598732D01*
X1004224Y598780D01*
X1004279Y598836D01*
X1004349Y598891D01*
X1004425Y598954D01*
X1004508Y599016D01*
X1004598Y599078D01*
X1004695Y599141D01*
X1004910Y599259D01*
X1005146Y599363D01*
X1005153D01*
X1005174Y599377D01*
X1005215Y599384D01*
X1005264Y599404D01*
X1005326Y599425D01*
X1005403Y599446D01*
X1005486Y599467D01*
X1005583Y599495D01*
X1005694Y599515D01*
X1005812Y599536D01*
X1005937Y599557D01*
X1006068Y599578D01*
X1006207Y599599D01*
X1006352Y599605D01*
X1006665Y599619D01*
X1006672D01*
X1006699D01*
X1006734D01*
X1006789D01*
X1006852Y599612D01*
D02*
G37*
G36*
X1009896Y588386D02*
X1003496D01*
Y593018D01*
X1004251D01*
Y589232D01*
X1006207D01*
Y592775D01*
X1006963D01*
Y589232D01*
X1009140D01*
Y593164D01*
X1009896D01*
Y588386D01*
D02*
G37*
G36*
X1008162Y584711D02*
X1008204D01*
X1008315Y584697D01*
X1008447Y584669D01*
X1008585Y584635D01*
X1008738Y584586D01*
X1008884Y584524D01*
X1008890D01*
X1008897Y584517D01*
X1008918Y584503D01*
X1008946Y584489D01*
X1009015Y584447D01*
X1009099Y584392D01*
X1009195Y584329D01*
X1009293Y584246D01*
X1009390Y584156D01*
X1009480Y584052D01*
X1009487Y584038D01*
X1009514Y584003D01*
X1009549Y583941D01*
X1009598Y583858D01*
X1009646Y583761D01*
X1009702Y583643D01*
X1009750Y583504D01*
X1009792Y583352D01*
Y583345D01*
X1009799Y583331D01*
Y583310D01*
X1009806Y583275D01*
X1009813Y583234D01*
X1009827Y583185D01*
X1009834Y583130D01*
X1009840Y583067D01*
X1009854Y582998D01*
X1009861Y582915D01*
X1009882Y582742D01*
X1009889Y582540D01*
X1009896Y582318D01*
Y579885D01*
X1003496D01*
Y582402D01*
X1003503Y582464D01*
Y582540D01*
X1003510Y582617D01*
X1003523Y582707D01*
X1003544Y582887D01*
X1003579Y583088D01*
X1003627Y583275D01*
X1003697Y583456D01*
Y583463D01*
X1003704Y583476D01*
X1003717Y583497D01*
X1003731Y583532D01*
X1003780Y583608D01*
X1003842Y583712D01*
X1003926Y583823D01*
X1004030Y583934D01*
X1004154Y584045D01*
X1004293Y584149D01*
X1004300D01*
X1004314Y584163D01*
X1004335Y584170D01*
X1004362Y584191D01*
X1004397Y584212D01*
X1004446Y584232D01*
X1004550Y584281D01*
X1004674Y584323D01*
X1004820Y584364D01*
X1004973Y584392D01*
X1005139Y584406D01*
X1005146D01*
X1005160D01*
X1005181D01*
X1005208D01*
X1005285Y584392D01*
X1005389Y584378D01*
X1005507Y584350D01*
X1005638Y584309D01*
X1005770Y584253D01*
X1005909Y584177D01*
X1005916D01*
X1005923Y584170D01*
X1005943Y584156D01*
X1005971Y584135D01*
X1006033Y584087D01*
X1006117Y584010D01*
X1006207Y583920D01*
X1006304Y583802D01*
X1006401Y583671D01*
X1006491Y583511D01*
Y583518D01*
X1006498Y583539D01*
X1006512Y583567D01*
X1006526Y583608D01*
X1006547Y583657D01*
X1006568Y583712D01*
X1006630Y583837D01*
X1006706Y583983D01*
X1006810Y584128D01*
X1006928Y584274D01*
X1007074Y584399D01*
X1007081Y584406D01*
X1007094Y584413D01*
X1007115Y584426D01*
X1007143Y584447D01*
X1007185Y584475D01*
X1007233Y584503D01*
X1007289Y584530D01*
X1007351Y584558D01*
X1007490Y584614D01*
X1007656Y584669D01*
X1007843Y584704D01*
X1007941Y584718D01*
X1008045D01*
X1008051D01*
X1008065D01*
X1008086D01*
X1008121D01*
X1008162Y584711D01*
D02*
G37*
G36*
X1007913Y578865D02*
X1007961Y578851D01*
X1008037Y578824D01*
X1008121Y578796D01*
X1008225Y578754D01*
X1008336Y578713D01*
X1008454Y578657D01*
X1008585Y578595D01*
X1008710Y578526D01*
X1008849Y578449D01*
X1008981Y578359D01*
X1009105Y578262D01*
X1009230Y578158D01*
X1009348Y578040D01*
X1009459Y577915D01*
X1009466Y577908D01*
X1009480Y577881D01*
X1009508Y577846D01*
X1009542Y577790D01*
X1009584Y577728D01*
X1009632Y577645D01*
X1009681Y577555D01*
X1009730Y577444D01*
X1009778Y577326D01*
X1009827Y577201D01*
X1009875Y577062D01*
X1009917Y576910D01*
X1009951Y576750D01*
X1009979Y576584D01*
X1009993Y576411D01*
X1010000Y576223D01*
Y576126D01*
X1009993Y576050D01*
X1009986Y575967D01*
X1009979Y575863D01*
X1009965Y575752D01*
X1009944Y575627D01*
X1009924Y575495D01*
X1009896Y575357D01*
X1009861Y575218D01*
X1009827Y575079D01*
X1009778Y574934D01*
X1009723Y574795D01*
X1009660Y574663D01*
X1009584Y574538D01*
X1009577Y574531D01*
X1009563Y574511D01*
X1009542Y574476D01*
X1009508Y574434D01*
X1009459Y574379D01*
X1009410Y574316D01*
X1009348Y574247D01*
X1009272Y574171D01*
X1009189Y574095D01*
X1009099Y574011D01*
X1009001Y573935D01*
X1008890Y573852D01*
X1008773Y573769D01*
X1008648Y573692D01*
X1008509Y573623D01*
X1008363Y573554D01*
X1008356Y573547D01*
X1008329Y573540D01*
X1008280Y573526D01*
X1008225Y573505D01*
X1008148Y573477D01*
X1008065Y573450D01*
X1007961Y573422D01*
X1007850Y573387D01*
X1007726Y573359D01*
X1007594Y573325D01*
X1007455Y573297D01*
X1007302Y573276D01*
X1006983Y573235D01*
X1006817Y573228D01*
X1006651Y573221D01*
X1006637D01*
X1006609D01*
X1006554D01*
X1006484Y573228D01*
X1006394Y573235D01*
X1006290Y573242D01*
X1006179Y573256D01*
X1006054Y573269D01*
X1005923Y573290D01*
X1005784Y573311D01*
X1005486Y573380D01*
X1005340Y573429D01*
X1005194Y573477D01*
X1005042Y573533D01*
X1004903Y573602D01*
X1004896Y573609D01*
X1004869Y573623D01*
X1004834Y573644D01*
X1004779Y573671D01*
X1004716Y573713D01*
X1004647Y573762D01*
X1004570Y573817D01*
X1004480Y573880D01*
X1004397Y573956D01*
X1004300Y574032D01*
X1004210Y574122D01*
X1004113Y574219D01*
X1004023Y574323D01*
X1003932Y574434D01*
X1003849Y574559D01*
X1003773Y574684D01*
X1003766Y574691D01*
X1003759Y574719D01*
X1003738Y574753D01*
X1003711Y574809D01*
X1003683Y574871D01*
X1003648Y574954D01*
X1003614Y575045D01*
X1003579Y575142D01*
X1003544Y575252D01*
X1003510Y575377D01*
X1003475Y575502D01*
X1003447Y575641D01*
X1003399Y575925D01*
X1003392Y576078D01*
X1003385Y576237D01*
Y576327D01*
X1003392Y576397D01*
X1003399Y576480D01*
X1003412Y576577D01*
X1003426Y576681D01*
X1003447Y576799D01*
X1003475Y576924D01*
X1003503Y577055D01*
X1003544Y577187D01*
X1003593Y577326D01*
X1003648Y577465D01*
X1003717Y577596D01*
X1003787Y577728D01*
X1003877Y577853D01*
X1003884Y577860D01*
X1003898Y577881D01*
X1003926Y577915D01*
X1003967Y577957D01*
X1004016Y578012D01*
X1004078Y578075D01*
X1004147Y578137D01*
X1004231Y578213D01*
X1004321Y578290D01*
X1004425Y578366D01*
X1004536Y578442D01*
X1004661Y578512D01*
X1004792Y578588D01*
X1004938Y578650D01*
X1005090Y578713D01*
X1005250Y578768D01*
X1005444Y577936D01*
X1005437D01*
X1005416Y577922D01*
X1005375Y577915D01*
X1005326Y577895D01*
X1005271Y577874D01*
X1005208Y577839D01*
X1005056Y577770D01*
X1004889Y577679D01*
X1004716Y577562D01*
X1004557Y577437D01*
X1004487Y577360D01*
X1004425Y577284D01*
X1004418Y577277D01*
X1004411Y577263D01*
X1004397Y577243D01*
X1004376Y577208D01*
X1004349Y577166D01*
X1004321Y577118D01*
X1004293Y577062D01*
X1004265Y576993D01*
X1004238Y576917D01*
X1004210Y576841D01*
X1004154Y576660D01*
X1004120Y576452D01*
X1004106Y576341D01*
Y576154D01*
X1004113Y576099D01*
X1004120Y576036D01*
X1004127Y575960D01*
X1004134Y575877D01*
X1004147Y575793D01*
X1004196Y575592D01*
X1004258Y575384D01*
X1004300Y575280D01*
X1004349Y575176D01*
X1004404Y575079D01*
X1004466Y574982D01*
X1004473Y574975D01*
X1004480Y574961D01*
X1004501Y574934D01*
X1004529Y574899D01*
X1004564Y574864D01*
X1004612Y574816D01*
X1004661Y574767D01*
X1004716Y574712D01*
X1004785Y574656D01*
X1004855Y574594D01*
X1005014Y574483D01*
X1005201Y574379D01*
X1005416Y574289D01*
X1005423D01*
X1005444Y574282D01*
X1005479Y574268D01*
X1005520Y574261D01*
X1005576Y574247D01*
X1005638Y574226D01*
X1005715Y574212D01*
X1005791Y574192D01*
X1005881Y574171D01*
X1005978Y574157D01*
X1006186Y574122D01*
X1006408Y574101D01*
X1006644Y574095D01*
X1006651D01*
X1006678D01*
X1006720D01*
X1006782Y574101D01*
X1006852D01*
X1006935Y574108D01*
X1007025Y574115D01*
X1007129Y574122D01*
X1007240Y574136D01*
X1007351Y574150D01*
X1007594Y574192D01*
X1007836Y574254D01*
X1008072Y574330D01*
X1008079D01*
X1008100Y574344D01*
X1008128Y574358D01*
X1008169Y574372D01*
X1008225Y574400D01*
X1008280Y574434D01*
X1008412Y574511D01*
X1008565Y574615D01*
X1008710Y574739D01*
X1008856Y574892D01*
X1008918Y574975D01*
X1008981Y575065D01*
Y575072D01*
X1008995Y575086D01*
X1009008Y575114D01*
X1009029Y575155D01*
X1009050Y575204D01*
X1009078Y575260D01*
X1009099Y575322D01*
X1009126Y575391D01*
X1009182Y575551D01*
X1009230Y575738D01*
X1009265Y575939D01*
X1009272Y576043D01*
X1009279Y576154D01*
Y576223D01*
X1009272Y576272D01*
X1009265Y576334D01*
X1009258Y576404D01*
X1009244Y576487D01*
X1009230Y576570D01*
X1009182Y576764D01*
X1009147Y576861D01*
X1009105Y576965D01*
X1009057Y577069D01*
X1009001Y577166D01*
X1008939Y577263D01*
X1008870Y577360D01*
X1008863Y577368D01*
X1008849Y577381D01*
X1008828Y577409D01*
X1008793Y577444D01*
X1008752Y577478D01*
X1008696Y577527D01*
X1008634Y577575D01*
X1008565Y577631D01*
X1008481Y577686D01*
X1008391Y577742D01*
X1008294Y577797D01*
X1008183Y577853D01*
X1008065Y577901D01*
X1007934Y577950D01*
X1007795Y577999D01*
X1007649Y578033D01*
X1007864Y578879D01*
X1007878D01*
X1007913Y578865D01*
D02*
G37*
G36*
X1005493Y572382D02*
X1005562Y572375D01*
X1005638Y572361D01*
X1005728Y572347D01*
X1005833Y572326D01*
X1005937Y572299D01*
X1006047Y572264D01*
X1006158Y572222D01*
X1006276Y572167D01*
X1006394Y572111D01*
X1006512Y572042D01*
X1006623Y571959D01*
X1006734Y571869D01*
X1006741Y571862D01*
X1006755Y571841D01*
X1006782Y571813D01*
X1006824Y571765D01*
X1006866Y571709D01*
X1006914Y571633D01*
X1006963Y571543D01*
X1007011Y571439D01*
X1007067Y571314D01*
X1007115Y571182D01*
X1007164Y571023D01*
X1007205Y570856D01*
X1007240Y570662D01*
X1007268Y570454D01*
X1007289Y570232D01*
X1007296Y569983D01*
Y568346D01*
X1009896D01*
Y567500D01*
X1003496D01*
Y570135D01*
X1003503Y570274D01*
X1003510Y570433D01*
X1003523Y570593D01*
X1003537Y570745D01*
X1003544Y570822D01*
X1003558Y570884D01*
Y570891D01*
X1003565Y570905D01*
Y570933D01*
X1003572Y570960D01*
X1003586Y571002D01*
X1003593Y571050D01*
X1003627Y571161D01*
X1003669Y571286D01*
X1003725Y571418D01*
X1003787Y571550D01*
X1003863Y571674D01*
Y571681D01*
X1003870Y571688D01*
X1003905Y571730D01*
X1003953Y571785D01*
X1004023Y571862D01*
X1004106Y571938D01*
X1004217Y572028D01*
X1004335Y572111D01*
X1004480Y572188D01*
X1004487D01*
X1004501Y572195D01*
X1004522Y572208D01*
X1004550Y572222D01*
X1004584Y572236D01*
X1004633Y572250D01*
X1004737Y572292D01*
X1004869Y572326D01*
X1005014Y572361D01*
X1005181Y572382D01*
X1005354Y572389D01*
X1005361D01*
X1005389D01*
X1005430D01*
X1005493Y572382D01*
D02*
G37*
%LPC*%
G36*
X1006651Y598746D02*
X1006637D01*
X1006609D01*
X1006554D01*
X1006484Y598739D01*
X1006401D01*
X1006304Y598732D01*
X1006200Y598718D01*
X1006082Y598704D01*
X1005833Y598662D01*
X1005576Y598607D01*
X1005333Y598524D01*
X1005215Y598468D01*
X1005111Y598413D01*
X1005104Y598406D01*
X1005090Y598399D01*
X1005063Y598378D01*
X1005021Y598350D01*
X1004979Y598323D01*
X1004931Y598281D01*
X1004820Y598191D01*
X1004695Y598073D01*
X1004577Y597934D01*
X1004466Y597782D01*
X1004425Y597699D01*
X1004383Y597608D01*
Y597602D01*
X1004376Y597594D01*
X1004369Y597574D01*
X1004362Y597546D01*
X1004355Y597504D01*
X1004342Y597463D01*
X1004328Y597407D01*
X1004314Y597345D01*
X1004307Y597276D01*
X1004293Y597192D01*
X1004279Y597102D01*
X1004272Y597005D01*
X1004265Y596894D01*
X1004258Y596776D01*
X1004251Y596651D01*
Y595174D01*
X1009140D01*
Y596645D01*
X1009133Y596700D01*
Y596762D01*
X1009126Y596901D01*
X1009112Y597061D01*
X1009091Y597227D01*
X1009064Y597387D01*
X1009029Y597532D01*
Y597539D01*
X1009022Y597546D01*
X1009015Y597567D01*
X1009008Y597594D01*
X1008981Y597657D01*
X1008946Y597740D01*
X1008897Y597830D01*
X1008842Y597927D01*
X1008773Y598024D01*
X1008696Y598108D01*
X1008689Y598115D01*
X1008682Y598121D01*
X1008641Y598156D01*
X1008571Y598212D01*
X1008481Y598281D01*
X1008363Y598350D01*
X1008225Y598427D01*
X1008065Y598503D01*
X1007885Y598572D01*
X1007878D01*
X1007864Y598579D01*
X1007836Y598586D01*
X1007795Y598600D01*
X1007746Y598614D01*
X1007684Y598628D01*
X1007615Y598642D01*
X1007538Y598662D01*
X1007455Y598676D01*
X1007358Y598690D01*
X1007261Y598704D01*
X1007150Y598718D01*
X1006914Y598739D01*
X1006651Y598746D01*
D02*
G37*
G36*
X1008045Y583844D02*
X1008037D01*
X1008031D01*
X1008010D01*
X1007982D01*
X1007920Y583837D01*
X1007830Y583823D01*
X1007732Y583796D01*
X1007628Y583768D01*
X1007524Y583719D01*
X1007420Y583657D01*
X1007406Y583650D01*
X1007379Y583622D01*
X1007330Y583581D01*
X1007275Y583525D01*
X1007212Y583449D01*
X1007157Y583359D01*
X1007101Y583261D01*
X1007053Y583144D01*
Y583137D01*
X1007046Y583130D01*
X1007039Y583109D01*
X1007032Y583081D01*
X1007025Y583047D01*
X1007018Y583012D01*
X1007004Y582963D01*
X1006997Y582908D01*
X1006983Y582839D01*
X1006977Y582769D01*
X1006970Y582693D01*
X1006956Y582610D01*
X1006949Y582422D01*
X1006942Y582207D01*
Y580731D01*
X1009140D01*
Y582464D01*
X1009133Y582554D01*
Y582644D01*
X1009126Y582742D01*
X1009119Y582832D01*
X1009112Y582901D01*
Y582915D01*
X1009105Y582949D01*
X1009091Y583005D01*
X1009071Y583074D01*
X1009050Y583151D01*
X1009015Y583227D01*
X1008981Y583310D01*
X1008939Y583386D01*
X1008932Y583393D01*
X1008918Y583421D01*
X1008890Y583456D01*
X1008849Y583504D01*
X1008800Y583553D01*
X1008738Y583608D01*
X1008669Y583664D01*
X1008585Y583712D01*
X1008571Y583719D01*
X1008544Y583733D01*
X1008495Y583754D01*
X1008426Y583782D01*
X1008350Y583802D01*
X1008259Y583823D01*
X1008155Y583837D01*
X1008045Y583844D01*
D02*
G37*
G36*
X1005236Y583574D02*
X1005229D01*
X1005222D01*
X1005181D01*
X1005125Y583567D01*
X1005049Y583553D01*
X1004959Y583532D01*
X1004862Y583504D01*
X1004765Y583470D01*
X1004674Y583414D01*
X1004661Y583407D01*
X1004633Y583386D01*
X1004591Y583352D01*
X1004543Y583303D01*
X1004487Y583241D01*
X1004432Y583164D01*
X1004383Y583081D01*
X1004342Y582977D01*
X1004335Y582963D01*
Y582949D01*
X1004328Y582922D01*
X1004321Y582894D01*
X1004314Y582852D01*
X1004307Y582804D01*
X1004293Y582755D01*
X1004286Y582693D01*
X1004279Y582617D01*
X1004272Y582540D01*
X1004265Y582450D01*
X1004258Y582353D01*
Y582249D01*
X1004251Y582131D01*
Y580731D01*
X1006186D01*
Y582249D01*
X1006179Y582305D01*
Y582422D01*
X1006172Y582554D01*
X1006158Y582693D01*
X1006138Y582818D01*
X1006131Y582873D01*
X1006117Y582922D01*
Y582929D01*
X1006110Y582936D01*
X1006096Y582977D01*
X1006075Y583033D01*
X1006040Y583102D01*
X1005999Y583178D01*
X1005943Y583261D01*
X1005874Y583338D01*
X1005798Y583407D01*
X1005784Y583414D01*
X1005756Y583435D01*
X1005708Y583463D01*
X1005645Y583490D01*
X1005562Y583518D01*
X1005465Y583546D01*
X1005361Y583567D01*
X1005236Y583574D01*
D02*
G37*
G36*
X1005375Y571515D02*
X1005368D01*
X1005354D01*
X1005333D01*
X1005305D01*
X1005229Y571501D01*
X1005139Y571487D01*
X1005028Y571466D01*
X1004917Y571425D01*
X1004799Y571376D01*
X1004688Y571307D01*
X1004674Y571300D01*
X1004640Y571272D01*
X1004591Y571224D01*
X1004536Y571168D01*
X1004473Y571085D01*
X1004411Y570995D01*
X1004355Y570891D01*
X1004314Y570773D01*
Y570766D01*
X1004307Y570731D01*
X1004293Y570676D01*
X1004279Y570593D01*
Y570544D01*
X1004272Y570489D01*
X1004265Y570419D01*
X1004258Y570350D01*
Y570267D01*
X1004251Y570184D01*
Y568346D01*
X1006540D01*
Y570073D01*
X1006533Y570128D01*
Y570197D01*
X1006526Y570274D01*
X1006512Y570364D01*
X1006498Y570454D01*
X1006463Y570648D01*
X1006408Y570842D01*
X1006373Y570933D01*
X1006332Y571016D01*
X1006290Y571099D01*
X1006235Y571168D01*
X1006228Y571175D01*
X1006221Y571182D01*
X1006200Y571203D01*
X1006179Y571224D01*
X1006110Y571279D01*
X1006013Y571342D01*
X1005888Y571404D01*
X1005742Y571460D01*
X1005569Y571501D01*
X1005479Y571508D01*
X1005375Y571515D01*
D02*
G37*
%LPD*%
D12*
X879480Y1102500D02*
Y1196500D01*
Y1102500D02*
X1023480D01*
Y1196500D01*
X879480D02*
X1023480D01*
D13*
X21591Y527050D02*
X105411D01*
Y461010D02*
Y527050D01*
X21591Y461010D02*
X105411D01*
X21591D02*
Y527050D01*
X611970Y241400D02*
X685970D01*
Y317400D01*
X611970Y241400D02*
Y317400D01*
X685970D01*
X71099Y553000D02*
Y627000D01*
Y553000D02*
X579499D01*
X71099Y627000D02*
X579499D01*
Y553000D02*
Y627000D01*
X135600Y272610D02*
X209600D01*
X135600Y145810D02*
Y272610D01*
X209600Y145810D02*
Y272610D01*
X135600Y145810D02*
X209600D01*
X1012000Y552500D02*
Y627500D01*
D18*
X408556Y674055D02*
D03*
X318556D02*
D03*
X173565Y674056D02*
D03*
D266*
X981991Y673550D02*
Y678630D01*
X984531Y676090D01*
X981991Y673550D02*
X984531Y676090D01*
X265499Y205933D02*
Y209525D01*
X261907D02*
X265499D01*
X261907D02*
X265499Y205933D01*
X286499D02*
Y209525D01*
X282907D02*
X286499D01*
X282907D02*
X286499Y205933D01*
X307499D02*
Y209525D01*
X303907D02*
X307499D01*
X303907D02*
X307499Y205933D01*
X328499D02*
Y209525D01*
X324907D02*
X328499D01*
X324907D02*
X328499Y205933D01*
X349499D02*
Y209525D01*
X345907D02*
X349499D01*
X345907D02*
X349499Y205933D01*
X366907Y209525D02*
X370499Y205933D01*
X366907Y209525D02*
X370499D01*
Y205933D02*
Y209525D01*
X391499Y205933D02*
Y209525D01*
X387907D02*
X391499D01*
X387907D02*
X391499Y205933D01*
X412499D02*
Y209525D01*
X408907D02*
X412499D01*
X408907D02*
X412499Y205933D01*
X433499D02*
Y209525D01*
X429907D02*
X433499D01*
X429907D02*
X433499Y205933D01*
X454499D02*
Y209525D01*
X450907D02*
X454499D01*
X450907D02*
X454499Y205933D01*
X475499D02*
Y209525D01*
X471907D02*
X475499D01*
X471907D02*
X475499Y205933D01*
X496499D02*
Y209525D01*
X492907D02*
X496499D01*
X492907D02*
X496499Y205933D01*
X517499D02*
Y209525D01*
X513907D02*
X517499D01*
X513907D02*
X517499Y205933D01*
X265499Y184933D02*
Y188525D01*
X261907D02*
X265499D01*
X261907D02*
X265499Y184933D01*
X286499D02*
Y188525D01*
X282907D02*
X286499D01*
X282907D02*
X286499Y184933D01*
X307499D02*
Y188525D01*
X303907D02*
X307499D01*
X303907D02*
X307499Y184933D01*
X328499D02*
Y188525D01*
X324907D02*
X328499D01*
X324907D02*
X328499Y184933D01*
X349499D02*
Y188525D01*
X345907D02*
X349499D01*
X345907D02*
X349499Y184933D01*
X370499D02*
Y188525D01*
X366907D02*
X370499D01*
X366907D02*
X370499Y184933D01*
X391499D02*
Y188525D01*
X387907D02*
X391499D01*
X387907D02*
X391499Y184933D01*
X412499D02*
Y188525D01*
X408907D02*
X412499D01*
X408907D02*
X412499Y184933D01*
X433499D02*
Y188525D01*
X429907D02*
X433499D01*
X429907D02*
X433499Y184933D01*
X454499D02*
Y188525D01*
X450907D02*
X454499D01*
X450907D02*
X454499Y184933D01*
X475499D02*
Y188525D01*
X471907D02*
X475499D01*
X471907D02*
X475499Y184933D01*
X496499D02*
Y188525D01*
X492907D02*
X496499D01*
X492907D02*
X496499Y184933D01*
X517499D02*
Y188525D01*
X513907D02*
X517499D01*
X513907D02*
X517499Y184933D01*
X265499Y163933D02*
Y167525D01*
X261907D02*
X265499D01*
X261907D02*
X265499Y163933D01*
X286499D02*
Y167525D01*
X282907D02*
X286499D01*
X282907D02*
X286499Y163933D01*
X307499D02*
Y167525D01*
X303907D02*
X307499D01*
X303907D02*
X307499Y163933D01*
X328499D02*
Y167525D01*
X324907D02*
X328499D01*
X324907D02*
X328499Y163933D01*
X349499D02*
Y167525D01*
X345907D02*
X349499D01*
X345907D02*
X349499Y163933D01*
X370499D02*
Y167525D01*
X366907D02*
X370499D01*
X366907D02*
X370499Y163933D01*
X391499D02*
Y167525D01*
X387907D02*
X391499D01*
X387907D02*
X391499Y163933D01*
X412499D02*
Y167525D01*
X408907D02*
X412499D01*
X408907D02*
X412499Y163933D01*
X433499D02*
Y167525D01*
X429907D02*
X433499D01*
X429907D02*
X433499Y163933D01*
X454499D02*
Y167525D01*
X450907D02*
X454499D01*
X450907D02*
X454499Y163933D01*
X475499D02*
Y167525D01*
X471907D02*
X475499D01*
X471907D02*
X475499Y163933D01*
X496499D02*
Y167525D01*
X492907D02*
X496499D01*
X492907D02*
X496499Y163933D01*
X517499D02*
Y167525D01*
X513907D02*
X517499D01*
X513907D02*
X517499Y163933D01*
X261907Y146525D02*
X265499Y142933D01*
X261907Y146525D02*
X265499D01*
Y142933D02*
Y146525D01*
X286499Y142933D02*
Y146525D01*
X282907D02*
X286499D01*
X282907D02*
X286499Y142933D01*
X307499D02*
Y146525D01*
X303907D02*
X307499D01*
X303907D02*
X307499Y142933D01*
X328499D02*
Y146525D01*
X324907D02*
X328499D01*
X324907D02*
X328499Y142933D01*
X349499D02*
Y146525D01*
X345907D02*
X349499D01*
X345907D02*
X349499Y142933D01*
X370499D02*
Y146525D01*
X366907D02*
X370499D01*
X366907D02*
X370499Y142933D01*
X391499D02*
Y146525D01*
X387907D02*
X391499D01*
X387907D02*
X391499Y142933D01*
X412499D02*
Y146525D01*
X408907D02*
X412499D01*
X408907D02*
X412499Y142933D01*
X433499D02*
Y146525D01*
X429907D02*
X433499D01*
X429907D02*
X433499Y142933D01*
X454499D02*
Y146525D01*
X450907D02*
X454499D01*
X450907D02*
X454499Y142933D01*
X475499D02*
Y146525D01*
X471907D02*
X475499D01*
X471907D02*
X475499Y142933D01*
X492907Y146525D02*
X496499Y142933D01*
X492907Y146525D02*
X496499D01*
Y142933D02*
Y146525D01*
X517499Y142933D02*
Y146525D01*
X513907D02*
X517499D01*
X513907D02*
X517499Y142933D01*
X265499Y121933D02*
Y125525D01*
X261907D02*
X265499D01*
X261907D02*
X265499Y121933D01*
X286499D02*
Y125525D01*
X282907D02*
X286499D01*
X282907D02*
X286499Y121933D01*
X307499D02*
Y125525D01*
X303907D02*
X307499D01*
X303907D02*
X307499Y121933D01*
X328499D02*
Y125525D01*
X324907D02*
X328499D01*
X324907D02*
X328499Y121933D01*
X349499D02*
Y125525D01*
X345907D02*
X349499D01*
X345907D02*
X349499Y121933D01*
X370499D02*
Y125525D01*
X366907D02*
X370499D01*
X366907D02*
X370499Y121933D01*
X391499D02*
Y125525D01*
X387907D02*
X391499D01*
X387907D02*
X391499Y121933D01*
X412499D02*
Y125525D01*
X408907D02*
X412499D01*
X408907D02*
X412499Y121933D01*
X433499D02*
Y125525D01*
X429907D02*
X433499D01*
X429907D02*
X433499Y121933D01*
X454499D02*
Y125525D01*
X450907D02*
X454499D01*
X450907D02*
X454499Y121933D01*
X475499D02*
Y125525D01*
X471907D02*
X475499D01*
X471907D02*
X475499Y121933D01*
X496499D02*
Y125525D01*
X492907D02*
X496499D01*
X492907D02*
X496499Y121933D01*
X517499D02*
Y125525D01*
X513907D02*
X517499D01*
X513907D02*
X517499Y121933D01*
X265499Y100933D02*
Y104525D01*
X261907D02*
X265499D01*
X261907D02*
X265499Y100933D01*
X286499D02*
Y104525D01*
X282907D02*
X286499D01*
X282907D02*
X286499Y100933D01*
X307499D02*
Y104525D01*
X303907D02*
X307499D01*
X303907D02*
X307499Y100933D01*
X324907Y104525D02*
X328499Y100933D01*
X324907Y104525D02*
X328499D01*
Y100933D02*
Y104525D01*
X349499Y100933D02*
Y104525D01*
X345907D02*
X349499D01*
X345907D02*
X349499Y100933D01*
X370499D02*
Y104525D01*
X366907D02*
X370499D01*
X366907D02*
X370499Y100933D01*
X391499D02*
Y104525D01*
X387907D02*
X391499D01*
X387907D02*
X391499Y100933D01*
X412499D02*
Y104525D01*
X408907D02*
X412499D01*
X408907D02*
X412499Y100933D01*
X429907Y104525D02*
X433499Y100933D01*
X429907Y104525D02*
X433499D01*
Y100933D02*
Y104525D01*
X454499Y100933D02*
Y104525D01*
X450907D02*
X454499D01*
X450907D02*
X454499Y100933D01*
X475499D02*
Y104525D01*
X471907D02*
X475499D01*
X471907D02*
X475499Y100933D01*
X496499D02*
Y104525D01*
X492907D02*
X496499D01*
X492907D02*
X496499Y100933D01*
X517499D02*
Y104525D01*
X513907D02*
X517499D01*
X513907D02*
X517499Y100933D01*
X265499Y79933D02*
Y83525D01*
X261907D02*
X265499D01*
X261907D02*
X265499Y79933D01*
X286499D02*
Y83525D01*
X282907D02*
X286499D01*
X282907D02*
X286499Y79933D01*
X307499D02*
Y83525D01*
X303907D02*
X307499D01*
X303907D02*
X307499Y79933D01*
X328499D02*
Y83525D01*
X324907D02*
X328499D01*
X324907D02*
X328499Y79933D01*
X349499D02*
Y83525D01*
X345907D02*
X349499D01*
X345907D02*
X349499Y79933D01*
X370499D02*
Y83525D01*
X366907D02*
X370499D01*
X366907D02*
X370499Y79933D01*
X391499D02*
Y83525D01*
X387907D02*
X391499D01*
X387907D02*
X391499Y79933D01*
X412499D02*
Y83525D01*
X408907D02*
X412499D01*
X408907D02*
X412499Y79933D01*
X429907Y83525D02*
X433499Y79933D01*
X429907Y83525D02*
X433499D01*
Y79933D02*
Y83525D01*
X454499Y79933D02*
Y83525D01*
X450907D02*
X454499D01*
X450907D02*
X454499Y79933D01*
X475499D02*
Y83525D01*
X471907D02*
X475499D01*
X471907D02*
X475499Y79933D01*
X496499D02*
Y83525D01*
X492907D02*
X496499D01*
X492907D02*
X496499Y79933D01*
X517499D02*
Y83525D01*
X513907D02*
X517499D01*
X513907D02*
X517499Y79933D01*
X265499Y58933D02*
Y62525D01*
X261907D02*
X265499D01*
X261907D02*
X265499Y58933D01*
X286499D02*
Y62525D01*
X282907D02*
X286499D01*
X282907D02*
X286499Y58933D01*
X307499D02*
Y62525D01*
X303907D02*
X307499D01*
X303907D02*
X307499Y58933D01*
X328499D02*
Y62525D01*
X324907D02*
X328499D01*
X324907D02*
X328499Y58933D01*
X349499D02*
Y62525D01*
X345907D02*
X349499D01*
X345907D02*
X349499Y58933D01*
X370499D02*
Y62525D01*
X366907D02*
X370499D01*
X366907D02*
X370499Y58933D01*
X387907Y62525D02*
X391499Y58933D01*
X387907Y62525D02*
X391499D01*
Y58933D02*
Y62525D01*
X412499Y58933D02*
Y62525D01*
X408907D02*
X412499D01*
X408907D02*
X412499Y58933D01*
X433499D02*
Y62525D01*
X429907D02*
X433499D01*
X429907D02*
X433499Y58933D01*
X454499D02*
Y62525D01*
X450907D02*
X454499D01*
X450907D02*
X454499Y58933D01*
X475499D02*
Y62525D01*
X471907D02*
X475499D01*
X471907D02*
X475499Y58933D01*
X496499D02*
Y62525D01*
X492907D02*
X496499D01*
X492907D02*
X496499Y58933D01*
X517499D02*
Y62525D01*
X513907D02*
X517499D01*
X513907D02*
X517499Y58933D01*
X706000Y140001D02*
Y163999D01*
X674000Y140001D02*
X706000D01*
X674000Y163999D02*
X706000D01*
X674000Y140001D02*
Y163999D01*
X742914Y401491D02*
Y425489D01*
X710915Y401491D02*
X742914D01*
X710915Y425489D02*
X742914D01*
X710915Y401491D02*
Y425489D01*
X981991Y656550D02*
X984531Y659090D01*
X981991Y661630D02*
X984531Y659090D01*
X981991Y656550D02*
Y661630D01*
D269*
X563831Y193290D02*
X585831D01*
X563831Y179290D02*
X585831D01*
Y193290D01*
X563831Y179290D02*
Y193290D01*
X1022001Y84500D02*
Y262500D01*
X780001Y84500D02*
X1022001D01*
X780001D02*
Y262500D01*
X1022001D01*
X672821Y1383911D02*
X762821D01*
X672821Y1418911D02*
X762821D01*
X672821Y1383911D02*
Y1418911D01*
X762821Y1383911D02*
Y1418911D01*
X700164Y374240D02*
X791665D01*
X700164Y282740D02*
X791665D01*
Y374240D01*
X700164Y282740D02*
Y374240D01*
X810500Y790150D02*
X871500Y790150D01*
X810500Y759150D02*
X871500D01*
Y790150D01*
X810500Y790150D02*
X810500Y759150D01*
X61150Y855516D02*
X74150D01*
X61150Y838516D02*
X74150D01*
X61150Y855516D02*
X61150Y838516D01*
X74150D02*
X74150Y855516D01*
X166989Y1325242D02*
X166989Y1295742D01*
X150489Y1295742D02*
Y1325242D01*
Y1295742D02*
X166989Y1295742D01*
X150489Y1325242D02*
X166989D01*
X387245Y1598750D02*
X540245D01*
X387245Y1593750D02*
X540245D01*
X387245Y1541750D02*
Y1598750D01*
Y1541750D02*
X540245D01*
Y1598750D01*
X234160Y99570D02*
Y122430D01*
X213840D02*
X234160D01*
X213840Y99570D02*
Y122430D01*
Y99570D02*
X234160D01*
X31250Y1293900D02*
X48750Y1293900D01*
X31250Y1324400D02*
X48750Y1324400D01*
X48750Y1293900D02*
X48750Y1324400D01*
X31250Y1293900D02*
X31250Y1324400D01*
X189175Y2865D02*
X212425D01*
X189175D02*
Y52115D01*
X212425Y2865D02*
X249175D01*
Y52115D01*
X189175D02*
X219175D01*
X249175D01*
X163745Y1527790D02*
X188745D01*
X163745Y1517790D02*
X188745D01*
X163745D02*
Y1527790D01*
X188745Y1517790D02*
Y1527790D01*
X179700Y133300D02*
X179700Y115700D01*
X189300D01*
X189300Y133300D02*
X189300Y115700D01*
X179700Y133300D02*
X189300D01*
X729810Y42590D02*
Y112590D01*
X659810Y42590D02*
Y112590D01*
Y42590D02*
X729810D01*
X659810Y112590D02*
X729810D01*
X168500Y895155D02*
Y964155D01*
X99500Y895155D02*
Y964155D01*
Y895155D02*
X168500D01*
X99500Y964155D02*
X168500D01*
X712310Y204590D02*
X712310Y220590D01*
X733310Y204590D02*
Y220590D01*
X712310Y204590D02*
X733310D01*
X712310Y220590D02*
X733310D01*
X29650Y778190D02*
X49650D01*
X29650Y798190D02*
X49650D01*
Y778190D02*
Y798190D01*
X29650Y778190D02*
Y798190D01*
X776321Y796860D02*
Y1371860D01*
X201321Y796860D02*
Y1371860D01*
Y796860D02*
X776321D01*
X201321Y1371860D02*
X776321D01*
X231871Y232247D02*
X318231D01*
X231871Y451247D02*
X318231D01*
Y232247D02*
Y451247D01*
X231871Y232247D02*
Y451247D01*
X721060Y227590D02*
Y249590D01*
X694060Y249590D02*
X694060Y227590D01*
X721060Y227590D01*
X694060Y249590D02*
X721060Y249590D01*
X919000Y823000D02*
X1000000D01*
Y1079000D01*
X919000D02*
X1000000D01*
X919000Y823000D02*
Y1079000D01*
X1007621Y702590D02*
Y791990D01*
X926121Y702590D02*
X1007621D01*
X926121Y791990D02*
X1007621D01*
X926121Y702590D02*
Y791990D01*
X733450Y607300D02*
X768050D01*
X733450Y572700D02*
X768050D01*
Y607300D01*
X733450Y572700D02*
Y607300D01*
X355821Y753489D02*
X385821D01*
X355821Y773489D02*
X385821D01*
X355821Y753489D02*
Y773489D01*
X385821Y753489D02*
Y773489D01*
X172794Y520481D02*
X650220D01*
X172794Y495424D02*
Y520481D01*
Y495424D02*
X650220D01*
Y520481D01*
X264605Y37590D02*
X649809Y37590D01*
Y13124D02*
Y37590D01*
X264587Y13124D02*
X649809D01*
X264587D02*
Y37586D01*
X260245Y1541750D02*
Y1598750D01*
X107245Y1541750D02*
X260245D01*
X107245D02*
Y1598750D01*
Y1593750D02*
X260245D01*
X107245Y1598750D02*
X260245D01*
X667245D02*
X820245D01*
X667245Y1593750D02*
X820245D01*
X667245Y1541750D02*
Y1598750D01*
Y1541750D02*
X820245D01*
Y1598750D01*
X735214Y389690D02*
Y395290D01*
X724615Y389690D02*
X735214D01*
X724615D02*
Y395290D01*
X735214D01*
X440821Y1383907D02*
X530821D01*
X440821Y1418907D02*
X530821D01*
X440821Y1383907D02*
Y1418907D01*
X530821Y1383907D02*
Y1418907D01*
X556821Y1383910D02*
X646821D01*
X556821Y1418910D02*
X646821D01*
X556821Y1383910D02*
Y1418910D01*
X646821Y1383910D02*
Y1418910D01*
X158745Y1517790D02*
Y1527790D01*
X133744Y1517790D02*
Y1527790D01*
Y1517790D02*
X158745D01*
X133744Y1527790D02*
X158745D01*
X718745Y1517790D02*
Y1527790D01*
X693745Y1517790D02*
Y1527790D01*
Y1517790D02*
X718745D01*
X693745Y1527790D02*
X718745D01*
X438745Y1517790D02*
Y1527790D01*
X413745Y1517790D02*
Y1527790D01*
Y1517790D02*
X438745D01*
X413745Y1527790D02*
X438745D01*
X748745Y1517790D02*
Y1527790D01*
X723745Y1517790D02*
Y1527790D01*
Y1517790D02*
X748745D01*
X723745Y1527790D02*
X748745D01*
X468745Y1517790D02*
Y1527790D01*
X443745Y1517790D02*
Y1527790D01*
Y1517790D02*
X468745D01*
X443745Y1527790D02*
X468745D01*
X218745Y1517790D02*
Y1527790D01*
X193745Y1517790D02*
Y1527790D01*
Y1517790D02*
X218745D01*
X193745Y1527790D02*
X218745D01*
X778745Y1517790D02*
Y1527790D01*
X753745Y1517790D02*
Y1527790D01*
Y1517790D02*
X778745D01*
X753745Y1527790D02*
X778745D01*
X498745Y1517790D02*
Y1527790D01*
X473745Y1517790D02*
Y1527790D01*
Y1517790D02*
X498745D01*
X473745Y1527790D02*
X498745D01*
X857524Y642997D02*
X882525D01*
X857524Y652997D02*
X882525D01*
Y642997D02*
Y652997D01*
X857524Y642997D02*
Y652997D01*
X874805Y527000D02*
Y537000D01*
X899805Y527000D02*
Y537000D01*
X874805D02*
X899805D01*
X874805Y527000D02*
X899805D01*
X821525Y642997D02*
Y652997D01*
X846525Y642997D02*
Y652997D01*
X821525D02*
X846525D01*
X821525Y642997D02*
X846525D01*
X200786Y294747D02*
X210786D01*
X200786Y269747D02*
X210786D01*
Y294747D01*
X200786Y269747D02*
Y294747D01*
Y322747D02*
X210786D01*
X200786Y297747D02*
X210786D01*
Y322747D01*
X200786Y297747D02*
Y322747D01*
Y325747D02*
Y350747D01*
X210786Y325747D02*
Y350747D01*
X200786Y325747D02*
X210786D01*
X200786Y350747D02*
X210786D01*
X200786Y378747D02*
X210786D01*
X200786Y353747D02*
X210786D01*
Y378747D01*
X200786Y353747D02*
Y378747D01*
Y406747D02*
X210786D01*
X200786Y381747D02*
X210786D01*
Y406747D01*
X200786Y381747D02*
Y406747D01*
X898446Y686090D02*
Y711090D01*
X908446Y686090D02*
Y711090D01*
X898446Y686090D02*
X908446D01*
X898446Y711090D02*
X908446D01*
X995500Y314750D02*
Y324750D01*
X970500Y314750D02*
Y324750D01*
Y314750D02*
X995500D01*
X970500Y324750D02*
X995500D01*
X941500D02*
X966500D01*
X941500Y314750D02*
X966500D01*
X941500D02*
Y324750D01*
X966500Y314750D02*
Y324750D01*
X825760Y439250D02*
X835760D01*
X825760Y414250D02*
X835760D01*
Y439250D01*
X825760Y414250D02*
Y439250D01*
Y381750D02*
X835760D01*
X825760Y356750D02*
X835760D01*
Y381750D01*
X825760Y356750D02*
Y381750D01*
X201602Y682500D02*
X249602D01*
X201602Y648500D02*
X249602D01*
X201602D02*
Y682500D01*
X249602Y648500D02*
Y682500D01*
X168500Y1037150D02*
Y1106150D01*
X99500Y1037150D02*
Y1106150D01*
Y1037150D02*
X168500D01*
X99500Y1106150D02*
X168500D01*
X99500Y1219150D02*
X168500D01*
X99500Y1150150D02*
X168500D01*
X99500D02*
Y1219150D01*
X168500Y1150150D02*
Y1219150D01*
X132678Y786162D02*
X154678Y786162D01*
X132678Y813162D02*
X154678Y813162D01*
X132678Y786162D02*
X132678Y813162D01*
X154678Y786162D02*
X154678Y813162D01*
X868641Y75900D02*
X868641Y65300D01*
X863041Y75900D02*
X868641D01*
X863041Y65300D02*
X863041Y75900D01*
X863041Y65300D02*
X868641D01*
X24700Y1018850D02*
X35300Y1018850D01*
X35300Y1024450D02*
X35300Y1018850D01*
X24700Y1024450D02*
X35300Y1024450D01*
X24700Y1024450D02*
X24700Y1018850D01*
X9700Y1055850D02*
X20300Y1055850D01*
Y1061450D01*
X9700Y1061450D02*
X20300Y1061450D01*
X9700Y1055850D02*
X9700Y1061450D01*
X9700Y913855D02*
X9700Y919455D01*
X20300Y919455D01*
Y913855D02*
Y919455D01*
X9700Y913855D02*
X20300D01*
X96478Y795112D02*
X96478Y800712D01*
X85878Y795112D02*
X96478D01*
X85878Y800712D02*
X85878Y795112D01*
X85878Y800712D02*
X96478D01*
X703510Y194390D02*
X709110Y194390D01*
X709110Y183790D01*
X703510Y183790D02*
X709110Y183790D01*
X703510Y183790D02*
X703510Y194390D01*
X144000Y1342700D02*
X166000D01*
Y1357300D01*
X144000D02*
X166000D01*
X144000Y1342700D02*
Y1357300D01*
X14150Y1399300D02*
X36150D01*
X14150Y1384700D02*
Y1399300D01*
Y1384700D02*
X36150D01*
Y1399300D01*
X64030Y1323130D02*
X64030Y1332730D01*
X81630D01*
X81630Y1323130D02*
X81630Y1332730D01*
X64030Y1323130D02*
X81630Y1323130D01*
X102439Y1327992D02*
X117039Y1327992D01*
Y1305992D02*
Y1327992D01*
X102439Y1305992D02*
X117039D01*
X102439D02*
Y1327992D01*
X87530Y1422730D02*
X105130Y1422730D01*
X87530Y1413130D02*
Y1422730D01*
Y1413130D02*
X105130Y1413130D01*
X105130Y1422730D01*
X166369Y1428630D02*
Y1439230D01*
X160769Y1439230D02*
X166369Y1439230D01*
X160769Y1428630D02*
Y1439230D01*
Y1428630D02*
X166369D01*
X133039Y1328192D02*
X133039Y1333792D01*
X122439Y1328192D02*
X133039D01*
X122439D02*
Y1333792D01*
X133039Y1333792D01*
X133039Y1300192D02*
X133039Y1305792D01*
X122439Y1300192D02*
X133039Y1300192D01*
X122439Y1300192D02*
Y1305792D01*
X133039D01*
X366999Y678500D02*
X412999D01*
X366999Y652500D02*
X412999D01*
Y678500D01*
X366999Y652500D02*
Y678500D01*
X276999D02*
X322999D01*
X276999Y652500D02*
X322999D01*
Y678500D01*
X276999Y652500D02*
Y678500D01*
X131999D02*
X177999D01*
X131999Y652500D02*
X177999D01*
Y678500D01*
X131999Y652500D02*
Y678500D01*
X128250Y1450830D02*
X145750Y1450830D01*
X128250Y1420330D02*
X145750Y1420330D01*
X128250Y1420330D02*
X128250Y1450830D01*
X145750Y1420330D02*
Y1450830D01*
X109678Y794912D02*
X125678D01*
X109678Y773912D02*
X125678Y773912D01*
X109678Y773912D02*
Y794912D01*
X125678D02*
X125678Y773912D01*
X352407Y234236D02*
Y254236D01*
X332407Y234236D02*
Y254236D01*
Y234236D02*
X352407D01*
X332407Y254236D02*
X352407D01*
X898443Y749790D02*
Y774790D01*
X908443Y749790D02*
Y774790D01*
X898443Y749790D02*
X908443D01*
X898443Y774790D02*
X908443D01*
X898443Y744790D02*
X908443D01*
X898443Y719790D02*
X908443D01*
Y744790D01*
X898443Y719790D02*
Y744790D01*
X460000Y656500D02*
Y674501D01*
X481000Y656500D02*
Y674501D01*
X460000Y656500D02*
X481000D01*
X460000Y674501D02*
X481000D01*
X898446Y782860D02*
Y807860D01*
X908446Y782860D02*
Y807860D01*
X898446Y782860D02*
X908446D01*
X898446Y807860D02*
X908446D01*
X136751Y845790D02*
Y860390D01*
X158751D01*
Y845790D02*
Y860390D01*
X136751Y845790D02*
X158751D01*
X136828Y826112D02*
Y840712D01*
X158828D01*
Y826112D02*
Y840712D01*
X136828Y826112D02*
X158828D01*
X338817Y734231D02*
X355817Y734231D01*
X338817Y721232D02*
X355817D01*
Y734231D01*
X338817Y721232D02*
Y734231D01*
X169102Y717000D02*
X186102D01*
X169102Y704000D02*
X186102D01*
Y717000D01*
X169102Y704000D02*
Y717000D01*
X186102Y743600D02*
Y756600D01*
X169102Y743600D02*
Y756600D01*
X186102D01*
X169102Y743600D02*
X186102D01*
X121364Y1473748D02*
Y1491748D01*
X100365Y1473748D02*
Y1491748D01*
X121364Y1491748D01*
X100365Y1473748D02*
X121364D01*
X460000Y740412D02*
X481000D01*
X460000Y722412D02*
X481000D01*
Y740412D01*
X460000Y722412D02*
Y740412D01*
X509392Y740687D02*
X530392D01*
X509392Y722687D02*
X530392D01*
Y740687D01*
X509392Y722687D02*
Y740687D01*
X102678Y697361D02*
Y717361D01*
X122678Y697361D02*
Y717361D01*
X102678Y697361D02*
X122678Y697361D01*
X102678Y717361D02*
X122678D01*
X9700Y1168200D02*
X20300Y1168200D01*
Y1173800D01*
X9700Y1173800D02*
X20300Y1173800D01*
X9700Y1168200D02*
Y1173800D01*
X377119Y734231D02*
X394119Y734231D01*
X377119Y721232D02*
X394119D01*
Y734231D01*
X377119Y721232D02*
Y734231D01*
X419119Y721232D02*
Y734231D01*
X436119Y721232D02*
Y734231D01*
X419119Y721232D02*
X436119Y721232D01*
X419119Y734231D02*
X436119Y734231D01*
X151340Y99570D02*
X171660D01*
X151340D02*
Y122430D01*
X171660D01*
Y99570D02*
Y122430D01*
X189300Y88200D02*
Y105800D01*
X179700D02*
X189300D01*
X179700Y88200D02*
Y105800D01*
Y88200D02*
X189300D01*
D335*
X153989Y1321742D02*
D03*
D336*
X934000Y1064000D02*
D03*
D412*
X124000Y106000D02*
G03*
X124000Y106000I-5000J0D01*
G01*
X129000D02*
G03*
X129000Y106000I-10000J0D01*
G01*
X32865Y1497748D02*
G03*
X32865Y1497748I-10000J0D01*
G01*
X27865D02*
G03*
X27865Y1497748I-5000J0D01*
G01*
X850000Y1560000D02*
G03*
X850000Y1560000I-10000J0D01*
G01*
X845000D02*
G03*
X845000Y1560000I-5000J0D01*
G01*
X169510Y1404090D02*
X169510Y1371070D01*
X136490Y1371070D02*
X169510Y1371070D01*
X136490Y1404090D02*
X136490Y1371070D01*
X136490Y1404090D02*
X169510Y1404090D01*
X99490Y1404090D02*
X132510D01*
X99490Y1371070D02*
X99490Y1404090D01*
X99490Y1371070D02*
X132510D01*
X132510Y1404090D02*
X132510Y1371070D01*
X7490Y1340910D02*
X40510Y1340910D01*
X40510Y1373930D02*
X40510Y1340910D01*
X7490Y1373930D02*
X40510Y1373930D01*
X7490Y1373930D02*
X7490Y1340910D01*
X44490Y1373930D02*
X44490Y1340910D01*
X44490Y1373930D02*
X77510D01*
X77510Y1340910D02*
X77510Y1373930D01*
X44490Y1340910D02*
X77510Y1340910D01*
X738000Y6999D02*
Y17999D01*
X727000D02*
X738000D01*
X727000D02*
X727000Y6999D01*
X738000Y6999D01*
X365914Y278490D02*
Y378490D01*
X465914D01*
Y278490D02*
Y378490D01*
X365914Y278490D02*
X465914D01*
X35000Y949655D02*
X85000D01*
X35000Y909655D02*
X85000D01*
X35000D02*
Y949655D01*
X85000Y909655D02*
Y949655D01*
X200252Y766000D02*
X319752D01*
Y716000D02*
Y766000D01*
X200252Y716000D02*
Y766000D01*
Y716000D02*
X319752D01*
X847500Y342750D02*
Y470750D01*
Y342750D02*
X1022000D01*
X847500Y470750D02*
X1022000D01*
Y342750D02*
Y470750D01*
X1018400Y342750D02*
Y470750D01*
X791400Y551000D02*
X1022000D01*
X791400D02*
Y629000D01*
X1022000D01*
Y551000D02*
Y629000D01*
X842300Y734468D02*
X845700D01*
X842300D02*
Y740868D01*
X845700D01*
Y734468D02*
Y740868D01*
X836300Y734468D02*
X839700D01*
X836300D02*
Y740868D01*
X839700D01*
Y734468D02*
Y740868D01*
X854300Y734468D02*
X857700D01*
X854300D02*
Y740868D01*
X857700D01*
Y734468D02*
Y740868D01*
X848300Y734468D02*
X851700D01*
X848300D02*
Y740868D01*
X851700D01*
Y734468D02*
Y740868D01*
X473665Y290290D02*
Y293690D01*
X480065D01*
Y290290D02*
Y293690D01*
X473665Y290290D02*
X480065D01*
X473665Y318290D02*
Y321690D01*
X480065D01*
Y318290D02*
Y321690D01*
X473665Y318290D02*
X480065D01*
X356430Y295040D02*
Y301440D01*
X353030D02*
X356430D01*
X353030Y295040D02*
Y301440D01*
Y295040D02*
X356430D01*
X412164Y386290D02*
Y392690D01*
Y386290D02*
X415564D01*
Y392690D01*
X412164D02*
X415564D01*
X480065Y357290D02*
Y360690D01*
X473665Y357290D02*
X480065D01*
X473665D02*
Y360690D01*
X480065D01*
X792776Y59694D02*
X796176D01*
X796176Y53294D02*
X796176Y59694D01*
X792776Y53294D02*
X796176D01*
X792776D02*
X792776Y59694D01*
X782776D02*
X786176D01*
Y53294D02*
Y59694D01*
X782776Y53294D02*
X786176D01*
X782776D02*
Y59694D01*
X749012Y53000D02*
Y56400D01*
X742612Y53000D02*
X749012D01*
X742612D02*
Y56400D01*
X749012D01*
Y63000D02*
Y66400D01*
X742612Y63000D02*
X749012D01*
X742612D02*
Y66400D01*
X749012D01*
X742613Y82290D02*
X749013D01*
X742613Y78890D02*
Y82290D01*
Y78890D02*
X749013D01*
Y82290D01*
X742613Y92290D02*
X749013D01*
X742613Y88890D02*
Y92290D01*
Y88890D02*
X749013D01*
Y92290D01*
X724300Y134700D02*
X727700D01*
Y128300D02*
Y134700D01*
X724300Y128300D02*
X727700D01*
X724300D02*
Y134700D01*
X714300D02*
X717700D01*
Y128300D02*
Y134700D01*
X714300Y128300D02*
X717700D01*
X714300D02*
Y134700D01*
X696500Y22850D02*
Y29250D01*
Y22850D02*
X699900D01*
Y29250D01*
X696500D02*
X699900D01*
X865300Y797212D02*
Y803612D01*
Y797212D02*
X868700Y797212D01*
Y803612D01*
X865300Y803612D02*
X868700Y803612D01*
X811300Y803612D02*
X811300Y797212D01*
X814700Y797212D01*
Y803612D01*
X811300Y803612D02*
X814700Y803612D01*
X880950Y758700D02*
X880950Y765100D01*
X877550Y765100D02*
X880950Y765100D01*
X877550Y758700D02*
X877550Y765100D01*
X877550Y758700D02*
X880950D01*
X817300Y797212D02*
X817300Y803612D01*
X817300Y797212D02*
X820700Y797212D01*
Y803612D01*
X817300Y803612D02*
X820700Y803612D01*
X878800Y772350D02*
X885200D01*
X878800Y768950D02*
X878800Y772350D01*
X878800Y768950D02*
X885200Y768950D01*
Y772350D01*
X878800Y778350D02*
X885200Y778350D01*
X878800Y774950D02*
Y778350D01*
Y774950D02*
X885200Y774950D01*
Y778350D01*
X892974Y644797D02*
Y651197D01*
X889575D02*
X892974D01*
X889575Y644797D02*
Y651197D01*
Y644797D02*
X892974D01*
X418665Y386290D02*
Y392690D01*
Y386290D02*
X422065D01*
Y392690D01*
X418665D02*
X422065D01*
X473665Y296790D02*
Y300190D01*
X480065D01*
Y296790D02*
Y300190D01*
X473665Y296790D02*
X480065D01*
X652171Y1384711D02*
X658571D01*
Y1388111D01*
X652171D02*
X658571D01*
X652171Y1384711D02*
Y1388111D01*
X746450Y548700D02*
Y555100D01*
X743050D02*
X746450D01*
X743050Y548700D02*
Y555100D01*
Y548700D02*
X746450D01*
X437185Y260047D02*
Y263447D01*
X430785Y260047D02*
X437185D01*
X430785D02*
Y263447D01*
X437185D01*
X800715Y300190D02*
X807114D01*
X800715Y296790D02*
Y300190D01*
Y296790D02*
X807114D01*
Y300190D01*
X710565Y384290D02*
Y390690D01*
Y384290D02*
X713965D01*
Y390690D01*
X710565D02*
X713965D01*
X800710Y277890D02*
Y281290D01*
X807110D01*
Y277890D02*
Y281290D01*
X800710Y277890D02*
X807110D01*
X800710Y283890D02*
X807110D01*
Y287290D01*
X800710D02*
X807110D01*
X800710Y283890D02*
Y287290D01*
X376564Y386290D02*
Y392690D01*
X373164D02*
X376564D01*
X373164Y386290D02*
Y392690D01*
Y386290D02*
X376564D01*
X466064Y397790D02*
Y404190D01*
X462664D02*
X466064D01*
X462664Y397790D02*
Y404190D01*
Y397790D02*
X466064D01*
X485164Y324790D02*
X491564D01*
Y328190D01*
X485164D02*
X491564D01*
X485164Y324790D02*
Y328190D01*
X731050Y548700D02*
Y555100D01*
Y548700D02*
X734450D01*
Y555100D01*
X731050D02*
X734450D01*
X737050Y548700D02*
Y555100D01*
Y548700D02*
X740450D01*
Y555100D01*
X737050D02*
X740450D01*
X648240Y96430D02*
Y99830D01*
X641840Y96430D02*
X648240D01*
X641840D02*
Y99830D01*
X648240D01*
X641840Y89930D02*
Y93330D01*
X648240D01*
Y89930D02*
Y93330D01*
X641840Y89930D02*
X648240D01*
X897325Y644797D02*
Y651197D01*
Y644797D02*
X900724D01*
Y651197D01*
X897325D02*
X900724D01*
X671300Y132200D02*
X674700D01*
Y125800D02*
Y132200D01*
X671300Y125800D02*
X674700D01*
X671300D02*
Y132200D01*
X678300D02*
X681700D01*
Y125800D02*
Y132200D01*
X678300Y125800D02*
X681700D01*
X678300D02*
Y132200D01*
X485164Y350790D02*
X491564D01*
Y354190D01*
X485164D02*
X491564D01*
X485164Y350790D02*
Y354190D01*
X396064Y397790D02*
Y404190D01*
X392664D02*
X396064D01*
X392664Y397790D02*
Y404190D01*
Y397790D02*
X396064D01*
X379664Y386290D02*
X383064D01*
X379664D02*
Y392690D01*
X383064D01*
Y386290D02*
Y392690D01*
X435065Y386290D02*
Y392690D01*
X431665D02*
X435065D01*
X431665Y386290D02*
Y392690D01*
Y386290D02*
X435065D01*
X389565D02*
Y392690D01*
X386165D02*
X389565D01*
X386165Y386290D02*
Y392690D01*
Y386290D02*
X389565D01*
X344528Y300709D02*
X347928D01*
X344528D02*
Y307109D01*
X347928D01*
Y300709D02*
Y307109D01*
X338528Y300709D02*
X341928D01*
X338528D02*
Y307109D01*
X341928D01*
Y300709D02*
Y307109D01*
X425164Y386290D02*
Y392690D01*
Y386290D02*
X428564D01*
Y392690D01*
X425164D02*
X428564D01*
X376564Y397790D02*
Y404190D01*
X373164D02*
X376564D01*
X373164Y397790D02*
Y404190D01*
Y397790D02*
X376564D01*
X340535Y351297D02*
Y357697D01*
Y351297D02*
X343935D01*
Y357697D01*
X340535D02*
X343935D01*
X485164Y370290D02*
Y373690D01*
X491564Y373690D01*
Y370290D02*
Y373690D01*
X485164Y370290D02*
X491564Y370290D01*
X485164Y344290D02*
X491564Y344290D01*
X491564Y347690D02*
X491564Y344290D01*
X485164Y347690D02*
X491564D01*
X485164Y344290D02*
Y347690D01*
X466064Y386290D02*
Y392690D01*
X462664D02*
X466064D01*
X462664Y386290D02*
Y392690D01*
Y386290D02*
X466064D01*
X473665Y324790D02*
X480065D01*
Y328190D01*
X473665D02*
X480065D01*
X473665Y324790D02*
Y328190D01*
Y350790D02*
X480065D01*
Y354190D01*
X473665D02*
X480065D01*
X473665Y350790D02*
Y354190D01*
X396064Y386290D02*
Y392690D01*
X392664D02*
X396064D01*
X392664Y386290D02*
Y392690D01*
Y386290D02*
X396064D01*
X409064D02*
Y392690D01*
X405664D02*
X409064D01*
X405664Y386290D02*
Y392690D01*
Y386290D02*
X409064D01*
X473665Y337790D02*
Y341190D01*
X480065D01*
Y337790D02*
Y341190D01*
X473665Y337790D02*
X480065D01*
X350935Y349297D02*
Y355697D01*
X347535D02*
X350935D01*
X347535Y349297D02*
Y355697D01*
Y349297D02*
X350935D01*
X473665Y370290D02*
Y373690D01*
X480065D01*
Y370290D02*
Y373690D01*
X473665Y370290D02*
X480065D01*
X473665Y344290D02*
X480065D01*
Y347690D01*
X473665D02*
X480065D01*
X473665Y344290D02*
Y347690D01*
X399165Y386290D02*
Y392690D01*
Y386290D02*
X402565D01*
Y392690D01*
X399165D02*
X402565D01*
X480065Y331290D02*
Y334690D01*
X473665Y331290D02*
X480065D01*
X473665D02*
Y334690D01*
X480065D01*
X473665Y377290D02*
X480065D01*
Y380690D01*
X473665D02*
X480065D01*
X473665Y377290D02*
Y380690D01*
Y363790D02*
Y367190D01*
X480065D01*
Y363790D02*
Y367190D01*
X473665Y363790D02*
X480065D01*
X652171Y1378210D02*
Y1381611D01*
X658571D01*
Y1378210D02*
Y1381611D01*
X652171Y1378210D02*
X658571D01*
X643700Y146000D02*
Y149400D01*
X637300Y146000D02*
X643700Y146000D01*
X637300Y146000D02*
Y149400D01*
X643700Y149400D01*
X643700Y138000D02*
Y141400D01*
X637300Y138000D02*
X643700D01*
X637300D02*
Y141400D01*
X643700Y141400D01*
X657700Y22850D02*
X661100D01*
X657700Y29250D02*
X657700Y22850D01*
X657700Y29250D02*
X661100D01*
Y22850D02*
Y29250D01*
X648240Y109590D02*
Y112990D01*
X641840Y109590D02*
X648240D01*
X641840D02*
Y112990D01*
X648240D01*
X689700Y17250D02*
X693100Y17250D01*
Y10850D02*
Y17250D01*
X689700Y10850D02*
X693100Y10850D01*
X689700Y10850D02*
Y17250D01*
X682900Y17250D02*
X686300Y17250D01*
Y10850D02*
Y17250D01*
X682900Y10850D02*
X686300Y10850D01*
X682900Y10850D02*
Y17250D01*
X664500Y17250D02*
X667900D01*
X667900Y10850D01*
X664500D02*
X667900D01*
X664500Y17250D02*
X664500Y10850D01*
X655200Y146000D02*
X655200Y149400D01*
X648800Y146000D02*
X655200Y146000D01*
X648800Y146000D02*
Y149400D01*
X655200Y149400D01*
X655200Y138000D02*
Y141400D01*
X648800Y138000D02*
X655200D01*
X648800D02*
Y141400D01*
X655200Y141400D01*
X657600Y10850D02*
X661000D01*
X657600D02*
Y17250D01*
X661000D01*
X661000Y10850D02*
X661000Y17250D01*
X641840Y116050D02*
Y119450D01*
X648240Y119450D01*
Y116050D02*
Y119450D01*
X641840Y116050D02*
X648240Y116050D01*
X689700Y29250D02*
X693100D01*
X693100Y22850D01*
X689700D02*
X693100D01*
X689700Y29250D02*
X689700Y22850D01*
X682900Y29250D02*
X686300D01*
X686300Y22850D01*
X682900D02*
X686300D01*
X682900Y29250D02*
X682900Y22850D01*
X664500Y29250D02*
X667900D01*
X667900Y22850D02*
X667900Y29250D01*
X664500Y22850D02*
X667900Y22850D01*
X664500Y22850D02*
Y29250D01*
X967961Y657390D02*
Y660790D01*
X961561Y657390D02*
X967961D01*
X961561D02*
Y660790D01*
X967961D01*
X91378Y773612D02*
X91378Y767212D01*
X87978Y773612D02*
X91378D01*
X87978D02*
X87978Y767212D01*
X91378Y767212D01*
X29800Y1034950D02*
Y1038350D01*
X36200D01*
Y1034950D02*
Y1038350D01*
X29800Y1034950D02*
X36200D01*
X22300Y1072850D02*
X25700Y1072850D01*
X25700Y1066450D01*
X22300Y1066450D02*
X25700Y1066450D01*
X22300Y1066450D02*
Y1072850D01*
X15300Y1044450D02*
X18700Y1044450D01*
X15300Y1044450D02*
Y1050850D01*
X18700Y1050850D01*
X18700Y1044450D01*
X29795Y1151950D02*
Y1155350D01*
X36195D01*
Y1151950D02*
Y1155350D01*
X29795Y1151950D02*
X36195D01*
X22300Y1044450D02*
X25700Y1044450D01*
X22300Y1050850D02*
X22300Y1044450D01*
X22300Y1050850D02*
X25700D01*
Y1044450D02*
Y1050850D01*
X21450Y1137700D02*
Y1141100D01*
X15050Y1137700D02*
X21450Y1137700D01*
X15050Y1137700D02*
Y1141100D01*
X21450Y1141100D01*
X26488Y895105D02*
X29889D01*
Y888705D02*
Y895105D01*
X26488Y888705D02*
X29889D01*
X26488D02*
Y895105D01*
X22300Y930855D02*
X25700D01*
X25700Y924455D01*
X22300D02*
X25700D01*
X22300Y930855D02*
X22300Y924455D01*
X29795Y1144950D02*
Y1148350D01*
X36195Y1148350D01*
Y1144950D02*
Y1148350D01*
X29795Y1144950D02*
X36195Y1144950D01*
X21050Y1036105D02*
X24450D01*
Y1029705D02*
Y1036105D01*
X21050Y1029705D02*
X24450D01*
X21050D02*
Y1036105D01*
X15300Y901266D02*
X18700D01*
X15300D02*
Y907666D01*
X18700Y907666D01*
X18700Y901266D01*
X22889Y895105D02*
X22889Y888705D01*
X19489Y895105D02*
X22889D01*
X19489Y888705D02*
Y895105D01*
Y888705D02*
X22889D01*
X80978Y767212D02*
X80978Y773612D01*
X80978Y767212D02*
X84378D01*
X84378Y773612D02*
X84378Y767212D01*
X80978Y773612D02*
X84378Y773612D01*
X73978D02*
X73978Y767212D01*
X77378Y767212D01*
X77378Y773612D02*
X77378Y767212D01*
X73978Y773612D02*
X77378Y773612D01*
X734510Y189790D02*
X734510Y186390D01*
X728110Y186390D02*
X734510Y186390D01*
X728110Y189790D02*
X728110Y186390D01*
X728110Y189790D02*
X734510Y189790D01*
X728110Y179390D02*
X734510Y179390D01*
Y182790D01*
X728110Y182790D02*
X734510Y182790D01*
X728110Y179390D02*
Y182790D01*
X353049Y669700D02*
X359449D01*
X353049Y666300D02*
Y669700D01*
Y666300D02*
X359449D01*
Y669700D01*
X262287Y669700D02*
X268687Y669700D01*
X262287Y666301D02*
Y669700D01*
Y666301D02*
X268687D01*
Y669700D01*
X118049D02*
X124449D01*
X118049Y666301D02*
Y669700D01*
Y666301D02*
X124449D01*
Y669700D01*
X121649Y641800D02*
Y645200D01*
X128049D01*
Y641800D02*
Y645200D01*
X121649Y641800D02*
X128049D01*
X110799Y643051D02*
Y649450D01*
X107399D02*
X110799D01*
X107399Y643051D02*
Y649450D01*
Y643051D02*
X110799D01*
X376299Y638800D02*
Y642200D01*
X369899Y638800D02*
X376299D01*
X369899D02*
Y642200D01*
X376299D01*
X16700Y1299200D02*
X16700Y1305600D01*
X13300Y1305600D02*
X16700Y1305600D01*
X13300Y1299200D02*
X13300Y1305600D01*
X13300Y1299200D02*
X16700Y1299200D01*
X329080Y300709D02*
Y307109D01*
Y300709D02*
X332480D01*
Y307109D01*
X329080D02*
X332480D01*
X333535Y340297D02*
X336935D01*
X333535D02*
Y346697D01*
X336935D01*
Y340297D02*
Y346697D01*
X333535Y357697D02*
X336935D01*
Y351297D02*
Y357697D01*
X333535Y351297D02*
X336935D01*
X333535D02*
Y357697D01*
X186089Y1300792D02*
Y1307192D01*
X182689Y1307192D02*
X186089Y1307192D01*
X182689Y1300792D02*
X182689Y1307192D01*
X182689Y1300792D02*
X186089D01*
X182689Y1313792D02*
X182689Y1320192D01*
X182689Y1313792D02*
X186089D01*
Y1320192D01*
X182689Y1320192D02*
X186089Y1320192D01*
X8300Y1050850D02*
X11700Y1050850D01*
X11700Y1044450D01*
X8300Y1044450D02*
X11700Y1044450D01*
X8300Y1044450D02*
Y1050850D01*
X21300Y1147450D02*
X24700Y1147450D01*
X21300Y1147450D02*
X21300Y1153850D01*
X24700D01*
X24700Y1147450D02*
X24700Y1153850D01*
X14300Y1147450D02*
X17700D01*
X14300Y1153850D02*
X14300Y1147450D01*
X14300Y1153850D02*
X17700Y1153850D01*
X17700Y1147450D01*
X7300Y1153850D02*
X10700D01*
X10700Y1147450D01*
X7300D02*
X10700D01*
X7300D02*
X7300Y1153850D01*
X26388Y901267D02*
X26388Y907667D01*
X22989D02*
X26388D01*
X22989Y901267D02*
X22989Y907667D01*
X22989Y901267D02*
X26388D01*
X8300Y907666D02*
X11700D01*
X11700Y901266D01*
X8300D02*
X11700D01*
X8300D02*
X8300Y907666D01*
X35000Y1091650D02*
X85000D01*
X35000Y1051650D02*
X85000D01*
X35000D02*
Y1091650D01*
X85000Y1051650D02*
X85000Y1091650D01*
X35000Y1204650D02*
X85000D01*
X35000Y1164650D02*
X85000D01*
X35000D02*
X35000Y1204650D01*
X85000Y1164650D02*
Y1204650D01*
X327423Y420147D02*
Y423347D01*
Y420147D02*
X333623D01*
Y423347D01*
X327423D02*
X333623D01*
X326641Y380647D02*
X329841D01*
Y386847D01*
X326641D02*
X329841D01*
X326641Y380647D02*
Y386847D01*
X340635Y379847D02*
X343835D01*
X340635Y373647D02*
Y379847D01*
Y373647D02*
X343835D01*
Y379847D01*
X326641Y372847D02*
X329841D01*
X326641Y366647D02*
Y372847D01*
Y366647D02*
X329841D01*
Y372847D01*
X18700Y1066450D02*
Y1072850D01*
X15300D02*
X18700D01*
X15300D02*
X15300Y1066450D01*
X18700Y1066450D01*
X15300Y924455D02*
X18700Y924455D01*
X15300Y924455D02*
Y930855D01*
X18700D01*
X18700Y924455D02*
X18700Y930855D01*
X381899Y638800D02*
Y642200D01*
X388299D01*
Y638800D02*
Y642200D01*
X381899Y638800D02*
X388299D01*
X141899Y695451D02*
X145299D01*
Y689051D02*
Y695451D01*
X141899Y689051D02*
X145299D01*
X141899D02*
Y695451D01*
X135399D02*
X138799D01*
Y689051D02*
Y695451D01*
X135399Y689051D02*
X138799D01*
X135399D02*
Y695451D01*
X370742Y687000D02*
Y690400D01*
X377142D01*
Y687000D02*
Y690400D01*
X370742Y687000D02*
X377142D01*
X329661Y265039D02*
Y268239D01*
Y265039D02*
X335861D01*
Y268239D01*
X329661D02*
X335861D01*
X326641Y347847D02*
X329841D01*
X326641Y341647D02*
Y347847D01*
Y341647D02*
X329841D01*
Y347847D01*
X326641Y350647D02*
X329841D01*
Y356847D01*
X326641D02*
X329841D01*
X326641Y350647D02*
Y356847D01*
X493800Y671301D02*
X497200D01*
X493800D02*
Y677700D01*
X497200D01*
Y671301D02*
Y677700D01*
X582182Y167590D02*
X588582D01*
X588582Y170990D01*
X582182D02*
X588582D01*
X582182Y167590D02*
X582182Y170990D01*
X205965Y74940D02*
X212365D01*
X205965Y71540D02*
Y74940D01*
Y71540D02*
X212365D01*
Y74940D01*
X221465Y71540D02*
X227865D01*
Y74940D01*
X221465D02*
X227865D01*
X221465Y71540D02*
Y74940D01*
X806480Y835116D02*
X808884Y837520D01*
X813409Y832995D01*
X811005Y830591D02*
X813409Y832995D01*
X806480Y835116D02*
X811005Y830591D01*
X801530Y830166D02*
X803934Y832571D01*
X808460Y828045D01*
X806056Y825641D02*
X808460Y828045D01*
X801530Y830166D02*
X806056Y825641D01*
X546112Y1377563D02*
Y1380963D01*
X552512D01*
Y1377563D02*
Y1380963D01*
X546112Y1377563D02*
X552512D01*
X873000Y17999D02*
X873000Y6999D01*
X862000Y17999D02*
X873000Y17999D01*
X862000Y6999D02*
Y17999D01*
Y6999D02*
X873000D01*
X828000Y17999D02*
X828000Y6999D01*
X817000Y17999D02*
X828000D01*
X817000Y6999D02*
X817000Y17999D01*
X817000Y6999D02*
X828000D01*
X783000Y6999D02*
X783000Y17999D01*
X772000D02*
X783000D01*
X772000Y6999D02*
Y17999D01*
Y6999D02*
X783000Y6999D01*
X190689Y1320192D02*
X194089D01*
Y1313792D02*
Y1320192D01*
X190689Y1313792D02*
X194089D01*
X190689D02*
Y1320192D01*
X194089Y1300792D02*
Y1307192D01*
X190689D02*
X194089D01*
X190689Y1300792D02*
Y1307192D01*
Y1300792D02*
X194089D01*
X961561Y677790D02*
X967961D01*
X961561Y674390D02*
Y677790D01*
Y674390D02*
X967961D01*
Y677790D01*
X522692Y708447D02*
X526092Y708447D01*
X522692Y708447D02*
Y714847D01*
X526092D01*
X526092Y708447D02*
X526092Y714847D01*
X86478Y781112D02*
X92878D01*
X86478Y777712D02*
Y781112D01*
Y777712D02*
X92878D01*
Y781112D01*
X516192Y708447D02*
X519592D01*
X516192D02*
Y714847D01*
X519592D01*
Y708447D02*
Y714847D01*
X509692Y708447D02*
X513092Y708447D01*
X509692Y714847D02*
X509692Y708447D01*
X509692Y714847D02*
X513092D01*
Y708447D02*
Y714847D01*
X503192Y708447D02*
X506592D01*
X503192D02*
Y714847D01*
X506592D01*
Y708447D02*
Y714847D01*
X337871Y761789D02*
X344271D01*
Y765189D01*
X337871D02*
X344271D01*
X337871Y761789D02*
Y765189D01*
X372319Y739066D02*
Y745466D01*
X368919D02*
X372319D01*
X368919Y739066D02*
Y745466D01*
Y739066D02*
X372319D01*
X89164Y1460778D02*
X89165Y1467178D01*
X89164Y1460778D02*
X92565D01*
Y1467178D01*
X89165Y1467178D02*
X92565Y1467178D01*
X361707Y236436D02*
X365107D01*
Y230036D02*
Y236436D01*
X361707Y230036D02*
X365107D01*
X361707D02*
Y236436D01*
X337871Y754789D02*
X344271D01*
Y758189D01*
X337871D02*
X344271D01*
X337871Y754789D02*
Y758189D01*
X534692Y702947D02*
X538092D01*
X534692D02*
Y709347D01*
X538092D01*
Y702947D02*
Y709347D01*
X126371Y514789D02*
Y518189D01*
X132771D01*
Y514789D02*
Y518189D01*
X126371Y514789D02*
X132771D01*
X850200Y9299D02*
Y15699D01*
X846800D02*
X850200D01*
X846800Y9299D02*
Y15699D01*
Y9299D02*
X850200D01*
X805200Y15699D02*
X805200Y9299D01*
X801800Y15699D02*
X805200D01*
X801800D02*
X801800Y9299D01*
X805200D01*
X760200Y9299D02*
Y15699D01*
X756800D02*
X760200D01*
X756800Y9299D02*
X756800Y15699D01*
X756800Y9299D02*
X760200D01*
X715200Y9299D02*
Y15699D01*
X711800D02*
X715200D01*
X711800Y9299D02*
Y15699D01*
Y9299D02*
X715200D01*
X881200D02*
Y15699D01*
X877800D02*
X881200D01*
X877800D02*
X877800Y9299D01*
X881200Y9299D01*
X836200Y15699D02*
X836200Y9299D01*
X832800Y15699D02*
X836200D01*
X832800Y9299D02*
Y15699D01*
Y9299D02*
X836200D01*
X791200Y9299D02*
Y15699D01*
X787800D02*
X791200D01*
X787800Y9299D02*
Y15699D01*
Y9299D02*
X791200D01*
X746200D02*
Y15699D01*
X742800D02*
X746200D01*
X742800Y9299D02*
Y15699D01*
Y9299D02*
X746200D01*
X853800Y15699D02*
X853800Y9299D01*
X857200Y9299D01*
Y15699D01*
X853800D02*
X857200D01*
X808800Y9299D02*
Y15699D01*
Y9299D02*
X812200D01*
X812200Y15699D02*
X812200Y9299D01*
X808800Y15699D02*
X812200Y15699D01*
X763800Y9299D02*
X763800Y15699D01*
X763800Y9299D02*
X767200D01*
Y15699D01*
X763800Y15699D02*
X767200Y15699D01*
X718800Y9299D02*
Y15699D01*
Y9299D02*
X722200D01*
Y15699D01*
X718800D02*
X722200D01*
X884800Y9299D02*
X884800Y15699D01*
X884800Y9299D02*
X888200D01*
X888200Y15699D01*
X884800D02*
X888200D01*
X839800Y9299D02*
Y15699D01*
Y9299D02*
X843200D01*
Y15699D01*
X839800D02*
X843200D01*
X794800Y9299D02*
Y15699D01*
Y9299D02*
X798200D01*
Y15699D01*
X794800D02*
X798200D01*
X749800Y9299D02*
Y15699D01*
Y9299D02*
X753200D01*
Y15699D01*
X749800D02*
X753200D01*
X175720Y71940D02*
X182120Y71940D01*
X175720Y68540D02*
Y71940D01*
Y68540D02*
X182120Y68540D01*
Y71940D01*
X187552Y728500D02*
Y731900D01*
X181152Y728500D02*
X187552D01*
X181152D02*
Y731900D01*
X187552D01*
X181152Y765400D02*
Y768800D01*
X187552D01*
Y765400D02*
Y768800D01*
X181152Y765400D02*
X187552D01*
X181152Y691800D02*
Y695200D01*
X187552D01*
Y691800D02*
Y695200D01*
X181152Y691800D02*
X187552D01*
X167652D02*
Y695200D01*
X174052D01*
Y691800D02*
Y695200D01*
X167652Y691800D02*
X174052D01*
X167652Y768800D02*
X174052D01*
X167652Y765400D02*
Y768800D01*
Y765400D02*
X174052D01*
Y768800D01*
X159900Y725450D02*
X163300D01*
Y719050D02*
Y725450D01*
X159900Y719050D02*
X163300D01*
X159900D02*
Y725450D01*
X475800Y749712D02*
Y756112D01*
Y749712D02*
X479200D01*
X479200Y756112D01*
X475800Y756112D02*
X479200Y756112D01*
X469300Y756112D02*
X472700D01*
X472700Y749712D01*
X469300D02*
X472700D01*
X469300Y756112D02*
X469300Y749712D01*
X462800Y756112D02*
X466200Y756112D01*
Y749712D02*
Y756112D01*
X462800Y749712D02*
X466200D01*
X462800D02*
X462800Y756112D01*
X455300Y708172D02*
X458700D01*
X455300Y714572D02*
X455300Y708172D01*
X455300Y714572D02*
X458700D01*
X458700Y708172D01*
X481200Y708172D02*
Y714572D01*
X477800Y714572D02*
X481200Y714572D01*
X477800Y708172D02*
X477800Y714572D01*
X477800Y708172D02*
X481200D01*
X473700Y714572D02*
X473700Y708172D01*
X470300Y714572D02*
X473700Y714572D01*
X470300Y708172D02*
Y714572D01*
Y708172D02*
X473700D01*
X466200Y714572D02*
X466200Y708172D01*
X462800Y714572D02*
X466200D01*
X462800D02*
X462800Y708172D01*
X466200D01*
X7050Y1017705D02*
Y1024105D01*
Y1017705D02*
X10450D01*
Y1024105D01*
X7050D02*
X10450D01*
X330961Y738031D02*
Y744432D01*
Y738031D02*
X334361D01*
Y744432D01*
X330961D02*
X334361D01*
X516192Y697447D02*
X519592Y697447D01*
X516192Y697447D02*
Y703847D01*
X519591Y703847D01*
X519592Y697447D01*
X522692Y749707D02*
X526092D01*
X522692D02*
Y756107D01*
X526092Y756107D01*
X526092Y749707D01*
X516192D02*
X519592D01*
X516192D02*
Y756107D01*
X519592D01*
Y749707D02*
Y756107D01*
X509692Y749707D02*
X513092D01*
X509692D02*
Y756107D01*
X513092Y756107D01*
X513092Y749707D01*
X503192D02*
X506592D01*
X503192D02*
Y756107D01*
X506592D01*
Y749707D02*
Y756107D01*
X211660Y481050D02*
Y487450D01*
Y481050D02*
X215060D01*
Y487450D01*
X211660D02*
X215060D01*
X186260Y481050D02*
Y487450D01*
Y481050D02*
X189660D01*
Y487450D01*
X186260D02*
X189660D01*
X228345Y1525000D02*
Y1528200D01*
X222145D02*
X228345D01*
X222145Y1525000D02*
Y1528200D01*
Y1525000D02*
X228345D01*
X788345D02*
Y1528200D01*
X782145D02*
X788345D01*
X782145Y1525000D02*
Y1528200D01*
Y1525000D02*
X788345D01*
X508345D02*
Y1528200D01*
X502145D02*
X508345D01*
X502145Y1525000D02*
Y1528200D01*
Y1525000D02*
X508345D01*
X232145D02*
Y1528200D01*
Y1525000D02*
X238345D01*
Y1528200D01*
X232145D02*
X238345D01*
X792145Y1525000D02*
Y1528200D01*
Y1525000D02*
X798345D01*
Y1528200D01*
X792145D02*
X798345D01*
X512145Y1525000D02*
Y1528200D01*
Y1525000D02*
X518345D01*
Y1528200D01*
X512145D02*
X518345D01*
X248345Y1525000D02*
Y1528200D01*
X242145D02*
X248345D01*
X242145Y1525000D02*
Y1528200D01*
Y1525000D02*
X248345D01*
X808345D02*
Y1528200D01*
X802145D02*
X808345D01*
X802145Y1525000D02*
Y1528200D01*
Y1525000D02*
X808345D01*
X528345D02*
Y1528200D01*
X522145D02*
X528345D01*
X522145Y1525000D02*
Y1528200D01*
Y1525000D02*
X528345D01*
X119200Y233010D02*
Y236210D01*
X113000D02*
X119200D01*
X113000Y233010D02*
Y236210D01*
Y233010D02*
X119200D01*
Y207610D02*
Y210810D01*
X113000D02*
X119200D01*
X113000Y207610D02*
Y210810D01*
Y207610D02*
X119200D01*
Y156810D02*
Y160010D01*
X113000D02*
X119200D01*
X113000Y156810D02*
Y160010D01*
Y156810D02*
X119200D01*
X226000Y220610D02*
Y223810D01*
Y220610D02*
X232200D01*
Y223810D01*
X226000D02*
X232200D01*
X226000Y212610D02*
Y215810D01*
Y212610D02*
X232200D01*
Y215810D01*
X226000D02*
X232200D01*
X226000Y202610D02*
Y205810D01*
Y202610D02*
X232200D01*
Y205810D01*
X226000D02*
X232200D01*
X226000Y182210D02*
Y185410D01*
Y182210D02*
X232200D01*
Y185410D01*
X226000D02*
X232200D01*
X214009Y686390D02*
Y689590D01*
Y686390D02*
X220209D01*
Y689590D01*
X214009D02*
X220209D01*
X251102Y771900D02*
Y775100D01*
X244902D02*
X251102D01*
X244902Y771900D02*
Y775100D01*
Y771900D02*
X251102D01*
X268902D02*
Y775100D01*
Y771900D02*
X275102D01*
Y775100D01*
X268902D02*
X275102D01*
X220815Y64640D02*
Y67840D01*
Y64640D02*
X227015D01*
Y67840D01*
X220815D02*
X227015D01*
X213015Y64640D02*
Y67840D01*
X206814D02*
X213015D01*
X206814Y64640D02*
Y67840D01*
Y64640D02*
X213015D01*
X199750Y65090D02*
Y68290D01*
X193550D02*
X199750D01*
X193550Y65090D02*
Y68290D01*
Y65090D02*
X199750D01*
X425641Y1388310D02*
X429041D01*
Y1381910D02*
Y1388310D01*
X425641Y1381910D02*
X429041D01*
X425641D02*
Y1388310D01*
X534112Y1377563D02*
X540512D01*
Y1380963D01*
X534112D02*
X540512D01*
X534112Y1377563D02*
Y1380963D01*
X102665Y1501048D02*
X106065D01*
X102664Y1507448D02*
X102665Y1501048D01*
X102664Y1507448D02*
X106065D01*
Y1501048D02*
Y1507448D01*
X108665Y1501048D02*
X112065D01*
X108665D02*
Y1507448D01*
X112065D01*
Y1501048D02*
Y1507448D01*
X115165Y1501048D02*
X118565Y1501048D01*
X115165Y1501048D02*
Y1507448D01*
X118565Y1507448D01*
Y1501048D02*
Y1507448D01*
X418811Y1381890D02*
X422211D01*
X418811D02*
Y1388290D01*
X422211D01*
Y1381890D02*
Y1388290D01*
X783811Y1364540D02*
X787211D01*
Y1358140D02*
Y1364540D01*
X783811Y1358140D02*
X787211D01*
X783811D02*
Y1364540D01*
X121665Y1501048D02*
X125065D01*
X121665D02*
Y1507448D01*
X125065D01*
Y1501048D02*
Y1507448D01*
X121665Y1460778D02*
X125064Y1460778D01*
X121665Y1460778D02*
Y1467178D01*
X125064Y1467178D01*
Y1460778D02*
Y1467178D01*
X667211Y1376890D02*
Y1383290D01*
X663811D02*
X667211D01*
X663811Y1376890D02*
Y1383290D01*
Y1376890D02*
X667211D01*
X530342Y759457D02*
Y762857D01*
X523942Y759457D02*
X530342Y759457D01*
X523942Y759457D02*
Y762857D01*
X530342Y762857D01*
X664300Y125800D02*
Y132200D01*
Y125800D02*
X667700D01*
Y132200D01*
X664300D02*
X667700D01*
X347535Y385297D02*
Y391697D01*
Y385297D02*
X350935D01*
Y391697D01*
X347535D02*
X350935D01*
X341785Y364547D02*
X348185D01*
Y367947D01*
X341785D02*
X348185D01*
X341785Y364547D02*
Y367947D01*
X336935Y385297D02*
Y391697D01*
X333535D02*
X336935D01*
X333535Y385297D02*
Y391697D01*
Y385297D02*
X336935D01*
X343935D02*
Y391697D01*
X340535D02*
X343935D01*
X340535Y385297D02*
Y391697D01*
Y385297D02*
X343935D01*
X333535Y365797D02*
Y372197D01*
Y365797D02*
X336935D01*
Y372197D01*
X333535D02*
X336935D01*
X488800Y749712D02*
X492200D01*
X488800D02*
Y756112D01*
X492200D01*
Y749712D02*
Y756112D01*
X536192Y749707D02*
Y756107D01*
Y749707D02*
X539592D01*
X539592Y756107D01*
X536192D02*
X539592D01*
X346900Y267360D02*
Y273760D01*
Y267360D02*
X350300D01*
Y273760D01*
X346900D02*
X350300D01*
X123478Y731060D02*
X129878D01*
X123478Y727660D02*
Y731060D01*
Y727660D02*
X129878D01*
Y731060D01*
X15950Y805390D02*
X15950Y798990D01*
X19350D01*
X19350Y805390D01*
X15950D02*
X19350D01*
X99378Y729160D02*
X99378Y735560D01*
X95978D02*
X99378D01*
X95978Y729160D02*
X95978Y735560D01*
X95978Y729160D02*
X99378D01*
X102978Y729161D02*
Y735561D01*
Y729161D02*
X106378Y729161D01*
Y735560D01*
X102978Y735561D02*
X106378Y735560D01*
X11450Y774890D02*
X17850Y774890D01*
X11450Y771490D02*
Y774890D01*
Y771490D02*
X17850Y771490D01*
Y774890D01*
X11450Y778490D02*
X17850D01*
Y781890D01*
X11450D02*
X17850D01*
X11450Y778490D02*
Y781890D01*
X17800Y1083450D02*
X24200D01*
Y1086850D01*
X17800D02*
X24200D01*
X17800Y1083450D02*
Y1086850D01*
X17800Y1196950D02*
X24200D01*
Y1200350D01*
X17800D02*
X24200D01*
X17800Y1196950D02*
Y1200350D01*
X734510Y172390D02*
Y175790D01*
X728110Y172390D02*
X734510D01*
X728110D02*
Y175790D01*
X734510D01*
X29800Y1027950D02*
X36200D01*
Y1031350D01*
X29800D02*
X36200D01*
X29800Y1027950D02*
Y1031350D01*
X17800Y1210950D02*
X24200D01*
Y1214350D01*
X17800D02*
X24200D01*
X17800Y1210950D02*
Y1214350D01*
X382799Y690400D02*
X389199D01*
X382799Y687001D02*
Y690400D01*
Y687001D02*
X389199D01*
Y690400D01*
X337871Y747789D02*
Y751189D01*
X344271D01*
Y747789D02*
Y751189D01*
X337871Y747789D02*
X344271D01*
X17800Y945355D02*
X24200D01*
X17800Y941955D02*
Y945355D01*
Y941955D02*
X24200D01*
Y945355D01*
X17800Y955955D02*
X24200D01*
Y959355D01*
X17800D02*
X24200D01*
X17800Y955955D02*
Y959355D01*
Y948955D02*
X24200D01*
Y952355D01*
X17800D02*
X24200D01*
X17800Y948955D02*
Y952355D01*
X17450Y1029705D02*
Y1036105D01*
X14050D02*
X17450D01*
X14050Y1029705D02*
Y1036105D01*
Y1029705D02*
X17450D01*
X11700Y1206830D02*
Y1213230D01*
X8300D02*
X11700D01*
X8300Y1206830D02*
Y1213230D01*
Y1206830D02*
X11700D01*
X11800Y1160700D02*
Y1164100D01*
X18200D01*
Y1160700D02*
Y1164100D01*
X11800Y1160700D02*
X18200D01*
X15300Y1179450D02*
X18700D01*
X15300D02*
Y1185850D01*
X18700D01*
Y1179450D02*
Y1185850D01*
X22300Y1185600D02*
X25700D01*
Y1179200D02*
Y1185600D01*
X22300Y1179200D02*
X25700D01*
X22300D02*
Y1185600D01*
X47950Y850216D02*
X51350D01*
Y843816D02*
Y850216D01*
X47950Y843816D02*
X51350D01*
X47950D02*
Y850216D01*
X337871Y768789D02*
X344271D01*
Y772189D01*
X337871D02*
X344271D01*
X337871Y768789D02*
Y772189D01*
X400521Y765539D02*
Y771939D01*
X397121D02*
X400521D01*
X397121Y765539D02*
Y771939D01*
Y765539D02*
X400521D01*
Y754039D02*
Y760439D01*
X397121D02*
X400521D01*
X397121Y754039D02*
Y760439D01*
Y754039D02*
X400521D01*
X414319Y724081D02*
X414319Y717682D01*
X410919Y724081D02*
X414319D01*
X410919Y717682D02*
X410919Y724081D01*
X410919Y717682D02*
X414319D01*
X368919Y725531D02*
Y731932D01*
Y725531D02*
X372319D01*
Y731932D01*
X368919D02*
X372319D01*
X410919Y729182D02*
Y735582D01*
Y729182D02*
X414319Y729181D01*
X414319Y735582D01*
X410919D02*
X414319D01*
X119300Y214510D02*
Y217910D01*
X112900Y214510D02*
X119300D01*
X112900D02*
Y217910D01*
X119300D01*
X660431Y154240D02*
X663831D01*
Y147840D02*
Y154240D01*
X660431Y147840D02*
X663831D01*
X660431D02*
Y154240D01*
X556431Y133740D02*
X559831D01*
Y127340D02*
Y133740D01*
X556431Y127340D02*
X559831D01*
X556431D02*
Y133740D01*
X943276Y686300D02*
Y689700D01*
X936876Y686300D02*
X943276D01*
X936876D02*
Y689700D01*
X943276D01*
X947454Y686300D02*
X947454Y689700D01*
X953854D01*
Y686300D02*
Y689700D01*
X947454Y686300D02*
X953854Y686300D01*
X876157Y698151D02*
Y701551D01*
X882557D01*
Y698151D02*
Y701551D01*
X876157Y698151D02*
X882557D01*
X871959Y698150D02*
Y701550D01*
X865559Y698150D02*
X871959D01*
X865559D02*
Y701550D01*
X871959Y701550D01*
X15050Y1131700D02*
X21450D01*
Y1135100D01*
X15050D02*
X21450D01*
X15050Y1131700D02*
Y1135100D01*
X175720Y61540D02*
X175720Y64940D01*
X182120D01*
X182120Y61540D01*
X175720D02*
X182120D01*
X404120Y771940D02*
X407520D01*
Y765540D02*
Y771940D01*
X404120Y765540D02*
X407520D01*
X404120D02*
Y771940D01*
X159900Y731550D02*
X163300D01*
X159900D02*
Y737950D01*
X163300D01*
Y731550D02*
Y737950D01*
X174052Y728500D02*
Y731900D01*
X167652Y728500D02*
X174052D01*
X167652D02*
Y731900D01*
X174052D01*
X164300Y133700D02*
X170700Y133700D01*
X164300Y130300D02*
Y133700D01*
Y130300D02*
X170700D01*
X170700Y133700D01*
X151300Y130300D02*
X157700D01*
X157700Y133700D01*
X151300Y133700D02*
X157700Y133700D01*
X151300Y130300D02*
Y133700D01*
X195800Y128700D02*
X199200D01*
X199200Y122300D01*
X195800D02*
X199200D01*
X195800Y128700D02*
X195800Y122300D01*
X139300Y109300D02*
X145700D01*
Y112700D01*
X139300D02*
X145700D01*
X139300Y109300D02*
Y112700D01*
Y117300D02*
Y120700D01*
X145700D01*
Y117300D02*
Y120700D01*
X139300Y117300D02*
X145700D01*
X456300Y749712D02*
Y756112D01*
Y749712D02*
X459700D01*
Y756112D01*
X456300D02*
X459700D01*
X132771Y484831D02*
Y488231D01*
X126371Y484831D02*
X132771D01*
X126371D02*
Y488231D01*
X132771D01*
X126370Y475387D02*
Y478787D01*
X132770D01*
Y475387D02*
Y478787D01*
X126370Y475387D02*
X132770D01*
X126371Y494271D02*
Y497671D01*
X132771D01*
Y494271D02*
Y497671D01*
X126371Y494271D02*
X132771D01*
X41050Y1101950D02*
Y1105350D01*
X47450D01*
Y1101950D02*
Y1105350D01*
X41050Y1101950D02*
X47450D01*
X126370Y455300D02*
X132770D01*
Y458700D01*
X126370D02*
X132770D01*
X126370Y455300D02*
Y458700D01*
X241300Y84551D02*
X244700D01*
X241300D02*
Y90951D01*
X244700D01*
Y84551D02*
Y90951D01*
X199200Y109800D02*
Y116200D01*
X195800D02*
X199200D01*
X195800Y109800D02*
Y116200D01*
Y109800D02*
X199200D01*
X241300Y103451D02*
X244700D01*
Y97051D02*
Y103451D01*
X241300Y97051D02*
X244700D01*
X241300D02*
Y103451D01*
X232300Y156710D02*
Y160110D01*
X225900Y156710D02*
X232300D01*
X225900D02*
Y160110D01*
X232300D01*
X77850Y830316D02*
Y833716D01*
X71450Y830316D02*
X77850Y830316D01*
X71450Y830316D02*
Y833716D01*
X77850Y833716D01*
X538432Y133590D02*
Y136990D01*
X544831D01*
Y133590D02*
Y136990D01*
X538432Y133590D02*
X544831D01*
X538432Y141590D02*
Y144990D01*
X544831D01*
Y141590D02*
Y144990D01*
X538432Y141590D02*
X544831D01*
X330960Y724530D02*
X334360D01*
X330960D02*
Y730930D01*
X334360D01*
Y724530D02*
Y730930D01*
X49138Y896455D02*
Y899855D01*
X42738Y896455D02*
X49138D01*
X42738D02*
Y899855D01*
X49138D01*
X49138Y887455D02*
Y890855D01*
X42738Y887455D02*
X49138D01*
X42738D02*
Y890855D01*
X49138D01*
D413*
X974461Y680890D02*
X992061D01*
X974461Y671290D02*
Y680890D01*
Y671290D02*
X992061D01*
Y680890D01*
X592831Y202240D02*
Y212840D01*
Y202240D02*
X598431Y202240D01*
X598432Y212840D01*
X592831D02*
X598432D01*
X749016Y71044D02*
Y74444D01*
X742616Y71044D02*
X749016D01*
X742616D02*
Y74444D01*
X749016D01*
X674700Y22850D02*
Y29250D01*
X671300D02*
X674700D01*
X671300Y22850D02*
Y29250D01*
Y22850D02*
X674700D01*
X649300Y125800D02*
Y132200D01*
Y125800D02*
X652700D01*
Y132200D01*
X649300D02*
X652700D01*
X677100Y22850D02*
X680500D01*
X677100D02*
Y29250D01*
X680500D01*
Y22850D02*
Y29250D01*
X749010Y94890D02*
Y98290D01*
X742610Y94890D02*
X749010D01*
X742610D02*
Y98290D01*
X749010D01*
Y42890D02*
Y46290D01*
X742610Y42890D02*
X749010D01*
X742610D02*
Y46290D01*
X749010D01*
X742610Y120290D02*
X749010D01*
X742610Y116890D02*
Y120290D01*
Y116890D02*
X749010D01*
Y120290D01*
X742610Y107290D02*
X749010D01*
X742610Y103890D02*
Y107290D01*
Y103890D02*
X749010D01*
Y107290D01*
Y110640D02*
Y114040D01*
X742610Y110640D02*
X749010D01*
X742610D02*
Y114040D01*
X749010D01*
X706300Y119800D02*
Y126200D01*
Y119800D02*
X709700D01*
Y126200D01*
X706300D02*
X709700D01*
X736010Y119890D02*
Y123290D01*
X729610Y119890D02*
X736010D01*
X729610D02*
Y123290D01*
X736010D01*
X735181Y127070D02*
X741581D01*
Y130470D01*
X735181D02*
X741581D01*
X735181Y127070D02*
Y130470D01*
X692200Y130000D02*
Y133400D01*
X685800Y130000D02*
X692200D01*
X685800D02*
Y133400D01*
X692200D01*
X697800Y130000D02*
Y133400D01*
X704200D01*
Y130000D02*
Y133400D01*
X697800Y130000D02*
X704200D01*
X685800Y124000D02*
X692200D01*
Y127400D01*
X685800D02*
X692200D01*
X685800Y124000D02*
Y127400D01*
X841300Y797212D02*
Y803612D01*
Y797212D02*
X844700D01*
Y803612D01*
X841300D02*
X844700D01*
X860700Y745918D02*
X860700Y752318D01*
X857300D02*
X860700D01*
X857300D02*
X857300Y745918D01*
X860700Y745918D01*
X853300Y797212D02*
X853300Y803612D01*
X853300Y797212D02*
X856700Y797212D01*
X856700Y803612D02*
X856700Y797212D01*
X853300Y803612D02*
X856700D01*
X848700Y752318D02*
X848700Y745918D01*
X845300Y752318D02*
X848700Y752318D01*
X845300Y745918D02*
X845300Y752318D01*
X845300Y745918D02*
X848700Y745918D01*
X824700Y752318D02*
X824700Y745918D01*
X821300Y752318D02*
X824700D01*
X821300D02*
X821300Y745918D01*
X824700Y745918D01*
X836700Y745918D02*
Y752318D01*
X833300D02*
X836700D01*
X833300D02*
X833300Y745918D01*
X836700D01*
X829300Y803612D02*
X829300Y797212D01*
X832700Y797212D01*
Y803612D01*
X829300Y803612D02*
X832700Y803612D01*
X432121Y1388307D02*
X435521D01*
Y1381907D02*
Y1388307D01*
X432121Y1381907D02*
X435521D01*
X432121D02*
Y1388307D01*
X547811Y1388140D02*
Y1394540D01*
Y1388140D02*
X551211Y1388140D01*
X551211Y1394540D01*
X547811D02*
X551211D01*
X663811Y1395290D02*
X667211D01*
X667211Y1388890D02*
X667211Y1395290D01*
X663811Y1388890D02*
X667211Y1388890D01*
X663811Y1388890D02*
Y1395290D01*
X750037Y546950D02*
X756437D01*
Y550350D01*
X750037D02*
X756437D01*
X750037Y546950D02*
Y550350D01*
Y552950D02*
Y556350D01*
X756437D01*
Y552950D02*
Y556350D01*
X750037Y552950D02*
X756437D01*
X745550Y623650D02*
Y627050D01*
X751950D01*
Y623650D02*
Y627050D01*
X745550Y623650D02*
X751950D01*
X745550Y629650D02*
X751950D01*
Y633050D01*
X745550D02*
X751950D01*
X745550Y629650D02*
Y633050D01*
X738950Y623650D02*
Y627050D01*
X732550Y623650D02*
X738950D01*
X732550D02*
Y627050D01*
X738950D01*
X732550Y633050D02*
X738950D01*
X732550Y629650D02*
Y633050D01*
Y629650D02*
X738950D01*
Y633050D01*
X767937Y546950D02*
Y550350D01*
X761537Y546950D02*
X767937D01*
X761537D02*
Y550350D01*
X767937D01*
X761537Y556350D02*
X767937D01*
X761537Y552950D02*
Y556350D01*
Y552950D02*
X767937D01*
Y556350D01*
X720537Y550350D02*
X726937D01*
X720537Y546950D02*
Y550350D01*
Y546950D02*
X726937D01*
Y550350D01*
Y552950D02*
Y556350D01*
X720537Y552950D02*
X726937D01*
X720537D02*
Y556350D01*
X726937D01*
X759550Y623650D02*
Y627050D01*
X765950D01*
Y623650D02*
Y627050D01*
X759550Y623650D02*
X765950D01*
X759550Y629650D02*
X765950D01*
Y633050D01*
X759550D02*
X765950D01*
X759550Y629650D02*
Y633050D01*
X771615Y267290D02*
Y273690D01*
X768214D02*
X771615D01*
X768214Y267290D02*
Y273690D01*
Y267290D02*
X771615D01*
X800715Y294190D02*
X807114D01*
X800715Y290790D02*
Y294190D01*
Y290790D02*
X807114D01*
Y294190D01*
X800715Y344190D02*
X807114D01*
X800715Y340790D02*
Y344190D01*
Y340790D02*
X807114D01*
Y344190D01*
X795536Y382223D02*
Y388623D01*
Y382223D02*
X798936D01*
Y388623D01*
X795536D02*
X798936D01*
X800715Y312190D02*
X807114D01*
X800715Y308790D02*
Y312190D01*
Y308790D02*
X807114D01*
Y312190D01*
X800715Y324190D02*
X807114D01*
X800715Y320790D02*
Y324190D01*
Y320790D02*
X807114D01*
Y324190D01*
X781800Y384450D02*
X788200D01*
X781800Y381050D02*
Y384450D01*
Y381050D02*
X788200D01*
Y384450D01*
X684965Y356790D02*
X691365D01*
Y360190D01*
X684965D02*
X691365D01*
X684965Y356790D02*
Y360190D01*
X684715Y338790D02*
X691115D01*
Y342190D01*
X684715D02*
X691115D01*
X684715Y338790D02*
Y342190D01*
Y326790D02*
X691115D01*
Y330190D01*
X684715D02*
X691115D01*
X684715Y326790D02*
Y330190D01*
X777615Y267290D02*
Y273690D01*
X774214D02*
X777615D01*
X774214Y267290D02*
Y273690D01*
Y267290D02*
X777615D01*
X704510Y271540D02*
Y274940D01*
X698110Y271540D02*
X704510D01*
X698110D02*
Y274940D01*
X704510D01*
X684715Y320790D02*
X691115D01*
Y324190D01*
X684715D02*
X691115D01*
X684715Y320790D02*
Y324190D01*
X800715Y306190D02*
X807114D01*
X800715Y302790D02*
Y306190D01*
Y302790D02*
X807114D01*
Y306190D01*
X753615Y267290D02*
Y273690D01*
X750214D02*
X753615D01*
X750214Y267290D02*
Y273690D01*
Y267290D02*
X753615D01*
X741615D02*
Y273690D01*
X738214D02*
X741615D01*
X738214Y267290D02*
Y273690D01*
Y267290D02*
X741615D01*
X704565Y384290D02*
Y390690D01*
Y384290D02*
X707965D01*
Y390690D01*
X704565D02*
X707965D01*
X720715Y382790D02*
X727114D01*
Y386190D01*
X720715D02*
X727114D01*
X720715Y382790D02*
Y386190D01*
X739115Y382790D02*
Y386190D01*
X732715Y382790D02*
X739115D01*
X732715D02*
Y386190D01*
X739115D01*
X454444Y392690D02*
X457844D01*
Y386290D02*
Y392690D01*
X454444Y386290D02*
X457844D01*
X454444D02*
Y392690D01*
X425935Y255797D02*
Y262197D01*
X422535D02*
X425935D01*
X422535Y255797D02*
Y262197D01*
Y255797D02*
X425935D01*
X480065Y303290D02*
Y306690D01*
X473665Y303290D02*
X480065D01*
X473665D02*
Y306690D01*
X480065D01*
Y311790D02*
Y315190D01*
X473665Y311790D02*
X480065D01*
X473665D02*
Y315190D01*
X480065D01*
X344528Y288709D02*
X347928D01*
X344528D02*
Y295109D01*
X347928D01*
Y288709D02*
Y295109D01*
X341928Y288709D02*
Y295109D01*
X338528D02*
X341928D01*
X338528Y288709D02*
Y295109D01*
Y288709D02*
X341928D01*
X746600Y125850D02*
X752200D01*
X746600Y136450D02*
X746600Y125850D01*
X746600Y136450D02*
X752200D01*
X752200Y125850D02*
X752200Y136450D01*
X743187Y535600D02*
X753787Y535600D01*
Y541200D01*
X743187Y541200D02*
X753787Y541200D01*
X743187Y535600D02*
Y541200D01*
X745950Y648650D02*
X751550D01*
Y638050D02*
Y648650D01*
X745950Y638050D02*
X751550D01*
X745950D02*
Y648650D01*
X732950D02*
X738550D01*
Y638050D02*
Y648650D01*
X732950Y638050D02*
X738550D01*
X732950D02*
Y648650D01*
X764187Y541200D02*
X774787Y541200D01*
X764187Y535600D02*
Y541200D01*
Y535600D02*
X774787Y535600D01*
Y541200D01*
X723187Y541200D02*
X733787Y541200D01*
X723187Y535600D02*
Y541200D01*
Y535600D02*
X733787Y535600D01*
Y541200D01*
X759950Y648650D02*
X765550D01*
Y638050D02*
Y648650D01*
X759950Y638050D02*
X765550D01*
X759950D02*
Y648650D01*
X701065Y384190D02*
Y394790D01*
X695465D02*
X701065D01*
X695465Y384190D02*
Y394790D01*
Y384190D02*
X701065D01*
X442285Y248947D02*
Y254547D01*
X431685Y248947D02*
X442285Y248947D01*
X431685Y248947D02*
Y254547D01*
X442285Y254547D01*
X267430Y218243D02*
X274218Y211455D01*
X261773Y199010D02*
X274218Y211455D01*
X254985Y205798D02*
X261773Y199010D01*
X254985Y205798D02*
X267430Y218243D01*
X288430D02*
X295218Y211455D01*
X282773Y199010D02*
X295218Y211455D01*
X275985Y205798D02*
X282773Y199010D01*
X275985Y205798D02*
X288430Y218243D01*
X309430D02*
X316218Y211455D01*
X303773Y199010D02*
X316218Y211455D01*
X296985Y205798D02*
X303773Y199010D01*
X296985Y205798D02*
X309430Y218243D01*
X330430D02*
X337218Y211455D01*
X324773Y199010D02*
X337218Y211455D01*
X317985Y205798D02*
X324773Y199010D01*
X317985Y205798D02*
X330430Y218243D01*
X351430D02*
X358218Y211455D01*
X345773Y199010D02*
X358218Y211455D01*
X338985Y205798D02*
X345773Y199010D01*
X338985Y205798D02*
X351430Y218243D01*
X359985Y205798D02*
X372430Y218243D01*
X359985Y205798D02*
X366773Y199010D01*
X379218Y211455D01*
X372430Y218243D02*
X379218Y211455D01*
X393430Y218243D02*
X400218Y211455D01*
X387773Y199010D02*
X400218Y211455D01*
X380985Y205798D02*
X387773Y199010D01*
X380985Y205798D02*
X393430Y218243D01*
X414430D02*
X421218Y211455D01*
X408773Y199010D02*
X421218Y211455D01*
X401985Y205798D02*
X408773Y199010D01*
X401985Y205798D02*
X414430Y218243D01*
X435430D02*
X442218Y211455D01*
X429773Y199010D02*
X442218Y211455D01*
X422985Y205798D02*
X429773Y199010D01*
X422985Y205798D02*
X435430Y218243D01*
X456430D02*
X463218Y211455D01*
X450773Y199010D02*
X463218Y211455D01*
X443985Y205798D02*
X450773Y199010D01*
X443985Y205798D02*
X456430Y218243D01*
X477430D02*
X484218Y211455D01*
X471773Y199010D02*
X484218Y211455D01*
X464985Y205798D02*
X471773Y199010D01*
X464985Y205798D02*
X477430Y218243D01*
X498430D02*
X505218Y211455D01*
X492773Y199010D02*
X505218Y211455D01*
X485985Y205798D02*
X492773Y199010D01*
X485985Y205798D02*
X498430Y218243D01*
X519430D02*
X526218Y211455D01*
X513773Y199010D02*
X526218Y211455D01*
X506985Y205798D02*
X513773Y199010D01*
X506985Y205798D02*
X519430Y218243D01*
X267430Y197243D02*
X274218Y190455D01*
X261773Y178010D02*
X274218Y190455D01*
X254985Y184798D02*
X261773Y178010D01*
X254985Y184798D02*
X267430Y197243D01*
X288430D02*
X295218Y190455D01*
X282773Y178010D02*
X295218Y190455D01*
X275984Y184798D02*
X282773Y178010D01*
X275984Y184798D02*
X288430Y197243D01*
X309430D02*
X316218Y190455D01*
X303773Y178010D02*
X316218Y190455D01*
X296985Y184798D02*
X303773Y178010D01*
X296985Y184798D02*
X309430Y197243D01*
X330430D02*
X337218Y190455D01*
X324773Y178010D02*
X337218Y190455D01*
X317985Y184798D02*
X324773Y178010D01*
X317985Y184798D02*
X330430Y197243D01*
X351430D02*
X358218Y190455D01*
X345773Y178010D02*
X358218Y190455D01*
X338984Y184798D02*
X345773Y178010D01*
X338984Y184798D02*
X351430Y197243D01*
X372430D02*
X379218Y190455D01*
X366773Y178010D02*
X379218Y190455D01*
X359985Y184798D02*
X366773Y178010D01*
X359985Y184798D02*
X372430Y197243D01*
X393430D02*
X400218Y190455D01*
X387773Y178010D02*
X400218Y190455D01*
X380985Y184798D02*
X387773Y178010D01*
X380985Y184798D02*
X393430Y197243D01*
X414430D02*
X421218Y190455D01*
X408773Y178010D02*
X421218Y190455D01*
X401984Y184798D02*
X408773Y178010D01*
X401984Y184798D02*
X414430Y197243D01*
X435430D02*
X442218Y190455D01*
X429773Y178010D02*
X442218Y190455D01*
X422985Y184798D02*
X429773Y178010D01*
X422985Y184798D02*
X435430Y197243D01*
X456430D02*
X463218Y190455D01*
X450773Y178010D02*
X463218Y190455D01*
X443985Y184798D02*
X450773Y178010D01*
X443985Y184798D02*
X456430Y197243D01*
X477430D02*
X484218Y190455D01*
X471773Y178010D02*
X484218Y190455D01*
X464985Y184798D02*
X471773Y178010D01*
X464985Y184798D02*
X477430Y197243D01*
X498430D02*
X505218Y190455D01*
X492773Y178010D02*
X505218Y190455D01*
X485985Y184798D02*
X492773Y178010D01*
X485985Y184798D02*
X498430Y197243D01*
X519430D02*
X526218Y190455D01*
X513773Y178010D02*
X526218Y190455D01*
X506985Y184798D02*
X513773Y178010D01*
X506985Y184798D02*
X519430Y197243D01*
X267430Y176243D02*
X274218Y169455D01*
X261773Y157010D02*
X274218Y169455D01*
X254985Y163798D02*
X261773Y157010D01*
X254985Y163798D02*
X267430Y176243D01*
X288430D02*
X295218Y169455D01*
X282773Y157010D02*
X295218Y169455D01*
X275985Y163798D02*
X282773Y157010D01*
X275985Y163798D02*
X288430Y176243D01*
X309430D02*
X316218Y169455D01*
X303773Y157010D02*
X316218Y169455D01*
X296985Y163798D02*
X303773Y157010D01*
X296985Y163798D02*
X309430Y176243D01*
X330430D02*
X337218Y169455D01*
X324773Y157010D02*
X337218Y169455D01*
X317985Y163798D02*
X324773Y157010D01*
X317985Y163798D02*
X330430Y176243D01*
X351430D02*
X358218Y169455D01*
X345773Y157010D02*
X358218Y169455D01*
X338985Y163798D02*
X345773Y157010D01*
X338985Y163798D02*
X351430Y176243D01*
X372430D02*
X379218Y169455D01*
X366773Y157010D02*
X379218Y169455D01*
X359985Y163798D02*
X366773Y157010D01*
X359985Y163798D02*
X372430Y176243D01*
X393430D02*
X400218Y169455D01*
X387773Y157010D02*
X400218Y169455D01*
X380985Y163798D02*
X387773Y157010D01*
X380985Y163798D02*
X393430Y176243D01*
X414430D02*
X421218Y169455D01*
X408773Y157010D02*
X421218Y169455D01*
X401984Y163798D02*
X408773Y157010D01*
X401984Y163798D02*
X414430Y176243D01*
X435430D02*
X442218Y169455D01*
X429773Y157010D02*
X442218Y169455D01*
X422985Y163798D02*
X429773Y157010D01*
X422985Y163798D02*
X435430Y176243D01*
X456430D02*
X463218Y169455D01*
X450773Y157010D02*
X463218Y169455D01*
X443984Y163798D02*
X450773Y157010D01*
X443984Y163798D02*
X456430Y176243D01*
X477430D02*
X484218Y169455D01*
X471773Y157010D02*
X484218Y169455D01*
X464985Y163798D02*
X471773Y157010D01*
X464985Y163798D02*
X477430Y176243D01*
X498430D02*
X505218Y169455D01*
X492773Y157010D02*
X505218Y169455D01*
X485985Y163798D02*
X492773Y157010D01*
X485985Y163798D02*
X498430Y176243D01*
X519430D02*
X526218Y169455D01*
X513773Y157010D02*
X526218Y169455D01*
X506985Y163798D02*
X513773Y157010D01*
X506985Y163798D02*
X519430Y176243D01*
X254985Y142798D02*
X267430Y155243D01*
X254985Y142798D02*
X261773Y136010D01*
X274218Y148455D01*
X267430Y155243D02*
X274218Y148455D01*
X288430Y155243D02*
X295218Y148455D01*
X282773Y136010D02*
X295218Y148455D01*
X275984Y142798D02*
X282773Y136010D01*
X275984Y142798D02*
X288430Y155243D01*
X309430D02*
X316218Y148455D01*
X303773Y136010D02*
X316218Y148455D01*
X296985Y142798D02*
X303773Y136010D01*
X296985Y142798D02*
X309430Y155243D01*
X330430D02*
X337218Y148455D01*
X324773Y136010D02*
X337218Y148455D01*
X317985Y142798D02*
X324773Y136010D01*
X317985Y142798D02*
X330430Y155243D01*
X351430D02*
X358218Y148455D01*
X345773Y136010D02*
X358218Y148455D01*
X338984Y142798D02*
X345773Y136010D01*
X338984Y142798D02*
X351430Y155243D01*
X372430D02*
X379218Y148455D01*
X366773Y136010D02*
X379218Y148455D01*
X359985Y142798D02*
X366773Y136010D01*
X359985Y142798D02*
X372430Y155243D01*
X393430D02*
X400218Y148455D01*
X387773Y136010D02*
X400218Y148455D01*
X380985Y142798D02*
X387773Y136010D01*
X380985Y142798D02*
X393430Y155243D01*
X414430D02*
X421218Y148455D01*
X408773Y136010D02*
X421218Y148455D01*
X401984Y142798D02*
X408773Y136010D01*
X401984Y142798D02*
X414430Y155243D01*
X435430D02*
X442218Y148455D01*
X429773Y136010D02*
X442218Y148455D01*
X422985Y142798D02*
X429773Y136010D01*
X422985Y142798D02*
X435430Y155243D01*
X456430D02*
X463218Y148455D01*
X450773Y136010D02*
X463218Y148455D01*
X443985Y142798D02*
X450773Y136010D01*
X443985Y142798D02*
X456430Y155243D01*
X477430D02*
X484218Y148455D01*
X471773Y136010D02*
X484218Y148455D01*
X464985Y142798D02*
X471773Y136010D01*
X464985Y142798D02*
X477430Y155243D01*
X485985Y142798D02*
X498430Y155243D01*
X485985Y142798D02*
X492773Y136010D01*
X505218Y148455D01*
X498430Y155243D02*
X505218Y148455D01*
X519430Y155243D02*
X526218Y148455D01*
X513773Y136010D02*
X526218Y148455D01*
X506985Y142798D02*
X513773Y136010D01*
X506985Y142798D02*
X519430Y155243D01*
X267430Y134243D02*
X274218Y127455D01*
X261773Y115010D02*
X274218Y127455D01*
X254985Y121798D02*
X261773Y115010D01*
X254985Y121798D02*
X267430Y134243D01*
X288430D02*
X295218Y127455D01*
X282773Y115010D02*
X295218Y127455D01*
X275984Y121798D02*
X282773Y115010D01*
X275984Y121798D02*
X288430Y134243D01*
X309430D02*
X316218Y127455D01*
X303773Y115010D02*
X316218Y127455D01*
X296985Y121798D02*
X303773Y115010D01*
X296985Y121798D02*
X309430Y134243D01*
X330430D02*
X337218Y127455D01*
X324773Y115010D02*
X337218Y127455D01*
X317985Y121798D02*
X324773Y115010D01*
X317985Y121798D02*
X330430Y134243D01*
X351430D02*
X358218Y127455D01*
X345773Y115010D02*
X358218Y127455D01*
X338984Y121798D02*
X345773Y115010D01*
X338984Y121798D02*
X351430Y134243D01*
X372430D02*
X379218Y127455D01*
X366773Y115010D02*
X379218Y127455D01*
X359985Y121798D02*
X366773Y115010D01*
X359985Y121798D02*
X372430Y134243D01*
X393430D02*
X400218Y127455D01*
X387773Y115010D02*
X400218Y127455D01*
X380985Y121798D02*
X387773Y115010D01*
X380985Y121798D02*
X393430Y134243D01*
X414430D02*
X421218Y127455D01*
X408773Y115010D02*
X421218Y127455D01*
X401984Y121798D02*
X408773Y115010D01*
X401984Y121798D02*
X414430Y134243D01*
X435430D02*
X442218Y127455D01*
X429773Y115010D02*
X442218Y127455D01*
X422985Y121798D02*
X429773Y115010D01*
X422985Y121798D02*
X435430Y134243D01*
X456430D02*
X463218Y127455D01*
X450773Y115010D02*
X463218Y127455D01*
X443985Y121798D02*
X450773Y115010D01*
X443985Y121798D02*
X456430Y134243D01*
X477430D02*
X484218Y127455D01*
X471773Y115010D02*
X484218Y127455D01*
X464985Y121798D02*
X471773Y115010D01*
X464985Y121798D02*
X477430Y134243D01*
X498430D02*
X505218Y127455D01*
X492773Y115010D02*
X505218Y127455D01*
X485985Y121798D02*
X492773Y115010D01*
X485985Y121798D02*
X498430Y134243D01*
X519430D02*
X526218Y127455D01*
X513773Y115010D02*
X526218Y127455D01*
X506985Y121798D02*
X513773Y115010D01*
X506985Y121798D02*
X519430Y134243D01*
X267430Y113243D02*
X274218Y106455D01*
X261773Y94010D02*
X274218Y106455D01*
X254985Y100798D02*
X261773Y94010D01*
X254985Y100798D02*
X267430Y113243D01*
X288430D02*
X295218Y106455D01*
X282773Y94010D02*
X295218Y106455D01*
X275984Y100798D02*
X282773Y94010D01*
X275984Y100798D02*
X288430Y113243D01*
X309430D02*
X316218Y106455D01*
X303773Y94010D02*
X316218Y106455D01*
X296985Y100798D02*
X303773Y94010D01*
X296985Y100798D02*
X309430Y113243D01*
X317985Y100798D02*
X330430Y113243D01*
X317985Y100798D02*
X324773Y94010D01*
X337218Y106455D01*
X330430Y113243D02*
X337218Y106455D01*
X351430Y113243D02*
X358218Y106455D01*
X345773Y94010D02*
X358218Y106455D01*
X338984Y100798D02*
X345773Y94010D01*
X338984Y100798D02*
X351430Y113243D01*
X372430D02*
X379218Y106455D01*
X366773Y94010D02*
X379218Y106455D01*
X359985Y100798D02*
X366773Y94010D01*
X359985Y100798D02*
X372430Y113243D01*
X393430D02*
X400218Y106455D01*
X387773Y94010D02*
X400218Y106455D01*
X380985Y100798D02*
X387773Y94010D01*
X380985Y100798D02*
X393430Y113243D01*
X414430D02*
X421218Y106455D01*
X408773Y94010D02*
X421218Y106455D01*
X401984Y100798D02*
X408773Y94010D01*
X401984Y100798D02*
X414430Y113243D01*
X422985Y100798D02*
X435430Y113243D01*
X422985Y100798D02*
X429773Y94010D01*
X442218Y106455D01*
X435430Y113243D02*
X442218Y106455D01*
X456430Y113243D02*
X463218Y106455D01*
X450773Y94010D02*
X463218Y106455D01*
X443985Y100798D02*
X450773Y94010D01*
X443985Y100798D02*
X456430Y113243D01*
X477430D02*
X484218Y106455D01*
X471773Y94010D02*
X484218Y106455D01*
X464985Y100798D02*
X471773Y94010D01*
X464985Y100798D02*
X477430Y113243D01*
X498430D02*
X505218Y106455D01*
X492773Y94010D02*
X505218Y106455D01*
X485985Y100798D02*
X492773Y94010D01*
X485985Y100798D02*
X498430Y113243D01*
X519430D02*
X526218Y106455D01*
X513773Y94010D02*
X526218Y106455D01*
X506985Y100798D02*
X513773Y94010D01*
X506985Y100798D02*
X519430Y113243D01*
X267430Y92243D02*
X274218Y85455D01*
X261773Y73010D02*
X274218Y85455D01*
X254985Y79798D02*
X261773Y73010D01*
X254985Y79798D02*
X267430Y92243D01*
X288430D02*
X295218Y85455D01*
X282773Y73010D02*
X295218Y85455D01*
X275984Y79798D02*
X282773Y73010D01*
X275984Y79798D02*
X288430Y92243D01*
X309430D02*
X316218Y85455D01*
X303773Y73010D02*
X316218Y85455D01*
X296985Y79798D02*
X303773Y73010D01*
X296985Y79798D02*
X309430Y92243D01*
X330430D02*
X337218Y85455D01*
X324773Y73010D02*
X337218Y85455D01*
X317985Y79798D02*
X324773Y73010D01*
X317985Y79798D02*
X330430Y92243D01*
X351430D02*
X358218Y85455D01*
X345773Y73010D02*
X358218Y85455D01*
X338984Y79798D02*
X345773Y73010D01*
X338984Y79798D02*
X351430Y92243D01*
X372430D02*
X379218Y85455D01*
X366773Y73010D02*
X379218Y85455D01*
X359985Y79798D02*
X366773Y73010D01*
X359985Y79798D02*
X372430Y92243D01*
X393430D02*
X400218Y85455D01*
X387773Y73010D02*
X400218Y85455D01*
X380985Y79798D02*
X387773Y73010D01*
X380985Y79798D02*
X393430Y92243D01*
X414430D02*
X421218Y85455D01*
X408773Y73010D02*
X421218Y85455D01*
X401985Y79798D02*
X408773Y73010D01*
X401985Y79798D02*
X414430Y92243D01*
X422985Y79798D02*
X435430Y92243D01*
X422985Y79798D02*
X429773Y73010D01*
X442218Y85455D01*
X435430Y92243D02*
X442218Y85455D01*
X456430Y92243D02*
X463218Y85455D01*
X450773Y73010D02*
X463218Y85455D01*
X443985Y79798D02*
X450773Y73010D01*
X443985Y79798D02*
X456430Y92243D01*
X477430D02*
X484218Y85455D01*
X471773Y73010D02*
X484218Y85455D01*
X464985Y79798D02*
X471773Y73010D01*
X464985Y79798D02*
X477430Y92243D01*
X498430D02*
X505218Y85455D01*
X492773Y73010D02*
X505218Y85455D01*
X485985Y79798D02*
X492773Y73010D01*
X485985Y79798D02*
X498430Y92243D01*
X519430D02*
X526218Y85455D01*
X513773Y73010D02*
X526218Y85455D01*
X506985Y79798D02*
X513773Y73010D01*
X506985Y79798D02*
X519430Y92243D01*
X267430Y71243D02*
X274218Y64455D01*
X261773Y52010D02*
X274218Y64455D01*
X254985Y58798D02*
X261773Y52010D01*
X254985Y58798D02*
X267430Y71243D01*
X288430D02*
X295218Y64455D01*
X282773Y52010D02*
X295218Y64455D01*
X275984Y58798D02*
X282773Y52010D01*
X275984Y58798D02*
X288430Y71243D01*
X309430D02*
X316218Y64455D01*
X303773Y52010D02*
X316218Y64455D01*
X296985Y58798D02*
X303773Y52010D01*
X296985Y58798D02*
X309430Y71243D01*
X330430D02*
X337218Y64455D01*
X324773Y52010D02*
X337218Y64455D01*
X317985Y58798D02*
X324773Y52010D01*
X317985Y58798D02*
X330430Y71243D01*
X351430D02*
X358218Y64455D01*
X345773Y52010D02*
X358218Y64455D01*
X338984Y58798D02*
X345773Y52010D01*
X338984Y58798D02*
X351430Y71243D01*
X372430D02*
X379218Y64455D01*
X366773Y52010D02*
X379218Y64455D01*
X359985Y58798D02*
X366773Y52010D01*
X359985Y58798D02*
X372430Y71243D01*
X380985Y58798D02*
X393430Y71243D01*
X380985Y58798D02*
X387773Y52010D01*
X400218Y64455D01*
X393430Y71243D02*
X400218Y64455D01*
X414430Y71243D02*
X421218Y64455D01*
X408773Y52010D02*
X421218Y64455D01*
X401984Y58798D02*
X408773Y52010D01*
X401984Y58798D02*
X414430Y71243D01*
X435430D02*
X442218Y64455D01*
X429773Y52010D02*
X442218Y64455D01*
X422985Y58798D02*
X429773Y52010D01*
X422985Y58798D02*
X435430Y71243D01*
X456430D02*
X463218Y64455D01*
X450773Y52010D02*
X463218Y64455D01*
X443985Y58798D02*
X450773Y52010D01*
X443985Y58798D02*
X456430Y71243D01*
X477430D02*
X484218Y64455D01*
X471773Y52010D02*
X484218Y64455D01*
X464985Y58798D02*
X471773Y52010D01*
X464985Y58798D02*
X477430Y71243D01*
X498430D02*
X505218Y64455D01*
X492773Y52010D02*
X505218Y64455D01*
X485985Y58798D02*
X492773Y52010D01*
X485985Y58798D02*
X498430Y71243D01*
X519430D02*
X526218Y64455D01*
X513773Y52010D02*
X526218Y64455D01*
X506985Y58798D02*
X513773Y52010D01*
X506985Y58798D02*
X519430Y71243D01*
X245700Y1412000D02*
X260300Y1412000D01*
Y1390000D02*
Y1412000D01*
X245700Y1390000D02*
X260300D01*
X245700D02*
X245700Y1412000D01*
X225700Y1412000D02*
X240300D01*
Y1390000D02*
Y1412000D01*
X225700Y1390000D02*
X240300D01*
X225700D02*
Y1412000D01*
X854341Y63300D02*
Y77900D01*
X832341Y63300D02*
X854341D01*
X832341D02*
Y77900D01*
X854341D01*
X98635Y1116450D02*
X98635Y1110850D01*
X98635Y1116450D02*
X109235D01*
X109235Y1110850D02*
X109235Y1116450D01*
X98635Y1110850D02*
X109235D01*
X59500Y996350D02*
X81500D01*
Y1010950D01*
X59500D02*
X81500D01*
X59500Y996350D02*
X59500Y1010950D01*
X59500Y1243350D02*
X81500D01*
Y1257950D01*
X59500Y1257950D02*
X81500Y1257950D01*
X59500Y1257950D02*
X59500Y1243350D01*
X59500Y1223350D02*
X81500Y1223350D01*
Y1237950D01*
X59500Y1237950D02*
X81500Y1237950D01*
X59500Y1223350D02*
Y1237950D01*
X63050Y1219450D02*
X63050Y1213850D01*
X63050Y1219450D02*
X73650D01*
X73650Y1213850D01*
X63050Y1213850D02*
X73650Y1213850D01*
X8300Y1072850D02*
X11700Y1072850D01*
X11700Y1066450D02*
X11700Y1072850D01*
X8300Y1066450D02*
X11700D01*
X8300D02*
Y1072850D01*
X173700Y1211150D02*
Y1233150D01*
Y1211150D02*
X188300D01*
Y1233150D01*
X173700D02*
X188300D01*
X188300Y1136150D02*
Y1158150D01*
X173700Y1158150D02*
X188300Y1158150D01*
X173700Y1136150D02*
Y1158150D01*
Y1136150D02*
X188300Y1136150D01*
X205700Y1412000D02*
X220300Y1412000D01*
X220300Y1390000D01*
X205700D02*
X220300D01*
X205700D02*
Y1412000D01*
X17800Y1080350D02*
X17800Y1076950D01*
X17800Y1080350D02*
X24200Y1080350D01*
Y1076950D02*
Y1080350D01*
X17800Y1076950D02*
X24200Y1076950D01*
X98635Y1230109D02*
X98635Y1224509D01*
X98635Y1230109D02*
X109235D01*
X109235Y1224509D01*
X98635Y1224509D02*
X109235Y1224509D01*
X59500Y1016350D02*
X81500Y1016350D01*
Y1030950D01*
X59500Y1030950D02*
X81500Y1030950D01*
X59500Y1016350D02*
X59500Y1030950D01*
X59495Y1110350D02*
X81495Y1110350D01*
X81495Y1124950D02*
X81495Y1110350D01*
X59495Y1124950D02*
X81495D01*
X59495D02*
X59495Y1110350D01*
X59495Y1131350D02*
X81495Y1131350D01*
Y1145950D01*
X59495D02*
X81495D01*
X59495D02*
X59495Y1131350D01*
X63045Y1100850D02*
Y1106450D01*
X73645Y1106450D01*
X73645Y1100850D01*
X63045D02*
X73645D01*
X17800Y1189950D02*
Y1193350D01*
X24200Y1193350D01*
Y1189950D02*
Y1193350D01*
X17800Y1189950D02*
X24200Y1189950D01*
X98635Y977455D02*
X98635Y971855D01*
X98635Y977455D02*
X109235D01*
X109235Y971855D02*
X109235Y977455D01*
X98635Y971855D02*
X109235D01*
X59500Y968355D02*
X81500D01*
Y982955D01*
X59500Y982955D02*
X81500Y982955D01*
X59500Y968355D02*
Y982955D01*
X59500Y876355D02*
X81500D01*
Y890955D01*
X59500D02*
X81500D01*
X59500Y876355D02*
X59500Y890955D01*
X63050Y958355D02*
Y963955D01*
X73650D01*
X73650Y958355D02*
X73650Y963955D01*
X63050Y958355D02*
X73650Y958355D01*
X8300Y930855D02*
X11700D01*
Y924455D02*
Y930855D01*
X8300Y924455D02*
X11700D01*
X8300D02*
Y930855D01*
X173700Y956155D02*
Y978155D01*
Y956155D02*
X188300D01*
Y978155D01*
X173700D02*
X188300D01*
X188300Y881155D02*
Y903155D01*
X173700D02*
X188300D01*
X173700Y881155D02*
X173700Y903155D01*
X173700Y881155D02*
X188300D01*
X17800Y934955D02*
X17800Y938355D01*
X24200D01*
Y934955D02*
Y938355D01*
X17800Y934955D02*
X24200D01*
X319500Y1386200D02*
Y1400800D01*
X297500Y1386200D02*
X319500D01*
X297500D02*
Y1400800D01*
X319500D01*
X85878Y790712D02*
X96478Y790712D01*
X85878Y785112D02*
Y790712D01*
Y785112D02*
X96478D01*
X96478Y790712D02*
X96478Y785112D01*
X115678Y761712D02*
X115678Y747112D01*
X115678Y761712D02*
X137678Y761712D01*
Y747112D02*
Y761712D01*
X115678Y747112D02*
X137678D01*
X121228Y765712D02*
X127628Y765712D01*
Y769112D01*
X121228Y769112D02*
X127628Y769112D01*
X121228Y765712D02*
Y769112D01*
X121228Y799712D02*
X127628Y799712D01*
X127628Y803112D02*
X127628Y799712D01*
X121228Y803112D02*
X127628Y803112D01*
X121228Y799712D02*
X121228Y803112D01*
X103678Y840712D02*
X103678Y826112D01*
X103678Y840712D02*
X125678D01*
X125678Y826112D02*
X125678Y840712D01*
X103678Y826112D02*
X125678D01*
X98378Y773612D02*
X98378Y767212D01*
X94978Y773612D02*
X98378Y773612D01*
X94978Y773612D02*
X94978Y767212D01*
X98378D01*
X745510Y215590D02*
X760110D01*
X745510D02*
Y237590D01*
X760110D01*
Y215590D02*
Y237590D01*
X741510Y216140D02*
Y222540D01*
X738110D02*
X741510D01*
X738110D02*
X738110Y216140D01*
X741510Y216140D01*
X707260Y219290D02*
X707260Y212890D01*
X703860Y219290D02*
X707260Y219290D01*
X703860Y212890D02*
X703860Y219290D01*
X703860Y212890D02*
X707260D01*
X665510Y198590D02*
X680110D01*
X665510D02*
X665510Y220590D01*
X680110Y220590D01*
Y198590D02*
Y220590D01*
X734510Y193390D02*
Y196790D01*
X728110Y193390D02*
X734510D01*
X728110Y196790D02*
X728110Y193390D01*
X728110Y196790D02*
X734510D01*
X713510Y183790D02*
Y194390D01*
Y183790D02*
X719110Y183790D01*
Y194390D01*
X713510Y194390D02*
X719110Y194390D01*
X17800Y1093350D02*
X17800Y1089950D01*
X17800Y1093350D02*
X24200Y1093350D01*
X24200Y1089950D02*
X24200Y1093350D01*
X17800Y1089950D02*
X24200Y1089950D01*
X17800Y1207350D02*
X17800Y1203950D01*
X17800Y1207350D02*
X24200Y1207350D01*
X24200Y1203950D01*
X17800Y1203950D02*
X24200Y1203950D01*
X421961Y672300D02*
Y678700D01*
X418561Y678700D02*
X421961Y678700D01*
X418561Y672300D02*
X418561Y678700D01*
X418561Y672300D02*
X421961D01*
X331961Y678700D02*
X331961Y672300D01*
X328561Y678700D02*
X331961D01*
X328561D02*
X328561Y672300D01*
X331961D01*
X186199D02*
Y678700D01*
X182799D02*
X186199D01*
X182799D02*
X182799Y672300D01*
X186199D01*
X418561Y652800D02*
Y659200D01*
Y652800D02*
X421961Y652800D01*
X421961Y659200D01*
X418561D02*
X421961D01*
X328561D02*
X328561Y652800D01*
X331961D01*
X331961Y659200D02*
X331961Y652800D01*
X328561Y659200D02*
X331961D01*
X182799Y652800D02*
Y659201D01*
Y652800D02*
X186199Y652800D01*
Y659200D01*
X182799Y659201D02*
X186199Y659200D01*
X349349Y662300D02*
X359949D01*
X349349Y656700D02*
Y662300D01*
Y656700D02*
X359949D01*
Y662300D01*
X258587Y662300D02*
X269187D01*
X258587Y656700D02*
Y662300D01*
Y656700D02*
X269187D01*
X269187Y662300D02*
X269187Y656700D01*
X114349Y662300D02*
X124949Y662300D01*
X114349Y656700D02*
X114349Y662300D01*
X114349Y656700D02*
X124949Y656700D01*
Y662300D01*
X253500Y1420700D02*
Y1435300D01*
X275500D01*
Y1420700D02*
Y1435300D01*
X253500Y1420700D02*
X275500D01*
X265700Y1412000D02*
X280300Y1412000D01*
Y1390000D02*
Y1412000D01*
X265700Y1390000D02*
X280300Y1390000D01*
X265700Y1390000D02*
Y1412000D01*
X365107Y243036D02*
Y249436D01*
X361707D02*
X365107D01*
X361707Y243036D02*
Y249436D01*
Y243036D02*
X365107D01*
X103678Y807112D02*
X103678Y821712D01*
X125678Y821712D01*
Y807112D02*
Y821712D01*
X103678Y807112D02*
X125678Y807112D01*
X334473Y427047D02*
Y430447D01*
X328073Y427047D02*
X334473D01*
X328073D02*
Y430447D01*
X334473D01*
X329080Y279102D02*
X332480D01*
X332480Y272702D01*
X329080D02*
X332480D01*
X329080Y279102D02*
X329080Y272702D01*
X355261Y434447D02*
Y449047D01*
X333261Y434447D02*
X355261D01*
X333261D02*
Y449047D01*
X355261D01*
X343733Y425055D02*
X358333D01*
Y403055D02*
Y425055D01*
X343733Y403055D02*
X358333D01*
X343733D02*
Y425055D01*
X339438Y267462D02*
Y273862D01*
Y267462D02*
X342838D01*
Y273862D01*
X339438D02*
X342838D01*
X109000Y1357300D02*
X131000D01*
X109000Y1342700D02*
Y1357300D01*
Y1342700D02*
X131000D01*
Y1357300D01*
X175700Y1339000D02*
X190300D01*
X175700D02*
Y1361000D01*
X190300D01*
Y1339000D02*
Y1361000D01*
X48000Y1384700D02*
X70000D01*
Y1399300D01*
X48000D02*
X70000D01*
X48000Y1384700D02*
Y1399300D01*
X48000Y1420300D02*
X70000Y1420300D01*
X48000Y1405700D02*
Y1420300D01*
Y1405700D02*
X70000D01*
X70000Y1420300D01*
X155539Y1290692D02*
X161939D01*
X155539Y1287292D02*
X155539Y1290692D01*
X155539Y1287292D02*
X161939Y1287292D01*
Y1290692D01*
X129939Y1311692D02*
Y1322292D01*
Y1311692D02*
X135539D01*
X135539Y1322292D01*
X129939Y1322292D02*
X135539Y1322292D01*
X684510Y198590D02*
X699110Y198590D01*
X684510Y198590D02*
Y220590D01*
X699110D01*
Y198590D02*
Y220590D01*
X188300Y1023150D02*
X188300Y1045150D01*
X173700Y1045150D02*
X188300Y1045150D01*
X173700Y1023150D02*
X173700Y1045150D01*
X173700Y1023150D02*
X188300Y1023150D01*
X136750Y1028950D02*
X158750D01*
X136750Y1014350D02*
Y1028950D01*
Y1014350D02*
X158750D01*
Y1028950D01*
X992061Y654290D02*
Y663890D01*
X974461Y654290D02*
X992061D01*
X974461D02*
Y663890D01*
X992061D01*
X136750Y1145950D02*
X158750D01*
X136750Y1131350D02*
Y1145950D01*
Y1131350D02*
X158750Y1131350D01*
X158750Y1145950D01*
X136750Y1239950D02*
X158750D01*
X136750D02*
X136750Y1225350D01*
X158750Y1225350D01*
Y1239950D01*
X136750Y1124950D02*
X158750Y1124950D01*
X136750Y1110350D02*
X136750Y1124950D01*
X136750Y1110350D02*
X158750Y1110350D01*
X158750Y1124950D02*
X158750Y1110350D01*
X173700Y1098150D02*
Y1120150D01*
Y1098150D02*
X188300Y1098150D01*
X188300Y1120150D01*
X173700Y1120150D02*
X188300Y1120150D01*
X63045Y1155450D02*
X63045Y1149850D01*
X63045Y1155450D02*
X73645Y1155450D01*
Y1149850D02*
Y1155450D01*
X63045Y1149850D02*
X73645Y1149850D01*
X63050Y1036850D02*
Y1042450D01*
X73650Y1042450D01*
X73650Y1036850D02*
X73650Y1042450D01*
X63050Y1036850D02*
X73650Y1036850D01*
X63050Y895355D02*
X63050Y900955D01*
X73650D01*
Y895355D02*
Y900955D01*
X63050Y895355D02*
X73650Y895355D01*
X485800Y671301D02*
X489200D01*
X485800D02*
Y677700D01*
X489200D01*
Y671301D02*
Y677700D01*
X485800Y658700D02*
X489200D01*
Y652300D02*
Y658700D01*
X485800Y652300D02*
X489200D01*
X485800D02*
Y658700D01*
X492700Y661800D02*
X498300D01*
Y651200D02*
Y661800D01*
X492700Y651200D02*
X498300D01*
X492700D02*
Y661800D01*
X136750Y888955D02*
X158750D01*
X136750Y874355D02*
Y888955D01*
Y874355D02*
X158750D01*
Y888955D01*
Y970355D02*
Y984955D01*
X136750Y970355D02*
X158750D01*
X136750D02*
Y984955D01*
X158750D01*
X606331Y210490D02*
X616931D01*
Y216090D01*
X606331D02*
X616931D01*
X606331Y210490D02*
X606331Y216090D01*
X564681Y143990D02*
X571081Y143990D01*
X564681Y140590D02*
Y143990D01*
Y140590D02*
X571081Y140590D01*
Y143990D01*
X588181Y140590D02*
X594581D01*
Y143990D01*
X588181Y143990D02*
X594581Y143990D01*
X588181Y140590D02*
X588181Y143990D01*
X566681Y134990D02*
X573082Y134990D01*
X566681Y131590D02*
Y134990D01*
Y131590D02*
X573081Y131590D01*
X573082Y134990D01*
X557181Y167590D02*
X563581Y167590D01*
Y170990D01*
X557181Y170990D02*
X563581Y170990D01*
X557181Y170990D02*
X557181Y167590D01*
X566181Y158990D02*
X572581Y158990D01*
X566181Y155590D02*
Y158990D01*
Y155590D02*
X572581D01*
X572581Y158990D02*
X572581Y155590D01*
X581331Y155340D02*
Y161740D01*
X577932Y161740D02*
X581331Y161740D01*
X577932Y155340D02*
X577932Y161740D01*
X577932Y155340D02*
X581331D01*
X564681Y149990D02*
X571081D01*
X564681Y146590D02*
Y149990D01*
Y146590D02*
X571081Y146590D01*
Y149990D01*
X576181Y151990D02*
X582581D01*
X576181Y148590D02*
X576181Y151990D01*
X576181Y148590D02*
X582581Y148590D01*
Y151990D01*
X587181Y131590D02*
X593581Y131590D01*
X593581Y134990D01*
X587181Y134990D02*
X593581Y134990D01*
X587181Y131590D02*
Y134990D01*
X588181Y146590D02*
Y149990D01*
X594581Y149990D01*
X594581Y146590D02*
X594581Y149990D01*
X588181Y146590D02*
X594581Y146590D01*
X570681Y167590D02*
X577081D01*
Y170990D01*
X570681D02*
X577081D01*
X570681D02*
X570681Y167590D01*
X586681Y155590D02*
X593082Y155590D01*
X593081Y158990D02*
X593082Y155590D01*
X586681Y158990D02*
X593081Y158990D01*
X586681Y155590D02*
Y158990D01*
X538431Y156590D02*
X544832Y156590D01*
Y159990D01*
X538432Y159990D02*
X544832Y159990D01*
X538431Y156590D02*
X538432Y159990D01*
X577932Y127840D02*
X577932Y134240D01*
X577932Y127840D02*
X581331Y127840D01*
X581331Y134240D01*
X577932D02*
X581331D01*
X592431Y193590D02*
X598831Y193590D01*
Y196990D01*
X592431D02*
X598831D01*
X592431Y193590D02*
X592431Y196990D01*
X550432Y193990D02*
X556832Y193990D01*
X550432Y190590D02*
Y193990D01*
Y190590D02*
X556832D01*
Y193990D01*
X597800Y183199D02*
X597800Y176799D01*
X601200Y176799D01*
X601200Y183199D02*
X601200Y176799D01*
X597800Y183199D02*
X601200D01*
X556832Y184590D02*
Y187990D01*
X550431Y184590D02*
X556832Y184590D01*
X550431Y184590D02*
Y187990D01*
X556832Y187990D01*
X538431Y148590D02*
X538431Y151990D01*
X544831D01*
X544832Y148590D01*
X538431Y148590D02*
X544832Y148590D01*
X592431Y187590D02*
X598831D01*
X598831Y190990D02*
X598831Y187590D01*
X592431Y190990D02*
X598831Y190990D01*
X592431Y187590D02*
Y190990D01*
X590800Y183199D02*
X594200D01*
X594200Y176799D01*
X590800D02*
X594200D01*
X590800D02*
X590800Y183199D01*
X582581Y138590D02*
Y141990D01*
X576181Y138590D02*
X582581D01*
X576181D02*
Y141990D01*
X582581Y141990D01*
X177800Y993955D02*
X184200D01*
Y997355D01*
X177800D02*
X184200D01*
X177800Y993955D02*
Y997355D01*
X95665Y1460778D02*
X99065Y1460778D01*
X95665Y1460778D02*
Y1467178D01*
X99065Y1467178D01*
X99065Y1460778D02*
X99065Y1467178D01*
X96165Y1501048D02*
Y1507448D01*
Y1501048D02*
X99565D01*
Y1507448D01*
X96165D02*
X99565D01*
X93665Y1488048D02*
X93665Y1477448D01*
X88065Y1488048D02*
X93665Y1488048D01*
X88065Y1477448D02*
X88065Y1488048D01*
X88065Y1477448D02*
X93665Y1477448D01*
X841610Y266790D02*
Y281390D01*
X819610Y266790D02*
X841610D01*
X819610D02*
Y281390D01*
X841610D01*
X740530Y248670D02*
Y263270D01*
X762530D01*
Y248670D02*
Y263270D01*
X740530Y248670D02*
X762530D01*
X337871Y776789D02*
Y780189D01*
X344271D01*
Y776789D02*
Y780189D01*
X337871Y776789D02*
X344271D01*
X528692Y697447D02*
X532092Y697447D01*
X528692Y703847D02*
X528692Y697447D01*
X528692Y703847D02*
X532092D01*
Y697447D02*
Y703847D01*
X193450Y71540D02*
X199850D01*
Y74940D01*
X193450D02*
X199850D01*
X193450Y71540D02*
Y74940D01*
X189902Y713700D02*
X193302D01*
Y707300D02*
Y713700D01*
X189902Y707300D02*
X193302D01*
X189902D02*
Y713700D01*
X159902Y746900D02*
X163302D01*
X159902D02*
Y753300D01*
X163302D01*
Y746900D02*
Y753300D01*
X482300Y756112D02*
X482300Y749712D01*
X485700D01*
X485700Y756112D02*
X485700Y749712D01*
X482300Y756112D02*
X485700D01*
X488700Y714572D02*
X488700Y708172D01*
X485300Y714572D02*
X488700Y714572D01*
X485300Y708172D02*
Y714572D01*
Y708172D02*
X488700D01*
X529192Y756107D02*
X529192Y749707D01*
X532592D01*
Y756107D01*
X529192D02*
X532592D01*
X532092Y708447D02*
Y714847D01*
X528692D02*
X532092D01*
X528692Y708447D02*
X528692Y714847D01*
X528692Y708447D02*
X532092D01*
X535092Y726387D02*
Y736987D01*
Y726387D02*
X540692Y726387D01*
Y736987D01*
X535092Y736987D02*
X540692Y736987D01*
X111478Y731060D02*
X117878D01*
X111478D02*
X111478Y727660D01*
X117878Y727660D01*
X117878Y731060D01*
X15950Y786990D02*
Y793390D01*
Y786990D02*
X19350D01*
Y793390D01*
X15950D02*
X19350D01*
X91798Y709660D02*
Y716060D01*
Y709660D02*
X95198D01*
Y716060D01*
X91798D02*
X95198D01*
X31450Y765490D02*
X37850Y765490D01*
Y768890D01*
X31450D02*
X37850D01*
X31450Y765490D02*
X31450Y768890D01*
X60350Y807690D02*
X74950D01*
Y785690D02*
Y807690D01*
X60350Y785690D02*
X74950D01*
X60350D02*
Y807690D01*
X64199Y657800D02*
X64199Y643200D01*
X64199Y657800D02*
X86199D01*
Y643200D02*
Y657800D01*
X64199Y643200D02*
X86199D01*
X487700Y736712D02*
X493300Y736712D01*
Y726112D02*
Y736712D01*
X487700Y726112D02*
X493300Y726112D01*
X487700Y736712D02*
X487700Y726112D01*
X8300Y1179450D02*
Y1185850D01*
Y1179450D02*
X11700D01*
Y1185850D01*
X8300D02*
X11700D01*
X361617Y725531D02*
Y731932D01*
Y725531D02*
X365017D01*
Y731932D01*
X361617D02*
X365017D01*
X399919Y725531D02*
Y731932D01*
Y725531D02*
X403319D01*
Y731932D01*
X399919D02*
X403319D01*
X649362Y68297D02*
Y71697D01*
X642962Y68297D02*
X649362D01*
X642962D02*
Y71697D01*
X649362D01*
Y75297D02*
Y78697D01*
X642962Y75297D02*
X649362D01*
X642962D02*
Y78697D01*
X649362D01*
X404121Y754039D02*
Y760439D01*
Y754039D02*
X407521D01*
Y760439D01*
X404121D02*
X407521D01*
X441717Y731932D02*
X441717Y725531D01*
X445117Y725531D01*
Y731932D01*
X441717D02*
X445117D01*
X830300Y740868D02*
X833700D01*
Y734468D02*
Y740868D01*
X830300Y734468D02*
X833700D01*
X830300D02*
Y740868D01*
X824300D02*
X827700D01*
Y734468D02*
Y740868D01*
X824300Y734468D02*
X827700D01*
X824300D02*
Y740868D01*
X866300D02*
X869700D01*
Y734468D02*
Y740868D01*
X866300Y734468D02*
X869700D01*
X866300D02*
Y740868D01*
X860300D02*
X863700D01*
Y734468D02*
Y740868D01*
X860300Y734468D02*
X863700D01*
X860300D02*
Y740868D01*
X774050Y396800D02*
X777450D01*
X774050D02*
Y403200D01*
X777450D01*
Y396800D02*
Y403200D01*
X781550Y396800D02*
X784950D01*
X781550D02*
Y403200D01*
X784950D01*
Y396800D02*
Y403200D01*
X814050Y363800D02*
X817450D01*
X814050D02*
Y370200D01*
X817450D01*
Y363800D02*
Y370200D01*
X808050Y363800D02*
X811450D01*
X808050D02*
Y370200D01*
X811450D01*
Y363800D02*
Y370200D01*
X831442Y325896D02*
X833847Y328301D01*
X838372Y323775D01*
X835968Y321371D02*
X838372Y323775D01*
X831442Y325896D02*
X835968Y321371D01*
X836392Y330846D02*
X838796Y333250D01*
X843322Y328725D01*
X840918Y326321D02*
X843322Y328725D01*
X836392Y330846D02*
X840918Y326321D01*
X380762Y265067D02*
X384162D01*
X380762D02*
Y271467D01*
X384162D01*
Y265067D02*
Y271467D01*
X387762Y265067D02*
X391162D01*
X387762D02*
Y271467D01*
X391162D01*
Y265067D02*
Y271467D01*
X698149Y260505D02*
X704549D01*
X698149Y257105D02*
Y260505D01*
Y257105D02*
X704549D01*
Y260505D01*
X704514Y263400D02*
Y266800D01*
X698114Y263400D02*
X704514D01*
X698114D02*
Y266800D01*
X704514D01*
X376050Y252300D02*
Y258700D01*
Y252300D02*
X379450D01*
X379450Y258700D02*
X379450Y252300D01*
X376050Y258700D02*
X379450Y258700D01*
X369050Y252300D02*
Y258700D01*
Y252300D02*
X372450D01*
Y258700D01*
X369050D02*
X372450D01*
X447050Y271470D02*
X450450D01*
Y265070D02*
Y271470D01*
X447050Y265070D02*
X450450D01*
X447050D02*
Y271470D01*
X441050D02*
X444450D01*
Y265070D02*
Y271470D01*
X441050Y265070D02*
X444450D01*
X441050D02*
Y271470D01*
X175720Y75540D02*
Y78940D01*
X182120D01*
Y75540D02*
Y78940D01*
X175720Y75540D02*
X182120D01*
X194700Y102300D02*
X200300D01*
X200300Y91700D02*
X200300Y102300D01*
X194700Y91700D02*
X200300D01*
X194700Y102300D02*
X194700Y91700D01*
X103678Y845112D02*
X125678D01*
Y859712D01*
X103678Y859712D02*
X125678Y859712D01*
X103678Y845112D02*
X103678Y859712D01*
X103678Y864112D02*
X125678D01*
Y878712D01*
X103678D02*
X125678D01*
X103678Y864112D02*
Y878712D01*
X124270Y464200D02*
X134870D01*
Y469800D01*
X124270D02*
X134870D01*
X124270Y464200D02*
Y469800D01*
X57450Y830316D02*
Y833716D01*
X63850D01*
Y830316D02*
Y833716D01*
X57450Y830316D02*
X63850D01*
X33489Y888705D02*
X36888D01*
X33489D02*
Y895105D01*
X36888D01*
Y888705D02*
Y895105D01*
X215300Y84551D02*
X218700D01*
X215300D02*
Y90951D01*
X218700D01*
Y84551D02*
Y90951D01*
X222300Y84551D02*
X225700D01*
X222300D02*
Y90951D01*
X225700D01*
Y84551D02*
Y90951D01*
X229300Y84551D02*
X232700D01*
X229300D02*
Y90951D01*
X232700D01*
Y84551D02*
Y90951D01*
D414*
X119000Y101000D02*
Y111000D01*
X114000Y106000D02*
X124000D01*
X17865Y1497748D02*
X27865D01*
X22865Y1492748D02*
Y1502748D01*
X835000Y1560000D02*
X845000D01*
X840000Y1555000D02*
Y1565000D01*
D416*
X477257Y670997D02*
D03*
X104109Y1477245D02*
D03*
X477253Y736918D02*
D03*
X526644Y737189D02*
D03*
D425*
X165995Y1520040D02*
D03*
X135995D02*
D03*
X695995D02*
D03*
X415995D02*
D03*
X725995D02*
D03*
X445995D02*
D03*
X195995D02*
D03*
X755995D02*
D03*
X475995D02*
D03*
X880275Y650747D02*
D03*
X897555Y534750D02*
D03*
X844275Y650747D02*
D03*
X972750Y317000D02*
D03*
X943750D02*
D03*
D427*
X230350Y118620D02*
D03*
X167851Y118620D02*
D03*
D428*
X70900Y841496D02*
D03*
D431*
X582649Y190110D02*
D03*
D432*
X96522Y469900D02*
D03*
D433*
X807501Y236550D02*
D03*
D434*
X678557Y1389388D02*
D03*
X446581Y1389384D02*
D03*
X562569Y1389388D02*
D03*
D435*
X780789Y293615D02*
D03*
D436*
X865141Y783670D02*
D03*
D437*
X164432Y1399010D02*
D03*
X127440Y1399010D02*
D03*
X12566Y1346007D02*
D03*
X49578Y1345984D02*
D03*
D438*
X34989Y1320586D02*
D03*
X142012Y1424145D02*
D03*
D439*
X735885Y9114D02*
D03*
X780885D02*
D03*
D440*
X196675Y44490D02*
D03*
D441*
X722310Y50090D02*
D03*
D442*
X457165Y287240D02*
D03*
D443*
X729470Y216676D02*
D03*
D444*
X33380Y794460D02*
D03*
X348677Y237966D02*
D03*
D445*
X41777Y916476D02*
D03*
X41786Y1058453D02*
D03*
X41789Y1171476D02*
D03*
D446*
X240296Y835836D02*
D03*
D447*
X240236Y240572D02*
D03*
D448*
X939068Y714940D02*
D03*
D449*
X213627Y729750D02*
D03*
D450*
X763229Y602461D02*
D03*
D451*
X360146Y769759D02*
D03*
D452*
X625720Y303650D02*
D03*
D453*
X84849Y566750D02*
D03*
D454*
X149350Y258860D02*
D03*
D455*
X643880Y502514D02*
D03*
D456*
X270402Y31995D02*
D03*
D457*
X208536Y271997D02*
D03*
Y299997D02*
D03*
Y327997D02*
D03*
X833510Y416500D02*
D03*
X906193Y722040D02*
D03*
X906196Y785110D02*
D03*
D458*
X208536Y355997D02*
D03*
Y383997D02*
D03*
X906196Y688340D02*
D03*
X833510Y359000D02*
D03*
X906193Y752040D02*
D03*
D459*
X121759Y777758D02*
D03*
D460*
X870885Y9114D02*
D03*
D461*
X825885D02*
D03*
D462*
X352839Y730984D02*
D03*
X183122Y713750D02*
D03*
X172082Y746850D02*
D03*
X391137Y730980D02*
D03*
X433142Y730985D02*
D03*
D463*
X118948Y713630D02*
D03*
M02*
