G04*
G04 #@! TF.GenerationSoftware,Altium Limited,Altium Designer,26.9.1 (10)*
G04*
G04 Layer_Color=128*
G04 Board_Origin=9999995|9999995*
%FSLAX44Y44*%
%MOMM*%
G71*
G04*
G04 #@! TF.SameCoordinates,9D83EA41-EA8C-4E9F-96AF-D385C4C8DFFD*
G04*
G04*
G04 #@! TF.FilePolarity,Positive*
G04*
G01*
G75*
%ADD466C,0.0508*%
D466*
X286015Y79170D02*
X287015D01*
X286516Y78670D02*
Y79670D01*
X347228Y778384D02*
X348228D01*
X347728Y777884D02*
Y778884D01*
X555131Y153290D02*
X556132D01*
X555631Y152790D02*
Y153790D01*
X555131Y145290D02*
X556132D01*
X555631Y144790D02*
Y145790D01*
X539132Y153290D02*
X540131D01*
X539632Y152790D02*
Y153790D01*
X531131Y153290D02*
X532131D01*
X531631Y152790D02*
Y153790D01*
X381131Y131205D02*
X382131D01*
X381631Y130705D02*
Y131705D01*
X523131Y161290D02*
X524131D01*
X523631Y160790D02*
Y161790D01*
X567831Y197490D02*
X568831D01*
X568331Y196990D02*
Y197990D01*
X630864Y182386D02*
X631864D01*
X631364Y181886D02*
Y182886D01*
X627131Y177290D02*
X628131D01*
X627631Y176790D02*
Y177790D01*
X603131Y161290D02*
X604131D01*
X603631Y160790D02*
Y161790D01*
X278321Y1138360D02*
X279321D01*
X278821Y1137860D02*
Y1138860D01*
X272163Y938377D02*
X273163D01*
X272663Y937877D02*
Y938877D01*
X294600Y978010D02*
X295600D01*
X295100Y977510D02*
Y978510D01*
X304492Y980907D02*
X305492D01*
X304992Y980407D02*
Y981407D01*
X392394Y297292D02*
X393394D01*
X392894Y296793D02*
Y297792D01*
X911500Y824000D02*
X912500D01*
X912000Y823500D02*
Y824500D01*
X354500Y1388000D02*
X355500D01*
X355000Y1387500D02*
Y1388500D01*
X348500Y1432000D02*
X349500D01*
X349000Y1431500D02*
Y1432500D01*
X347500Y1402000D02*
X348500D01*
X348000Y1401500D02*
Y1402500D01*
X306500Y1446000D02*
X307500D01*
X307000Y1445500D02*
Y1446500D01*
X320500Y1461000D02*
X321500D01*
X321000Y1460500D02*
Y1461500D01*
X264500Y1483000D02*
X265500D01*
X265000Y1482500D02*
Y1483500D01*
X841727Y1016994D02*
X842727D01*
X842227Y1016494D02*
Y1017494D01*
X841830Y1044480D02*
X842830D01*
X842330Y1043980D02*
Y1044980D01*
X851290Y1044439D02*
X852290D01*
X851790Y1043939D02*
Y1044939D01*
X852923Y1008798D02*
X853923D01*
X853423Y1008298D02*
Y1009298D01*
X851540Y1017020D02*
X852540D01*
X852039Y1016520D02*
Y1017521D01*
X815942Y1052048D02*
X816942D01*
X816442Y1051548D02*
Y1052548D01*
X769606Y1084110D02*
X770606D01*
X770106Y1083610D02*
Y1084610D01*
X477446Y906082D02*
X478446D01*
X477946Y905582D02*
Y906582D01*
X840641Y813735D02*
X841641D01*
X841141Y813235D02*
Y814235D01*
X477467Y902301D02*
X478467D01*
X477967Y901801D02*
Y902801D01*
X317192Y1016692D02*
X318192D01*
X317692Y1016191D02*
Y1017191D01*
X304492Y1016692D02*
X305492D01*
X304992Y1016191D02*
Y1017191D01*
X472446Y906082D02*
X473446D01*
X472946Y905582D02*
Y906582D01*
X472467Y902301D02*
X473467D01*
X472967Y901801D02*
Y902801D01*
X841265Y809022D02*
X842265D01*
X841765Y808522D02*
Y809522D01*
X831216Y808029D02*
X832216D01*
X831716Y807529D02*
Y808529D01*
X836241Y807234D02*
X837241D01*
X836741Y806734D02*
Y807734D01*
X827128Y810953D02*
X828128D01*
X827628Y810453D02*
Y811453D01*
X819530Y1018780D02*
X820530D01*
X820030Y1018280D02*
Y1019280D01*
X849280Y1058525D02*
X850280D01*
X849780Y1058025D02*
Y1059025D01*
X861500Y1039500D02*
X862500D01*
X862000Y1039000D02*
Y1040000D01*
X875500Y1039500D02*
X876500D01*
X876000Y1039000D02*
Y1040000D01*
X868500Y1032500D02*
X869500D01*
X869000Y1032000D02*
Y1033000D01*
X825127Y1019255D02*
X826127D01*
X825627Y1018755D02*
Y1019755D01*
X830530Y1054000D02*
X831530D01*
X831030Y1053500D02*
Y1054500D01*
X284592Y1177292D02*
X285592D01*
X285092Y1176792D02*
Y1177792D01*
X464277Y1245814D02*
X465277D01*
X464777Y1245314D02*
Y1246314D01*
X549114Y1097797D02*
X550114D01*
X549614Y1097298D02*
Y1098298D01*
X495592Y1091292D02*
X496592D01*
X496092Y1090792D02*
Y1091792D01*
X397592Y1085292D02*
X398592D01*
X398092Y1084792D02*
Y1085792D01*
X692321Y1072351D02*
X693321D01*
X692821Y1071851D02*
Y1072851D01*
X898809Y1016898D02*
X899809D01*
X899309Y1016398D02*
Y1017399D01*
X900050Y1006450D02*
X901050D01*
X900550Y1005950D02*
Y1006950D01*
X896050Y1006450D02*
X897050D01*
X896550Y1005950D02*
Y1006950D01*
X829080Y992993D02*
X830080D01*
X829580Y992493D02*
Y993493D01*
X890519Y897231D02*
X891519D01*
X891019Y896731D02*
Y897731D01*
X967615Y824998D02*
X968615D01*
X968115Y824498D02*
Y825498D01*
X974615Y829998D02*
X975615D01*
X975115Y829498D02*
Y830498D01*
X970617Y832561D02*
X971617D01*
X971116Y832061D02*
Y833061D01*
X974183Y835563D02*
X975183D01*
X974683Y835063D02*
Y836063D01*
X819400Y1392500D02*
X820400D01*
X819900Y1392000D02*
Y1393000D01*
X966517Y970186D02*
X967517D01*
X967017Y969686D02*
Y970686D01*
X968050Y982535D02*
X969050D01*
X968550Y982035D02*
Y983035D01*
X888944Y957740D02*
X889944D01*
X889444Y957240D02*
Y958240D01*
X898170Y925019D02*
X899170D01*
X898670Y924519D02*
Y925519D01*
X895300Y1351500D02*
X896300D01*
X895800Y1351000D02*
Y1352000D01*
X891800Y1354500D02*
X892800D01*
X892300Y1354000D02*
Y1355000D01*
X902300Y1351500D02*
X903300D01*
X902800Y1351000D02*
Y1352000D01*
X902300Y1354500D02*
X903300D01*
X902800Y1354000D02*
Y1355000D01*
X898800Y1351500D02*
X899800D01*
X899300Y1351000D02*
Y1352000D01*
X895300Y1354500D02*
X896300D01*
X895800Y1354000D02*
Y1355000D01*
X898800Y1354500D02*
X899800D01*
X899300Y1354000D02*
Y1355000D01*
X891800Y1351500D02*
X892800D01*
X892300Y1351000D02*
Y1352000D01*
X871300Y1419585D02*
X872300D01*
X871800Y1419085D02*
Y1420085D01*
X860000Y1419985D02*
X861000D01*
X860500Y1419485D02*
Y1420485D01*
X858250Y1240500D02*
X859250D01*
X858750Y1240000D02*
Y1241000D01*
X861256Y1237506D02*
X862256D01*
X861756Y1237006D02*
Y1238006D01*
X861250Y1244000D02*
X862250D01*
X861750Y1243500D02*
Y1244500D01*
X817732Y1270258D02*
X818732D01*
X818232Y1269758D02*
Y1270758D01*
X822250Y1270500D02*
X823250D01*
X822750Y1270000D02*
Y1271000D01*
X827504Y1270834D02*
X828504D01*
X828004Y1270334D02*
Y1271334D01*
X837813Y1270659D02*
X838813D01*
X838313Y1270159D02*
Y1271159D01*
X831972Y1270759D02*
X832972D01*
X832472Y1270259D02*
Y1271259D01*
X846998Y1272182D02*
X847998D01*
X847498Y1271682D02*
Y1272682D01*
X971550Y985450D02*
X972550D01*
X972050Y984950D02*
Y985950D01*
X852050Y1415450D02*
X853050D01*
X852550Y1414950D02*
Y1415950D01*
X852050Y1419950D02*
X853050D01*
X852550Y1419450D02*
Y1420450D01*
X974615Y992998D02*
X975615D01*
X975115Y992498D02*
Y993498D01*
X831800Y1420700D02*
X832800D01*
X832300Y1420200D02*
Y1421200D01*
X809500Y1420471D02*
X810500D01*
X810000Y1419971D02*
Y1420972D01*
X885300Y1314700D02*
X886300D01*
X885800Y1314200D02*
Y1315200D01*
X878800Y1354500D02*
X879800D01*
X879300Y1354000D02*
Y1355000D01*
X866765Y1267536D02*
X867765D01*
X867265Y1267036D02*
Y1268036D01*
X854800Y1341200D02*
X855800D01*
X855300Y1340700D02*
Y1341700D01*
X861800Y1341200D02*
X862800D01*
X862300Y1340700D02*
Y1341700D01*
X858300Y1341200D02*
X859300D01*
X858800Y1340700D02*
Y1341700D01*
X823100Y1368500D02*
X824100D01*
X823600Y1368000D02*
Y1369000D01*
X823100Y1357500D02*
X824100D01*
X823600Y1357000D02*
Y1358000D01*
X828600Y1356000D02*
X829600D01*
X829100Y1355500D02*
Y1356500D01*
X828600Y1370000D02*
X829600D01*
X829100Y1369500D02*
Y1370500D01*
X821600Y1363000D02*
X822600D01*
X822100Y1362500D02*
Y1363500D01*
X848300Y1354500D02*
X849300D01*
X848800Y1354000D02*
Y1355000D01*
X851800Y1354500D02*
X852800D01*
X852300Y1354000D02*
Y1355000D01*
X855300Y1354500D02*
X856300D01*
X855800Y1354000D02*
Y1355000D01*
X875300Y1354500D02*
X876300D01*
X875800Y1354000D02*
Y1355000D01*
X871800Y1354500D02*
X872800D01*
X872300Y1354000D02*
Y1355000D01*
X868300Y1354500D02*
X869300D01*
X868800Y1354000D02*
Y1355000D01*
X878800Y1351500D02*
X879800D01*
X879300Y1351000D02*
Y1352000D01*
X871800Y1351500D02*
X872800D01*
X872300Y1351000D02*
Y1352000D01*
X868300Y1351500D02*
X869300D01*
X868800Y1351000D02*
Y1352000D01*
X875300Y1351500D02*
X876300D01*
X875800Y1351000D02*
Y1352000D01*
X843997Y1395000D02*
X844997D01*
X844498Y1394500D02*
Y1395500D01*
X823400Y1382500D02*
X824400D01*
X823900Y1382000D02*
Y1383000D01*
X819400Y1382500D02*
X820400D01*
X819900Y1382000D02*
Y1383000D01*
X827400Y1382500D02*
X828400D01*
X827900Y1382000D02*
Y1383000D01*
X823400Y1377500D02*
X824400D01*
X823900Y1377000D02*
Y1378000D01*
X827400Y1377500D02*
X828400D01*
X827900Y1377000D02*
Y1378000D01*
X819400Y1377500D02*
X820400D01*
X819900Y1377000D02*
Y1378000D01*
X827400Y1387500D02*
X828400D01*
X827900Y1387000D02*
Y1388000D01*
X827400Y1392500D02*
X828400D01*
X827900Y1392000D02*
Y1393000D01*
X827400Y1397500D02*
X828400D01*
X827900Y1397000D02*
Y1398000D01*
X819400Y1387500D02*
X820400D01*
X819900Y1387000D02*
Y1388000D01*
X819400Y1397500D02*
X820400D01*
X819900Y1397000D02*
Y1398000D01*
X823400Y1397500D02*
X824400D01*
X823900Y1397000D02*
Y1398000D01*
X823400Y1392500D02*
X824400D01*
X823900Y1392000D02*
Y1393000D01*
X823400Y1387500D02*
X824400D01*
X823900Y1387000D02*
Y1388000D01*
X766400Y1093500D02*
X767400D01*
X766900Y1093000D02*
Y1094000D01*
X815750Y1232883D02*
X816750D01*
X816250Y1232383D02*
Y1233383D01*
X835250Y1214821D02*
X836250D01*
X835750Y1214321D02*
Y1215321D01*
X815750Y1214821D02*
X816750D01*
X816250Y1214321D02*
Y1215321D01*
X828750Y1214821D02*
X829750D01*
X829250Y1214321D02*
Y1215321D01*
X822250Y1214821D02*
X823250D01*
X822750Y1214321D02*
Y1215321D01*
X866117Y1249750D02*
X867117D01*
X866617Y1249250D02*
Y1250250D01*
X848250Y1232883D02*
X849250D01*
X848750Y1232383D02*
Y1233383D01*
X854750Y1232883D02*
X855750D01*
X855250Y1232383D02*
Y1233383D01*
X841750Y1214821D02*
X842750D01*
X842250Y1214321D02*
Y1215321D01*
X848250Y1214821D02*
X849250D01*
X848750Y1214321D02*
Y1215321D01*
X866117Y1256250D02*
X867117D01*
X866617Y1255750D02*
Y1256750D01*
X842250Y1273117D02*
X843250D01*
X842750Y1272617D02*
Y1273617D01*
X835250Y1232883D02*
X836250D01*
X835750Y1232383D02*
Y1233383D01*
X828750Y1232883D02*
X829750D01*
X829250Y1232383D02*
Y1233383D01*
X841750Y1232883D02*
X842750D01*
X842250Y1232383D02*
Y1233383D01*
X822250Y1232883D02*
X823250D01*
X822750Y1232383D02*
Y1233383D01*
X810415Y310490D02*
X811415D01*
X810915Y309990D02*
Y310990D01*
X810415Y304490D02*
X811415D01*
X810915Y303990D02*
Y304990D01*
X810415Y322490D02*
X811415D01*
X810915Y321990D02*
Y322990D01*
X810415Y292490D02*
X811415D01*
X810915Y291990D02*
Y292990D01*
X750250Y585000D02*
X751250D01*
X750750Y584500D02*
Y585500D01*
X413728Y1086917D02*
X414728D01*
X414228Y1086417D02*
Y1087417D01*
X755250Y600000D02*
X756250D01*
X755750Y599500D02*
Y600500D01*
X413728Y1093163D02*
X414728D01*
X414228Y1092663D02*
Y1093663D01*
X749697Y609157D02*
X750696D01*
X750197Y608657D02*
Y609657D01*
X413728Y1100163D02*
X414728D01*
X414228Y1099663D02*
Y1100663D01*
X750250Y595000D02*
X751250D01*
X750750Y594500D02*
Y595500D01*
X408728Y1105159D02*
X409728D01*
X409228Y1104659D02*
Y1105659D01*
X679819Y83917D02*
X680819D01*
X680319Y83417D02*
Y84417D01*
X679550Y1041247D02*
X680550D01*
X680050Y1040747D02*
Y1041747D01*
X730229Y140750D02*
X731229D01*
X730729Y140250D02*
Y141250D01*
X679550Y1046247D02*
X680550D01*
X680050Y1045747D02*
Y1046747D01*
X723421Y221725D02*
X724421D01*
X723921Y221225D02*
Y222225D01*
X566874Y101159D02*
X567873D01*
X567374Y100659D02*
Y101659D01*
X606384Y254270D02*
X607384D01*
X606884Y253769D02*
Y254769D01*
X514948Y254654D02*
X515948D01*
X515448Y254154D02*
Y255154D01*
X733039Y223955D02*
X734039D01*
X733539Y223455D02*
Y224455D01*
X576263Y100159D02*
X577262D01*
X576763Y99659D02*
Y100659D01*
X608480Y257311D02*
X609480D01*
X608980Y256811D02*
Y257811D01*
X511366Y254767D02*
X512366D01*
X511866Y254267D02*
Y255267D01*
X547131Y169290D02*
X548131D01*
X547631Y168790D02*
Y169790D01*
X518178Y184886D02*
X519178D01*
X518678Y184386D02*
Y185386D01*
X673906Y233306D02*
X674906D01*
X674406Y232806D02*
Y233806D01*
X599268Y117137D02*
X600268D01*
X599768Y116637D02*
Y117637D01*
X610877Y260210D02*
X611877D01*
X611377Y259710D02*
Y260710D01*
X507841Y254767D02*
X508841D01*
X508341Y254267D02*
Y255267D01*
X798545Y504770D02*
X799545D01*
X799045Y504270D02*
Y505270D01*
X603131Y145290D02*
X604131D01*
X603631Y144790D02*
Y145790D01*
X796960Y514594D02*
X797960D01*
X797460Y514094D02*
Y515094D01*
X523131Y97290D02*
X524131D01*
X523631Y96790D02*
Y97790D01*
X802700Y497939D02*
X803700D01*
X803200Y497439D02*
Y498439D01*
X559131Y150290D02*
X560131D01*
X559631Y149790D02*
Y150790D01*
X670801Y245609D02*
X671801D01*
X671301Y245109D02*
Y246109D01*
X599247Y148680D02*
X600247D01*
X599747Y148180D02*
Y149180D01*
X616101Y265965D02*
X617102D01*
X616601Y265465D02*
Y266465D01*
X501382Y256092D02*
X502382D01*
X501882Y255592D02*
Y256592D01*
X547131Y177290D02*
X548131D01*
X547631Y176790D02*
Y177790D01*
X511728Y175159D02*
X512728D01*
X512228Y174659D02*
Y175659D01*
X613346Y263167D02*
X614346D01*
X613846Y262667D02*
Y263667D01*
X504287Y254062D02*
X505287D01*
X504787Y253562D02*
Y254562D01*
X531131Y169290D02*
X532131D01*
X531631Y168790D02*
Y169790D01*
X518268Y177619D02*
X519268D01*
X518768Y177119D02*
Y178119D01*
X806809Y866834D02*
X807809D01*
X807309Y866334D02*
Y867334D01*
X854329Y936883D02*
X855329D01*
X854829Y936383D02*
Y937383D01*
X810940Y870966D02*
X811940D01*
X811440Y870466D02*
Y871466D01*
X813457Y873482D02*
X814457D01*
X813957Y872982D02*
Y873982D01*
X817081Y877267D02*
X818081D01*
X817581Y876767D02*
Y877767D01*
X820030Y927720D02*
X821030D01*
X820530Y927220D02*
Y928220D01*
X823233Y927617D02*
X824233D01*
X823733Y927117D02*
Y928117D01*
X787180Y1514738D02*
X788180D01*
X787680Y1514238D02*
Y1515238D01*
X750500Y1506000D02*
X751500D01*
X751000Y1505500D02*
Y1506500D01*
X765989Y1506000D02*
X766989D01*
X766489Y1505500D02*
Y1506500D01*
X784127Y1501128D02*
X785126D01*
X784626Y1500628D02*
Y1501628D01*
X735776Y1506508D02*
X736776D01*
X736276Y1506008D02*
Y1507007D01*
X746903Y1441169D02*
X747903D01*
X747403Y1440669D02*
Y1441669D01*
X738577Y1455800D02*
X739577D01*
X739077Y1455300D02*
Y1456300D01*
X719500Y1507000D02*
X720500D01*
X720000Y1506500D02*
Y1507500D01*
X723429Y1452057D02*
X724429D01*
X723929Y1451557D02*
Y1452557D01*
X771192Y1269777D02*
X772192D01*
X771692Y1269277D02*
Y1270277D01*
X811980Y1158000D02*
X812980D01*
X812480Y1157500D02*
Y1158500D01*
X811980Y1138000D02*
X812980D01*
X812480Y1137500D02*
Y1138500D01*
X706975Y1458584D02*
X707975D01*
X707475Y1458084D02*
Y1459084D01*
X705978Y1430925D02*
X706978D01*
X706478Y1430425D02*
Y1431425D01*
X673934Y1451968D02*
X674934D01*
X674434Y1451468D02*
Y1452468D01*
X695220Y1432099D02*
X696220D01*
X695720Y1431599D02*
Y1432599D01*
X690934Y1448968D02*
X691934D01*
X691434Y1448468D02*
Y1449468D01*
X683802Y1425045D02*
X684802D01*
X684302Y1424545D02*
Y1425545D01*
X662623Y1472008D02*
X663623D01*
X663123Y1471508D02*
Y1472508D01*
X653627Y1466085D02*
X654627D01*
X654127Y1465585D02*
Y1466585D01*
X645981Y1449503D02*
X646981D01*
X646480Y1449003D02*
Y1450003D01*
X640707Y1480360D02*
X641707D01*
X641207Y1479860D02*
Y1480860D01*
X639845Y1486792D02*
X640845D01*
X640345Y1486292D02*
Y1487292D01*
X640928Y1474816D02*
X641927D01*
X641428Y1474315D02*
Y1475316D01*
X667542Y1428401D02*
X668542D01*
X668042Y1427901D02*
Y1428901D01*
X817089Y975178D02*
X818089D01*
X817589Y974678D02*
Y975678D01*
X738821Y952360D02*
X739821D01*
X739321Y951860D02*
Y952860D01*
X727821Y952360D02*
X728821D01*
X728321Y951860D02*
Y952860D01*
X729462Y940185D02*
X730462D01*
X729962Y939685D02*
Y940685D01*
X725918Y906199D02*
X726917D01*
X726417Y905699D02*
Y906699D01*
X716821Y952360D02*
X717821D01*
X717321Y951860D02*
Y952860D01*
X705821Y952360D02*
X706821D01*
X706321Y951860D02*
Y952860D01*
X694821Y952360D02*
X695821D01*
X695321Y951860D02*
Y952860D01*
X683821Y952360D02*
X684821D01*
X684321Y951860D02*
Y952860D01*
X718462Y940185D02*
X719462D01*
X718962Y939685D02*
Y940685D01*
X706658Y939883D02*
X707658D01*
X707158Y939383D02*
Y940383D01*
X705599Y927826D02*
X706599D01*
X706099Y927326D02*
Y928326D01*
X716599Y927826D02*
X717599D01*
X717099Y927326D02*
Y928326D01*
X703649Y911738D02*
X704649D01*
X704149Y911238D02*
Y912238D01*
X695658Y939883D02*
X696658D01*
X696158Y939383D02*
Y940383D01*
X696079Y927389D02*
X697079D01*
X696579Y926889D02*
Y927888D01*
X681401Y938817D02*
X682401D01*
X681901Y938317D02*
Y939317D01*
X695871Y903960D02*
X696871D01*
X696371Y903459D02*
Y904460D01*
X688301Y919610D02*
X689301D01*
X688801Y919110D02*
Y920110D01*
X672821Y952360D02*
X673821D01*
X673321Y951860D02*
Y952860D01*
X665043Y944582D02*
X666043D01*
X665543Y944082D02*
Y945082D01*
X673623Y931039D02*
X674623D01*
X674123Y930539D02*
Y931539D01*
X665844Y923261D02*
X666844D01*
X666345Y922761D02*
Y923761D01*
X680523Y911832D02*
X681523D01*
X681023Y911332D02*
Y912332D01*
X672745Y904054D02*
X673745D01*
X673244Y903554D02*
Y904554D01*
X658066Y915483D02*
X659066D01*
X658566Y914983D02*
Y915983D01*
X657265Y936804D02*
X658265D01*
X657765Y936304D02*
Y937304D01*
X649487Y929026D02*
X650487D01*
X649987Y928526D02*
Y929526D01*
X641709Y921248D02*
X642709D01*
X642208Y920748D02*
Y921748D01*
X650288Y907705D02*
X651288D01*
X650788Y907205D02*
Y908205D01*
X628342Y1503432D02*
X629342D01*
X628842Y1502932D02*
Y1503932D01*
X625172Y1521326D02*
X626172D01*
X625672Y1520826D02*
Y1521826D01*
X628391Y1495258D02*
X629391D01*
X628891Y1494758D02*
Y1495758D01*
X624563Y1478902D02*
X625563D01*
X625063Y1478402D02*
Y1479402D01*
X609291Y1531397D02*
X610291D01*
X609791Y1530897D02*
Y1531897D01*
X609291Y1524930D02*
X610291D01*
X609791Y1524430D02*
Y1525430D01*
X615606Y1495439D02*
X616606D01*
X616106Y1494939D02*
Y1495939D01*
X636660Y1450404D02*
X637660D01*
X637160Y1449904D02*
Y1450904D01*
X599999Y1425148D02*
X600999D01*
X600499Y1424648D02*
Y1425648D01*
X588232Y1433592D02*
X589232D01*
X588732Y1433092D02*
Y1434092D01*
X567750Y1527650D02*
X568750D01*
X568250Y1527150D02*
Y1528150D01*
X582542Y1436401D02*
X583542D01*
X583042Y1435901D02*
Y1436901D01*
X563960Y1448594D02*
X564960D01*
X564460Y1448094D02*
Y1449094D01*
X564542Y1433401D02*
X565542D01*
X565042Y1432901D02*
Y1433901D01*
X546910Y1457827D02*
X547910D01*
X547410Y1457327D02*
Y1458327D01*
X557542Y1433401D02*
X558542D01*
X558042Y1432901D02*
Y1433901D01*
X580190Y1272721D02*
X581190D01*
X580690Y1272221D02*
Y1273221D01*
X488047Y1482009D02*
X489048D01*
X488548Y1481509D02*
Y1482509D01*
X531077Y1457966D02*
X532077D01*
X531577Y1457466D02*
Y1458466D01*
X530804Y1465260D02*
X531804D01*
X531304Y1464760D02*
Y1465760D01*
X529091Y1421401D02*
X530091D01*
X529591Y1420901D02*
Y1421901D01*
X514884Y1467384D02*
X515884D01*
X515384Y1466884D02*
Y1467884D01*
X502473Y1459686D02*
X503473D01*
X502973Y1459187D02*
Y1460186D01*
X522091Y1421401D02*
X523091D01*
X522591Y1420901D02*
Y1421901D01*
X467891Y1572150D02*
X468891D01*
X468391Y1571650D02*
Y1572650D01*
X460891Y1572150D02*
X461891D01*
X461391Y1571650D02*
Y1572650D01*
X472391Y1567650D02*
X473391D01*
X472891Y1567150D02*
Y1568150D01*
X456391Y1567650D02*
X457391D01*
X456891Y1567150D02*
Y1568150D01*
X481655Y1494706D02*
X482655D01*
X482155Y1494206D02*
Y1495206D01*
X481655Y1487750D02*
X482655D01*
X482155Y1487250D02*
Y1488250D01*
X473130Y1492610D02*
X474130D01*
X473630Y1492110D02*
Y1493110D01*
X458875Y1492582D02*
X459875D01*
X459375Y1492082D02*
Y1493082D01*
X458769Y1417509D02*
X459768D01*
X459268Y1417009D02*
Y1418009D01*
X443482Y1480320D02*
X444482D01*
X443982Y1479821D02*
Y1480820D01*
X448162Y1406903D02*
X449162D01*
X448662Y1406403D02*
Y1407403D01*
X633930Y913470D02*
X634930D01*
X634430Y912970D02*
Y913970D01*
X626152Y905692D02*
X627152D01*
X626652Y905191D02*
Y906191D01*
X874321Y755360D02*
X875321D01*
X874821Y754860D02*
Y755860D01*
X851336Y778418D02*
X852336D01*
X851836Y777918D02*
Y778918D01*
X822500Y772000D02*
X823500D01*
X823000Y771500D02*
Y772500D01*
X987400Y573000D02*
X988400D01*
X987900Y572500D02*
Y573500D01*
X967365Y486667D02*
X968365D01*
X967865Y486167D02*
Y487167D01*
X874321Y738361D02*
X875321D01*
X874821Y737860D02*
Y738860D01*
X736821Y892360D02*
X737821D01*
X737321Y891860D02*
Y892860D01*
X719821Y892360D02*
X720821D01*
X720321Y891860D02*
Y892860D01*
X714968Y898265D02*
X715968D01*
X715468Y897765D02*
Y898765D01*
X707190Y890487D02*
X708190D01*
X707690Y889987D02*
Y890987D01*
X688093Y896181D02*
X689093D01*
X688593Y895681D02*
Y896681D01*
X680315Y888403D02*
X681315D01*
X680815Y887903D02*
Y888903D01*
X699412Y882709D02*
X700412D01*
X699912Y882208D02*
Y883208D01*
X691634Y874930D02*
X692634D01*
X692134Y874430D02*
Y875430D01*
X683856Y867152D02*
X684856D01*
X684356Y866652D02*
Y867652D01*
X783068Y580188D02*
X784068D01*
X783568Y579688D02*
Y580688D01*
X744268Y429311D02*
X745268D01*
X744768Y428811D02*
Y429812D01*
X743337Y407274D02*
X744337D01*
X743837Y406774D02*
Y407774D01*
X731674Y401484D02*
X732674D01*
X732175Y400984D02*
Y401984D01*
X705546Y370852D02*
X706546D01*
X706046Y370352D02*
Y371352D01*
X680665Y358490D02*
X681665D01*
X681164Y357990D02*
Y358990D01*
X763415Y346490D02*
X764415D01*
X763914Y345990D02*
Y346990D01*
X763415Y337490D02*
X764415D01*
X763914Y336990D02*
Y337990D01*
X754415Y337490D02*
X755415D01*
X754914Y336990D02*
Y337990D01*
X754415Y346490D02*
X755415D01*
X754914Y345990D02*
Y346990D01*
X745415Y346490D02*
X746414D01*
X745915Y345990D02*
Y346990D01*
X745415Y337490D02*
X746414D01*
X745915Y336990D02*
Y337990D01*
X763415Y328490D02*
X764415D01*
X763914Y327990D02*
Y328990D01*
X754415Y328490D02*
X755415D01*
X754914Y327990D02*
Y328990D01*
X763415Y310490D02*
X764415D01*
X763914Y309990D02*
Y310990D01*
X763415Y319490D02*
X764415D01*
X763914Y318990D02*
Y319990D01*
X745415Y319490D02*
X746414D01*
X745915Y318990D02*
Y319990D01*
X745415Y328490D02*
X746414D01*
X745915Y327990D02*
Y328990D01*
X754415Y319490D02*
X755415D01*
X754914Y318990D02*
Y319990D01*
X745415Y310490D02*
X746414D01*
X745915Y309990D02*
Y310990D01*
X809592Y286434D02*
X810592D01*
X810092Y285935D02*
Y286935D01*
X984000Y283973D02*
X985000D01*
X984500Y283473D02*
Y284473D01*
X787915Y281740D02*
X788914D01*
X788415Y281240D02*
Y282240D01*
X736414Y346490D02*
X737414D01*
X736915Y345990D02*
Y346990D01*
X736414Y337490D02*
X737414D01*
X736915Y336990D02*
Y337990D01*
X727414Y328490D02*
X728415D01*
X727915Y327990D02*
Y328990D01*
X736414Y328490D02*
X737414D01*
X736915Y327990D02*
Y328990D01*
X727414Y346490D02*
X728415D01*
X727915Y345990D02*
Y346990D01*
X727414Y337490D02*
X728415D01*
X727915Y336990D02*
Y337990D01*
X736414Y310490D02*
X737414D01*
X736915Y309990D02*
Y310990D01*
X736414Y319490D02*
X737414D01*
X736915Y318990D02*
Y319990D01*
X727414Y319490D02*
X728415D01*
X727915Y318990D02*
Y319990D01*
X698115Y287955D02*
X699115D01*
X698615Y287455D02*
Y288455D01*
X684665Y336240D02*
X685665D01*
X685164Y335740D02*
Y336740D01*
X680415Y328490D02*
X681414D01*
X680915Y327990D02*
Y328990D01*
X680415Y322490D02*
X681414D01*
X680915Y321990D02*
Y322990D01*
X694310Y86590D02*
X695310D01*
X694810Y86090D02*
Y87090D01*
X703310Y86590D02*
X704310D01*
X703810Y86090D02*
Y87090D01*
X685310Y86590D02*
X686310D01*
X685810Y86090D02*
Y87090D01*
X703310Y77590D02*
X704310D01*
X703810Y77090D02*
Y78090D01*
X703310Y68590D02*
X704310D01*
X703810Y68090D02*
Y69090D01*
X694310Y77590D02*
X695310D01*
X694810Y77090D02*
Y78090D01*
X685310Y68590D02*
X686310D01*
X685810Y68090D02*
Y69090D01*
X685310Y77590D02*
X686310D01*
X685810Y77090D02*
Y78090D01*
X694310Y68590D02*
X695310D01*
X694810Y68090D02*
Y69090D01*
X664966Y896276D02*
X665966D01*
X665466Y895776D02*
Y896776D01*
X657188Y888498D02*
X658188D01*
X657688Y887998D02*
Y888998D01*
X672536Y880625D02*
X673536D01*
X673036Y880125D02*
Y881125D01*
X649410Y880720D02*
X650410D01*
X649910Y880220D02*
Y881220D01*
X642510Y899927D02*
X643510D01*
X643010Y899427D02*
Y900427D01*
X634732Y892148D02*
X635732D01*
X635232Y891648D02*
Y892648D01*
X626954Y884370D02*
X627954D01*
X627454Y883870D02*
Y884870D01*
X664758Y872847D02*
X665758D01*
X665258Y872347D02*
Y873347D01*
X656980Y865069D02*
X657980D01*
X657480Y864569D02*
Y865569D01*
X676078Y859374D02*
X677078D01*
X676578Y858874D02*
Y859874D01*
X668299Y851596D02*
X669299D01*
X668799Y851096D02*
Y852096D01*
X660521Y843818D02*
X661521D01*
X661021Y843318D02*
Y844318D01*
X641632Y872942D02*
X642632D01*
X642132Y872441D02*
Y873441D01*
X649202Y857291D02*
X650202D01*
X649702Y856791D02*
Y857791D01*
X633854Y865163D02*
X634854D01*
X634354Y864663D02*
Y865663D01*
X641424Y849512D02*
X642424D01*
X641924Y849012D02*
Y850012D01*
X633646Y841734D02*
X634646D01*
X634146Y841234D02*
Y842234D01*
X618374Y897913D02*
X619374D01*
X618874Y897413D02*
Y898413D01*
X610596Y890135D02*
X611596D01*
X611096Y889635D02*
Y890635D01*
X619175Y876592D02*
X620176D01*
X619675Y876092D02*
Y877092D01*
X602818Y882357D02*
X603818D01*
X603318Y881857D02*
Y882857D01*
X595040Y874579D02*
X596040D01*
X595540Y874079D02*
Y875079D01*
X626076Y857385D02*
X627076D01*
X626576Y856885D02*
Y857885D01*
X611397Y868814D02*
X612397D01*
X611897Y868314D02*
Y869314D01*
X603619Y861036D02*
X604619D01*
X604119Y860536D02*
Y861536D01*
X618297Y849607D02*
X619297D01*
X618797Y849107D02*
Y850107D01*
X610519Y841829D02*
X611519D01*
X611019Y841329D02*
Y842329D01*
X595841Y853258D02*
X596841D01*
X596341Y852758D02*
Y853758D01*
X587261Y866801D02*
X588261D01*
X587761Y866301D02*
Y867301D01*
X579483Y859023D02*
X580483D01*
X579983Y858523D02*
Y859523D01*
X588063Y845480D02*
X589063D01*
X588563Y844979D02*
Y845980D01*
X652743Y836040D02*
X653743D01*
X653243Y835540D02*
Y836540D01*
X644965Y828261D02*
X645965D01*
X645465Y827762D02*
Y828762D01*
X637187Y820483D02*
X638187D01*
X637687Y819983D02*
Y820983D01*
X625868Y833956D02*
X626867D01*
X626367Y833456D02*
Y834456D01*
X618089Y826178D02*
X619089D01*
X618589Y825678D02*
Y826678D01*
X610311Y818400D02*
X611311D01*
X610811Y817900D02*
Y818900D01*
X629409Y812705D02*
X630409D01*
X629909Y812205D02*
Y813205D01*
X621631Y804927D02*
X622631D01*
X622131Y804427D02*
Y805427D01*
X619459Y683472D02*
X620459D01*
X619959Y682971D02*
Y683971D01*
X619459Y782471D02*
X620459D01*
X619959Y781971D02*
Y782971D01*
X619459Y771471D02*
X620459D01*
X619959Y770971D02*
Y771971D01*
X619459Y793471D02*
X620459D01*
X619959Y792971D02*
Y793971D01*
X619459Y749471D02*
X620459D01*
X619959Y748971D02*
Y749971D01*
X619459Y760471D02*
X620459D01*
X619959Y759971D02*
Y760971D01*
X619459Y727471D02*
X620459D01*
X619959Y726971D02*
Y727971D01*
X619459Y716471D02*
X620459D01*
X619959Y715971D02*
Y716971D01*
X619459Y738471D02*
X620459D01*
X619959Y737971D02*
Y738971D01*
X619459Y694472D02*
X620459D01*
X619959Y693971D02*
Y694971D01*
X619459Y705471D02*
X620459D01*
X619959Y704971D02*
Y705971D01*
X602741Y834051D02*
X603741D01*
X603241Y833551D02*
Y834551D01*
X594963Y826273D02*
X595963D01*
X595463Y825772D02*
Y826773D01*
X604546Y799651D02*
X605546D01*
X605046Y799151D02*
Y800151D01*
X604546Y810651D02*
X605546D01*
X605046Y810151D02*
Y811151D01*
X604546Y777651D02*
X605546D01*
X605046Y777151D02*
Y778151D01*
X604546Y788651D02*
X605546D01*
X605046Y788151D02*
Y789151D01*
X589332Y818936D02*
X590332D01*
X589832Y818436D02*
Y819436D01*
X580285Y837701D02*
X581285D01*
X580785Y837201D02*
Y838201D01*
X589332Y807936D02*
X590332D01*
X589832Y807436D02*
Y808436D01*
X589332Y785936D02*
X590332D01*
X589832Y785436D02*
Y786436D01*
X589332Y796936D02*
X590332D01*
X589832Y796436D02*
Y797436D01*
X604546Y744651D02*
X605546D01*
X605046Y744151D02*
Y745151D01*
X604546Y755651D02*
X605546D01*
X605046Y755151D02*
Y756151D01*
X604546Y733651D02*
X605546D01*
X605046Y733151D02*
Y734151D01*
X604546Y766651D02*
X605546D01*
X605046Y766151D02*
Y767151D01*
X604546Y711652D02*
X605546D01*
X605046Y711152D02*
Y712151D01*
X604546Y722651D02*
X605546D01*
X605046Y722151D02*
Y723151D01*
X604546Y689651D02*
X605546D01*
X605046Y689152D02*
Y690152D01*
X604546Y700651D02*
X605546D01*
X605046Y700152D02*
Y701152D01*
X589332Y763936D02*
X590332D01*
X589832Y763436D02*
Y764436D01*
X589332Y752936D02*
X590332D01*
X589832Y752436D02*
Y753436D01*
X589332Y774936D02*
X590332D01*
X589832Y774436D02*
Y775436D01*
X589332Y741936D02*
X590332D01*
X589832Y741436D02*
Y742436D01*
X589332Y719936D02*
X590332D01*
X589832Y719436D02*
Y720436D01*
X589332Y708936D02*
X590332D01*
X589832Y708436D02*
Y709436D01*
X589332Y730936D02*
X590332D01*
X589832Y730436D02*
Y731436D01*
X589332Y686936D02*
X590332D01*
X589832Y686436D02*
Y687436D01*
X589332Y697936D02*
X590332D01*
X589832Y697436D02*
Y698436D01*
X571705Y851244D02*
X572705D01*
X572205Y850744D02*
Y851744D01*
X563927Y843466D02*
X564927D01*
X564427Y842966D02*
Y843966D01*
X572507Y829923D02*
X573507D01*
X573007Y829423D02*
Y830423D01*
X572507Y818923D02*
X573507D01*
X573007Y818423D02*
Y819423D01*
X556149Y824688D02*
X557149D01*
X556649Y824188D02*
Y825188D01*
X572507Y796923D02*
X573507D01*
X573007Y796423D02*
Y797423D01*
X572507Y807923D02*
X573507D01*
X573007Y807423D02*
Y808423D01*
X572507Y785923D02*
X573507D01*
X573007Y785423D02*
Y786423D01*
X556149Y791688D02*
X557149D01*
X556649Y791188D02*
Y792188D01*
X556149Y780688D02*
X557149D01*
X556649Y780188D02*
Y781188D01*
X556149Y835688D02*
X557149D01*
X556649Y835188D02*
Y836188D01*
X548371Y827910D02*
X549371D01*
X548871Y827410D02*
Y828410D01*
X556149Y813688D02*
X557149D01*
X556649Y813188D02*
Y814188D01*
X556149Y802688D02*
X557149D01*
X556649Y802188D02*
Y803188D01*
X572507Y763923D02*
X573507D01*
X573007Y763423D02*
Y764423D01*
X572507Y752924D02*
X573507D01*
X573007Y752423D02*
Y753423D01*
X572507Y774923D02*
X573507D01*
X573007Y774423D02*
Y775423D01*
X572507Y730923D02*
X573507D01*
X573007Y730424D02*
Y731423D01*
X572507Y741924D02*
X573507D01*
X573007Y741423D02*
Y742423D01*
X572507Y708924D02*
X573507D01*
X573007Y708424D02*
Y709424D01*
X572507Y697924D02*
X573507D01*
X573007Y697424D02*
Y698424D01*
X572507Y719924D02*
X573507D01*
X573007Y719424D02*
Y720424D01*
X572507Y686924D02*
X573507D01*
X573007Y686424D02*
Y687424D01*
X556149Y692689D02*
X557149D01*
X556649Y692189D02*
Y693189D01*
X556149Y758688D02*
X557149D01*
X556649Y758188D02*
Y759188D01*
X556149Y747688D02*
X557149D01*
X556649Y747188D02*
Y748188D01*
X556149Y769688D02*
X557149D01*
X556649Y769188D02*
Y770188D01*
X556149Y736689D02*
X557149D01*
X556649Y736189D02*
Y737188D01*
X556149Y725688D02*
X557149D01*
X556649Y725189D02*
Y726189D01*
X556149Y714688D02*
X557149D01*
X556649Y714189D02*
Y715189D01*
X556149Y703689D02*
X557149D01*
X556649Y703189D02*
Y704189D01*
X630983Y411239D02*
X631983D01*
X631483Y410739D02*
Y411739D01*
X619459Y672472D02*
X620459D01*
X619959Y671972D02*
Y672972D01*
X619459Y661472D02*
X620459D01*
X619959Y660972D02*
Y661972D01*
X619459Y650472D02*
X620459D01*
X619959Y649972D02*
Y650972D01*
X604546Y678652D02*
X605546D01*
X605046Y678152D02*
Y679152D01*
X604546Y656652D02*
X605546D01*
X605046Y656152D02*
Y657152D01*
X604546Y667652D02*
X605546D01*
X605046Y667152D02*
Y668152D01*
X619459Y639472D02*
X620459D01*
X619959Y638972D02*
Y639972D01*
X604546Y645652D02*
X605546D01*
X605046Y645152D02*
Y646152D01*
X623489Y403745D02*
X624489D01*
X623989Y403245D02*
Y404245D01*
X631710Y383442D02*
X632710D01*
X632210Y382942D02*
Y383942D01*
X618703Y399875D02*
X619703D01*
X619203Y399375D02*
Y400375D01*
X614758Y403745D02*
X615758D01*
X615258Y403245D02*
Y404245D01*
X614708Y394943D02*
X615708D01*
X615208Y394443D02*
Y395443D01*
X589332Y653936D02*
X590332D01*
X589832Y653436D02*
Y654436D01*
X589332Y675936D02*
X590332D01*
X589832Y675436D02*
Y676436D01*
X589332Y664936D02*
X590332D01*
X589832Y664436D02*
Y665436D01*
X599765Y639117D02*
X600765D01*
X600265Y638617D02*
Y639617D01*
X591987Y631339D02*
X592987D01*
X592487Y630839D02*
Y631839D01*
X583126Y647250D02*
X584126D01*
X583626Y646750D02*
Y647750D01*
X584208Y623561D02*
X585208D01*
X584708Y623061D02*
Y624061D01*
X572507Y675924D02*
X573507D01*
X573007Y675424D02*
Y676424D01*
X572507Y664924D02*
X573507D01*
X573007Y664424D02*
Y665424D01*
X575347Y639472D02*
X576347D01*
X575847Y638972D02*
Y639972D01*
X564729Y657146D02*
X565728D01*
X565229Y656646D02*
Y657646D01*
X567569Y631693D02*
X568569D01*
X568069Y631194D02*
Y632193D01*
X576430Y615783D02*
X577430D01*
X576930Y615283D02*
Y616283D01*
X574322Y586393D02*
X575322D01*
X574822Y585892D02*
Y586893D01*
X568652Y608004D02*
X569652D01*
X569152Y607504D02*
Y608504D01*
X566544Y578614D02*
X567544D01*
X567044Y578114D02*
Y579114D01*
X587385Y382185D02*
X588385D01*
X587885Y381685D02*
Y382685D01*
X595650Y373667D02*
X596650D01*
X596150Y373167D02*
Y374167D01*
X581750Y403747D02*
X582750D01*
X582250Y403247D02*
Y404247D01*
X571500Y397000D02*
X572500D01*
X572000Y396500D02*
Y397500D01*
X649798Y47090D02*
X650798D01*
X650298Y46590D02*
Y47590D01*
X578120Y47900D02*
X579120D01*
X578620Y47400D02*
Y48400D01*
X556149Y681689D02*
X557149D01*
X556649Y681189D02*
Y682189D01*
X553237Y673643D02*
X554236D01*
X553736Y673143D02*
Y674143D01*
X556950Y649367D02*
X557950D01*
X557450Y648867D02*
Y649867D01*
X545458Y665865D02*
X546458D01*
X545958Y665365D02*
Y666365D01*
X559791Y623915D02*
X560791D01*
X560291Y623415D02*
Y624415D01*
X549172Y641589D02*
X550172D01*
X549672Y641089D02*
Y642089D01*
X552013Y616137D02*
X553013D01*
X552513Y615637D02*
Y616637D01*
X541394Y633811D02*
X542394D01*
X541894Y633311D02*
Y634311D01*
X544235Y608359D02*
X545235D01*
X544735Y607859D02*
Y608859D01*
X537680Y658087D02*
X538680D01*
X538180Y657587D02*
Y658587D01*
X529902Y650309D02*
X530902D01*
X530402Y649809D02*
Y650809D01*
X522124Y642530D02*
X523124D01*
X522624Y642030D02*
Y643030D01*
X514346Y634752D02*
X515346D01*
X514846Y634252D02*
Y635252D01*
X533616Y626033D02*
X534616D01*
X534116Y625533D02*
Y626533D01*
X525838Y618255D02*
X526838D01*
X526338Y617755D02*
Y618755D01*
X518060Y610477D02*
X519060D01*
X518560Y609977D02*
Y610977D01*
X560874Y600226D02*
X561874D01*
X561374Y599726D02*
Y600726D01*
X553096Y592448D02*
X554096D01*
X553596Y591948D02*
Y592948D01*
X545318Y584670D02*
X546318D01*
X545818Y584170D02*
Y585170D01*
X536457Y600581D02*
X537457D01*
X536957Y600081D02*
Y601081D01*
X537539Y576892D02*
X538540D01*
X538040Y576392D02*
Y577392D01*
X558766Y570836D02*
X559766D01*
X559266Y570336D02*
Y571336D01*
X550988Y563058D02*
X551987D01*
X551488Y562558D02*
Y563558D01*
X543209Y555280D02*
X544209D01*
X543709Y554780D02*
Y555780D01*
X535431Y547502D02*
X536431D01*
X535931Y547002D02*
Y548002D01*
X528679Y592803D02*
X529678D01*
X529179Y592303D02*
Y593303D01*
X520900Y585025D02*
X521900D01*
X521400Y584525D02*
Y585525D01*
X502000Y601500D02*
X503000D01*
X502500Y601000D02*
Y602000D01*
X513000Y601500D02*
X514000D01*
X513500Y601000D02*
Y602000D01*
X501999Y580500D02*
X502999D01*
X502499Y580000D02*
Y581000D01*
X512999Y580500D02*
X513999D01*
X513499Y580000D02*
Y581000D01*
X529761Y569114D02*
X530761D01*
X530261Y568614D02*
Y569614D01*
X521983Y561335D02*
X522983D01*
X522483Y560835D02*
Y561836D01*
X527653Y539724D02*
X528653D01*
X528153Y539224D02*
Y540224D01*
X502000Y557500D02*
X503000D01*
X502500Y557000D02*
Y558000D01*
X513000Y557500D02*
X514000D01*
X513500Y557000D02*
Y558000D01*
X501428Y538728D02*
X502428D01*
X501928Y538228D02*
Y539228D01*
X466829Y626363D02*
X467829D01*
X467329Y625863D02*
Y626863D01*
X488829Y626363D02*
X489829D01*
X489329Y625863D02*
Y626863D01*
X499829Y626363D02*
X500829D01*
X500329Y625863D02*
Y626863D01*
X477829Y626363D02*
X478829D01*
X478329Y625863D02*
Y626863D01*
X455754Y625985D02*
X456754D01*
X456254Y625485D02*
Y626485D01*
X444754Y625985D02*
X445754D01*
X445254Y625485D02*
Y626485D01*
X436000Y625985D02*
X437000D01*
X436500Y625485D02*
Y626485D01*
X491000Y601500D02*
X492000D01*
X491500Y601000D02*
Y602000D01*
X490999Y580500D02*
X491999D01*
X491499Y580000D02*
Y581000D01*
X469000Y601500D02*
X470000D01*
X469500Y601000D02*
Y602000D01*
X480000Y601500D02*
X481000D01*
X480500Y601000D02*
Y602000D01*
X468999Y580500D02*
X470000D01*
X469500Y580000D02*
Y581000D01*
X480000Y580500D02*
X480999D01*
X480499Y580000D02*
Y581000D01*
X480000Y557500D02*
X481000D01*
X480500Y557000D02*
Y558000D01*
X491000Y557500D02*
X492000D01*
X491500Y557000D02*
Y558000D01*
X490428Y538728D02*
X491428D01*
X490928Y538228D02*
Y539228D01*
X469000Y557500D02*
X470000D01*
X469500Y557000D02*
Y558000D01*
X479428Y538728D02*
X480428D01*
X479928Y538228D02*
Y539228D01*
X468428Y538728D02*
X469428D01*
X468928Y538228D02*
Y539228D01*
X447000Y601500D02*
X448000D01*
X447500Y601000D02*
Y602000D01*
X458000Y601500D02*
X459000D01*
X458500Y601000D02*
Y602000D01*
X447000Y580500D02*
X447999D01*
X447500Y580000D02*
Y581000D01*
X457999Y580500D02*
X458999D01*
X458499Y580000D02*
Y581000D01*
X436000Y601500D02*
X437000D01*
X436500Y601000D02*
Y602000D01*
X436000Y580500D02*
X437000D01*
X436500Y580000D02*
Y581000D01*
X458000Y557500D02*
X459000D01*
X458500Y557000D02*
Y558000D01*
X457428Y538728D02*
X458428D01*
X457928Y538228D02*
Y539228D01*
X447000Y557500D02*
X448000D01*
X447500Y557000D02*
Y558000D01*
X436000Y557500D02*
X437000D01*
X436500Y557000D02*
Y558000D01*
X554114Y404713D02*
X555114D01*
X554614Y404213D02*
Y405213D01*
X515422Y538498D02*
X516422D01*
X515922Y537998D02*
Y538997D01*
X509500Y403000D02*
X510500D01*
X510000Y402500D02*
Y403500D01*
X560120Y47900D02*
X561120D01*
X560620Y47400D02*
Y48400D01*
X473500Y409000D02*
X474500D01*
X474000Y408500D02*
Y409500D01*
X499500Y408676D02*
X500500D01*
X500000Y408176D02*
Y409176D01*
X435428Y538728D02*
X436428D01*
X435928Y538228D02*
Y539228D01*
X446428Y538728D02*
X447428D01*
X446928Y538228D02*
Y539228D01*
X423585Y1470113D02*
X424585D01*
X424085Y1469613D02*
Y1470613D01*
X429732Y1466432D02*
X430732D01*
X430232Y1465932D02*
Y1466932D01*
X418764Y1491314D02*
X419764D01*
X419264Y1490814D02*
Y1491814D01*
X413526Y1471934D02*
X414526D01*
X414026Y1471434D02*
Y1472434D01*
X429454Y1452820D02*
X430454D01*
X429954Y1452320D02*
Y1453320D01*
X412821Y1383361D02*
X413821D01*
X413321Y1382861D02*
Y1383861D01*
X417821Y1336360D02*
X418821D01*
X418321Y1335860D02*
Y1336860D01*
X404500Y1553650D02*
X405500D01*
X405000Y1553150D02*
Y1554150D01*
X387500Y1553650D02*
X388500D01*
X388000Y1553150D02*
Y1554150D01*
X409355Y1482277D02*
X410355D01*
X409855Y1481777D02*
Y1482777D01*
X366785Y1549771D02*
X367785D01*
X367285Y1549271D02*
Y1550271D01*
X366090Y1565839D02*
X367090D01*
X366590Y1565339D02*
Y1566339D01*
X405821Y1348360D02*
X406821D01*
X406321Y1347860D02*
Y1348860D01*
X397821Y1383361D02*
X398821D01*
X398321Y1382861D02*
Y1383861D01*
X402821Y1336360D02*
X403821D01*
X403321Y1335860D02*
Y1336860D01*
X393821Y1336360D02*
X394821D01*
X394321Y1335860D02*
Y1336860D01*
X381821Y1348360D02*
X382821D01*
X382321Y1347860D02*
Y1348860D01*
X366821Y1348360D02*
X367821D01*
X367321Y1347860D02*
Y1348860D01*
X390821Y1348360D02*
X391821D01*
X391321Y1347860D02*
Y1348860D01*
X378821Y1336360D02*
X379821D01*
X379321Y1335860D02*
Y1336860D01*
X353450Y1525700D02*
X354450D01*
X353950Y1525200D02*
Y1526200D01*
X338611Y1540560D02*
X339611D01*
X339111Y1540060D02*
Y1541060D01*
X320500Y1544650D02*
X321500D01*
X321000Y1544150D02*
Y1545150D01*
X303500Y1544650D02*
X304500D01*
X304000Y1544150D02*
Y1545150D01*
X431729Y852368D02*
X432729D01*
X432229Y851868D02*
Y852868D01*
X279091Y1533661D02*
X280091D01*
X279591Y1533161D02*
Y1534161D01*
X176512Y1504502D02*
X177512D01*
X177012Y1504002D02*
Y1505002D01*
X217437Y1450599D02*
X218437D01*
X217937Y1450099D02*
Y1451099D01*
X205746Y1438907D02*
X206746D01*
X206246Y1438407D02*
Y1439408D01*
X180437Y1461599D02*
X181437D01*
X180937Y1461099D02*
Y1462099D01*
X245500Y1120650D02*
X246500D01*
X246000Y1120150D02*
Y1121150D01*
X159977Y1504502D02*
X160977D01*
X160477Y1504002D02*
Y1505002D01*
X146512Y1506502D02*
X147512D01*
X147012Y1506002D02*
Y1507002D01*
X129977Y1504502D02*
X130977D01*
X130477Y1504002D02*
Y1505002D01*
X168746Y1449908D02*
X169746D01*
X169246Y1449408D02*
Y1450408D01*
X147291Y1478518D02*
X148291D01*
X147791Y1478018D02*
Y1479018D01*
X130757Y1478518D02*
X131757D01*
X131257Y1478018D02*
Y1479018D01*
X235235Y1036030D02*
X236235D01*
X235735Y1035530D02*
Y1036530D01*
X425000Y625985D02*
X426000D01*
X425500Y625485D02*
Y626485D01*
X414000Y625985D02*
X415000D01*
X414500Y625485D02*
Y626485D01*
X403000Y625985D02*
X404000D01*
X403500Y625485D02*
Y626485D01*
X392000Y625985D02*
X393000D01*
X392500Y625485D02*
Y626485D01*
X381000Y625985D02*
X382000D01*
X381500Y625485D02*
Y626485D01*
X370000Y625985D02*
X371000D01*
X370500Y625485D02*
Y626485D01*
X326000Y625985D02*
X327000D01*
X326500Y625485D02*
Y626485D01*
X359000Y625985D02*
X360000D01*
X359500Y625485D02*
Y626485D01*
X348000Y625985D02*
X349000D01*
X348500Y625485D02*
Y626485D01*
X337000Y625985D02*
X338000D01*
X337500Y625485D02*
Y626485D01*
X304000Y625985D02*
X305000D01*
X304500Y625485D02*
Y626485D01*
X425000Y601500D02*
X426000D01*
X425500Y601000D02*
Y602000D01*
X425000Y580500D02*
X426000D01*
X425500Y580000D02*
Y581000D01*
X414000Y601500D02*
X415000D01*
X414500Y601000D02*
Y602000D01*
X414000Y580500D02*
X415000D01*
X414500Y580000D02*
Y581000D01*
X425000Y557500D02*
X426000D01*
X425500Y557000D02*
Y558000D01*
X392000Y601500D02*
X393000D01*
X392500Y601000D02*
Y602000D01*
X403000Y601500D02*
X404000D01*
X403500Y601000D02*
Y602000D01*
X381000Y601500D02*
X382000D01*
X381500Y601000D02*
Y602000D01*
X403000Y580500D02*
X404000D01*
X403500Y580000D02*
Y581000D01*
X392000Y580500D02*
X393000D01*
X392500Y580000D02*
Y581000D01*
X370000Y601500D02*
X371000D01*
X370500Y601000D02*
Y602000D01*
X381000Y580500D02*
X382000D01*
X381500Y580000D02*
Y581000D01*
X370000Y580500D02*
X371000D01*
X370500Y580000D02*
Y581000D01*
X392000Y557500D02*
X393000D01*
X392500Y557000D02*
Y558000D01*
X414000Y557500D02*
X415000D01*
X414500Y557000D02*
Y558000D01*
X424428Y538728D02*
X425428D01*
X424928Y538228D02*
Y539228D01*
X413428Y538728D02*
X414428D01*
X413928Y538228D02*
Y539228D01*
X403000Y557500D02*
X404000D01*
X403500Y557000D02*
Y558000D01*
X402428Y538728D02*
X403428D01*
X402928Y538228D02*
Y539228D01*
X432500Y397500D02*
X433500D01*
X433000Y397000D02*
Y398000D01*
X423500Y409000D02*
X424500D01*
X424000Y408500D02*
Y409500D01*
X391428Y538728D02*
X392428D01*
X391928Y538228D02*
Y539228D01*
X381000Y557500D02*
X382000D01*
X381500Y557000D02*
Y558000D01*
X370000Y557500D02*
X371000D01*
X370500Y557000D02*
Y558000D01*
X380428Y538728D02*
X381428D01*
X380928Y538228D02*
Y539228D01*
X369428Y538728D02*
X370428D01*
X369928Y538228D02*
Y539228D01*
X348000Y601500D02*
X349000D01*
X348500Y601000D02*
Y602000D01*
X359000Y601500D02*
X360000D01*
X359500Y601000D02*
Y602000D01*
X348000Y580500D02*
X349000D01*
X348500Y580000D02*
Y581000D01*
X359000Y580500D02*
X360000D01*
X359500Y580000D02*
Y581000D01*
X326000Y601500D02*
X327000D01*
X326500Y601000D02*
Y602000D01*
X337000Y601500D02*
X338000D01*
X337500Y601000D02*
Y602000D01*
X326000Y580500D02*
X327000D01*
X326500Y580000D02*
Y581000D01*
X337000Y580500D02*
X338000D01*
X337500Y580000D02*
Y581000D01*
X359000Y557500D02*
X360000D01*
X359500Y557000D02*
Y558000D01*
X348000Y557500D02*
X349000D01*
X348500Y557000D02*
Y558000D01*
X326000Y557500D02*
X327000D01*
X326500Y557000D02*
Y558000D01*
X337000Y557500D02*
X338000D01*
X337500Y557000D02*
Y558000D01*
X336428Y538728D02*
X337428D01*
X336928Y538228D02*
Y539228D01*
X315000Y580500D02*
X316000D01*
X315500Y580000D02*
Y581000D01*
X304000Y601500D02*
X305000D01*
X304500Y601000D02*
Y602000D01*
X304000Y580500D02*
X305000D01*
X304500Y580000D02*
Y581000D01*
X325428Y538728D02*
X326428D01*
X325928Y538228D02*
Y539228D01*
X315000Y557500D02*
X316000D01*
X315500Y557000D02*
Y558000D01*
X304000Y557500D02*
X305000D01*
X304500Y557000D02*
Y558000D01*
X314915Y552339D02*
X315915D01*
X315415Y551839D02*
Y552839D01*
X358428Y538728D02*
X359428D01*
X358928Y538228D02*
Y539228D01*
X347428Y538728D02*
X348428D01*
X347928Y538228D02*
Y539228D01*
X361549Y396200D02*
X362549D01*
X362049Y395700D02*
Y396700D01*
X314880Y442869D02*
X315880D01*
X315380Y442369D02*
Y443369D01*
X314428Y538728D02*
X315428D01*
X314928Y538228D02*
Y539228D01*
X303428Y538728D02*
X304428D01*
X303928Y538228D02*
Y539228D01*
X310250Y421163D02*
X311250D01*
X310750Y420663D02*
Y421663D01*
X308116Y437665D02*
X309116D01*
X308616Y437165D02*
Y438165D01*
X293000Y625985D02*
X294000D01*
X293500Y625485D02*
Y626485D01*
X282000Y625985D02*
X283000D01*
X282500Y625485D02*
Y626485D01*
X271000Y625985D02*
X272000D01*
X271500Y625485D02*
Y626485D01*
X249000Y625985D02*
X250000D01*
X249500Y625485D02*
Y626485D01*
X293000Y601500D02*
X294000D01*
X293500Y601000D02*
Y602000D01*
X282000Y601500D02*
X283000D01*
X282500Y601000D02*
Y602000D01*
X271000Y601500D02*
X272000D01*
X271500Y601000D02*
Y602000D01*
X293000Y580500D02*
X294000D01*
X293500Y580000D02*
Y581000D01*
X282000Y580500D02*
X283000D01*
X282500Y580000D02*
Y581000D01*
X271000Y580500D02*
X272000D01*
X271500Y580000D02*
Y581000D01*
X260000Y625985D02*
X261000D01*
X260500Y625485D02*
Y626485D01*
X260000Y601500D02*
X261000D01*
X260500Y601000D02*
Y602000D01*
X249000Y601500D02*
X250000D01*
X249500Y601000D02*
Y602000D01*
X260000Y580500D02*
X261000D01*
X260500Y580000D02*
Y581000D01*
X249000Y580500D02*
X250000D01*
X249500Y580000D02*
Y581000D01*
X227000Y625985D02*
X228000D01*
X227500Y625485D02*
Y626485D01*
X216000Y625985D02*
X217000D01*
X216500Y625485D02*
Y626485D01*
X205000Y625985D02*
X206000D01*
X205500Y625485D02*
Y626485D01*
X238000Y625985D02*
X239000D01*
X238500Y625485D02*
Y626485D01*
X181003Y620587D02*
X182003D01*
X181503Y620087D02*
Y621087D01*
X227000Y601500D02*
X228000D01*
X227500Y601000D02*
Y602000D01*
X238000Y601500D02*
X239000D01*
X238500Y601000D02*
Y602000D01*
X205000Y601500D02*
X206000D01*
X205500Y601000D02*
Y602000D01*
X216000Y601500D02*
X217000D01*
X216500Y601000D02*
Y602000D01*
X205000Y580500D02*
X206000D01*
X205500Y580000D02*
Y581000D01*
X227000Y580500D02*
X228000D01*
X227500Y580000D02*
Y581000D01*
X238000Y580500D02*
X239000D01*
X238500Y580000D02*
Y581000D01*
X216000Y580500D02*
X217000D01*
X216500Y580000D02*
Y581000D01*
X195459Y582500D02*
X196459D01*
X195959Y582000D02*
Y583000D01*
X181799Y597960D02*
X182799D01*
X182299Y597461D02*
Y598460D01*
X186395Y579180D02*
X187395D01*
X186895Y578680D02*
Y579680D01*
X178617Y571402D02*
X179617D01*
X179117Y570902D02*
Y571902D01*
X271000Y557500D02*
X272000D01*
X271500Y557000D02*
Y558000D01*
X293000Y557500D02*
X294000D01*
X293500Y557000D02*
Y558000D01*
X282000Y557500D02*
X283000D01*
X282500Y557000D02*
Y558000D01*
X260000Y557500D02*
X261000D01*
X260500Y557000D02*
Y558000D01*
X263665Y552339D02*
X264665D01*
X264165Y551839D02*
Y552839D01*
X292428Y538728D02*
X293428D01*
X292928Y538228D02*
Y539228D01*
X281428Y538728D02*
X282428D01*
X281928Y538228D02*
Y539228D01*
X299324Y458425D02*
X300324D01*
X299824Y457926D02*
Y458926D01*
X270428Y538728D02*
X271428D01*
X270928Y538228D02*
Y539228D01*
X259428Y538728D02*
X260428D01*
X259928Y538228D02*
Y539228D01*
X249000Y557500D02*
X250000D01*
X249500Y557000D02*
Y558000D01*
X248428Y538728D02*
X249428D01*
X248928Y538228D02*
Y539228D01*
X238000Y557500D02*
X239000D01*
X238500Y557000D02*
Y558000D01*
X237428Y538728D02*
X238428D01*
X237928Y538228D02*
Y539228D01*
X257765Y474984D02*
X258765D01*
X258265Y474484D02*
Y475484D01*
X256374Y459821D02*
X257374D01*
X256874Y459321D02*
Y460321D01*
X274961Y452643D02*
X275961D01*
X275461Y452143D02*
Y453143D01*
X279137Y452276D02*
X280137D01*
X279637Y451776D02*
Y452776D01*
X262376Y447309D02*
X263377D01*
X262876Y446809D02*
Y447809D01*
X262077Y441525D02*
X263077D01*
X262577Y441025D02*
Y442025D01*
X259405Y437087D02*
X260404D01*
X259904Y436587D02*
Y437587D01*
X253191Y415608D02*
X254191D01*
X253691Y415108D02*
Y416108D01*
X253191Y404608D02*
X254191D01*
X253691Y404108D02*
Y405108D01*
X253191Y382608D02*
X254191D01*
X253691Y382108D02*
Y383108D01*
X253191Y393608D02*
X254191D01*
X253691Y393108D02*
Y394108D01*
X240817Y444265D02*
X241817D01*
X241317Y443765D02*
Y444765D01*
X229857Y438942D02*
X230857D01*
X230357Y438442D02*
Y439442D01*
X237635Y431164D02*
X238635D01*
X238135Y430664D02*
Y431664D01*
X245413Y423386D02*
X246413D01*
X245913Y422886D02*
Y423886D01*
X239253Y397192D02*
X240253D01*
X239753Y396692D02*
Y397692D01*
X234946Y411680D02*
X235946D01*
X235446Y411180D02*
Y412180D01*
X239253Y386192D02*
X240253D01*
X239753Y385692D02*
Y386692D01*
X216000Y557500D02*
X217000D01*
X216500Y557000D02*
Y558000D01*
X227000Y557500D02*
X228000D01*
X227500Y557000D02*
Y558000D01*
X215428Y538728D02*
X216428D01*
X215928Y538228D02*
Y539228D01*
X205000Y557500D02*
X206000D01*
X205500Y557000D02*
Y558000D01*
X204428Y538728D02*
X205428D01*
X204928Y538228D02*
Y539228D01*
X226428Y538728D02*
X227428D01*
X226928Y538228D02*
Y539228D01*
X222079Y446720D02*
X223079D01*
X222579Y446220D02*
Y447220D01*
X214300Y454499D02*
X215301D01*
X214800Y453999D02*
Y454999D01*
X198744Y470055D02*
X199744D01*
X199244Y469555D02*
Y470555D01*
X206522Y462277D02*
X207522D01*
X207022Y461777D02*
Y462777D01*
X203834Y442793D02*
X204834D01*
X204333Y442293D02*
Y443293D01*
X193428Y538728D02*
X194429D01*
X193929Y538228D02*
Y539228D01*
X188226Y557736D02*
X189226D01*
X188726Y557236D02*
Y558236D01*
X180448Y549958D02*
X181448D01*
X180948Y549458D02*
Y550457D01*
X185655Y534401D02*
X186655D01*
X186155Y533901D02*
Y534901D01*
X190966Y477833D02*
X191966D01*
X191466Y477333D02*
Y478333D01*
X196055Y450571D02*
X197055D01*
X196555Y450071D02*
Y451071D01*
X188277Y458349D02*
X189277D01*
X188777Y457849D02*
Y458849D01*
X178617Y523747D02*
X179617D01*
X179117Y523247D02*
Y524247D01*
X183188Y485611D02*
X184188D01*
X183688Y485111D02*
Y486111D01*
X180499Y466127D02*
X181499D01*
X180999Y465627D02*
Y466627D01*
X219390Y427237D02*
X220390D01*
X219890Y426737D02*
Y427737D01*
X227168Y419458D02*
X228168D01*
X227668Y418958D02*
Y419958D01*
X211612Y435015D02*
X212612D01*
X212112Y434515D02*
Y435515D01*
X214760Y405531D02*
X215760D01*
X215259Y405031D02*
Y406031D01*
X206981Y413309D02*
X207981D01*
X207481Y412809D02*
Y413809D01*
X224685Y390766D02*
X225685D01*
X225185Y390266D02*
Y391267D01*
X222538Y397753D02*
X223538D01*
X223038Y397253D02*
Y398253D01*
X209225Y386354D02*
X210225D01*
X209725Y385854D02*
Y386854D01*
X204414Y392868D02*
X205413D01*
X204914Y392368D02*
Y393368D01*
X183647Y436643D02*
X184647D01*
X184147Y436143D02*
Y437143D01*
X191425Y428865D02*
X192425D01*
X191925Y428365D02*
Y429365D01*
X199203Y421087D02*
X200203D01*
X199703Y420587D02*
Y421587D01*
X179278Y441598D02*
X180278D01*
X179778Y441098D02*
Y442098D01*
X196635Y400646D02*
X197635D01*
X197135Y400146D02*
Y401146D01*
X188857Y408424D02*
X189857D01*
X189357Y407924D02*
Y408924D01*
X188879Y387911D02*
X189879D01*
X189379Y387411D02*
Y388411D01*
X181079Y416202D02*
X182079D01*
X181579Y415702D02*
Y416702D01*
X181101Y395689D02*
X182101D01*
X181601Y395189D02*
Y396189D01*
X356919Y374495D02*
X357919D01*
X357419Y373994D02*
Y374995D01*
X406367Y76216D02*
X407366D01*
X406866Y75716D02*
Y76716D01*
X239253Y375192D02*
X240253D01*
X239753Y374692D02*
Y375692D01*
X253191Y371608D02*
X254191D01*
X253691Y371108D02*
Y372108D01*
X253191Y360608D02*
X254191D01*
X253691Y360108D02*
Y361108D01*
X239253Y364192D02*
X240253D01*
X239753Y363692D02*
Y364692D01*
X253191Y349608D02*
X254191D01*
X253691Y349108D02*
Y350108D01*
X253191Y338608D02*
X254191D01*
X253691Y338108D02*
Y339108D01*
X239253Y353192D02*
X240253D01*
X239753Y352692D02*
Y353692D01*
X239253Y331192D02*
X240253D01*
X239753Y330692D02*
Y331692D01*
X239253Y342192D02*
X240253D01*
X239753Y341692D02*
Y342692D01*
X224685Y379767D02*
X225685D01*
X225185Y379267D02*
Y380266D01*
X224685Y368767D02*
X225685D01*
X225185Y368266D02*
Y369267D01*
X209255Y379864D02*
X210255D01*
X209755Y379364D02*
Y380364D01*
X209225Y372957D02*
X210225D01*
X209725Y372457D02*
Y373457D01*
X207648Y359089D02*
X208648D01*
X208148Y358589D02*
Y359589D01*
X224685Y346767D02*
X225685D01*
X225185Y346267D02*
Y347267D01*
X224685Y357767D02*
X225685D01*
X225185Y357267D02*
Y358267D01*
X213804Y333593D02*
X214804D01*
X214304Y333093D02*
Y334093D01*
X253191Y327608D02*
X254191D01*
X253691Y327108D02*
Y328108D01*
X251703Y318262D02*
X252703D01*
X252203Y317762D02*
Y318762D01*
X233116Y325440D02*
X234116D01*
X233616Y324940D02*
Y325940D01*
X243925Y310484D02*
X244925D01*
X244424Y309984D02*
Y310984D01*
X236146Y302706D02*
X237146D01*
X236646Y302206D02*
Y303206D01*
X225338Y317662D02*
X226338D01*
X225837Y317162D02*
Y318162D01*
X217559Y309884D02*
X218559D01*
X218059Y309384D02*
Y310384D01*
X209336Y304121D02*
X210336D01*
X209837Y303621D02*
Y304621D01*
X228368Y294928D02*
X229368D01*
X228868Y294428D02*
Y295428D01*
X220590Y287150D02*
X221590D01*
X221090Y286650D02*
Y287650D01*
X205305Y368118D02*
X206305D01*
X205805Y367618D02*
Y368618D01*
X199371Y366586D02*
X200371D01*
X199871Y366086D02*
Y367086D01*
X196648Y359089D02*
X197648D01*
X197148Y358589D02*
Y359589D01*
X203290Y352582D02*
X204290D01*
X203790Y352082D02*
Y353082D01*
X202804Y333593D02*
X203804D01*
X203304Y333093D02*
Y334093D01*
X198337Y304121D02*
X199336D01*
X198836Y303621D02*
Y304621D01*
X205110Y160546D02*
X206110D01*
X205610Y160047D02*
Y161047D01*
X173225Y612809D02*
X174224D01*
X173724Y612309D02*
Y613309D01*
X165446Y605031D02*
X166446D01*
X165946Y604530D02*
Y605531D01*
X174021Y590182D02*
X175021D01*
X174521Y589682D02*
Y590682D01*
X172670Y542179D02*
X173669D01*
X173169Y541679D02*
Y542679D01*
X170839Y563624D02*
X171839D01*
X171339Y563124D02*
Y564124D01*
X166243Y582404D02*
X167243D01*
X166743Y581904D02*
Y582904D01*
X158465Y574626D02*
X159465D01*
X158965Y574126D02*
Y575126D01*
X163060Y555846D02*
X164060D01*
X163561Y555346D02*
Y556346D01*
X155282Y548068D02*
X156282D01*
X155782Y547567D02*
Y548568D01*
X150687Y566848D02*
X151687D01*
X151187Y566348D02*
Y567348D01*
X147504Y540289D02*
X148504D01*
X148004Y539789D02*
Y540789D01*
X174615Y505076D02*
X175615D01*
X175115Y504576D02*
Y505576D01*
X164891Y534401D02*
X165891D01*
X165391Y533901D02*
Y534901D01*
X174615Y515559D02*
X175615D01*
X175115Y515059D02*
Y516059D01*
X175410Y493389D02*
X176410D01*
X175910Y492889D02*
Y493889D01*
X172721Y473905D02*
X173721D01*
X173221Y473405D02*
Y474406D01*
X164943Y481684D02*
X165943D01*
X165443Y481184D02*
Y482184D01*
X157165Y511462D02*
X158165D01*
X157665Y510962D02*
Y511962D01*
X157165Y489462D02*
X158165D01*
X157665Y488962D02*
Y489962D01*
X157165Y500462D02*
X158165D01*
X157665Y499962D02*
Y500962D01*
X160678Y486660D02*
X161677D01*
X161178Y486160D02*
Y487160D01*
X142112Y581696D02*
X143112D01*
X142612Y581196D02*
Y582196D01*
X134334Y573918D02*
X135334D01*
X134834Y573418D02*
Y574418D01*
X142909Y559070D02*
X143909D01*
X143409Y558570D02*
Y559570D01*
X126556Y566140D02*
X127556D01*
X127056Y565640D02*
Y566640D01*
X135131Y551292D02*
X136131D01*
X135631Y550792D02*
Y551791D01*
X141733Y511462D02*
X142733D01*
X142233Y510962D02*
Y511962D01*
X141733Y489462D02*
X142733D01*
X142233Y488962D02*
Y489962D01*
X141733Y500462D02*
X142733D01*
X142233Y499962D02*
Y500962D01*
X144756Y475534D02*
X145756D01*
X145256Y475034D02*
Y476034D01*
X126895Y542692D02*
X127895D01*
X127395Y542192D02*
Y543192D01*
X126271Y522462D02*
X127271D01*
X126771Y521962D02*
Y522962D01*
X126271Y533462D02*
X127271D01*
X126771Y532962D02*
Y533962D01*
X118778Y558362D02*
X119777D01*
X119277Y557862D02*
Y558862D01*
X126271Y500462D02*
X127271D01*
X126771Y499962D02*
Y500962D01*
X126271Y511462D02*
X127271D01*
X126771Y510962D02*
Y511962D01*
X126729Y479586D02*
X127729D01*
X127229Y479086D02*
Y480086D01*
X126271Y489462D02*
X127271D01*
X126771Y488962D02*
Y489962D01*
X168090Y452200D02*
X169090D01*
X168591Y451700D02*
Y452700D01*
X175869Y444422D02*
X176869D01*
X176369Y443922D02*
Y444921D01*
X160312Y459978D02*
X161312D01*
X160812Y459478D02*
Y460478D01*
X152534Y467756D02*
X153534D01*
X153034Y467256D02*
Y468256D01*
X173301Y423980D02*
X174301D01*
X173801Y423480D02*
Y424480D01*
X157745Y439537D02*
X158745D01*
X158245Y439037D02*
Y440037D01*
X165523Y431758D02*
X166523D01*
X166023Y431259D02*
Y432258D01*
X142188Y455093D02*
X143188D01*
X142688Y454593D02*
Y455593D01*
X149966Y447315D02*
X150966D01*
X150466Y446815D02*
Y447815D01*
X135773Y462789D02*
X136773D01*
X136273Y462289D02*
Y463289D01*
X142210Y434580D02*
X143210D01*
X142710Y434080D02*
Y435080D01*
X149988Y426802D02*
X150988D01*
X150488Y426302D02*
Y427302D01*
X173323Y403467D02*
X174323D01*
X173823Y402967D02*
Y403967D01*
X165545Y411245D02*
X166544D01*
X166045Y410746D02*
Y411745D01*
X157766Y419024D02*
X158766D01*
X158266Y418524D02*
Y419524D01*
X127995Y470567D02*
X128995D01*
X128495Y470067D02*
Y471067D01*
X126654Y450136D02*
X127654D01*
X127154Y449636D02*
Y450636D01*
X121153Y369013D02*
X122153D01*
X121653Y368513D02*
Y369513D01*
X118876Y457914D02*
X119876D01*
X119376Y457414D02*
Y458414D01*
X115625Y371101D02*
X116625D01*
X116125Y370601D02*
Y371601D01*
X123365Y364222D02*
X124365D01*
X123865Y363722D02*
Y364722D01*
X121522Y359087D02*
X122522D01*
X122022Y358587D02*
Y359587D01*
X123670Y346511D02*
X124670D01*
X124170Y346012D02*
Y347011D01*
X121350Y351494D02*
X122350D01*
X121850Y350994D02*
Y351995D01*
X116829Y355352D02*
X117829D01*
X117329Y354852D02*
Y355852D01*
X120500Y341010D02*
X121500D01*
X121000Y340510D02*
Y341510D01*
X115900Y338010D02*
X116900D01*
X116400Y337510D02*
Y338510D01*
X78589Y611930D02*
X79589D01*
X79089Y611430D02*
Y612430D01*
X112999Y550583D02*
X113999D01*
X113499Y550083D02*
Y551083D01*
X113097Y542692D02*
X114097D01*
X113597Y542192D02*
Y543192D01*
X113097Y520692D02*
X114097D01*
X113597Y520192D02*
Y521192D01*
X113097Y531692D02*
X114097D01*
X113597Y531192D02*
Y532192D01*
X113097Y498692D02*
X114097D01*
X113597Y498192D02*
Y499192D01*
X113097Y487692D02*
X114097D01*
X113597Y487192D02*
Y488192D01*
X113097Y509692D02*
X114097D01*
X113597Y509192D02*
Y510192D01*
X113097Y465692D02*
X114097D01*
X113597Y465192D02*
Y466193D01*
X113097Y476693D02*
X114097D01*
X113597Y476193D02*
Y477192D01*
X77795Y469543D02*
X78795D01*
X78295Y469043D02*
Y470043D01*
X63157Y611930D02*
X64157D01*
X63657Y611430D02*
Y612430D01*
X35795Y469543D02*
X36795D01*
X36295Y469043D02*
Y470043D01*
X49795Y469543D02*
X50795D01*
X50295Y469043D02*
Y470043D01*
X7670Y474000D02*
X8670D01*
X8170Y473500D02*
Y474500D01*
X56795Y469543D02*
X57795D01*
X57295Y469043D02*
Y470043D01*
X63795Y469543D02*
X64795D01*
X64295Y469043D02*
Y470043D01*
X42795Y469543D02*
X43795D01*
X43295Y469043D02*
Y470043D01*
X70795Y469543D02*
X71795D01*
X71295Y469043D02*
Y470043D01*
X32295Y462543D02*
X33294D01*
X32794Y462043D02*
Y463043D01*
X7670Y467000D02*
X8670D01*
X8170Y466500D02*
Y467500D01*
X25294Y462543D02*
X26295D01*
X25794Y462043D02*
Y463043D01*
X99550Y393962D02*
X100550D01*
X100050Y393462D02*
Y394462D01*
X105500Y389012D02*
X106500D01*
X106000Y388512D02*
Y389512D01*
X89651Y403861D02*
X90651D01*
X90151Y403361D02*
Y404361D01*
X94600Y398911D02*
X95601D01*
X95100Y398411D02*
Y399411D01*
X110465Y370045D02*
X111465D01*
X110965Y369545D02*
Y370545D01*
X105500Y353010D02*
X106500D01*
X106000Y352510D02*
Y353510D01*
X105500Y359010D02*
X106500D01*
X106000Y358510D02*
Y359510D01*
X105500Y347010D02*
X106500D01*
X106000Y346510D02*
Y347510D01*
X105500Y342010D02*
X106500D01*
X106000Y341510D02*
Y342510D01*
X105500Y382012D02*
X106500D01*
X106000Y381512D02*
Y382512D01*
X105500Y375012D02*
X106500D01*
X106000Y374512D02*
Y375512D01*
X105500Y369012D02*
X106500D01*
X106000Y368512D02*
Y369512D01*
X67295Y462543D02*
X68295D01*
X67795Y462043D02*
Y463043D01*
X60295Y462543D02*
X61295D01*
X60795Y462043D02*
Y463043D01*
X74295Y462543D02*
X75295D01*
X74795Y462043D02*
Y463043D01*
X39295Y462543D02*
X40295D01*
X39795Y462043D02*
Y463043D01*
X46295Y462543D02*
X47295D01*
X46795Y462043D02*
Y463043D01*
X18295Y462543D02*
X19295D01*
X18794Y462043D02*
Y463043D01*
X53295Y462543D02*
X54295D01*
X53795Y462043D02*
Y463043D01*
X86244Y429593D02*
X87244D01*
X86744Y429093D02*
Y430093D01*
X86244Y408593D02*
X87244D01*
X86744Y408093D02*
Y409093D01*
X86244Y422593D02*
X87244D01*
X86744Y422093D02*
Y423093D01*
X86244Y415593D02*
X87244D01*
X86744Y415093D02*
Y416093D01*
X86244Y457593D02*
X87244D01*
X86744Y457093D02*
Y458093D01*
X11294Y462543D02*
X12294D01*
X11795Y462043D02*
Y463043D01*
X81295Y462543D02*
X82295D01*
X81795Y462043D02*
Y463043D01*
X86244Y436593D02*
X87244D01*
X86744Y436093D02*
Y437093D01*
X86244Y450593D02*
X87244D01*
X86744Y450093D02*
Y451093D01*
X86244Y443593D02*
X87244D01*
X86744Y443093D02*
Y444093D01*
X137000Y275000D02*
X138000D01*
X137500Y274500D02*
Y275500D01*
X130000Y275000D02*
X131000D01*
X130500Y274500D02*
Y275500D01*
X129384Y266820D02*
X130384D01*
X129884Y266320D02*
Y267320D01*
X115900Y282010D02*
X116900D01*
X116400Y281510D02*
Y282510D01*
X115900Y276338D02*
X116900D01*
X116400Y275838D02*
Y276838D01*
X117267Y271763D02*
X118267D01*
X117767Y271263D02*
Y272263D01*
X115900Y310010D02*
X116900D01*
X116400Y309510D02*
Y310510D01*
X115900Y303010D02*
X116900D01*
X116400Y302510D02*
Y303510D01*
X115900Y289010D02*
X116900D01*
X116400Y288510D02*
Y289510D01*
X115900Y296010D02*
X116900D01*
X116400Y295510D02*
Y296510D01*
X117385Y261665D02*
X118385D01*
X117885Y261165D02*
Y262165D01*
X129082Y181519D02*
X130083D01*
X129583Y181019D02*
Y182019D01*
X164901Y131193D02*
X165901D01*
X165401Y130693D02*
Y131693D01*
X133500Y130000D02*
X134500D01*
X134000Y129500D02*
Y130500D01*
X118518Y186503D02*
X119518D01*
X119018Y186003D02*
Y187003D01*
X117256Y176891D02*
X118256D01*
X117756Y176391D02*
Y177391D01*
X116069Y158658D02*
X117069D01*
X116569Y158158D02*
Y159157D01*
X123469Y143271D02*
X124469D01*
X123969Y142771D02*
Y143771D01*
X120500Y148000D02*
X121500D01*
X121000Y147500D02*
Y148500D01*
X123172Y124126D02*
X124172D01*
X123672Y123626D02*
Y124626D01*
X122428Y130524D02*
X123428D01*
X122928Y130024D02*
Y131024D01*
X118510Y138014D02*
X119509D01*
X119010Y137514D02*
Y138514D01*
X117121Y133004D02*
X118121D01*
X117621Y132504D02*
Y133504D01*
X118500Y120000D02*
X119500D01*
X119000Y119500D02*
Y120500D01*
X115900Y331010D02*
X116900D01*
X116400Y330510D02*
Y331510D01*
X115900Y324010D02*
X116900D01*
X116400Y323510D02*
Y324510D01*
X115900Y317010D02*
X116900D01*
X116400Y316510D02*
Y317510D01*
X110937Y264592D02*
X111937D01*
X111437Y264092D02*
Y265092D01*
X113231Y185779D02*
X114231D01*
X113731Y185279D02*
Y186279D01*
X105500Y200000D02*
X106500D01*
X106000Y199500D02*
Y200500D01*
X105500Y214000D02*
X106500D01*
X106000Y213500D02*
Y214500D01*
X105500Y207000D02*
X106500D01*
X106000Y206500D02*
Y207500D01*
X105500Y186000D02*
X106500D01*
X106000Y185500D02*
Y186500D01*
X105500Y193000D02*
X106500D01*
X106000Y192500D02*
Y193500D01*
X105500Y296010D02*
X106500D01*
X106000Y295510D02*
Y296510D01*
X105500Y303010D02*
X106500D01*
X106000Y302510D02*
Y303510D01*
X105500Y310010D02*
X106500D01*
X106000Y309510D02*
Y310510D01*
X105500Y282010D02*
X106500D01*
X106000Y281510D02*
Y282510D01*
X105500Y289010D02*
X106500D01*
X106000Y288510D02*
Y289510D01*
X105500Y331010D02*
X106500D01*
X106000Y330510D02*
Y331510D01*
X105500Y337010D02*
X106500D01*
X106000Y336510D02*
Y337510D01*
X105500Y324010D02*
X106500D01*
X106000Y323510D02*
Y324510D01*
X105500Y317010D02*
X106500D01*
X106000Y316510D02*
Y317510D01*
X105500Y236010D02*
X106500D01*
X106000Y235510D02*
Y236510D01*
X105500Y243010D02*
X106500D01*
X106000Y242510D02*
Y243510D01*
X105500Y221000D02*
X106500D01*
X106000Y220500D02*
Y221500D01*
X105500Y228000D02*
X106500D01*
X106000Y227500D02*
Y228500D01*
X105500Y275999D02*
X106500D01*
X106000Y275499D02*
Y276499D01*
X105500Y270010D02*
X106500D01*
X106000Y269510D02*
Y270510D01*
X105500Y250010D02*
X106500D01*
X106000Y249510D02*
Y250510D01*
X105500Y264010D02*
X106500D01*
X106000Y263510D02*
Y264510D01*
X105500Y257010D02*
X106500D01*
X106000Y256510D02*
Y257510D01*
X115784Y171755D02*
X116784D01*
X116284Y171255D02*
Y172255D01*
X115820Y165254D02*
X116819D01*
X116320Y164755D02*
Y165755D01*
X115500Y152000D02*
X116500D01*
X116000Y151500D02*
Y152500D01*
X112500Y120000D02*
X113500D01*
X113000Y119500D02*
Y120500D01*
X105500Y31022D02*
X106500D01*
X106000Y30522D02*
Y31522D01*
X105500Y44022D02*
X106500D01*
X106000Y43522D02*
Y44522D01*
X105500Y37022D02*
X106500D01*
X106000Y36522D02*
Y37522D01*
X105500Y8000D02*
X106500D01*
X106000Y7500D02*
Y8500D01*
X105500Y24522D02*
X106500D01*
X106000Y24022D02*
Y25022D01*
X105500Y51022D02*
X106500D01*
X106000Y50522D02*
Y51522D01*
X105500Y138000D02*
X106500D01*
X106000Y137500D02*
Y138500D01*
X105500Y144000D02*
X106500D01*
X106000Y143500D02*
Y144500D01*
X105500Y151000D02*
X106500D01*
X106000Y150500D02*
Y151500D01*
X105500Y121022D02*
X106500D01*
X106000Y120522D02*
Y121522D01*
X105500Y132000D02*
X106500D01*
X106000Y131500D02*
Y132500D01*
X105500Y172000D02*
X106500D01*
X106000Y171500D02*
Y172500D01*
X105500Y179000D02*
X106500D01*
X106000Y178500D02*
Y179500D01*
X105500Y158000D02*
X106500D01*
X106000Y157500D02*
Y158500D01*
X105500Y165000D02*
X106500D01*
X106000Y164500D02*
Y165500D01*
X105500Y72022D02*
X106500D01*
X106000Y71522D02*
Y72522D01*
X105500Y79022D02*
X106500D01*
X106000Y78522D02*
Y79522D01*
X105500Y58022D02*
X106500D01*
X106000Y57522D02*
Y58522D01*
X105500Y65022D02*
X106500D01*
X106000Y64522D02*
Y65522D01*
X105500Y107022D02*
X106500D01*
X106000Y106522D02*
Y107522D01*
X105500Y100022D02*
X106500D01*
X106000Y99522D02*
Y100522D01*
X105500Y114022D02*
X106500D01*
X106000Y113522D02*
Y114522D01*
X105500Y86022D02*
X106500D01*
X106000Y85522D02*
Y86522D01*
X105500Y93022D02*
X106500D01*
X106000Y92522D02*
Y93522D01*
X829710Y790909D02*
X830710D01*
X830210Y790409D02*
Y791409D01*
X829710Y784909D02*
X830710D01*
X830210Y784409D02*
Y785409D01*
X383517Y345417D02*
X384517D01*
X384017Y344917D02*
Y345917D01*
X257157Y1117946D02*
X258157D01*
X257657Y1117446D02*
Y1118446D01*
X249835Y1139740D02*
X250835D01*
X250335Y1139240D02*
Y1140240D01*
X282884Y357293D02*
X283884D01*
X283384Y356793D02*
Y357793D01*
X289212Y363427D02*
X290212D01*
X289712Y362927D02*
Y363927D01*
X445499Y104497D02*
X446499D01*
X445999Y103997D02*
Y104998D01*
X439444Y119694D02*
X440444D01*
X439944Y119194D02*
Y120194D01*
X527850Y115505D02*
X528850D01*
X528350Y115005D02*
Y116005D01*
X565620Y47900D02*
X566620D01*
X566120Y47400D02*
Y48400D01*
X572620Y47900D02*
X573620D01*
X573120Y47400D02*
Y48400D01*
X184089Y1322016D02*
X185089D01*
X184589Y1321516D02*
Y1322516D01*
X161888Y801218D02*
X162888D01*
X162388Y800718D02*
Y801718D01*
X435496Y130926D02*
X436496D01*
X435996Y130426D02*
Y131426D01*
X345840Y74576D02*
X346840D01*
X346340Y74075D02*
Y75075D01*
X335830Y74735D02*
X336830D01*
X336330Y74235D02*
Y75235D01*
X315178Y70357D02*
X316178D01*
X315678Y69857D02*
Y70857D01*
X369407Y117595D02*
X370407D01*
X369907Y117095D02*
Y118095D01*
X395739Y78112D02*
X396739D01*
X396239Y77612D02*
Y78612D01*
X828359Y941524D02*
X829359D01*
X828859Y941024D02*
Y942024D01*
X834152Y941090D02*
X835152D01*
X834652Y940590D02*
Y941590D01*
X828342Y948327D02*
X829342D01*
X828842Y947827D02*
Y948827D01*
X838507Y832650D02*
X839507D01*
X839007Y832150D02*
Y833150D01*
X869500Y943000D02*
X870500D01*
X870000Y942500D02*
Y943500D01*
X860817Y821901D02*
X861817D01*
X861317Y821401D02*
Y822401D01*
X957829Y933208D02*
X958829D01*
X958328Y932708D02*
Y933708D01*
X991400Y568000D02*
X992400D01*
X991900Y567500D02*
Y568500D01*
X864500Y830340D02*
X865500D01*
X865000Y829839D02*
Y830839D01*
X558492Y963000D02*
X559492D01*
X558992Y962500D02*
Y963500D01*
X540592Y963000D02*
X541592D01*
X541092Y962500D02*
Y963500D01*
X988064Y279281D02*
X989064D01*
X988564Y278781D02*
Y279781D01*
X742372Y183678D02*
X743372D01*
X742872Y183178D02*
Y184178D01*
X595131Y137290D02*
X596132D01*
X595631Y136790D02*
Y137790D01*
X595131Y153290D02*
X596132D01*
X595631Y152790D02*
Y153790D01*
X587132Y161290D02*
X588131D01*
X587631Y160790D02*
Y161790D01*
X455585Y321320D02*
X456585D01*
X456085Y320820D02*
Y321820D01*
X448500Y308999D02*
X449500D01*
X449000Y308499D02*
Y309499D01*
X587132Y153290D02*
X588131D01*
X587631Y152790D02*
Y153790D01*
X571131Y161290D02*
X572131D01*
X571631Y160790D02*
Y161790D01*
X571131Y153290D02*
X572131D01*
X571631Y152790D02*
Y153790D01*
X587132Y129290D02*
X588131D01*
X587631Y128790D02*
Y129790D01*
X571131Y137290D02*
X572131D01*
X571631Y136790D02*
Y137790D01*
X587132Y137290D02*
X588131D01*
X587631Y136790D02*
Y137790D01*
X563131Y153290D02*
X564132D01*
X563632Y152790D02*
Y153790D01*
X567766Y127550D02*
X568766D01*
X568266Y127051D02*
Y128050D01*
X563131Y137290D02*
X564132D01*
X563632Y136790D02*
Y137790D01*
X317192Y981342D02*
X318192D01*
X317692Y980843D02*
Y981842D01*
X347228Y784384D02*
X348228D01*
X347728Y783884D02*
Y784884D01*
X387129Y373235D02*
X388129D01*
X387629Y372735D02*
Y373735D01*
X372567Y323490D02*
X373567D01*
X373067Y322990D02*
Y323990D01*
X375025Y316642D02*
X376025D01*
X375525Y316142D02*
Y317142D01*
X325229Y316025D02*
X326229D01*
X325729Y315525D02*
Y316525D01*
X204500Y482000D02*
X205500D01*
X205000Y481500D02*
Y482500D01*
X204500Y487000D02*
X205500D01*
X205000Y486500D02*
Y487500D01*
X194500Y487999D02*
X195500D01*
X195000Y487499D02*
Y488499D01*
X194500Y481999D02*
X195500D01*
X195000Y481499D02*
Y482499D01*
X183449Y493480D02*
X184449D01*
X183949Y492980D02*
Y493980D01*
X305849Y318816D02*
X306849D01*
X306349Y318316D02*
Y319316D01*
X213099Y50800D02*
X214099D01*
X213599Y50300D02*
Y51300D01*
X141032Y297045D02*
X142032D01*
X141532Y296545D02*
Y297545D01*
X141032Y291045D02*
X142032D01*
X141532Y290545D02*
Y291545D01*
X134032Y297045D02*
X135032D01*
X134532Y296545D02*
Y297545D01*
X134032Y291045D02*
X135032D01*
X134532Y290545D02*
Y291545D01*
X141500Y120000D02*
X142500D01*
X142000Y119500D02*
Y120500D01*
X141500Y113000D02*
X142500D01*
X142000Y112500D02*
Y113500D01*
X135500Y113000D02*
X136500D01*
X136000Y112500D02*
Y113500D01*
X129500Y120000D02*
X130500D01*
X130000Y119500D02*
Y120500D01*
X135500Y120000D02*
X136500D01*
X136000Y119500D02*
Y120500D01*
X129500Y113000D02*
X130500D01*
X130000Y112500D02*
Y113500D01*
X759655Y494378D02*
X760655D01*
X760155Y493878D02*
Y494878D01*
X539370Y34375D02*
X540370D01*
X539870Y33875D02*
Y34875D01*
X469500Y31000D02*
X470500D01*
X470000Y30500D02*
Y31500D01*
X335369Y276047D02*
X336369D01*
X335869Y275546D02*
Y276546D01*
X101334Y441486D02*
X102334D01*
X101834Y440986D02*
Y441986D01*
X104078Y436503D02*
X105078D01*
X104578Y436003D02*
Y437003D01*
X100713Y437707D02*
X101713D01*
X101213Y437207D02*
Y438207D01*
X381460Y407280D02*
X382460D01*
X381960Y406780D02*
Y407780D01*
X391523Y418860D02*
X392523D01*
X392023Y418360D02*
Y419360D01*
X307500Y442000D02*
X308500D01*
X308000Y441500D02*
Y442500D01*
X205500Y475000D02*
X206500D01*
X206000Y474500D02*
Y475500D01*
X180720Y342249D02*
X181720D01*
X181220Y341749D02*
Y342749D01*
X191590Y263100D02*
X192591D01*
X192090Y262600D02*
Y263600D01*
X176500Y263100D02*
X177500D01*
X177000Y262600D02*
Y263600D01*
X276481Y380946D02*
X277481D01*
X276981Y380446D02*
Y381446D01*
X266262Y366675D02*
X267262D01*
X266762Y366175D02*
Y367175D01*
X83177Y848437D02*
X84177D01*
X83677Y847937D02*
Y848937D01*
X603131Y137290D02*
X604132D01*
X603632Y136790D02*
Y137790D01*
X204643Y88885D02*
X205643D01*
X205143Y88385D02*
Y89385D01*
X192459Y113750D02*
X193459D01*
X192959Y113250D02*
Y114250D01*
X553562Y70826D02*
X554562D01*
X554062Y70326D02*
Y71326D01*
X478770Y47395D02*
X479770D01*
X479270Y46895D02*
Y47895D01*
X420131Y34290D02*
X421131D01*
X420631Y33790D02*
Y34790D01*
X328414Y437203D02*
X329414D01*
X328914Y436703D02*
Y437703D01*
X281119Y381132D02*
X282119D01*
X281619Y380631D02*
Y381632D01*
X140672Y382493D02*
X141672D01*
X141172Y381993D02*
Y382993D01*
X135250Y316247D02*
X136250D01*
X135750Y315747D02*
Y316747D01*
X410392Y218747D02*
X411392D01*
X410892Y218247D02*
Y219247D01*
X403846Y216282D02*
X404846D01*
X404346Y215782D02*
Y216782D01*
X360213Y120353D02*
X361213D01*
X360713Y119853D02*
Y120853D01*
X753842Y369583D02*
X754842D01*
X754342Y369083D02*
Y370083D01*
X672321Y1243360D02*
X673321D01*
X672821Y1242860D02*
Y1243860D01*
X690321Y1243412D02*
X691321D01*
X690821Y1242912D02*
Y1243912D01*
X314454Y77116D02*
X315454D01*
X314954Y76616D02*
Y77616D01*
X308348Y76664D02*
X309348D01*
X308848Y76164D02*
Y77164D01*
X381877Y58670D02*
X382877D01*
X382377Y58170D02*
Y59170D01*
X366000Y50407D02*
X367000D01*
X366500Y49907D02*
Y50907D01*
X288901Y75179D02*
X289900D01*
X289401Y74679D02*
Y75679D01*
X371657Y59794D02*
X372657D01*
X372157Y59294D02*
Y60294D01*
X361713Y62676D02*
X362713D01*
X362213Y62176D02*
Y63176D01*
X282665Y84507D02*
X283665D01*
X283165Y84007D02*
Y85007D01*
X555317Y83406D02*
X556317D01*
X555817Y82906D02*
Y83906D01*
X620400Y62840D02*
X621400D01*
X620900Y62340D02*
Y63340D01*
X604400Y73152D02*
X605400D01*
X604900Y72652D02*
Y73652D01*
X465200Y117424D02*
X466200D01*
X465700Y116924D02*
Y117924D01*
X460045Y104739D02*
X461045D01*
X460545Y104239D02*
Y105239D01*
X320438Y35453D02*
X321438D01*
X320938Y34953D02*
Y35953D01*
X494080Y51750D02*
X495080D01*
X494580Y51250D02*
Y52250D01*
X494077Y57086D02*
X495077D01*
X494577Y56586D02*
Y57586D01*
X766070Y975876D02*
X767070D01*
X766571Y975376D02*
Y976376D01*
X630374Y548413D02*
X631374D01*
X630874Y547913D02*
Y548913D01*
X648643Y22740D02*
X649643D01*
X649144Y22240D02*
Y23240D01*
X890141Y9749D02*
X891141D01*
X890641Y9249D02*
Y10249D01*
X854811Y22718D02*
X855811D01*
X855311Y22218D02*
Y23218D01*
X842841Y20551D02*
X843841D01*
X843341Y20051D02*
Y21051D01*
X847974Y22847D02*
X848974D01*
X848474Y22347D02*
Y23347D01*
X810173Y22781D02*
X811173D01*
X810674Y22281D02*
Y23281D01*
X797150Y22864D02*
X798150D01*
X797650Y22364D02*
Y23364D01*
X802932Y22506D02*
X803932D01*
X803432Y22006D02*
Y23006D01*
X735669Y143432D02*
X736669D01*
X736169Y142932D02*
Y143932D01*
X976168Y986424D02*
X977168D01*
X976668Y985924D02*
Y986924D01*
X964744Y939453D02*
X965744D01*
X965244Y938953D02*
Y939953D01*
X855479Y949657D02*
X856479D01*
X855979Y949157D02*
Y950157D01*
X972615Y931998D02*
X973615D01*
X973115Y931498D02*
Y932498D01*
X852518Y940343D02*
X853518D01*
X853018Y939843D02*
Y940843D01*
X874256Y911259D02*
X875256D01*
X874756Y910759D02*
Y911759D01*
X969615Y935998D02*
X970615D01*
X970115Y935498D02*
Y936498D01*
X850878Y950151D02*
X851878D01*
X851378Y949651D02*
Y950651D01*
X739687Y136544D02*
X740687D01*
X740187Y136044D02*
Y137044D01*
X738132Y187734D02*
X739132D01*
X738632Y187234D02*
Y188234D01*
X688787Y179288D02*
X689787D01*
X689287Y178788D02*
Y179788D01*
X695851Y176887D02*
X696851D01*
X696351Y176387D02*
Y177387D01*
X796132Y486290D02*
X797132D01*
X796631Y485790D02*
Y486790D01*
X635131Y193290D02*
X636131D01*
X635631Y192790D02*
Y193790D01*
X791728Y496159D02*
X792728D01*
X792228Y495659D02*
Y496659D01*
X571131Y177290D02*
X572131D01*
X571631Y176790D02*
Y177790D01*
X794728Y500159D02*
X795728D01*
X795228Y499659D02*
Y500659D01*
X531131Y177290D02*
X532131D01*
X531631Y176790D02*
Y177790D01*
X791572Y507939D02*
X792572D01*
X792072Y507439D02*
Y508439D01*
X645609Y157159D02*
X646609D01*
X646109Y156659D02*
Y157659D01*
X800728Y483159D02*
X801728D01*
X801228Y482659D02*
Y483659D01*
X571131Y201290D02*
X572131D01*
X571631Y200790D02*
Y201790D01*
X785119Y489155D02*
X786119D01*
X785619Y488655D02*
Y489655D01*
X555609Y221814D02*
X556609D01*
X556109Y221314D02*
Y222314D01*
X782728Y486159D02*
X783728D01*
X783228Y485659D02*
Y486659D01*
X533728Y197159D02*
X534728D01*
X534228Y196659D02*
Y197659D01*
X779628Y493706D02*
X780628D01*
X780128Y493206D02*
Y494206D01*
X618400Y218490D02*
X619400D01*
X618900Y217990D02*
Y218990D01*
X776728Y486159D02*
X777728D01*
X777228Y485659D02*
Y486659D01*
X621535Y172886D02*
X622535D01*
X622035Y172386D02*
Y173386D01*
X773728Y489159D02*
X774728D01*
X774228Y488659D02*
Y489659D01*
X603131Y177290D02*
X604131D01*
X603631Y176790D02*
Y177790D01*
X763883Y483159D02*
X764883D01*
X764383Y482659D02*
Y483659D01*
X447728Y168159D02*
X448728D01*
X448228Y167659D02*
Y168659D01*
X559728Y92159D02*
X560728D01*
X560228Y91659D02*
Y92659D01*
X767843Y489159D02*
X768843D01*
X768343Y488659D02*
Y489659D01*
X622410Y217717D02*
X623410D01*
X622910Y217217D02*
Y218217D01*
X559512Y99930D02*
X560512D01*
X560012Y99431D02*
Y100430D01*
X443728Y168159D02*
X444728D01*
X444228Y167659D02*
Y168659D01*
X669100Y31293D02*
X670100D01*
X669600Y30793D02*
Y31793D01*
X655078Y30659D02*
X656078D01*
X655578Y30159D02*
Y31159D01*
X245036Y806673D02*
X246036D01*
X245536Y806173D02*
Y807173D01*
X209098Y845157D02*
X210098D01*
X209598Y844657D02*
Y845657D01*
X247757Y475826D02*
X248757D01*
X248257Y475326D02*
Y476326D01*
X155798Y285563D02*
X156798D01*
X156298Y285063D02*
Y286063D01*
X834193Y949808D02*
X835193D01*
X834693Y949308D02*
Y950308D01*
X838394Y798478D02*
X839394D01*
X838894Y797978D02*
Y798978D01*
X654657Y161830D02*
X655656D01*
X655156Y161330D02*
Y162330D01*
X247000Y1180855D02*
X248000D01*
X247500Y1180355D02*
Y1181355D01*
X240718Y1180682D02*
X241718D01*
X241218Y1180182D02*
Y1181182D01*
X389763Y1048292D02*
X390763D01*
X390263Y1047792D02*
Y1048792D01*
X406107Y953818D02*
X407107D01*
X406607Y953318D02*
Y954318D01*
X516811Y1087744D02*
X517811D01*
X517311Y1087244D02*
Y1088244D01*
X427030Y950720D02*
X428030D01*
X427530Y950220D02*
Y951220D01*
X418592Y951292D02*
X419592D01*
X419092Y950792D02*
Y951792D01*
X350592Y949292D02*
X351592D01*
X351092Y948792D02*
Y949792D01*
X375357Y1066375D02*
X376357D01*
X375857Y1065875D02*
Y1066875D01*
X530523Y1097237D02*
X531523D01*
X531023Y1096737D02*
Y1097737D01*
X238507Y1190862D02*
X239507D01*
X239007Y1190362D02*
Y1191362D01*
X460592Y964292D02*
X461592D01*
X461092Y963792D02*
Y964792D01*
X491126Y883462D02*
X492126D01*
X491626Y882962D02*
Y883962D01*
X473592Y974292D02*
X474592D01*
X474092Y973792D02*
Y974792D01*
X492324Y878295D02*
X493325D01*
X492825Y877795D02*
Y878795D01*
X389592Y955292D02*
X390592D01*
X390092Y954792D02*
Y955792D01*
X379227Y1048292D02*
X380227D01*
X379727Y1047792D02*
Y1048792D01*
X523832Y1100335D02*
X524832D01*
X524332Y1099835D02*
Y1100835D01*
X386227Y1048292D02*
X387227D01*
X386727Y1047792D02*
Y1048792D01*
X404767Y958415D02*
X405767D01*
X405267Y957915D02*
Y958915D01*
X524128Y1088074D02*
X525128D01*
X524628Y1087573D02*
Y1088574D01*
X416030Y945720D02*
X417030D01*
X416530Y945220D02*
Y946220D01*
X436347Y940497D02*
X437347D01*
X436847Y939997D02*
Y940997D01*
X219665Y474998D02*
X220665D01*
X220165Y474498D02*
Y475498D01*
X232365Y474998D02*
X233365D01*
X232865Y474498D02*
Y475498D01*
X373500Y891910D02*
X374500D01*
X374000Y891410D02*
Y892410D01*
X762600Y1036084D02*
X763600D01*
X763100Y1035584D02*
Y1036584D01*
X643190Y1268280D02*
X644190D01*
X643690Y1267780D02*
Y1268780D01*
X751191Y1275010D02*
X752191D01*
X751691Y1274510D02*
Y1275510D01*
X590600Y1053010D02*
X591600D01*
X591100Y1052510D02*
Y1053510D01*
X294644Y1054781D02*
X295644D01*
X295144Y1054281D02*
Y1055281D01*
X289181Y1098426D02*
X290181D01*
X289681Y1097926D02*
Y1098926D01*
X280192Y1098382D02*
X281192D01*
X280692Y1097882D02*
Y1098882D01*
X249470Y1098668D02*
X250470D01*
X249970Y1098168D02*
Y1099168D01*
X194561Y120291D02*
X195561D01*
X195061Y119791D02*
Y120791D01*
X209179Y116756D02*
X210179D01*
X209679Y116256D02*
Y117256D01*
X256320Y1179449D02*
X257320D01*
X256820Y1178949D02*
Y1179949D01*
X596612Y1230770D02*
X597612D01*
X597112Y1230270D02*
Y1231270D01*
X394679Y958096D02*
X395679D01*
X395179Y957596D02*
Y958596D01*
X382727Y1048292D02*
X383727D01*
X383227Y1047792D02*
Y1048792D01*
X345592Y949292D02*
X346592D01*
X346092Y948792D02*
Y949792D01*
X584158Y1231380D02*
X585158D01*
X584658Y1230880D02*
Y1231880D01*
X371592Y1066292D02*
X372592D01*
X372092Y1065792D02*
Y1066792D01*
X426618Y956308D02*
X427618D01*
X427118Y955808D02*
Y956808D01*
X419496Y956292D02*
X420496D01*
X419996Y955792D02*
Y956792D01*
X452728Y844028D02*
X453728D01*
X453228Y843528D02*
Y844528D01*
X444238Y978464D02*
X445238D01*
X444738Y977964D02*
Y978964D01*
X367532Y1066434D02*
X368532D01*
X368032Y1065934D02*
Y1066934D01*
X536321Y1234360D02*
X537321D01*
X536821Y1233860D02*
Y1234860D01*
X340857Y949168D02*
X341857D01*
X341357Y948669D02*
Y949669D01*
X363767Y1066492D02*
X364767D01*
X364267Y1065993D02*
Y1066992D01*
X514321Y1228360D02*
X515321D01*
X514821Y1227860D02*
Y1228860D01*
X335383Y949385D02*
X336384D01*
X335883Y948885D02*
Y949885D01*
X547131Y185290D02*
X548131D01*
X547631Y184790D02*
Y185790D01*
X966898Y227217D02*
X967897D01*
X967398Y226717D02*
Y227717D01*
X978398Y227328D02*
X979398D01*
X978898Y226828D02*
Y227828D01*
X898500Y486000D02*
X899500D01*
X899000Y485500D02*
Y486500D01*
X820650Y461220D02*
X821650D01*
X821150Y460720D02*
Y461720D01*
X805594Y267621D02*
X806594D01*
X806094Y267121D02*
Y268121D01*
X510376Y964982D02*
X511376D01*
X510876Y964482D02*
Y965482D01*
X507090Y953969D02*
X508090D01*
X507590Y953469D02*
Y954470D01*
X504331Y958538D02*
X505331D01*
X504831Y958038D02*
Y959038D01*
X474728Y808909D02*
X475728D01*
X475228Y808409D02*
Y809409D01*
X468728Y807909D02*
X469728D01*
X469228Y807409D02*
Y808409D01*
X504958Y968420D02*
X505958D01*
X505458Y967920D02*
Y968920D01*
X337324Y313959D02*
X338324D01*
X337824Y313459D02*
Y314459D01*
X290835Y313190D02*
X291835D01*
X291335Y312690D02*
Y313690D01*
X290893Y320235D02*
X291893D01*
X291393Y319735D02*
Y320735D01*
X382100Y291810D02*
X383100D01*
X382600Y291310D02*
Y292310D01*
X283231Y188379D02*
X284231D01*
X283731Y187879D02*
Y188879D01*
X249193Y286151D02*
X250193D01*
X249692Y285651D02*
Y286651D01*
X395174Y235568D02*
X396174D01*
X395674Y235068D02*
Y236068D01*
X390225Y230618D02*
X391225D01*
X390725Y230119D02*
Y231119D01*
X359046Y330696D02*
X360046D01*
X359546Y330196D02*
Y331196D01*
X359046Y323697D02*
X360046D01*
X359546Y323196D02*
Y324197D01*
X388100Y291810D02*
X389100D01*
X388600Y291310D02*
Y292310D01*
X330068Y314767D02*
X331068D01*
X330568Y314267D02*
Y315267D01*
X295433Y332768D02*
X296433D01*
X295933Y332268D02*
Y333268D01*
X312880Y326996D02*
X313880D01*
X313380Y326496D02*
Y327496D01*
X291357Y329200D02*
X292357D01*
X291857Y328700D02*
Y329700D01*
X271982Y353780D02*
X272982D01*
X272482Y353280D02*
Y354280D01*
X252645Y285577D02*
X253645D01*
X253145Y285077D02*
Y286077D01*
X255949Y290828D02*
X256949D01*
X256449Y290327D02*
Y291327D01*
X291346Y162941D02*
X292346D01*
X291846Y162441D02*
Y163441D01*
X295230Y157342D02*
X296230D01*
X295730Y156842D02*
Y157842D01*
X282562Y132842D02*
X283562D01*
X283062Y132342D02*
Y133342D01*
X240346Y133409D02*
X241346D01*
X240846Y132909D02*
Y133909D01*
X226409Y141219D02*
X227409D01*
X226910Y140719D02*
Y141719D01*
X271485Y130270D02*
X272485D01*
X271985Y129770D02*
Y130770D01*
X275517Y132703D02*
X276517D01*
X276017Y132203D02*
Y133203D01*
X247526Y134360D02*
X248526D01*
X248026Y133860D02*
Y134860D01*
X219555Y132585D02*
X220555D01*
X220055Y132085D02*
Y133085D01*
X254610Y132600D02*
X255610D01*
X255110Y132100D02*
Y133101D01*
X289570Y133419D02*
X290570D01*
X290070Y132919D02*
Y133919D01*
X300981Y349920D02*
X301981D01*
X301481Y349420D02*
Y350420D01*
X298391Y352917D02*
X299391D01*
X298891Y352417D02*
Y353417D01*
X335234Y1449332D02*
X336234D01*
X335734Y1448832D02*
Y1449832D01*
X322044Y1446752D02*
X323044D01*
X322544Y1446252D02*
Y1447252D01*
X590424Y92904D02*
X591424D01*
X590924Y92404D02*
Y93404D01*
X523607Y57313D02*
X524607D01*
X524107Y56814D02*
Y57814D01*
X201500Y1300200D02*
X202500D01*
X202000Y1299700D02*
Y1300700D01*
X262496Y1238853D02*
X263496D01*
X262996Y1238353D02*
Y1239353D01*
X453622Y345913D02*
X454622D01*
X454122Y345413D02*
Y346413D01*
X398321Y862360D02*
X399321D01*
X398821Y861860D02*
Y862860D01*
X777514Y314925D02*
X778514D01*
X778014Y314425D02*
Y315425D01*
X777719Y309222D02*
X778718D01*
X778219Y308722D02*
Y309722D01*
X560031Y121567D02*
X561031D01*
X560531Y121067D02*
Y122067D01*
X559277Y182848D02*
X560277D01*
X559777Y182348D02*
Y183348D01*
X482124Y657006D02*
X483125D01*
X482625Y656506D02*
Y657506D01*
X298500Y1049650D02*
X299500D01*
X299000Y1049150D02*
Y1050150D01*
X375922Y927659D02*
X376922D01*
X376422Y927159D02*
Y928159D01*
X368857Y371350D02*
X369857D01*
X369357Y370850D02*
Y371850D01*
X375829Y382413D02*
X376829D01*
X376329Y381913D02*
Y382913D01*
X393069Y379310D02*
X394069D01*
X393569Y378810D02*
Y379810D01*
X401259Y400753D02*
X402259D01*
X401759Y400253D02*
Y401253D01*
X405429Y404777D02*
X406428D01*
X405929Y404277D02*
Y405277D01*
X616940Y549289D02*
X617940D01*
X617440Y548789D02*
Y549789D01*
X635160Y551863D02*
X636160D01*
X635660Y551363D02*
Y552363D01*
X810522Y749938D02*
X811522D01*
X811022Y749438D02*
Y750438D01*
X794511Y765360D02*
X795511D01*
X795011Y764860D02*
Y765860D01*
X360784Y385247D02*
X361784D01*
X361284Y384747D02*
Y385747D01*
X777900Y387400D02*
X778900D01*
X778400Y386900D02*
Y387900D01*
X714900Y333400D02*
X715900D01*
X715400Y332900D02*
Y333900D01*
X703160Y321028D02*
X704160D01*
X703660Y320528D02*
Y321528D01*
X687782Y314617D02*
X688782D01*
X688282Y314117D02*
Y315117D01*
X786261Y749945D02*
X787261D01*
X786761Y749445D02*
Y750444D01*
X779511Y761360D02*
X780511D01*
X780011Y760860D02*
Y761860D01*
X361500Y1560907D02*
X362500D01*
X362000Y1560407D02*
Y1561407D01*
X361500Y1553907D02*
X362500D01*
X362000Y1553407D02*
Y1554407D01*
X467891Y1567650D02*
X468891D01*
X468391Y1567150D02*
Y1568150D01*
X460891Y1567650D02*
X461891D01*
X461391Y1567150D02*
Y1568150D01*
X393267Y1550141D02*
X394267D01*
X393767Y1549641D02*
Y1550641D01*
X400267Y1550141D02*
X401267D01*
X400767Y1549641D02*
Y1550641D01*
X315491Y1547076D02*
X316491D01*
X315991Y1546576D02*
Y1547576D01*
X308491Y1547076D02*
X309491D01*
X308991Y1546576D02*
Y1547576D01*
X348500Y1530650D02*
X349500D01*
X349000Y1530150D02*
Y1531150D01*
X343550Y1535600D02*
X344550D01*
X344050Y1535100D02*
Y1536100D01*
X422979Y826630D02*
X423979D01*
X423479Y826130D02*
Y827130D01*
X749646Y136366D02*
X750646D01*
X750146Y135866D02*
Y136866D01*
X755747Y132560D02*
X756747D01*
X756247Y132060D02*
Y133060D01*
X678057Y90898D02*
X679057D01*
X678557Y90398D02*
Y91398D01*
X683203Y98173D02*
X684203D01*
X683703Y97673D02*
Y98673D01*
X677848Y102880D02*
X678848D01*
X678348Y102380D02*
Y103380D01*
X688123Y99191D02*
X689124D01*
X688624Y98691D02*
Y99691D01*
X651804Y120871D02*
X652804D01*
X652304Y120371D02*
Y121371D01*
X627131Y121290D02*
X628131D01*
X627631Y120790D02*
Y121790D01*
X631109Y126156D02*
X632109D01*
X631609Y125656D02*
Y126656D01*
X627131Y129290D02*
X628131D01*
X627631Y128790D02*
Y129790D01*
X599082Y92688D02*
X600082D01*
X599582Y92188D02*
Y93188D01*
X611132Y129290D02*
X612132D01*
X611632Y128790D02*
Y129790D01*
X644021Y1160898D02*
X645021D01*
X644521Y1160398D02*
Y1161398D01*
X669972Y275099D02*
X670972D01*
X670472Y274599D02*
Y275599D01*
X725500Y137750D02*
X726500D01*
X726000Y137250D02*
Y138250D01*
X715500Y137750D02*
X716500D01*
X716000Y137250D02*
Y138250D01*
X751562Y64700D02*
X752562D01*
X752062Y64200D02*
Y65200D01*
X783976Y62744D02*
X784976D01*
X784476Y62244D02*
Y63244D01*
X751562Y54700D02*
X752562D01*
X752062Y54200D02*
Y55200D01*
X751563Y90590D02*
X752563D01*
X752063Y90090D02*
Y91090D01*
X751563Y80590D02*
X752563D01*
X752063Y80090D02*
Y81090D01*
X793976Y62744D02*
X794976D01*
X794476Y62244D02*
Y63244D01*
X213345Y520450D02*
X214345D01*
X213845Y519950D02*
Y520950D01*
X475345Y1072450D02*
X476345D01*
X475845Y1071950D02*
Y1072950D01*
X402821Y1383361D02*
X403821D01*
X403321Y1382861D02*
Y1383861D01*
X407821Y1383361D02*
X408821D01*
X408321Y1382861D02*
Y1383861D01*
X407821Y1336360D02*
X408821D01*
X408321Y1335860D02*
Y1336860D01*
X412821Y1336360D02*
X413821D01*
X413321Y1335860D02*
Y1336860D01*
X383821Y1336360D02*
X384821D01*
X384321Y1335860D02*
Y1336860D01*
X388821Y1336360D02*
X389821D01*
X389321Y1335860D02*
Y1336860D01*
X395821Y1348360D02*
X396821D01*
X396321Y1347860D02*
Y1348860D01*
X400821Y1348360D02*
X401821D01*
X401321Y1347860D02*
Y1348860D01*
X376821Y1348360D02*
X377821D01*
X377321Y1347860D02*
Y1348860D01*
X371821Y1348360D02*
X372821D01*
X372321Y1347860D02*
Y1348860D01*
X706775Y1059847D02*
X707775D01*
X707275Y1059347D02*
Y1060347D01*
X615768Y129612D02*
X616768D01*
X616268Y129112D02*
Y130112D01*
X420095Y653268D02*
X421095D01*
X420595Y652768D02*
Y653768D01*
X330095Y653268D02*
X331096D01*
X330596Y652768D02*
Y653768D01*
X210321Y1310360D02*
X211321D01*
X210821Y1309860D02*
Y1310860D01*
X210216Y1316427D02*
X211216D01*
X210716Y1315927D02*
Y1316927D01*
X198321Y1310360D02*
X199321D01*
X198821Y1309860D02*
Y1310860D01*
X203321Y1316360D02*
X204321D01*
X203821Y1315860D02*
Y1316860D01*
X193052Y763136D02*
X194052D01*
X193552Y762636D02*
Y763636D01*
X396699Y1148466D02*
X397699D01*
X397199Y1147966D02*
Y1148966D01*
X431668Y1236651D02*
X432668D01*
X432168Y1236151D02*
Y1237151D01*
X463824Y852948D02*
X464824D01*
X464324Y852448D02*
Y853448D01*
X462556Y859229D02*
X463556D01*
X463056Y858729D02*
Y859729D01*
X452717Y829374D02*
X453717D01*
X453217Y828875D02*
Y829874D01*
X448268Y794681D02*
X449268D01*
X448768Y794181D02*
Y795181D01*
X380960Y902159D02*
X381960D01*
X381460Y901659D02*
Y902659D01*
X380960Y909159D02*
X381960D01*
X381460Y908659D02*
Y909659D01*
X836728Y999159D02*
X837728D01*
X837228Y998659D02*
Y999659D01*
X644257Y1168846D02*
X645257D01*
X644757Y1168346D02*
Y1169346D01*
X635655Y1280879D02*
X636655D01*
X636155Y1280379D02*
Y1281379D01*
X630761Y1279277D02*
X631761D01*
X631261Y1278777D02*
Y1279777D01*
X668321Y1286781D02*
X669321D01*
X668821Y1286281D02*
Y1287280D01*
X641244Y1192262D02*
X642244D01*
X641744Y1191761D02*
Y1192762D01*
X618074Y1263767D02*
X619075D01*
X618574Y1263267D02*
Y1264267D01*
X724903Y1245058D02*
X725903D01*
X725403Y1244558D02*
Y1245558D01*
X722979Y1194934D02*
X723979D01*
X723479Y1194434D02*
Y1195434D01*
X780650Y1336017D02*
X781650D01*
X781150Y1335517D02*
Y1336517D01*
X644021Y1186298D02*
X645021D01*
X644521Y1185798D02*
Y1186798D01*
X715323Y1274302D02*
X716323D01*
X715824Y1273802D02*
Y1274802D01*
X627990Y1140241D02*
X628990D01*
X628490Y1139741D02*
Y1140741D01*
X611908Y1140360D02*
X612908D01*
X612408Y1139860D02*
Y1140860D01*
X544600Y1131010D02*
X545600D01*
X545100Y1130510D02*
Y1131510D01*
X572520Y1126010D02*
X573520D01*
X573020Y1125510D02*
Y1126510D01*
X620027Y1131455D02*
X621027D01*
X620527Y1130955D02*
Y1131955D01*
X544600Y1153010D02*
X545600D01*
X545100Y1152510D02*
Y1153510D01*
X576953Y1156108D02*
X577953D01*
X577453Y1155608D02*
Y1156608D01*
X667059Y1263122D02*
X668059D01*
X667559Y1262622D02*
Y1263622D01*
X397511Y914376D02*
X398511D01*
X398011Y913876D02*
Y914876D01*
X843765Y236998D02*
X844765D01*
X844265Y236498D02*
Y237498D01*
X547530Y150274D02*
X548530D01*
X548030Y149774D02*
Y150774D01*
X693327Y297174D02*
X694327D01*
X693827Y296674D02*
Y297675D01*
X723915Y297740D02*
X724915D01*
X724415Y297240D02*
Y298240D01*
X777664Y298240D02*
X778664D01*
X778165Y297740D02*
Y298740D01*
X753664Y296240D02*
X754665D01*
X754165Y295740D02*
Y296740D01*
X742664Y296240D02*
X743664D01*
X743165Y295740D02*
Y296740D01*
X753664Y360740D02*
X754665D01*
X754165Y360240D02*
Y361240D01*
X742664Y360740D02*
X743664D01*
X743165Y360240D02*
Y361240D01*
X420286Y361442D02*
X421286D01*
X420786Y360942D02*
Y361942D01*
X448289Y355808D02*
X449289D01*
X448789Y355308D02*
Y356308D01*
X444573Y313490D02*
X445573D01*
X445073Y312990D02*
Y313990D01*
X706145Y364935D02*
X707145D01*
X706645Y364435D02*
Y365435D01*
X658500Y212000D02*
X659500D01*
X659000Y211500D02*
Y212500D01*
X739234Y58176D02*
X740234D01*
X739734Y57676D02*
Y58676D01*
X382341Y891500D02*
X383341D01*
X382841Y891000D02*
Y892000D01*
X483245Y210555D02*
X484245D01*
X483745Y210054D02*
Y211054D01*
X240119Y750132D02*
X241119D01*
X240619Y749632D02*
Y750631D01*
X271000Y1217500D02*
X272000D01*
X271500Y1217000D02*
Y1218000D01*
X478163Y203082D02*
X479163D01*
X478663Y202582D02*
Y203582D01*
X557991Y1533101D02*
X558991D01*
X558491Y1532601D02*
Y1533601D01*
X545791Y1533101D02*
X546791D01*
X546291Y1532601D02*
Y1533601D01*
X464972Y199689D02*
X465972D01*
X465472Y199189D02*
Y200189D01*
X269000Y386000D02*
X270000D01*
X269500Y385500D02*
Y386500D01*
X559951Y1275675D02*
X560951D01*
X560451Y1275175D02*
Y1276175D01*
X468133Y204691D02*
X469133D01*
X468633Y204191D02*
Y205191D01*
X240631Y801625D02*
X241631D01*
X241131Y801125D02*
Y802125D01*
X404131Y211290D02*
X405131D01*
X404631Y210790D02*
Y211790D01*
X247000Y1217500D02*
X248000D01*
X247500Y1217000D02*
Y1218000D01*
X237641Y1205500D02*
X238641D01*
X238141Y1205000D02*
Y1206000D01*
X257036Y1094000D02*
X258036D01*
X257536Y1093500D02*
Y1094500D01*
X726708Y628549D02*
X727708D01*
X727208Y628049D02*
Y629049D01*
X745136Y75392D02*
X746136D01*
X745636Y74892D02*
Y75892D01*
X745301Y101077D02*
X746301D01*
X745801Y100577D02*
Y101577D01*
X614748Y249570D02*
X615748D01*
X615248Y249070D02*
Y250070D01*
X609947Y244834D02*
X610947D01*
X610447Y244334D02*
Y245334D01*
X605621Y235175D02*
X606621D01*
X606121Y234675D02*
Y235675D01*
X604632Y241759D02*
X605632D01*
X605132Y241259D02*
Y242259D01*
X606199Y132358D02*
X607199D01*
X606699Y131858D02*
Y132858D01*
X622693Y110971D02*
X623693D01*
X623193Y110471D02*
Y111471D01*
X577131Y115578D02*
X578131D01*
X577631Y115078D02*
Y116078D01*
X571131Y121290D02*
X572131D01*
X571631Y120790D02*
Y121790D01*
X554199Y158500D02*
X555199D01*
X554699Y158000D02*
Y159000D01*
X236735Y1223247D02*
X237735D01*
X237235Y1222747D02*
Y1223747D01*
X498119Y1069131D02*
X499119D01*
X498619Y1068632D02*
Y1069632D01*
X250119Y889131D02*
X251119D01*
X250619Y888632D02*
Y889632D01*
X244119Y753131D02*
X245119D01*
X244619Y752632D02*
Y753632D01*
X603131Y97290D02*
X604131D01*
X603631Y96790D02*
Y97790D01*
X595131Y97290D02*
X596132D01*
X595631Y96790D02*
Y97790D01*
X587132Y113290D02*
X588131D01*
X587631Y112790D02*
Y113790D01*
X699131Y437290D02*
X700131D01*
X699631Y436790D02*
Y437790D01*
X694131Y437290D02*
X695132D01*
X694632Y436790D02*
Y437790D01*
X689131Y437290D02*
X690132D01*
X689632Y436790D02*
Y437790D01*
X683131Y436290D02*
X684131D01*
X683631Y435790D02*
Y436790D01*
X618168Y268836D02*
X619168D01*
X618668Y268335D02*
Y269335D01*
X709415Y283490D02*
X710415D01*
X709914Y282990D02*
Y283990D01*
X742450Y503272D02*
X743450D01*
X742950Y502772D02*
Y503772D01*
X256764Y1192990D02*
X257764D01*
X257264Y1192490D02*
Y1193490D01*
X247735Y1274247D02*
X248735D01*
X248235Y1273747D02*
Y1274747D01*
X563728Y225159D02*
X564728D01*
X564228Y224659D02*
Y225659D01*
X296831Y357490D02*
X297831D01*
X297332Y356990D02*
Y357990D01*
X552363Y195048D02*
X553363D01*
X552863Y194548D02*
Y195548D01*
X416832Y477490D02*
X417831D01*
X417332Y476990D02*
Y477990D01*
X563131Y129290D02*
X564131D01*
X563631Y128790D02*
Y129790D01*
X397465Y474095D02*
X398465D01*
X397965Y473595D02*
Y474595D01*
X595131Y113290D02*
X596132D01*
X595631Y112790D02*
Y113790D01*
X410165Y474095D02*
X411165D01*
X410665Y473595D02*
Y474595D01*
X587131Y121290D02*
X588131D01*
X587631Y120790D02*
Y121790D01*
X422865Y474095D02*
X423865D01*
X423365Y473595D02*
Y474595D01*
X603131Y105290D02*
X604131D01*
X603631Y104790D02*
Y105790D01*
X435565Y474095D02*
X436565D01*
X436065Y473595D02*
Y474595D01*
X611131Y97290D02*
X612131D01*
X611631Y96790D02*
Y97790D01*
X248878Y1244051D02*
X249878D01*
X249378Y1243550D02*
Y1244550D01*
X693597Y1229343D02*
X694597D01*
X694097Y1228843D02*
Y1229843D01*
X697958Y1235110D02*
X698958D01*
X698458Y1234610D02*
Y1235610D01*
X698138Y1245309D02*
X699138D01*
X698638Y1244809D02*
Y1245809D01*
X673270Y1233632D02*
X674270D01*
X673770Y1233132D02*
Y1234132D01*
X656848Y1252572D02*
X657848D01*
X657348Y1252072D02*
Y1253072D01*
X647877Y1251941D02*
X648877D01*
X648377Y1251441D02*
Y1252440D01*
X692376Y1263620D02*
X693376D01*
X692876Y1263120D02*
Y1264120D01*
X704406Y1273667D02*
X705406D01*
X704906Y1273167D02*
Y1274167D01*
X728521Y1273560D02*
X729521D01*
X729021Y1273060D02*
Y1274060D01*
X728700Y1251213D02*
X729700D01*
X729200Y1250713D02*
Y1251713D01*
X683453Y1252360D02*
X684453D01*
X683953Y1251860D02*
Y1252860D01*
X728841Y1262529D02*
X729841D01*
X729341Y1262029D02*
Y1263028D01*
X757509Y1264460D02*
X758509D01*
X758009Y1263960D02*
Y1264960D01*
X737748Y1264059D02*
X738748D01*
X738248Y1263559D02*
Y1264559D01*
X595728Y54326D02*
X596728D01*
X596228Y53826D02*
Y54826D01*
X611131Y113290D02*
X612131D01*
X611631Y112790D02*
Y113790D01*
X595131Y129290D02*
X596132D01*
X595631Y128790D02*
Y129790D01*
X616266Y157000D02*
X617266D01*
X616766Y156500D02*
Y157500D01*
X579131Y193290D02*
X580131D01*
X579631Y192790D02*
Y193790D01*
X579132Y185290D02*
X580131D01*
X579632Y184790D02*
Y185790D01*
X619043Y76816D02*
X620043D01*
X619543Y76316D02*
Y77316D01*
X539132Y113290D02*
X540131D01*
X539632Y112790D02*
Y113790D01*
X439728Y168159D02*
X440728D01*
X440228Y167659D02*
Y168659D01*
X435728Y168159D02*
X436728D01*
X436228Y167659D02*
Y168659D01*
X555131Y129290D02*
X556131D01*
X555631Y128790D02*
Y129790D01*
X453728Y167159D02*
X454728D01*
X454228Y166659D02*
Y167659D01*
X654031Y269261D02*
X655031D01*
X654531Y268761D02*
Y269761D01*
X547131Y113290D02*
X548131D01*
X547631Y112790D02*
Y113790D01*
X434131Y120290D02*
X435131D01*
X434631Y119790D02*
Y120790D01*
X431131Y168290D02*
X432131D01*
X431631Y167790D02*
Y168790D01*
X448265Y474095D02*
X449265D01*
X448765Y473595D02*
Y474595D01*
X611131Y193290D02*
X612131D01*
X611631Y192790D02*
Y193790D01*
X460965Y474095D02*
X461965D01*
X461465Y473595D02*
Y474595D01*
X611132Y201290D02*
X612132D01*
X611632Y200790D02*
Y201790D01*
X473665Y474095D02*
X474665D01*
X474165Y473595D02*
Y474595D01*
X595131Y193290D02*
X596132D01*
X595631Y192790D02*
Y193790D01*
X486412Y473897D02*
X487412D01*
X486912Y473397D02*
Y474397D01*
X603131Y205290D02*
X604132D01*
X603632Y204790D02*
Y205790D01*
X611132Y105290D02*
X612132D01*
X611632Y104790D02*
Y105790D01*
X595131Y121290D02*
X596132D01*
X595631Y120790D02*
Y121790D01*
X627131Y97290D02*
X628131D01*
X627631Y96790D02*
Y97790D01*
X393554Y201078D02*
X394554D01*
X394054Y200578D02*
Y201578D01*
X563131Y113290D02*
X564132D01*
X563632Y112790D02*
Y113790D01*
X563131Y105290D02*
X564132D01*
X563632Y104790D02*
Y105790D01*
X388131Y131290D02*
X389132D01*
X388632Y130790D02*
Y131790D01*
X420504Y28917D02*
X421504D01*
X421004Y28417D02*
Y29417D01*
X631132Y190290D02*
X632132D01*
X631632Y189790D02*
Y190790D01*
X627131Y193290D02*
X628131D01*
X627631Y192790D02*
Y193790D01*
X619132Y185290D02*
X620131D01*
X619632Y184790D02*
Y185790D01*
X158901Y756835D02*
X159901D01*
X159401Y756335D02*
Y757335D01*
X443872Y357938D02*
X444872D01*
X444372Y357438D02*
Y358438D01*
X684100Y23300D02*
X685100D01*
X684600Y22800D02*
Y23800D01*
X381467Y377942D02*
X382467D01*
X381967Y377442D02*
Y378442D01*
X680900Y370400D02*
X681900D01*
X681400Y369900D02*
Y370900D01*
X687427Y332990D02*
X688427D01*
X687927Y332490D02*
Y333490D01*
X777664Y303740D02*
X778664D01*
X778165Y303240D02*
Y304240D01*
X535735Y1217247D02*
X536735D01*
X536235Y1216747D02*
Y1217747D01*
X770164Y360740D02*
X771164D01*
X770665Y360240D02*
Y361240D01*
X909615Y637998D02*
X910615D01*
X910115Y637498D02*
Y638498D01*
X878530Y937850D02*
X879530D01*
X879030Y937349D02*
Y938350D01*
X875774Y949998D02*
X876774D01*
X876274Y949498D02*
Y950498D01*
X620488Y1229265D02*
X621488D01*
X620988Y1228765D02*
Y1229765D01*
X703596Y1157332D02*
X704596D01*
X704097Y1156832D02*
Y1157832D01*
X450735Y339747D02*
X451735D01*
X451235Y339247D02*
Y340247D01*
X397641Y204660D02*
X398641D01*
X398141Y204160D02*
Y205161D01*
X606131Y188290D02*
X607131D01*
X606631Y187790D02*
Y188790D01*
X460400Y201490D02*
X461400D01*
X460900Y200990D02*
Y201990D01*
X713165Y353240D02*
X714165D01*
X713664Y352740D02*
Y353740D01*
X777664Y353240D02*
X778664D01*
X778165Y352740D02*
Y353740D01*
X726164Y360740D02*
X727165D01*
X726665Y360240D02*
Y361240D01*
X767635Y618610D02*
X768635D01*
X768135Y618110D02*
Y619110D01*
X874321Y743860D02*
X875321D01*
X874821Y743361D02*
Y744361D01*
X731321Y892360D02*
X732321D01*
X731821Y891860D02*
Y892860D01*
X874321Y749861D02*
X875321D01*
X874821Y749361D02*
Y750360D01*
X725321Y892360D02*
X726321D01*
X725821Y891860D02*
Y892860D01*
X793325Y475617D02*
X794325D01*
X793825Y475117D02*
Y476117D01*
X789101Y480658D02*
X790101D01*
X789601Y480158D02*
Y481158D01*
X768136Y307418D02*
X769136D01*
X768636Y306918D02*
Y307918D01*
X248438Y1162807D02*
X249438D01*
X248938Y1162307D02*
Y1163307D01*
X256119Y1000132D02*
X257119D01*
X256619Y999632D02*
Y1000631D01*
X260517Y1160537D02*
X261517D01*
X261017Y1160037D02*
Y1161037D01*
X272365Y904748D02*
X273365D01*
X272865Y904248D02*
Y905248D01*
X272365Y912748D02*
X273365D01*
X272865Y912248D02*
Y913248D01*
X284533Y1093036D02*
X285533D01*
X285033Y1092536D02*
Y1093537D01*
X248746Y1236073D02*
X249746D01*
X249247Y1235573D02*
Y1236573D01*
X495576Y220264D02*
X496576D01*
X496076Y219764D02*
Y220764D01*
X501132Y223290D02*
X502132D01*
X501632Y222790D02*
Y223790D01*
X269970Y435883D02*
X270970D01*
X270470Y435383D02*
Y436383D01*
X296370Y1094249D02*
X297370D01*
X296870Y1093749D02*
Y1094749D01*
X740521Y1289560D02*
X741521D01*
X741021Y1289060D02*
Y1290060D01*
X426521Y1265205D02*
X427521D01*
X427021Y1264705D02*
Y1265705D01*
X552713Y1058352D02*
X553713D01*
X553213Y1057852D02*
Y1058852D01*
X565413Y1058352D02*
X566413D01*
X565913Y1057852D02*
Y1058852D01*
X578113Y1058352D02*
X579113D01*
X578613Y1057852D02*
Y1058852D01*
X640735Y250747D02*
X641735D01*
X641235Y250247D02*
Y251247D01*
X673905Y76286D02*
X674905D01*
X674405Y75786D02*
Y76786D01*
X520522Y1534413D02*
X521522D01*
X521022Y1533913D02*
Y1534913D01*
X507259Y1532634D02*
X508259D01*
X507759Y1532133D02*
Y1533134D01*
X680173Y1428484D02*
X681173D01*
X680673Y1427984D02*
Y1428984D01*
X684934Y1447571D02*
X685934D01*
X685434Y1447071D02*
Y1448071D01*
X679984Y1452520D02*
X680984D01*
X680484Y1452020D02*
Y1453020D01*
X673173Y1428484D02*
X674173D01*
X673673Y1427984D02*
Y1428984D01*
X594832Y1435716D02*
X595832D01*
X595332Y1435216D02*
Y1436216D01*
X599782Y1430767D02*
X600782D01*
X600282Y1430267D02*
Y1431267D01*
X455233Y1413974D02*
X456233D01*
X455733Y1413474D02*
Y1414474D01*
X480542Y1416401D02*
X481542D01*
X481042Y1415901D02*
Y1416901D01*
X529091Y1425401D02*
X530091D01*
X529591Y1424901D02*
Y1425901D01*
X580321Y1425401D02*
X581321D01*
X580821Y1424901D02*
Y1425901D01*
X451698Y1410438D02*
X452697D01*
X452197Y1409938D02*
Y1410938D01*
X480542Y1409401D02*
X481542D01*
X481042Y1408901D02*
Y1409901D01*
X522091Y1425401D02*
X523091D01*
X522591Y1424901D02*
Y1425901D01*
X587321Y1425401D02*
X588321D01*
X587821Y1424901D02*
Y1425901D01*
X696185Y1426613D02*
X697185D01*
X696685Y1426113D02*
Y1427113D01*
X703185Y1426613D02*
X704185D01*
X703685Y1426113D02*
Y1427113D01*
X743492Y1445452D02*
X744492D01*
X743992Y1444951D02*
Y1445952D01*
X738542Y1450401D02*
X739542D01*
X739042Y1449901D02*
Y1450901D01*
X712592Y1457351D02*
X713592D01*
X713092Y1456851D02*
Y1457851D01*
X717542Y1452401D02*
X718542D01*
X718042Y1451901D02*
Y1452901D01*
X662051Y133350D02*
X663052D01*
X662551Y132850D02*
Y133850D01*
M02*
