G04*
G04 #@! TF.GenerationSoftware,Altium Limited,Altium Designer,26.9.1 (10)*
G04*
G04 Layer_Color=16711935*
G04 Board_Origin=9999995|9999995*
%FSLAX44Y44*%
%MOMM*%
G71*
G04*
G04 #@! TF.SameCoordinates,9D83EA41-EA8C-4E9F-96AF-D385C4C8DFFD*
G04*
G04*
G04 #@! TF.FilePolarity,Negative*
G04*
G01*
G75*
G04:AMPARAMS|DCode=87|XSize=0.55mm|YSize=0.58mm|CornerRadius=0.1403mm|HoleSize=0mm|Usage=FLASHONLY|Rotation=270.000|XOffset=0mm|YOffset=0mm|HoleType=Round|Shape=RoundedRectangle|*
%AMROUNDEDRECTD87*
21,1,0.5500,0.2995,0,0,270.0*
21,1,0.2695,0.5800,0,0,270.0*
1,1,0.2805,-0.1498,-0.1348*
1,1,0.2805,-0.1498,0.1348*
1,1,0.2805,0.1498,0.1348*
1,1,0.2805,0.1498,-0.1348*
%
%ADD87ROUNDEDRECTD87*%
G04:AMPARAMS|DCode=100|XSize=0.55mm|YSize=0.58mm|CornerRadius=0.1403mm|HoleSize=0mm|Usage=FLASHONLY|Rotation=180.000|XOffset=0mm|YOffset=0mm|HoleType=Round|Shape=RoundedRectangle|*
%AMROUNDEDRECTD100*
21,1,0.5500,0.2995,0,0,180.0*
21,1,0.2695,0.5800,0,0,180.0*
1,1,0.2805,-0.1348,0.1498*
1,1,0.2805,0.1348,0.1498*
1,1,0.2805,0.1348,-0.1498*
1,1,0.2805,-0.1348,-0.1498*
%
%ADD100ROUNDEDRECTD100*%
G04:AMPARAMS|DCode=138|XSize=0.77mm|YSize=0.4mm|CornerRadius=0.125mm|HoleSize=0mm|Usage=FLASHONLY|Rotation=180.000|XOffset=0mm|YOffset=0mm|HoleType=Round|Shape=RoundedRectangle|*
%AMROUNDEDRECTD138*
21,1,0.7700,0.1500,0,0,180.0*
21,1,0.5200,0.4000,0,0,180.0*
1,1,0.2500,-0.2600,0.0750*
1,1,0.2500,0.2600,0.0750*
1,1,0.2500,0.2600,-0.0750*
1,1,0.2500,-0.2600,-0.0750*
%
%ADD138ROUNDEDRECTD138*%
G04:AMPARAMS|DCode=144|XSize=0.6001mm|YSize=0.7mm|CornerRadius=0.175mm|HoleSize=0mm|Usage=FLASHONLY|Rotation=180.000|XOffset=0mm|YOffset=0mm|HoleType=Round|Shape=RoundedRectangle|*
%AMROUNDEDRECTD144*
21,1,0.6001,0.3499,0,0,180.0*
21,1,0.2501,0.7000,0,0,180.0*
1,1,0.3501,-0.1250,0.1749*
1,1,0.3501,0.1250,0.1749*
1,1,0.3501,0.1250,-0.1749*
1,1,0.3501,-0.1250,-0.1749*
%
%ADD144ROUNDEDRECTD144*%
G04:AMPARAMS|DCode=145|XSize=0.5001mm|YSize=0.7mm|CornerRadius=0.15mm|HoleSize=0mm|Usage=FLASHONLY|Rotation=180.000|XOffset=0mm|YOffset=0mm|HoleType=Round|Shape=RoundedRectangle|*
%AMROUNDEDRECTD145*
21,1,0.5001,0.3999,0,0,180.0*
21,1,0.2000,0.7000,0,0,180.0*
1,1,0.3000,-0.1000,0.2000*
1,1,0.3000,0.1000,0.2000*
1,1,0.3000,0.1000,-0.2000*
1,1,0.3000,-0.1000,-0.2000*
%
%ADD145ROUNDEDRECTD145*%
G04:AMPARAMS|DCode=150|XSize=0.3mm|YSize=0.775mm|CornerRadius=0.06mm|HoleSize=0mm|Usage=FLASHONLY|Rotation=180.000|XOffset=0mm|YOffset=0mm|HoleType=Round|Shape=RoundedRectangle|*
%AMROUNDEDRECTD150*
21,1,0.3000,0.6550,0,0,180.0*
21,1,0.1800,0.7750,0,0,180.0*
1,1,0.1200,-0.0900,0.3275*
1,1,0.1200,0.0900,0.3275*
1,1,0.1200,0.0900,-0.3275*
1,1,0.1200,-0.0900,-0.3275*
%
%ADD150ROUNDEDRECTD150*%
G04:AMPARAMS|DCode=151|XSize=0.5mm|YSize=1.004mm|CornerRadius=0.07mm|HoleSize=0mm|Usage=FLASHONLY|Rotation=180.000|XOffset=0mm|YOffset=0mm|HoleType=Round|Shape=RoundedRectangle|*
%AMROUNDEDRECTD151*
21,1,0.5000,0.8640,0,0,180.0*
21,1,0.3600,1.0040,0,0,180.0*
1,1,0.1400,-0.1800,0.4320*
1,1,0.1400,0.1800,0.4320*
1,1,0.1400,0.1800,-0.4320*
1,1,0.1400,-0.1800,-0.4320*
%
%ADD151ROUNDEDRECTD151*%
G04:AMPARAMS|DCode=152|XSize=0.5mm|YSize=1.0035mm|CornerRadius=0.07mm|HoleSize=0mm|Usage=FLASHONLY|Rotation=180.000|XOffset=0mm|YOffset=0mm|HoleType=Round|Shape=RoundedRectangle|*
%AMROUNDEDRECTD152*
21,1,0.5000,0.8635,0,0,180.0*
21,1,0.3600,1.0035,0,0,180.0*
1,1,0.1400,-0.1800,0.4318*
1,1,0.1400,0.1800,0.4318*
1,1,0.1400,0.1800,-0.4318*
1,1,0.1400,-0.1800,-0.4318*
%
%ADD152ROUNDEDRECTD152*%
G04:AMPARAMS|DCode=165|XSize=0.3mm|YSize=0.8mm|CornerRadius=0.075mm|HoleSize=0mm|Usage=FLASHONLY|Rotation=0.000|XOffset=0mm|YOffset=0mm|HoleType=Round|Shape=RoundedRectangle|*
%AMROUNDEDRECTD165*
21,1,0.3000,0.6500,0,0,0.0*
21,1,0.1500,0.8000,0,0,0.0*
1,1,0.1500,0.0750,-0.3250*
1,1,0.1500,-0.0750,-0.3250*
1,1,0.1500,-0.0750,0.3250*
1,1,0.1500,0.0750,0.3250*
%
%ADD165ROUNDEDRECTD165*%
G04:AMPARAMS|DCode=166|XSize=0.3mm|YSize=0.8mm|CornerRadius=0.075mm|HoleSize=0mm|Usage=FLASHONLY|Rotation=90.000|XOffset=0mm|YOffset=0mm|HoleType=Round|Shape=RoundedRectangle|*
%AMROUNDEDRECTD166*
21,1,0.3000,0.6500,0,0,90.0*
21,1,0.1500,0.8000,0,0,90.0*
1,1,0.1500,0.3250,0.0750*
1,1,0.1500,0.3250,-0.0750*
1,1,0.1500,-0.3250,-0.0750*
1,1,0.1500,-0.3250,0.0750*
%
%ADD166ROUNDEDRECTD166*%
G04:AMPARAMS|DCode=186|XSize=0.41mm|YSize=0.44mm|CornerRadius=0.1306mm|HoleSize=0mm|Usage=FLASHONLY|Rotation=180.000|XOffset=0mm|YOffset=0mm|HoleType=Round|Shape=RoundedRectangle|*
%AMROUNDEDRECTD186*
21,1,0.4100,0.1788,0,0,180.0*
21,1,0.1488,0.4400,0,0,180.0*
1,1,0.2612,-0.0744,0.0894*
1,1,0.2612,0.0744,0.0894*
1,1,0.2612,0.0744,-0.0894*
1,1,0.2612,-0.0744,-0.0894*
%
%ADD186ROUNDEDRECTD186*%
G04:AMPARAMS|DCode=187|XSize=0.41mm|YSize=0.44mm|CornerRadius=0.1306mm|HoleSize=0mm|Usage=FLASHONLY|Rotation=90.000|XOffset=0mm|YOffset=0mm|HoleType=Round|Shape=RoundedRectangle|*
%AMROUNDEDRECTD187*
21,1,0.4100,0.1788,0,0,90.0*
21,1,0.1488,0.4400,0,0,90.0*
1,1,0.2612,0.0894,0.0744*
1,1,0.2612,0.0894,-0.0744*
1,1,0.2612,-0.0894,-0.0744*
1,1,0.2612,-0.0894,0.0744*
%
%ADD187ROUNDEDRECTD187*%
G04:AMPARAMS|DCode=189|XSize=0.65mm|YSize=0.68mm|CornerRadius=0.1903mm|HoleSize=0mm|Usage=FLASHONLY|Rotation=180.000|XOffset=0mm|YOffset=0mm|HoleType=Round|Shape=RoundedRectangle|*
%AMROUNDEDRECTD189*
21,1,0.6500,0.2995,0,0,180.0*
21,1,0.2695,0.6800,0,0,180.0*
1,1,0.3805,-0.1348,0.1498*
1,1,0.3805,0.1348,0.1498*
1,1,0.3805,0.1348,-0.1498*
1,1,0.3805,-0.1348,-0.1498*
%
%ADD189ROUNDEDRECTD189*%
G04:AMPARAMS|DCode=190|XSize=1.4mm|YSize=1.2001mm|CornerRadius=0.105mm|HoleSize=0mm|Usage=FLASHONLY|Rotation=180.000|XOffset=0mm|YOffset=0mm|HoleType=Round|Shape=RoundedRectangle|*
%AMROUNDEDRECTD190*
21,1,1.4000,0.9901,0,0,180.0*
21,1,1.1900,1.2001,0,0,180.0*
1,1,0.2100,-0.5950,0.4950*
1,1,0.2100,0.5950,0.4950*
1,1,0.2100,0.5950,-0.4950*
1,1,0.2100,-0.5950,-0.4950*
%
%ADD190ROUNDEDRECTD190*%
G04:AMPARAMS|DCode=191|XSize=0.3mm|YSize=0.775mm|CornerRadius=0.06mm|HoleSize=0mm|Usage=FLASHONLY|Rotation=90.000|XOffset=0mm|YOffset=0mm|HoleType=Round|Shape=RoundedRectangle|*
%AMROUNDEDRECTD191*
21,1,0.3000,0.6550,0,0,90.0*
21,1,0.1800,0.7750,0,0,90.0*
1,1,0.1200,0.3275,0.0900*
1,1,0.1200,0.3275,-0.0900*
1,1,0.1200,-0.3275,-0.0900*
1,1,0.1200,-0.3275,0.0900*
%
%ADD191ROUNDEDRECTD191*%
G04:AMPARAMS|DCode=192|XSize=0.5mm|YSize=1.0035mm|CornerRadius=0.07mm|HoleSize=0mm|Usage=FLASHONLY|Rotation=270.000|XOffset=0mm|YOffset=0mm|HoleType=Round|Shape=RoundedRectangle|*
%AMROUNDEDRECTD192*
21,1,0.5000,0.8635,0,0,270.0*
21,1,0.3600,1.0035,0,0,270.0*
1,1,0.1400,-0.4318,-0.1800*
1,1,0.1400,-0.4318,0.1800*
1,1,0.1400,0.4318,0.1800*
1,1,0.1400,0.4318,-0.1800*
%
%ADD192ROUNDEDRECTD192*%
G04:AMPARAMS|DCode=193|XSize=0.5mm|YSize=1.004mm|CornerRadius=0.07mm|HoleSize=0mm|Usage=FLASHONLY|Rotation=270.000|XOffset=0mm|YOffset=0mm|HoleType=Round|Shape=RoundedRectangle|*
%AMROUNDEDRECTD193*
21,1,0.5000,0.8640,0,0,270.0*
21,1,0.3600,1.0040,0,0,270.0*
1,1,0.1400,-0.4320,-0.1800*
1,1,0.1400,-0.4320,0.1800*
1,1,0.1400,0.4320,0.1800*
1,1,0.1400,0.4320,-0.1800*
%
%ADD193ROUNDEDRECTD193*%
G04:AMPARAMS|DCode=194|XSize=1.21mm|YSize=1.57mm|CornerRadius=0.2998mm|HoleSize=0mm|Usage=FLASHONLY|Rotation=270.000|XOffset=0mm|YOffset=0mm|HoleType=Round|Shape=RoundedRectangle|*
%AMROUNDEDRECTD194*
21,1,1.2100,0.9705,0,0,270.0*
21,1,0.6105,1.5700,0,0,270.0*
1,1,0.5995,-0.4853,-0.3053*
1,1,0.5995,-0.4853,0.3053*
1,1,0.5995,0.4853,0.3053*
1,1,0.5995,0.4853,-0.3053*
%
%ADD194ROUNDEDRECTD194*%
G04:AMPARAMS|DCode=195|XSize=1.21mm|YSize=1.57mm|CornerRadius=0.2998mm|HoleSize=0mm|Usage=FLASHONLY|Rotation=0.000|XOffset=0mm|YOffset=0mm|HoleType=Round|Shape=RoundedRectangle|*
%AMROUNDEDRECTD195*
21,1,1.2100,0.9705,0,0,0.0*
21,1,0.6105,1.5700,0,0,0.0*
1,1,0.5995,0.3053,-0.4853*
1,1,0.5995,-0.3053,-0.4853*
1,1,0.5995,-0.3053,0.4853*
1,1,0.5995,0.3053,0.4853*
%
%ADD195ROUNDEDRECTD195*%
G04:AMPARAMS|DCode=196|XSize=0.73mm|YSize=0.68mm|CornerRadius=0.2008mm|HoleSize=0mm|Usage=FLASHONLY|Rotation=180.000|XOffset=0mm|YOffset=0mm|HoleType=Round|Shape=RoundedRectangle|*
%AMROUNDEDRECTD196*
21,1,0.7300,0.2784,0,0,180.0*
21,1,0.3284,0.6800,0,0,180.0*
1,1,0.4016,-0.1642,0.1392*
1,1,0.4016,0.1642,0.1392*
1,1,0.4016,0.1642,-0.1392*
1,1,0.4016,-0.1642,-0.1392*
%
%ADD196ROUNDEDRECTD196*%
G04:AMPARAMS|DCode=197|XSize=0.73mm|YSize=0.68mm|CornerRadius=0.2008mm|HoleSize=0mm|Usage=FLASHONLY|Rotation=90.000|XOffset=0mm|YOffset=0mm|HoleType=Round|Shape=RoundedRectangle|*
%AMROUNDEDRECTD197*
21,1,0.7300,0.2784,0,0,90.0*
21,1,0.3284,0.6800,0,0,90.0*
1,1,0.4016,0.1392,0.1642*
1,1,0.4016,0.1392,-0.1642*
1,1,0.4016,-0.1392,-0.1642*
1,1,0.4016,-0.1392,0.1642*
%
%ADD197ROUNDEDRECTD197*%
%ADD198R,1.5000X3.4000*%
G04:AMPARAMS|DCode=200|XSize=0.65mm|YSize=0.68mm|CornerRadius=0.1903mm|HoleSize=0mm|Usage=FLASHONLY|Rotation=90.000|XOffset=0mm|YOffset=0mm|HoleType=Round|Shape=RoundedRectangle|*
%AMROUNDEDRECTD200*
21,1,0.6500,0.2995,0,0,90.0*
21,1,0.2695,0.6800,0,0,90.0*
1,1,0.3805,0.1498,0.1348*
1,1,0.3805,0.1498,-0.1348*
1,1,0.3805,-0.1498,-0.1348*
1,1,0.3805,-0.1498,0.1348*
%
%ADD200ROUNDEDRECTD200*%
G04:AMPARAMS|DCode=201|XSize=1.09mm|YSize=1.57mm|CornerRadius=0.3025mm|HoleSize=0mm|Usage=FLASHONLY|Rotation=0.000|XOffset=0mm|YOffset=0mm|HoleType=Round|Shape=RoundedRectangle|*
%AMROUNDEDRECTD201*
21,1,1.0900,0.9651,0,0,0.0*
21,1,0.4851,1.5700,0,0,0.0*
1,1,0.6049,0.2426,-0.4826*
1,1,0.6049,-0.2426,-0.4826*
1,1,0.6049,-0.2426,0.4826*
1,1,0.6049,0.2426,0.4826*
%
%ADD201ROUNDEDRECTD201*%
G04:AMPARAMS|DCode=203|XSize=1.09mm|YSize=1.57mm|CornerRadius=0.3025mm|HoleSize=0mm|Usage=FLASHONLY|Rotation=270.000|XOffset=0mm|YOffset=0mm|HoleType=Round|Shape=RoundedRectangle|*
%AMROUNDEDRECTD203*
21,1,1.0900,0.9651,0,0,270.0*
21,1,0.4851,1.5700,0,0,270.0*
1,1,0.6049,-0.4826,-0.2426*
1,1,0.6049,-0.4826,0.2426*
1,1,0.6049,0.4826,0.2426*
1,1,0.6049,0.4826,-0.2426*
%
%ADD203ROUNDEDRECTD203*%
G04:AMPARAMS|DCode=204|XSize=0.34mm|YSize=0.7mm|CornerRadius=0.08mm|HoleSize=0mm|Usage=FLASHONLY|Rotation=0.000|XOffset=0mm|YOffset=0mm|HoleType=Round|Shape=RoundedRectangle|*
%AMROUNDEDRECTD204*
21,1,0.3400,0.5400,0,0,0.0*
21,1,0.1800,0.7000,0,0,0.0*
1,1,0.1600,0.0900,-0.2700*
1,1,0.1600,-0.0900,-0.2700*
1,1,0.1600,-0.0900,0.2700*
1,1,0.1600,0.0900,0.2700*
%
%ADD204ROUNDEDRECTD204*%
G04:AMPARAMS|DCode=205|XSize=0.34mm|YSize=0.7mm|CornerRadius=0.08mm|HoleSize=0mm|Usage=FLASHONLY|Rotation=270.000|XOffset=0mm|YOffset=0mm|HoleType=Round|Shape=RoundedRectangle|*
%AMROUNDEDRECTD205*
21,1,0.3400,0.5400,0,0,270.0*
21,1,0.1800,0.7000,0,0,270.0*
1,1,0.1600,-0.2700,-0.0900*
1,1,0.1600,-0.2700,0.0900*
1,1,0.1600,0.2700,0.0900*
1,1,0.1600,0.2700,-0.0900*
%
%ADD205ROUNDEDRECTD205*%
G04:AMPARAMS|DCode=206|XSize=1.1mm|YSize=3.1mm|CornerRadius=0.075mm|HoleSize=0mm|Usage=FLASHONLY|Rotation=270.000|XOffset=0mm|YOffset=0mm|HoleType=Round|Shape=RoundedRectangle|*
%AMROUNDEDRECTD206*
21,1,1.1000,2.9500,0,0,270.0*
21,1,0.9500,3.1000,0,0,270.0*
1,1,0.1500,-1.4750,-0.4750*
1,1,0.1500,-1.4750,0.4750*
1,1,0.1500,1.4750,0.4750*
1,1,0.1500,1.4750,-0.4750*
%
%ADD206ROUNDEDRECTD206*%
%ADD208R,0.3600X0.3500*%
%ADD209R,0.3500X0.3600*%
%ADD211C,2.0000*%
G04:AMPARAMS|DCode=213|XSize=1.1mm|YSize=1.1mm|CornerRadius=0.55mm|HoleSize=0mm|Usage=FLASHONLY|Rotation=180.000|XOffset=0mm|YOffset=0mm|HoleType=Round|Shape=RoundedRectangle|*
%AMROUNDEDRECTD213*
21,1,1.1000,0.0000,0,0,180.0*
21,1,0.0000,1.1000,0,0,180.0*
1,1,1.1000,0.0000,0.0000*
1,1,1.1000,0.0000,0.0000*
1,1,1.1000,0.0000,0.0000*
1,1,1.1000,0.0000,0.0000*
%
%ADD213ROUNDEDRECTD213*%
%ADD214C,2.2000*%
%ADD215C,1.9000*%
%ADD216C,2.3000*%
%ADD217C,2.6000*%
%ADD218C,0.6000*%
%ADD219O,2.4000X5.2000*%
%ADD220O,2.3000X4.8000*%
%ADD221O,4.8000X2.6000*%
%ADD222C,0.1000*%
%ADD223O,2.3000X1.3000*%
%ADD224C,6.2000*%
%ADD225C,5.5000*%
%ADD226C,1.4000*%
%ADD227O,3.8000X1.5000*%
%ADD228C,1.5224*%
%ADD229C,1.0000*%
%ADD230C,1.4500*%
%ADD231O,3.3000X1.5000*%
%ADD232C,5.6000*%
%ADD297C,0.5000*%
G04:AMPARAMS|DCode=364|XSize=0.72mm|YSize=0.35mm|CornerRadius=0.0813mm|HoleSize=0mm|Usage=FLASHONLY|Rotation=0.000|XOffset=0mm|YOffset=0mm|HoleType=Round|Shape=RoundedRectangle|*
%AMROUNDEDRECTD364*
21,1,0.7200,0.1875,0,0,0.0*
21,1,0.5575,0.3500,0,0,0.0*
1,1,0.1625,0.2788,-0.0938*
1,1,0.1625,-0.2788,-0.0938*
1,1,0.1625,-0.2788,0.0938*
1,1,0.1625,0.2788,0.0938*
%
%ADD364ROUNDEDRECTD364*%
%ADD365R,1.4000X2.6000*%
G04:AMPARAMS|DCode=366|XSize=1.1mm|YSize=1.1mm|CornerRadius=0.55mm|HoleSize=0mm|Usage=FLASHONLY|Rotation=90.000|XOffset=0mm|YOffset=0mm|HoleType=Round|Shape=RoundedRectangle|*
%AMROUNDEDRECTD366*
21,1,1.1000,0.0000,0,0,90.0*
21,1,0.0000,1.1000,0,0,90.0*
1,1,1.1000,0.0000,0.0000*
1,1,1.1000,0.0000,0.0000*
1,1,1.1000,0.0000,0.0000*
1,1,1.1000,0.0000,0.0000*
%
%ADD366ROUNDEDRECTD366*%
G04:AMPARAMS|DCode=367|XSize=0.35mm|YSize=0.7mm|CornerRadius=0.1125mm|HoleSize=0mm|Usage=FLASHONLY|Rotation=180.000|XOffset=0mm|YOffset=0mm|HoleType=Round|Shape=RoundedRectangle|*
%AMROUNDEDRECTD367*
21,1,0.3500,0.4750,0,0,180.0*
21,1,0.1250,0.7000,0,0,180.0*
1,1,0.2250,-0.0625,0.2375*
1,1,0.2250,0.0625,0.2375*
1,1,0.2250,0.0625,-0.2375*
1,1,0.2250,-0.0625,-0.2375*
%
%ADD367ROUNDEDRECTD367*%
G04:AMPARAMS|DCode=368|XSize=0.83mm|YSize=0.6mm|CornerRadius=0.1125mm|HoleSize=0mm|Usage=FLASHONLY|Rotation=270.000|XOffset=0mm|YOffset=0mm|HoleType=Round|Shape=RoundedRectangle|*
%AMROUNDEDRECTD368*
21,1,0.8300,0.3750,0,0,270.0*
21,1,0.6050,0.6000,0,0,270.0*
1,1,0.2250,-0.1875,-0.3025*
1,1,0.2250,-0.1875,0.3025*
1,1,0.2250,0.1875,0.3025*
1,1,0.2250,0.1875,-0.3025*
%
%ADD368ROUNDEDRECTD368*%
%ADD369R,2.3000X2.6000*%
%ADD370R,2.1700X2.1600*%
G04:AMPARAMS|DCode=371|XSize=0.3mm|YSize=0.85mm|CornerRadius=0.075mm|HoleSize=0mm|Usage=FLASHONLY|Rotation=0.000|XOffset=0mm|YOffset=0mm|HoleType=Round|Shape=RoundedRectangle|*
%AMROUNDEDRECTD371*
21,1,0.3000,0.7000,0,0,0.0*
21,1,0.1500,0.8500,0,0,0.0*
1,1,0.1500,0.0750,-0.3500*
1,1,0.1500,-0.0750,-0.3500*
1,1,0.1500,-0.0750,0.3500*
1,1,0.1500,0.0750,0.3500*
%
%ADD371ROUNDEDRECTD371*%
G04:AMPARAMS|DCode=372|XSize=0.3mm|YSize=0.85mm|CornerRadius=0.075mm|HoleSize=0mm|Usage=FLASHONLY|Rotation=270.000|XOffset=0mm|YOffset=0mm|HoleType=Round|Shape=RoundedRectangle|*
%AMROUNDEDRECTD372*
21,1,0.3000,0.7000,0,0,270.0*
21,1,0.1500,0.8500,0,0,270.0*
1,1,0.1500,-0.3500,-0.0750*
1,1,0.1500,-0.3500,0.0750*
1,1,0.1500,0.3500,0.0750*
1,1,0.1500,0.3500,-0.0750*
%
%ADD372ROUNDEDRECTD372*%
G04:AMPARAMS|DCode=373|XSize=3.6mm|YSize=6.6mm|CornerRadius=0.1375mm|HoleSize=0mm|Usage=FLASHONLY|Rotation=0.000|XOffset=0mm|YOffset=0mm|HoleType=Round|Shape=RoundedRectangle|*
%AMROUNDEDRECTD373*
21,1,3.6000,6.3250,0,0,0.0*
21,1,3.3250,6.6000,0,0,0.0*
1,1,0.2750,1.6625,-3.1625*
1,1,0.2750,-1.6625,-3.1625*
1,1,0.2750,-1.6625,3.1625*
1,1,0.2750,1.6625,3.1625*
%
%ADD373ROUNDEDRECTD373*%
G04:AMPARAMS|DCode=374|XSize=0.3mm|YSize=0.95mm|CornerRadius=0.1mm|HoleSize=0mm|Usage=FLASHONLY|Rotation=180.000|XOffset=0mm|YOffset=0mm|HoleType=Round|Shape=RoundedRectangle|*
%AMROUNDEDRECTD374*
21,1,0.3000,0.7500,0,0,180.0*
21,1,0.1000,0.9500,0,0,180.0*
1,1,0.2000,-0.0500,0.3750*
1,1,0.2000,0.0500,0.3750*
1,1,0.2000,0.0500,-0.3750*
1,1,0.2000,-0.0500,-0.3750*
%
%ADD374ROUNDEDRECTD374*%
G04:AMPARAMS|DCode=375|XSize=0.3mm|YSize=0.95mm|CornerRadius=0.1mm|HoleSize=0mm|Usage=FLASHONLY|Rotation=270.000|XOffset=0mm|YOffset=0mm|HoleType=Round|Shape=RoundedRectangle|*
%AMROUNDEDRECTD375*
21,1,0.3000,0.7500,0,0,270.0*
21,1,0.1000,0.9500,0,0,270.0*
1,1,0.2000,-0.3750,-0.0500*
1,1,0.2000,-0.3750,0.0500*
1,1,0.2000,0.3750,0.0500*
1,1,0.2000,0.3750,-0.0500*
%
%ADD375ROUNDEDRECTD375*%
%ADD376R,4.6000X4.6000*%
%ADD377R,0.6000X0.4000*%
%ADD378R,0.4000X0.6000*%
%ADD379R,0.8000X0.8000*%
%ADD380R,3.1000X3.1000*%
G04:AMPARAMS|DCode=381|XSize=0.8mm|YSize=0.35mm|CornerRadius=0.0813mm|HoleSize=0mm|Usage=FLASHONLY|Rotation=270.000|XOffset=0mm|YOffset=0mm|HoleType=Round|Shape=RoundedRectangle|*
%AMROUNDEDRECTD381*
21,1,0.8000,0.1875,0,0,270.0*
21,1,0.6375,0.3500,0,0,270.0*
1,1,0.1625,-0.0938,-0.3188*
1,1,0.1625,-0.0938,0.3188*
1,1,0.1625,0.0938,0.3188*
1,1,0.1625,0.0938,-0.3188*
%
%ADD381ROUNDEDRECTD381*%
G04:AMPARAMS|DCode=382|XSize=0.9mm|YSize=0.45mm|CornerRadius=0.0938mm|HoleSize=0mm|Usage=FLASHONLY|Rotation=0.000|XOffset=0mm|YOffset=0mm|HoleType=Round|Shape=RoundedRectangle|*
%AMROUNDEDRECTD382*
21,1,0.9000,0.2625,0,0,0.0*
21,1,0.7125,0.4500,0,0,0.0*
1,1,0.1875,0.3563,-0.1313*
1,1,0.1875,-0.3563,-0.1313*
1,1,0.1875,-0.3563,0.1313*
1,1,0.1875,0.3563,0.1313*
%
%ADD382ROUNDEDRECTD382*%
G04:AMPARAMS|DCode=383|XSize=1.15mm|YSize=1.82mm|CornerRadius=0.302mm|HoleSize=0mm|Usage=FLASHONLY|Rotation=90.000|XOffset=0mm|YOffset=0mm|HoleType=Round|Shape=RoundedRectangle|*
%AMROUNDEDRECTD383*
21,1,1.1500,1.2160,0,0,90.0*
21,1,0.5460,1.8200,0,0,90.0*
1,1,0.6040,0.6080,0.2730*
1,1,0.6040,0.6080,-0.2730*
1,1,0.6040,-0.6080,-0.2730*
1,1,0.6040,-0.6080,0.2730*
%
%ADD383ROUNDEDRECTD383*%
%ADD384R,1.5000X4.3000*%
%ADD385R,0.7500X2.2500*%
%ADD386R,0.7500X2.0500*%
G04:AMPARAMS|DCode=387|XSize=1.26mm|YSize=1.92mm|CornerRadius=0.2994mm|HoleSize=0mm|Usage=FLASHONLY|Rotation=0.000|XOffset=0mm|YOffset=0mm|HoleType=Round|Shape=RoundedRectangle|*
%AMROUNDEDRECTD387*
21,1,1.2600,1.3212,0,0,0.0*
21,1,0.6612,1.9200,0,0,0.0*
1,1,0.5988,0.3306,-0.6606*
1,1,0.5988,-0.3306,-0.6606*
1,1,0.5988,-0.3306,0.6606*
1,1,0.5988,0.3306,0.6606*
%
%ADD387ROUNDEDRECTD387*%
G04:AMPARAMS|DCode=388|XSize=0.97mm|YSize=1.07mm|CornerRadius=0.2718mm|HoleSize=0mm|Usage=FLASHONLY|Rotation=90.000|XOffset=0mm|YOffset=0mm|HoleType=Round|Shape=RoundedRectangle|*
%AMROUNDEDRECTD388*
21,1,0.9700,0.5263,0,0,90.0*
21,1,0.4263,1.0700,0,0,90.0*
1,1,0.5437,0.2632,0.2132*
1,1,0.5437,0.2632,-0.2132*
1,1,0.5437,-0.2632,-0.2132*
1,1,0.5437,-0.2632,0.2132*
%
%ADD388ROUNDEDRECTD388*%
%ADD389C,0.5600*%
G04:AMPARAMS|DCode=390|XSize=1.2001mm|YSize=1.9999mm|CornerRadius=0.325mm|HoleSize=0mm|Usage=FLASHONLY|Rotation=180.000|XOffset=0mm|YOffset=0mm|HoleType=Round|Shape=RoundedRectangle|*
%AMROUNDEDRECTD390*
21,1,1.2001,1.3499,0,0,180.0*
21,1,0.5500,1.9999,0,0,180.0*
1,1,0.6500,-0.2750,0.6749*
1,1,0.6500,0.2750,0.6749*
1,1,0.6500,0.2750,-0.6749*
1,1,0.6500,-0.2750,-0.6749*
%
%ADD390ROUNDEDRECTD390*%
%ADD391R,3.4000X1.5000*%
G04:AMPARAMS|DCode=392|XSize=0.43mm|YSize=0.56mm|CornerRadius=0.0665mm|HoleSize=0mm|Usage=FLASHONLY|Rotation=270.000|XOffset=0mm|YOffset=0mm|HoleType=Round|Shape=RoundedRectangle|*
%AMROUNDEDRECTD392*
21,1,0.4300,0.4270,0,0,270.0*
21,1,0.2970,0.5600,0,0,270.0*
1,1,0.1330,-0.2135,-0.1485*
1,1,0.1330,-0.2135,0.1485*
1,1,0.1330,0.2135,0.1485*
1,1,0.1330,0.2135,-0.1485*
%
%ADD392ROUNDEDRECTD392*%
%ADD393R,2.6000X2.3000*%
G04:AMPARAMS|DCode=394|XSize=0.83mm|YSize=0.6mm|CornerRadius=0.1125mm|HoleSize=0mm|Usage=FLASHONLY|Rotation=0.000|XOffset=0mm|YOffset=0mm|HoleType=Round|Shape=RoundedRectangle|*
%AMROUNDEDRECTD394*
21,1,0.8300,0.3750,0,0,0.0*
21,1,0.6050,0.6000,0,0,0.0*
1,1,0.2250,0.3025,-0.1875*
1,1,0.2250,-0.3025,-0.1875*
1,1,0.2250,-0.3025,0.1875*
1,1,0.2250,0.3025,0.1875*
%
%ADD394ROUNDEDRECTD394*%
G04:AMPARAMS|DCode=395|XSize=1.1mm|YSize=1.1mm|CornerRadius=0.55mm|HoleSize=0mm|Usage=FLASHONLY|Rotation=315.000|XOffset=0mm|YOffset=0mm|HoleType=Round|Shape=RoundedRectangle|*
%AMROUNDEDRECTD395*
21,1,1.1000,0.0000,0,0,315.0*
21,1,0.0000,1.1000,0,0,315.0*
1,1,1.1000,0.0000,0.0000*
1,1,1.1000,0.0000,0.0000*
1,1,1.1000,0.0000,0.0000*
1,1,1.1000,0.0000,0.0000*
%
%ADD395ROUNDEDRECTD395*%
G04:AMPARAMS|DCode=396|XSize=1.26mm|YSize=1.92mm|CornerRadius=0.2994mm|HoleSize=0mm|Usage=FLASHONLY|Rotation=270.000|XOffset=0mm|YOffset=0mm|HoleType=Round|Shape=RoundedRectangle|*
%AMROUNDEDRECTD396*
21,1,1.2600,1.3212,0,0,270.0*
21,1,0.6612,1.9200,0,0,270.0*
1,1,0.5988,-0.6606,-0.3306*
1,1,0.5988,-0.6606,0.3306*
1,1,0.5988,0.6606,0.3306*
1,1,0.5988,0.6606,-0.3306*
%
%ADD396ROUNDEDRECTD396*%
G04:AMPARAMS|DCode=397|XSize=0.97mm|YSize=1.07mm|CornerRadius=0.2718mm|HoleSize=0mm|Usage=FLASHONLY|Rotation=0.000|XOffset=0mm|YOffset=0mm|HoleType=Round|Shape=RoundedRectangle|*
%AMROUNDEDRECTD397*
21,1,0.9700,0.5263,0,0,0.0*
21,1,0.4263,1.0700,0,0,0.0*
1,1,0.5437,0.2132,-0.2632*
1,1,0.5437,-0.2132,-0.2632*
1,1,0.5437,-0.2132,0.2632*
1,1,0.5437,0.2132,0.2632*
%
%ADD397ROUNDEDRECTD397*%
%ADD398R,2.1600X2.1700*%
G36*
X144087Y25616D02*
X145907Y24862D01*
X147545Y23768D01*
X148938Y22375D01*
X150032Y20737D01*
X150786Y18917D01*
X151170Y16985D01*
Y16000D01*
Y15015D01*
X150786Y13083D01*
X150032Y11263D01*
X148938Y9625D01*
X147545Y8233D01*
X145907Y7138D01*
X144087Y6384D01*
X142155Y6000D01*
X140185D01*
X138253Y6384D01*
X136433Y7138D01*
X134795Y8233D01*
X133403Y9625D01*
X132308Y11263D01*
X131554Y13083D01*
X131170Y15015D01*
Y16000D01*
Y16985D01*
X131554Y18917D01*
X132308Y20737D01*
X133403Y22375D01*
X134795Y23768D01*
X136433Y24862D01*
X138253Y25616D01*
X140185Y26000D01*
X142155D01*
X144087Y25616D01*
D02*
G37*
G36*
X139500Y256102D02*
X164500D01*
X164598Y256093D01*
X164692Y256064D01*
X164779Y256018D01*
X164855Y255955D01*
X164918Y255879D01*
X164964Y255792D01*
X164993Y255698D01*
X165002Y255600D01*
Y225600D01*
X164993Y225502D01*
X164964Y225408D01*
X164918Y225321D01*
X164855Y225245D01*
X164779Y225182D01*
X164692Y225136D01*
X164598Y225107D01*
X164500Y225098D01*
X134500D01*
X134402Y225107D01*
X134308Y225136D01*
X134221Y225182D01*
X134145Y225245D01*
X134082Y225321D01*
X134036Y225408D01*
X134007Y225502D01*
X133998Y225600D01*
Y250600D01*
X133997Y250600D01*
X134002Y250649D01*
X134007Y250698D01*
X134029Y250770D01*
X134036Y250792D01*
X134082Y250879D01*
X134145Y250955D01*
X139145Y255955D01*
X139221Y256018D01*
X139308Y256064D01*
X139402Y256093D01*
X139500Y256102D01*
X139500Y256102D01*
D02*
G37*
G36*
X740908Y166583D02*
X741002Y166554D01*
X741089Y166508D01*
X741165Y166445D01*
X741228Y166369D01*
X741274Y166282D01*
X741303Y166188D01*
X741312Y166090D01*
Y159090D01*
X741303Y158992D01*
X741274Y158898D01*
X741228Y158811D01*
X741165Y158735D01*
X741089Y158672D01*
X741002Y158626D01*
X740908Y158597D01*
X740810Y158588D01*
X739773D01*
X739772Y158588D01*
X739723Y158592D01*
X739674Y158597D01*
X739602Y158619D01*
X739580Y158626D01*
X739493Y158672D01*
X739417Y158735D01*
X738455Y159697D01*
X738455Y159697D01*
X738427Y159731D01*
X738392Y159773D01*
X738346Y159860D01*
X738317Y159954D01*
X738316Y159963D01*
X738307Y160052D01*
X738308Y160053D01*
Y166090D01*
X738317Y166188D01*
X738346Y166282D01*
X738392Y166369D01*
X738455Y166445D01*
X738531Y166508D01*
X738618Y166554D01*
X738712Y166583D01*
X738810Y166592D01*
X740810D01*
X740908Y166583D01*
D02*
G37*
G36*
X702683Y237976D02*
X702778Y237947D01*
X702865Y237901D01*
X702869Y237897D01*
X703291D01*
X703389Y237887D01*
X703483Y237859D01*
X703570Y237812D01*
X703599Y237789D01*
X703634Y237799D01*
X703732Y237809D01*
X703776D01*
X703874Y237799D01*
X703968Y237771D01*
X704055Y237724D01*
X704113Y237677D01*
X704129D01*
X704227Y237667D01*
X704321Y237638D01*
X704408Y237592D01*
X704412Y237589D01*
X704438D01*
X704536Y237579D01*
X704630Y237550D01*
X704717Y237504D01*
X704775Y237456D01*
X704790D01*
X704888Y237446D01*
X704983Y237418D01*
X705070Y237372D01*
X705098Y237348D01*
X705159Y237330D01*
X705246Y237283D01*
X705314Y237227D01*
X705329Y237226D01*
X705424Y237197D01*
X705510Y237151D01*
X705539Y237128D01*
X705600Y237109D01*
X705687Y237063D01*
X705715Y237040D01*
X705776Y237021D01*
X705863Y236975D01*
X705939Y236912D01*
X705959Y236888D01*
X705984Y236868D01*
X706003Y236844D01*
X706019Y236831D01*
X706035Y236829D01*
X706129Y236800D01*
X706216Y236754D01*
X706292Y236692D01*
X706312Y236667D01*
X706336Y236648D01*
X706356Y236623D01*
X706380Y236604D01*
X706387Y236595D01*
X706438Y236580D01*
X706525Y236534D01*
X706601Y236471D01*
X706621Y236447D01*
X706645Y236427D01*
X706665Y236403D01*
X706685Y236386D01*
X706689Y236383D01*
X706709Y236359D01*
X706733Y236339D01*
X706753Y236315D01*
X706777Y236295D01*
X706797Y236271D01*
X706821Y236251D01*
X706841Y236227D01*
X706843Y236225D01*
X706865Y236207D01*
X706885Y236182D01*
X706901Y236169D01*
X706917Y236168D01*
X707011Y236139D01*
X707098Y236093D01*
X707174Y236030D01*
X707214Y235982D01*
X707262Y235942D01*
X707302Y235894D01*
X707350Y235854D01*
X707364Y235837D01*
X707370Y235830D01*
X707395Y235810D01*
X707434Y235761D01*
X707483Y235721D01*
X707523Y235673D01*
X707571Y235633D01*
X707631Y235561D01*
X707703Y235501D01*
X707743Y235453D01*
X707767Y235433D01*
X707791Y235413D01*
X707854Y235337D01*
X707900Y235250D01*
X707929Y235156D01*
X707931Y235140D01*
X707943Y235124D01*
X707968Y235104D01*
X707988Y235080D01*
X708012Y235060D01*
X708032Y235036D01*
X708056Y235016D01*
X708076Y234992D01*
X708100Y234972D01*
X708120Y234948D01*
X708144Y234928D01*
X708164Y234904D01*
X708188Y234884D01*
X708208Y234859D01*
X708232Y234840D01*
X708295Y234763D01*
X708341Y234676D01*
X708357Y234626D01*
X708365Y234619D01*
X708385Y234595D01*
X708409Y234575D01*
X708429Y234551D01*
X708453Y234531D01*
X708515Y234455D01*
X708562Y234368D01*
X708580Y234307D01*
X708604Y234278D01*
X708650Y234191D01*
X708679Y234097D01*
X708680Y234082D01*
X708693Y234066D01*
X708717Y234046D01*
X708737Y234022D01*
X708762Y234002D01*
X708824Y233926D01*
X708870Y233839D01*
X708889Y233777D01*
X708912Y233749D01*
X708959Y233662D01*
X708987Y233568D01*
X708989Y233552D01*
X709044Y233485D01*
X709091Y233398D01*
X709120Y233304D01*
X709127Y233227D01*
X709133Y233220D01*
X709179Y233133D01*
X709208Y233039D01*
X709209Y233023D01*
X709265Y232955D01*
X709312Y232869D01*
X709340Y232774D01*
X709350Y232676D01*
Y232651D01*
X709353Y232647D01*
X709400Y232560D01*
X709428Y232466D01*
X709438Y232368D01*
Y232254D01*
X709441Y232250D01*
X709488Y232163D01*
X709516Y232069D01*
X709526Y231971D01*
Y231735D01*
X709574Y231677D01*
X709620Y231590D01*
X709649Y231495D01*
X709658Y231397D01*
Y230887D01*
X709662Y230883D01*
X709708Y230796D01*
X709737Y230702D01*
X709747Y230604D01*
Y229590D01*
X709737Y229492D01*
X709708Y229397D01*
X709662Y229310D01*
X709658Y229306D01*
Y228752D01*
X709649Y228654D01*
X709620Y228559D01*
X709574Y228472D01*
X709526Y228414D01*
Y228178D01*
X709516Y228080D01*
X709488Y227986D01*
X709441Y227899D01*
X709438Y227895D01*
Y227782D01*
X709428Y227684D01*
X709400Y227589D01*
X709353Y227502D01*
X709348Y227495D01*
X709350Y227473D01*
Y227385D01*
X709340Y227287D01*
X709312Y227192D01*
X709265Y227106D01*
X709217Y227048D01*
Y227032D01*
X709208Y226934D01*
X709179Y226840D01*
X709133Y226753D01*
X709129Y226749D01*
Y226723D01*
X709120Y226625D01*
X709091Y226531D01*
X709044Y226444D01*
X708997Y226386D01*
Y226370D01*
X708987Y226272D01*
X708959Y226178D01*
X708912Y226091D01*
X708889Y226063D01*
X708870Y226002D01*
X708824Y225915D01*
X708818Y225908D01*
X708811Y225831D01*
X708782Y225737D01*
X708742Y225662D01*
X708738Y225649D01*
X708692Y225562D01*
X708669Y225534D01*
X708650Y225473D01*
X708604Y225386D01*
X708593Y225373D01*
X708590Y225346D01*
X708562Y225252D01*
X708515Y225165D01*
X708453Y225089D01*
X708445Y225083D01*
X708429Y225032D01*
X708383Y224945D01*
X708360Y224916D01*
X708341Y224855D01*
X708295Y224768D01*
X708242Y224704D01*
X708239Y224700D01*
X708238Y224685D01*
X708209Y224591D01*
X708163Y224504D01*
X708139Y224476D01*
X708121Y224414D01*
X708074Y224327D01*
X708064Y224314D01*
X708061Y224288D01*
X708033Y224194D01*
X707986Y224107D01*
X707924Y224031D01*
X707916Y224024D01*
X707900Y223973D01*
X707854Y223886D01*
X707831Y223858D01*
X707812Y223797D01*
X707766Y223710D01*
X707703Y223634D01*
X707679Y223614D01*
X707659Y223590D01*
X707635Y223570D01*
X707622Y223554D01*
X707620Y223538D01*
X707592Y223444D01*
X707545Y223357D01*
X707522Y223329D01*
X707504Y223268D01*
X707457Y223181D01*
X707395Y223105D01*
X707370Y223085D01*
X707350Y223061D01*
X707326Y223041D01*
X707313Y223025D01*
X707312Y223009D01*
X707283Y222915D01*
X707237Y222828D01*
X707174Y222752D01*
X707166Y222745D01*
X707156Y222713D01*
X707151Y222694D01*
X707104Y222608D01*
X707042Y222532D01*
X707018Y222512D01*
X706998Y222487D01*
X706990Y222481D01*
X706974Y222430D01*
X706928Y222343D01*
X706865Y222267D01*
X706841Y222247D01*
X706821Y222223D01*
X706797Y222203D01*
X706777Y222179D01*
X706753Y222159D01*
X706733Y222135D01*
X706709Y222115D01*
X706689Y222090D01*
X706665Y222071D01*
X706652Y222055D01*
X706650Y222039D01*
X706621Y221945D01*
X706575Y221858D01*
X706513Y221782D01*
X706464Y221742D01*
X706464Y221742D01*
X706445Y221682D01*
X706445Y221680D01*
X706399Y221593D01*
X706336Y221517D01*
X706312Y221497D01*
X706292Y221473D01*
X706268Y221453D01*
X706252Y221434D01*
X706248Y221429D01*
X706224Y221409D01*
X706204Y221385D01*
X706180Y221365D01*
X706160Y221341D01*
X706136Y221321D01*
X706116Y221297D01*
X706108Y221290D01*
X706092Y221239D01*
X706046Y221152D01*
X705984Y221076D01*
X705959Y221056D01*
X705939Y221032D01*
X705915Y221012D01*
X705902Y220996D01*
X705895Y220988D01*
X705871Y220968D01*
X705851Y220944D01*
X705827Y220924D01*
X705807Y220900D01*
X705783Y220880D01*
X705763Y220856D01*
X705739Y220836D01*
X705726Y220820D01*
X705724Y220804D01*
X705695Y220710D01*
X705649Y220623D01*
X705587Y220547D01*
X705562Y220527D01*
X705543Y220503D01*
X705518Y220483D01*
X705498Y220459D01*
X705474Y220439D01*
X705454Y220415D01*
X705430Y220395D01*
X705410Y220371D01*
X705386Y220351D01*
X705366Y220327D01*
X705342Y220307D01*
X705322Y220282D01*
X705298Y220263D01*
X705278Y220238D01*
X705254Y220219D01*
X705234Y220194D01*
X705210Y220174D01*
X705190Y220150D01*
X705165Y220130D01*
X705146Y220106D01*
X705121Y220086D01*
X705101Y220062D01*
X705077Y220042D01*
X705058Y220019D01*
X705057Y220018D01*
X705050Y220011D01*
X705034Y219960D01*
X704988Y219874D01*
X704925Y219797D01*
X704901Y219778D01*
X704881Y219753D01*
X704857Y219734D01*
X704837Y219709D01*
X704813Y219689D01*
X704793Y219665D01*
X704769Y219645D01*
X704749Y219621D01*
X704725Y219601D01*
X704705Y219577D01*
X704680Y219557D01*
X704660Y219533D01*
X704636Y219513D01*
X704616Y219489D01*
X704592Y219469D01*
X704589Y219465D01*
X704572Y219445D01*
X704548Y219425D01*
X704528Y219401D01*
X704504Y219381D01*
X704484Y219356D01*
X704460Y219337D01*
X704440Y219312D01*
X704416Y219293D01*
X704397Y219269D01*
X704396Y219268D01*
X704372Y219248D01*
X704352Y219224D01*
X704328Y219204D01*
X704308Y219180D01*
X704284Y219160D01*
X704264Y219136D01*
X704239Y219116D01*
X704220Y219092D01*
X704195Y219072D01*
X704175Y219048D01*
X704151Y219028D01*
X704131Y219004D01*
X704107Y218984D01*
X704087Y218960D01*
X704063Y218940D01*
X704043Y218916D01*
X704019Y218896D01*
X703999Y218871D01*
X703975Y218852D01*
X703955Y218827D01*
X703931Y218807D01*
X703915Y218788D01*
X703911Y218783D01*
X703887Y218763D01*
X703867Y218739D01*
X703843Y218719D01*
X703823Y218695D01*
X703799Y218675D01*
X703779Y218651D01*
X703754Y218631D01*
X703735Y218607D01*
X703710Y218587D01*
X703690Y218563D01*
X703666Y218543D01*
X703646Y218519D01*
X703622Y218499D01*
X703602Y218475D01*
X703578Y218455D01*
X703558Y218430D01*
X703534Y218411D01*
X703514Y218386D01*
X703490Y218367D01*
X703470Y218342D01*
X703446Y218322D01*
X703426Y218298D01*
X703402Y218278D01*
X703382Y218254D01*
X703357Y218234D01*
X703338Y218210D01*
X703313Y218190D01*
X703294Y218166D01*
X703269Y218146D01*
X703249Y218122D01*
X703225Y218102D01*
X703205Y218078D01*
X703181Y218058D01*
X703161Y218034D01*
X703137Y218014D01*
X703117Y217990D01*
X703093Y217970D01*
X703073Y217945D01*
X703049Y217925D01*
X703029Y217901D01*
X703005Y217881D01*
X702989Y217862D01*
X702985Y217857D01*
X702961Y217837D01*
X702941Y217813D01*
X702916Y217793D01*
X702897Y217769D01*
X702872Y217749D01*
X702853Y217725D01*
X702828Y217705D01*
X702808Y217681D01*
X702784Y217661D01*
X702764Y217637D01*
X702740Y217617D01*
X702720Y217593D01*
X702696Y217573D01*
X702676Y217549D01*
X702652Y217529D01*
X702632Y217504D01*
X702608Y217484D01*
X702588Y217460D01*
X702564Y217440D01*
X702544Y217416D01*
X702520Y217396D01*
X702500Y217372D01*
X702476Y217352D01*
X702456Y217328D01*
X702431Y217308D01*
X702412Y217284D01*
X702387Y217264D01*
X702367Y217240D01*
X702343Y217220D01*
X702323Y217196D01*
X702299Y217176D01*
X702279Y217152D01*
X702255Y217132D01*
X702235Y217108D01*
X702211Y217088D01*
X702191Y217063D01*
X702167Y217043D01*
X702147Y217019D01*
X702123Y216999D01*
X702103Y216975D01*
X702079Y216955D01*
X702059Y216931D01*
X701983Y216869D01*
X701896Y216822D01*
X701845Y216807D01*
X701838Y216799D01*
X701814Y216779D01*
X701794Y216755D01*
X701770Y216735D01*
X701750Y216711D01*
X701726Y216691D01*
X701706Y216667D01*
X701682Y216647D01*
X701662Y216622D01*
X701638Y216602D01*
X701618Y216578D01*
X701594Y216558D01*
X701574Y216534D01*
X701550Y216514D01*
X701530Y216490D01*
X701505Y216470D01*
X701486Y216446D01*
X701461Y216426D01*
X701441Y216402D01*
X701417Y216382D01*
X701397Y216358D01*
X701373Y216338D01*
X701353Y216314D01*
X701329Y216294D01*
X701309Y216270D01*
X701233Y216207D01*
X701146Y216161D01*
X701052Y216132D01*
X701036Y216131D01*
X701020Y216117D01*
X701001Y216093D01*
X700976Y216073D01*
X700956Y216049D01*
X700932Y216029D01*
X700925Y216020D01*
X700887Y215949D01*
X700824Y215873D01*
X700748Y215810D01*
X700661Y215764D01*
X700567Y215735D01*
X700551Y215734D01*
X700535Y215721D01*
X700515Y215696D01*
X700491Y215676D01*
X700471Y215652D01*
X700447Y215632D01*
X700427Y215608D01*
X700403Y215588D01*
X700383Y215564D01*
X700359Y215544D01*
X700339Y215520D01*
X700315Y215500D01*
X700295Y215476D01*
X700271Y215456D01*
X700251Y215432D01*
X700175Y215369D01*
X700088Y215323D01*
X700026Y215304D01*
X700026Y215304D01*
X699986Y215255D01*
X699962Y215236D01*
X699942Y215211D01*
X699894Y215172D01*
X699854Y215123D01*
X699806Y215083D01*
X699770Y215040D01*
X699766Y215035D01*
X699690Y214972D01*
X699603Y214926D01*
X699509Y214897D01*
X699493Y214896D01*
X699477Y214883D01*
X699457Y214858D01*
X699433Y214839D01*
X699413Y214814D01*
X699389Y214795D01*
X699369Y214770D01*
X699345Y214750D01*
X699325Y214726D01*
X699301Y214706D01*
X699281Y214682D01*
X699204Y214620D01*
X699118Y214573D01*
X699067Y214558D01*
X699060Y214550D01*
X699036Y214530D01*
X699016Y214506D01*
X698940Y214443D01*
X698853Y214397D01*
X698759Y214368D01*
X698743Y214367D01*
X698727Y214354D01*
X698707Y214329D01*
X698683Y214310D01*
X698663Y214285D01*
X698639Y214265D01*
X698619Y214241D01*
X698595Y214221D01*
X698575Y214197D01*
X698551Y214177D01*
X698531Y214153D01*
X698455Y214090D01*
X698368Y214044D01*
X698317Y214029D01*
X698310Y214021D01*
X698286Y214001D01*
X698266Y213977D01*
X698190Y213914D01*
X698103Y213868D01*
X698053Y213852D01*
X698046Y213844D01*
X697998Y213805D01*
X697958Y213756D01*
X697909Y213716D01*
X697870Y213668D01*
X697845Y213648D01*
X697825Y213624D01*
X697749Y213561D01*
X697663Y213515D01*
X697568Y213486D01*
X697553Y213485D01*
X697537Y213472D01*
X697517Y213447D01*
X697493Y213428D01*
X697473Y213403D01*
X697396Y213341D01*
X697310Y213294D01*
X697215Y213266D01*
X697117Y213256D01*
X697073D01*
X696985Y213265D01*
X696897Y213256D01*
X696809D01*
X696711Y213266D01*
X696617Y213294D01*
X696530Y213341D01*
X696462Y213397D01*
X696446Y213398D01*
X696352Y213427D01*
X696265Y213473D01*
X696189Y213536D01*
X696126Y213612D01*
X696088Y213683D01*
X696081Y213692D01*
X696065Y213705D01*
X696049Y213707D01*
X695955Y213735D01*
X695868Y213782D01*
X695792Y213844D01*
X695772Y213869D01*
X695748Y213888D01*
X695728Y213913D01*
X695704Y213932D01*
X695697Y213941D01*
X695646Y213956D01*
X695559Y214002D01*
X695483Y214065D01*
X695463Y214089D01*
X695439Y214109D01*
X695419Y214133D01*
X695395Y214153D01*
X695375Y214177D01*
X695351Y214197D01*
X695331Y214221D01*
X695315Y214234D01*
X695300Y214236D01*
X695205Y214265D01*
X695118Y214311D01*
X695042Y214373D01*
X695023Y214397D01*
X694983Y214446D01*
X694971Y214456D01*
X694958Y214466D01*
X694897Y214485D01*
X694810Y214531D01*
X694734Y214594D01*
X694714Y214618D01*
X694690Y214638D01*
X694670Y214662D01*
X694645Y214682D01*
X694626Y214706D01*
X694601Y214726D01*
X694582Y214750D01*
X694566Y214764D01*
X694550Y214765D01*
X694456Y214794D01*
X694369Y214840D01*
X694293Y214903D01*
X694230Y214979D01*
X694221Y214996D01*
X694192Y215050D01*
X694185Y215059D01*
X694169Y215072D01*
X694153Y215074D01*
X694059Y215102D01*
X693972Y215149D01*
X693896Y215211D01*
X693876Y215236D01*
X693852Y215255D01*
X693832Y215280D01*
X693808Y215299D01*
X693788Y215324D01*
X693764Y215344D01*
X693744Y215368D01*
X693719Y215388D01*
X693700Y215412D01*
X693675Y215432D01*
X693655Y215456D01*
X693631Y215476D01*
X693611Y215500D01*
X693587Y215520D01*
X693581Y215528D01*
X693530Y215543D01*
X693443Y215590D01*
X693367Y215652D01*
X693347Y215676D01*
X693323Y215696D01*
X693303Y215721D01*
X693279Y215741D01*
X693259Y215765D01*
X693234Y215785D01*
X693214Y215809D01*
X693190Y215829D01*
X693170Y215853D01*
X693146Y215873D01*
X693126Y215897D01*
X693102Y215917D01*
X693098Y215922D01*
X693082Y215941D01*
X693066Y215954D01*
X693051Y215956D01*
X692956Y215984D01*
X692870Y216031D01*
X692793Y216093D01*
X692754Y216142D01*
X692705Y216182D01*
X692684Y216207D01*
X692665Y216230D01*
X692617Y216270D01*
X692597Y216294D01*
X692573Y216314D01*
X692533Y216362D01*
X692485Y216402D01*
X692481Y216406D01*
X692445Y216451D01*
X692396Y216490D01*
X692337Y216563D01*
X692312Y216583D01*
X692251Y216602D01*
X692164Y216648D01*
X692088Y216711D01*
X692088Y216711D01*
X692068Y216735D01*
X692044Y216755D01*
X692024Y216779D01*
X692000Y216799D01*
X691980Y216823D01*
X691956Y216843D01*
X691936Y216867D01*
X691911Y216887D01*
X691892Y216911D01*
X691867Y216931D01*
X691863Y216936D01*
X691848Y216955D01*
X691823Y216975D01*
X691803Y216999D01*
X691779Y217019D01*
X691759Y217043D01*
X691735Y217063D01*
X691715Y217088D01*
X691691Y217108D01*
X691683Y217118D01*
X691671Y217132D01*
X691647Y217152D01*
X691627Y217176D01*
X691603Y217196D01*
X691583Y217220D01*
X691559Y217240D01*
X691539Y217264D01*
X691515Y217284D01*
X691495Y217308D01*
X691470Y217328D01*
X691451Y217352D01*
X691426Y217372D01*
X691422Y217377D01*
X691406Y217396D01*
X691391Y217409D01*
X691375Y217411D01*
X691281Y217440D01*
X691194Y217486D01*
X691118Y217549D01*
X691055Y217625D01*
X691046Y217642D01*
X691017Y217696D01*
X691010Y217705D01*
X690985Y217725D01*
X690965Y217749D01*
X690941Y217769D01*
X690921Y217793D01*
X690897Y217813D01*
X690877Y217837D01*
X690853Y217857D01*
X690833Y217881D01*
X690809Y217901D01*
X690789Y217925D01*
X690765Y217945D01*
X690745Y217970D01*
X690721Y217990D01*
X690701Y218014D01*
X690677Y218034D01*
X690657Y218058D01*
X690633Y218078D01*
X690613Y218102D01*
X690589Y218122D01*
X690569Y218146D01*
X690544Y218166D01*
X690525Y218190D01*
X690500Y218210D01*
X690480Y218234D01*
X690456Y218254D01*
X690436Y218278D01*
X690412Y218298D01*
X690392Y218322D01*
X690368Y218342D01*
X690348Y218367D01*
X690324Y218386D01*
X690304Y218411D01*
X690280Y218430D01*
X690260Y218455D01*
X690236Y218475D01*
X690216Y218499D01*
X690192Y218519D01*
X690188Y218524D01*
X690172Y218543D01*
X690148Y218563D01*
X690128Y218587D01*
X690104Y218607D01*
X690084Y218631D01*
X690059Y218651D01*
X690040Y218675D01*
X690015Y218695D01*
X690011Y218700D01*
X689995Y218719D01*
X689971Y218739D01*
X689951Y218763D01*
X689927Y218783D01*
X689923Y218788D01*
X689907Y218807D01*
X689883Y218827D01*
X689863Y218852D01*
X689839Y218871D01*
X689819Y218896D01*
X689795Y218916D01*
X689775Y218940D01*
X689751Y218960D01*
X689731Y218984D01*
X689707Y219004D01*
X689687Y219028D01*
X689678Y219035D01*
X689606Y219074D01*
X689530Y219136D01*
X689468Y219212D01*
X689421Y219299D01*
X689393Y219393D01*
X689391Y219409D01*
X689378Y219425D01*
X689354Y219445D01*
X689334Y219469D01*
X689310Y219489D01*
X689290Y219513D01*
X689266Y219533D01*
X689246Y219557D01*
X689221Y219577D01*
X689202Y219601D01*
X689177Y219621D01*
X689158Y219645D01*
X689133Y219665D01*
X689129Y219670D01*
X689113Y219689D01*
X689089Y219709D01*
X689085Y219714D01*
X689069Y219733D01*
X689045Y219753D01*
X689025Y219778D01*
X689001Y219797D01*
X688981Y219822D01*
X688957Y219841D01*
X688937Y219866D01*
X688913Y219886D01*
X688893Y219910D01*
X688869Y219930D01*
X688865Y219935D01*
X688849Y219954D01*
X688825Y219974D01*
X688805Y219998D01*
X688781Y220018D01*
X688761Y220042D01*
X688736Y220062D01*
X688717Y220086D01*
X688692Y220106D01*
X688630Y220182D01*
X688584Y220269D01*
X688568Y220320D01*
X688560Y220327D01*
X688520Y220375D01*
X688472Y220415D01*
X688432Y220463D01*
X688384Y220503D01*
X688364Y220527D01*
X688340Y220547D01*
X688300Y220595D01*
X688251Y220635D01*
X688247Y220640D01*
X688212Y220684D01*
X688163Y220723D01*
X688101Y220800D01*
X688054Y220886D01*
X688026Y220981D01*
X688024Y220996D01*
X688011Y221012D01*
X687987Y221032D01*
X687967Y221056D01*
X687943Y221076D01*
X687923Y221100D01*
X687899Y221120D01*
X687879Y221145D01*
X687855Y221164D01*
X687835Y221189D01*
X687810Y221208D01*
X687748Y221285D01*
X687701Y221372D01*
X687686Y221423D01*
X687678Y221429D01*
X687658Y221453D01*
X687634Y221473D01*
X687614Y221497D01*
X687590Y221517D01*
X687570Y221542D01*
X687546Y221561D01*
X687526Y221586D01*
X687525Y221586D01*
X687502Y221605D01*
X687439Y221682D01*
X687393Y221768D01*
X687364Y221863D01*
X687363Y221878D01*
X687350Y221894D01*
X687325Y221914D01*
X687305Y221938D01*
X687281Y221958D01*
X687219Y222034D01*
X687172Y222121D01*
X687165Y222147D01*
X687157Y222172D01*
X687149Y222179D01*
X687129Y222203D01*
X687105Y222223D01*
X687085Y222247D01*
X687061Y222267D01*
X687041Y222291D01*
X687017Y222311D01*
X686997Y222335D01*
X686973Y222355D01*
X686910Y222431D01*
X686864Y222518D01*
X686845Y222579D01*
X686845Y222580D01*
X686796Y222620D01*
X686776Y222644D01*
X686752Y222664D01*
X686690Y222740D01*
X686643Y222827D01*
X686615Y222921D01*
X686612Y222948D01*
X686601Y222960D01*
X686555Y223047D01*
X686540Y223098D01*
X686532Y223105D01*
X686512Y223129D01*
X686488Y223149D01*
X686468Y223173D01*
X686443Y223193D01*
X686381Y223269D01*
X686335Y223356D01*
X686334Y223357D01*
X686316Y223417D01*
X686293Y223445D01*
X686246Y223532D01*
X686218Y223627D01*
X686217Y223639D01*
X686216Y223642D01*
X686203Y223658D01*
X686179Y223678D01*
X686159Y223702D01*
X686135Y223722D01*
X686072Y223798D01*
X686026Y223885D01*
X686025Y223886D01*
X686007Y223946D01*
X685984Y223975D01*
X685938Y224062D01*
X685909Y224156D01*
X685908Y224171D01*
X685852Y224239D01*
X685805Y224326D01*
X685787Y224387D01*
X685764Y224416D01*
X685717Y224503D01*
X685702Y224553D01*
X685694Y224560D01*
X685631Y224636D01*
X685585Y224723D01*
X685556Y224817D01*
X685554Y224844D01*
X685543Y224857D01*
X685497Y224943D01*
X685487Y224975D01*
X685478Y225005D01*
X685455Y225033D01*
X685408Y225120D01*
X685380Y225214D01*
X685378Y225230D01*
X685323Y225298D01*
X685276Y225384D01*
X685248Y225479D01*
X685240Y225555D01*
X685234Y225562D01*
X685188Y225649D01*
X685159Y225743D01*
X685158Y225759D01*
X685102Y225827D01*
X685056Y225914D01*
X685027Y226008D01*
X685017Y226106D01*
Y226131D01*
X685014Y226135D01*
X684967Y226222D01*
X684949Y226283D01*
X684926Y226312D01*
X684879Y226399D01*
X684875Y226412D01*
X684846Y226466D01*
X684835Y226487D01*
X684807Y226581D01*
X684803Y226614D01*
X684799Y226658D01*
X684793Y226665D01*
X684747Y226751D01*
X684718Y226846D01*
X684709Y226944D01*
Y226969D01*
X684705Y226973D01*
X684659Y227060D01*
X684630Y227154D01*
X684621Y227252D01*
Y227356D01*
X684573Y227414D01*
X684527Y227501D01*
X684498Y227595D01*
X684488Y227693D01*
Y227807D01*
X684485Y227811D01*
X684438Y227898D01*
X684410Y227992D01*
X684400Y228090D01*
Y228204D01*
X684397Y228208D01*
X684350Y228295D01*
X684346Y228308D01*
X684306Y228383D01*
X684277Y228477D01*
X684268Y228575D01*
Y228619D01*
X684277Y228717D01*
X684306Y228812D01*
X684312Y228823D01*
Y228944D01*
X684264Y229002D01*
X684218Y229089D01*
X684189Y229183D01*
X684180Y229281D01*
Y231133D01*
X684189Y231231D01*
X684218Y231325D01*
X684264Y231412D01*
X684308Y231466D01*
X684306Y231470D01*
X684277Y231564D01*
X684268Y231662D01*
Y231706D01*
X684277Y231804D01*
X684306Y231898D01*
X684352Y231985D01*
X684400Y232043D01*
Y232191D01*
X684410Y232289D01*
X684438Y232383D01*
X684485Y232470D01*
X684490Y232477D01*
X684498Y232554D01*
X684527Y232648D01*
X684573Y232735D01*
X684621Y232793D01*
Y232809D01*
X684630Y232907D01*
X684659Y233001D01*
X684705Y233088D01*
X684716Y233101D01*
X684718Y233127D01*
X684747Y233221D01*
X684793Y233308D01*
X684799Y233315D01*
X684807Y233392D01*
X684835Y233486D01*
X684882Y233573D01*
X684937Y233641D01*
X684939Y233656D01*
X684967Y233750D01*
X685014Y233837D01*
X685037Y233866D01*
X685056Y233927D01*
X685102Y234014D01*
X685165Y234090D01*
X685189Y234110D01*
X685209Y234134D01*
X685233Y234154D01*
X685246Y234170D01*
X685248Y234185D01*
X685276Y234280D01*
X685323Y234366D01*
X685385Y234443D01*
X685458Y234502D01*
X685478Y234527D01*
X685497Y234588D01*
X685543Y234675D01*
X685606Y234751D01*
X685630Y234771D01*
X685650Y234795D01*
X685674Y234815D01*
X685687Y234831D01*
X685687Y234835D01*
X685688Y234847D01*
X685717Y234941D01*
X685764Y235028D01*
X685826Y235104D01*
X685902Y235167D01*
X685931Y235182D01*
X685973Y235205D01*
X685983Y235212D01*
X686002Y235236D01*
X686027Y235256D01*
X686047Y235281D01*
X686071Y235300D01*
X686091Y235325D01*
X686115Y235345D01*
X686135Y235369D01*
X686159Y235389D01*
X686179Y235413D01*
X686203Y235433D01*
X686223Y235457D01*
X686246Y235476D01*
X686247Y235477D01*
X686267Y235501D01*
X686291Y235521D01*
X686311Y235545D01*
X686335Y235565D01*
X686355Y235589D01*
X686379Y235609D01*
X686399Y235633D01*
X686423Y235653D01*
X686443Y235677D01*
X686468Y235697D01*
X686488Y235721D01*
X686512Y235741D01*
X686532Y235766D01*
X686556Y235786D01*
X686576Y235810D01*
X686600Y235830D01*
X686620Y235854D01*
X686644Y235874D01*
X686664Y235898D01*
X686688Y235918D01*
X686708Y235942D01*
X686730Y235960D01*
X686732Y235962D01*
X686752Y235986D01*
X686776Y236006D01*
X686796Y236030D01*
X686820Y236050D01*
X686840Y236074D01*
X686864Y236094D01*
X686884Y236118D01*
X686909Y236138D01*
X686928Y236162D01*
X686953Y236182D01*
X686973Y236207D01*
X686997Y236227D01*
X687017Y236251D01*
X687041Y236271D01*
X687061Y236295D01*
X687085Y236315D01*
X687105Y236339D01*
X687129Y236359D01*
X687149Y236383D01*
X687225Y236445D01*
X687312Y236492D01*
X687363Y236507D01*
X687369Y236515D01*
X687394Y236535D01*
X687413Y236559D01*
X687490Y236622D01*
X687577Y236668D01*
X687627Y236684D01*
X687634Y236692D01*
X687682Y236731D01*
X687686Y236736D01*
X687722Y236780D01*
X687798Y236842D01*
X687885Y236889D01*
X687980Y236917D01*
X687995Y236919D01*
X688063Y236975D01*
X688150Y237021D01*
X688211Y237040D01*
X688239Y237063D01*
X688326Y237109D01*
X688420Y237138D01*
X688447Y237140D01*
X688460Y237151D01*
X688547Y237197D01*
X688598Y237213D01*
X688604Y237221D01*
X688680Y237283D01*
X688767Y237330D01*
X688828Y237348D01*
X688857Y237372D01*
X688944Y237418D01*
X689038Y237446D01*
X689053Y237448D01*
X689121Y237504D01*
X689208Y237550D01*
X689302Y237579D01*
X689379Y237586D01*
X689386Y237592D01*
X689473Y237638D01*
X689567Y237667D01*
X689665Y237677D01*
X689813D01*
X689871Y237724D01*
X689958Y237771D01*
X690052Y237799D01*
X690150Y237809D01*
X690194D01*
X690256Y237803D01*
X690268Y237812D01*
X690355Y237859D01*
X690449Y237887D01*
X690547Y237897D01*
X690969D01*
X690973Y237901D01*
X691060Y237947D01*
X691154Y237976D01*
X691253Y237985D01*
X692619D01*
X692718Y237976D01*
X692812Y237947D01*
X692899Y237901D01*
X692903Y237897D01*
X693325D01*
X693423Y237887D01*
X693517Y237859D01*
X693604Y237812D01*
X693633Y237789D01*
X693668Y237799D01*
X693766Y237809D01*
X693810D01*
X693908Y237799D01*
X694002Y237771D01*
X694078Y237731D01*
X694091Y237727D01*
X694177Y237680D01*
X694182Y237677D01*
X694207D01*
X694305Y237667D01*
X694399Y237638D01*
X694486Y237592D01*
X694493Y237586D01*
X694570Y237579D01*
X694664Y237550D01*
X694751Y237504D01*
X694809Y237456D01*
X694824D01*
X694922Y237446D01*
X695017Y237418D01*
X695104Y237372D01*
X695116Y237361D01*
X695143Y237358D01*
X695237Y237330D01*
X695324Y237283D01*
X695400Y237221D01*
X695407Y237213D01*
X695458Y237197D01*
X695545Y237151D01*
X695557Y237140D01*
X695584Y237138D01*
X695678Y237109D01*
X695765Y237063D01*
X695793Y237040D01*
X695854Y237021D01*
X695941Y236975D01*
X696018Y236912D01*
X696037Y236888D01*
X696062Y236868D01*
X696081Y236844D01*
X696106Y236824D01*
X696112Y236816D01*
X696163Y236800D01*
X696250Y236754D01*
X696326Y236692D01*
X696346Y236667D01*
X696370Y236648D01*
X696390Y236623D01*
X696406Y236610D01*
X696422Y236609D01*
X696516Y236580D01*
X696603Y236534D01*
X696679Y236471D01*
X696719Y236423D01*
X696767Y236383D01*
X696787Y236359D01*
X696811Y236339D01*
X696847Y236295D01*
X696851Y236290D01*
X696899Y236251D01*
X696919Y236227D01*
X696919Y236227D01*
X696938Y236251D01*
X697015Y236313D01*
X697102Y236360D01*
X697196Y236388D01*
X697211Y236390D01*
X697227Y236403D01*
X697247Y236427D01*
X697271Y236447D01*
X697291Y236471D01*
X697316Y236491D01*
X697335Y236515D01*
X697360Y236535D01*
X697380Y236559D01*
X697456Y236622D01*
X697542Y236668D01*
X697594Y236684D01*
X697600Y236692D01*
X697624Y236712D01*
X697644Y236736D01*
X697668Y236756D01*
X697688Y236780D01*
X697764Y236842D01*
X697851Y236889D01*
X697902Y236904D01*
X697909Y236912D01*
X697985Y236975D01*
X698072Y237021D01*
X698166Y237050D01*
X698193Y237052D01*
X698205Y237063D01*
X698292Y237109D01*
X698354Y237128D01*
X698382Y237151D01*
X698469Y237197D01*
X698520Y237213D01*
X698526Y237221D01*
X698602Y237283D01*
X698689Y237330D01*
X698783Y237358D01*
X698810Y237361D01*
X698823Y237372D01*
X698910Y237418D01*
X699004Y237446D01*
X699102Y237456D01*
X699117D01*
X699175Y237504D01*
X699262Y237550D01*
X699324Y237569D01*
X699352Y237592D01*
X699439Y237638D01*
X699533Y237667D01*
X699631Y237677D01*
X699744D01*
X699749Y237680D01*
X699836Y237727D01*
X699849Y237731D01*
X699924Y237771D01*
X700018Y237799D01*
X700116Y237809D01*
X700160D01*
X700183Y237807D01*
X700190Y237812D01*
X700277Y237859D01*
X700371Y237887D01*
X700469Y237897D01*
X700935D01*
X700939Y237901D01*
X701026Y237947D01*
X701120Y237976D01*
X701218Y237985D01*
X702586D01*
X702683Y237976D01*
D02*
G37*
G36*
X986237Y309844D02*
X986286Y309839D01*
X986358Y309817D01*
X986380Y309810D01*
X986467Y309764D01*
X986543Y309701D01*
X987505Y308739D01*
X987505Y308739D01*
X987534Y308705D01*
X987568Y308663D01*
X987614Y308576D01*
X987643Y308482D01*
X987644Y308473D01*
X987653Y308384D01*
X987653Y308384D01*
Y302346D01*
X987643Y302248D01*
X987614Y302154D01*
X987568Y302067D01*
X987505Y301991D01*
X987429Y301929D01*
X987342Y301882D01*
X987248Y301854D01*
X987150Y301844D01*
X985150D01*
X985052Y301854D01*
X984958Y301882D01*
X984871Y301929D01*
X984795Y301991D01*
X984732Y302067D01*
X984686Y302154D01*
X984657Y302248D01*
X984648Y302346D01*
Y309346D01*
X984657Y309444D01*
X984686Y309538D01*
X984732Y309625D01*
X984795Y309701D01*
X984871Y309764D01*
X984958Y309810D01*
X985052Y309839D01*
X985150Y309849D01*
X986188D01*
X986188Y309849D01*
X986237Y309844D01*
D02*
G37*
G36*
X974809Y518952D02*
X974903Y518923D01*
X974990Y518877D01*
X975066Y518814D01*
X975129Y518738D01*
X975175Y518651D01*
X975204Y518557D01*
X975213Y518459D01*
Y511459D01*
X975204Y511361D01*
X975175Y511267D01*
X975129Y511180D01*
X975066Y511104D01*
X974990Y511041D01*
X974903Y510995D01*
X974809Y510966D01*
X974711Y510957D01*
X973674D01*
X973673Y510957D01*
X973624Y510961D01*
X973576Y510966D01*
X973503Y510988D01*
X973481Y510995D01*
X973394Y511041D01*
X973318Y511104D01*
X972356Y512066D01*
X972356Y512066D01*
X972328Y512100D01*
X972293Y512142D01*
X972247Y512229D01*
X972218Y512323D01*
X972217Y512332D01*
X972209Y512421D01*
X972209Y512422D01*
Y518459D01*
X972218Y518557D01*
X972247Y518651D01*
X972293Y518738D01*
X972356Y518814D01*
X972432Y518877D01*
X972519Y518923D01*
X972613Y518952D01*
X972711Y518961D01*
X974711D01*
X974809Y518952D01*
D02*
G37*
G36*
X898902Y957237D02*
X911327D01*
X911425Y957228D01*
X911519Y957199D01*
X911606Y957153D01*
X911682Y957090D01*
X911745Y957014D01*
X911791Y956927D01*
X911820Y956833D01*
X911829Y956735D01*
Y949735D01*
X911820Y949637D01*
X911791Y949543D01*
X911745Y949456D01*
X911682Y949380D01*
X911606Y949317D01*
X911519Y949271D01*
X911425Y949242D01*
X911327Y949233D01*
X897327D01*
X897229Y949242D01*
X897135Y949271D01*
X897048Y949317D01*
X896972Y949380D01*
X896909Y949456D01*
X896863Y949543D01*
X896834Y949637D01*
X896824Y949735D01*
Y955160D01*
X896824Y955160D01*
X896829Y955209D01*
X896834Y955258D01*
X896856Y955330D01*
X896863Y955352D01*
X896909Y955439D01*
X896972Y955515D01*
X898547Y957090D01*
X898547Y957090D01*
X898581Y957119D01*
X898623Y957153D01*
X898710Y957199D01*
X898804Y957228D01*
X898813Y957229D01*
X898902Y957237D01*
X898902Y957237D01*
D02*
G37*
G36*
X824128Y1048022D02*
X824222Y1047994D01*
X824309Y1047947D01*
X824385Y1047885D01*
X824448Y1047809D01*
X824494Y1047722D01*
X824523Y1047628D01*
X824532Y1047530D01*
Y1022530D01*
X824523Y1022432D01*
X824494Y1022337D01*
X824448Y1022251D01*
X824385Y1022174D01*
X824309Y1022112D01*
X824222Y1022065D01*
X824128Y1022037D01*
X824030Y1022027D01*
X812020D01*
X812020Y1022027D01*
X811971Y1022032D01*
X811922Y1022037D01*
X811850Y1022059D01*
X811828Y1022065D01*
X811741Y1022112D01*
X811703Y1022143D01*
X811665Y1022174D01*
X811665Y1022175D01*
X807675Y1026164D01*
X807675Y1026164D01*
X807646Y1026199D01*
X807612Y1026240D01*
X807566Y1026327D01*
X807537Y1026422D01*
X807527Y1026520D01*
X807528Y1026520D01*
Y1047530D01*
X807537Y1047628D01*
X807566Y1047722D01*
X807612Y1047809D01*
X807675Y1047885D01*
X807751Y1047947D01*
X807838Y1047994D01*
X807932Y1048022D01*
X808030Y1048032D01*
X824030D01*
X824128Y1048022D01*
D02*
G37*
G36*
X82917Y1569616D02*
X84737Y1568862D01*
X86375Y1567767D01*
X87768Y1566375D01*
X88862Y1564737D01*
X89616Y1562917D01*
X90000Y1560985D01*
Y1560000D01*
Y1559015D01*
X89616Y1557083D01*
X88862Y1555263D01*
X87768Y1553625D01*
X86375Y1552233D01*
X84737Y1551138D01*
X82917Y1550384D01*
X80985Y1550000D01*
X79015D01*
X77083Y1550384D01*
X75263Y1551138D01*
X73625Y1552233D01*
X72233Y1553625D01*
X71138Y1555263D01*
X70384Y1557083D01*
X70000Y1559015D01*
Y1560000D01*
Y1560985D01*
X70384Y1562917D01*
X71138Y1564737D01*
X72233Y1566375D01*
X73625Y1567767D01*
X75263Y1568862D01*
X77083Y1569616D01*
X79015Y1570000D01*
X80985D01*
X82917Y1569616D01*
D02*
G37*
G36*
X857917D02*
X859737Y1568862D01*
X861375Y1567767D01*
X862768Y1566375D01*
X863862Y1564737D01*
X864616Y1562917D01*
X865000Y1560985D01*
Y1560000D01*
Y1559015D01*
X864616Y1557083D01*
X863862Y1555263D01*
X862768Y1553625D01*
X861375Y1552233D01*
X859737Y1551138D01*
X857917Y1550384D01*
X855985Y1550000D01*
X854015D01*
X852083Y1550384D01*
X850263Y1551138D01*
X848625Y1552233D01*
X847233Y1553625D01*
X846138Y1555263D01*
X845384Y1557083D01*
X845000Y1559015D01*
Y1560000D01*
Y1560985D01*
X845384Y1562917D01*
X846138Y1564737D01*
X847233Y1566375D01*
X848625Y1567767D01*
X850263Y1568862D01*
X852083Y1569616D01*
X854015Y1570000D01*
X855985D01*
X857917Y1569616D01*
D02*
G37*
D87*
X429228Y830409D02*
D03*
Y839909D02*
D03*
D100*
X701810Y111340D02*
D03*
X711310D02*
D03*
X424536Y296858D02*
D03*
X415036D02*
D03*
D138*
X974809Y170190D02*
D03*
X960010Y170190D02*
D03*
X974809Y165190D02*
D03*
X960010Y160190D02*
D03*
X974809D02*
D03*
Y196190D02*
D03*
X960010Y196190D02*
D03*
X974809Y191190D02*
D03*
X960010Y186190D02*
D03*
X974809D02*
D03*
D144*
X779065Y903156D02*
D03*
X794066Y921154D02*
D03*
Y903156D02*
D03*
X779065Y921154D02*
D03*
D145*
X786566Y903156D02*
D03*
Y921154D02*
D03*
D150*
X599791Y1532542D02*
D03*
Y1523792D02*
D03*
X604791Y1532542D02*
D03*
Y1523792D02*
D03*
X614791D02*
D03*
X614791Y1532542D02*
D03*
X619791D02*
D03*
Y1523792D02*
D03*
X543591Y1442537D02*
D03*
Y1433787D02*
D03*
X538591Y1442537D02*
D03*
Y1433787D02*
D03*
X523591D02*
D03*
Y1442537D02*
D03*
X528591Y1433787D02*
D03*
Y1442537D02*
D03*
X462390D02*
D03*
Y1433787D02*
D03*
X447390D02*
D03*
Y1442537D02*
D03*
X467390D02*
D03*
Y1433787D02*
D03*
X452390Y1442537D02*
D03*
Y1433787D02*
D03*
X391190Y1442537D02*
D03*
Y1433787D02*
D03*
X376190Y1433787D02*
D03*
X376190Y1442537D02*
D03*
X386190Y1433787D02*
D03*
Y1442537D02*
D03*
X371190Y1433787D02*
D03*
Y1442537D02*
D03*
X452391Y1523792D02*
D03*
Y1532542D02*
D03*
X447391D02*
D03*
Y1523792D02*
D03*
X467391D02*
D03*
X467391Y1532542D02*
D03*
X462391D02*
D03*
X462391Y1523792D02*
D03*
X376190D02*
D03*
Y1532542D02*
D03*
X371190Y1523792D02*
D03*
Y1532542D02*
D03*
X391190Y1523792D02*
D03*
Y1532542D02*
D03*
X386190Y1523792D02*
D03*
Y1532542D02*
D03*
X314991Y1523792D02*
D03*
Y1532542D02*
D03*
X309991D02*
D03*
Y1523792D02*
D03*
X299991Y1532542D02*
D03*
Y1523792D02*
D03*
X294991Y1532542D02*
D03*
Y1523792D02*
D03*
X591165Y401625D02*
D03*
Y392875D02*
D03*
X596165Y401625D02*
D03*
Y392875D02*
D03*
X611165D02*
D03*
Y401625D02*
D03*
X606165D02*
D03*
Y392875D02*
D03*
X529965Y401628D02*
D03*
Y392878D02*
D03*
X534965Y401628D02*
D03*
Y392878D02*
D03*
X519965Y401628D02*
D03*
Y392878D02*
D03*
X514965Y401628D02*
D03*
Y392878D02*
D03*
X438665Y392875D02*
D03*
Y401625D02*
D03*
X443665D02*
D03*
Y392875D02*
D03*
X453665Y401625D02*
D03*
Y392875D02*
D03*
X458665Y401625D02*
D03*
Y392875D02*
D03*
X323065Y402490D02*
D03*
Y393740D02*
D03*
X318065Y402490D02*
D03*
Y393740D02*
D03*
X338065Y402490D02*
D03*
Y393740D02*
D03*
X333065Y402490D02*
D03*
Y393740D02*
D03*
X410242Y973907D02*
D03*
Y965157D02*
D03*
X390242Y973907D02*
D03*
Y965157D02*
D03*
X405242Y973907D02*
D03*
Y965157D02*
D03*
X395242Y973907D02*
D03*
Y965157D02*
D03*
X359442D02*
D03*
Y973907D02*
D03*
X354442Y965157D02*
D03*
Y973907D02*
D03*
X344442Y965157D02*
D03*
Y973907D02*
D03*
X339442Y965157D02*
D03*
Y973907D02*
D03*
X453741Y1055162D02*
D03*
Y1063912D02*
D03*
X458742D02*
D03*
Y1055162D02*
D03*
X468742Y1063912D02*
D03*
Y1055162D02*
D03*
X473741Y1063912D02*
D03*
Y1055162D02*
D03*
X407942D02*
D03*
Y1063912D02*
D03*
X422942Y1055162D02*
D03*
Y1063912D02*
D03*
X402942Y1055162D02*
D03*
Y1063912D02*
D03*
X417942Y1055162D02*
D03*
Y1063912D02*
D03*
X354441D02*
D03*
Y1055162D02*
D03*
X344442Y1063912D02*
D03*
X344441Y1055162D02*
D03*
X339441Y1063912D02*
D03*
Y1055162D02*
D03*
X359441D02*
D03*
Y1063912D02*
D03*
X254165Y566752D02*
D03*
Y558002D02*
D03*
X259165Y566752D02*
D03*
Y558002D02*
D03*
X269165Y566752D02*
D03*
Y558002D02*
D03*
X274165Y566752D02*
D03*
Y558002D02*
D03*
X221515Y393737D02*
D03*
Y402487D02*
D03*
X231515Y393737D02*
D03*
Y402487D02*
D03*
X216515Y393737D02*
D03*
Y402487D02*
D03*
X236515D02*
D03*
Y393737D02*
D03*
X305415Y558002D02*
D03*
Y566752D02*
D03*
X310415Y558002D02*
D03*
Y566752D02*
D03*
X320415Y558002D02*
D03*
Y566752D02*
D03*
X325415Y558002D02*
D03*
Y566752D02*
D03*
X272315Y402487D02*
D03*
Y393737D02*
D03*
X287315D02*
D03*
Y402487D02*
D03*
X267315Y393737D02*
D03*
Y402487D02*
D03*
X282315D02*
D03*
Y393737D02*
D03*
D151*
X609791Y1531397D02*
D03*
X533591Y1434932D02*
D03*
X457390D02*
D03*
X381190D02*
D03*
X457391Y1524937D02*
D03*
X381190Y1524937D02*
D03*
X304991D02*
D03*
X601165Y394020D02*
D03*
X524965Y394023D02*
D03*
X448665Y394020D02*
D03*
X328065Y394885D02*
D03*
X400242Y966302D02*
D03*
X349442D02*
D03*
X463741Y1056307D02*
D03*
X412942D02*
D03*
X349441Y1056307D02*
D03*
X264165Y559147D02*
D03*
X226515Y394882D02*
D03*
X315415Y559147D02*
D03*
X277315Y394882D02*
D03*
D152*
X609791Y1524930D02*
D03*
X533591Y1441399D02*
D03*
X457390D02*
D03*
X381190D02*
D03*
X457391Y1531404D02*
D03*
X381190D02*
D03*
X304991D02*
D03*
X601165Y400487D02*
D03*
X524965Y400490D02*
D03*
X448665Y400487D02*
D03*
X328065Y401352D02*
D03*
X400242Y972769D02*
D03*
X349442D02*
D03*
X463741Y1062774D02*
D03*
X412942D02*
D03*
X349441D02*
D03*
X264165Y565614D02*
D03*
X226515Y401349D02*
D03*
X315415Y565614D02*
D03*
X277315Y401349D02*
D03*
D165*
X317000Y283700D02*
D03*
X313000D02*
D03*
X309000D02*
D03*
X305000D02*
D03*
X301000D02*
D03*
Y297700D02*
D03*
X305000D02*
D03*
X309000D02*
D03*
X313000D02*
D03*
X317000D02*
D03*
X981711Y495959D02*
D03*
X973711D02*
D03*
X977711D02*
D03*
X985711D02*
D03*
Y514959D02*
D03*
X981711Y514959D02*
D03*
X977711Y514959D02*
D03*
X974150Y324846D02*
D03*
X978150D02*
D03*
X986150D02*
D03*
X982150D02*
D03*
X974150Y305846D02*
D03*
X978150D02*
D03*
X982150D02*
D03*
X739810Y143590D02*
D03*
X743810Y143590D02*
D03*
X747810Y143590D02*
D03*
X751810Y143590D02*
D03*
X751810Y162590D02*
D03*
X747810Y162590D02*
D03*
X743810Y162590D02*
D03*
D166*
X317500Y290700D02*
D03*
X300500D02*
D03*
X970211Y507459D02*
D03*
X989211Y507459D02*
D03*
X970211Y503459D02*
D03*
X989211Y503459D02*
D03*
X989650Y313346D02*
D03*
X970650Y313346D02*
D03*
Y317346D02*
D03*
X989650Y317346D02*
D03*
X736310Y155090D02*
D03*
X755310Y151090D02*
D03*
X736310D02*
D03*
X755310Y155090D02*
D03*
D186*
X717310Y81590D02*
D03*
X711810D02*
D03*
X717310Y69590D02*
D03*
X711810D02*
D03*
X728560Y48915D02*
D03*
X734060D02*
D03*
X666310Y69630D02*
D03*
X660810D02*
D03*
X728560Y54915D02*
D03*
X734060Y54915D02*
D03*
X668810Y43840D02*
D03*
X674310D02*
D03*
X666310Y79590D02*
D03*
X660810D02*
D03*
X900030Y888970D02*
D03*
X894530D02*
D03*
X907030Y894970D02*
D03*
X912530D02*
D03*
X774165Y297740D02*
D03*
X768664D02*
D03*
X699165Y300740D02*
D03*
X704665D02*
D03*
X774165Y314740D02*
D03*
X768664D02*
D03*
X374203Y337551D02*
D03*
X368703D02*
D03*
X459799Y295320D02*
D03*
X465299D02*
D03*
X459799Y303320D02*
D03*
X465299D02*
D03*
X459799Y321320D02*
D03*
X465299D02*
D03*
X381214Y323490D02*
D03*
X386715D02*
D03*
X381214Y316490D02*
D03*
X386715D02*
D03*
X381214Y337490D02*
D03*
X386715D02*
D03*
X381214Y330490D02*
D03*
X386715D02*
D03*
X444920Y352179D02*
D03*
X439420D02*
D03*
X381115Y351490D02*
D03*
X386614D02*
D03*
X459799Y327320D02*
D03*
X465299D02*
D03*
X900030Y894970D02*
D03*
X894530D02*
D03*
X813530Y850470D02*
D03*
X808030D02*
D03*
X813530Y857470D02*
D03*
X808030D02*
D03*
X812740Y887120D02*
D03*
X818240D02*
D03*
X812740Y893120D02*
D03*
X818240D02*
D03*
X459799Y333320D02*
D03*
X465299D02*
D03*
X818240Y907120D02*
D03*
X812740D02*
D03*
X459799Y340320D02*
D03*
X465299D02*
D03*
X768664Y303740D02*
D03*
X774165D02*
D03*
X812740Y913120D02*
D03*
X818240D02*
D03*
X812740Y901120D02*
D03*
X818240D02*
D03*
X812740Y919120D02*
D03*
X818240D02*
D03*
X540062Y1131010D02*
D03*
X534562D02*
D03*
X633527Y1140241D02*
D03*
X639027D02*
D03*
X540062Y1153010D02*
D03*
X534562D02*
D03*
X785530Y1038280D02*
D03*
X791030D02*
D03*
X844280Y1053000D02*
D03*
X849780D02*
D03*
X947410Y173440D02*
D03*
X941909Y173440D02*
D03*
X429265Y822998D02*
D03*
X434765D02*
D03*
X488379Y906159D02*
D03*
X482879D02*
D03*
X488379Y899159D02*
D03*
X482879D02*
D03*
X392978Y860159D02*
D03*
X387478D02*
D03*
X392978Y916159D02*
D03*
X387478D02*
D03*
X982980Y527706D02*
D03*
X977480Y527706D02*
D03*
X344497Y868309D02*
D03*
X338997Y868309D02*
D03*
X344497Y861309D02*
D03*
X338997D02*
D03*
X338997Y854309D02*
D03*
X344497D02*
D03*
X814510Y969470D02*
D03*
X809010D02*
D03*
X789316Y892647D02*
D03*
X783816D02*
D03*
X387478Y909159D02*
D03*
X392978D02*
D03*
X387478Y902159D02*
D03*
X392978D02*
D03*
X387478Y867159D02*
D03*
X392978D02*
D03*
X387478Y874159D02*
D03*
X392978D02*
D03*
X387478Y881159D02*
D03*
X392978D02*
D03*
X387478Y888159D02*
D03*
X392978D02*
D03*
X387478Y895159D02*
D03*
X392978D02*
D03*
X879030Y984190D02*
D03*
X873530D02*
D03*
X587631Y229744D02*
D03*
X593131D02*
D03*
X581632D02*
D03*
X576132D02*
D03*
X494860Y123490D02*
D03*
X489360D02*
D03*
X494860Y130490D02*
D03*
X489360D02*
D03*
X494860Y160490D02*
D03*
X489360D02*
D03*
X494860Y151490D02*
D03*
X489360D02*
D03*
X494860Y137490D02*
D03*
X489360D02*
D03*
X494860Y144490D02*
D03*
X489360D02*
D03*
X539882Y229751D02*
D03*
X534381D02*
D03*
X545881D02*
D03*
X551381D02*
D03*
X972900Y295000D02*
D03*
X967400D02*
D03*
X985000Y294750D02*
D03*
X979500D02*
D03*
X752062Y59700D02*
D03*
X746562D02*
D03*
X752063Y85590D02*
D03*
X746563D02*
D03*
X286827Y964510D02*
D03*
X281327D02*
D03*
X152753Y132343D02*
D03*
X158253D02*
D03*
X152753Y125343D02*
D03*
X158253D02*
D03*
X326000Y273072D02*
D03*
X331500D02*
D03*
X374000Y888159D02*
D03*
X379500D02*
D03*
X489360Y116490D02*
D03*
X494860Y116490D02*
D03*
X489360Y167490D02*
D03*
X494860D02*
D03*
X713664Y349740D02*
D03*
X719165D02*
D03*
X301327Y950509D02*
D03*
X295827D02*
D03*
X286827Y957509D02*
D03*
X281327D02*
D03*
X232500Y137600D02*
D03*
X227000D02*
D03*
X300000Y180100D02*
D03*
X305500D02*
D03*
X300000Y173100D02*
D03*
X305500D02*
D03*
Y194100D02*
D03*
X300000D02*
D03*
X305500Y187100D02*
D03*
X300000D02*
D03*
X488378Y876492D02*
D03*
X482878D02*
D03*
X488378Y883433D02*
D03*
X482878D02*
D03*
X111670Y346511D02*
D03*
X117170D02*
D03*
X111670Y364010D02*
D03*
X117170D02*
D03*
X111670Y144010D02*
D03*
X117170D02*
D03*
X111670Y126510D02*
D03*
X117170D02*
D03*
X317000Y315950D02*
D03*
X322500D02*
D03*
X319500Y273072D02*
D03*
X314000D02*
D03*
Y266072D02*
D03*
X319500D02*
D03*
X317000Y308950D02*
D03*
X322500D02*
D03*
X960750Y292000D02*
D03*
X955250D02*
D03*
X216017Y382429D02*
D03*
X221517D02*
D03*
X853450Y685750D02*
D03*
X847950D02*
D03*
X853450Y694750D02*
D03*
X847950D02*
D03*
X854450Y514750D02*
D03*
X848950D02*
D03*
X841450D02*
D03*
X835950D02*
D03*
X841050Y1422200D02*
D03*
X846550D02*
D03*
X295827Y957509D02*
D03*
X301327D02*
D03*
X295827Y964510D02*
D03*
X301327D02*
D03*
X238550Y106000D02*
D03*
X244050D02*
D03*
D187*
X260300Y111500D02*
D03*
Y106000D02*
D03*
X888280Y889000D02*
D03*
Y894500D02*
D03*
X720540Y106630D02*
D03*
Y112130D02*
D03*
X726040Y91130D02*
D03*
Y85630D02*
D03*
X714810Y46638D02*
D03*
Y41138D02*
D03*
X720810Y46638D02*
D03*
Y41138D02*
D03*
X700810Y57590D02*
D03*
Y63090D02*
D03*
X888280Y916720D02*
D03*
Y922220D02*
D03*
Y910220D02*
D03*
Y904720D02*
D03*
X895030Y904720D02*
D03*
Y910220D02*
D03*
X912130Y877220D02*
D03*
Y882720D02*
D03*
X899026Y877220D02*
D03*
Y882720D02*
D03*
X740415Y297740D02*
D03*
Y303240D02*
D03*
X750915Y297740D02*
D03*
Y303240D02*
D03*
X728415Y297740D02*
D03*
Y303240D02*
D03*
X746164Y360740D02*
D03*
Y355240D02*
D03*
X757165Y360740D02*
D03*
Y355240D02*
D03*
X720415Y297740D02*
D03*
Y303240D02*
D03*
X775164Y355240D02*
D03*
Y360740D02*
D03*
X405915Y361190D02*
D03*
Y355690D02*
D03*
X398914Y361190D02*
D03*
Y355690D02*
D03*
X414865Y361240D02*
D03*
Y355740D02*
D03*
X401440Y299840D02*
D03*
Y305340D02*
D03*
X853030Y933220D02*
D03*
Y927720D02*
D03*
X859530Y933220D02*
D03*
Y927720D02*
D03*
X813030D02*
D03*
Y933220D02*
D03*
X833530D02*
D03*
Y927720D02*
D03*
X846530Y933220D02*
D03*
Y927720D02*
D03*
X872530Y933220D02*
D03*
Y927720D02*
D03*
X879030Y933220D02*
D03*
Y927720D02*
D03*
X866030Y933220D02*
D03*
Y927720D02*
D03*
X767165Y360740D02*
D03*
Y355240D02*
D03*
X892526Y877220D02*
D03*
Y882720D02*
D03*
X905526Y877220D02*
D03*
Y882720D02*
D03*
X806530Y927720D02*
D03*
Y933220D02*
D03*
X947410Y194440D02*
D03*
Y199940D02*
D03*
X437228Y840909D02*
D03*
Y835409D02*
D03*
X453228Y840909D02*
D03*
Y835409D02*
D03*
X403228Y840909D02*
D03*
Y835409D02*
D03*
X409228Y840909D02*
D03*
Y835409D02*
D03*
X419228Y929159D02*
D03*
Y934659D02*
D03*
X412228Y929159D02*
D03*
Y934659D02*
D03*
X405228Y929159D02*
D03*
Y934659D02*
D03*
X421228Y840909D02*
D03*
Y835409D02*
D03*
X415228Y840909D02*
D03*
Y835409D02*
D03*
X989980Y539706D02*
D03*
X989980Y545206D02*
D03*
X426228Y929159D02*
D03*
Y934659D02*
D03*
X436228Y929159D02*
D03*
Y934659D02*
D03*
X888275Y934167D02*
D03*
Y928667D02*
D03*
Y940472D02*
D03*
Y945972D02*
D03*
X720721Y1160310D02*
D03*
Y1165810D02*
D03*
X695321Y1175760D02*
D03*
Y1181260D02*
D03*
X669921Y1150360D02*
D03*
Y1155860D02*
D03*
X644521Y1175760D02*
D03*
Y1181260D02*
D03*
Y1150360D02*
D03*
Y1155860D02*
D03*
X947410Y156440D02*
D03*
X947410Y161940D02*
D03*
Y182440D02*
D03*
Y187940D02*
D03*
X351747Y864059D02*
D03*
Y858559D02*
D03*
X970480Y527706D02*
D03*
Y533206D02*
D03*
X840030Y988740D02*
D03*
Y994240D02*
D03*
X846530Y988740D02*
D03*
Y994240D02*
D03*
X853030Y988740D02*
D03*
Y994240D02*
D03*
X895030Y928670D02*
D03*
Y934170D02*
D03*
X827030Y994240D02*
D03*
Y988740D02*
D03*
X895030Y916720D02*
D03*
Y922220D02*
D03*
X833530Y994240D02*
D03*
Y988740D02*
D03*
X902030Y922220D02*
D03*
Y916720D02*
D03*
X909030D02*
D03*
Y922220D02*
D03*
X776566Y938835D02*
D03*
Y933335D02*
D03*
X213000Y137600D02*
D03*
Y143100D02*
D03*
X866030Y988740D02*
D03*
Y994240D02*
D03*
X882840Y953720D02*
D03*
Y959220D02*
D03*
X859530Y988740D02*
D03*
Y994240D02*
D03*
X814260Y980700D02*
D03*
Y975200D02*
D03*
Y961200D02*
D03*
Y955700D02*
D03*
X807260Y980700D02*
D03*
Y975200D02*
D03*
X827030Y1005970D02*
D03*
Y1000470D02*
D03*
X833530Y1005970D02*
D03*
Y1000470D02*
D03*
X819530Y927720D02*
D03*
Y933220D02*
D03*
X827030D02*
D03*
Y927720D02*
D03*
X840030Y933220D02*
D03*
Y927720D02*
D03*
X733210Y172930D02*
D03*
Y178430D02*
D03*
X746810Y172930D02*
D03*
Y178430D02*
D03*
X753279Y185774D02*
D03*
Y191274D02*
D03*
X662500Y150000D02*
D03*
Y155500D02*
D03*
X739560Y178430D02*
D03*
X739560Y172930D02*
D03*
X753160D02*
D03*
Y178430D02*
D03*
X955000Y303500D02*
D03*
Y298000D02*
D03*
X789476Y62744D02*
D03*
Y57244D02*
D03*
X721000Y137750D02*
D03*
Y132250D02*
D03*
X747369Y630789D02*
D03*
Y625289D02*
D03*
X146000Y304100D02*
D03*
Y309600D02*
D03*
X139000Y304100D02*
D03*
Y309600D02*
D03*
X861750Y1223750D02*
D03*
Y1229250D02*
D03*
X867250Y1290750D02*
D03*
Y1285250D02*
D03*
X751691Y1275010D02*
D03*
Y1280510D02*
D03*
X643690Y1268280D02*
D03*
Y1262780D02*
D03*
X289692Y1101990D02*
D03*
Y1107490D02*
D03*
X296821Y1060360D02*
D03*
Y1065860D02*
D03*
X249821Y1101989D02*
D03*
Y1107489D02*
D03*
X558992Y1052777D02*
D03*
Y1058277D02*
D03*
X584392Y1052777D02*
D03*
Y1058277D02*
D03*
X571692Y1052777D02*
D03*
Y1058277D02*
D03*
X751691Y1286510D02*
D03*
Y1292010D02*
D03*
X643691Y1256560D02*
D03*
Y1251060D02*
D03*
X289692Y1113990D02*
D03*
Y1119490D02*
D03*
X296821Y1072360D02*
D03*
Y1077860D02*
D03*
X249821Y1113989D02*
D03*
Y1119489D02*
D03*
X303000Y308950D02*
D03*
X303000Y314450D02*
D03*
X558992Y1064777D02*
D03*
Y1070277D02*
D03*
X584392Y1064777D02*
D03*
Y1070277D02*
D03*
X571692Y1064777D02*
D03*
Y1070277D02*
D03*
X760693Y1286510D02*
D03*
Y1292010D02*
D03*
X670692Y1262777D02*
D03*
Y1268277D02*
D03*
X679692Y1262777D02*
D03*
Y1268277D02*
D03*
X724692Y1262727D02*
D03*
Y1268227D02*
D03*
X715692Y1262727D02*
D03*
Y1268227D02*
D03*
X697692Y1262727D02*
D03*
Y1268227D02*
D03*
X652692Y1262777D02*
D03*
Y1268277D02*
D03*
X688692Y1262777D02*
D03*
Y1268277D02*
D03*
X706692Y1262727D02*
D03*
Y1268227D02*
D03*
X751692Y1262727D02*
D03*
Y1268227D02*
D03*
X733692Y1262677D02*
D03*
Y1268177D02*
D03*
X661692Y1262777D02*
D03*
Y1268277D02*
D03*
X742692Y1262677D02*
D03*
Y1268177D02*
D03*
X760693Y1280510D02*
D03*
Y1275010D02*
D03*
X670692Y1256827D02*
D03*
Y1251327D02*
D03*
X679692Y1256827D02*
D03*
Y1251327D02*
D03*
X724692Y1256777D02*
D03*
Y1251277D02*
D03*
X715692Y1256777D02*
D03*
Y1251277D02*
D03*
X697692Y1256777D02*
D03*
Y1251277D02*
D03*
X652692Y1256827D02*
D03*
Y1251327D02*
D03*
X688692Y1256827D02*
D03*
Y1251327D02*
D03*
X706692Y1256777D02*
D03*
Y1251277D02*
D03*
X751692Y1256777D02*
D03*
Y1251277D02*
D03*
X733692Y1256727D02*
D03*
Y1251227D02*
D03*
X661692Y1256827D02*
D03*
Y1251327D02*
D03*
X742692Y1256727D02*
D03*
Y1251227D02*
D03*
X280692Y1101990D02*
D03*
Y1107490D02*
D03*
Y1113990D02*
D03*
Y1119490D02*
D03*
X249821Y1132989D02*
D03*
Y1127489D02*
D03*
X870250Y1261750D02*
D03*
Y1256250D02*
D03*
X867250Y1278250D02*
D03*
Y1272750D02*
D03*
X842750Y1282250D02*
D03*
Y1276750D02*
D03*
X836250Y1282250D02*
D03*
Y1276750D02*
D03*
X829750Y1282250D02*
D03*
Y1276750D02*
D03*
X800250Y1248250D02*
D03*
Y1242750D02*
D03*
X859530Y946470D02*
D03*
Y940970D02*
D03*
X823250Y1282250D02*
D03*
Y1276750D02*
D03*
X816750Y1282250D02*
D03*
Y1276750D02*
D03*
X810250Y1282250D02*
D03*
Y1276750D02*
D03*
X870250Y1249750D02*
D03*
Y1244250D02*
D03*
X855250Y1229250D02*
D03*
Y1223750D02*
D03*
X848750Y1229250D02*
D03*
Y1223750D02*
D03*
X842250Y1229250D02*
D03*
Y1223750D02*
D03*
X835750Y1229250D02*
D03*
Y1223750D02*
D03*
X829250Y1229250D02*
D03*
Y1223750D02*
D03*
X822750Y1229250D02*
D03*
Y1223750D02*
D03*
X816250Y1229250D02*
D03*
Y1223750D02*
D03*
X733214Y191269D02*
D03*
Y185769D02*
D03*
X257000Y304100D02*
D03*
Y309600D02*
D03*
X139000Y143100D02*
D03*
Y137600D02*
D03*
X213000Y125600D02*
D03*
Y131100D02*
D03*
X866030Y946470D02*
D03*
Y940970D02*
D03*
X541092Y972282D02*
D03*
Y966782D02*
D03*
X558992Y972282D02*
D03*
Y966782D02*
D03*
X276000Y143100D02*
D03*
Y137600D02*
D03*
X269000Y143100D02*
D03*
Y137600D02*
D03*
X283000Y143100D02*
D03*
Y137600D02*
D03*
X262000Y143100D02*
D03*
Y137600D02*
D03*
X290000D02*
D03*
Y143100D02*
D03*
X719165Y360740D02*
D03*
Y355240D02*
D03*
X730164Y360740D02*
D03*
Y355240D02*
D03*
X876340Y953720D02*
D03*
Y959220D02*
D03*
X866030Y999470D02*
D03*
Y1004970D02*
D03*
X961000Y298000D02*
D03*
Y303500D02*
D03*
X982980Y545206D02*
D03*
Y539706D02*
D03*
X255000Y137600D02*
D03*
Y143100D02*
D03*
X248000Y137600D02*
D03*
Y143100D02*
D03*
X220000Y137600D02*
D03*
Y143100D02*
D03*
X132000Y304100D02*
D03*
Y309600D02*
D03*
Y143100D02*
D03*
Y137600D02*
D03*
X250000Y304100D02*
D03*
Y309600D02*
D03*
X184000D02*
D03*
Y304100D02*
D03*
X177000Y309600D02*
D03*
Y304100D02*
D03*
X222000Y309600D02*
D03*
Y304100D02*
D03*
X214896Y309771D02*
D03*
Y304271D02*
D03*
X163000Y309600D02*
D03*
Y304100D02*
D03*
X170000Y309600D02*
D03*
Y304100D02*
D03*
X248000Y125600D02*
D03*
Y131100D02*
D03*
X241000Y143100D02*
D03*
Y137600D02*
D03*
X676250Y356225D02*
D03*
X676250Y350725D02*
D03*
X669250D02*
D03*
Y356225D02*
D03*
X469228Y840909D02*
D03*
Y835409D02*
D03*
X462228Y840909D02*
D03*
Y835409D02*
D03*
X327500Y279950D02*
D03*
Y285450D02*
D03*
Y300450D02*
D03*
Y294950D02*
D03*
X184000Y143100D02*
D03*
Y137600D02*
D03*
X206000D02*
D03*
Y143100D02*
D03*
X334500Y279950D02*
D03*
Y285450D02*
D03*
X296000Y308950D02*
D03*
Y314450D02*
D03*
X299000Y273700D02*
D03*
Y268200D02*
D03*
X306000Y273700D02*
D03*
Y268200D02*
D03*
X271000Y304100D02*
D03*
Y309600D02*
D03*
X310000Y308950D02*
D03*
Y314450D02*
D03*
X206000Y131100D02*
D03*
Y125600D02*
D03*
X177000Y137600D02*
D03*
Y143100D02*
D03*
X170000Y137600D02*
D03*
Y143100D02*
D03*
X264000Y309600D02*
D03*
Y304100D02*
D03*
X768566Y938835D02*
D03*
Y933335D02*
D03*
X760566D02*
D03*
Y938835D02*
D03*
X982980Y551206D02*
D03*
Y556707D02*
D03*
X869030Y814470D02*
D03*
Y819970D02*
D03*
Y808470D02*
D03*
Y802970D02*
D03*
X453742Y1073922D02*
D03*
Y1079422D02*
D03*
X272442Y375351D02*
D03*
Y380851D02*
D03*
X111670Y358012D02*
D03*
Y352511D02*
D03*
X847800Y1409950D02*
D03*
Y1415450D02*
D03*
X810000Y1415500D02*
D03*
Y1410000D02*
D03*
X832300Y1415450D02*
D03*
Y1409950D02*
D03*
X902030Y928670D02*
D03*
Y934170D02*
D03*
X839800Y1415450D02*
D03*
Y1409950D02*
D03*
X910050Y999200D02*
D03*
Y993700D02*
D03*
X909030Y934170D02*
D03*
Y928670D02*
D03*
D189*
X899430Y844670D02*
D03*
X908930D02*
D03*
X899430Y855670D02*
D03*
X908930D02*
D03*
X871950Y685750D02*
D03*
X862450D02*
D03*
X871950Y514750D02*
D03*
X862450D02*
D03*
X860550Y1394000D02*
D03*
X851050D02*
D03*
D190*
X596383Y240745D02*
D03*
X573380Y258743D02*
D03*
X573380Y240745D02*
D03*
X596383Y258743D02*
D03*
D191*
X648656Y1435151D02*
D03*
X639906D02*
D03*
Y1440151D02*
D03*
X648656D02*
D03*
Y1420151D02*
D03*
X639906D02*
D03*
X648656Y1425151D02*
D03*
X639906Y1425151D02*
D03*
D192*
X641044Y1430151D02*
D03*
D193*
X647511D02*
D03*
D194*
X895800Y1325000D02*
D03*
Y1342000D02*
D03*
X983360Y397250D02*
D03*
Y380250D02*
D03*
X983360Y360250D02*
D03*
Y343250D02*
D03*
X389228Y927659D02*
D03*
Y944659D02*
D03*
X983360Y416250D02*
D03*
X983360Y433250D02*
D03*
X983360Y453250D02*
D03*
Y470250D02*
D03*
X221892Y1047277D02*
D03*
Y1030277D02*
D03*
X221892Y1014277D02*
D03*
Y997277D02*
D03*
X895050Y994950D02*
D03*
Y977950D02*
D03*
X667680Y125210D02*
D03*
X667680Y108210D02*
D03*
X855800Y1364000D02*
D03*
Y1381000D02*
D03*
X875800Y1325000D02*
D03*
Y1342000D02*
D03*
Y1364000D02*
D03*
Y1381000D02*
D03*
X895800Y1364000D02*
D03*
Y1381000D02*
D03*
D195*
X753011Y122360D02*
D03*
X736011D02*
D03*
X203892Y979777D02*
D03*
X220892D02*
D03*
X704040Y29130D02*
D03*
X721040D02*
D03*
X776963Y373571D02*
D03*
X793962D02*
D03*
D196*
X894830Y822670D02*
D03*
X903530D02*
D03*
X899830Y833670D02*
D03*
X908530D02*
D03*
X911030Y902970D02*
D03*
X902330D02*
D03*
X852030Y801470D02*
D03*
X860730D02*
D03*
X662901Y177910D02*
D03*
X671601D02*
D03*
X662901Y187910D02*
D03*
X671601Y187910D02*
D03*
X662551Y137910D02*
D03*
X671252D02*
D03*
X152753Y140343D02*
D03*
X161453D02*
D03*
X837800Y1363000D02*
D03*
X829100D02*
D03*
D197*
X847030Y1035780D02*
D03*
Y1044480D02*
D03*
X372747Y829958D02*
D03*
X372747Y838659D02*
D03*
X360747Y865659D02*
D03*
X360747Y856959D02*
D03*
X372747Y849959D02*
D03*
Y858659D02*
D03*
X445228Y839509D02*
D03*
Y830809D02*
D03*
X910050Y976450D02*
D03*
Y985150D02*
D03*
X877530Y975690D02*
D03*
Y966990D02*
D03*
X738369Y632389D02*
D03*
Y623689D02*
D03*
X154000Y304100D02*
D03*
Y312800D02*
D03*
X800250Y1265350D02*
D03*
Y1256650D02*
D03*
X336500Y295350D02*
D03*
Y304050D02*
D03*
X193000Y143100D02*
D03*
Y134400D02*
D03*
X796900Y1394850D02*
D03*
Y1386150D02*
D03*
X871800Y1404900D02*
D03*
Y1413600D02*
D03*
X858800Y1325000D02*
D03*
Y1333700D02*
D03*
X847030Y1025780D02*
D03*
Y1017080D02*
D03*
D198*
X487391Y83530D02*
D03*
X449391D02*
D03*
D200*
X860500Y1404500D02*
D03*
Y1414000D02*
D03*
X786566Y931405D02*
D03*
X786566Y940905D02*
D03*
X636650Y226250D02*
D03*
Y235750D02*
D03*
X626650Y226250D02*
D03*
Y235750D02*
D03*
X646650Y226250D02*
D03*
Y235750D02*
D03*
X612650Y226250D02*
D03*
Y235750D02*
D03*
X370391Y70480D02*
D03*
Y79980D02*
D03*
X360391Y70480D02*
D03*
Y79980D02*
D03*
X320391Y70480D02*
D03*
Y79980D02*
D03*
X380391Y70480D02*
D03*
X380391Y79980D02*
D03*
X350391D02*
D03*
Y70480D02*
D03*
X340392D02*
D03*
Y79980D02*
D03*
X330391D02*
D03*
Y70480D02*
D03*
D201*
X853030Y817470D02*
D03*
X834730D02*
D03*
D203*
X887000Y1062850D02*
D03*
Y1081150D02*
D03*
X895800Y1256500D02*
D03*
Y1274800D02*
D03*
X922000Y1256500D02*
D03*
Y1274800D02*
D03*
X887000Y1027850D02*
D03*
Y1046150D02*
D03*
D204*
X853250Y1264500D02*
D03*
X833250D02*
D03*
X848250D02*
D03*
Y1241500D02*
D03*
X818250D02*
D03*
X823250D02*
D03*
X818250Y1264500D02*
D03*
X823250D02*
D03*
X828250D02*
D03*
X838250D02*
D03*
X843250D02*
D03*
Y1241500D02*
D03*
X828250D02*
D03*
X838250D02*
D03*
X833250D02*
D03*
X853250D02*
D03*
X827530Y979450D02*
D03*
X847530Y956450D02*
D03*
X842530D02*
D03*
X832530Y956450D02*
D03*
X837530D02*
D03*
X842530Y979450D02*
D03*
X847530D02*
D03*
X852530D02*
D03*
X832530D02*
D03*
X837530D02*
D03*
X862530D02*
D03*
X852530Y956450D02*
D03*
X862530D02*
D03*
X857530Y979450D02*
D03*
Y956450D02*
D03*
X827530D02*
D03*
D205*
X814250Y1255500D02*
D03*
Y1250500D02*
D03*
X857250Y1255500D02*
D03*
Y1250500D02*
D03*
X823530Y965450D02*
D03*
X866530Y970450D02*
D03*
X823530D02*
D03*
X866530Y965450D02*
D03*
D206*
X835750Y1253000D02*
D03*
X845030Y967950D02*
D03*
D208*
X520641Y1527522D02*
D03*
X525141D02*
D03*
X558241D02*
D03*
X562741D02*
D03*
X546541D02*
D03*
X542041D02*
D03*
X508441D02*
D03*
X503941D02*
D03*
D209*
X754369Y630289D02*
D03*
Y625789D02*
D03*
X330591Y1446657D02*
D03*
Y1442157D02*
D03*
X317591Y1446657D02*
D03*
Y1442157D02*
D03*
X279591Y1525917D02*
D03*
Y1530417D02*
D03*
X470092Y974542D02*
D03*
Y970042D02*
D03*
X457392Y974542D02*
D03*
Y970042D02*
D03*
X444692Y974542D02*
D03*
Y970042D02*
D03*
X279100Y976260D02*
D03*
Y971760D02*
D03*
X429265Y560130D02*
D03*
Y564630D02*
D03*
X403865Y560130D02*
D03*
Y564630D02*
D03*
X416565Y560130D02*
D03*
Y564630D02*
D03*
D211*
X141170Y16000D02*
D03*
X855000Y1560000D02*
D03*
X80000D02*
D03*
D213*
X922000Y946800D02*
D03*
Y921400D02*
D03*
Y896000D02*
D03*
Y870600D02*
D03*
Y845200D02*
D03*
X657221Y1150360D02*
D03*
Y1175760D02*
D03*
X682621Y1150360D02*
D03*
X733421D02*
D03*
X708021Y1124960D02*
D03*
X733421Y1175760D02*
D03*
X758821Y1150360D02*
D03*
X708021Y1175760D02*
D03*
Y1150360D02*
D03*
X682621Y1124960D02*
D03*
X733421D02*
D03*
X758821D02*
D03*
Y1175760D02*
D03*
X682621D02*
D03*
X657221Y1124960D02*
D03*
X279400Y1390650D02*
D03*
X254000D02*
D03*
X304800Y1390650D02*
D03*
X330200Y1390650D02*
D03*
X504892Y900859D02*
D03*
Y875459D02*
D03*
D214*
X889841Y125250D02*
D03*
Y221750D02*
D03*
D215*
X798441Y132900D02*
D03*
Y153200D02*
D03*
X823841Y122750D02*
D03*
Y163350D02*
D03*
X798441Y112600D02*
D03*
X823841Y143050D02*
D03*
Y203950D02*
D03*
Y224250D02*
D03*
X798441Y234400D02*
D03*
Y193800D02*
D03*
Y214100D02*
D03*
X823841Y183650D02*
D03*
D216*
X927941Y98300D02*
D03*
X978741D02*
D03*
X953341D02*
D03*
X978741Y248700D02*
D03*
X953341D02*
D03*
X959000Y1004000D02*
D03*
Y1054000D02*
D03*
Y954000D02*
D03*
Y904000D02*
D03*
Y854000D02*
D03*
D217*
X889841Y85600D02*
D03*
Y261400D02*
D03*
D218*
X162425Y16990D02*
D03*
X119925D02*
D03*
D219*
X887480Y1148000D02*
D03*
D220*
X945480D02*
D03*
D221*
X917480Y1195000D02*
D03*
D222*
X290011Y441747D02*
D03*
Y241747D02*
D03*
D223*
X933011Y704090D02*
D03*
X984011D02*
D03*
Y790490D02*
D03*
X933011D02*
D03*
D224*
X54011Y1457360D02*
D03*
Y707360D02*
D03*
X804011D02*
D03*
Y1457360D02*
D03*
D225*
X572511Y342247D02*
D03*
D226*
X857000Y386750D02*
D03*
X889000D02*
D03*
X857000Y366750D02*
D03*
X889000D02*
D03*
X857000Y426750D02*
D03*
Y446750D02*
D03*
X872000Y416750D02*
D03*
Y396750D02*
D03*
Y371750D02*
D03*
X889000Y426750D02*
D03*
Y446750D02*
D03*
X904000Y416750D02*
D03*
Y396750D02*
D03*
Y371750D02*
D03*
X857000Y406750D02*
D03*
X889000D02*
D03*
X872000Y441750D02*
D03*
X904000D02*
D03*
D227*
X924000Y342750D02*
D03*
X867200D02*
D03*
Y470750D02*
D03*
X924000D02*
D03*
D228*
X635000Y508000D02*
D03*
X609600D02*
D03*
X584200D02*
D03*
X558800D02*
D03*
X533400D02*
D03*
X508000D02*
D03*
X482600D02*
D03*
X457200D02*
D03*
X416560D02*
D03*
X391160D02*
D03*
X365760D02*
D03*
X340360D02*
D03*
X314960D02*
D03*
X289560D02*
D03*
X264160D02*
D03*
X238760D02*
D03*
X213360D02*
D03*
X187960D02*
D03*
X279400Y25400D02*
D03*
X304800D02*
D03*
X330200D02*
D03*
X355600D02*
D03*
X381000D02*
D03*
X406400D02*
D03*
X431800D02*
D03*
X457200D02*
D03*
X508000D02*
D03*
X533400D02*
D03*
X558800D02*
D03*
X584200D02*
D03*
X609600D02*
D03*
X635000D02*
D03*
D229*
X918000Y595000D02*
D03*
X906400D02*
D03*
X900600Y585000D02*
D03*
X889000D02*
D03*
X883200Y595000D02*
D03*
X871600D02*
D03*
X865800Y585000D02*
D03*
X854200D02*
D03*
X848400Y595000D02*
D03*
X842600Y585000D02*
D03*
X813600Y595000D02*
D03*
X836800D02*
D03*
X831000Y585000D02*
D03*
X819400D02*
D03*
X825200Y595000D02*
D03*
X860000D02*
D03*
X877400Y585000D02*
D03*
X894800Y595000D02*
D03*
X912200Y585000D02*
D03*
D230*
X937000Y605000D02*
D03*
X804500Y570000D02*
D03*
D231*
X804500Y622500D02*
D03*
X835500Y557500D02*
D03*
X899500Y622500D02*
D03*
X925500Y557500D02*
D03*
D232*
X920000Y40000D02*
D03*
X615000Y590000D02*
D03*
X35000Y590000D02*
D03*
X141170Y66000D02*
D03*
X35000Y1560000D02*
D03*
X900000Y1559999D02*
D03*
D297*
X597371Y1170360D02*
D03*
X587371D02*
D03*
X607371Y1160360D02*
D03*
X567371D02*
D03*
X567371Y1150360D02*
D03*
X577371Y1140360D02*
D03*
Y1150360D02*
D03*
X597371D02*
D03*
X577371Y1170360D02*
D03*
X567371D02*
D03*
X567371Y1140360D02*
D03*
X587371Y1150360D02*
D03*
X597371Y1160360D02*
D03*
X587371Y1130360D02*
D03*
X597371Y1130360D02*
D03*
X587371Y1140360D02*
D03*
X597371D02*
D03*
X607371Y1130360D02*
D03*
X577371Y1160360D02*
D03*
X607371Y1140360D02*
D03*
X577371Y1130360D02*
D03*
X567371Y1130360D02*
D03*
X607371Y1150360D02*
D03*
X587371Y1160360D02*
D03*
D364*
X837800Y1375000D02*
D03*
Y1380000D02*
D03*
Y1385000D02*
D03*
Y1390000D02*
D03*
Y1395000D02*
D03*
Y1400000D02*
D03*
X810000D02*
D03*
Y1395000D02*
D03*
Y1390000D02*
D03*
Y1385000D02*
D03*
Y1380000D02*
D03*
Y1375000D02*
D03*
D365*
X823900Y1387500D02*
D03*
D366*
X697100Y226627D02*
D03*
X778611Y751810D02*
D03*
Y777210D02*
D03*
X647700Y292100D02*
D03*
X685800D02*
D03*
X698500Y368300D02*
D03*
Y342900D02*
D03*
Y317500D02*
D03*
X787400Y393700D02*
D03*
X778228Y328159D02*
D03*
X355600Y395700D02*
D03*
Y370300D02*
D03*
X304800Y326800D02*
D03*
X330200D02*
D03*
X203200D02*
D03*
X279400D02*
D03*
X431454Y370300D02*
D03*
X406400D02*
D03*
X381000D02*
D03*
X406400Y395700D02*
D03*
X381000D02*
D03*
X228600Y326800D02*
D03*
X209550Y838200D02*
D03*
X285292Y946757D02*
D03*
X330200Y50800D02*
D03*
X685800Y27400D02*
D03*
X697095Y147980D02*
D03*
Y122580D02*
D03*
X722495D02*
D03*
X697095Y198780D02*
D03*
Y173380D02*
D03*
X660400Y27400D02*
D03*
Y52800D02*
D03*
X685800D02*
D03*
X660400Y88900D02*
D03*
X152400Y326800D02*
D03*
X179522Y326437D02*
D03*
X194689Y1327930D02*
D03*
X365760Y533400D02*
D03*
X340360D02*
D03*
X314960D02*
D03*
X289560D02*
D03*
X264160D02*
D03*
X238760D02*
D03*
X279400Y50800D02*
D03*
X304800D02*
D03*
X194726Y1296802D02*
D03*
X355600Y50800D02*
D03*
X381000D02*
D03*
X406400D02*
D03*
X431800D02*
D03*
X330200Y1346200D02*
D03*
X304800D02*
D03*
X279400D02*
D03*
X254000D02*
D03*
X793750Y882650D02*
D03*
X209550Y863600D02*
D03*
Y812800D02*
D03*
X344400Y880300D02*
D03*
X667680Y208627D02*
D03*
X254000Y326800D02*
D03*
X855250Y1280084D02*
D03*
X228600Y50800D02*
D03*
X254000D02*
D03*
X203200D02*
D03*
X213360Y533400D02*
D03*
X187960D02*
D03*
X447742Y951659D02*
D03*
D367*
X360747Y845309D02*
D03*
X355747D02*
D03*
Y831309D02*
D03*
X350747D02*
D03*
X360747D02*
D03*
X350747Y845309D02*
D03*
D368*
X906500Y1082500D02*
D03*
Y1060800D02*
D03*
Y1026800D02*
D03*
Y1048500D02*
D03*
D369*
X232000Y1459660D02*
D03*
Y1506660D02*
D03*
X695760Y540821D02*
D03*
Y493821D02*
D03*
X413321Y78860D02*
D03*
Y125860D02*
D03*
D370*
X260300Y83000D02*
D03*
X222300D02*
D03*
X876000Y774000D02*
D03*
X838000D02*
D03*
X831320Y1168000D02*
D03*
X793320D02*
D03*
D371*
X863030Y916970D02*
D03*
X843030Y837970D02*
D03*
X863030D02*
D03*
X835030Y916970D02*
D03*
X859030Y837970D02*
D03*
X855030D02*
D03*
X851030D02*
D03*
X847030D02*
D03*
X871030D02*
D03*
X839030D02*
D03*
X859030Y916970D02*
D03*
X871030D02*
D03*
X867030D02*
D03*
X847030D02*
D03*
X843030D02*
D03*
X839030D02*
D03*
X835030Y837970D02*
D03*
X855030Y916970D02*
D03*
X851030D02*
D03*
X867030Y837970D02*
D03*
D372*
X877530Y895470D02*
D03*
Y867470D02*
D03*
Y863470D02*
D03*
Y859470D02*
D03*
Y855470D02*
D03*
Y851470D02*
D03*
Y847470D02*
D03*
Y879470D02*
D03*
Y883470D02*
D03*
X828530Y907470D02*
D03*
Y899470D02*
D03*
Y903470D02*
D03*
Y891470D02*
D03*
Y887470D02*
D03*
X877530D02*
D03*
Y899470D02*
D03*
Y907470D02*
D03*
Y871470D02*
D03*
Y875470D02*
D03*
Y903470D02*
D03*
X828530Y883470D02*
D03*
Y879470D02*
D03*
Y875470D02*
D03*
Y871470D02*
D03*
Y867470D02*
D03*
Y863470D02*
D03*
Y859470D02*
D03*
Y855470D02*
D03*
Y851470D02*
D03*
Y847470D02*
D03*
Y895470D02*
D03*
X877530Y891470D02*
D03*
D373*
X853030Y877470D02*
D03*
D374*
X433228Y917659D02*
D03*
X449228D02*
D03*
X429228D02*
D03*
X457228D02*
D03*
X441228D02*
D03*
X437228D02*
D03*
X445228Y858659D02*
D03*
Y917659D02*
D03*
X453228Y858659D02*
D03*
X425228D02*
D03*
X421228D02*
D03*
X417228D02*
D03*
X413228D02*
D03*
X449228D02*
D03*
X457228D02*
D03*
X437228D02*
D03*
X425228Y917659D02*
D03*
X421228D02*
D03*
X413228D02*
D03*
X429228Y858659D02*
D03*
X441228D02*
D03*
X433228D02*
D03*
X417228Y917659D02*
D03*
X453228D02*
D03*
D375*
X464728Y910159D02*
D03*
Y882159D02*
D03*
Y878159D02*
D03*
Y898159D02*
D03*
Y874159D02*
D03*
Y870159D02*
D03*
Y866159D02*
D03*
X405728Y906159D02*
D03*
Y870159D02*
D03*
Y910159D02*
D03*
Y902159D02*
D03*
Y898159D02*
D03*
Y874159D02*
D03*
Y878159D02*
D03*
Y882159D02*
D03*
Y886159D02*
D03*
Y894159D02*
D03*
X464728D02*
D03*
Y890159D02*
D03*
X405728D02*
D03*
Y866159D02*
D03*
X464728Y886159D02*
D03*
Y902159D02*
D03*
Y906159D02*
D03*
D376*
X435228Y888159D02*
D03*
D377*
X123000Y181600D02*
D03*
X275000Y176600D02*
D03*
Y181600D02*
D03*
Y186600D02*
D03*
Y191600D02*
D03*
Y196600D02*
D03*
Y201600D02*
D03*
Y206600D02*
D03*
Y216600D02*
D03*
Y221600D02*
D03*
Y231600D02*
D03*
Y236600D02*
D03*
Y246600D02*
D03*
Y251600D02*
D03*
Y261600D02*
D03*
Y266600D02*
D03*
Y271600D02*
D03*
X123000Y266600D02*
D03*
Y176600D02*
D03*
Y191600D02*
D03*
Y186600D02*
D03*
Y206600D02*
D03*
Y196600D02*
D03*
Y201600D02*
D03*
Y236600D02*
D03*
Y231600D02*
D03*
Y246600D02*
D03*
Y241600D02*
D03*
Y216600D02*
D03*
Y211600D02*
D03*
Y226600D02*
D03*
Y221600D02*
D03*
Y251600D02*
D03*
Y256600D02*
D03*
Y261600D02*
D03*
Y271600D02*
D03*
X275000Y226600D02*
D03*
Y211600D02*
D03*
Y241600D02*
D03*
Y256600D02*
D03*
D378*
X131500Y168100D02*
D03*
X136500D02*
D03*
X161500D02*
D03*
X166500D02*
D03*
X176500D02*
D03*
X181500D02*
D03*
X186500D02*
D03*
X191500D02*
D03*
X196500D02*
D03*
X206500D02*
D03*
X211500D02*
D03*
X216500D02*
D03*
X221500D02*
D03*
X226500D02*
D03*
X231500D02*
D03*
X236500D02*
D03*
X241500D02*
D03*
X246500D02*
D03*
X251500D02*
D03*
X256500D02*
D03*
X261500D02*
D03*
X266500D02*
D03*
X266500Y280100D02*
D03*
X261500D02*
D03*
X251500D02*
D03*
X246500D02*
D03*
X236500D02*
D03*
X231500D02*
D03*
X221500D02*
D03*
X216500D02*
D03*
X206500D02*
D03*
X201500D02*
D03*
X196500D02*
D03*
X191500D02*
D03*
X186500D02*
D03*
X181500D02*
D03*
X176500D02*
D03*
X171500D02*
D03*
X166500D02*
D03*
X161500D02*
D03*
X141500D02*
D03*
X136500D02*
D03*
X131500D02*
D03*
X146500Y168100D02*
D03*
X146500Y280100D02*
D03*
X151500Y168100D02*
D03*
Y280100D02*
D03*
X141500Y168100D02*
D03*
X171500D02*
D03*
X156500D02*
D03*
Y280100D02*
D03*
X201500Y168100D02*
D03*
X211500Y280100D02*
D03*
X226500D02*
D03*
X241500D02*
D03*
X256500D02*
D03*
D379*
X124000Y169100D02*
D03*
Y279100D02*
D03*
X274000Y169100D02*
D03*
Y279100D02*
D03*
D380*
X149500Y207600D02*
D03*
X182500D02*
D03*
Y240600D02*
D03*
X215500Y207600D02*
D03*
Y240600D02*
D03*
X248500Y207600D02*
D03*
Y240600D02*
D03*
D381*
X904327Y943735D02*
D03*
X910827D02*
D03*
X897827D02*
D03*
X910827Y962735D02*
D03*
X897827D02*
D03*
X904327D02*
D03*
D382*
X801030Y1031780D02*
D03*
X831030Y1044780D02*
D03*
X801030Y1038280D02*
D03*
X831030Y1025280D02*
D03*
X801030Y1025280D02*
D03*
Y1044780D02*
D03*
X831030Y1031780D02*
D03*
Y1038280D02*
D03*
D383*
X678251Y165760D02*
D03*
X678251Y150060D02*
D03*
D384*
X841300Y1325000D02*
D03*
X804300D02*
D03*
D385*
X232865Y459998D02*
D03*
X220165D02*
D03*
X347165D02*
D03*
X207465D02*
D03*
X194765D02*
D03*
X182065D02*
D03*
X169365D02*
D03*
X270965Y423503D02*
D03*
X321765D02*
D03*
X309065D02*
D03*
X347165D02*
D03*
X334465D02*
D03*
X359865Y459998D02*
D03*
X372565D02*
D03*
X156665Y423503D02*
D03*
X486865Y459998D02*
D03*
X474165D02*
D03*
X461465D02*
D03*
X448765D02*
D03*
X143965Y423503D02*
D03*
X118565D02*
D03*
X105865D02*
D03*
X309065Y459998D02*
D03*
X321765D02*
D03*
X334465D02*
D03*
X245565D02*
D03*
X423365Y423503D02*
D03*
X436065D02*
D03*
X461465D02*
D03*
X474165D02*
D03*
X537665D02*
D03*
X550365D02*
D03*
X575765D02*
D03*
X588465D02*
D03*
X436065Y459998D02*
D03*
X423365D02*
D03*
X410665D02*
D03*
X397965D02*
D03*
X385265D02*
D03*
X182065Y423503D02*
D03*
X194765D02*
D03*
X220165D02*
D03*
X232865D02*
D03*
X397965D02*
D03*
X385265D02*
D03*
X372565D02*
D03*
X359865D02*
D03*
X512265D02*
D03*
X626565D02*
D03*
X613865D02*
D03*
X258265D02*
D03*
X499565D02*
D03*
X651965Y459998D02*
D03*
X664665D02*
D03*
X690065D02*
D03*
X702765D02*
D03*
X677365D02*
D03*
X715465D02*
D03*
X728165D02*
D03*
X270965D02*
D03*
X245565Y423503D02*
D03*
X131265Y459998D02*
D03*
X143965D02*
D03*
X156665D02*
D03*
X131265Y423503D02*
D03*
X169365D02*
D03*
X207465D02*
D03*
X258265Y459998D02*
D03*
X410665Y423503D02*
D03*
X448765D02*
D03*
X486865D02*
D03*
X499565Y459998D02*
D03*
X512265D02*
D03*
X524965Y423503D02*
D03*
Y459998D02*
D03*
X563065Y423503D02*
D03*
X537665Y459998D02*
D03*
X550365D02*
D03*
X563065D02*
D03*
X575765D02*
D03*
X588465D02*
D03*
X601165D02*
D03*
Y423503D02*
D03*
X613865Y459998D02*
D03*
X639265Y423503D02*
D03*
X664665D02*
D03*
X651965D02*
D03*
X626565Y459998D02*
D03*
X639265D02*
D03*
X677365Y423503D02*
D03*
X702765D02*
D03*
X690065D02*
D03*
X715465D02*
D03*
X728165D02*
D03*
X105865Y459998D02*
D03*
X118565D02*
D03*
X444692Y1032772D02*
D03*
X343092D02*
D03*
X330392D02*
D03*
X368492Y996287D02*
D03*
X355792D02*
D03*
X343092D02*
D03*
X330392D02*
D03*
X279592Y1032772D02*
D03*
Y996287D02*
D03*
X558992Y1032772D02*
D03*
X533592D02*
D03*
X520892D02*
D03*
X571692D02*
D03*
X558992Y996287D02*
D03*
X546292D02*
D03*
X571692D02*
D03*
X584392D02*
D03*
X597092D02*
D03*
X609792D02*
D03*
X622492D02*
D03*
X635192D02*
D03*
X647892D02*
D03*
X609792Y1032772D02*
D03*
X584392D02*
D03*
X597092D02*
D03*
X622492D02*
D03*
X635192D02*
D03*
X508192D02*
D03*
X647892D02*
D03*
X546292D02*
D03*
X508192Y996287D02*
D03*
X520892D02*
D03*
X533592D02*
D03*
X419292Y1032772D02*
D03*
X393892D02*
D03*
X406592D02*
D03*
Y996287D02*
D03*
X355792Y1032772D02*
D03*
X393892Y996287D02*
D03*
X419292D02*
D03*
X368492Y1032772D02*
D03*
X457392D02*
D03*
X470092D02*
D03*
X457392Y996287D02*
D03*
X470092D02*
D03*
X292292D02*
D03*
X381192D02*
D03*
X431992Y1032772D02*
D03*
X482792D02*
D03*
X444692Y996287D02*
D03*
X495492D02*
D03*
X304992D02*
D03*
X317692D02*
D03*
X292292Y1032772D02*
D03*
X381192D02*
D03*
X431992Y996287D02*
D03*
X482792D02*
D03*
X495492Y1032772D02*
D03*
X317692D02*
D03*
X304992D02*
D03*
X317691Y1464917D02*
D03*
X330391D02*
D03*
X558991Y1501402D02*
D03*
X546291D02*
D03*
X317691D02*
D03*
X330391D02*
D03*
X508191Y1464917D02*
D03*
X520891D02*
D03*
X431991D02*
D03*
X444691D02*
D03*
X597091Y1501402D02*
D03*
X584391D02*
D03*
Y1464917D02*
D03*
X597091D02*
D03*
X635191Y1501402D02*
D03*
X622491D02*
D03*
X368491Y1464917D02*
D03*
X355791D02*
D03*
X406591D02*
D03*
X393891D02*
D03*
X482791D02*
D03*
X470091D02*
D03*
X622491D02*
D03*
X635191D02*
D03*
X406591Y1501402D02*
D03*
X368491D02*
D03*
X508191D02*
D03*
X470091D02*
D03*
X431991D02*
D03*
X279591Y1464917D02*
D03*
X292291D02*
D03*
X393891Y1501402D02*
D03*
X520891D02*
D03*
X355791D02*
D03*
X482791D02*
D03*
X444691D02*
D03*
X546291Y1464917D02*
D03*
X558991D02*
D03*
X279591Y1501402D02*
D03*
X292291D02*
D03*
X304991Y1464917D02*
D03*
Y1501402D02*
D03*
X343091Y1464917D02*
D03*
Y1501402D02*
D03*
X381191D02*
D03*
Y1464917D02*
D03*
X419291D02*
D03*
Y1501402D02*
D03*
X457391Y1464917D02*
D03*
Y1501402D02*
D03*
X495491Y1464917D02*
D03*
Y1501402D02*
D03*
X533591Y1464917D02*
D03*
Y1501402D02*
D03*
X571691Y1464917D02*
D03*
Y1501402D02*
D03*
X609791Y1464917D02*
D03*
Y1501402D02*
D03*
X647891Y1464917D02*
D03*
Y1501402D02*
D03*
D386*
X296365Y460997D02*
D03*
Y422507D02*
D03*
X283665Y460997D02*
D03*
Y422507D02*
D03*
D387*
X232500Y956000D02*
D03*
X203000D02*
D03*
X232500Y881000D02*
D03*
X203000D02*
D03*
X232500Y906000D02*
D03*
X203000D02*
D03*
X232500Y931000D02*
D03*
X203000D02*
D03*
D388*
X902646Y765290D02*
D03*
Y750290D02*
D03*
X869000Y1054500D02*
D03*
Y1039500D02*
D03*
X902650Y720290D02*
D03*
Y735290D02*
D03*
D389*
X571631Y177290D02*
D03*
X555631Y201290D02*
D03*
X603631Y145290D02*
D03*
X531631Y97290D02*
D03*
X563632Y89290D02*
D03*
X571631Y105290D02*
D03*
X531631Y177290D02*
D03*
X523631D02*
D03*
Y97290D02*
D03*
X539632Y177290D02*
D03*
X579632Y105290D02*
D03*
X571631Y201290D02*
D03*
X547631Y169290D02*
D03*
X531631Y185290D02*
D03*
Y169290D02*
D03*
X563631Y97290D02*
D03*
X611632Y185290D02*
D03*
X603631Y177290D02*
D03*
X547631D02*
D03*
X547631Y185290D02*
D03*
X619632Y113290D02*
D03*
X611632Y145290D02*
D03*
X563632Y161290D02*
D03*
X579631Y97290D02*
D03*
X635631Y193290D02*
D03*
X603631D02*
D03*
X523631D02*
D03*
X523631Y185290D02*
D03*
Y129290D02*
D03*
X523631Y121290D02*
D03*
X523631Y113290D02*
D03*
X523631Y105290D02*
D03*
X531631Y201290D02*
D03*
X531631Y193290D02*
D03*
Y129290D02*
D03*
X531631Y121290D02*
D03*
X531631Y113290D02*
D03*
X531631Y105290D02*
D03*
X539632Y185290D02*
D03*
Y169290D02*
D03*
Y137290D02*
D03*
Y129290D02*
D03*
Y121290D02*
D03*
Y97290D02*
D03*
X547631Y161290D02*
D03*
X547631Y137290D02*
D03*
X547631Y129290D02*
D03*
Y121290D02*
D03*
Y105290D02*
D03*
X547631Y97290D02*
D03*
Y89290D02*
D03*
X555631Y137290D02*
D03*
X555631Y113290D02*
D03*
X563632Y201290D02*
D03*
Y193290D02*
D03*
Y177290D02*
D03*
X563631Y169290D02*
D03*
X571631Y193290D02*
D03*
X571632Y185290D02*
D03*
X571631Y169290D02*
D03*
X579631Y201290D02*
D03*
X579632Y177290D02*
D03*
X579631Y169290D02*
D03*
X579631Y121290D02*
D03*
X587631Y177290D02*
D03*
X595631Y201290D02*
D03*
X603632Y153290D02*
D03*
X603631Y113290D02*
D03*
X611631Y177290D02*
D03*
X611631Y169290D02*
D03*
X611632Y161290D02*
D03*
Y137290D02*
D03*
X619632Y177290D02*
D03*
X619632Y169290D02*
D03*
X619632Y161290D02*
D03*
Y153290D02*
D03*
Y145290D02*
D03*
Y137290D02*
D03*
X627631Y169290D02*
D03*
X627631Y161290D02*
D03*
Y153290D02*
D03*
Y145290D02*
D03*
Y137290D02*
D03*
X635631Y177290D02*
D03*
X635631Y169290D02*
D03*
X635631Y161290D02*
D03*
X635631Y153290D02*
D03*
Y145290D02*
D03*
X635631Y137290D02*
D03*
X635631Y129290D02*
D03*
X563632Y121290D02*
D03*
X635631Y105290D02*
D03*
X547631Y153290D02*
D03*
X539632Y161290D02*
D03*
X523631Y169290D02*
D03*
X587631Y201290D02*
D03*
X587631Y193290D02*
D03*
X603631Y185290D02*
D03*
Y129290D02*
D03*
X579632Y113290D02*
D03*
X555631Y161290D02*
D03*
X595631Y169290D02*
D03*
X635631Y113290D02*
D03*
X619632Y185290D02*
D03*
X627631Y193290D02*
D03*
X627631Y185290D02*
D03*
X571632Y121290D02*
D03*
X563632Y105290D02*
D03*
Y113290D02*
D03*
X539632Y89290D02*
D03*
X635631Y185290D02*
D03*
X603631Y161290D02*
D03*
X627631Y177290D02*
D03*
X531631Y153290D02*
D03*
X539632Y153290D02*
D03*
X555631Y153290D02*
D03*
Y145290D02*
D03*
X523631Y161290D02*
D03*
X611632Y129290D02*
D03*
X627631Y121290D02*
D03*
Y97290D02*
D03*
X619632Y105290D02*
D03*
X595631Y121290D02*
D03*
X611632Y105290D02*
D03*
X603631Y201290D02*
D03*
X595631Y193290D02*
D03*
X611632Y201290D02*
D03*
X611631Y193290D02*
D03*
X547631Y113290D02*
D03*
X531631Y89290D02*
D03*
X555631Y129290D02*
D03*
X539632Y113290D02*
D03*
X627631Y89290D02*
D03*
X603632Y137290D02*
D03*
X627631Y129290D02*
D03*
X619632Y129290D02*
D03*
X635631Y121290D02*
D03*
X579632Y185290D02*
D03*
X579631Y193290D02*
D03*
X611632Y153290D02*
D03*
X531631Y137290D02*
D03*
X523631D02*
D03*
X523631Y153290D02*
D03*
X619632Y201290D02*
D03*
Y193290D02*
D03*
X627631Y201290D02*
D03*
X595631Y161290D02*
D03*
X619632Y121290D02*
D03*
X611631D02*
D03*
X627631Y105290D02*
D03*
X595631Y129290D02*
D03*
X611631Y113290D02*
D03*
X635631Y97290D02*
D03*
X555631D02*
D03*
X555631Y105290D02*
D03*
X571631Y89290D02*
D03*
X579631D02*
D03*
X587631Y169290D02*
D03*
X531631Y161290D02*
D03*
X611631Y97290D02*
D03*
X603631Y105290D02*
D03*
X587631Y121290D02*
D03*
X595631Y113290D02*
D03*
X563631Y129290D02*
D03*
X555631Y177290D02*
D03*
X555631Y193290D02*
D03*
X539632Y201290D02*
D03*
X563631Y185290D02*
D03*
X547631Y145290D02*
D03*
X539632D02*
D03*
X531631D02*
D03*
X523631D02*
D03*
X547631Y193290D02*
D03*
Y201290D02*
D03*
X539632Y105290D02*
D03*
X587631Y89290D02*
D03*
X619632Y97290D02*
D03*
X619632Y89290D02*
D03*
X603631Y89290D02*
D03*
X587631Y113290D02*
D03*
X595631Y97290D02*
D03*
Y89290D02*
D03*
X587631Y105290D02*
D03*
X611632Y89290D02*
D03*
X603631Y97290D02*
D03*
X595631Y105290D02*
D03*
X587631Y97290D02*
D03*
X555631Y89290D02*
D03*
X571631Y97290D02*
D03*
X563632Y137290D02*
D03*
Y153290D02*
D03*
X571631D02*
D03*
X571631Y129290D02*
D03*
Y137290D02*
D03*
X587631Y129290D02*
D03*
Y137290D02*
D03*
Y153290D02*
D03*
X571631Y161290D02*
D03*
X587631Y161290D02*
D03*
X595631Y137290D02*
D03*
Y153290D02*
D03*
X523631Y89290D02*
D03*
X555631Y121290D02*
D03*
X555631Y169290D02*
D03*
X523631Y201290D02*
D03*
X555631Y185290D02*
D03*
X563632Y145290D02*
D03*
X571632Y113290D02*
D03*
X579632Y129290D02*
D03*
X579631Y137290D02*
D03*
X587631Y145290D02*
D03*
X571631Y145290D02*
D03*
X579631Y153290D02*
D03*
Y145290D02*
D03*
X579632Y161290D02*
D03*
X587631Y185290D02*
D03*
X627631Y113290D02*
D03*
X635631Y89290D02*
D03*
X595631Y177290D02*
D03*
X603631Y121290D02*
D03*
X595631Y145290D02*
D03*
X603631Y169290D02*
D03*
X595631Y185290D02*
D03*
X635631Y201290D02*
D03*
X539632Y193290D02*
D03*
D390*
X530632Y244751D02*
D03*
X555631D02*
D03*
D391*
X734840Y648789D02*
D03*
Y686789D02*
D03*
X184000Y1502160D02*
D03*
Y1464160D02*
D03*
D392*
X111670Y132510D02*
D03*
Y138010D02*
D03*
D393*
X842821Y1083360D02*
D03*
X795821D02*
D03*
D394*
X941346Y747290D02*
D03*
X919646D02*
D03*
D395*
X804011Y751810D02*
D03*
Y777210D02*
D03*
D396*
X240944Y1404170D02*
D03*
X240944Y1433670D02*
D03*
X216350Y1404170D02*
D03*
Y1433670D02*
D03*
X266043Y1327285D02*
D03*
X266043Y1297785D02*
D03*
X241449Y1327285D02*
D03*
Y1297785D02*
D03*
X216854Y1327285D02*
D03*
Y1297785D02*
D03*
X339826Y1327285D02*
D03*
X339826Y1297785D02*
D03*
X315232Y1327285D02*
D03*
X315232Y1297785D02*
D03*
X290637Y1327285D02*
D03*
X290637Y1297785D02*
D03*
D397*
X834980Y1138000D02*
D03*
X819980D02*
D03*
X834980Y1118000D02*
D03*
X819980D02*
D03*
D398*
X734841Y710688D02*
D03*
Y748688D02*
D03*
M02*
